<svg id="icons" xmlns="http://www.w3.org/2000/svg" viewBox="0 0 16 16"><path d="M10,16H6v-.5a3.178,3.178,0,0,1,1.76562-2.72363C8.53076,12.24658,9,11.88184,9,11.1001A1.00759,1.00759,0,0,0,8.002,9.991a.9316.9316,0,0,0-.72561.26925A1.20628,1.20628,0,0,0,6.991,11L6,10.998a2.11032,2.11032,0,0,1,.55566-1.43116A1.88432,1.88432,0,0,1,8.002,9,1.89723,1.89723,0,0,1,10,11.1001a2.94008,2.94008,0,0,1-1.665,2.49853c-.66211.4585-1.11914.80518-1.27539,1.40137H10ZM2,.91113.03418,1.73389l.38574.92285L1,2.41406V8H2ZM7.709,2.415,6.79883,2,1.05518,14.585,1.96533,15ZM14.72143,6,13.502,7.639,12.28248,6H11.00489l1.8583,2.498L11.002,11h1.27753L13.502,9.357,14.72443,11H16L14.14072,8.498,16,6Z"/><path fill="none" d="M0 0h16v16H0z"/></svg>