<svg id="icons" xmlns="http://www.w3.org/2000/svg" viewBox="0 0 32 32"><path d="M18,29H10v-.5c0-2.44824,2.04872-3.69189,3.8563-4.78857,1.61466-.98047,3.13976-1.90625,3.13976-3.522,0-1.08984-.81643-2.20745-2.64075-2.20745A3.07427,3.07427,0,0,0,10.991,21H10a4.06678,4.06678,0,0,1,4.35531-4C16.50344,17,18,18.31152,18,20.18945c0,2.17627-1.83711,3.29395-3.61811,4.375C12.80659,25.52051,11.311,26.42822,11.04823,28H18ZM5,4,.981,5.60791l.37109.92871L4,5.47754V16H5Zm9,1.415L13.09082,5,2.61475,28.585,3.52393,29ZM29.62294,13l-3.10787,3.67791L23.40719,13H22.06071l3.78111,4.47464L22.01783,22h1.34655l3.15069-3.72863L29.66576,22H31v-.01456l-3.81169-4.5108L30.96943,13Z"/><path fill="none" d="M0 0h32v32H0z"/></svg>