<svg id="icons" xmlns="http://www.w3.org/2000/svg" viewBox="0 0 24 24"><path d="M15,23H8.1001v-.5c0-2.15723,1.76172-3.10547,3.3164-3.94189,1.39112-.74854,2.59229-1.39454,2.59229-2.7212,0-1.04638-1.18359-1.83733-2.46973-1.85491a2.38082,2.38082,0,0,0-2.00146.72015A2.11843,2.11843,0,0,0,8.973,16H8.00293a2.9535,2.9535,0,0,1,.82275-2,3.43739,3.43739,0,0,1,2.72705-1c1.82782,0,3.43806,1.24512,3.43806,2.83691,0,1.92383-1.63874,2.81543-3.10017,3.60205-1.27246.68458-2.48193,1.335-2.74023,2.561H15ZM11,3.42236,10.084,3.022,2.00732,21.59229l.916.40039ZM4,2.207,1.01123,3.63428l.43066.90234L3,3.793v8.16748H4ZM22.68868,9,20.5,11.69552,18.31132,9H17.00489l2.84189,3.5L17.00489,16h1.30643L20.5,13.30448,22.68868,16h1.30643l-2.84189-3.5L23.99511,9Z"/><path fill="none" d="M0 0h24v24H0z"/></svg>