<svg id="icons" xmlns="http://www.w3.org/2000/svg" viewBox="0 0 32 32"><path d="M15.79554,22.60648a2.91224,2.91224,0,0,1,1.61194,1.11608A3.49385,3.49385,0,0,1,17.70626,27a2.972,2.972,0,0,1-.75507,1.01972,3.51372,3.51372,0,0,1-1.11617.65082,4.00177,4.00177,0,0,1-2.689,0,3.51356,3.51356,0,0,1-1.11616-.65082A2.95955,2.95955,0,0,1,11.27517,27a3.46322,3.46322,0,0,1,.31414-3.28506,2.88816,2.88816,0,0,1,1.59614-1.10846v-.03227a2.39385,2.39385,0,0,1-.73094-.40968,2.73156,2.73156,0,0,1-.55062-.61049,2.94769,2.94769,0,0,1-.35363-.74674,2.767,2.767,0,0,1-.12592-.8355,2.96141,2.96141,0,0,1,.24394-1.221,2.81259,2.81259,0,0,1,.66031-.93141,2.92476,2.92476,0,0,1,.97489-.59435,3.47723,3.47723,0,0,1,2.374,0,2.92922,2.92922,0,0,1,.97488.59435,2.81977,2.81977,0,0,1,.66075.93141,2.96839,2.96839,0,0,1,.2435,1.221,2.7808,2.7808,0,0,1-.12592.8355,2.948,2.948,0,0,1-.35362.74674,2.65332,2.65332,0,0,1-.55808.61049,2.56723,2.56723,0,0,1-.72349.40968ZM11.896,25.56209a2.72011,2.72011,0,0,0,.18866,1.02823,2.47548,2.47548,0,0,0,.52693.81129,2.35055,2.35055,0,0,0,.81782.53787,3.01844,3.01844,0,0,0,2.12264,0,2.361,2.361,0,0,0,.81737-.53787,2.47548,2.47548,0,0,0,.52693-.81129,2.71159,2.71159,0,0,0,.18866-1.02823,2.63457,2.63457,0,0,0-.19655-1.02017,2.477,2.477,0,0,0-.53439-.81129,2.42716,2.42716,0,0,0-.81782-.5298,2.93331,2.93331,0,0,0-2.09149,0,2.41236,2.41236,0,0,0-.81738.5298,2.471,2.471,0,0,0-.53482.81129A2.63439,2.63439,0,0,0,11.896,25.56209Zm.40891-5.54188a2.26487,2.26487,0,0,0,.165.86732,2.0173,2.0173,0,0,0,.4642.69072,2.25954,2.25954,0,0,0,.69189.45764,2.29723,2.29723,0,0,0,1.72953,0,2.27019,2.27019,0,0,0,.6919-.45764,2.02243,2.02243,0,0,0,.46375-.69072,2.25661,2.25661,0,0,0,.165-.86732,2.3609,2.3609,0,0,0-.165-.89152,2.08572,2.08572,0,0,0-.46375-.70686,2.20746,2.20746,0,0,0-.6919-.46615,2.2066,2.2066,0,0,0-2.42142.46615,2.08034,2.08034,0,0,0-.4642.70686A2.36949,2.36949,0,0,0,12.3049,20.02021ZM14,5.415,13.09082,5,2.61475,28.585,3.52393,29ZM5,4,.981,5.60791l.37109.92871L4,5.47754V16H5Zm24.62294,9-3.10787,3.67791L23.40719,13H22.06071l3.78111,4.47464L22.01783,22h1.34655l3.15069-3.72863L29.66576,22H31v-.01456l-3.81169-4.5108L30.96943,13Z"/><path fill="none" d="M0 0h32v32H0z"/></svg>