<svg id="icons" xmlns="http://www.w3.org/2000/svg" viewBox="0 0 16 16"><path d="M2,8H1V2.41406l-.58008.24268L.03418,1.73389,2,.91113Zm6.87158,4.41472a1.30808,1.30808,0,0,0,.65967-.538,1.646,1.646,0,0,0,.25635-.92152,1.77931,1.77931,0,0,0-.14307-.72532,1.64649,1.64649,0,0,0-.38232-.5473,1.69085,1.69085,0,0,0-.5669-.34668,2.0029,2.0029,0,0,0-1.38183,0,1.67476,1.67476,0,0,0-.5669.356,1.71768,1.71768,0,0,0-.38623.55616,1.78109,1.78109,0,0,0-.14306.72532,1.57417,1.57417,0,0,0,.25634.91217,1.39043,1.39043,0,0,0,.65918.52912v.01819a1.69177,1.69177,0,0,0-.43261.2144,1.514,1.514,0,0,0-.36084.3516,1.64332,1.64332,0,0,0-.24366.48338,1.9147,1.9147,0,0,0-.08838.593,1.96519,1.96519,0,0,0,.15967.81186,1.78127,1.78127,0,0,0,.43262.60189,1.916,1.916,0,0,0,.63818.37864A2.24617,2.24617,0,0,0,8.00684,16a2.20846,2.20846,0,0,0,.76416-.13228,1.9227,1.9227,0,0,0,.63427-.37864,1.78781,1.78781,0,0,0,.43262-.60189,1.965,1.965,0,0,0,.15967-.81186,1.89951,1.89951,0,0,0-.08838-.58419,1.72845,1.72845,0,0,0-.23926-.48338,1.61743,1.61743,0,0,0-.35693-.36045,1.3474,1.3474,0,0,0-.44141-.2144ZM6.92725,13.5413a1.18682,1.18682,0,0,1,.24365-.3875,1.08041,1.08041,0,0,1,.36963-.25521,1.23322,1.23322,0,0,1,.93213,0,1.04235,1.04235,0,0,1,.36572.25521,1.23619,1.23619,0,0,1,.23926.3875,1.32486,1.32486,0,0,1,.08838.48829,1.38328,1.38328,0,0,1-.08838.50158,1.17463,1.17463,0,0,1-.23926.388,1.08472,1.08472,0,0,1-.36572.25079,1.17194,1.17194,0,0,1-.46582.091,1.19479,1.19479,0,0,1-.47461-.091,1.12587,1.12587,0,0,1-.36963-.25079,1.08656,1.08656,0,0,1-.23975-.388,1.44842,1.44842,0,0,1-.084-.50158A1.32465,1.32465,0,0,1,6.92725,13.5413ZM7.10457,10.583a.99124.99124,0,0,1,.20463-.33586.90771.90771,0,0,1,.31563-.21784,1.00625,1.00625,0,0,1,.39639-.0772.95572.95572,0,0,1,.38351.0772.9183.9183,0,0,1,.31117.21784A1.11445,1.11445,0,0,1,8.929,10.583a1.09152,1.09152,0,0,1,.08076.42241,1.07522,1.07522,0,0,1-.0768.40864,1.0098,1.0098,0,0,1-.21306.33192,1.03526,1.03526,0,0,1-.31513.22227.91137.91137,0,0,1-.38351.08163.95914.95914,0,0,1-.39639-.08163A.97531.97531,0,0,1,7.3092,11.746a.99767.99767,0,0,1-.20463-.33192,1.14407,1.14407,0,0,1-.07234-.40864A1.21078,1.21078,0,0,1,7.10457,10.583ZM7.709,2.415,6.79883,2,1.05518,14.585,1.96533,15ZM14.72143,6,13.502,7.639,12.28248,6H11.00489l1.8583,2.498L11.002,11h1.27753L13.502,9.357,14.72443,11H16L14.14072,8.498,16,6Z"/><path fill="none" d="M0 0h16v16H0z"/></svg>