<svg id="icons" xmlns="http://www.w3.org/2000/svg" viewBox="0 0 24 24"><path d="M13.24738,17.75687a2.40084,2.40084,0,0,1,1.25823.89745A2.64623,2.64623,0,0,1,15,20.28448,2.55673,2.55673,0,0,1,14.7544,21.412a2.65209,2.65209,0,0,1-.65244.85244,2.92765,2.92765,0,0,1-.95323.545,3.42861,3.42861,0,0,1-2.27134-.006,2.93269,2.93269,0,0,1-.95034-.55,2.64395,2.64395,0,0,1-.64746-.85586,2.55019,2.55019,0,0,1-.24013-1.12879,2.87283,2.87283,0,0,1,.13372-.88745,2.60461,2.60461,0,0,1,.3697-.73326,2.36675,2.36675,0,0,1,.5591-.55237,2.53458,2.53458,0,0,1,.70337-.34527l.00007-.02681a1.84081,1.84081,0,0,1-.57025-.315,2.04472,2.04472,0,0,1-.43839-.49552,2.5367,2.5367,0,0,1-.28748-.62821,2.36072,2.36072,0,0,1-.10316-.70086,2.51221,2.51221,0,0,1,.21275-1.04082,2.35818,2.35818,0,0,1,.57365-.79268,2.61973,2.61973,0,0,1,.83468-.50533,2.91187,2.91187,0,0,1,2.0153.00531,2.60688,2.60688,0,0,1,.8392.50973,2.36354,2.36354,0,0,1,.569.79569,2.51213,2.51213,0,0,1,.20728,1.04193,2.36093,2.36093,0,0,1-.10685.7003,2.553,2.553,0,0,1-.29031.6267,2.0566,2.0566,0,0,1-.44147.49319,1.8402,1.8402,0,0,1-.5719.312ZM9.98529,20.16451a2.20121,2.20121,0,0,0,.14222.80139,1.80244,1.80244,0,0,0,.41163.64171,1.951,1.951,0,0,0,.64237.42243,2.34042,2.34042,0,0,0,1.66766.00439,1.94858,1.94858,0,0,0,.64411-.41905,1.81008,1.81008,0,0,0,.41548-.63952,2.21149,2.21149,0,0,0,.14644-.80064,2.10793,2.10793,0,0,0-.14226-.78823,1.84139,1.84139,0,0,0-.41214-.62854,1.87225,1.87225,0,0,0-.64191-.41512,2.43472,2.43472,0,0,0-1.66766-.00439,1.87427,1.87427,0,0,0-.64457.41173,1.83344,1.83344,0,0,0-.415.62637A2.09839,2.09839,0,0,0,9.98529,20.16451Zm.33989-4.5249a1.71075,1.71075,0,0,0,.12958.68143,1.59994,1.59994,0,0,0,.36637.53481,1.74731,1.74731,0,0,0,2.41566.00636,1.61407,1.61407,0,0,0,.36918-.53288,1.719,1.719,0,0,0,.13269-.68073,1.8687,1.8687,0,0,0-.12906-.70093,1.6925,1.6925,0,0,0-3.1512-.0083A1.85957,1.85957,0,0,0,10.32518,15.63961ZM4,2.207,1.01123,3.63428l.43066.90234L3,3.793v8.16748H4Zm8,1.21533L11.084,3.022,3.00732,21.59229l.916.40039ZM22.68868,9,20.5,11.69552,18.31132,9H17.00489l2.84189,3.5L17.00489,16h1.30643L20.5,13.30448,22.68868,16h1.30643l-2.84189-3.5L23.99511,9Z"/><path fill="none" d="M0 0h24v24H0z"/></svg>