<svg id="icons" xmlns="http://www.w3.org/2000/svg" viewBox="0 0 24 24"><path d="M13,20H2.00391v-.5c0-3.49707,2.88476-5.07568,5.42968-6.46875,2.35254-1.2876,4.5752-2.50391,4.5752-5.00684A4.17154,4.17154,0,0,0,7.83594,3.9857a4.69277,4.69277,0,0,0-3.52539,1.318A5.60372,5.60372,0,0,0,2.99619,8.98878l-.98891.00536A6.475,6.475,0,0,1,3.58984,4.61133,5.6293,5.6293,0,0,1,7.83594,3.0127a5.15461,5.15461,0,0,1,5.16385,5.01171c0,3.09522-2.58084,4.51319-5.08573,5.88379C5.53809,15.2085,3.28711,16.44043,3.02832,19H13ZM21.68868,9,19.5,11.69552,17.31132,9H16.00489l2.84189,3.5L16.00489,16h1.30643L19.5,13.30448,21.68868,16h1.30643l-2.84189-3.5L22.99511,9Z"/><path fill="none" d="M0 0h24v24H0z"/></svg>