<svg id="icons" xmlns="http://www.w3.org/2000/svg" viewBox="0 0 16 16"><path d="M10,13H2.31738c.26074-1.6333,2.30371-2.46436,3.92969-3.33887C8.0918,8.668,10,7.64111,10,5.356,10,3.44287,7.99208,2,6.18457,2A4.03036,4.03036,0,0,0,2.96289,3.18311,3.64785,3.64785,0,0,0,2.009,6h.982a2.59664,2.59664,0,0,1,.68966-2.12109A3.795,3.795,0,0,1,6.18457,2.964,2.7525,2.7525,0,0,1,9,5.356C9,7.044,7.50488,7.84863,5.77344,8.78027,3.90039,9.78809,1.27832,10.93018,1.27832,13.5V14H10Zm6-7L14.14072,8.498,16,11H14.72443L13.502,9.357,12.27948,11H11.002l1.86124-2.502L11.00489,6h1.27759L13.502,7.639,14.72143,6Z"/><path fill="none" d="M0 0h16v16H0z"/></svg>