<svg id="icons" xmlns="http://www.w3.org/2000/svg" viewBox="0 0 32 32"><path d="M18,27H3.30566v-.5c0-4.42822,3.60645-6.375,7.09473-8.25732,3.15039-1.70069,6.12695-3.30713,6.12695-6.62061,0-2.72119-2.23828-4.67607-5.44336-4.67607-6.70117,0-6.77832,5.80546-6.77832,6.054h-1c0-.0708.08887-7,7.77832-7,4.42676,0,6.44336,2.91455,6.44336,5.62207,0,3.91016-3.38183,5.73535-6.65234,7.50049C7.64746,20.86475,4.59082,22.51465,4.32422,26H18ZM28.62294,13l-3.10787,3.67791L22.40719,13H21.06071l3.78111,4.47464L21.01783,22h1.34655l3.15069-3.72863L28.66576,22H30v-.01456l-3.81169-4.5108L29.96943,13Z"/><path fill="none" d="M0 0h32v32H0z"/></svg>