<svg id="icons" xmlns="http://www.w3.org/2000/svg" viewBox="0 0 32 32"><title>360-view-32</title><path d="M30,25.5c0,1.92-3.74,3.63-9,4.29V32l-4-2.5L21,27v1.78c4.94-.65,8-2.21,8-3.28C29,24.11,23.82,22,16,22S3,24.11,3,25.5c0,1.21,3.89,3,10,3.49v1C6.71,29.55,2,27.65,2,25.5,2,23,8.27,21,16,21S30,23,30,25.5ZM32,0V19c-4.52-1.56-11-2.15-16-2.15S4.53,17.43,0,19V0C4.53,1.56,11,2.14,16,2.14S27.46,1.56,32,0ZM28.82,17.24,23,10.47l-3,3-4-5-3.33,3.32-2-1.52-7.45,7a66.94,66.94,0,0,1,25.7,0ZM31,1.21A61,61,0,0,1,16,3,61.09,61.09,0,0,1,1,1.21V17.79l.64-.18,8.88-8.28,2,1.5L16,7.37l4,5,3-3,7.08,8.17.93.25ZM25,7a2,2,0,1,1,2,2A2,2,0,0,1,25,7Zm.88,0A1.12,1.12,0,1,0,27,5.88,1.12,1.12,0,0,0,25.88,7Z"/></svg>