<svg xmlns="http://www.w3.org/2000/svg" viewBox="0 0 16 16"><path d="M15 11.5c0 1.132-2.11 2.088-5 2.395V16l-3-2.5 3-2.5v1.882c2.537-.288 3.902-1.055 4.002-1.364C13.878 11.1 11.845 9.9 8 9.9s-5.878 1.2-6.002 1.582c.1.338 1.466 1.11 4.002 1.4v1.013c-2.89-.307-5-1.263-5-2.395C1 10.12 4.134 9 8 9s7 1.12 7 2.5zM16 0v9a27.203 27.203 0 0 0-8-1 27.239 27.239 0 0 0-8 1V0a27.239 27.239 0 0 0 8 1 27.203 27.203 0 0 0 8-1zM1 7.677c.406-.095.824-.173 1.245-.244L4.3 5.24a.27.27 0 0 1 .4 0 .27.27 0 0 0 .4 0l2.017-2.152a.27.27 0 0 1 .381-.018l2.03 1.804a.269.269 0 0 0 .35.01l1.226-.824a.27.27 0 0 1 .37.028L15 7.488V1.324a26.297 26.297 0 0 1-4.077.574.736.736 0 0 1 .327.603.75.75 0 0 1-1.5 0 .741.741 0 0 1 .246-.548A43.67 43.67 0 0 1 8 2a32.844 32.844 0 0 1-7-.677zM8 7a37.148 37.148 0 0 1 5.449.383l-2.257-2.178-.689.46a1.268 1.268 0 0 1-1.64-.043l-1.5-1.334L5.83 5.924a1.28 1.28 0 0 1-.93.405 1.244 1.244 0 0 1-.23-.022l-.85.906A39.883 39.883 0 0 1 8 7z"/></svg>