<svg id="icons" xmlns="http://www.w3.org/2000/svg" viewBox="0 0 32 32"><title>360-view-32</title><path d="M29,7a2,2,0,1,1-2-2A2,2,0,0,1,29,7Zm1,18.5C30,23,23.73,21,16,21S2,23,2,25.5C2,27.65,6.71,29.55,13,30V29C6.89,28.54,3,26.71,3,25.5,3,24.11,8.18,22,16,22s13,2.16,13,3.55c0,1.07-3.06,2.63-8,3.28V27l-4,2.5L21,32V29.79C26.26,29.13,30,27.42,30,25.5ZM32,19c-.29-.1-.61-.19-.91-.28h0C22.26,16.05,7.65,16.35,0,19V0C4.53,1.56,11,2.14,16,2.14S27.46,1.56,32,0ZM31,1.21A61,61,0,0,1,16,3,61.09,61.09,0,0,1,1,1.21V17.64c.29-.09.58-.16.88-.24l8.64-8.07,2,1.5L16,7.37l4,5,3-3,6.9,8c.37.09.75.19,1.11.3Z"/></svg>