<svg id="icons" xmlns="http://www.w3.org/2000/svg" viewBox="0 0 24 24"><title>360-view-24</title><path d="M20.5,6A1.5,1.5,0,1,0,19,4.5,1.5,1.5,0,0,0,20.5,6ZM23,18.5c0,1.6-3.39,2.95-8,3.36V24l-3-2.5L15,19v2c4.62-.45,7-1.84,7-2.46s-3.4-2.6-10-2.6S2,17.75,2,18.5,4.72,20.71,10,21v.9c-5.12-.3-9-1.72-9-3.44C1,16.57,5.92,15,12,15S23,16.57,23,18.5ZM12,2.1A41.07,41.07,0,0,1,0,0V14a40.8,40.8,0,0,1,12-2.1A41.07,41.07,0,0,1,24,14V0A41.13,41.13,0,0,1,12,2.1ZM23,12.63l-1-.28L17.5,7,15,9,12,5,9,8,8,7,2,12.34H2l-1,.29V1.27A42.06,42.06,0,0,0,12,3,42.06,42.06,0,0,0,23,1.27Z"/></svg>