<svg id="icons" xmlns="http://www.w3.org/2000/svg" viewBox="0 0 16 16"><path d="M6.00028,7.62929a2.275,2.275,0,0,0,.70092-.37915,2.4854,2.4854,0,0,0,.54116-.59685,3.11043,3.11043,0,0,0,.3544-.7583,2.8271,2.8271,0,0,0,.12938-.84661,2.99043,2.99043,0,0,0-.25877-1.25783,2.87129,2.87129,0,0,0-.70092-.95969A3.2131,3.2131,0,0,0,5.73364,2.2177a3.62652,3.62652,0,0,0-2.47516,0,3.23685,3.23685,0,0,0-1.02493.61316,2.84088,2.84088,0,0,0-.70092.95969,2.99043,2.99043,0,0,0-.25877,1.25783,2.79167,2.79167,0,0,0,.12938.84661,3.02938,3.02938,0,0,0,.3544.7583,2.4854,2.4854,0,0,0,.54116.59685,2.275,2.275,0,0,0,.70092.37915v.03206a2.108,2.108,0,0,0-.66293.41909,2.90833,2.90833,0,0,0-.68517.66942,3.12575,3.12575,0,0,0-.45115.88712,3.41479,3.41479,0,0,0-.162,1.07275,3.03615,3.03615,0,0,0,.29814,1.363A3.2144,3.2144,0,0,0,2.1354,13.105a3.61873,3.61873,0,0,0,1.16895.661,3.17153,3.17153,0,0,0,2.3913,0,3.61873,3.61873,0,0,0,1.169-.661,3.19552,3.19552,0,0,0,.79767-1.03226,3.03659,3.03659,0,0,0,.29927-1.363A3.15907,3.15907,0,0,0,7.34838,8.742a2.4948,2.4948,0,0,0-1.3481-1.08063ZM2.17729,9.6291a2.21694,2.21694,0,0,1,.50853-.7583,2.29643,2.29643,0,0,1,.7898-.49953,2.81374,2.81374,0,0,1,1.02382-.17776,2.8199,2.8199,0,0,1,1.02494.17776,2.30714,2.30714,0,0,1,.7898.49953,2.21694,2.21694,0,0,1,.50853.7583,2.50175,2.50175,0,0,1,.17776.95181,2.62384,2.62384,0,0,1-.17776.96756,2.17715,2.17715,0,0,1-.50853.77405,2.39607,2.39607,0,0,1-.7898.508,2.71689,2.71689,0,0,1-1.02494.18564,2.711,2.711,0,0,1-1.02382-.18564,2.38447,2.38447,0,0,1-.7898-.508,2.17715,2.17715,0,0,1-.50853-.77405,2.62384,2.62384,0,0,1-.17776-.96756A2.50175,2.50175,0,0,1,2.17729,9.6291Zm.387-5.36265a2.04227,2.04227,0,0,1,.44327-.67785,2.0684,2.0684,0,0,1,.66155-.44328,2.12447,2.12447,0,0,1,2.32327.44328,2.04227,2.04227,0,0,1,.44327.67785,2.22987,2.22987,0,0,1,.16089.84662,2.05077,2.05077,0,0,1-.16089.82243,1.95145,1.95145,0,0,1-.45227.64522,2.12392,2.12392,0,0,1-.66942.42753,2.1682,2.1682,0,0,1-2.2974-.42753,1.93524,1.93524,0,0,1-.45227-.64522,2.03183,2.03183,0,0,1-.16089-.82243A2.20861,2.20861,0,0,1,2.56432,4.26645ZM15,6,13.14072,8.498,15,11H13.72443L12.502,9.357,11.27948,11H10.002l1.86124-2.502L10.00489,6h1.27759L12.502,7.639,13.72143,6Z"/><path fill="none" d="M0 0h16v16H0z"/></svg>