<svg id="icons" xmlns="http://www.w3.org/2000/svg" viewBox="0 0 24 24"><path d="M12.583,16.32343a4.51828,4.51828,0,0,1-.40125,1.93469,4.24089,4.24089,0,0,1-1.09808,1.454,5.14026,5.14026,0,0,1-1.626.92724,5.93224,5.93224,0,0,1-3.9154,0,5.14026,5.14026,0,0,1-1.626-.92724,4.20987,4.20987,0,0,1-1.09808-1.454A4.51917,4.51917,0,0,1,2.417,16.32343a4.50886,4.50886,0,0,1,.85834-2.74714,4.21043,4.21043,0,0,1,2.32416-1.58v-.046a3.50169,3.50169,0,0,1-1.06458-.5838A3.9258,3.9258,0,0,1,3.7337,10.497a4.16055,4.16055,0,0,1-.5155-1.06519,3.87548,3.87548,0,0,1-.15576-1.19061A4.14965,4.14965,0,0,1,3.38959,6.5014a4.02048,4.02048,0,0,1,.9627-1.32788,4.26878,4.26878,0,0,1,1.41858-.84717,5.16413,5.16413,0,0,1,3.45826,0,4.26878,4.26878,0,0,1,1.41858.84717,4.02048,4.02048,0,0,1,.9627,1.32788,4.14965,4.14965,0,0,1,.32715,1.73975,3.87548,3.87548,0,0,1-.15576,1.19061,4.20339,4.20339,0,0,1-.5155,1.06519,3.80748,3.80748,0,0,1-.81238.86951,3.74159,3.74159,0,0,1-1.05341.5838v.046a4.23961,4.23961,0,0,1,2.34656,1.59118A4.54293,4.54293,0,0,1,12.583,16.32343ZM6.15375,11.19629A3.57425,3.57425,0,0,0,7.5,11.4a3.44107,3.44107,0,0,0,1.31659-.20282,3.568,3.568,0,0,0,1.06183-.66333,2.95883,2.95883,0,0,0,.72174-1.01336,3.11412,3.11412,0,0,0,.25629-1.26191,3.25817,3.25817,0,0,0-.25464-1.29064A3.04487,3.04487,0,0,0,9.88092,5.933,3.4429,3.4429,0,0,0,8.8158,5.256a3.72175,3.72175,0,0,0-2.662,0A3.4434,3.4434,0,0,0,5.08862,5.933,3.0488,3.0488,0,0,0,4.36774,6.9679a3.26326,3.26326,0,0,0-.25385,1.29064,3.14644,3.14644,0,0,0,.2547,1.26191,2.97848,2.97848,0,0,0,.72333,1.01336A3.51578,3.51578,0,0,0,6.15375,11.19629ZM11.5,16.18445a3.7336,3.7336,0,0,0-.29834-1.50006,3.67625,3.67625,0,0,0-.83447-1.19831,3.823,3.823,0,0,0-1.27326-.784A4.42424,4.42424,0,0,0,7.5,12.5a4.58936,4.58936,0,0,0-1.62354.202,3.8058,3.8058,0,0,0-1.27246.784,3.64374,3.64374,0,0,0-.83526,1.19831A3.7,3.7,0,0,0,3.5,16.18445a3.78041,3.78041,0,0,0,.2569,1.5083A3.64863,3.64863,0,0,0,4.57776,18.891a3.6955,3.6955,0,0,0,1.27667.79718,4.5466,4.5466,0,0,0,1.63074.283,4.53907,4.53907,0,0,0,1.62994-.283,3.73391,3.73391,0,0,0,1.27747-.79632,3.65642,3.65642,0,0,0,.82007-1.19745A3.78629,3.78629,0,0,0,11.5,16.18445ZM20.68868,9,18.5,11.69552,16.31132,9H15.00489l2.84189,3.5L15.00489,16h1.30643L18.5,13.30448,20.68868,16h1.30643l-2.84189-3.5L21.99511,9Z"/><path fill="none" d="M0 0h24v24H0z"/></svg>