<?xml version="1.0" encoding="UTF-8"?><svg id="icons" xmlns="http://www.w3.org/2000/svg" viewBox="0 0 16 16"><defs><style>.cls-1{fill:none;}.cls-1,.cls-2,.cls-3{stroke-width:0px;}.cls-2{opacity:.25;}</style></defs><rect class="cls-1" width="16" height="16"/><path class="cls-3" d="M12.40039,1H0v10h1V2h10v4h4v8h1V4.59961l-3.59961-3.59961ZM15,5h-3v-3h.31049l2.68951,2.68951v.31049ZM4.5,9h-1l-3.5,7h1l1-2h4l1,2h1l-3.5-7ZM2.5,13l1.49597-2.99194,1.50403,2.99194h-3ZM11.5,16c-1.4248,0-2.5-.85938-2.5-2h1c0,.56055.65918,1,1.5,1,.81348,0,1.5-.49805,1.5-1.08789,0-.62695-.77734-.91211-1.5-.91211v-1c.81348,0,1.5-.45801,1.5-1s-.68652-1-1.5-1-1.5.45801-1.5,1h-1c0-1.10254,1.12109-2,2.5-2s2.3.89746,2.3,2c0,.57715-.10664,1.09766-.59687,1.46289.50098.33984.79688.8457.79688,1.44922,0,1.15137-1.12109,2.08789-2.5,2.08789Z"/><path class="cls-2" d="M11,4H1v-2h10v2Z"/></svg>