<?xml version="1.0" encoding="UTF-8"?><svg id="icons" xmlns="http://www.w3.org/2000/svg" viewBox="0 0 24 24"><defs><style>.cls-1{fill:none;}.cls-1,.cls-2,.cls-3{stroke-width:0px;}.cls-2{opacity:.25;}</style></defs><rect class="cls-1" width="24" height="24"/><path class="cls-2" d="M15,5H5v-3h10v3Z"/><path class="cls-3" d="M16.28998,1H4v7h1V2h10v6h6v15H5v-2h-1v3h18V6.70898l-5.71002-5.70898ZM21,7h-5V2h.20001l4.79999,4.79999v.20001ZM15.72852,18.94434c-1.59277,0-2.88867-1.14941-2.88867-2.56152h.88867c0,.92188.89746,1.67285,2,1.67285s2-.75098,2-1.67285c0-.88672-.86035-1.55469-2-1.55469v-.88867c1.13965,0,2-.61914,2-1.43945,0-.85742-.89746-1.55566-2-1.55566s-2,.69824-2,1.55566h-.88867c0-1.34766,1.2959-2.44434,2.88867-2.44434s2.88867,1.09668,2.88867,2.44434c0,.79883-.44922,1.47949-1.16699,1.89453.71777.43555,1.16699,1.15039,1.16699,1.98828,0,1.41211-1.2959,2.56152-2.88867,2.56152ZM6.04999,10h-1L1,19h.99078l1.37775-3h4.36292l1.37775,3h.99078l-4.04999-9ZM3.82782,15l1.72217-3.75,1.72217,3.75h-3.44434Z"/></svg>