<?xml version="1.0" encoding="UTF-8"?><svg id="icons" xmlns="http://www.w3.org/2000/svg" viewBox="0 0 32 32"><defs><style>.cls-1{fill:none;}.cls-1,.cls-2,.cls-3{stroke-width:0px;}.cls-2{opacity:.25;}</style></defs><rect class="cls-1" width="32" height="32"/><path class="cls-2" d="M18,6H6v-3h12v3Z"/><path class="cls-3" d="M19.29999,2H5v10h1V3h12v8h8v18H6v-1h-1v2h22V9.69897l-7.70001-7.69897ZM19,10V3l7,7h-7ZM18,26c-2.04492,0-3.70801-1.53027-3.70801-3.41211h1c0,1.33008,1.21484,2.41211,2.70801,2.41211s2.70801-1.08203,2.70801-2.41211c0-1.30469-1.18945-2.32715-2.70801-2.32715v-1c1.3457,0,2.70801-.69043,2.70801-2.01074,0-1.24023-1.21484-2.25-2.70801-2.25s-2.70801,1.00977-2.70801,2.25h-1c0-1.79199,1.66309-3.25,3.70801-3.25s3.70801,1.45801,3.70801,3.25c0,1.11426-.63574,2.0332-1.6543,2.55176,1.00391.58887,1.6543,1.60645,1.6543,2.78613,0,1.88184-1.66309,3.41211-3.70801,3.41211ZM11.07159,21.05737v-.05737h-.02405l-2.93384-7h-1.08423l-2.93384,7h-.02405v.05737l-2.07159,4.94263h1.08398l1.67657-4h5.62207l1.67657,4h.84082l-1.82843-4.94263ZM5.17975,21l2.39185-5.70654,2.39185,5.70654h-4.78369Z"/></svg>