<?xml version="1.0" encoding="UTF-8"?><svg id="icons" xmlns="http://www.w3.org/2000/svg" viewBox="0 0 16 16"><defs><style>.cls-1{fill:none;}.cls-1,.cls-2,.cls-3{stroke-width:0px;}.cls-2{opacity:.25;}</style></defs><rect class="cls-1" width="16" height="16"/><path class="cls-2" d="M11,4H1v-2h10v2Z"/><path class="cls-3" d="M12.40039,1H0v10h1V2h10v4h4v6h1v-7.40039l-3.59961-3.59961ZM15,5h-3v-3h.31049l2.68951,2.68951v.31049ZM13,16h-1v-2h-4.20703l5-5h.20703v4h1v1h-1v2ZM10.20703,13h1.79297v-1.79297l-1.79297,1.79297ZM4.00013,9h-1.00024L0,16h1.0005l.85699-2h3.28503l.85699,2h1.00048l-2.99987-7ZM2.28602,13l1.21398-2.83301,1.214,2.83301h-2.42798Z"/></svg>