<?xml version="1.0" encoding="UTF-8"?><svg id="icons" xmlns="http://www.w3.org/2000/svg" viewBox="0 0 32 32"><defs><style>.cls-1{fill:none;}.cls-1,.cls-2,.cls-3{stroke-width:0px;}.cls-2{opacity:.25;}</style></defs><rect class="cls-1" width="32" height="32"/><path class="cls-3" d="M23.30103,5H2v22h2v-1h-1V6h19v8h8v12h-2v1h3v-14.29999l-7.69897-7.70001ZM24,29.9248h-1v-3h-5.98633l6.54449-8.9248h.44184s0,8,0,8h2v.9248h-2v3ZM18.98633,26h4.01367v-5.54785l-4.01367,5.54785ZM23,13v-7l7,7h-7ZM7.79712,26h5.62207l1.67657,4h1.08398l-5.02948-12h-1.08423l-5.02948,12h1.08398l1.67657-4ZM10.60815,19.29346l2.39185,5.70654h-4.78369l2.39185-5.70654Z"/><path class="cls-2" d="M22,9H3v-3h19v3Z"/></svg>