<?xml version="1.0" encoding="UTF-8"?><svg id="icons" xmlns="http://www.w3.org/2000/svg" viewBox="0 0 24 24"><defs><style>.cls-1{fill:none;}.cls-1,.cls-2,.cls-3{stroke-width:0px;}.cls-2{opacity:.25;}</style></defs><rect class="cls-1" width="24" height="24"/><path class="cls-2" d="M15,5H5v-3h10v3Z"/><path class="cls-3" d="M16.28998,1H4v7h1V2h10v6h6v15H5v-2h-1v3h18V6.70898l-5.71002-5.70898ZM21,7h-5V2h.20001l4.79999,4.79999v.20001ZM6.04999,10h-1L1,19h.99078l1.37775-3h4.36292l1.37775,3h.99078l-4.04999-9ZM3.82782,15l1.72217-3.75,1.72217,3.75h-3.44434ZM16,10h-1.10803l-4.84607,7h4.9541v2h1v-2h2v-1h-2v-6ZM15,16h-3.0459l3.0459-4.39941v4.39941Z"/></svg>