<?xml version="1.0" encoding="UTF-8"?><svg id="icons" xmlns="http://www.w3.org/2000/svg" viewBox="0 0 16 16"><defs><style>.cls-1{fill:none;}.cls-1,.cls-2,.cls-3{stroke-width:0px;}.cls-2{opacity:.25;}</style></defs><rect class="cls-1" width="16" height="16"/><path class="cls-2" d="M10,3H3V1h7v2Z"/><path class="cls-3" d="M11.40039,0H2v5h1V1h7v4h4v10H3v-1h-1v2h13V3.59961l-3.59961-3.59961ZM14,4h-3V1h.31049l2.68951,2.68951v.31049ZM12,13h-1v-2h-4.20703l5-5h.20703v4h1v1h-1v2ZM9.20703,10h1.79297v-1.79297l-1.79297,1.79297ZM5.99951,13h1.00049l-2.99991-7h-1.00019L0,13h1.00049l.857-2h3.28502l.857,2ZM2.28602,10l1.21398-2.83301,1.21398,2.83301h-2.42795Z"/></svg>