<svg id="icons" xmlns="http://www.w3.org/2000/svg" viewBox="0 0 32 32"><defs><style>.cls-1{fill:none;}.cls-2{fill-rule:evenodd;}</style></defs><rect class="cls-1" width="32" height="32"/><path class="cls-2" d="M17,22H16V20h1Zm-1,3h1V23H16Zm1-8H16v2h1Zm0-3H16v2h1Zm-.5-7.9a3.4,3.4,0,1,0,3.4,3.4A3.40022,3.40022,0,0,0,16.5,6.1Zm0,5.82855A2.42856,2.42856,0,1,1,18.92859,9.5,2.43115,2.43115,0,0,1,16.5,11.92853ZM29.84082,28.87207a.51275.51275,0,0,0,.03809-.70117.47462.47462,0,0,0-.36133-.16895.49052.49052,0,0,0-.31836.1211A4.66885,4.66885,0,0,1,26.13867,29a5.138,5.138,0,0,1-3.15429-.88672l-.13379-.07422-.1836-.0332-.166.03516-.14356.08886c-.083.14551-.5957.87012-2.47754.87012a4.85822,4.85822,0,0,1-3.07422-.88574l-.13867-.07617-.18554-.03125-.16211.03613-.126.07031A7.47,7.47,0,0,1,12.62109,29a3.35277,3.35277,0,0,1-2.69824-.88672L9.791,28.04l-.1836-.03418L9.4375,28.043l-.127.07226A6.709,6.709,0,0,1,5.8623,29a4.85239,4.85239,0,0,1-3.05957-.867.47141.47141,0,0,0-.67968.042.50293.50293,0,0,0,.03711.69705A5.60592,5.60592,0,0,0,5.8623,30a7.8819,7.8819,0,0,0,3.75684-.88965l.09375.06153A4.5924,4.5924,0,0,0,12.62109,30a8.39313,8.39313,0,0,0,3.87989-.88867A6.09606,6.09606,0,0,0,19.87988,30a3.81272,3.81272,0,0,0,2.60352-.752l.19726-.13672A6.38843,6.38843,0,0,0,26.13867,30,5.53777,5.53777,0,0,0,29.84082,28.87207ZM3,27V26H6V25H3V22H6V21H3V18H6V17H3V14H6V13H3V10H6V9H3V6H6V5H3V2H2V27Z"/></svg>