<?xml version="1.0" encoding="UTF-8"?><svg id="icons" xmlns="http://www.w3.org/2000/svg" viewBox="0 0 16 16"><path d="M8,.20001C3.69214,.20001,.20001,3.69208,.20001,8s3.49213,7.79999,7.79999,7.79999,7.79999-3.49225,7.79999-7.79999S12.30786,.20001,8,.20001Zm0,14.59979c-3.74902,0-6.7998-3.05078-6.7998-6.7998S4.25098,1.2002,8,1.2002s6.7998,3.05078,6.7998,6.7998-3.05078,6.7998-6.7998,6.7998Zm3.67001-8.30981l-2.70001,.66998-.06,1-.01001,1.09003v.01001l1.73999,3.32996c.13,.25,.03003,.55005-.20996,.67004-.07001,.03998-.14001,.06-.21002,.06h-.01001c-.19,.00995-.35999-.09003-.45996-.27002l-1.75-3.35999-1.75,3.35999c-.10004,.17999-.27002,.27997-.46002,.27002h-.01001c-.07001,0-.14001-.02002-.21002-.06-.23999-.12-.33997-.42004-.20996-.67004l1.73999-3.32996v-.01001l-.01001-1.09003-.06-1-2.70001-.66998c-.26996-.07001-.42999-.34003-.37-.60999,.01001-.02002,.01001-.04004,.02002-.06,.08997-.23004,.33997-.37,.58997-.31l2.40002,.59998h2.06l2.40002-.59998c.25-.06,.5,.07996,.58997,.31,.01001,.01996,.01001,.03998,.02002,.06,.06,.26996-.10004,.53998-.37,.60999Zm-3.37001-1.48999h-.6c-.3866,0-.7-.3134-.7-.7v-.6c0-.3866,.3134-.7,.7-.7h.6c.3866,0,.7,.3134,.7,.7v.6c0,.3866-.3134,.7-.7,.7Z"/><rect width="16" height="16" style="fill:none;"/></svg>