<?xml version="1.0" encoding="UTF-8"?><svg id="icons" xmlns="http://www.w3.org/2000/svg" viewBox="0 0 32 32"><path d="M16,1.20001C7.82574,1.20001,1.20001,7.82568,1.20001,16s6.62573,14.79999,14.79999,14.79999,14.79999-6.62573,14.79999-14.79999S24.17426,1.20001,16,1.20001Zm0,28.59979c-7.60938,0-13.7998-6.19043-13.7998-13.7998S8.39062,2.2002,16,2.2002s13.7998,6.19043,13.7998,13.7998-6.19043,13.7998-13.7998,13.7998Zm-3.22732-3.53821c-.06822,.15788-.19993,.27952-.36263,.33479-.16275,.05532-.34124,.03906-.49135-.04473l-.06082-.03398c-.24492-.13664-.35786-.42854-.26893-.69464l2.69292-8.64793-.39163-3.13305c-.02245-.17962-.16092-.32277-.3397-.35117l-5.24483-.83341c-.33615-.05341-.56589-.3685-.51396-.70488,.04925-.31902,.33567-.54645,.65755-.52213l5.16519,.39024h4.77101l5.16519-.39024c.32188-.02432,.6083,.20311,.65755,.52213,.05194,.33638-.17781,.65147-.51396,.70488l-5.24483,.83341c-.17877,.02841-.31724,.17156-.3397,.35117l-.39163,3.13305,2.69292,8.64793c.08893,.2661-.02401,.558-.26893,.69464l-.06082,.03398c-.15012,.08379-.3286,.10004-.49135,.04473-.1627-.05526-.29441-.17691-.36263-.33479l-3.22732-7.442-3.22732,7.442Zm5.22732-17.26159c0,1.10457-.89543,2-2,2s-2-.89543-2-2,.89543-2,2-2,2,.89543,2,2Z"/><rect width="32" height="32" style="fill:none;"/></svg>