<?xml version="1.0" encoding="UTF-8"?><svg id="icons" xmlns="http://www.w3.org/2000/svg" viewBox="0 0 24 24"><path d="M12,1.20001C6.0343,1.20001,1.20001,6.03424,1.20001,12c0,5.96844,4.83429,10.79999,10.79999,10.79999s10.79999-4.83154,10.79999-10.79999c0-5.96576-4.83411-10.79999-10.79999-10.79999Zm0,20.59979c-5.40332,0-9.7998-4.39648-9.7998-9.7998S6.59668,2.2002,12,2.2002s9.7998,4.39648,9.7998,9.7998-4.39648,9.7998-9.7998,9.7998Zm1.40234-13.2998l3.99023-.79785c.25879-.05371,.5332,.12012,.58789,.39209,.05469,.271-.12109,.53418-.39258,.58838l-3.71145,.73323c-.22205,.04387-.38693,.23143-.40199,.45726l-.17446,2.61712,2.21102,6.31698c.08544,.24411-.02938,.51308-.26476,.62024l-.02754,.01254c-.12379,.05636-.26491,.06121-.39228,.01349s-.23056-.14411-.28684-.26793l-2.53959-5.19531-2.53959,5.19531c-.05628,.12383-.15947,.22021-.28684,.26793s-.26849,.04287-.39228-.01349l-.02754-.01254c-.23538-.10716-.3502-.37614-.26476-.62024l2.21102-6.31698-.17446-2.61712c-.01505-.22584-.17994-.4134-.40199-.45726l-3.71145-.73323c-.27148-.0542-.44727-.31738-.39258-.58838,.05469-.27197,.3291-.4458,.58789-.39209l3.99023,.79785h2.80469Zm.29766-2.50096c-.00011,.93963-.76179,1.70197-1.70038,1.70115-.93864-.00071-1.70011-.76218-1.69962-1.69995,.00033-.9405,.76076-1.70137,1.70022-1.70044,.93804-.00027,1.70027,.76136,1.69978,1.69924Z"/><rect width="24" height="24" style="fill:none;"/></svg>