<svg id="icons" xmlns="http://www.w3.org/2000/svg" viewBox="0 0 32 32"><defs><style>.cls-1{opacity:0.5;}.cls-2{opacity:0.25;}.cls-3{fill:none;}</style></defs><path class="cls-1" d="M19,8h3v2H19ZM13,18h3V16H13ZM8,27h3V24H8Z"/><path class="cls-2" d="M15,4h3V7H15Zm8,3h3V4H23ZM9,15h3V12H9Zm8,0h3V12H17ZM4,23H7V20H4Zm8-3h3v3H12Z"/><path d="M15,3H14v7h1V8h3v2h1V8h3v4h5V3Zm3,4H15V4h3Zm4,0H19V4h3Zm4,4H23V8h3Zm0-4H23V4h3ZM9,11H8v7H9V16h3v2h1V16h3v2h1V16h3v3H17v1h4V11Zm3,4H9V12h3Zm4,0H13V12h3Zm4,0H17V12h3ZM4,19H3v9H16V19Zm7,1v3H8V20ZM7,20v3H4V20ZM4,27V24H7v3Zm4,0V24h3v3Zm4,0V24h3v3Zm3-4H12V20h3Zm9,7V24.999H19V24h5V19h1v5h5v.999H25V30Z"/><rect class="cls-3" width="32" height="32"/></svg>