<?xml version="1.0" encoding="UTF-8"?><svg id="icons" xmlns="http://www.w3.org/2000/svg" viewBox="0 0 32 32"><defs><style>.cls-1{fill:none;}.cls-1,.cls-2{stroke-width:0px;}</style></defs><path class="cls-2" d="M15.5,7c-1.20764,0-2.21722.86005-2.44946,2h-2.05054v-2h-4.29297l-1.12341-1.12341c.26196-.39526.36638-.86774.36638-1.37659,0-1.37891-1.07109-2.5-2.45-2.5s-2.5,1.12109-2.5,2.5,1.12109,2.5,2.5,2.5c.50885,0,.98132-.15442,1.37659-.41638l1.12341,1.12341v3.54462l-1.15033,1.15009c-.39001-.25165-.85181-.40173-1.34967-.40173-1.37891,0-2.5,1.12109-2.5,2.5s1.12109,2.5,2.5,2.5,2.45-1.12109,2.45-2.5c0-.51965-.10973-1.00232-.38201-1.40253l1.09766-1.09747h4.33435v-2h2.05054c.23224,1.13995,1.24182,2,2.44946,2,1.37891,0,2.45-1.12109,2.45-2.5s-1.07109-2.5-2.45-2.5ZM2,4.5c0-.82715.67285-1.5,1.5-1.5s1.5.67285,1.5,1.5-.67285,1.5-1.5,1.5-1.5-.67285-1.5-1.5ZM3.5,16c-.82715,0-1.5-.67285-1.5-1.5s.67285-1.5,1.5-1.5,1.5.67285,1.5,1.5-.67285,1.5-1.5,1.5ZM10,11h-3v-3h3v3ZM15.5,11c-.82715,0-1.5-.67285-1.5-1.5s.67285-1.5,1.5-1.5,1.5.67285,1.5,1.5-.67285,1.5-1.5,1.5ZM12.19336,24.5l-3.85352,3.85352-.70703-.70703,2.64648-2.64648h-3.2793c-2.20605,0-4-1.79395-4-4v-2h1v2c0,1.6543,1.3457,3,3,3h3.2793l-2.64648-2.64648.70703-.70703,3.85352,3.85352ZM28.5,21c-1.20764,0-2.21722.86005-2.44946,2h-2.05054v-2h-4.29297l-1.12341-1.12341c.26196-.39526.41638-.86774.41638-1.37659,0-1.37891-1.12109-2.5-2.5-2.5s-2.5,1.12109-2.5,2.5,1.12109,2.5,2.5,2.5c.50885,0,.98132-.15442,1.37659-.41638l1.12341,1.12341v3.54456l-1.15033,1.15015c-.39001-.25165-.85181-.40173-1.34967-.40173-1.37891,0-2.5,1.12109-2.5,2.5s1.12109,2.5,2.5,2.5,2.45-1.12109,2.45-2.5c0-.51965-.10979-1.00226-.38201-1.40253l1.09772-1.09747h4.33429v-2h2.05054c.23224,1.13995,1.24182,2,2.44946,2,1.37891,0,2.45-1.12109,2.45-2.5s-1.07109-2.5-2.45-2.5ZM16.5,20c-.82715,0-1.5-.67285-1.5-1.5s.67285-1.5,1.5-1.5,1.5.67285,1.5,1.5-.67285,1.5-1.5,1.5ZM16.5,30c-.82715,0-1.5-.67285-1.5-1.5s.67285-1.5,1.5-1.5,1.5.67285,1.5,1.5-.67285,1.5-1.5,1.5ZM23,25h-3v-3h3v3ZM28.5,25c-.82715,0-1.5-.67285-1.5-1.5s.67285-1.5,1.5-1.5,1.5.67285,1.5,1.5-.67285,1.5-1.5,1.5Z"/><rect class="cls-1" width="32" height="32"/></svg>