<?xml version="1.0" encoding="UTF-8"?><svg id="icons" xmlns="http://www.w3.org/2000/svg" viewBox="0 0 16 16"><defs><style>.cls-1{fill:none;}.cls-1,.cls-2{stroke-width:0px;}</style></defs><path class="cls-2" d="M3,7.50098c0-.23114-.05688-.44757-.15063-.64331l.85767-.85767h2.29297v-1h1.0918c.20679.58124.7569,1,1.4082,1,.82715,0,1.5-.67188,1.5-1.49902s-.67285-1.5-1.5-1.5c-.65063,0-1.20026.41876-1.40759.99902h-1.09241v-1h-2.29883l-.85321-.85321c.09454-.19641.15204-.41364.15204-.64581C3,.67383,2.32715.00098,1.5.00098S0,.67383,0,1.50098s.67285,1.49902,1.5,1.49902c.22961,0,.44482-.05499.63953-.14758l.86047.86047v1.58008l-.85797.85797c-.19543-.09338-.41144-.14996-.64203-.14996-.82715,0-1.5.67285-1.5,1.5s.67285,1.49902,1.5,1.49902,1.5-.67188,1.5-1.49902ZM8,4.26312c0-.14532.1178-.26312.26318-.26312h.48682c.13806,0,.25.11194.25.25v.5c0,.13806-.11194.25-.25.25h-.24518c-.00171,0-.00311.00098-.00482.00098s-.00311-.00098-.00482-.00098h-.24518c-.13806,0-.25-.11194-.25-.25v-.48688ZM4,4h1v1h-1v-1ZM2,1.75c0,.13806-.11194.25-.25.25h-.24518c-.00171,0-.00311.00098-.00482.00098s-.00311-.00098-.00482-.00098h-.24518c-.13806,0-.25-.11194-.25-.25v-.48688c0-.14532.1178-.26312.26318-.26312h.48682c.13806,0,.25.11194.25.25v.5ZM1.25,8c-.13806,0-.25-.11194-.25-.25v-.48688c0-.14532.1178-.26312.26318-.26312h.48682c.13806,0,.25.11194.25.25v.5c0,.13806-.11194.25-.25.25h-.24518c-.00171,0-.00311.00098-.00482.00098s-.00311-.00098-.00482-.00098h-.24518ZM4,14.177v-1.17603h-.5c-1.37891,0-2.5-1.12158-2.5-2.5v-.5h1v.5c0,.82715.67285,1.5,1.5,1.5h.5v-1.17603l2.05817,1.67603-2.05817,1.67603ZM14.5,10c-.651,0-1.20081.41925-1.4079,1h-1.0921v-1h-2.29883l-.85321-.85321c.09454-.19641.15204-.41364.15204-.64581,0-.82715-.67285-1.5-1.5-1.5s-1.5.67285-1.5,1.5.67285,1.49902,1.5,1.49902c.22961,0,.44482-.05499.63953-.14758l.86047.86047v1.58008l-.85797.85797c-.19543-.09338-.41144-.14996-.64203-.14996-.82715,0-1.5.67285-1.5,1.5s.67285,1.49902,1.5,1.49902,1.5-.67188,1.5-1.49902c0-.23114-.05688-.44757-.15063-.64331l.85767-.85767h2.29297v-1h1.0921c.20709.58075.7569,1,1.4079,1,.82715,0,1.5-.67285,1.5-1.5s-.67285-1.5-1.5-1.5ZM8,8.75c0,.13806-.11194.25-.25.25h-.24518c-.00171,0-.00311.00098-.00482.00098s-.00311-.00098-.00482-.00098h-.24518c-.13806,0-.25-.11194-.25-.25v-.48688c0-.14532.1178-.26312.26318-.26312h.48682c.13806,0,.25.11194.25.25v.5ZM8,14.75c0,.13806-.11194.25-.25.25h-.24518c-.00171,0-.00311.00098-.00482.00098s-.00311-.00098-.00482-.00098h-.24518c-.13806,0-.25-.11194-.25-.25v-.48688c0-.14532.1178-.26312.26318-.26312h.48682c.13806,0,.25.11194.25.25v.5ZM11,12h-1v-1h1v1ZM15,11.75c0,.13806-.11194.25-.25.25h-.5c-.13806,0-.25-.11194-.25-.25v-.48688c0-.14532.1178-.26312.26318-.26312h.48682c.13806,0,.25.11194.25.25v.5Z"/><rect class="cls-1" width="16" height="16"/></svg>