<svg id="icons" xmlns="http://www.w3.org/2000/svg" viewBox="0 0 24 24"><defs><style>.cls-1{opacity:0.5;}.cls-2{opacity:0.25;}.cls-3{fill:none;}</style></defs><path d="M18.99994,24V19.999h-4V19h4V15h1v4H24v.999H19.99994V24ZM22,2V9H18V6H16V7H15V6H13V7H12V2H22ZM15,3H13V5h2Zm3,0H16V5h2Zm3,3H19V8h2Zm0-3H19V5h2ZM16.99994,8v7H13V13h-.00006V12h-2v1h-1V12h-2v1h-1V8h10Zm-7,1h-2v2h2Zm3,0h-2v2h2Zm3,3h-2v2h2Zm0-3h-2v2h2ZM12,14v7H2V14H12ZM6,15v2H8V15ZM3,15v2H5V15Zm2,5V18H3v2Zm3,0V18H6v2Zm3,0V18H9v2Zm0-5H9v2h2Z"/><path class="cls-1" d="M16,6h2V7H16Zm-5,7h2v-1H11ZM6,20H8V18H6Z"/><path class="cls-2" d="M13,3h2V5H13Zm6,2h2V3H19ZM8,11h2V9H8Zm6,0h2V9H14ZM3,17H5V15H3Zm6,0h2V15H9Z"/><rect class="cls-3" width="24" height="24"/></svg>