<?xml version="1.0" encoding="UTF-8"?><svg id="icons" xmlns="http://www.w3.org/2000/svg" viewBox="0 0 24 24"><defs><style>.cls-1{fill:none;}.cls-1,.cls-2{stroke-width:0px;}</style></defs><path class="cls-2" d="M21.5,15c-1.20764,0-2.21722.86005-2.44946,2h-2.05054v-1h-2.29297l-1.14606-1.14606c.24493-.39087.38904-.85431.38904-1.35394,0-1.37891-1.07111-2.5-2.45001-2.5s-2.5,1.12109-2.5,2.5,1.12109,2.5,2.5,2.5c.51294,0,.9826-.15607,1.37109-.42188l1.12891,1.12891v1.55469l-1.14899,1.14899c-.38477-.25793-.84637-.41071-1.35101-.41071-1.37891,0-2.5,1.12109-2.5,2.5s1.12109,2.5,2.5,2.5,2.45001-1.12109,2.45001-2.5c0-.50793-.14728-.97961-.39978-1.37445l1.12555-1.12555h2.32422v-1h2.05054c.23224,1.13995,1.24182,2,2.44946,2,1.37891,0,2.45001-1.12109,2.45001-2.5s-1.07111-2.5-2.45001-2.5ZM11.5,15c-.82715,0-1.5-.67285-1.5-1.5s.67285-1.5,1.5-1.5,1.5.67285,1.5,1.5-.67285,1.5-1.5,1.5ZM11.5,23c-.82715,0-1.5-.67285-1.5-1.5s.67285-1.5,1.5-1.5,1.5.67285,1.5,1.5-.67285,1.5-1.5,1.5ZM16,18h-1v-1h1v1ZM21.5,19c-.82715,0-1.5-.67285-1.5-1.5s.67285-1.5,1.5-1.5,1.5.67285,1.5,1.5-.67285,1.5-1.5,1.5ZM9.20117,18.50586l-2.84766,2.84766-.70703-.70703,1.64648-1.64648h-2.29297c-1.6543,0-3-1.3457-3-3v-2h1v2c0,1.10254.89746,2,2,2h2.28101l-1.63452-1.63379.70703-.70703,2.84766,2.84668ZM4.95001,10.5c0-.51703-.10767-.9978-.37738-1.39685l1.10315-1.10315h2.32422v-1h2.05054c.23224,1.13995,1.24182,2,2.44946,2,1.37891,0,2.45001-1.12109,2.45001-2.5s-1.07111-2.5-2.45001-2.5c-1.20764,0-2.21722.86005-2.44946,2h-2.05054v-1h-2.29297l-1.12341-1.12341c.26196-.39526.36639-.86774.36639-1.37659,0-1.37891-1.07111-2.5-2.45001-2.5S0,1.12109,0,2.5s1.12109,2.5,2.5,2.5c.50885,0,.98132-.15442,1.37659-.41638l1.12341,1.12341v1.55469l-1.14362,1.14362c-.39136-.25421-.85577-.40533-1.35638-.40533-1.37891,0-2.5,1.12109-2.5,2.5s1.12109,2.5,2.5,2.5,2.45001-1.12109,2.45001-2.5ZM12.5,5c.82715,0,1.5.67285,1.5,1.5s-.67285,1.5-1.5,1.5-1.5-.67285-1.5-1.5.67285-1.5,1.5-1.5ZM6,6h1v1h-1v-1ZM2.5,4c-.82715,0-1.5-.67285-1.5-1.5s.67285-1.5,1.5-1.5,1.5.67285,1.5,1.5-.67285,1.5-1.5,1.5ZM1,10.5c0-.82715.67285-1.5,1.5-1.5s1.5.67285,1.5,1.5-.67285,1.5-1.5,1.5-1.5-.67285-1.5-1.5Z"/><rect class="cls-1" width="24" height="24"/></svg>