<?xml version="1.0" encoding="UTF-8"?><svg id="icons" xmlns="http://www.w3.org/2000/svg" viewBox="0 0 32 32"><path d="M12,6v1h2v-1h-2Zm-3,0v1h2v-1h-2Zm-3,0v1h2v-1h-2Zm6,12v1h2v-1h-2Zm-3,0v1h2v-1h-2Zm-3,0v1h2v-1h-2ZM12,6v1h2v-1h-2Zm-3,1h2v-1h-2v1Zm-3,0h2v-1h-2v1Zm6,5v1h2v-1h-2Zm-3,1h2v-1h-2v1Zm-3,0h2v-1h-2v1Zm6,5v1h2v-1h-2Zm-3,1h2v-1h-2v1Zm-3,0h2v-1h-2v1Zm23,3V3H3V22H20v4h-2v1H6v1h12v1h5v-1h3v-1h-3v-1h-2v-4h8ZM4,4H28v5H4V4Zm0,6H28v5H4v-5ZM22,27v1h-3v-1h3ZM4,21v-5H28v5H4Zm8-2h2v-1h-2v1Zm0-6h2v-1h-2v1Zm0-6h2v-1h-2v1Zm-3,12h2v-1h-2v1Zm0-6h2v-1h-2v1Zm0-6h2v-1h-2v1Zm-3,12h2v-1h-2v1Zm0-6h2v-1h-2v1Zm0-6h2v-1h-2v1Zm6,5v1h2v-1h-2Zm-3,0v1h2v-1h-2Zm-3,0v1h2v-1h-2Z"/><path fill="none" d="M0 0h32v32H0z"/></svg>