<?xml version="1.0" encoding="UTF-8"?><svg id="icons" xmlns="http://www.w3.org/2000/svg" viewBox="0 0 16 16"><path d="M7,7v1h1v-1h-1Zm-2,0v1h1v-1h-1Zm-2,0v1h1v-1h-1ZM7,3v1h1v-1h-1Zm-2,1h1v-1h-1v1Zm-2,0h1v-1h-1v1Zm4,3v1h1v-1h-1Zm-2,1h1v-1h-1v1Zm-2,0h1v-1h-1v1Zm12,2V1H1V10H10v2h-1v1H2v1h7v1h3v-1h2v-1h-2v-1h-1v-2h4ZM2,2H14v3H2V2ZM11,14h-1v-1h1v1ZM2,9v-3H14v3H2Zm5-1h1v-1h-1v1Zm0-4h1v-1h-1v1Zm-2,4h1v-1h-1v1Zm0-4h1v-1h-1v1Zm-2,4h1v-1h-1v1Zm0-4h1v-1h-1v1Zm4-1v1h1v-1h-1Zm-2,0v1h1v-1h-1Zm-2,0v1h1v-1h-1Z"/><path fill="none" d="M0 0h16v16H0z"/></svg>