<?xml version="1.0" encoding="UTF-8"?><svg id="icons" xmlns="http://www.w3.org/2000/svg" viewBox="0 0 16 16"><path d="M5,6.5c0-.32745-.0672-.63867-.18219-.92554l1.92169-1.30212c.45215,.44916,1.0741,.72766,1.7605,.72766,.7215,0,1.36725-.31171,1.82391-.80194l.8222,.49243c-.08813,.25531-.14612,.52466-.14612,.80951,0,1.37842,1.12109,2.5,2.5,2.5s2.5-1.12158,2.5-2.5-1.12109-2.5-2.5-2.5c-.73395,0-1.38824,.32349-1.84595,.82861l-.81067-.48541c.09558-.26465,.15662-.54596,.15662-.8432,0-1.37842-1.12109-2.5-2.5-2.5s-2.5,1.12158-2.5,2.5c0,.33246,.06812,.64868,.18646,.93915l-1.91589,1.29816c-.45294-.45496-1.07916-.7373-1.77057-.7373-1.37891,0-2.5,1.12158-2.5,2.5s1.12109,2.5,2.5,2.5,2.5-1.12158,2.5-2.5Zm8.5-2.5c.82715,0,1.5,.67285,1.5,1.5s-.67285,1.5-1.5,1.5-1.5-.67285-1.5-1.5,.67285-1.5,1.5-1.5ZM8.5,1c.82715,0,1.5,.67285,1.5,1.5s-.67285,1.5-1.5,1.5-1.5-.67285-1.5-1.5,.67285-1.5,1.5-1.5ZM1,6.5c0-.82715,.67285-1.5,1.5-1.5s1.5,.67285,1.5,1.5-.67285,1.5-1.5,1.5-1.5-.67285-1.5-1.5Zm3,2.5l-3,7h15l-3-7H4Zm.65918,1h7.43958l-2.30383,1.53613-3.91602,.979-2.9187,1.44965,1.69897-3.96478Zm-1.54102,5l3.05664-1.52832,3.94629-.98682,2.56427-1.68085,1.79803,4.19598H3.11816Z"/><path fill="none" d="M0 0h16v16H0z"/></svg>