<svg xmlns="http://www.w3.org/2000/svg" viewBox="0 0 32 32"><path d="M26 1H1v30h30V1zM2 30V1.9h22c-1.35.73-3 1.43-3 2.7 0 .54.75 1.21.9 1.46a1.78 1.78 0 0 1 .1.21 2.61 2.61 0 0 0-.27.21c-.29.25-.92.59-1.11 1.14a1.76 1.76 0 0 0-.1.6 3.9 3.9 0 0 0 .08.62 2.21 2.21 0 0 0-1.39.8 1.66 1.66 0 0 0-.42 1.36v.11c.22 1.07.17 1.48-.23 1.69a3.89 3.89 0 0 0-1.31 1.66A2.06 2.06 0 0 1 17 15l-.23-.16a2.29 2.29 0 0 0-1.42-.77 1.93 1.93 0 0 0-1.88 2c0 .34-.34.95-.59.95s-.34-.06-.36-.1a2.44 2.44 0 0 0-2.11-1.59 2.23 2.23 0 0 0-2.18 2.28 3.38 3.38 0 0 0 .13.9 1.29 1.29 0 0 1 .07.39 1.07 1.07 0 0 1-.18.47 2.85 2.85 0 0 0-.43 1.43 1.8 1.8 0 0 0 1.87 1.72 2.82 2.82 0 0 0 1.12-.23l.14-.05c0 .14-.27.41-.49.63-.55.55-1.78 1.48-1 3.06A2.79 2.79 0 0 0 11.35 27c.17 0 .42.1.57.15a2.27 2.27 0 0 1-.15.61l-.06.19a4.68 4.68 0 0 0-.34 1.65v.38zm10.33 0v-.38a4.3 4.3 0 0 1 .35-1.51 3.37 3.37 0 0 0 .25-1.11c0-1.1-2.29-.89-2.62-1.55-.81-1.62 1.59-1.94 1.59-3.24 0-.32-.16-1-.67-1-.7-.07-.88.31-1.59.31a.8.8 0 0 1-.87-.72c0-.77.61-1.13.61-1.9 0-.5-.2-.79-.2-1.29a1.23 1.23 0 0 1 1.18-1.28c.64 0 .93.52 1.23 1.08a1.3 1.3 0 0 0 1.24.61c1 0 1.59-1.22 1.59-1.95a1 1 0 0 1 .88-1c.69 0 .95.92 1.64.92 1.15 0 1.11-1.71 2.11-2.26 1.24-.66.88-2.1.72-2.87-.06-.35.58-1 .93-1 1.44.1.82-1.08.82-1.65a.87.87 0 0 1 .05-.28c.22-.65 1.43-.87 1.43-1.66 0-.57-1-1.11-1-1.67 0-.84 1.53-1.31 2.83-1.92a1 1 0 0 0 .54-.68H30v18.54c-.6.19-1.24.49-1.43.49h-1.28a2.53 2.53 0 0 1-1.84-.37c-.54-.47-.52-1.34-1.25-1.34-1 0-1.06 1.51-2 1.51-.44 0-.77-.3-1.22-.3s-.9.27-.9.66v1c0 .86-1 1-1 1.9 0 .35.38.48.38.84 0 1.17-1.81 1-1.81 2.19 0 .39-.58.62.43 1v.06a11 11 0 0 1-.54 1.82zM30 30H18.58a7.42 7.42 0 0 0 .42-1.81v-.7l-.44-.2v-.15l.39-.22a2.26 2.26 0 0 0 1.42-2 1.61 1.61 0 0 0-.31-.92l.16-.17a2.27 2.27 0 0 0 .8-1.65v-.65l.15.05a2.62 2.62 0 0 0 1 .22A2.24 2.24 0 0 0 24 20.65a1.36 1.36 0 0 1 .12-.17 2.87 2.87 0 0 0 .67.93 2.74 2.74 0 0 0 1.93.63h1.85a3.06 3.06 0 0 0 1-.29l.39-.15zM7 11h2v2H7zM5 27h2v-2H5zM15 9h2V7h-2zm9 17h2v-2h-2z"/></svg>