<?xml version="1.0" encoding="UTF-8"?><svg id="icons" xmlns="http://www.w3.org/2000/svg" viewBox="0 0 32 32"><path d="M24,19H9L3,29H30l-6-10Zm-14.43359,1h13.38654l-4.3172,2.34863-6.84766,1.71191c-.03516,.00879-.07031,.02148-.10254,.0376l-6.54041,3.2702,4.42126-7.36835Zm2.51758,5.01709l6.85547-1.71387c.04102-.01025,.08105-.02539,.11816-.04541l4.77301-2.59613,4.40326,7.33832H6.11816l5.96582-2.98291Zm-4.08398-11.51709c0-.58832-.15973-1.1347-.41736-1.62189l5.38672-3.97351c.63812,.67133,1.53363,1.0954,2.53064,1.0954,1.10175,0,2.07428-.52203,2.71637-1.32043l4.04773,2.49615c-.16809,.40912-.2641,.85535-.2641,1.32428,0,1.92969,1.57031,3.5,3.5,3.5s3.5-1.57031,3.5-3.5-1.57031-3.5-3.5-3.5c-1.10175,0-2.07434,.52203-2.71643,1.3205l-4.04773-2.49609c.16815-.40912,.26416-.85541,.26416-1.3244,0-1.92969-1.57031-3.5-3.5-3.5s-3.5,1.57031-3.5,3.5c0,.573,.15161,1.10632,.39685,1.58423l-5.39331,3.97839c-.63623-.65344-1.52185-1.06262-2.50354-1.06262-1.92969,0-3.5,1.57031-3.5,3.5s1.57031,3.5,3.5,3.5,3.5-1.57031,3.5-3.5Zm17.5-4.5c1.37891,0,2.5,1.12158,2.5,2.5s-1.12109,2.5-2.5,2.5-2.5-1.12158-2.5-2.5,1.12109-2.5,2.5-2.5ZM15.5,3c1.37891,0,2.5,1.12158,2.5,2.5s-1.12109,2.5-2.5,2.5-2.5-1.12158-2.5-2.5,1.12109-2.5,2.5-2.5ZM2,13.5c0-1.37842,1.12109-2.5,2.5-2.5s2.5,1.12158,2.5,2.5-1.12109,2.5-2.5,2.5-2.5-1.12158-2.5-2.5Z"/><path fill="none" d="M0 0h32v32H0z"/></svg>