<svg xmlns="http://www.w3.org/2000/svg" viewBox="0 0 24 24"><path d="M23 1H1v22h22zm-1 14.809a2.898 2.898 0 01-.749.147 2.476 2.476 0 01-.396.044c-.319 0-.746-.376-1.03-.625a1.32 1.32 0 01-.214-.39c-.145-.338-.39-.907-1.04-.907a1.585 1.585 0 00-1.062.414.625.625 0 01-.444.2.77.77 0 01-.237-.086 1.52 1.52 0 00-.66-.178 1.068 1.068 0 00-1.168.94v.752c0 .098-.05.161-.233.346a1.455 1.455 0 00-.526 1.055 1.146 1.146 0 00.357.73c.036.042.086.1.11.105a1.85 1.85 0 01-.444.16c-.444.122-1.186.326-1.186 1.14a1.214 1.214 0 00.318.73c.029.037.066.086.087.116-.048.124-.14.328-.235.547a15.9 15.9 0 00-.391.951h-2.58l-.002-.287a2.293 2.293 0 01.184-.817l.053-.15a2.931 2.931 0 00.186-.999c0-.871-.876-1.076-1.4-1.198-.172-.04-.432-.102-.464-.108-.174-.345-.088-.485.357-.93a1.925 1.925 0 00.736-1.353 1.198 1.198 0 00-.951-1.267 1.626 1.626 0 00-.856.137.95.95 0 01-.39.091.28.28 0 01-.156-.039.974.974 0 01.171-.475 1.899 1.899 0 00.292-.955 2.3 2.3 0 00-.093-.608 1.337 1.337 0 01-.06-.355.434.434 0 01.386-.464c.156 0 .246.118.488.55a1.44 1.44 0 001.363.721c1.035 0 1.696-1.164 1.696-1.965 0-.113.08-.232.157-.232.084 0 .157.049.315.169a1.468 1.468 0 00.92.37 1.523 1.523 0 001.335-.997 1.485 1.485 0 01.483-.607 2.175 2.175 0 00.81-2.616c.049-.08.161-.199.152-.217a1.18 1.18 0 001.02-.32 1.325 1.325 0 00.17-1.18 1.024 1.024 0 01-.03-.286 1.002 1.002 0 01.282-.3 1.451 1.451 0 00.637-1.114 1.487 1.487 0 00-.238-.764.583.583 0 01-.11-.276c0-.055.109-.404.996-.885.281-.152.445-.226.552-.274H22zM2 2h15.354a1.586 1.586 0 00-.634 1.16 1.488 1.488 0 00.239.767.582.582 0 01.11.272c0 .092-.069.165-.288.353a1.707 1.707 0 00-.58.743 1.173 1.173 0 00-.058.372 2.332 2.332 0 00.053.419c.02.106.058.303.097.303h.001a.537.537 0 01-.235.012 1.244 1.244 0 00-.91.474 1.051 1.051 0 00-.293.94c.165.802.165 1.285-.304 1.538a2.313 2.313 0 00-.88.995c-.23.41-.305.488-.463.488-.085 0-.158-.049-.317-.17a1.462 1.462 0 00-.918-.37 1.197 1.197 0 00-1.157 1.233c0 .323-.3.965-.696.965-.375 0-.448-.134-.504-.233a1.569 1.569 0 00-1.347-1.038 1.428 1.428 0 00-1.386 1.463 2.3 2.3 0 00.093.609 1.337 1.337 0 01.06.355.974.974 0 01-.17.476 1.898 1.898 0 00-.293.954 1.103 1.103 0 001.156 1.04 1.936 1.936 0 00.752-.16.874.874 0 01.35-.09h.007a.537.537 0 01.088.288c0 .19-.167.371-.442.646a1.645 1.645 0 00-.546 2.086 1.529 1.529 0 001.131.632c.199.046.568.132.628.225a1.957 1.957 0 01-.132.672l-.05.14a3.23 3.23 0 00-.24 1.154l.002.287H2zm11.927 20c.07-.168.156-.363.238-.55.297-.682.335-.775.335-.965a1.173 1.173 0 00-.31-.708c-.042-.054-.095-.141-.118-.127a1.527 1.527 0 01.457-.17c.415-.115 1.188-.328 1.188-1.144a1.156 1.156 0 00-.359-.735c-.047-.054-.116-.132-.117-.08 0-.1.05-.165.235-.35A1.449 1.449 0 0016 16.12v-.66a.498.498 0 01.407.053 1.498 1.498 0 00.658.178 1.587 1.587 0 001.063-.414.768.768 0 01.4-.217 1.413 1.413 0 01.165.32 1.965 1.965 0 00.473.745 2.772 2.772 0 001.69.874 3.63 3.63 0 00.551-.056 2.463 2.463 0 01.395-.044.526.526 0 00.198-.038V22zM5 7h2v2H5zm6-3h2v2h-2zm7 14h2v2h-2z"/></svg>