<svg xmlns="http://www.w3.org/2000/svg" viewBox="0 0 16 16"><path d="M1 1v14h14V1zm1 13V2h8.92a2.62 2.62 0 0 0 0 .27 1.68 1.68 0 0 0 .12.6 1.59 1.59 0 0 0-.44.66 1.45 1.45 0 0 0-.08.47 1.63 1.63 0 0 0-.51.39V5a1 1 0 0 1-.33.73A1.38 1.38 0 0 1 9.7 6a2.14 2.14 0 0 0-.76.83l-.21-.07a3.55 3.55 0 0 0-1.06-.23 1.47 1.47 0 0 0-1.41 1.14 1.43 1.43 0 0 0-1.13-.52 1.64 1.64 0 0 0-1.61 1.66 2 2 0 0 0 .09.59v.09a1.86 1.86 0 0 0-.28 1 1.38 1.38 0 0 0 1 1.31 1.57 1.57 0 0 0 0 1.6A1.32 1.32 0 0 0 5 14zm12-3h-.43a1.11 1.11 0 0 1-.57-.19V11a1 1 0 0 1-.36.75 2 2 0 0 0 .93.25H14v2h-3.92s-.11-.27-.12-.31a1.49 1.49 0 0 0 .72-1.27 1 1 0 0 0-.06-.35l.05-.07H10a.91.91 0 0 1-.46-.13.39.39 0 0 0 0 .14c0 .18.19.24.19.41 0 .58-.89.51-.89 1.08 0 .2.21.31.21.49H6.41a1.18 1.18 0 0 0 0-.34c0-.56-1.07-.4-1.24-.74-.42-.84.71-1.05.71-1.72 0-.17-.08-.51-.34-.53s-.46.16-.82.16a.42.42 0 0 1-.45-.37c0-.4.32-.59.32-1s-.11-.41-.11-.67a.64.64 0 0 1 .61-.66c.33 0 .48.27.63.56A.68.68 0 0 0 6.4 9c.5 0 .82-.63.82-1a.48.48 0 0 1 .45-.5c.36 0 1.13.37 1.49.37.59 0 .57-.78 1.08-1.06s.45-1.09.37-1.48c0-.18.3-.52.48-.51.74.06.42-.55.42-.84a.33.33 0 0 1 0-.15c.11-.34.61-.45.61-.86s-.24-.42-.24-.71a2.53 2.53 0 0 1 0-.28H14zM3 4h2v2H3zm4 1h2V3H7zm3 6h2V9h-2z"/></svg>