<svg xmlns="http://www.w3.org/2000/svg" viewBox="0 0 24 24"><path d="M22.82 16V1.2H1.2v21.6h21.6V16zm-.82-.19a3.11 3.11 0 0 1-.75.15 2.58 2.58 0 0 1-.39 0c-.32 0-.75-.38-1-.62a1.38 1.38 0 0 1-.22-.39c-.14-.34-.39-.91-1-.91a1.61 1.61 0 0 0-1.06.41.63.63 0 0 1-.44.2.74.74 0 0 1-.24-.08 1.52 1.52 0 0 0-.66-.18 1.07 1.07 0 0 0-1.17.94v.75c0 .1-.05.16-.23.35a1.43 1.43 0 0 0-.53 1.05 1.13 1.13 0 0 0 .36.73.38.38 0 0 0 .11.11 2.08 2.08 0 0 1-.45.16c-.44.12-1.18.32-1.18 1.14a1.2 1.2 0 0 0 .32.73l.08.11c-.05.13-.14.33-.23.55s-.32.75-.39.95h-2.65v-.29a2.22 2.22 0 0 1 .18-.81v-.15a2.92 2.92 0 0 0 .19-1c0-.87-.88-1.08-1.4-1.2l-.47-.11c-.17-.34-.08-.48.36-.93a1.92 1.92 0 0 0 .74-1.35A1.2 1.2 0 0 0 9 14.89a1.67 1.67 0 0 0-.86.14 1 1 0 0 1-.39.09.36.36 0 0 1-.16 0 1 1 0 0 1 .18-.48 1.84 1.84 0 0 0 .23-.99 2 2 0 0 0-.1-.61 1.51 1.51 0 0 1-.06-.35.44.44 0 0 1 .39-.47c.16 0 .25.12.49.55a1.44 1.44 0 0 0 1.36.72 2 2 0 0 0 1.7-2c0-.11.08-.23.15-.23s.16 0 .32.17a1.51 1.51 0 0 0 .92.37 1.51 1.51 0 0 0 1.33-1 1.47 1.47 0 0 1 .49-.61 2.17 2.17 0 0 0 .81-2.61c.05-.08.16-.2.15-.22a1.21 1.21 0 0 0 1-.32 1.35 1.35 0 0 0 .17-1.18.86.86 0 0 1 0-.29 1.22 1.22 0 0 1 .28-.3 1.46 1.46 0 0 0 .64-1.11 1.52 1.52 0 0 0-.24-.77.6.6 0 0 1-.11-.27c0-.06.11-.41 1-.89.28-.15.44-.22.55-.27H22zM2 2h15.35a1.62 1.62 0 0 0-.63 1.16 1.52 1.52 0 0 0 .24.77.6.6 0 0 1 .11.27c0 .09-.07.16-.29.35a1.85 1.85 0 0 0-.58.74 1.21 1.21 0 0 0-.06.38 2.49 2.49 0 0 0 .06.42c0 .1.05.3.09.3a.46.46 0 0 1-.23 0 1.22 1.22 0 0 0-.91.48 1 1 0 0 0-.29.93c.16.81.16 1.29-.31 1.54a2.3 2.3 0 0 0-.88 1c-.23.41-.3.49-.46.49s-.16-.05-.32-.17a1.45 1.45 0 0 0-.89-.36 1.19 1.19 0 0 0-1.15 1.23c0 .32-.3 1-.7 1s-.45-.13-.5-.23c-.25-.44-.58-1-1.35-1a1.44 1.44 0 0 0-1.39 1.47 2.19 2.19 0 0 0 .1.6 1.59 1.59 0 0 1 .06.36 1 1 0 0 1-.17.48 1.87 1.87 0 0 0-.3.95 1.11 1.11 0 0 0 1.16 1 1.87 1.87 0 0 0 .72-.16.9.9 0 0 1 .35-.09.5.5 0 0 1 .09.29c0 .19-.17.37-.44.64a1.64 1.64 0 0 0-.55 2.09 1.51 1.51 0 0 0 1.13.63c.2.05.57.13.63.23a2 2 0 0 1-.13.67l-.05.14a3.12 3.12 0 0 0-.24 1.15V22H2zm11.93 20c.07-.17.15-.36.24-.55.29-.68.33-.78.33-1a1.17 1.17 0 0 0-.31-.71c0-.06-.1-.14-.12-.13a1.48 1.48 0 0 1 .46-.17c.41-.11 1.19-.33 1.19-1.14a1.16 1.16 0 0 0-.36-.74c0-.05-.12-.13-.12-.08s0-.16.24-.35a1.48 1.48 0 0 0 .52-1.01v-.66a.53.53 0 0 1 .41 0 1.48 1.48 0 0 0 .66.18 1.61 1.61 0 0 0 1.06-.41.81.81 0 0 1 .4-.22 1.87 1.87 0 0 1 .16.32 2 2 0 0 0 .48.75 2.79 2.79 0 0 0 1.69.87 3.55 3.55 0 0 0 .55-.06 2.58 2.58 0 0 1 .39 0 .45.45 0 0 0 .2 0V22zM5 7h2v2H5zm6-3h2v2h-2zm7 14h2v2h-2z"/></svg>