<?xml version="1.0" encoding="UTF-8"?><svg id="icons" xmlns="http://www.w3.org/2000/svg" viewBox="0 0 24 24"><path d="M18.75,14H6.5L2,22H23.25l-4.5-8Zm-11.66504,1h9.86786l-3.02704,1.64648-5.21094,1.40332-4.59149,2.21527,2.96161-5.26508Zm1.97559,3.98291l5.18164-1.38623c.03809-.01025,.0752-.0249,.11035-.04346l3.88672-2.11377c.04681-.02557,.08252-.06201,.11743-.09869l3.18335,5.65924H4.89624l4.16431-2.01709Zm-3.06055-9.48291c0-.38104-.09247-.73846-.24554-1.06201l4.06018-3.10358c.44531,.40936,1.034,.66559,1.68536,.66559,.75293,0,1.42096-.34137,1.87964-.86945l2.7395,1.64679c-.07019,.23029-.11914,.46973-.11914,.72266,0,1.37842,1.12109,2.5,2.5,2.5s2.5-1.12158,2.5-2.5-1.12109-2.5-2.5-2.5c-.76599,0-1.44379,.35345-1.90271,.8974l-2.72736-1.63947c.07721-.2406,.13007-.49207,.13007-.75793,0-1.37842-1.12109-2.5-2.5-2.5s-2.5,1.12158-2.5,2.5c0,.36621,.08356,.71167,.22565,1.02539l-4.07288,3.11334c-.44165-.39258-1.01654-.63873-1.65277-.63873-1.37891,0-2.5,1.12158-2.5,2.5s1.12109,2.5,2.5,2.5,2.5-1.12158,2.5-2.5Zm12.5-3.5c.82715,0,1.5,.67285,1.5,1.5s-.67285,1.5-1.5,1.5-1.5-.67285-1.5-1.5,.67285-1.5,1.5-1.5ZM11.5,2c.82715,0,1.5,.67285,1.5,1.5s-.67285,1.5-1.5,1.5-1.5-.67285-1.5-1.5,.67285-1.5,1.5-1.5ZM2,9.5c0-.82715,.67285-1.5,1.5-1.5s1.5,.67285,1.5,1.5-.67285,1.5-1.5,1.5-1.5-.67285-1.5-1.5Z"/><path fill="none" d="M0 0h24v24H0z"/></svg>