<svg xmlns="http://www.w3.org/2000/svg" viewBox="0 0 16 16"><path d="M12.69 1H1v14h14V1zM7 3h2v2H7zM3 5h2v2H3zm10 9h-2v-2h2zm1-4.21c-.17.2-.32.42-.38.42H13a1.46 1.46 0 0 1-.91-.43c-.26-.23-.26-.78-.62-.78s-.52.68-1 .68c-.22 0-.38-.18-.6-.18s-.44.1-.44.29v.5c0 .43-.51.51-.51.94 0 .17.18.23.18.41 0 .58-.89.5-.89 1.08 0 .19.22.3.22.48a2.92 2.92 0 0 1-.34.77H6.38a1.86 1.86 0 0 0 .09-.5c0-.55-1-.39-1.21-.72-.41-.82.69-1 .69-1.67 0-.16-.08-.49-.33-.52s-.45.16-.8.16a.41.41 0 0 1-.44-.36c0-.39.31-.57.31-1s-.1-.39-.1-.64a.62.62 0 0 1 .59-.64c.32 0 .46.26.62.54a.64.64 0 0 0 .61.38c.49 0 .8-.61.8-1a.48.48 0 0 1 .44-.49c.35 0 .47.36.82.36.57 0 .55-.76 1.06-1s.43-1.05.36-1.44c0-.17.29-.5.46-.49.72.05.41-.54.41-.82a.59.59 0 0 1 0-.14c.12-.33.6-.44.6-.84s-.23-.41-.23-.69a.64.64 0 0 1 .24-.45H14z"/></svg>