<svg xmlns="http://www.w3.org/2000/svg" viewBox="0 0 32 32"><path d="M1 1v30h30V1zm14 6h2v2h-2zM7 27H5v-2h2zm0-16h2v2H7zm19 15h-2v-2h2zm4-5.54c-.63.17-1.39.54-1.6.54h-1.26a2.47 2.47 0 0 1-1.81-.37c-.53-.46-.52-1.31-1.24-1.31-1 0-1 1.48-2 1.48-.44 0-.76-.29-1.2-.29s-.89.26-.89.65v1c0 .85-1 1-1 1.87 0 .34.37.47.37.82 0 1.16-1.79 1-1.79 2.16 0 .38-.57.61.43 1V28c0 .43-.62 1.21-.83 2h-4.79v-.38a4.3 4.3 0 0 1 .35-1.51 3.37 3.37 0 0 0 .19-1.11c0-1.1-2.09-.79-2.42-1.45-.81-1.62 1.39-2 1.39-3.34 0-.32-.16-1-.67-1-.7-.07-.88.31-1.59.31a.8.8 0 0 1-.87-.72c0-.77.61-1.13.61-1.9 0-.5-.2-.79-.2-1.29a1.23 1.23 0 0 1 1.18-1.28c.64 0 .93.52 1.23 1.08a1.3 1.3 0 0 0 1.24.61c1 0 1.59-1.22 1.59-1.95a1 1 0 0 1 .88-1c.69 0 .95.72 1.64.72 1.15 0 1.11-1.51 2.11-2.06 1.24-.66.88-2.1.72-2.87-.06-.35.58-1 .93-1 1.44.1.82-1.08.82-1.65a.87.87 0 0 1 .05-.28c.22-.66 1.19-.88 1.19-1.67 0-.57-.47-.83-.47-1.39 0-.84 1.24-1.59 2.54-2.2a1 1 0 0 0 .54-.67H30z"/></svg>