<svg xmlns="http://www.w3.org/2000/svg" viewBox="0 0 24 24"><path d="M19.53 1H1v22h22V1zM11 4h2v2h-2zM7 9H5V7h2zm13 11h-2v-2h2zm2-4.18c-.09.11-.16.18-.2.18h-.94a2.2 2.2 0 0 1-1.36-.65c-.4-.34-.39-1.17-.93-1.17-.72 0-.78 1-1.5 1-.33 0-.57-.26-.9-.26s-.67.15-.67.44v.75c0 .64-.76.76-.76 1.4 0 .26.28.36.28.62 0 .87-1.34.75-1.34 1.62 0 .28.32.45.32.73 0 .32-.46.9-.62 1.47H9.79v-.29a3.24 3.24 0 0 1 .21-1.08 2.36 2.36 0 0 0 .16-.83c0-.82-1.57-.59-1.81-1.08-.61-1.22 1-1.54 1-2.51 0-.24-.13-.73-.5-.77-.53-.06-.67.23-1.2.23a.61.61 0 0 1-.66-.54c0-.58.47-.85.47-1.43 0-.37-.16-.59-.16-1a.94.94 0 0 1 .89-1c.48 0 .69.4.93.81a1 1 0 0 0 .92.46c.73 0 1.2-.91 1.2-1.46a.7.7 0 0 1 .76-.66c.52 0 .72.54 1.24.54.86 0 .83-1.14 1.58-1.55.93-.5.66-1.58.54-2.16-.05-.25.44-.75.69-.73 1.09.08.62-.81.62-1.23a.54.54 0 0 1 0-.22c.16-.49.89-.65.89-1.25 0-.42-.35-.62-.35-1s.42-.81 1-1.16H22z"/></svg>