<svg xmlns="http://www.w3.org/2000/svg" viewBox="0 0 24 24"><path d="M5 10.406v5.334a1.5 1.5 0 0 1-3 0v-5.334a1.5 1.5 0 1 1 3 0zM6 17a2 2 0 0 0 2 2v2.5a1.5 1.5 0 0 0 3 0V19h2v2.5a1.5 1.5 0 0 0 3 0V19h1a1 1 0 0 0 1-1V9.08H6zm14.5-8.094a1.501 1.501 0 0 0-1.5 1.5v5.334a1.5 1.5 0 0 0 3 0v-5.334a1.501 1.501 0 0 0-1.5-1.5zM17.974 8h-12l.059-.324A6.215 6.215 0 0 1 8.29 3.997L7.086 2.793l.707-.707 1.35 1.35a5.838 5.838 0 0 1 5.7.014l1.364-1.364.707.707-1.222 1.222a6.159 6.159 0 0 1 2.221 3.615zm-7.599-2.5a.875.875 0 1 0-.875.875.876.876 0 0 0 .875-.875zm5 0a.875.875 0 1 0-.875.875.876.876 0 0 0 .875-.875z"/></svg>