<svg xmlns="http://www.w3.org/2000/svg" viewBox="0 0 32 32"><path d="M19.5 5.625a.875.875 0 1 0 .875.875.876.876 0 0 0-.875-.875zm-.125.875a.125.125 0 0 1 .25 0c0 .138-.25.138-.25 0zM12.5 5.625a.875.875 0 1 0 .875.875.876.876 0 0 0-.875-.875zm-.125.875a.125.125 0 0 1 .25 0c0 .138-.25.138-.25 0zm11.457 2.9a8.014 8.014 0 0 0-4.072-5.446l1.517-1.517-.707-.706-1.78 1.78a7.878 7.878 0 0 0-5.58 0l-1.78-1.78-.707.707 1.517 1.516A8.014 8.014 0 0 0 8.168 9.4l-.122.6h15.908zM9.298 9a6.991 6.991 0 0 1 13.404 0zM8 22.722A2.28 2.28 0 0 0 10.278 25H11v3.3a1.943 1.943 0 0 0 2 1.7 1.943 1.943 0 0 0 2-1.7V25h2v3a2 2 0 0 0 4 0v-3h.722A2.28 2.28 0 0 0 24 22.722V11H8zM9 12h14v10.722A1.28 1.28 0 0 1 21.722 24H20v4a1 1 0 0 1-2 0v-4h-4v4.3a1.064 1.064 0 0 1-2 0V24h-1.722A1.28 1.28 0 0 1 9 22.722zm18-1a2.002 2.002 0 0 0-2 2v7a2 2 0 0 0 4 0v-7a2.002 2.002 0 0 0-2-2zm1 9a1 1 0 0 1-2 0v-7a1 1 0 0 1 2 0zM5 11a2.002 2.002 0 0 0-2 2v7a2 2 0 0 0 4 0v-7a2.002 2.002 0 0 0-2-2zm1 9a1 1 0 0 1-2 0v-7a1 1 0 0 1 2 0z"/></svg>