<svg xmlns="http://www.w3.org/2000/svg" viewBox="0 0 32 32"><path d="M8 11h16v11.722A2.28 2.28 0 0 1 21.722 25H21v3a2 2 0 0 1-4 0v-3h-2v3.3a1.943 1.943 0 0 1-2 1.7 1.943 1.943 0 0 1-2-1.7V25h-.722A2.28 2.28 0 0 1 8 22.722zm19 0a2.002 2.002 0 0 0-2 2v7a2 2 0 0 0 4 0v-7a2.002 2.002 0 0 0-2-2zM5 11a2.002 2.002 0 0 0-2 2v7a2 2 0 0 0 4 0v-7a2.002 2.002 0 0 0-2-2zm18.954-1H8.046l.122-.6a8.014 8.014 0 0 1 4.072-5.446l-1.517-1.517.707-.706 1.78 1.78a7.878 7.878 0 0 1 5.58 0l1.78-1.78.707.707-1.517 1.516A8.014 8.014 0 0 1 23.832 9.4zM13.375 6.5a.875.875 0 1 0-.875.875.876.876 0 0 0 .875-.875zm7 0a.875.875 0 1 0-.875.875.876.876 0 0 0 .875-.875z"/></svg>