<svg xmlns="http://www.w3.org/2000/svg" viewBox="0 0 24 24"><path d="M18.88 6.154a4.344 4.344 0 0 0-.079-.512 7.156 7.156 0 0 0-.775-1.87 7.255 7.255 0 0 0-1.432-1.711L17.762.892l-.707-.707-1.27 1.27a6.888 6.888 0 0 0-7.729 0L6.786.185 6.08.892l1.168 1.169a7.252 7.252 0 0 0-1.433 1.712 7.076 7.076 0 0 0-.768 1.846 4.017 4.017 0 0 0-.085.535c-.011.103-.021.198-.03.245L4.807 7h14.226l-.123-.6c-.01-.048-.02-.143-.032-.246zM5.987 6a1.044 1.044 0 0 1 .021-.11 6.155 6.155 0 0 1 .666-1.606A6.249 6.249 0 0 1 8.02 2.698a6.193 6.193 0 0 1 7.8 0 6.18 6.18 0 0 1 2.016 3.21.818.818 0 0 1 .017.092zM5 18.218a1.801 1.801 0 0 0 1.8 1.8H7v2a2 2 0 0 0 4 0v-2h2v2a2 2 0 0 0 4 0v-2h.2a1.801 1.801 0 0 0 1.8-1.8v-10.2H5zm1-9.2h12v9.2a.8.8 0 0 1-.8.8H16v3a1 1 0 0 1-2 0v-3h-4v3a1 1 0 0 1-2 0v-3H6.8a.8.8 0 0 1-.8-.8zm-3.5-.706a1.502 1.502 0 0 0-1.5 1.5v6.668a1.5 1.5 0 0 0 3 0V9.812a1.502 1.502 0 0 0-1.5-1.5zM3 16.48a.5.5 0 0 1-1 0V9.812a.5.5 0 0 1 1 0zm18.5-8.167a1.502 1.502 0 0 0-1.5 1.5v6.667a1.5 1.5 0 1 0 3 0V9.812a1.502 1.502 0 0 0-1.5-1.5zm.5 8.167a.5.5 0 1 1-1 0V9.812a.5.5 0 0 1 1 0zM15.375 3.5a.875.875 0 1 1-.875-.875.876.876 0 0 1 .875.875zm-5 0a.875.875 0 1 1-.875-.875.876.876 0 0 1 .875.875z"/></svg>