<svg xmlns="http://www.w3.org/2000/svg" viewBox="0 0 16 16"><path d="M12.5 5.313a1.483 1.483 0 0 0-.501.092l-.008-.572a4.844 4.844 0 0 0-1.025-2.17l.667-.667-.707-.707-.684.684A4.435 4.435 0 0 0 7.5 1a4.39 4.39 0 0 0-2.737.978l-.69-.69-.706.708.676.676A5.037 5.037 0 0 0 3 4.929v.476a1.483 1.483 0 0 0-.5-.092 1.502 1.502 0 0 0-1.5 1.5v3.667a1.502 1.502 0 0 0 1.5 1.5 1.485 1.485 0 0 0 .534-.103A1.312 1.312 0 0 0 4 12.96v1.74A1.467 1.467 0 0 0 5.5 16 1.467 1.467 0 0 0 7 14.7V13h1v1.7a1.515 1.515 0 0 0 3 0v-1.74a1.312 1.312 0 0 0 .966-1.083 1.485 1.485 0 0 0 .534.102 1.502 1.502 0 0 0 1.5-1.5V6.813a1.502 1.502 0 0 0-1.5-1.5zM7.5 2a3.515 3.515 0 0 1 2.418 1H9v1h1v-.918a3.665 3.665 0 0 1 1 1.847V5H3.998A3.821 3.821 0 0 1 5 3.098V4h1V3h-.904A3.467 3.467 0 0 1 7.5 2zm-5 8.98a.5.5 0 0 1-.5-.5V6.811a.5.5 0 0 1 1 0v3.667a.5.5 0 0 1-.5.5zm8.5.7a.32.32 0 0 1-.32.32H10v2.697a.566.566 0 0 1-1 .003V12H6v2.697a.566.566 0 0 1-1 .003V12h-.68a.32.32 0 0 1-.32-.32V6h7v5.68zm2-1.2a.5.5 0 1 1-1 0V6.811a.5.5 0 0 1 1 0z"/></svg>