<?xml version="1.0" encoding="UTF-8"?><svg id="icons" xmlns="http://www.w3.org/2000/svg" viewBox="0 0 16 16"><defs><style>.cls-1{fill:none;}.cls-1,.cls-2,.cls-3{stroke-width:0px;}.cls-2{opacity:.25;}</style></defs><rect class="cls-1" width="16" height="16"/><path class="cls-3" d="M11.40039,0H2v5h1V1h7v4h4v10H3v-1h-1v2h13V3.59961l-3.59961-3.59961ZM14,4h-3V1h.31049l2.68951,2.68951v.31049ZM5.51874,9.28754c.29596-.34875.48126-.79431.48126-1.28754,0-1.10461-.89545-2-2-2H1v7h3.5c1.10455,0,2-.89545,2-2,0-.73083-.39612-1.36353-.98126-1.71246ZM2,7h2c.55176,0,1,.44824,1,1s-.44824,1-1,1h-2v-2ZM4.5,12h-2.5v-2h2.5c.55176,0,1,.44824,1,1s-.44824,1-1,1Z"/><path class="cls-2" d="M10,3H3V1h7v2Z"/></svg>