<?xml version="1.0" encoding="UTF-8"?><svg id="icons" xmlns="http://www.w3.org/2000/svg" viewBox="0 0 24 24"><defs><style>.cls-1{fill:none;}.cls-1,.cls-2,.cls-3{stroke-width:0px;}.cls-2{opacity:.25;}</style></defs><rect class="cls-1" width="24" height="24"/><path class="cls-2" d="M17,6H2v-3h15v3Z"/><path class="cls-3" d="M18.29102,2H1v18h6v-1H2V3h15v6h6v10h-6v1h7V7.71002l-5.70898-5.71002ZM23,8h-5V3h.20001l4.79999,4.79999v.20001ZM13.35645,16.16028c.39575-.44226.64355-1.02008.64355-1.66028,0-1.38074-1.11926-2.5-2.5-2.5h-2.5v9h3.5c1.38074,0,2.3-1.11932,2.3-2.5,0-1.07849-.48658-1.98901-1.44355-2.33972ZM10,13h1.5c.82715,0,1.5.67285,1.5,1.5s-.67285,1.5-1.5,1.5h-1.5v-3ZM12.5,20h-2.5v-3h2.5c.82715,0,1.5.67285,1.5,1.5s-.67285,1.5-1.5,1.5Z"/></svg>