<?xml version="1.0" encoding="UTF-8"?><svg id="icons" xmlns="http://www.w3.org/2000/svg" viewBox="0 0 32 32"><defs><style>.cls-1{fill:none;}.cls-1,.cls-2,.cls-3{stroke-width:0px;}.cls-2{opacity:.25;}</style></defs><path class="cls-2" d="M22,9H3v-3h19v3Z"/><path class="cls-3" d="M23.30103,5H2v22h8v-1H3V6h19v8h8v12h-8v1h9v-14.29999l-7.69897-7.70001ZM23,13v-7l7,7h-7ZM17.90619,23.29883c.66278-.55029,1.09381-1.37006,1.09381-2.29883,0-1.65686-1.34314-3-3-3h-4v12h4.5c1.93298,0,3.3-1.56702,3.3-3.5,0-1.43195-.66224-2.65918-1.89381-3.20117ZM13,19h3c1.10254,0,2,.89746,2,2s-.89746,2-2,2h-3v-4ZM16.5,29h-3.5v-5h3.5c1.37891,0,2.5,1.12109,2.5,2.5s-1.12109,2.5-2.5,2.5Z"/><rect class="cls-1" width="32" height="32"/></svg>