<?xml version="1.0" encoding="UTF-8"?><svg id="icons" xmlns="http://www.w3.org/2000/svg" viewBox="0 0 32 32"><defs><style>.cls-1{fill:none;}.cls-1,.cls-2,.cls-3{stroke-width:0px;}.cls-2{opacity:.25;}</style></defs><rect class="cls-1" width="32" height="32"/><path class="cls-3" d="M19.29999,2H5v9h1V3h12v8h8v18H6v-2h-1v3h22V9.69897l-7.70001-7.69897ZM19,10V3l7,7h-7ZM8.90619,18.29883c.66278-.55029,1.09381-1.37006,1.09381-2.29883,0-1.65686-1.34314-3-3-3H3v12h4.5c1.93298,0,3.3-1.56702,3.3-3.5,0-1.43195-.66224-2.65918-1.89381-3.20117ZM4,14h3c1.10254,0,2,.89746,2,2s-.89746,2-2,2h-3v-4ZM7.5,24h-3.5v-5h3.5c1.37891,0,2.5,1.12109,2.5,2.5s-1.12109,2.5-2.5,2.5Z"/><path class="cls-2" d="M18,6H6v-3h12v3Z"/></svg>