<?xml version="1.0" encoding="UTF-8"?><svg id="icons" xmlns="http://www.w3.org/2000/svg" viewBox="0 0 32 32"><defs><style>.cls-1{fill:none;}.cls-1,.cls-2,.cls-3{stroke-width:0px;}.cls-2{opacity:.25;}</style></defs><rect class="cls-1" width="32" height="32"/><path class="cls-3" d="M23.30103,5H2v22h6v-1H3V6h19v8h8v12h-7v1h8v-14.29999l-7.69897-7.70001ZM23,13v-7l7,7h-7ZM12.79712,26h5.62207l1.67657,4h.70424l-1.69185-4.94263v-.05737h-.02405l-2.93384-7h-1.08423l-2.93384,7h-.02405v.05737l-2.07159,4.94263h1.08398l1.67657-4ZM15.60815,19.29346l2.39185,5.70654h-4.78369l2.39185-5.70654Z"/><path class="cls-2" d="M22,9H3v-3h19v3Z"/></svg>