<?xml version="1.0" encoding="utf-8"?>
<!-- Generator: Adobe Illustrator 23.0.6, SVG Export Plug-In . SVG Version: 6.00 Build 0)  -->
<svg version="1.1" id="Layer_1" xmlns="http://www.w3.org/2000/svg" xmlns:xlink="http://www.w3.org/1999/xlink" x="0px" y="0px"
	 viewBox="0 0 16 16" style="enable-background:new 0 0 16 16;" xml:space="preserve">
<path d="M15,1h-5V0h5V1z M10,16h5v-1h-5V16z M13,12.3V3.7l1.6,1.6l0.7-0.7l-2.8-2.8L9.7,4.6l0.7,0.7L12,3.7v8.5l-1.6-1.6l-0.7,0.7
	l2.8,2.8l2.8-2.8l-0.7-0.7L13,12.3z M7,2v2H5v12H4V4H3v12H2V4H0V2c0-1.1,0.9-2,2-2H5C6.1,0,7,0.9,7,2z M6,2c0-0.6-0.5-1-1-1H2
	C1.5,1,1,1.5,1,2v1h5V2z"/>
</svg>
