<svg xmlns="http://www.w3.org/2000/svg" viewBox="0 0 24 24"><path d="M3.5 2.05A1.45 1.45 0 104.95 3.5 1.45 1.45 0 003.5 2.05zm8 0a1.45 1.45 0 101.45 1.45 1.45 1.45 0 00-1.45-1.45zm8 0a1.45 1.45 0 101.45 1.45 1.45 1.45 0 00-1.45-1.45zm-16 8a1.45 1.45 0 101.45 1.45 1.45 1.45 0 00-1.45-1.45zm8 0a1.45 1.45 0 101.45 1.45 1.45 1.45 0 00-1.45-1.45zm8 0a1.45 1.45 0 101.45 1.45 1.45 1.45 0 00-1.45-1.45zm-16 8a1.45 1.45 0 101.45 1.45 1.45 1.45 0 00-1.45-1.45zm8 0a1.45 1.45 0 101.45 1.45 1.45 1.45 0 00-1.45-1.45zm8 0a1.45 1.45 0 101.45 1.45 1.45 1.45 0 00-1.45-1.45z"/></svg>