<svg xmlns="http://www.w3.org/2000/svg" viewBox="0 0 32 32"><path d="M6 4.05A1.95 1.95 0 1 0 7.95 6 1.95 1.95 0 0 0 6 4.05zM7 7H5V5h2zm-1 7.05A1.95 1.95 0 1 0 7.95 16 1.95 1.95 0 0 0 6 14.05zM7 17H5v-2h2zm9-2.95A1.95 1.95 0 1 0 17.95 16 1.95 1.95 0 0 0 16 14.05zM17 17h-2v-2h2zM6 24.05A1.95 1.95 0 1 0 7.95 26 1.95 1.95 0 0 0 6 24.05zM7 27H5v-2h2zM26 7.95A1.95 1.95 0 1 0 24.05 6 1.95 1.95 0 0 0 26 7.95zM25 5h2v2h-2zm-9 19.05A1.95 1.95 0 1 0 17.95 26 1.95 1.95 0 0 0 16 24.05zM17 27h-2v-2h2zm9-12.95A1.95 1.95 0 1 0 27.95 16 1.95 1.95 0 0 0 26 14.05zM27 17h-2v-2h2zM16 4.05A1.95 1.95 0 1 0 17.95 6 1.95 1.95 0 0 0 16 4.05zM17 7h-2V5h2zm9 17.05A1.95 1.95 0 1 0 27.95 26 1.95 1.95 0 0 0 26 24.05zM27 27h-2v-2h2z" id="icons"/></svg>