<svg xmlns="http://www.w3.org/2000/svg" viewBox="0 0 16 16"><path d="M1.5.05A1.45 1.45 0 102.95 1.5 1.45 1.45 0 001.5.05zM2 2H1V1h1zm-.5 4.05A1.45 1.45 0 102.95 7.5 1.45 1.45 0 001.5 6.05zM2 8H1V7h1zm5.5-1.95A1.45 1.45 0 108.95 7.5 1.45 1.45 0 007.5 6.05zM8 8H7V7h1zm-6.5 4.05a1.45 1.45 0 101.45 1.45 1.45 1.45 0 00-1.45-1.45zM2 14H1v-1h1zM13.5 2.95a1.45 1.45 0 10-1.45-1.45 1.45 1.45 0 001.45 1.45zM13 1h1v1h-1zM7.5 12.05a1.45 1.45 0 101.45 1.45 1.45 1.45 0 00-1.45-1.45zM8 14H7v-1h1zM7.5.05A1.45 1.45 0 108.95 1.5 1.45 1.45 0 007.5.05zM8 2H7V1h1zm5.5 4.05a1.45 1.45 0 101.45 1.45 1.45 1.45 0 00-1.45-1.45zM14 8h-1V7h1zm-.5 4.05a1.45 1.45 0 101.45 1.45 1.45 1.45 0 00-1.45-1.45zM14 14h-1v-1h1z"/></svg>