<svg xmlns="http://www.w3.org/2000/svg" viewBox="0 0 16 16"><path d="M1.5 0A1.5 1.5 0 1 0 3 1.5 1.5 1.5 0 0 0 1.5 0zM2 2H1V1h1zm5.5-2A1.5 1.5 0 1 0 9 1.5 1.5 1.5 0 0 0 7.5 0zM8 2H7V1h1zm5.5-2A1.5 1.5 0 1 0 15 1.5 1.5 1.5 0 0 0 13.5 0zm.5 2h-1V1h1zM1.5 6A1.5 1.5 0 1 0 3 7.5 1.5 1.5 0 0 0 1.5 6zM2 8H1V7h1zm5.5-2A1.5 1.5 0 1 0 9 7.5 1.5 1.5 0 0 0 7.5 6zM8 8H7V7h1zm5.5-2A1.5 1.5 0 1 0 15 7.5 1.5 1.5 0 0 0 13.5 6zm.5 2h-1V7h1zM1.5 12A1.5 1.5 0 1 0 3 13.5 1.5 1.5 0 0 0 1.5 12zm.5 2H1v-1h1zm5.5-2A1.5 1.5 0 1 0 9 13.5 1.5 1.5 0 0 0 7.5 12zm.5 2H7v-1h1zm5.5-2a1.5 1.5 0 1 0 1.5 1.5 1.5 1.5 0 0 0-1.5-1.5zm.5 2h-1v-1h1z"/></svg>