<svg xmlns="http://www.w3.org/2000/svg" viewBox="0 0 16 16"><path d="M2.95 1.5A1.45 1.45 0 111.5.05 1.45 1.45 0 012.95 1.5zM7.5.05A1.45 1.45 0 108.95 1.5 1.45 1.45 0 007.5.05zm6 2.9a1.45 1.45 0 10-1.45-1.45 1.45 1.45 0 001.45 1.45zm-12 3.1A1.45 1.45 0 102.95 7.5 1.45 1.45 0 001.5 6.05zm6 0A1.45 1.45 0 108.95 7.5 1.45 1.45 0 007.5 6.05zm6 0a1.45 1.45 0 101.45 1.45 1.45 1.45 0 00-1.45-1.45zm-12 6a1.45 1.45 0 101.45 1.45 1.45 1.45 0 00-1.45-1.45zm6 0a1.45 1.45 0 101.45 1.45 1.45 1.45 0 00-1.45-1.45zm6 0a1.45 1.45 0 101.45 1.45 1.45 1.45 0 00-1.45-1.45z"/></svg>