<svg xmlns="http://www.w3.org/2000/svg" viewBox="0 0 32 32"><path d="M17.95 16A1.95 1.95 0 1 1 16 14.05 1.95 1.95 0 0 1 17.95 16zM6 14.05A1.95 1.95 0 1 0 7.95 16 1.95 1.95 0 0 0 6 14.05zm0 10A1.95 1.95 0 1 0 7.95 26 1.95 1.95 0 0 0 6 24.05zm10 0A1.95 1.95 0 1 0 17.95 26 1.95 1.95 0 0 0 16 24.05zm10 0A1.95 1.95 0 1 0 27.95 26 1.95 1.95 0 0 0 26 24.05zm0-10A1.95 1.95 0 1 0 27.95 16 1.95 1.95 0 0 0 26 14.05zm0-6.1A1.95 1.95 0 1 0 24.05 6 1.95 1.95 0 0 0 26 7.95zM6 4.05A1.95 1.95 0 1 0 7.95 6 1.95 1.95 0 0 0 6 4.05zm10 0A1.95 1.95 0 1 0 17.95 6 1.95 1.95 0 0 0 16 4.05z"/></svg>