<svg xmlns="http://www.w3.org/2000/svg" viewBox="0 0 24 24"><path d="M4 2.05A1.95 1.95 0 1 0 5.95 4 1.95 1.95 0 0 0 4 2.05zM5 5H3V3h2zm7 13.05A1.95 1.95 0 1 0 13.95 20 1.95 1.95 0 0 0 12 18.05zM13 21h-2v-2h2zm-9-2.95A1.95 1.95 0 1 0 5.95 20 1.95 1.95 0 0 0 4 18.05zM5 21H3v-2h2zM4 10.05A1.95 1.95 0 1 0 5.95 12 1.95 1.95 0 0 0 4 10.05zM5 13H3v-2h2zm15-7.05A1.95 1.95 0 1 0 18.05 4 1.95 1.95 0 0 0 20 5.95zM19 3h2v2h-2zm-7 7.05A1.95 1.95 0 1 0 13.95 12 1.95 1.95 0 0 0 12 10.05zM13 13h-2v-2h2zM12 2.05A1.95 1.95 0 1 0 13.95 4 1.95 1.95 0 0 0 12 2.05zM13 5h-2V3h2zm7 5.05A1.95 1.95 0 1 0 21.95 12 1.95 1.95 0 0 0 20 10.05zM21 13h-2v-2h2zm-1 5.05A1.95 1.95 0 1 0 21.95 20 1.95 1.95 0 0 0 20 18.05zM21 21h-2v-2h2z" id="icons"/></svg>