<svg xmlns="http://www.w3.org/2000/svg" viewBox="0 0 24 24"><path d="M5.8 4A1.8 1.8 0 1 1 4 2.2 1.8 1.8 0 0 1 5.8 4zM20 5.8A1.8 1.8 0 1 0 18.2 4 1.8 1.8 0 0 0 20 5.8zm-8-3.6A1.8 1.8 0 1 0 13.8 4 1.8 1.8 0 0 0 12 2.2zm-8 16A1.8 1.8 0 1 0 5.8 20 1.8 1.8 0 0 0 4 18.2zm16 0a1.8 1.8 0 1 0 1.8 1.8 1.8 1.8 0 0 0-1.8-1.8zm-8 0a1.8 1.8 0 1 0 1.8 1.8 1.8 1.8 0 0 0-1.8-1.8zm-8-8A1.8 1.8 0 1 0 5.8 12 1.8 1.8 0 0 0 4 10.2zm16 0a1.8 1.8 0 1 0 1.8 1.8 1.8 1.8 0 0 0-1.8-1.8zm-8 0a1.8 1.8 0 1 0 1.8 1.8 1.8 1.8 0 0 0-1.8-1.8z" id="icons"/></svg>