<svg id="icons" xmlns="http://www.w3.org/2000/svg" viewBox="0 0 24 24"><path transform="rotate(90 4 4)" d="M2 2h4v4H2z"/><path transform="rotate(90 20 4)" d="M18 2h4v4h-4z"/><path transform="rotate(90 12 4)" d="M10 2h4v4h-4z"/><path transform="rotate(90 4 20)" d="M2 18h4v4H2z"/><path transform="rotate(90 20 20)" d="M18 18h4v4h-4z"/><path transform="rotate(90 12 20)" d="M10 18h4v4h-4z"/><path transform="rotate(90 4 12)" d="M2 10h4v4H2z"/><path transform="rotate(90 20 12)" d="M18 10h4v4h-4z"/><path transform="rotate(90 12 12)" d="M10 10h4v4h-4z"/></svg>