<?xml version="1.0" encoding="UTF-8"?><svg id="icons" xmlns="http://www.w3.org/2000/svg" viewBox="0 0 32 32"><defs><style>.cls-1{fill:none;}.cls-1,.cls-2{stroke-width:0px;}</style></defs><rect class="cls-1" width="32" height="32"/><path class="cls-2" d="M14.87616,26.81903c-6.43811-.10486-10.87616-1.79913-10.87616-3.32977v-7.98645c2.03448,1.58099,6.87335,2.49719,11.5,2.49719.83246,0,1.67139-.0282,2.5-.08203v-.91797c-.7901.05029-1.62372.07819-2.5.07819-7.125,0-11.5-1.95905-11.5-3.25299v-5.22882c2.03448,1.50452,6.87335,2.40363,11.5,2.40363s9.46552-.89911,11.5-2.40363v13.16034c.34875.03925.67963.12964,1,.24329V7c0-2.5332-6.44043-4-12.5-4S3.009,4.4668,3.009,7c0,.03284-.009,16.48926-.009,16.48926,0,2.62268,5.57733,4.12054,11.23474,4.31616l.64142-.98639ZM15.5,3.91901c7.125,0,11.5,1.87006,11.5,3.08099s-4.375,3.08997-11.5,3.08997-11.5-1.87903-11.5-3.08997,4.375-3.08099,11.5-3.08099ZM26,22v-7h-7v7h7ZM20,16h5v5h-5v-5ZM14,30h8.98828l-4.49316-6.91309-4.49512,6.91309ZM15.84375,29l2.65137-4.0791,2.65137,4.0791h-5.30273ZM26.5,23.09998c-1.87457,0-3.40002,1.52545-3.40002,3.40002s1.52545,3.39996,3.40002,3.39996,3.40002-1.52545,3.40002-3.39996-1.52545-3.40002-3.40002-3.40002ZM26.5,28.92853c-1.33954,0-2.42859-1.08905-2.42859-2.42853s1.08905-2.42859,2.42859-2.42859,2.42859,1.08905,2.42859,2.42859-1.08905,2.42853-2.42859,2.42853Z"/></svg>