<svg xmlns="http://www.w3.org/2000/svg" viewBox="0 0 24 24"><path d="M24 13.226a4.785 4.785 0 01-3.523 4.658L18.962 17h.633A3.694 3.694 0 0023 13.226a4.173 4.173 0 00-2.895-3.977l-.595-.193-.086-.62A6.164 6.164 0 0013.482 3a5.988 5.988 0 00-5.254 3.265l-.373.703-.769-.206a2.966 2.966 0 00-.763-.116 2.473 2.473 0 00-2.532 2.319l-.041.563-.503.255A4.026 4.026 0 001 13.37 3.614 3.614 0 004.405 17H6v1H4.405A4.606 4.606 0 010 13.37a5.04 5.04 0 012.795-4.479 3.47 3.47 0 013.528-3.244 3.952 3.952 0 011.02.15A6.971 6.971 0 0113.483 2a7.131 7.131 0 016.933 6.297A5.186 5.186 0 0124 13.226zm-6.764 4.78l.846.494-4.534 2.645L9.014 18.5l.846-.493-.734-.428-1.578.92 6 3.501 6-3.5-1.579-.92zm0-3l.846.494-4.534 2.645L9.014 15.5l.846-.493-.734-.428-1.578.92 6 3.501 6-3.5-1.579-.92zm2.312-2.506l-6 3.5-6-3.5 6-3.5zm-6 2.645l4.534-2.645-4.534-2.645L9.014 12.5z"/></svg>