<?xml version="1.0" encoding="UTF-8"?><svg id="icons" xmlns="http://www.w3.org/2000/svg" viewBox="0 0 24 24"><defs><style>.cls-1{fill:none;}.cls-1,.cls-2{stroke-width:0px;}</style></defs><rect class="cls-1" width="24" height="24"/><path class="cls-2" d="M9.6795,20c-4.18042-.26782-6.6795-1.56177-6.6795-2.4209v-6.24854c1.64313,1.09882,5.08203,1.65283,8.5,1.65283.16699,0,.33313-.00769.5-.01044v-.89197c-.16699.00269-.32892.00769-.5.00769-5.18848,0-8.5-1.3631-8.5-2.24103v-3.43622c1.64313,1.04572,5.08203,1.58856,8.5,1.58856s6.85687-.54285,8.5-1.58856v3.43622c0,.37506-.60889.82208-1.70593,1.21161.35822.11206.61688.4129.6759.79169.38605-.15924.74353-.3288,1.03003-.52039v4.52747c.34735,0,.67847.05841,1,.14197V5c0-1.96973-4.7793-3-9.5-3S2,3.03027,2,5v12.5791c0,1.81305,3.2641,2.90912,7.06061,3.23608l.6189-.81519ZM11.5,2.90997c5.5,0,8.5,1.41132,8.5,2.09003s-3,2.06299-8.5,2.06299S3,5.67871,3,5s3-2.09003,8.5-2.09003ZM18,17v-5h-5v5h5ZM14,13h3v3h-3v-3ZM8.83789,22.99316h7.31836l-3.65918-5.62891-3.65918,5.62891ZM10.65625,22.00684l1.84082-2.83203,1.84082,2.83203h-3.68164ZM20,17.09998c-1.59918,0-2.90002,1.30084-2.90002,2.90002s1.30084,2.89996,2.90002,2.89996,2.90002-1.30084,2.90002-2.89996-1.30084-2.90002-2.90002-2.90002ZM20,21.90039c-1.04785,0-1.90039-.85254-1.90039-1.90039s.85254-1.90039,1.90039-1.90039,1.90039.85254,1.90039,1.90039-.85254,1.90039-1.90039,1.90039Z"/></svg>