<?xml version="1.0" encoding="UTF-8"?><svg id="icons" xmlns="http://www.w3.org/2000/svg" viewBox="0 0 16 16"><defs><style>.cls-1{fill:none;}</style></defs><path d="M8.5,1.2C4.46831,1.2,1.2,4.46825,1.2,8.5s3.26831,7.3,7.3,7.3,7.3-3.26837,7.3-7.3S12.53169,1.2,8.5,1.2Zm0,13.59997c-3.47392,0-6.29997-2.82652-6.29997-6.29997,0-3.47392,2.82606-6.30003,6.29997-6.30003s6.29997,2.82611,6.29997,6.30003c0,3.47345-2.82606,6.29997-6.29997,6.29997Zm2.82617-4.90153l-2.80908,2.80859-2.80908-2.80859,.70703-.70703,1.58496,1.5675V4h1v6.79309l1.61914-1.60168,.70703,.70703Z"/><rect class="cls-1" width="16" height="16"/></svg>