<?xml version="1.0" encoding="UTF-8"?><svg id="icons" xmlns="http://www.w3.org/2000/svg" viewBox="0 0 24 24"><defs><style>.cls-1{fill:none;}</style></defs><path d="M12.5,2.2C6.81049,2.2,2.2,6.81043,2.2,12.5c0,5.69215,4.61049,10.3,10.3,10.3s10.3-4.60785,10.3-10.3c0-5.68957-4.61031-10.3-10.3-10.3Zm0,19.6c-5.12835,0-9.30006-4.17165-9.30006-9.3S7.37165,3.2,12.5,3.2s9.3,4.17165,9.3,9.3-4.17165,9.3-9.3,9.3Zm3.85352-6.69453l-3.85254,3.85156-3.85449-3.85352,.70703-.70703,2.64648,2.65106V7h1v10.0495l2.64648-2.65106,.70703,.70703Z"/><rect class="cls-1" width="24" height="24"/></svg>