<svg xmlns="http://www.w3.org/2000/svg" viewBox="0 0 32 32"><path d="M8.668 30.796a7.583 7.583 0 01-5.35-2.188 7.427 7.427 0 010-10.59L18.752 2.764a5.445 5.445 0 017.63 0 5.302 5.302 0 010 7.555L11.614 24.913a3.256 3.256 0 01-4.561 0 3.171 3.171 0 010-4.521L19.718 7.87l.562.568L7.615 20.96a2.372 2.372 0 000 3.385 2.453 2.453 0 003.437 0L25.819 9.75a4.502 4.502 0 000-6.419 4.642 4.642 0 00-6.505 0L3.881 18.587a6.628 6.628 0 000 9.453 6.832 6.832 0 009.573 0l13.33-13.179.563.569-13.33 13.178a7.586 7.586 0 01-5.349 2.188z"/></svg>