<svg id="icons" xmlns="http://www.w3.org/2000/svg" viewBox="0 0 16 16"><defs><style>.cls-1{fill-rule:evenodd;}.cls-2{fill:none;}</style></defs><path class="cls-1" d="M6.42822,0H.57178A.57165.57165,0,0,0,0,.57178V6.4292A.57148.57148,0,0,0,.57178,7H6.42822A.57148.57148,0,0,0,7,6.4292V.57178A.57165.57165,0,0,0,6.42822,0ZM6,6H1V1H6Zm6.5-6a3.5,3.5,0,1,0,3.491,3.5A3.5,3.5,0,0,0,12.5,0Zm0,6a2.5,2.5,0,1,1,2.491-2.5A2.50294,2.50294,0,0,1,12.5,6Zm-9,3A3.5,3.5,0,1,0,7,12.5,3.5,3.5,0,0,0,3.5,9Zm0,6A2.5,2.5,0,1,1,6,12.5,2.50294,2.50294,0,0,1,3.5,15Zm12.34644-3.35358L12.35358,8.15356a.5.5,0,0,0-.7071,0L8.15356,11.64642a.50009.50009,0,0,0,0,.70716l3.49292,3.49286a.5.5,0,0,0,.7071,0l3.49286-3.49286A.5.5,0,0,0,15.84644,11.64642ZM12,14.78613,9.21387,12,12,9.21387,14.78613,12Z"/><rect class="cls-2" width="15.991" height="16"/></svg>