<svg id="icons" xmlns="http://www.w3.org/2000/svg" viewBox="0 0 24 24"><defs><style>.cls-1{fill:none;}</style></defs><path d="M10.37183,2H2.62817A.62818.62818,0,0,0,2,2.62817v7.74366A.62818.62818,0,0,0,2.62817,11h7.74366A.62818.62818,0,0,0,11,10.37183V2.62817A.62818.62818,0,0,0,10.37183,2ZM10,10H3V3h7Zm12.65094,7.12488L17.85809,12.332a.5.5,0,0,0-.70715,0l-4.79285,4.79285a.5.5,0,0,0,0,.70715l4.79285,4.79285a.5.5,0,0,0,.70715,0L22.65094,17.832A.5.5,0,0,0,22.65094,17.12488Zm-5.14655,4.43957-4.08593-4.08593,4.08593-4.08594,4.08594,4.08594ZM6.5,13A4.5,4.5,0,1,0,11,17.5,4.49174,4.49174,0,0,0,6.5,13Zm0,8a3.5,3.5,0,1,1,3.491-3.5A3.49956,3.49956,0,0,1,6.5,21Zm11-19A4.5,4.5,0,1,0,22,6.5,4.49174,4.49174,0,0,0,17.5,2Zm0,8a3.5,3.5,0,1,1,3.491-3.5A3.49956,3.49956,0,0,1,17.5,10Z"/><rect class="cls-1" width="24" height="24"/></svg>