<svg id="icons" xmlns="http://www.w3.org/2000/svg" viewBox="0 0 16 16"><defs><style>.cls-1{fill-rule:evenodd;}.cls-2{fill:none;}</style></defs><path class="cls-1" d="M6.42822,0H.57178A.57165.57165,0,0,0,0,.57178V6.4292A.57148.57148,0,0,0,.57178,7H6.42822A.57148.57148,0,0,0,7,6.4292V.57178A.57165.57165,0,0,0,6.42822,0ZM6,6H1V1H6ZM12.49981.14569A3.35432,3.35432,0,1,0,15.8455,3.5,3.35433,3.35433,0,0,0,12.49981.14569Zm-.00007,5.70855A2.35426,2.35426,0,1,1,14.8455,3.5,2.357,2.357,0,0,1,12.49974,5.85424ZM3.5,9.15A3.35,3.35,0,1,0,6.85,12.5,3.35,3.35,0,0,0,3.5,9.15Zm0,5.7A2.35,2.35,0,1,1,5.85,12.5,2.35277,2.35277,0,0,1,3.5,14.85Zm12.20878-3.19092L12.34092,8.29122a.48211.48211,0,0,0-.68178,0L8.29122,11.65908a.48218.48218,0,0,0,0,.68184l3.36792,3.36786a.48211.48211,0,0,0,.68178,0l3.36786-3.36786A.48207.48207,0,0,0,15.70878,11.65908ZM12,14.72131,9.27869,12,12,9.27869,14.72131,12Z"/><rect class="cls-2" width="15.991" height="16"/></svg>