<svg id="icons" xmlns="http://www.w3.org/2000/svg" viewBox="0 0 16 16"><defs><style>.cls-1{fill-rule:evenodd;}.cls-2{fill:none;}</style></defs><path class="cls-1" d="M6.42822,0H.57178A.57165.57165,0,0,0,0,.57178V6.4292A.57148.57148,0,0,0,.57178,7H6.42822A.57148.57148,0,0,0,7,6.4292V.57178A.57165.57165,0,0,0,6.42822,0ZM6,6H1V1H6ZM12.49988.1a3.4,3.4,0,1,0,3.39563,3.4A3.4022,3.4022,0,0,0,12.49988.1Zm0,5.82857A2.42858,2.42858,0,1,1,14.92284,3.5,2.433,2.433,0,0,1,12.49988,5.92857ZM3.5,9.1a3.4,3.4,0,1,0,3.4,3.4A3.4,3.4,0,0,0,3.5,9.1Zm0,5.82857A2.42857,2.42857,0,1,1,5.92857,12.5,2.43143,2.43143,0,0,1,3.5,14.92857Zm12.257-3.27392L12.34535,8.243a.48837.48837,0,0,0-.69064,0L8.24305,11.65465a.48846.48846,0,0,0,0,.6907L11.65471,15.757a.48837.48837,0,0,0,.69064,0l3.4116-3.41162A.48835.48835,0,0,0,15.757,11.65465ZM12,14.72133,9.27869,12,12,9.27867,14.72131,12Z"/><rect class="cls-2" width="16" height="16"/></svg>