<svg xmlns="http://www.w3.org/2000/svg" viewBox="0 0 16 16"><path d="M9.167 8.782a6.652 6.652 0 00-.632-.031 4.52 4.52 0 00-3.6 1.483 1.393 1.393 0 01-1.05.544h-.008a1.428 1.428 0 01-1.084-.454 2.264 2.264 0 01-.19-.248c-.036.007-.068.016-.103.024H1.1v2.808l1.236-.025a5.38 5.38 0 003.348 1.021 7.557 7.557 0 001.279-.11 7.025 7.025 0 001.688-.516 7.626 7.626 0 00.516-4.496zM2.98 12.068v-1.001c2.349-.002 4.535-.051 5.598-1.348l.476.721c-1.355 1.653-3.502 1.631-6.074 1.628zm9.43-3.276a4.053 4.053 0 01-.324 4.655 3.426 3.426 0 01-2.395 1.505 1.225 1.225 0 01-.32-.04.4.4 0 01-.133-.709 7.969 7.969 0 00.754-6.316C7.1 7.36 5.038 8.463 4.143 9.624a.399.399 0 01-.3.155l-.017.001a.398.398 0 01-.294-.13 2.113 2.113 0 01-.442-1.61c.114-1.032 1.597-3.055 4.504-3.055a3.173 3.173 0 012.475 1.172 41.8 41.8 0 001.922 2.114 2.97 2.97 0 01.417.521zm.67-.78a4.428 4.428 0 00-.377-.445 41.635 41.635 0 01-1.88-2.063 4.527 4.527 0 00-.951-.846 9.788 9.788 0 00.237-1.952c.06-1.224.121-2.488 1.682-2.64a1.633 1.633 0 011.524.923c.9 1.5.95 4.551-.235 7.022z"/></svg>