<svg xmlns="http://www.w3.org/2000/svg" viewBox="0 0 24 24"><path d="M13 13v11h11V13zm10 6.308l-4.544-3.082C17.335 17.28 16 18.8 16 19.48c0 .733 1.54 2.451 2.704 3.519h-1.441c-.959-.97-2.263-2.481-2.263-3.518 0-1.17 1.66-2.925 2.607-3.831L15.174 14h1.78L23 18.1zM13 0v11h11V0zm5.642 5.273c-.046-.012-.085-.024-.126-.033a3.572 3.572 0 00-.08.198c-.15.391-.427 1.113-1.24 1.113h-1.039a1.681 1.681 0 00.181.641.285.285 0 01.041-.002.77.77 0 01.583.352 1.765 1.765 0 01.01 1.481 3.521 3.521 0 00-.137.665 1.077 1.077 0 01.702.312h-1.656a2.622 2.622 0 01.124-1.236 3.344 3.344 0 00.13-.623l-.021-.004c-.816-.085-.98-1.333-1.006-2.069l-.018-.517h2.105c.086 0 .144-.047.307-.47.131-.34.328-.853.886-.853a1.724 1.724 0 01.534.087.814.814 0 00.258.045c.067 0 .073 0 .203-.173a1.812 1.812 0 01.593-.55c.202-.11.223-.334.22-.788a1.327 1.327 0 01.295-1.048.87.87 0 01.603-.223c.036 0 .263.01.263.01l.016.014.003-.032a2.845 2.845 0 01.11-.445c-.005-.045.004-.082.002-.125h.976a3.94 3.94 0 000 .13.925.925 0 01-.031.315 1.828 1.828 0 00-.073.301.899.899 0 01-1.037.841c-.06 0-.123-.002-.191-.007.063.008.064.193.065.264a1.678 1.678 0 01-.745 1.672.887.887 0 00-.268.267 1.175 1.175 0 01-1.004.577 1.738 1.738 0 01-.538-.087zM23 6.455a3.753 3.753 0 00-.387-.024c-.032 0-.061 0-.088.002-.01.106-.016.234-.022.348-.026.567-.05 1.092-.514 1.236a4.752 4.752 0 00-1.134.619l.017.09A4.69 4.69 0 0020.913 10h-1.016a6.07 6.07 0 01-.021-1.352c.006-.085.01-.136.01-.167 0-.618 1.032-1.117 1.647-1.359-.044-.042-.035-.245-.03-.377a3.26 3.26 0 01.095-.78c.114-.358.47-.54 1.06-.54.104 0 .223.012.342.023zM0 0v11h11V0zm10 4.977a8.738 8.738 0 00-3.04 1.594 2.322 2.322 0 00.703 1.695A3.837 3.837 0 0010 9.067V10h-.715a4.31 4.31 0 01-2.293-.992 3.096 3.096 0 01-.906-1.556A5.332 5.332 0 004.99 10H3.97a6.219 6.219 0 011.966-3.81 5.3 5.3 0 00-.986-2.997A5.358 5.358 0 011 5.987V4.978a4.74 4.74 0 003.255-2.607A7.275 7.275 0 002.325 1H3.9a7.059 7.059 0 012.984 4.432A11.026 11.026 0 0110 3.954zM0 13v11h11V13zm10 10H1.825l-.035-.213.191-.241a3.094 3.094 0 012.2-.387 3.621 3.621 0 01.652-.517 2.045 2.045 0 00.543-.437 1.198 1.198 0 01-.078-1.394 3.474 3.474 0 012.101-1.81c1.286-.064 1.441-.363 1.676-.816a2.49 2.49 0 01.925-1.05z"/></svg>