<svg xmlns="http://www.w3.org/2000/svg" viewBox="0 0 32 32"><path d="M1 17v14h14V17zm13 13H3.558c-.004-.02-.01-.031-.014-.054l-.032-.217.244-.31a3.867 3.867 0 012.03-.58 1.824 1.824 0 01.473.055l.104.01a1.755 1.755 0 00.203.022 4.625 4.625 0 01.834-.66 2.612 2.612 0 00.693-.559 1.53 1.53 0 01-.099-1.78 4.438 4.438 0 012.684-2.313c1.642-.082 1.84-.464 2.14-1.042A3.18 3.18 0 0114 21.23zm3-13v14h14V17zm13 7.79l-5.74-3.648C22.93 21.994 21 23.564 21 24.5c0 .99 2.119 3.76 3.691 5.5H23.36C22.174 28.62 20 25.903 20 24.5c0-1.444 2.032-3.06 3.334-3.946L19.318 18h1.862L30 23.606zM1 1v14h14V1zm13 6.002a6.83 6.83 0 00-4.845 2.886 2.842 2.842 0 00.828 1.252 5.287 5.287 0 003.37.983c.252 0 .464-.012.647-.025V13.1a9.432 9.432 0 01-.652.024A6.232 6.232 0 019.335 11.9a3.777 3.777 0 01-.82-1.038A13.451 13.451 0 007.239 14H6.207a13.544 13.544 0 011.869-4.28 5.576 5.576 0 01-.146-1.29 7.088 7.088 0 00-1.187-4.216A5.872 5.872 0 012 8.013V7.007c3-.322 3.948-3.463 4-3.648A5.545 5.545 0 003.45 2h2.408c1.456.978 3.073 2.863 3.073 6.436 0 .07.012.13.014.199A7.996 7.996 0 0114 6.017zM17 1v14h14V1zm13 6.89a4.917 4.917 0 00-.611-.045c-.683 0-1.094.196-1.219.586a4.166 4.166 0 00-.113.984 2.151 2.151 0 00.009.535c-.615.243-2.046.886-2.046 1.612 0 .037-.004.093-.014.221A5.794 5.794 0 0026.154 14h-3.12a.956.956 0 00-.995-.79c-.035-.002-.078-.006-.114-.007a3.225 3.225 0 01.168-.994 2.14 2.14 0 00.008-1.756.979.979 0 00-.774-.425A2.355 2.355 0 0121.042 9H22.5c.937 0 1.253-.824 1.449-1.335.04-.106.093-.243.124-.33a1.335 1.335 0 01.293.063A2.093 2.093 0 0025 7.5a1.366 1.366 0 001.16-.668 1.18 1.18 0 01.382-.379 2.006 2.006 0 00.869-1.991c0-.11-.003-.444.053-.464.091.007.176.01.254.01a.994.994 0 001.16-.953 2.55 2.55 0 01.096-.397 1.009 1.009 0 00.033-.353A3.32 3.32 0 0129.013 2H30z"/></svg>