<svg xmlns="http://www.w3.org/2000/svg" viewBox="0 0 32 32"><path d="M19.5 2A2.5 2.5 0 1022 4.499 2.498 2.498 0 0019.5 2zm.001 4A1.5 1.5 0 1121 4.498 1.496 1.496 0 0119.501 6zM25 19a6 6 0 106 6 6 6 0 00-6-6zm0 11.1a5.1 5.1 0 115.1-5.1 5.105 5.105 0 01-5.1 5.1zM7 19a6 6 0 106 6 6 6 0 00-6-6zm0 11.1a5.1 5.1 0 115.1-5.1A5.105 5.105 0 017 30.1z"/><path d="M25 14a1 1 0 00-1-1h-3.498l-2.434-3.27a1.63 1.63 0 00-.483-.553 1 1 0 00-.106-.08l-1.108-.766a1.685 1.685 0 00-2.194.595l-3.96 6.327a1.23 1.23 0 00.451 1.732l4.9 2.683-.41 4.753a1.545 1.545 0 001.021 1.687c.73.104 1.23-.25 1.452-1.211.016-.066.757-4.98.935-6.163a.366.366 0 00-.188-.377l-3.753-2.024 2.713-3.927a.14.14 0 01.227-.004l1.823 2.45a.366.366 0 00.294.148H24a1 1 0 001-1zm-.8 0a.2.2 0 01-.2.2h-4.1l-1.93-2.592a.657.657 0 00-1.067.02l-3.444 4.986 4.256 2.294c-.442 2.469-.828 5.638-.866 5.822-.138.596-.324.596-.434.596a.89.89 0 01-.122-.01.888.888 0 01-.34-.81l.477-5.278-5.33-2.92a.481.481 0 01-.177-.676l3.931-6.282a.962.962 0 01.783-.417.609.609 0 01.319.082l1.074.744.088.068a.845.845 0 01.247.283l.028.051L20.1 13.8H24a.2.2 0 01.2.2z"/></svg>