<svg xmlns="http://www.w3.org/2000/svg" viewBox="0 0 16 16"><path d="M10.5 1.1a1.4 1.4 0 101.4 1.4 1.4 1.4 0 00-1.4-1.4zM11 3h-1V2h1zM8.53 13.676c-.305 0-.43-.176-.43-.61V9.538a.1.1 0 00-.052-.088L5.195 7.912a.599.599 0 01-.327-.42A1.214 1.214 0 015.2 6.68l2.337-2.043a1.877 1.877 0 011.067-.475 1.082 1.082 0 01.887.57l.724 2.298a.1.1 0 00.096.07H12c.32 0 .665.14.677.399 0 .168-.07.398-.674.398L9.755 7.9 8.719 5.12a.101.101 0 00-.069-.061.09.09 0 00-.025-.004.102.102 0 00-.064.024L6.17 7.095a.1.1 0 00-.035.083.101.101 0 00.045.078l2.453 1.6a.684.684 0 01.258.493c.002.033.01.33.01 3.717 0 .468-.088.61-.372.61z"/><path d="M4 9.2A2.8 2.8 0 106.8 12 2.8 2.8 0 004 9.2zm0 4.9A2.1 2.1 0 116.1 12 2.103 2.103 0 014 14.1zm9-4.9a2.8 2.8 0 102.8 2.8A2.8 2.8 0 0013 9.2zm0 4.9a2.1 2.1 0 112.1-2.1 2.103 2.103 0 01-2.1 2.1z"/></svg>