<?xml version="1.0" encoding="UTF-8"?><svg id="icons" xmlns="http://www.w3.org/2000/svg" viewBox="0 0 24 24"><defs><style>.cls-1{fill:none;}.cls-1,.cls-2{stroke-width:0px;}</style></defs><path class="cls-2" d="M13.75,13h-1.5c-.68945,0-1.25.56055-1.25,1.25v5.5c0,.68945.56055,1.25,1.25,1.25h1.5c.68945,0,1.25-.56055,1.25-1.25v-5.5c0-.68945-.56055-1.25-1.25-1.25ZM14,19.75c0,.1377-.1123.25-.25.25h-1.5c-.1377,0-.25-.1123-.25-.25v-5.5c0-.1377.1123-.25.25-.25h1.5c.1377,0,.25.1123.25.25v5.5ZM6,20h1v1h-3v-1h1v-6h-1v-1h2v7ZM21,20h1v1h-3v-1h1v-6h-1v-1h2v7ZM20.75,3h-1.5c-.68945,0-1.25.56055-1.25,1.25v5.5c0,.68945.56055,1.25,1.25,1.25h1.5c.68945,0,1.25-.56055,1.25-1.25v-5.5c0-.68945-.56055-1.25-1.25-1.25ZM21,9.75c0,.1377-.1123.25-.25.25h-1.5c-.1377,0-.25-.1123-.25-.25v-5.5c0-.1377.1123-.25.25-.25h1.5c.1377,0,.25.1123.25.25v5.5ZM5.75,3h-1.5c-.68945,0-1.25.56055-1.25,1.25v5.5c0,.68945.56055,1.25,1.25,1.25h1.5c.68945,0,1.25-.56055,1.25-1.25v-5.5c0-.68945-.56055-1.25-1.25-1.25ZM6,9.75c0,.1377-.1123.25-.25.25h-1.5c-.1377,0-.25-.1123-.25-.25v-5.5c0-.1377.1123-.25.25-.25h1.5c.1377,0,.25.1123.25.25v5.5ZM14,11h-3v-1h1v-6h-1v-1h2v7h1v1Z"/><rect class="cls-1" width="24" height="24"/></svg>