<?xml version="1.0" encoding="UTF-8"?><svg id="icons" xmlns="http://www.w3.org/2000/svg" viewBox="0 0 32 32"><defs><style>.cls-1{fill:none;}.cls-1,.cls-2{stroke-width:0px;}</style></defs><path class="cls-2" d="M19,14h-5v-1h2V4h-2v-1h3v10h2v1ZM20,19.5v8c0,.82715-.67285,1.5-1.5,1.5h-3c-.82715,0-1.5-.67285-1.5-1.5v-8c0-.82715.67285-1.5,1.5-1.5h3c.82715,0,1.5.67285,1.5,1.5ZM19,19.5c0-.27539-.22412-.5-.5-.5h-3c-.27588,0-.5.22461-.5.5v8c0,.27539.22412.5.5.5h3c.27588,0,.5-.22461.5-.5v-8ZM9,4.5v8c0,.82715-.67285,1.5-1.5,1.5h-3c-.82715,0-1.5-.67285-1.5-1.5V4.5c0-.82715.67285-1.5,1.5-1.5h3c.82715,0,1.5.67285,1.5,1.5ZM8,4.5c0-.27539-.22412-.5-.5-.5h-3c-.27588,0-.5.22461-.5.5v8c0,.27539.22412.5.5.5h3c.27588,0,.5-.22461.5-.5V4.5ZM30,4.5v8c0,.82715-.67285,1.5-1.5,1.5h-3c-.82715,0-1.5-.67285-1.5-1.5V4.5c0-.82715.67285-1.5,1.5-1.5h3c.82715,0,1.5.67285,1.5,1.5ZM29,4.5c0-.27539-.22412-.5-.5-.5h-3c-.27588,0-.5.22461-.5.5v8c0,.27539.22412.5.5.5h3c.27588,0,.5-.22461.5-.5V4.5ZM7,18h-3v1h2v9h-2v1h5v-1h-2v-10ZM28,18h-3v1h2v9h-2v1h5v-1h-2v-10Z"/><rect class="cls-1" width="32" height="32"/></svg>