<svg xmlns="http://www.w3.org/2000/svg" viewBox="0 0 32 32"><path d="M22.088 16.43a6.826 6.826 0 00-2.32-.867v-.223a4.02 4.02 0 001.966-1.108 2.872 2.872 0 001.084-2.36 3.42 3.42 0 00-2.672-3.376 11 11 0 00-3.562-.492H9.549v.61a3.715 3.715 0 011.441.279 1.453 1.453 0 01.668 1.408v11.625a1.245 1.245 0 01-.715 1.285 3.46 3.46 0 01-1.394.258v.465h7.722c2.04 0 3.672-.124 4.899-.948a3.798 3.798 0 00-.082-6.556zM15.49 9.89a1.156 1.156 0 01.293-.908 1.629 1.629 0 011.043-.252 1.967 1.967 0 011.916.938 4.874 4.874 0 01.498 2.309 3.493 3.493 0 01-.761 2.578 4.451 4.451 0 01-2.989.726zm3.697 12.2c-.457.617-1.252.637-2.384.637-.555 0-.93.044-1.125-.3a1.935 1.935 0 01-.188-.925v-5.494a5.862 5.862 0 012.871.48q1.512.844 1.512 3.399a3.07 3.07 0 01-.686 2.203z"/></svg>