<svg xmlns="http://www.w3.org/2000/svg" viewBox="0 0 24 24"><path d="M16.566 12.322a5.119 5.119 0 00-1.74-.65v-.167a3.015 3.015 0 001.475-.83 2.154 2.154 0 00.813-1.772 2.565 2.565 0 00-2.004-2.53 8.25 8.25 0 00-2.672-.37H7.162v.457a2.786 2.786 0 011.08.21 1.09 1.09 0 01.502 1.056v8.718a.934.934 0 01-.536.964 2.593 2.593 0 01-1.046.194v.348h5.792a6.537 6.537 0 003.673-.71 2.848 2.848 0 00-.061-4.918zm-4.948-4.904a.867.867 0 01.22-.681 1.221 1.221 0 01.782-.19 1.475 1.475 0 011.437.704 3.655 3.655 0 01.373 1.731 2.62 2.62 0 01-.571 1.934 3.338 3.338 0 01-2.241.545zm2.773 9.15c-.343.462-.94.477-1.789.477-.416 0-.697.034-.844-.224a1.45 1.45 0 01-.14-.695v-4.12a4.397 4.397 0 012.153.36 2.658 2.658 0 011.134 2.549 2.302 2.302 0 01-.514 1.652z"/></svg>