<svg id="icons" xmlns="http://www.w3.org/2000/svg" viewBox="0 0 32 32"><defs><style>.cls-1{fill:none;}</style></defs><path d="M28.7998,16.12305A7.87633,7.87633,0,0,1,20.94189,24H14.957l2.64649,2.64648-.707.707L13.043,23.5l3.85351-3.85352.707.707L14.957,23h5.98486a6.87535,6.87535,0,0,0,6.85791-6.877,7.19241,7.19241,0,0,0-2.71435-5.67676l.70984-.70984A8.18844,8.18844,0,0,1,28.7998,16.12305ZM27.27148,4.01758,4.00879,27.28027l.707.707L27.97852,4.72461ZM6.19885,22.2616l.70966-.70966A7.19226,7.19226,0,0,1,4.2002,15.877,6.87327,6.87327,0,0,1,11.0542,9H17.043l-2.64649,2.64648.707.707L18.957,8.5,15.10352,4.64648l-.707.707L17.043,8H11.0542a7.87457,7.87457,0,0,0-7.854,7.877A8.18839,8.18839,0,0,0,6.19885,22.2616Z"/><rect class="cls-1" width="32" height="32"/></svg>