<svg id="icons" xmlns="http://www.w3.org/2000/svg" viewBox="0 0 24 24"><defs><style>.cls-1{fill:none;}</style></defs><path d="M21.7998,12.51318A6.376,6.376,0,0,1,15.40527,19H11.96008l1.64051,1.64014-.707.707L10.0459,18.5l2.84765-2.84717.707.707L11.96008,18h3.44519a5.39018,5.39018,0,0,0,5.39453-5.5,6.00985,6.00985,0,0,0-1.64355-4.12634l.70667-.70667A6.94176,6.94176,0,0,1,21.7998,12.51318Zm-1.541-9.48486L2.05908,21.22852l.707.707L20.96582,3.73535ZM4.35162,16.10724A6.32125,6.32125,0,0,1,3.2002,12.5,5.386,5.386,0,0,1,8.58643,7h3.45349L10.39941,8.64014l.707.707L13.9541,6.5,11.10645,3.65283l-.707.707L12.03992,6H8.58643A6.37175,6.37175,0,0,0,2.2002,12.48535a7.17862,7.17862,0,0,0,1.44146,4.33191Z"/><rect class="cls-1" width="24" height="24"/></svg>