<svg xmlns="http://www.w3.org/2000/svg" viewBox="0 0 32 32"><path d="M21 10.5a7.5 7.5 0 107.5 7.5 7.5 7.5 0 00-7.5-7.5zm0 14.1a6.6 6.6 0 116.6-6.6 6.607 6.607 0 01-6.6 6.6zM10 12.5v.5H3v-1h7v.5zM29.5 28h-27A2.503 2.503 0 010 25.5v-14A2.503 2.503 0 012.5 9H4V8h6v1h4a1.001 1.001 0 001-1 2.002 2.002 0 012-2h8a2.002 2.002 0 012 2 1.001 1.001 0 001 1h1.5a2.503 2.503 0 012.5 2.5v14a2.503 2.503 0 01-2.5 2.5zm-27-18A1.502 1.502 0 001 11.5v14A1.502 1.502 0 002.5 27h27a1.502 1.502 0 001.5-1.5v-14a1.502 1.502 0 00-1.5-1.5H28a2.002 2.002 0 01-2-2 1.001 1.001 0 00-1-1h-8a1.001 1.001 0 00-1 1 2.002 2.002 0 01-2 2H9V9H5v1zm18.5.5a7.5 7.5 0 107.5 7.5 7.5 7.5 0 00-7.5-7.5zm0 14.1a6.6 6.6 0 116.6-6.6 6.607 6.607 0 01-6.6 6.6zM10 12.5v.5H3v-1h7v.5zM29.5 28h-27A2.503 2.503 0 010 25.5v-14A2.503 2.503 0 012.5 9H4V8h6v1h4a1.001 1.001 0 001-1 2.002 2.002 0 012-2h8a2.002 2.002 0 012 2 1.001 1.001 0 001 1h1.5a2.503 2.503 0 012.5 2.5v14a2.503 2.503 0 01-2.5 2.5zm-27-18A1.502 1.502 0 001 11.5v14A1.502 1.502 0 002.5 27h27a1.502 1.502 0 001.5-1.5v-14a1.502 1.502 0 00-1.5-1.5H28a2.002 2.002 0 01-2-2 1.001 1.001 0 00-1-1h-8a1.001 1.001 0 00-1 1 2.002 2.002 0 01-2 2H9V9H5v1z"/></svg>