<svg xmlns="http://www.w3.org/2000/svg" viewBox="0 0 24 24"><path d="M15.5 7a5.5 5.5 0 105.5 5.5A5.506 5.506 0 0015.5 7zm0 10.1a4.6 4.6 0 114.6-4.6 4.605 4.605 0 01-4.6 4.6zM8 8H3V7h5zm14 12H2a2.002 2.002 0 01-2-2V7a2.002 2.002 0 012-2h1V4h5v1h2.5a.5.5 0 00.5-.5A1.502 1.502 0 0112.5 3h6A1.502 1.502 0 0120 4.5a.5.5 0 00.5.5H22a2.002 2.002 0 012 2v11a2.002 2.002 0 01-2 2zM2 6a1.001 1.001 0 00-1 1v11a1.001 1.001 0 001 1h20a1.001 1.001 0 001-1V7a1.001 1.001 0 00-1-1h-1.5A1.502 1.502 0 0119 4.5a.5.5 0 00-.5-.5h-6a.5.5 0 00-.5.5A1.502 1.502 0 0110.5 6H7V5H4v1zm13.5 1a5.5 5.5 0 105.5 5.5A5.506 5.506 0 0015.5 7zm0 10.1a4.6 4.6 0 114.6-4.6 4.605 4.605 0 01-4.6 4.6zM8 8H3V7h5zm14 12H2a2.002 2.002 0 01-2-2V7a2.002 2.002 0 012-2h1V4h5v1h2.5a.5.5 0 00.5-.5A1.502 1.502 0 0112.5 3h6A1.502 1.502 0 0120 4.5a.5.5 0 00.5.5H22a2.002 2.002 0 012 2v11a2.002 2.002 0 01-2 2zM2 6a1.001 1.001 0 00-1 1v11a1.001 1.001 0 001 1h20a1.001 1.001 0 001-1V7a1.001 1.001 0 00-1-1h-1.5A1.502 1.502 0 0119 4.5a.5.5 0 00-.5-.5h-6a.5.5 0 00-.5.5A1.502 1.502 0 0110.5 6H7V5H4v1z"/></svg>