<svg id="icons" xmlns="http://www.w3.org/2000/svg" viewBox="0 0 24 24"><path opacity="0.5" d="M15.64062,7.147c.80713.335,1.57227.69434,2.31153,1.042l.89062.41553c1.07874.499,2.13263,1.06043,3.15723,1.65369V2H15V6.94238a.70566.70566,0,0,1,.26465.05176Z"/><path opacity="0.2" d="M22,13.24677V22H15V16.19263l.02441.00659h.01026a6.31554,6.31554,0,0,0,2.9458-.76074,6.34379,6.34379,0,0,0,.77051-.5503c.1333-.10547.26709-.21142.40771-.30664a3.20071,3.20071,0,0,1,.62647-.29345,5.92776,5.92776,0,0,0,.55859-.23877c.43457-.2461.88281-.47705,1.31934-.6792C21.77606,13.3208,21.88794,13.28662,22,13.24677ZM7.167,8.23541c.58093.26807,1.19409.5755,1.833.906V4H4V6.77368C4.67584,7.07507,7.167,8.23541,7.167,8.23541ZM10,20v1H4v1h7V13H10ZM9,13.73016a8.30772,8.30772,0,0,0-.94818.33979c-.61231.2832-1.23541.60449-1.83991.94732-.26849.13178-.499.22168-.73053.31049a4.58153,4.58153,0,0,0-.916.4317c-.196.13251-.38092.27942-.56537.4256V20H9Z"/><path opacity="0.75" d="M6.873,8.87109C5.92084,8.43115,4.9632,7.98328,4,7.54865v7.759c.05927-.0423.11426-.0885.1748-.12934a12.47969,12.47969,0,0,1,1.69141-.76947q.94043-.53466,1.9043-.97949A9.43015,9.43015,0,0,1,9,13V9.92981C8.30164,9.5636,7.597,9.20526,6.873,8.87109Z"/><path d="M10,2H2V21H1V1h9Zm4-1h9V23H14V15.2276a3.11582,3.11582,0,0,0,1,.06213,5.41525,5.41525,0,0,0,2.52637-.63885,5.23311,5.23311,0,0,0,.6333-.45459c.16308-.12891.32226-.25488.4917-.36963a3.92222,3.92222,0,0,1,.80566-.38623c.15088-.05762.30176-.11572.44971-.187.44922-.25635.91553-.49512,1.38769-.71436A6.57338,6.57338,0,0,1,22,12.28015v-.97729a37.65484,37.65484,0,0,0-3.54-1.87268l-.86328-.4043c-.76172-.35791-1.50879-.709-2.26709-1.02393A3.10285,3.10285,0,0,0,15,7.8678a3.33013,3.33013,0,0,0-.553-.14958A1.56532,1.56532,0,0,0,14,7.7724Zm8,12.24677c-.11206.03985-.22394.074-.33691.12335-.43653.20215-.88477.4331-1.31934.6792a5.92776,5.92776,0,0,1-.55859.23877,3.20071,3.20071,0,0,0-.62647.29345c-.14062.09522-.27441.20117-.40771.30664a6.34379,6.34379,0,0,1-.77051.5503,6.31554,6.31554,0,0,1-2.9458.76074h-.01026L15,16.19263V22h7ZM15,6.94238a.70566.70566,0,0,1,.26465.05176l.376.15283c.80713.335,1.57227.69434,2.31153,1.042l.89062.41553c1.07874.499,2.13263,1.06043,3.15723,1.65369V2H15ZM11,13h1V23H3V3h9v7H11V4H10v6.00018a1.00041,1.00041,0,0,0-.999.99884l-.001,1V9.92981c-.69836-.36621-1.403-.72455-2.127-1.05872C5.92084,8.43115,4.9632,7.98328,4,7.54865v7.759c.05927-.0423.11426-.0885.1748-.12934a12.47969,12.47969,0,0,1,1.69141-.76947q.94043-.53466,1.9043-.97949A9.43015,9.43015,0,0,1,9,13V11.999A1.0011,1.0011,0,0,0,10,13v8H4v1h7ZM4,6.77368c.67584.30139,3.167,1.46173,3.167,1.46173.58093.26807,1.19409.5755,1.833.906V4H4ZM4,20H9V13.73016a8.30772,8.30772,0,0,0-.94818.33979c-.61231.2832-1.23541.60449-1.83991.94732-.26849.13178-.499.22168-.73053.31049a4.58153,4.58153,0,0,0-.916.4317c-.196.13251-.38092.27942-.56537.4256Zm10.2832-5.71729L17.06641,11.5,14.2832,8.71729l-.56543.56542L15.43469,11h-5.4342v1h5.4342l-1.71692,1.71729Z"/><path fill="none" d="M0 0h24v24H0z"/><path fill="none" d="M0 0h24v24H0z"/></svg>