<svg id="icons" xmlns="http://www.w3.org/2000/svg" viewBox="0 0 16 16"><polygon opacity="0.5" points="15 1 11 1 11 4.191 15 6.191 15 1"/><path opacity="0.2" d="M11,11.4502V15h4V10.38379ZM6,9v5H3v1H7V10A.99974.99974,0,0,1,6,9ZM5,3H3V4.69141l2,1ZM3,13H5V10.65039l-2,.5332Z"/><polygon opacity="0.75" points="3 5.809 3 10.149 5 9.616 5 6.809 3 5.809"/><path d="M5,1H1V14H0V0H6V1ZM16,0V16H10V11.4502a1.00006,1.00006,0,0,0,.68945-.2754l.98712-.93914L15,9.34961v-2.041l-4-2v.81208l-.31055-.29547A1.00006,1.00006,0,0,0,10,5.5498V0ZM15,10.38379,11,11.4502V15h4ZM15,1H11V4.19141l4,2ZM7,10H8v6H2V2H8V7H7V3H6V14H3v1H7ZM3,4.69141l2,1V3H3Zm0,5.458,2-.5332V6.80859l-2-1ZM3,13H5V10.65039l-2,.5332ZM7,9h3v1.45L12.05,8.5,10,6.55V8H7Z"/><path fill="none" d="M0 0h16v16H0z"/><path fill="none" d="M0 0h16v16H0z"/></svg>