<svg id="icons" xmlns="http://www.w3.org/2000/svg" viewBox="0 0 24 24"><path opacity=".2" d="M23 23h-8v-6.807l.024.006h.01a6.316 6.316 0 0 0 2.946-.76 6.344 6.344 0 0 0 .771-.55c.133-.106.267-.212.408-.307a3.2 3.2 0 0 1 .626-.294 5.928 5.928 0 0 0 .559-.239c.434-.246.883-.477 1.32-.679a8.22 8.22 0 0 1 1.22-.394l.116-.03zm-13-2H3v2h8V13h-1zM3 6.334c.25.105.491.216.737.324.768.338 1.52.683 2.244 1.024l1.186.553c.58.268 1.194.576 1.833.906V3H3zM3 20h6v-6.27a8.308 8.308 0 0 0-.948.34c-.612.283-1.236.604-1.84.947a8.357 8.357 0 0 1-.73.31 4.582 4.582 0 0 0-.917.432c-.21.143-.41.301-.608.458a8.538 8.538 0 0 1-.957.685z"/><path opacity=".5" d="M15 1h8v9.87c-.135-.097-.269-.194-.406-.276a38.984 38.984 0 0 0-3.751-1.99l-.89-.415a54.35 54.35 0 0 0-2.312-1.042l-.376-.153A.706.706 0 0 0 15 6.942z"/><path d="M10 0v1H1v20H0V0zm2 16.089V24H2V2h10v4.823l-.776.68a.988.988 0 0 0-.224.353V3h-1v7H9l-.35-.244a43.266 43.266 0 0 0-1.777-.885C5.591 8.28 4.305 7.66 3 7.1v8.949c.395-.283.768-.595 1.175-.87a12.48 12.48 0 0 1 1.691-.77q.94-.534 1.905-.979C8.19 13.245 9 13 9 13h1v8H3v2h8v-7.945a.988.988 0 0 0 .224.354zM3 6.334c1.035.436 2.026.898 2.981 1.348l1.186.553c.58.268 1.194.576 1.833.906V3H3zM3 20h6v-6.27a8.308 8.308 0 0 0-.948.34c-.612.283-1.236.604-1.84.947a8.357 8.357 0 0 1-.73.31 4.582 4.582 0 0 0-.917.432c-.21.143-.41.301-.608.458a8.538 8.538 0 0 1-.957.685zM24 0v24H14v-8.238l1-1v.528a5.369 5.369 0 0 0 2.526-.64 5.233 5.233 0 0 0 .634-.454c.163-.129.322-.255.491-.37a3.922 3.922 0 0 1 .806-.386c.15-.057.302-.115.45-.187.449-.256.915-.495 1.387-.714a9.01 9.01 0 0 1 1.36-.442l.294-.08.052.008v-.09a.393.393 0 0 1-.123-.044 7.456 7.456 0 0 0-.753-.518A37.66 37.66 0 0 0 18.46 9.43l-.863-.404c-.762-.358-1.51-.71-2.267-1.024L15 7.868v.282l-1-1V0zm-1 10.87V1h-8v5.942a.706.706 0 0 1 .265.052l.376.153c.807.335 1.572.694 2.311 1.042l.89.415a38.984 38.984 0 0 1 3.752 1.99c.137.082.271.18.406.276zM23 23V12.945l-.115.031a8.22 8.22 0 0 0-1.222.394c-.436.202-.885.433-1.32.68a5.928 5.928 0 0 1-.558.238 3.2 3.2 0 0 0-.626.294c-.14.095-.275.2-.408.306a6.344 6.344 0 0 1-.77.55 6.316 6.316 0 0 1-2.946.761h-.01c-.005 0-.018-.005-.025-.006V23zM12.938 7.846l-.707.707L14.877 11H8v1h6.877l-2.646 2.446.707.707 3.854-3.653z"/><path opacity=".75" d="M8 10h1l-.35-.244a43.266 43.266 0 0 0-1.777-.885C5.591 8.28 4.305 7.66 3 7.1v8.949c.395-.283.768-.595 1.175-.87a12.48 12.48 0 0 1 1.691-.77q.94-.534 1.905-.979a6.74 6.74 0 0 1 .416-.16c.224-.084.447-.16.669-.224L9 13H8a1 1 0 0 1-1-1v-1a1 1 0 0 1 1-1z"/><path fill="none" d="M0 0h24v24H0z"/></svg>