<svg id="icons" xmlns="http://www.w3.org/2000/svg" viewBox="0 0 32 32"><path opacity=".5" d="M20 1v7.976S29 14 31 15V1z"/><path opacity=".25" d="M2 20.367q-.499.062-1 .087V1h11v3H2zM31 31V16.263c-.481.24-1.077.458-2.146.861-1.692.637-4.624 2.671-6.345 3.263A9.795 9.795 0 0 1 20 21v10zM12 13.125L4 9.25V6h8zm3 8.29V31H4V20.6l4-2.2 3.007-1.365A.996.996 0 0 0 12 18h3v1.879l-.06.06a1 1 0 0 0 0 1.415z"/><path opacity=".75" d="M11 16a1 1 0 0 1 1-1h.428v-1.705L4 8.964v11.562l1.748-.932 2.464-1.36L11 16.908z"/><path d="M15.646 22.06L15 21.415V31H4v-4h9v-9h-1v8H4v-5a.705.705 0 0 0 .28-.059l.094-.04a5.718 5.718 0 0 0 .586-.283 8.235 8.235 0 0 0 .997-.71c.198-.158.398-.316.608-.459a4.581 4.581 0 0 1 .916-.431c.232-.09.462-.18.731-.31a25.24 25.24 0 0 1 1.84-.948 8.54 8.54 0 0 1 1.032-.363A.994.994 0 0 1 11 17v-.31a9.43 9.43 0 0 0-1.23.43q-.963.444-1.904.979a12.478 12.478 0 0 0-1.691.77c-.54.363-1.001.818-1.565 1.143A6.163 6.163 0 0 1 4 20.3V9.676l.559.227c1.459.606 2.887 1.309 4.314 1.968A52.281 52.281 0 0 1 12 13.46V15h1V6h2v5.586l.646-.647a.993.993 0 0 1 .354-.222V5H3v27h13v-9.717a.993.993 0 0 1-.354-.222zM4 6h8v6.665a50.309 50.309 0 0 0-2.833-1.43l-1.186-.553a74.758 74.758 0 0 0-3.204-1.446l-.516-.21A.691.691 0 0 0 4 8.976zm15-6v12.879l1 1V9.784l.52.212c1.052.436 2.104.93 3.12 1.41l1.191.556a52.332 52.332 0 0 1 5.055 2.68 10.754 10.754 0 0 1 1.052.725.1.1 0 0 0 .062.021v.456c-.009 0-.435.114-.435.114a12.23 12.23 0 0 0-1.836.597c-.645.298-1.29.629-1.906.98-.207.1-.419.181-.63.263a5.225 5.225 0 0 0-1.074.514c-.23.154-.445.325-.659.495a7.575 7.575 0 0 1-.9.644 7.556 7.556 0 0 1-3.56.903V19.12l-1 1V32h13V0zm12 31H20v-9.757a.189.189 0 0 0 .034.01h.005a8.518 8.518 0 0 0 3.971-1.022 8.475 8.475 0 0 0 1.014-.723c.194-.154.39-.31.597-.45a4.517 4.517 0 0 1 .896-.42c.234-.09.467-.181.744-.318a25.067 25.067 0 0 1 1.83-.942 11.368 11.368 0 0 1 1.705-.55l.204-.055zm0-16.684l-.104-.074c-.18-.13-.36-.26-.545-.371a53.374 53.374 0 0 0-5.142-2.726l-1.189-.556a75.197 75.197 0 0 0-3.205-1.445l-.517-.21A.788.788 0 0 0 20 8.875V1h11zM21.207 16.5l-4.854 4.854-.707-.707L19.293 17H12v-1h7.293l-3.646-3.646.707-.707zM13 0v4h-1V1H1v19.3a6.163 6.163 0 0 0 .61-.288c.14-.08.261-.182.39-.275v.855l-.04.026a5.718 5.718 0 0 1-.586.282l-.094.041A.705.705 0 0 1 1 21v5h1v1H0V0z"/><path fill="none" d="M0 0h32v32H0z"/></svg>