<svg id="icons" xmlns="http://www.w3.org/2000/svg" viewBox="0 0 32 32"><path opacity="0.5" d="M22,9.66174c.68933.30811,3.20947,1.48279,3.20947,1.48279,1.28949.59607,2.55127,1.264,3.79053,1.962V3H21V9.20709Q21.4986,9.43625,22,9.66174Z"/><path opacity="0.75" d="M6,18.99744c.05927-.0423.11426-.0885.1748-.12934a12.47846,12.47846,0,0,1,1.69141-.76947q.94043-.53466,1.9043-.97949A9.43015,9.43015,0,0,1,11,16.68976V12.92981c-.69836-.36621-1.403-.72455-2.127-1.05872C7.92084,11.43115,6.9632,10.98328,6,10.54865Z"/><path d="M3.61041,20.01172c.13874-.08008.26056-.182.38959-.27442v.85444c-.014.0083-.02576.01812-.04.02636a5.71816,5.71816,0,0,1-.586.28229l-.09375.041a.69906.69906,0,0,1-.23669.0495C3.02887,20.99188,3.01471,21,3,21v3H4v1H2V2H12V6H11V3H3V20.2998A6.1626,6.1626,0,0,0,3.61041,20.01172ZM30,2V30H20V20.12109l1-1v1.28852a8.821,8.821,0,0,1,1-.33979,6.16593,6.16593,0,0,0,1.56055-.61865,7.57506,7.57506,0,0,0,.89941-.644c.21436-.17041.42969-.34082.65869-.49561a5.22494,5.22494,0,0,1,1.07471-.51367c.21094-.08154.42236-.1626.62939-.26269.61719-.35157,1.26075-.68213,1.90577-.98047.092-.04035.18035-.06409.27148-.09992V14.14008c-1.35339-.77979-2.74377-1.51972-4.16895-2.17817,0,0-3.498-1.62994-3.83105-1.78637v3.70337l-1-1V2ZM29,17.42517c-.57568.26935-1.1604.56726-1.73877.89514-.27685.13623-.50977.22705-.74414.3169a4.51651,4.51651,0,0,0-.896.42138c-.207.14014-.40283.29541-.59716.44971a8.47543,8.47543,0,0,1-1.01368.72266A7.21053,7.21053,0,0,1,22,21.006a8.51877,8.51877,0,0,0-1,.295V29h8Zm0-4.31866V3H21V9.20709l4.20947,1.93744C26.499,11.7406,27.76074,12.40851,29,13.10651ZM12,7h3v8H14V8H12V27H6v2h8V18h1V30H5V7ZM11,17.41992a8.30764,8.30764,0,0,0-.94818.33978c-.61231.28321-1.23541.6045-1.83991.94733-.26849.13178-.499.22168-.73053.31049a4.581,4.581,0,0,0-.916.4317c-.196.13251-.38092.27942-.56537.4256V26h5Zm0-4.49011c-.69836-.36621-1.403-.72455-2.127-1.05872C7.92084,11.43115,6.9632,10.98328,6,10.54865v8.44879c.05927-.0423.11426-.0885.1748-.12934a12.47846,12.47846,0,0,1,1.69141-.76947q.94043-.53466,1.9043-.97949A9.43015,9.43015,0,0,1,11,16.68976ZM11,8H6V9.77368c.67584.30139,3.167,1.46173,3.167,1.46173.58093.26807,1.19409.5755,1.833.906Zm2,8v1h7.293l-2.64649,2.64648.707.707L22.207,16.5l-3.85351-3.85352-.707.707L20.293,16Z"/><path opacity="0.2" d="M11,3V6H4V19.7373c-.129.09247-.25085.19434-.38959.27442A6.1626,6.1626,0,0,1,3,20.2998V3ZM26.51709,18.63721a4.51651,4.51651,0,0,0-.896.42138c-.207.14014-.40283.29541-.59716.44971a8.47543,8.47543,0,0,1-1.01368.72266A7.21053,7.21053,0,0,1,22,21.006a8.51877,8.51877,0,0,0-1,.295V29h8V17.42517c-.57568.26935-1.1604.56726-1.73877.89514C26.98438,18.45654,26.75146,18.54736,26.51709,18.63721ZM6,9.77368c.67584.30139,3.167,1.46173,3.167,1.46173.58093.26807,1.19409.5755,1.833.906V8H6ZM12,25v2H6v2h8V18H13a.99974.99974,0,0,1-1-1Zm-1-1V17.41992a8.30764,8.30764,0,0,0-.94818.33978c-.61231.28321-1.23541.6045-1.83991.94733-.26849.13178-.499.22168-.73053.31049a4.581,4.581,0,0,0-.916.4317c-.196.13251-.38092.27942-.56537.4256V26h5Z"/><path fill="none" d="M0 0h32v32H0z"/><path fill="none" d="M0 0h32v32H0z"/></svg>