<svg xmlns="http://www.w3.org/2000/svg" viewBox="0 0 24 24"><path d="M4 6a7.986 7.986 0 01-1.156-.093A10.982 10.982 0 0111.4 1.03a8.005 8.005 0 01-1.35 2.189 8.99 8.99 0 00-4.616 2.645A7.988 7.988 0 014 6zm1.434 12.136A7.988 7.988 0 004 18a7.986 7.986 0 00-1.156.093A10.982 10.982 0 0011.4 22.97a8.005 8.005 0 00-1.35-2.189 8.99 8.99 0 01-4.616-2.645zM21.78 6.98a7.997 7.997 0 00-1.25 2.18 8.828 8.828 0 010 5.68 7.997 7.997 0 001.25 2.18 10.936 10.936 0 000-10.04zm-1.254 11.936a10.984 10.984 0 01-6.771 3.922 10.741 10.741 0 00-9.798-6.828 8.976 8.976 0 01-.411-.948 9.16 9.16 0 00.405.94c-.024 0-.046.004-.07.005-.044 0-.087-.007-.131-.007a10.781 10.781 0 00-1.922.181 10.973 10.973 0 010-8.362A10.781 10.781 0 003.75 8c.044 0 .087-.006.131-.007.024 0 .046.004.07.005a9.16 9.16 0 00-.405.94 8.976 8.976 0 01.41-.948 10.741 10.741 0 009.799-6.828 10.985 10.985 0 016.77 3.922 7.194 7.194 0 00-1.278 1.623 12.058 12.058 0 00-1.021 3.097c-.008.038-.013.076-.02.114-.053.29-.103.579-.134.875a10.156 10.156 0 000 2.414c.03.296.081.585.133.875l.021.114a12.061 12.061 0 001.021 3.097 12.666 12.666 0 001.279 1.623zM16 12a13.92 13.92 0 011.796-6.846 8.976 8.976 0 00-2.973-1.68A13.972 13.972 0 013.236 9.988a8.71 8.71 0 000 4.024 13.972 13.972 0 0111.587 6.514 8.977 8.977 0 002.973-1.68A13.92 13.92 0 0116 12z"/></svg>