<svg xmlns="http://www.w3.org/2000/svg" viewBox="0 0 16 16"><path d="M7.161.044A5.997 5.997 0 012 3c-.078 0-.154-.009-.23-.012A7.984 7.984 0 017.16.044zM1.77 13.012a7.984 7.984 0 005.392 2.944A5.997 5.997 0 002 13c-.078 0-.154.009-.23.012zm12.731-.36a7.994 7.994 0 01-5.137 3.218A8.001 8.001 0 002 11a8.02 8.02 0 00-1.366.125 8.019 8.019 0 010-6.25A8.02 8.02 0 002 5 8.001 8.001 0 009.363.13 7.994 7.994 0 0114.5 3.348 7.817 7.817 0 0012.8 8a7.817 7.817 0 001.7 4.652zM11 8a11.577 11.577 0 011.164-4.589 6.446 6.446 0 00-2.09-1.163 11.503 11.503 0 01-8.068 4.695A5.885 5.885 0 001.9 8a5.885 5.885 0 00.106 1.057 11.503 11.503 0 018.067 4.695 4.607 4.607 0 002.091-1.063A12.057 12.057 0 0111 8zm4.461-2.875c-.04.065-.086.126-.126.193a5.997 5.997 0 00-.032 5.948 7.984 7.984 0 00.158-6.141z"/></svg>