<?xml version="1.0" encoding="UTF-8"?><svg id="icons" xmlns="http://www.w3.org/2000/svg" viewBox="0 0 16 16"><defs><style>.cls-1{fill:none;}.cls-1,.cls-2{stroke-width:0px;}.cls-2{fill:#000;}</style></defs><rect class="cls-1" width="16" height="16"/><path class="cls-2" d="M8.5,1.2C4.46831,1.2,1.2,4.46825,1.2,8.5s3.26831,7.3,7.3,7.3,7.3-3.26837,7.3-7.3S12.53169,1.2,8.5,1.2ZM8.5,14.79997c-3.47392,0-6.29997-2.82652-6.29997-6.29997,0-3.47392,2.82606-6.30003,6.29997-6.30003s6.29997,2.82611,6.29997,6.30003c0,3.47345-2.82606,6.29997-6.29997,6.29997ZM8.5,10.2998c-.99219,0-1.7998-.80762-1.7998-1.7998s.80762-1.7998,1.7998-1.7998,1.7998.80762,1.7998,1.7998-.80762,1.7998-1.7998,1.7998Z"/></svg>