<?xml version="1.0" encoding="UTF-8"?><svg id="icons" xmlns="http://www.w3.org/2000/svg" viewBox="0 0 32 32"><defs><style>.cls-1{fill:none;}.cls-1,.cls-2{stroke-width:0px;}.cls-2{fill:#000;}</style></defs><rect class="cls-1" width="32" height="32"/><path class="cls-2" d="M16.5,29.8c7.34578,0,13.3-5.95422,13.3-13.3S23.84578,3.2,16.5,3.2,3.2,9.15416,3.2,16.5s5.95422,13.3,13.3,13.3ZM16.5,4.19997c6.79312,0,12.29997,5.50691,12.29997,12.30003s-5.50685,12.29997-12.29997,12.29997-12.29997-5.50691-12.29997-12.29997,5.50685-12.30003,12.29997-12.30003ZM16.5,19.9c-1.87457,0-3.4-1.52543-3.4-3.39951,0-1.87505,1.52543-3.40049,3.4-3.40049s3.4,1.52543,3.4,3.40049c0,1.87408-1.52543,3.39951-3.4,3.39951Z"/></svg>