<?xml version="1.0" encoding="UTF-8"?><svg id="icons" xmlns="http://www.w3.org/2000/svg" viewBox="0 0 16 16"><defs><style>.cls-1{fill:none;}.cls-1,.cls-2{stroke-width:0px;}</style></defs><path class="cls-2" d="M14,10h1v5h-5v-1h4v-4ZM10,1v1h4v4h1V1h-5ZM10,3v1h2v9H4V4h2v-1h4ZM7,5h2v-1h-2v1ZM10,5v1h-4v-1h-1v7h6v-7h-1ZM2,10h-1v5h5v-1H2v-4ZM2,2h4v-1H1v5h1V2ZM7.49512,9.94336l-.94336-.94434-.56641.56641,1.50977,1.50879,2.95605-2.9541-.56641-.56641-2.38965,2.38965Z"/><rect class="cls-1" width="16" height="16"/></svg>