<?xml version="1.0" encoding="UTF-8"?><svg id="icons" xmlns="http://www.w3.org/2000/svg" viewBox="0 0 24 24"><defs><style>.cls-1{fill:none;}.cls-1,.cls-2{stroke-width:0px;}</style></defs><path class="cls-2" d="M3,8h-1V2h6v1H3v5ZM8,5h2.2774c.34644-.59528.98419-1,1.7226-1s1.37616.40472,1.7226,1h2.2774v1h2v13H6V6h2v-1ZM16,8h-8v-1h-1v11h10V7h-1v1ZM9,7h6v-1h-2v-.31787c0-.37671-.30542-.68213-.68213-.68213h-.63574c-.37671,0-.68213.30542-.68213.68213v.31787h-2v1ZM16,2v1h5v5h1V2h-6ZM3,16h-1v6h6v-1H3v-5ZM21,21h-5v1h6v-6h-1v5ZM15.21289,11.35254l-.56641-.56641-4.14258,4.14062-1.39453-1.37891-.5625.56836,1.96094,1.9375,4.70508-4.70117Z"/><rect class="cls-1" width="24" height="24"/></svg>