<?xml version="1.0" encoding="UTF-8"?><svg id="icons" xmlns="http://www.w3.org/2000/svg" viewBox="0 0 32 32"><defs><style>.cls-1{fill:none;}.cls-1,.cls-2{stroke-width:0px;}</style></defs><path class="cls-2" d="M8,26h16V8h-3v-1h-3c0-1.10461-.89545-2-2-2s-2,.89539-2,2h-3v1h-3v18ZM12,8h3v-1.3855c0-.33942.27515-.6145.6145-.6145h.771c.33936,0,.6145.27509.6145.6145v1.3855h3v2h-8v-2ZM9,9h2v2h10v-2h2v16h-14V9ZM4,10h-1V3h7v1h-6v6ZM29.00024,22v7h-7v-1h6v-6h1ZM4,28h6v1H3v-7h1v6ZM28,4h-6v-1h7v7h-1v-6ZM19.81641,14.61328l.56641.56641-5.89062,5.88965-2.61621-2.61523.56641-.56641,2.0498,2.05078,5.32422-5.3252Z"/><rect class="cls-1" width="32" height="32"/></svg>