<?xml version="1.0" encoding="UTF-8"?><svg id="icons" xmlns="http://www.w3.org/2000/svg" viewBox="0 0 16 16"><defs><style>.cls-1{fill:none;}.cls-1,.cls-2{stroke-width:0px;}</style></defs><rect class="cls-1" width="16" height="16"/><path class="cls-2" d="M15,10.5v-1.5h-.0506c.03284-.1615.0506-.32861.0506-.5,0-.97852-.58008-1.87207-1.47949-2.27539l-.50391-.22656-.07617-.54785c-.27344-1.9668-1.9668-3.4502-3.94043-3.4502-1.44531,0-2.78223.80176-3.49023,2.09277l-.40234.73438-.79395-.2666c-.12012-.04102-.22266-.06055-.31348-.06055-.52051,0-.94531.39648-.9873.9209l-.04688.57812-.52441.24609c-.88867.41895-1.44141,1.2832-1.44141,2.25488,0,1.37891,1.12109,2.5,2.5,2.5h.5v1h-.5c-1.93298,0-3.5-1.56702-3.5-3.5,0-1.40033.82794-2.59937,2.01605-3.15894.08234-1.02899.93384-1.84106,1.98395-1.84106.22253,0,.4328.04486.63275.11194.84949-1.54919,2.47577-2.61194,4.36725-2.61194,2.52576,0,4.59265,1.87933,4.93066,4.31213,1.2179.54773,2.06934,1.76587,2.06934,3.18787,0,.90869-.35571,1.78101-1,2.43042v-.43042ZM5,10h9v5H5v-5ZM6,14h7v-3h-7v3ZM7,13h1v-1h-1v1ZM9,13h1v-1h-1v1Z"/></svg>