<?xml version="1.0" encoding="UTF-8"?><svg id="icons" xmlns="http://www.w3.org/2000/svg" viewBox="0 0 32 32"><defs><style>.cls-1{fill:none;}.cls-1,.cls-2{stroke-width:0px;}</style></defs><rect class="cls-1" width="32" height="32"/><path class="cls-2" d="M31.7998,18.7041c0,2.33447-1.23987,4.35864-2.7998,5.44592v-1.30225c1.02051-.96832,1.7998-2.45221,1.7998-4.14368,0-2.31604-1.4494-4.36444-3.60675-5.09711l-.4068-.13818-.58179-.19763-.08655-.60828-.06055-.42529c-.57434-4.01166-3.83911-7.03741-7.59399-7.03741-2.7489,0-5.30969,1.60443-6.68298,4.18726l-.25922.48767-.37.69604-.76324-.1972-.53461-.13818c-.34125-.08826-.61902-.12933-.87433-.12933-1.6402,0-2.94019,1.18909-3.02386,2.76587l-.02203.40344-.03131.57281-.51025.26208-.35645.18311c-1.74829.90039-2.8349,2.66455-2.8349,4.6037,0,2.65289,2.1662,5.08496,4.54468,5.10254h6.25513v1h-6.26251c-3.00415-.02222-5.53729-3.01154-5.53729-6.10254,0-2.31543,1.29395-4.41992,3.37793-5.49316l.35645-.18311.02197-.40186c.1123-2.1167,1.8418-3.71289,4.02246-3.71289.34229,0,.69971.05127,1.12451.16113l.53467.13818.25928-.48779c1.54736-2.91016,4.44678-4.71777,7.56592-4.71777,4.24951,0,7.93945,3.39453,8.58398,7.89648l.06055.42529.40674.13818c2.56348.87061,4.28516,3.2998,4.28516,6.04395ZM17,24h-1v1h1v-1ZM19,24h-1v1h1v-1ZM21,24h-1v1h1v-1ZM14,18h14v13h-14v-13ZM27,27h-12v3h12v-3ZM27,23h-12v3h12v-3ZM15,22h12v-3h-12v3ZM16,21h1v-1h-1v1ZM18,21h1v-1h-1v1ZM20,21h1v-1h-1v1ZM17,28h-1v1h1v-1ZM19,28h-1v1h1v-1ZM21,28h-1v1h1v-1Z"/></svg>