<?xml version="1.0" encoding="UTF-8"?><svg id="icons" xmlns="http://www.w3.org/2000/svg" viewBox="0 0 24 24"><defs><style>.cls-1{fill:none;}.cls-1,.cls-2{stroke-width:0px;}</style></defs><rect class="cls-1" width="24" height="24"/><path class="cls-2" d="M24.00049,13.99951c0,1.63074-.79248,3.06506-2.00049,3.97778v-1.35944c.61487-.70374,1.00049-1.61292,1.00049-2.61835,0-1.97144-1.42035-3.62579-3.37726-3.93372l-.78937-.12421-.05298-.79736c-.1842-2.77246-2.50385-4.94421-5.28088-4.94421-2.19543,0-4.13171,1.3244-4.93286,3.37408l-.39697,1.01562-.97754-.48322c-.31195-.15417-.65881-.23572-1.00299-.23572-.4129,0-.81641.11713-1.16687.33881-.50281.31805-.85089.81372-.9801,1.39587l-.11212.50488-.47693.20032c-1.49017.62579-2.45312,2.07379-2.45312,3.68884,0,2.20538,1.79425,4.00031,3.99963,4.00049l1.99988.00006v.99988c-1.11707.00006-1.56519.00006-1.72205.00006-.06116,0-.08044,0-.07776,0h-.2002C2.23889,18.99976.00049,16.76074.00049,13.99951.00049,11.92395,1.26569,10.1449,3.06641,9.38867c.17938-.8078.66718-1.54688,1.42175-2.02417.52997-.33521,1.11877-.49377,1.70154-.49371.50037,0,.99628.11694,1.44604.33929.91687-2.34576,3.19373-4.01007,5.86426-4.01007,3.33691,0,6.06061,2.59619,6.27869,5.87793,2.38922.37598,4.2218,2.42664,4.2218,4.92157ZM8,15h13v9h-13v-9ZM20,20h-11v3h11v-3ZM9,19h11v-3h-11v3ZM10,18h1v-1h-1v1ZM12,18h1v-1h-1v1ZM14,18h1v-1h-1v1ZM11,21h-1v1h1v-1ZM13,21h-1v1h1v-1ZM15,21h-1v1h1v-1Z"/></svg>