<?xml version="1.0" encoding="UTF-8"?><svg id="icons" xmlns="http://www.w3.org/2000/svg" viewBox="0 0 24 24"><defs><style>.cls-1{fill:none;}.cls-1,.cls-2{stroke-width:0px;}</style></defs><rect class="cls-1" width="24" height="24"/><path class="cls-2" d="M23,16.97266v-.97266c0-.21985-.04376-.52008-.19025-.84399.11237-.36859.19073-.75171.19073-1.15649,0-1.97144-1.42035-3.62579-3.37726-3.93372l-.78937-.12421-.05298-.79736c-.1842-2.77246-2.50385-4.94421-5.28088-4.94421-2.19543,0-4.13171,1.3244-4.93286,3.37408l-.39697,1.01562-.97754-.48322c-.31195-.15417-.65881-.23572-1.00299-.23572-.4129,0-.81641.11713-1.16687.33881-.50281.31805-.85089.81372-.9801,1.39587l-.11212.50488-.47693.20032c-1.49017.62579-2.45312,2.07379-2.45312,3.68884,0,2.20538,1.79425,4.00031,3.99963,4.00049l5.99988.00024v.99951c-4.2641.00018-5.44336.00024-5.72205.00024-.06116,0-.08044,0-.07776,0h-.2002C2.23889,18.99976.00049,16.76074.00049,13.99951.00049,11.92395,1.26569,10.1449,3.06641,9.38867c.17938-.8078.66718-1.54688,1.42175-2.02417.52997-.33521,1.11877-.49377,1.70154-.49371.50037,0,.99628.11694,1.44604.33929.91687-2.34576,3.19373-4.01007,5.86426-4.01007,3.33691,0,6.06061,2.59619,6.27869,5.87793,2.38922.37598,4.2218,2.42664,4.2218,4.92157,0,1.11841-.38007,2.14026-1.00049,2.97314ZM22,16v5.53027c0,1.5-2.51562,2.28516-5,2.28516s-5-.78516-5-2.28516v-5.53027c0-.36133.19141-.88184,1.10645-1.31641.3584-.16797.79395-.30957,1.2959-.42188.40625-.08887.8418-.15723,1.29785-.20117.82617-.07812,1.77344-.07812,2.59961,0,.45605.04395.8916.1123,1.29688.20117.50293.1123.93848.25391,1.2959.42188.91602.43457,1.10742.95508,1.10742,1.31641ZM21,17.25946c-.03662.01886-.0672.03839-.10645.05695-.3584.16797-.79395.30957-1.2959.42188-.40625.08887-.8418.15723-1.29785.20117-.41309.03906-.84863.06055-1.2998.06055s-.88672-.02148-1.2998-.06055c-.45605-.04395-.8916-.1123-1.29688-.20117-.50293-.1123-.93848-.25391-1.2959-.42188-.03961-.01874-.0705-.03839-.10742-.05743v4.2713c0,.51172,1.5957,1.28516,4,1.28516s4-.77344,4-1.28516v-4.27081ZM21,16c0-.03125-.09473-.32111-.53418-.52911-.29004-.13672-.65527-.25391-1.08496-.34961-.36523-.08105-.76172-.1416-1.17676-.18164-.38184-.03711-.78613-.05664-1.2041-.05664s-.82227.01953-1.2041.05664c-.41504.04004-.81152.10059-1.17773.18164-.42871.0957-.79395.21289-1.08496.34961-.43848.20801-.5332.49786-.5332.52911s.09473.31305.53418.52008c.29004.13672.65527.25391,1.08496.34961.36523.08105.76172.1416,1.17676.18164.76367.07422,1.64453.07422,2.4082,0,.41504-.04004.81152-.10059,1.17773-.18164.42871-.0957.79395-.21289,1.08496-.34961.43848-.20703.5332-.48883.5332-.52008Z"/></svg>