<?xml version="1.0" encoding="UTF-8"?><svg id="icons" xmlns="http://www.w3.org/2000/svg" viewBox="0 0 32 32"><defs><style>.cls-1{fill:none;}.cls-1,.cls-2{stroke-width:0px;}</style></defs><rect class="cls-1" width="32" height="32"/><path class="cls-2" d="M31.7998,18.7041c0,2.33447-1.23987,4.35864-2.7998,5.44592v-1.30225c1.02051-.96832,1.7998-2.45221,1.7998-4.14368,0-2.31604-1.4494-4.36444-3.60675-5.09711l-.4068-.13818-.58179-.19763-.08655-.60828-.06055-.42529c-.57434-4.01166-3.83911-7.03741-7.59399-7.03741-2.7489,0-5.30969,1.60443-6.68298,4.18726l-.25922.48767-.37.69604-.76324-.1972-.53461-.13818c-.34125-.08826-.61902-.12933-.87433-.12933-1.6402,0-2.94019,1.18909-3.02386,2.76587l-.02203.40344-.03131.57281-.51025.26208-.35645.18311c-1.74829.90039-2.8349,2.66455-2.8349,4.6037,0,2.65289,2.1662,5.08496,4.54468,5.10254h6.25513v1h-6.26251c-3.00415-.02222-5.53729-3.01154-5.53729-6.10254,0-2.31543,1.29395-4.41992,3.37793-5.49316l.35645-.18311.02197-.40186c.1123-2.1167,1.8418-3.71289,4.02246-3.71289.34229,0,.69971.05127,1.12451.16113l.53467.13818.25928-.48779c1.54736-2.91016,4.44678-4.71777,7.56592-4.71777,4.24951,0,7.93945,3.39453,8.58398,7.89648l.06055.42529.40674.13818c2.56348.87061,4.28516,3.2998,4.28516,6.04395ZM28,20v7.99982c0,1.94824-3.60645,3-7,3s-7-1.05176-7-3v-7.99982c0-.4668.24707-1.35156,1.42383-1.9541.49805-.25488,1.11523-.4707,1.83301-.64258.57617-.13672,1.2041-.24121,1.86621-.30957,1.21875-.125,2.53613-.125,3.75293,0,.66309.06836,1.29102.17285,1.86621.30957.71875.17188,1.33594.3877,1.83398.64258,1.17676.60254,1.42383,1.4873,1.42383,1.9541ZM27,21.70569c-.1264.08337-.26532.16608-.42383.24725-.49805.25488-1.11523.4707-1.83301.64258-.57617.13672-1.2041.24121-1.86621.30957-.60938.0625-1.24121.09473-1.87695.09473s-1.26758-.03223-1.87598-.09473c-.66309-.06836-1.29102-.17285-1.86621-.30957-.71875-.17188-1.33594-.3877-1.83398-.64258-.15851-.08118-.29742-.16388-.42383-.24725v6.39313c0,.83496,2.28223,2,6,2s6-1.16504,6-2v-6.39313ZM27,20c0-.25781-.3291-.84523-.87891-1.12648-.42773-.21875-.96973-.40723-1.61035-.56055-.53223-.12695-1.11719-.22363-1.7373-.28809-.57422-.05859-1.17188-.08887-1.77344-.08887s-1.19922.03027-1.77441.08887c-.61914.06445-1.2041.16113-1.7373.28809-.63965.15332-1.18164.3418-1.60938.56055-.5498.28125-.87891.86866-.87891,1.12648s.3291.85303.87891,1.13428c.42773.21875.96973.40723,1.61035.56055.53223.12695,1.11719.22363,1.7373.28809,1.14844.11719,2.39746.11719,3.54785,0,.61914-.06445,1.2041-.16113,1.7373-.28809.63965-.15332,1.18164-.3418,1.60938-.56055.5498-.28125.87891-.87646.87891-1.13428Z"/></svg>