<?xml version="1.0" encoding="UTF-8"?><svg id="icons" xmlns="http://www.w3.org/2000/svg" viewBox="0 0 24 24"><defs><style>.cls-1{fill:none;}.cls-1,.cls-2{stroke-width:0px;}.cls-2{fill:#231f20;}</style></defs><path class="cls-2" d="m17.25201,22.20526l-1.414-1.41443,4.18365-4.18365,1.41345,1.41449-4.18311,4.18359Zm5.90826-5.95135l-.73431.73431-1.41418-1.41418.73431-.73431c.07806-.07812.20471-.07812.28284,0l1.13135,1.13135c.07812.07812.07812.20471,0,.28284Zm-7.07416,6.90649l-2.08612.8396.83905-2.08673,1.24707,1.24713Zm4.90387-17.66144c0-1.37891-1.11163-2.49896-2.49005-2.49896s-2.49994,1.12109-2.49994,2.5c0,1.20764.86041,2.21729,2,2.44946v1.55054c0,1.92969-1.57031,3.5-3.5,3.5h-5c-.97974,0-1.86401.40723-2.5,1.05829V5.94934c1.13751-.23267,1.98999-1.24292,1.98999-2.45038,0-1.37891-1.11163-2.49896-2.49005-2.49896s-2.49994,1.12109-2.49994,2.5c0,1.20764.86041,2.21729,2,2.44946v13.10107c-1.13959.23218-2,1.24182-2,2.44946,0,1.37891,1.12158,2.5,2.49994,2.5s2.49005-1.12213,2.49005-2.50104c0-1.20746-.85248-2.21613-1.98999-2.44836v-2.5506c0-1.37891,1.12158-2.5,2.5-2.5h5c2.48145,0,4.5-2.01855,4.5-4.5v-1.55066c1.13751-.23267,1.98999-1.24292,1.98999-2.45038Zm-14.99005-.49896c-.55225,0-.99994-.44775-.99994-1v-1c0-.55231.44769-1,.99994-1h1c.55231,0,1.00006.44769,1.00006,1v1c0,.55225-.44775,1-1.00006,1h-1Zm2.00006,16v1c0,.55225-.44775,1-1.00006,1h-1c-.55225,0-.99994-.44775-.99994-1v-1c0-.55231.44769-1,.99994-1h1c.55231,0,1.00006.44769,1.00006,1Zm12-15c0,.55225-.44775,1-1.00006,1h-1c-.55225,0-.99994-.44775-.99994-1v-1c0-.55231.44769-1,.99994-1h1c.55231,0,1.00006.44769,1.00006,1v1Z"/><rect class="cls-1" x="0" width="24" height="24"/></svg>