<?xml version="1.0" encoding="UTF-8"?><svg id="icons" xmlns="http://www.w3.org/2000/svg" viewBox="0 0 32 32"><defs><style>.cls-1{fill:none;}.cls-1,.cls-2{stroke-width:0px;}.cls-2{fill:#231f20;}</style></defs><rect class="cls-1" width="32" height="32"/><path class="cls-2" d="m20.9328,29.52155l-3.15088,1.34943,1.34265-3.15662,1.80823,1.80719Zm7.03802-6.97198l-1.9209-1.92188-5.76367,5.7641,1.92145,1.92188,5.76312-5.7641Zm2.15717-2.5813l-1.49707-1.49719c-.05627-.05627-.13184-.08862-.20996-.09003-.07819-.0014-.15265.02832-.20691.08264l-1.02753,1.02783,1.92163,1.92163,1.02734-1.02808c.11298-.1131.10962-.29968-.00751-.41681Zm-2.12799-12.46826c0-1.37891-1.02057-2.5-2.39899-2.5s-2.5,1.12109-2.5,2.5c0,1.17059.81146,2.14789,1.89899,2.4187v2.5813c0,2.48145-2.01855,4.5-4.5,4.5h-8.5c-1.20032,0-2.26624.5423-3,1.3822V5.94879c1.1181-.23395,1.89899-1.24268,1.89899-2.44879,0-1.37891-1.02057-2.5-2.39899-2.5s-2.5,1.12109-2.5,2.5c0,1.20764.86029,2.21716,2,2.44946v20.13184c-1.08752.27081-1.89899,1.24811-1.89899,2.4187,0,1.37891,1.12158,2.5,2.5,2.5s2.39899-1.12109,2.39899-2.5c0-1.24103-.82971-2.26538-2-2.45935v-5.04065c0-1.6543,1.3457-3,3-3h8.5c3.03271,0,5.5-2.46777,5.5-5.5v-2.54065c1.17029-.19397,2-1.21832,2-2.45935ZM7,4v-1c0-.55231.44769-1,1-1h1c.55231,0,1,.44769,1,1v1c0,.55225-.44769,1-1,1h-1c-.55231,0-1-.44775-1-1Zm2.10101,23c.55231,0,1,.44769,1,1v1c0,.55225-.44769,1-1,1h-1c-.55231,0-1-.44775-1-1v-1c0-.55231.44769-1,1-1h1ZM27.10101,8c0,.55225-.44769,1-1,1h-1c-.55231,0-1-.44775-1-1v-1c0-.55231.44769-1,1-1h1c.55231,0,1,.44769,1,1v1Z"/></svg>