<?xml version="1.0" encoding="UTF-8"?><svg id="icons" xmlns="http://www.w3.org/2000/svg" viewBox="0 0 16 16"><defs><style>.cls-1{fill:none;}.cls-1,.cls-2{stroke-width:0px;}.cls-2{fill:#231f20;}</style></defs><rect class="cls-1" width="16" height="16"/><path class="cls-2" d="m12.5,2c-.82715,0-1.5.67285-1.5,1.5,0,.651.41925,1.20081,1,1.4079v.5921c0,1.37891-1.12158,2.5-2.5,2.5h-3c-.55988,0-1.07776.20862-1.5.54291V2.9079c.58075-.20709,1-.7569,1-1.4079,0-.82715-.67285-1.5-1.5-1.5s-1.5.67285-1.5,1.5c0,.651.41925,1.20081,1,1.4079v10.29602c-.52325.20282-.90002.70197-.90002,1.29608,0,.77197.62805,1.39996,1.40002,1.39996.77203,0,1.40002-.62799,1.40002-1.39996,0-.59412-.37671-1.09326-.90002-1.29608v-2.63263c0-.85156.68701-1.57129,1.5-1.57129h3c1.92969,0,3.5-1.57031,3.5-3.5v-.5921c.58075-.20709,1-.7569,1-1.4079,0-.82715-.67285-1.5-1.5-1.5Zm-7.53333,12.73334c0,.12885-.10449.23334-.23334.23334h-.45435c-.13568,0-.24567-.10992-.24567-.24561v-.45441c0-.12885.10449-.23334.23334-.23334h.46667c.12885,0,.23334.10449.23334.23334v.46667Zm-.21667-12.73334h-.5c-.13806,0-.25-.11194-.25-.25v-.5c0-.13806.11194-.25.25-.25h.48682c.14539,0,.26318.1178.26318.26312v.48688c0,.13806-.11194.25-.25.25Zm8.25,1.75c0,.13806-.11194.25-.25.25h-.5c-.13806,0-.25-.11194-.25-.25v-.5c0-.13806.11194-.25.25-.25h.48682c.14539,0,.26318.1178.26318.26312v.48688Zm-.06281,6.25001l1.06281,1.04907-3.99999,3.95092-2,1,1-2,3.93719-3.99999Zm1.37482-1.33081l-.64526.64758.99738.99731.64526-.64758-.99738-.99731Z"/></svg>