<?xml version="1.0" encoding="UTF-8"?><svg id="icons" xmlns="http://www.w3.org/2000/svg" viewBox="0 0 24 24"><defs><style>.cls-1{fill:none;}.cls-2{fill:#231f20;}</style></defs><rect class="cls-1" width="24" height="24"/><rect class="cls-1" width="24" height="24"/><path class="cls-2" d="M24,20c0,1.10284-.89716,2-2,2-.26953,0-.52606-.05505-.76093-.15216l.00555,.00403c-1.18097,1.23962-2.87,2.01727-4.74463,2.01727-1.40723,0-2.70703-.44263-3.7699-1.18506l.67065-.67065c.88477,.5791,1.9516,.91821,3.09924,.91821,1.56195,0,2.9726-.62817,3.97766-1.63586l.02875,.02087c-.31122-.35266-.4964-.81036-.4964-1.31665,0-1.10291,.88715-2,1.98999-2s2,.89709,2,2Zm-1,0c0-.55127-.44824-1-1-1s-1,.44873-1,1,.44824,1,1,1,1-.44873,1-1Zm-10,0c0,1.10284-.89716,2-2,2s-2-.89716-2-2c0-.77783,.45074-1.44598,1.10065-1.77655l-.03632,.00916c-.02185-.20813-.03308-.41925-.03308-.633,0-2.59766,1.63977-4.83105,3.96875-5.78058v1.03149c-1.79578,.8819-3.03125,2.67719-3.03125,4.74908,0,.13507,.00525,.26904,.01562,.40161l-.00238,.00061c.00616-.00006,.01184-.00183,.01801-.00183,1.10284,0,2,.89709,2,2Zm-1,0c0-.55127-.44824-1-1-1s-1,.44873-1,1,.44824,1,1,1,1-.44873,1-1Zm3.01001-8c0-1.10291,.88715-2,1.98999-2,1.05322,0,1.90961,.82092,1.98535,1.85516l.00616-.04028c2.15137,.87396,3.71539,2.84412,3.94592,5.18512h-.9436c-.21887-1.87347-1.44806-3.4566-3.14886-4.22791l.00061-.00391c-.30182,.72241-1.01495,1.23181-1.84558,1.23181-1.10284,0-1.98999-.89716-1.98999-2Zm.98999,0c0,.55127,.44824,1,1,1s1-.44873,1-1-.44824-1-1-1-1,.44873-1,1ZM4,5.5c0,1.92969,1.57031,3.5,3.5,3.5s3.48999-1.57031,3.48999-3.5-1.5603-3.5-3.48999-3.5-3.5,1.57031-3.5,3.5Zm6,0c0,1.37891-1.12158,2.5-2.5,2.5s-2.5-1.12109-2.5-2.5,1.12158-2.5,2.5-2.5,2.5,1.12109,2.5,2.5Zm-4.5,4.5c-2.48145,0-4.48999,2.01855-4.48999,4.5l-.01001,3.5H9v-1H2v-2.5c0-1.92969,1.57031-3.5,3.5-3.5h4c.82227,0,1.56927,.29694,2.1673,.7735,.26141-.22101,.53992-.42108,.83014-.60516-.79767-.71826-1.84198-1.16833-2.99744-1.16833H5.5Z"/></svg>