<svg xmlns="http://www.w3.org/2000/svg" viewBox="0 0 24 24"><path d="M17 4H6l5.5 6zm-2.273 1L11.5 8.52 8.273 5zM1.25 13.25h.5v.5h-.5zm2 0h.5v.5h-.5zm1 1h.5v.5h-.5zm-2 0h.5v.5h-.5zm-1 1h.5v.5h-.5zm2 0h.5v.5h-.5zm1 1h.5v.5h-.5zm-2 0h.5v.5h-.5zm-1 1h.5v.5h-.5zm2 0h.5v.5h-.5zm1 1h.5v.5h-.5zm-2 0h.5v.5h-.5zm3-5h.5v.5h-.5zm1 1h.5v.5h-.5zm-1 1h.5v.5h-.5zm1 1h.5v.5h-.5zm-1 1h.5v.5h-.5zm1 1h.5v.5h-.5zM10 17v1H9v-1zm2 0v1h-1v-1zm2 0v1h-1v-1zm-3-1v1h-1v-1zm2 0v1h-1v-1zm-4 0v-1h1v1zm2 0v-1h1v1zm2 0v-1h1v1zm-3-1v-1h1v1zm-1 1v1H8v-1zm-1-1v-1h1v1zm4 0v-1h1v1zm6.25-1.75h.5v.5h-.5zm2.5 4.5h-.5v-.5h.5zM20 17v1h-1v-1zm-1.75.25h.5v.5h-.5zm-2-4h.5v.5h-.5zM18 17v1h-1v-1zm-2.25 1.75h-.5v-.5h.5zm5-3h-.5v-.5h.5zm-3 3h-.5v-.5h.5zm4-4h-.5v-.5h.5zM21 14v1h-1v-1zm-1.25 4.75h-.5v-.5h.5zm2 0h-.5v-.5h.5zm0-2h-.5v-.5h.5zM20 16h1v1h-1zm-4.75.25h.5v.5h-.5zm4.5.5h-.5v-.5h.5zm0-2h-.5v-.5h.5zM17 16v1h-1v-1zm3.25-2.75h.5v.5h-.5zm-3 3h.5v.5h-.5zM19 15h1v1h-1zm-1 0v-1h1v1zm-2 0v-1h1v1zm-.25-.25h-.5v-.5h.5zm2 0h-.5v-.5h.5zM19 16v1h-1v-1zm-.25-.25h-.5v-.5h.5zm-2 0h-.5v-.5h.5zM16 17v1h-1v-1zm1-1v-1h1v1zm-2 0v-1h1v1zm1.25 1.25h.5v.5h-.5zM15 16v1h-1v-1zM0 12v8h23v-8zm22 3h-1v1h1v1h-1v1h1v1h-1v-1h-1v1h-1v-1h-1v1h-1v-1h-1v1h-1v-1h-1v1h-1v-1h-1v1h-1v-1h-1v1H9v-1H8v1H1v-6h6v1h1v-1h1v1h1v-1h1v1h1v-1h1v1h1v-1h1v1h1v-1h1v1h1v-1h1v1h1v-1h1v1h1zm-8 0v-1h1v1zm-6 0v1H7v-1zm0 2v1H7v-1z"/></svg>
