<svg xmlns="http://www.w3.org/2000/svg" viewBox="0 0 32 32"><path d="M9 4l6.5 8L22 4zm2.1 1h8.8l-4.4 5.414zm18.15 10H0v10h31V15zm-.35 9v-.9h-.8v.9h-1.2v-.9h-.8v.9h-1.2v-.9h-.8v.9h-1.2v-.9h-.8v.9h-1.2v-.9h-.8v.9h-1.2v-.9h-.8v.9h-1.2v-.9h-.8v.9h-1.2v-.9h-.8v.9h-1.2v-.9h-.8v.9h-1.2v-.9h-.8v.9H1v-8h10.1v.9h.8V16h1.2v.9h.8V16h1.2v.9h.8V16h1.2v.9h.8V16h1.2v.9h.8V16h1.2v.9h.8V16h1.2v.9h.8V16h1.2v.9h.8V16h1.2v.9h.8V16h1.2v.9h.9v1.2h-.9v.8h.9v1.2h-.9v.8h.9v1.2h-.9v.8h.9V24zm-17.8-5.9h.8v.8h-.8zm0 2h.8v.8h-.8zm0 2h.8v.8h-.8zm1-3h.8v.8h-.8zm0 2h.8v.8h-.8zm0-4h.8v.8h-.8zm1 5h.8v.8h-.8zm-3-5h.8v.8h-.8zm0 2h.8v.8h-.8zm-.85 3.15h.5v.5h-.5zm-1-3h.5v.5h-.5zm1 1h.5v.5h-.5zm.85.85h.8v.8h-.8zm-.85-2.85h.5v.5h-.5zm0-2h.5v.5h-.5zm4.85.85h.8v.8h-.8zm2 4h.8v.8h-.8zm1 1h.8v.8h-.8zm-1-3h.8v.8h-.8zm-3 1h.8v.8h-.8zm5 1h.8v.8h-.8zm-1-1h.8v.8h-.8zm0-2h.8v.8h-.8zm-1-1h.8v.8h-.8zm-2 4h.8v.8h-.8zm1-3h.8v.8h-.8zm-1 1h.8v.8h-.8zm-1-1h.8v.8h-.8zm2 2h.8v.8h-.8zm0 2h.8v.8h-.8zm-6.85-.85h.5v.5h-.5zm-7-5h.5v.5h-.5zm1 3h.5v.5h-.5zm0-2h.5v.5h-.5zm1 5h.5v.5h-.5zm-1-1h.5v.5h-.5zm1-1h.5v.5h-.5zm0-4h.5v.5h-.5zm0 2h.5v.5h-.5zm1 5h.5v.5h-.5zm-2 0h.5v.5h-.5zm27.5-3.5h-.5v-.5h.5zm0 2h-.5v-.5h.5zm0-4h-.5v-.5h.5zm-28.5 2.5h.5v.5h-.5zm0 2h.5v.5h-.5zm0-4h.5v.5h-.5zm16.85.85h.8v.8h-.8zM7.25 22.25h.5v.5h-.5zm-3-1h.5v.5h-.5zm2 0h.5v.5h-.5zm0-2h.5v.5h-.5zm0-2h.5v.5h-.5zm1 3h.5v.5h-.5zm0-4h.5v.5h-.5zm0 2h.5v.5h-.5zm1 5h.5v.5h-.5zm-4-6h.5v.5h-.5zm0 2h.5v.5h-.5zm1 3h.5v.5h-.5zm0-4h.5v.5h-.5zm0 2h.5v.5h-.5zm0-4h.5v.5h-.5zm1 7h.5v.5h-.5zm2-6h.5v.5h-.5zm19.5.5h-.5v-.5h.5zm-1-1h-.5v-.5h.5zm-1 2.5v.5h-.5v-.5zm.5 3h.5v.5h-.5zM25.1 18.1h.8v.8h-.8zm-7-1h.8v.8h-.8zm8 4h.8v.8h-.8zm.65-.85v.5h-.5v-.5zM24.1 17.1h.8v.8h-.8zm2.65 1.15v.5h-.5v-.5zm-2 0v.5h-.5v-.5zm-.65.85h.8v.8h-.8zm1 1h.8v.8h-.8zm.65 1.15v.5h-.5v-.5zm-.65.85h.8v.8h-.8zm.15 1.15h.5v.5h-.5zm4 0h.5v.5h-.5zM28.1 19.1h.8v.8h-.8zm.65 1.15v.5h-.5v-.5zM26.1 17.1h.8v.8h-.8zm2.65 1.15v.5h-.5v-.5zm-4 2v.5h-.5v-.5zm3.5 2h.5v.5h-.5zm-.15-5.15h.8v.8h-.8zm0 4h.8v.8h-.8zm.65-4.35h-.5v-.5h.5zm-1 4.5v.5h-.5v-.5zm-.5 2h.5v.5h-.5zm-.15-1.15h.8v.8h-.8zm0-2h.8v.8h-.8zm0-2h.8v.8h-.8zm.65 1.15v.5h-.5v-.5zm-1.65-.15h.8v.8h-.8zm-3.35-2.35h-.5v-.5h.5zm-1 4.5v.5h-.5v-.5zm-.65.85h.8v.8h-.8zm.15 1.15h.5v.5h-.5zm2.5-5.5h-.5v-.5h.5zm-2.65.35h.8v.8h-.8zm.65 1.15v.5h-.5v-.5zm-.65.85h.8v.8h-.8zm-2-2h.8v.8h-.8zm0 2h.8v.8h-.8zm0 2h.8v.8h-.8zm1-5h.8v.8h-.8zm0 2h.8v.8h-.8zm0 2h.8v.8h-.8zm4 0h.8v.8h-.8zm-2.35-3.35h-.5v-.5h.5zm1.35.35h.8v.8h-.8zm.65 1.15v.5h-.5v-.5zm0 2v.5h-.5v-.5zm-.65-1.15h.8v.8h-.8zm2.65-2.35h-.5v-.5h.5zm-1.5 4.5h.5v.5h-.5zm.5-5.5h-.5v-.5h.5zM22.1 19.1h.8v.8h-.8zm.15 3.15h.5v.5h-.5zm.5-2v.5h-.5v-.5zm.35 1.85h.8v.8h-.8zm-1-1h.8v.8h-.8zm.65-2.85v.5h-.5v-.5zm.5 5h.5v.5h-.5zM22.1 17.1h.8v.8h-.8z"/></svg>