<svg xmlns="http://www.w3.org/2000/svg" viewBox="0 0 24 24"><path d="M17 4H6l5.5 6zm-2.27 1L11.5 8.52 8.27 5zM1 12v8h22v-8zm13.75 3H14v1h.75v1H14v1h.75v1H14v-1h-1v1h-1v-1h-1v1h-1v-1H9v1H2v-6h6v1h1v-1h1v1h1v-1h1v1h1v-1h1v1h.75zm1 2.75H15v-.5h.75zm0-2H15v-.5h.75zm0-2H15V13h.75zm1 5h-.5v-.5h.5zm0-2h-.5v-.5h.5zm0-2h-.5v-.5h.5zm1 3h-.5v-.5h.5zm0-2h-.5v-.5h.5zm0-2h-.5V13h.5zm1 5h-.5v-.5h.5zm0-2h-.5v-.5h.5zm0-2h-.5v-.5h.5zm1 3h-.5v-.5h.5zm0-2h-.5v-.5h.5zm0-2h-.5V13h.5zm1 5h-.5v-.5h.5zm0-2h-.5v-.5h.5zm0-2h-.5v-.5h.5zm1 3h-.5v-.5h.5zm0-2h-.5v-.5h.5zm0-2h-.5V13h.5z"/><path d="M2.25 13.25h.5v.5h-.5zm2 0h.5v.5h-.5zm1 1h.5v.5h-.5zm-2 0h.5v.5h-.5zm-1 1h.5v.5h-.5zm2 0h.5v.5h-.5zm1 1h.5v.5h-.5zm-2 0h.5v.5h-.5zm-1 1h.5v.5h-.5zm2 0h.5v.5h-.5zm1 1h.5v.5h-.5zm-2 0h.5v.5h-.5zm3-5h.5v.5h-.5zm1 1h.5v.5h-.5zm-1 1h.5v.5h-.5zm1 1h.5v.5h-.5zm-1 1h.5v.5h-.5zm1 1h.5v.5h-.5zM9 14h1v1H9zm2 0h1v1h-1zm2 0h1v1h-1zm-3 1h1v1h-1zm2 0h1v1h-1zm-3 1h1v1H9zm2 0h1v1h-1zm2 0h1v1h-1zm-3 1h1v1h-1zm-2-2h1v1H8zm0 2h1v1H8zm4 0h1v1h-1z"/></svg>