<svg xmlns="http://www.w3.org/2000/svg" viewBox="0 0 32 32"><path d="M22 4H9l6.5 8zm-2.1 1l-4.4 5.41L11.1 5zm9.35 10H0v11h31V15zm-9.5 3H19v1h.75v1H19v1h.75v1H19v1h.75v1H19v1h-1v-1h-1v1h-1v-1h-1v1h-1v-1h-1v1h-1v-1h-1v1H1v-9h10v1h1v-1h1v1h1v-1h1v1h1v-1h1v1h1v-1h1v1h.75zm1 7H20v-.75h.75zm0-2.25H20v-.5h.75zm0-2H20v-.5h.75zm0-2H20v-.5h.75zm0-2H20V16h.75zm1 7h-.5v-.5h.5zm0-2h-.5v-.5h.5zm0-2h-.5v-.5h.5zm0-2h-.5v-.5h.5zm1 7h-.5v-.5h.5zm0-2h-.5v-.5h.5zm0-2h-.5v-.5h.5zm0-2h-.5v-.5h.5zm0-2h-.5v-.5h.5zm1 7h-.5v-.5h.5zm0-2h-.5v-.5h.5zm0-2h-.5v-.5h.5zm0-2h-.5v-.5h.5zm1 7h-.5v-.5h.5zm0-2h-.5v-.5h.5zm0-2h-.5v-.5h.5zm0-2h-.5v-.5h.5zm0-2h-.5v-.5h.5zm1 7h-.5v-.5h.5zm0-2h-.5v-.5h.5zm0-2h-.5v-.5h.5zm0-2h-.5v-.5h.5zm1 7h-.5v-.5h.5zm0-2h-.5v-.5h.5zm0-2h-.5v-.5h.5zm0-2h-.5v-.5h.5zm0-2h-.5v-.5h.5zm1 7h-.5v-.5h.5zm0-2h-.5v-.5h.5zm0-2h-.5v-.5h.5zm0-2h-.5v-.5h.5zm1 7h-.5v-.5h.5zm0-2h-.5v-.5h.5zm0-2h-.5v-.5h.5zm0-2h-.5v-.5h.5zm0-2h-.5v-.5h.5zm1 7h-.5v-.5h.5zm0-2h-.5v-.5h.5zm0-2h-.5v-.5h.5zm0-2h-.5v-.5h.5z"/><path d="M1.25 16.25h.5v.5h-.5zm2 0h.5v.5h-.5zm1 1h.5v.5h-.5zm-2 0h.5v.5h-.5zm-1 1h.5v.5h-.5zm2 0h.5v.5h-.5zm1 1h.5v.5h-.5zm-2 0h.5v.5h-.5zm-1 1h.5v.5h-.5zm2 0h.5v.5h-.5zm1 1h.5v.5h-.5zm-2 0h.5v.5h-.5zm3-5h.5v.5h-.5zm1 1h.5v.5h-.5zm-1 1h.5v.5h-.5zm1 1h.5v.5h-.5zm-1 1h.5v.5h-.5zm1 1h.5v.5h-.5zm-5 1h.5v.5h-.5zm2 0h.5v.5h-.5zm1 1h.5v.5h-.5zm-2 0h.5v.5h-.5zm-1 1h.5v.5h-.5zm2 0h.5v.5h-.5zm2-2h.5v.5h-.5zm1 1h.5v.5h-.5zm-1 1h.5v.5h-.5zm2-8h.5v.5h-.5zm0 2h.5v.5h-.5zm0 2h.5v.5h-.5zm2-4h.5v.5h-.5zm-1 1h.5v.5h-.5zm1 1h.5v.5h-.5zm-1 1h.5v.5h-.5zm1 1h.5v.5h-.5zm-2 2h.5v.5h-.5zm1-1h.5v.5h-.5zm1 1h.5v.5h-.5zm-2 2h.5v.5h-.5zm2 0h.5v.5h-.5zm-1-1h.5v.5h-.5zM12 19h1v1h-1zm2 0h1v1h-1zm2 0h1v1h-1zm-5 1h1v1h-1zm2 0h1v1h-1zm2 0h1v1h-1zm-3 1h1v1h-1zm2 0h1v1h-1zm2 0h1v1h-1zm-5 1h1v1h-1zm2 0h1v1h-1zm2 0h1v1h-1zm-3 1h1v1h-1zm-2-4h1v1h-1zm0 2h1v1h-1zm0 2h1v1h-1zm4 0h1v1h-1zm2 0h1v1h-1zm-5-5h1v1h-1zm2 0h1v1h-1zm2 0h1v1h-1zm-3-1h1v1h-1zm-2 0h1v1h-1zm4 0h1v1h-1zm2 0h1v1h-1zm2 2h1v1h-1zm-1 1h1v1h-1zm1 1h1v1h-1zm-1 1h1v1h-1zm1 1h1v1h-1zm-1-5h1v1h-1zm1-1h1v1h-1z"/></svg>