<svg id="icons" xmlns="http://www.w3.org/2000/svg" viewBox="0 0 16 16"><path d="M11 2H4l3.5 4zM8.796 3L7.5 4.481 6.204 3zM1.25 8.25h.5v.5h-.5zm2 .5h.5v-.5h-.5zm1 1h.5v-.5h-.5zm-2 0h.5v-.5h-.5zm-1 1h.5v-.5h-.5zm2 0h.5v-.5h-.5zm1 1h.5v-.5h-.5zm-2 0h.5v-.5h-.5zM15 7v6H0V7zm-1 5v-1.1h-.9v-.8h.9V8.9h-.9V8h-1.2v.9h-.8V8H9.9v.9h-.8V8H7.9v.9h-.8V8H5.9v.9h-.8V8H1v4h5.1v-.9h.8v.9h1.2v-.9h.8v.9h1.2v-.9h.8v.9h1.2v-.9h.8v.9zm-.75-.25h.5v-.5h-.5zm-1-1h.5v-.5h-.5zm-1 1h.5v-.5h-.5zm-1-1h.5v-.5h-.5zm1.5-1.5h-.5v.5h.5zm-1-1h-.5v.5h.5zm2 0h-.5v.5h.5zm1 1h-.5v.5h.5zM8.1 9.9h.8v-.8h-.8zm-2 0h.8v-.8h-.8zm-1 1h.8v-.8h-.8zm2 0h.8v-.8h-.8zm2 0h.8v-.8h-.8zm1-1h.8v-.8h-.8zm1 1h.8v-.8h-.8zm1-1h.8v-.8h-.8z"/></svg>