<svg id="icons" xmlns="http://www.w3.org/2000/svg" viewBox="0 0 24 24"><path d="M6 4l5.5 6L17 4zm2.273 1h6.454L11.5 8.52zM0 12v8h23v-8zm20.9 7v-.9h-.8v.9h-1.2v-.9h-.8v.9h-1.2v-.9h-.8v.9h-1.2v-.9h-.8v.9h-1.2v-.9h-.8v.9h-1.2v-.9h-.8v.9H8.9v-.9h-.8v.9H1v-6h6.1v.9h.8V13h1.2v.9h.8V13h1.2v.9h.8V13h1.2v.9h.8V13h1.2v.9h.8V13h1.2v.9h.8V13h1.2v.9h.8V13h1.2v.9h.9v1.2h-.9v.8h.9v1.2h-.9v.8h.9V19zM7.1 15.1h.8v.8h-.8zm0 2h.8v.8h-.8zm1-1h.8v.8h-.8zm0-2h.8v.8h-.8zm1 1h.8v.8h-.8zm0 2h.8v.8h-.8zm1-1h.8v.8h-.8zm0-2h.8v.8h-.8zm1 1h.8v.8h-.8zm0 2h.8v.8h-.8zm1-1h.8v.8h-.8zm0-2h.8v.8h-.8zm1 1h.8v.8h-.8zm0 2h.8v.8h-.8zm1-1h.8v.8h-.8zm0-2h.8v.8h-.8zm1 1h.8v.8h-.8zm0 2h.8v.8h-.8zm1-1h.8v.8h-.8zm0-2h.8v.8h-.8zm1 1h.8v.8h-.8zm0 2h.8v.8h-.8zm1-1h.8v.8h-.8zm0-2h.8v.8h-.8zm1 1h.8v.8h-.8zm0 2h.8v.8h-.8zm1-1h.8v.8h-.8zm0-2h.8v.8h-.8zm-18.85-.85h.5v.5h-.5zm2 0h.5v.5h-.5zm1 1h.5v.5h-.5zm-2 0h.5v.5h-.5zm-1 1h.5v.5h-.5zm2 0h.5v.5h-.5zm1 1h.5v.5h-.5zm-2 0h.5v.5h-.5zm-1 1h.5v.5h-.5zm2 0h.5v.5h-.5zm1 1h.5v.5h-.5zm-2 0h.5v.5h-.5zm3-5h.5v.5h-.5zm1 1h.5v.5h-.5zm14.5-.5h-.5v-.5h.5zm1 1h-.5v-.5h.5zm-1 .5v.5h-.5v-.5zm1 1.5h-.5v-.5h.5zm-1.5.5h.5v.5h-.5zm1 1h.5v.5h-.5zm-2 0h.5v.5h-.5zm.5-2v.5h-.5v-.5zm0-1.5h-.5v-.5h.5zm-1-1h-.5v-.5h.5zm0 1.5v.5h-.5v-.5zm-1-.5h-.5v-.5h.5zm0 1.5v.5h-.5v-.5zm.5 1h.5v.5h-.5zm-1 1h.5v.5h-.5zm-1-1h.5v.5h-.5zm.5-2v.5h-.5v-.5zm0-1.5h-.5v-.5h.5zm-1 1h-.5v-.5h.5zm0 1.5v.5h-.5v-.5zm-.5 2h.5v.5h-.5zm-10-3h.5v.5h-.5zm1 1h.5v.5h-.5zm-1 1h.5v.5h-.5zm1 1h.5v.5h-.5z"/></svg>