<?xml version="1.0" encoding="UTF-8"?><svg id="icons" xmlns="http://www.w3.org/2000/svg" viewBox="0 0 16 16"><defs><style>.cls-1{fill:none;}.cls-1,.cls-2{stroke-width:0px;}</style></defs><path class="cls-2" d="M6.75391,12.52832v-.96814l-1.79144,1.79156-1.41394-1.41449L11.55646,3.92932l1.41333,1.41461-1.40601,1.40607h.96796c.13251,0,.26141.02209.38348.06177l1.36127-1.36139c-.00018-.00061-.00055-.0011-.00055-.0011l1.4455-1.44232c.39056-.39056.36096-.99329-.02966-1.38489l-1.41388-1.41388c-.3916-.39062-.99432-.42023-1.38489-.02966L2.84113,11.23047l-1.75568,4.09613c-.05988.13959-.02869.30151.07874.40894.10736.10736.26929.13855.40887.07874l4.09619-1.75574,1.14655-1.14667c-.03973-.12213-.06189-.25104-.06189-.38354ZM13.354,2.13177c.11963-.11963.31366-.11963.43329,0l.98096.9809c.05743.0575.08972.13544.08972.21667s-.03229.15918-.08972.21667l-1.09052,1.09045-1.41418-1.41425,1.09045-1.09045ZM2.62433,14.2757l.55414-1.2937.7392.7392-1.29333.5545ZM16.00024,12.55847v-1.117l-1.21692-.47113c-.0332-.08972-.07068-.17737-.11212-.26276l.53467-1.16302-.77118-.76471-1.19354.52673c-.0863-.03973-.17487-.07538-.26544-.10681l-.44373-1.19977h-1.08667l-.47095,1.2204c-.08978.03326-.17749.0708-.26294.11224l-1.16302-.53467-.76465.77118.52673,1.19348c-.03973.08636-.07544.17493-.10687.2655l-1.19977.44373v1.05627l1.19977.44373c.03143.09058.06714.17914.10687.26544l-.52673,1.19348.76465.77124,1.16302-.53473c.08545.0415.17316.07898.26294.11224l.47095,1.22046h1.08667l.44373-1.19977c.09058-.03143.17914-.06714.26544-.10687l1.19354.52673.77118-.76471-.53467-1.16296c.04144-.08539.07892-.17303.11212-.26276l1.21692-.47119ZM14.18268,12.39441c-.05658.31531-.17981.60748-.35455.86139l.36493.79303-.16119.15924-.7674-.3858c-.25336.17621-.54529.3009-.86047.35901l-.30249.81873h-.22614l-.26959-.81683c-.31543-.05652-.60767-.17969-.86176-.35449l-.7926.36475-.1593-.16052.38525-.76801c-.17596-.25299-.3006-.54437-.35876-.85907l-.81775-.30389v-.20386l.81775-.30396c.05817-.31464.1828-.60602.35876-.85907l-.38525-.76801.1593-.16052.7926.36475c.25409-.17474.54633-.29797.86176-.35449l.26959-.81677h.22614l.30249.81873c.31519.05804.60712.1828.86047.35901l.7674-.38586.16119.1593-.36493.79297c.17474.25397.29797.54614.35455.86139l.81561.27087v.24719l-.81561.27081ZM13,12c0,.55228-.44772,1-1,1s-1-.44772-1-1,.44772-1,1-1,1,.44772,1,1Z"/><rect class="cls-1" width="16" height="16"/></svg>