<svg id="icons" xmlns="http://www.w3.org/2000/svg" viewBox="0 0 32 32"><defs><style>.cls-1{fill:none;}</style></defs><path d="M12,28V21h1.75024L13.75,20.92334A1.24152,1.24152,0,0,1,14.16815,20H12V12h8v3.07245l.09961.04571.5918-1.5542A1.22872,1.22872,0,0,1,21,13.11975V12h7v2.32239a1.23187,1.23187,0,0,1,.72559.3324L29,14.92719V3H3V29H16.92664l-1.00751-1ZM21,4h7v7H21ZM12,4h8v7H12ZM11,28H4V21h7Zm0-8H4V12h7Zm0-9H4V4h7Zm12.00006,8A2.99989,2.99989,0,1,0,25.991,21.99988,2.9999,2.9999,0,0,0,23.00006,19Zm0,4.99976a1.99988,1.99988,0,1,1,1.99988-1.99988A1.99985,1.99985,0,0,1,23.00006,23.99976Zm5.86969-.12854L31,23.082l-.00793-2.22229-2.20148-.83765-.31842-.84857.9494-2.066L27.84515,15.542l-2.14911.96527-.8258-.37683-.78919-2.13025-2.22125.00788-.83771,2.20147-.84851.31849-2.066-.94947L16.542,17.155l.96527,2.149-.37683.8258-2.13025.78925.00788,2.22125,2.20153.83765.31843.84857-.94941,2.066L18.155,28.45813l2.14911-.96521.82477.37677L21.91815,30l2.22223-.00793.83771-2.20148.84851-.31848,2.066.94946,1.56561-1.57648-.96527-2.149Zm-1.21417,3.3731-1.80939-.83166-1.60791.58954-.75867,1.9942-.89685.00281-.69073-1.8639-1.55481-.72174-1.94519.8733-.63574-.63117.83117-1.80939-.58862-1.607-1.99512-.75958-.00323-.89545,1.86572-.69214.72125-1.55524-.8742-1.94519.63165-.6358,1.8089.83167,1.60791-.58954.75867-1.9942.89636-.00367.69079,1.86573,1.55524.72076,1.94519-.87323.63623.63208L27.413,19.15393l.5882,1.607,1.99512.75958.00323.89636-1.86529.69214-.72217,1.55157.87469,1.948Z"/><rect class="cls-1" width="32" height="32"/></svg>