<svg id="icons" xmlns="http://www.w3.org/2000/svg" viewBox="0 0 24 24"><path d="M23 1.5A1.502 1.502 0 0 0 21.5 0h-20A1.502 1.502 0 0 0 0 1.5v16A1.502 1.502 0 0 0 1.5 19h6.793l3.207 4.207L14.707 19H21.5a1.502 1.502 0 0 0 1.5-1.5zm-1 16a.5.5 0 0 1-.5.5h-7.288L11.5 21.558 8.788 18H1.5a.5.5 0 0 1-.5-.5v-16a.5.5 0 0 1 .5-.5h20a.5.5 0 0 1 .5.5zm-8-8A2.5 2.5 0 1 1 11.5 7 2.5 2.5 0 0 1 14 9.5zM11.5 8A1.5 1.5 0 1 0 13 9.5 1.5 1.5 0 0 0 11.5 8zm.903 7.894h-1.757l-.63-1.69-.668-.315-1.735.775-1.243-1.243.756-1.644-.251-.696-1.769-.678V8.646l1.69-.63.315-.668-.775-1.735L7.579 4.37l1.644.756.696-.251.678-1.769h1.758l.628 1.69.67.316 1.73-.771 1.242 1.243-.751 1.639.251.696 1.769.678v1.758l-1.69.628-.316.67.771 1.73-1.238 1.247-1.644-.756-.696.251zm-1.2-.801h.65l.613-1.597 1.348-.485 1.433.658.46-.462-.698-1.564.608-1.296 1.476-.55v-.65l-1.597-.613-.485-1.347.655-1.431-.46-.46-1.563.695-1.296-.608-.55-1.476h-.65l-.613 1.597-1.348.485-1.435-.66-.46.46.701 1.567-.61 1.297-1.475.55v.65l1.597.613.485 1.348-.66 1.435.46.46 1.567-.701 1.297.61z"/></svg>