<svg xmlns="http://www.w3.org/2000/svg" viewBox="0 0 16 16"><path d="M8 5l1 1v1L8 8H7L6 7V6l1-1zm7-4v11a1.001 1.001 0 01-1 1H9.328L7.5 15.828 5.672 13H1a1.001 1.001 0 01-1-1V1a1.001 1.001 0 011-1h13a1.001 1.001 0 011 1zm-3 4.867l-1.31-.504a3.35 3.35 0 00-.169-.392l.777-1.438-.864-.864-1.425.799a3.355 3.355 0 00-.372-.159L8.133 2H6.867l-.504 1.31a3.355 3.355 0 00-.392.169l-1.438-.777-.864.864.799 1.425a3.33 3.33 0 00-.159.372L3 5.867v1.266l1.31.504a3.336 3.336 0 00.169.392l-.777 1.438.864.864 1.425-.799a3.342 3.342 0 00.372.159L6.867 11h1.266l.504-1.31a3.344 3.344 0 00.392-.169l1.438.777.864-.864-.799-1.425a3.33 3.33 0 00.159-.372L12 7.133z"/></svg>