<svg xmlns="http://www.w3.org/2000/svg" viewBox="0 0 24 24"><path d="M14 9.5A2.5 2.5 0 1111.5 7 2.5 2.5 0 0114 9.5zm9-8v16a1.502 1.502 0 01-1.5 1.5h-6.793L11.5 23.207 8.293 19H1.5A1.502 1.502 0 010 17.5v-16A1.502 1.502 0 011.5 0h20A1.502 1.502 0 0123 1.5zm-5 7.082l-1.795-.688c-.072-.212-.158-.42-.26-.707l.766-1.669-1.264-1.263-1.756.782c-.2-.097-.405-.185-.683-.317L12.368 3h-1.786l-.688 1.795c-.212.072-.42.158-.707.26l-1.673-.77L6.25 5.548l.787 1.76c-.097.2-.185.406-.317.684L5 8.632v1.786l1.795.688c.072.212.158.42.26.707l-.77 1.673 1.263 1.264 1.76-.787c.2.097.406.185.684.317l.64 1.72h1.786l.688-1.795c.212-.072.42-.158.707-.26l1.673.77 1.259-1.268-.782-1.756c.097-.2.185-.405.317-.683l1.72-.64z"/></svg>