<svg xmlns="http://www.w3.org/2000/svg" viewBox="0 0 16 16"><path d="M3.309 8.5a2 2 0 0 0 .492-.645l.162-.486A2 2 0 1 0 .69 8.5 1.987 1.987 0 0 0 0 10v1h1v-1a1 1 0 0 1 2 0v.257l.516-1.547a2 2 0 0 0-.207-.21zM1 7a1 1 0 1 1 1 1 1.001 1.001 0 0 1-1-1zm14.309 1.5a2.002 2.002 0 1 0-3.272-1.13l.162.485a2 2 0 0 0 .492.645 2 2 0 0 0-.207.21L13 10.257V10a1 1 0 0 1 2 0v1h1v-1a1.987 1.987 0 0 0-.691-1.5zM13 7a1 1 0 1 1 1 1 1.001 1.001 0 0 1-1-1zM8 5a1.001 1.001 0 0 1 1 1h1a1.987 1.987 0 0 0-.691-1.5 2 2 0 1 0-2.618 0A1.987 1.987 0 0 0 6 6h1a1.001 1.001 0 0 1 1-1zM7 3a1 1 0 1 1 1 1 1.001 1.001 0 0 1-1-1zm5.974 10.342l-.948.316-.053-.158L10.14 8H5.86l-1.833 5.5-.053.158-.948-.316 1.886-5.658A.998.998 0 0 1 5.86 7h4.28a.999.999 0 0 1 .948.684z"/></svg>