<svg id="icons" xmlns="http://www.w3.org/2000/svg" viewBox="0 0 24 24"><defs><style>.cls-1{fill:none;}</style></defs><path d="M9,16h2.63568l.75983-.28271L12.07416,15H9V9h6v3.12292l.65234.29944.333-.86963c.0036-.00946.0108-.01641.01465-.02575V9h5v3.07672l.13477-.06012A1.10028,1.10028,0,0,1,22,11.97845V2H2V22h9.989a1.23654,1.23654,0,0,1,.06085-.84277L12.12213,21H9ZM16,3h5V8H16ZM9,3h6V8H9ZM8,21H3V16H8Zm0-6H3V9H8ZM8,8H3V3H8Zm10,8a2,2,0,1,0,2,2A2,2,0,0,0,18,16Zm0,3a1,1,0,1,1,1-1A1,1,0,0,1,18,19Zm6-.19812v-1.6496l-1.65967-.636-.23553-.65345.70471-1.53778L21.6438,13.15839l-1.624.724-.62775-.296L18.80188,12h-1.6496l-.636,1.65967-.65345.23553-1.54242-.70935-1.16662,1.16669.72766,1.62756-.29511.62781L12,17.19812v1.6496l1.65967.636.23553.65345-.70929,1.54235,1.16663,1.16669,1.62762-.72766.62775.29511L17.19812,24h1.6496l.636-1.65973.65345-.23553,1.54242.70935,1.162-1.17029-.724-1.624.296-.62775Zm-2.23975,2.51221-.41034.413-1.28076-.58844-1.20569.4339L18.31519,23H17.7337L17.243,21.68079l-1.16028-.5448-1.40039.62689-.41119-.41126.59015-1.28247-.4339-1.20569L13,18.31519V17.7337l1.31921-.49066.54474-1.16028-.62683-1.40039.4112-.41119,1.28253.59015,1.20569-.4339L17.68481,13h.58149l.49066,1.31915,1.15851.54395,1.39691-.62164.41211.41125-.58582,1.27985.4339,1.204L23,17.68481v.58149l-1.31921.4906-.54389,1.15857Z"/><rect class="cls-1" width="24" height="24"/></svg>