<?xml version="1.0" encoding="UTF-8"?><svg id="icons" xmlns="http://www.w3.org/2000/svg" viewBox="0 0 24 24"><defs><style>.cls-1{fill:none;}.cls-1,.cls-2{stroke-width:0px;}</style></defs><path class="cls-2" d="M10.5,16.50293c0-.20898.12988-.39551.32568-.46875l1.0592-.39362.13959-.13965-.43652-.97705-4.67834,4.67834-2.11169-2.11096L18.09106,3.79852l2.11127,2.11096-5.70624,5.70624.96808.44525.09534-.0954.43854-1.14429c.07422-.19336.25977-.32129.4668-.32129h.56018l4.14966-4.15002s-.00024-.00098-.00031-.00153l1.80139-1.79761c.48682-.48682.44989-1.2381-.03699-1.7262l-1.76233-1.76233c-.4881-.48688-1.23938-.5238-1.7262-.03699-5.91418,5.91418-9.5755,9.5755-15.90149,15.90155l-2.34259,5.46527c-.04932.11517-.02362.24878.065.3374.08856.08856.22217.11432.33734.06494l5.46533-2.34253,3.42615-3.42645v-.52258ZM20.15723,1.73242c.03809-.0376.0752-.0542.12109-.0542.06348,0,.13379.03369.19238.09229l1.76074,1.76123c.01758.01758.1709.17871.03711.31152l-1.35919,1.35919-2.11127-2.11096,1.35913-1.35907ZM2.80859,21.19238l1.40265-3.2738,1.87115,1.87054-3.2738,1.40326ZM20,18c0,1.10457-.89543,2-2,2s-2-.89543-2-2,.89543-2,2-2,2,.89543,2,2ZM18,17c-.55228,0-1,.44772-1,1s.44772,1,1,1,1-.44772,1-1-.44772-1-1-1ZM19.48373,22.34031l.65343-.23553,1.54239.70933,1.16206-1.17031-.724-1.62395.29601-.62777,1.58638-.59019v-1.64961l-1.65969-.63602-.23553-.65343.70475-1.5378-1.16572-1.16664-1.62395.724-.62777-.29601-.59019-1.58638h-1.64961l-.63602,1.65969-.65343.23553-1.54239-.70933-1.16664,1.16664.72766,1.62762-.2951.62777-1.58638.59019v1.64961l1.65969.63602.23553.65343-.70933,1.54239,1.16664,1.16664,1.62762-.72766.62777.2951.59019,1.58638h1.64961l.63602-1.65969ZM17.24306,21.68081l-1.16029-.54479-1.40038.62686-.41121-.41121.59019-1.28252-.43391-1.20569-1.42745-.54828v-.58146l1.31919-.49066.54479-1.16029-.62686-1.40038.41121-.41121,1.28252.59019,1.20569-.43391.54828-1.42745h.58146l.49066,1.31919,1.15855.54391,1.39689-.62162.41208.41121-.58582,1.2799.43391,1.20395,1.42745.54828v.58146l-1.31919.49066-.54391,1.15855.62336,1.39864-.41034.41296-1.28078-.58844-1.20569.43391-.54828,1.42745h-.58146l-.49066-1.31919Z"/><rect class="cls-1" width="24" height="24"/></svg>