<?xml version="1.0" encoding="UTF-8"?><svg id="icons" xmlns="http://www.w3.org/2000/svg" viewBox="0 0 32 32"><defs><style>.cls-1{fill:none;}.cls-1,.cls-2{stroke-width:0px;}</style></defs><path class="cls-2" d="M12.5,21.9248c-.00195-.62793.3916-1.19531.97949-1.41211l1.04352-.38702.17957-.1795-.4386-.97516-6.29297,6.29333-2.23474-2.23499L22.52905,6.23608l2.23468,2.23468-6.83441,6.83478.96893.44476.11981-.11975.43994-1.15594c.21924-.57715.78076-.96582,1.39746-.9668l.28625-.00098,6.41406-6.41431c.28442-.28418.44421-.66974.44421-1.07178.00006-.40198-.15967-.7876-.44403-1.07178l-1.50604-1.50543c-.59186-.59161-1.55084-.59137-2.14258.00043C16.65283,10.69843,4.32227,23.0293,4.32227,23.0293l-2.31378,5.39386c-.07013.16278-.03387.35187.09143.47717s.31439.16156.47717.09149l5.40967-2.32965,4.5141-4.51422-.00085-.22314ZM24.61426,4.15088c.09766-.09717.22656-.15088.36426-.15088s.26758.05371.36426.15088l1.50586,1.50488c.09766.09766.15137.22754.15137.36523,0,.13574-.05566.26855-.15137.36475l-1.37787,1.37799-2.23468-2.23468,1.37817-1.37817ZM3.49121,27.50928l1.59833-3.71265,2.11389,2.11426-3.71222,1.59839ZM22.00006,20c-1.65674,0-2.99988,1.34308-2.99988,2.99988s1.34314,2.99988,2.99988,2.99988,2.99994-1.34308,2.99994-2.99988-1.34314-2.99988-2.99994-2.99988ZM22.00006,24.99976c-1.10449,0-1.99982-.89539-1.99982-1.99988s.89532-1.99988,1.99982-1.99988,1.99988.89539,1.99988,1.99988-.89539,1.99988-1.99988,1.99988ZM21.58301,30.99902c-.41797,0-.79199-.25977-.9375-.65234l-.54785-1.47754-.76709-.35547-1.52881.68555c-.13184.05957-.271.08789-.40918.08789-.25928,0-.51416-.10059-.70557-.29102l-.63574-.63184c-.29736-.29492-.37891-.74512-.20361-1.12695l.65918-1.43359-.29004-.79199-1.56885-.59766c-.38623-.14746-.64258-.51758-.64404-.93066l-.00342-.89551c-.00146-.41992.25879-.7959.65234-.94141l1.47949-.54883.35596-.76758-.68701-1.52832c-.16992-.37793-.08936-.82129.20264-1.11523l.63135-.63574c.19189-.19238.44873-.29492.70996-.29492.14111,0,.2832.03027.41748.0918l1.43408.65918.79248-.29102.59668-1.56738c.14697-.38672.5166-.64258.93018-.64453,0,0,.89941-.00391.90088-.00391.41846,0,.79248.26074.93799.65332l.54736,1.47949.76709.35547,1.52881-.68652c.13184-.05957.271-.08789.40918-.08789.25879,0,.51367.10059.70507.29004l.63624.63184c.29785.2959.37939.74609.2041,1.12793l-.65918,1.43359.28955.79102,1.56885.59766c.38623.14746.64258.51758.64404.93066l.00342.89648c.00146.41992-.25879.7959-.65186.94141l-1.48047.5498-.35547.76367.68701,1.53125c.16943.37695.08936.82031-.20215,1.11328l-.63086.63574c-.19189.19336-.44922.2959-.71045.2959-.14062,0-.2832-.03027-.41699-.09082l-1.43506-.65918-.79248.29004-.59668,1.56738c-.14697.38672-.51758.64355-.93115.64453,0,0-.89893.00293-.8999.00293ZM21.58277,29.9992l.89683-.00277.75868-1.99418,1.60791-.58957,1.80937.83168.63115-.63577-.87465-1.94798.72218-1.55155,1.86527-.69214-.00323-.89637-1.99511-.7596-.58818-1.60699.83122-1.80844-.63624-.63208-1.94521.87326-1.55524-.72079-.69076-1.86574-.89637.0037-.75868,1.99418-1.60791.58957-1.8089-.83168-.63161.63577.87419,1.94521-.72125,1.55524-1.86574.69214.00323.89544,1.99511.7596.58864,1.60699-.83122,1.80937.63577.63115,1.94521-.87326,1.55478.72171.69076,1.86389Z"/><rect class="cls-1" width="32" height="32"/></svg>