<svg xmlns="http://www.w3.org/2000/svg" viewBox="0 0 24 24"><path d="M2.898 13.58a2.49 2.49 0 0 1 2.072-.537 2.325 2.325 0 0 1 1.19.621l.382-.982a3.355 3.355 0 0 0-.439-.28 2.5 2.5 0 1 0-3.215-.007A3.485 3.485 0 0 0 1 15.5V17h1v-1.5a2.495 2.495 0 0 1 .898-1.92zM3 10.5A1.5 1.5 0 1 1 4.5 12 1.502 1.502 0 0 1 3 10.5zm18.103 1.902a2.5 2.5 0 1 0-3.215-.007 3.495 3.495 0 0 0-.43.285l.376.968c.023-.021.04-.047.064-.067a2.489 2.489 0 0 1 2.072-.538A2.609 2.609 0 0 1 22 15.647V17h1v-1.353a3.647 3.647 0 0 0-1.897-3.245zM18 10.5a1.5 1.5 0 1 1 1.5 1.5 1.502 1.502 0 0 1-1.5-1.5zM10 9a1.99 1.99 0 0 1 .764-1.572 2.018 2.018 0 0 1 1.74-.367A2.063 2.063 0 0 1 13.99 9h.667a1.975 1.975 0 0 1 .336.05 3.167 3.167 0 0 0-1.44-2.608 2.5 2.5 0 1 0-3.098.009 2.937 2.937 0 0 0-.311.192A2.983 2.983 0 0 0 9 9v.052A1.978 1.978 0 0 1 9.342 9zm.5-4.5A1.5 1.5 0 1 1 12 6a1.502 1.502 0 0 1-1.5-1.5zm8.466 14.819l-.932.362L14.658 11H9.342l-3.376 8.681-.932-.362 3.376-8.681A.993.993 0 0 1 9.342 10h5.316a.994.994 0 0 1 .932.638z"/></svg>