<svg xmlns="http://www.w3.org/2000/svg" viewBox="0 0 32 32"><path d="M15.5 10a3.5 3.5 0 1 0 3.5 3.5 3.5 3.5 0 0 0-3.5-3.5zm0 6a2.5 2.5 0 1 1 2.5-2.5 2.5 2.5 0 0 1-2.5 2.5zM28 1H3a2 2 0 0 0-2 2v20a2 2 0 0 0 2 2h8.257l4.276 6.33L19.81 25H28a2 2 0 0 0 2-2V3a2 2 0 0 0-2-2zm1 22a1.001 1.001 0 0 1-1 1h-8.722l-3.745 5.543L11.79 24H3a1.001 1.001 0 0 1-1-1V3a1.001 1.001 0 0 1 1-1h25a1.001 1.001 0 0 1 1 1zm-5.1-8.364l-.009-2.333-2.311-.88c-.094-.273-.204-.54-.335-.89l.997-2.17-1.655-1.644-2.256 1.014c-.258-.126-.523-.24-.867-.396L16.635 5.1l-2.332.009-.88 2.311c-.273.094-.54.204-.89.335l-2.17-.997L8.72 8.413l1.014 2.256c-.126.258-.239.524-.396.867l-2.236.829.008 2.332 2.311.88c.094.273.204.54.335.89l-.997 2.17 1.655 1.644 2.256-1.014c.258.126.523.239.866.396l.829 2.236 2.333-.008.88-2.311c.273-.094.54-.204.89-.335l2.17.997 1.644-1.655-1.014-2.256c.126-.258.24-.523.396-.866zm-2.7 3.833l-.68.685-1.951-.896-.79.298c-.175.066-.332.127-.491.182l-.453.155-.818 2.15-.967.004-.745-2.01-.747-.34c-.181-.082-.342-.153-.5-.23l-.429-.208-2.097.941-.686-.68.896-1.951-.298-.792c-.067-.174-.128-.33-.181-.488l-.155-.453-2.152-.819-.003-.965 2.012-.747.333-.736c.084-.185.157-.35.235-.511l.21-.43L9.8 8.531l.68-.685 1.951.896.79-.298c.176-.067.333-.128.491-.183l.453-.154.818-2.15.966-.005.745 2.012.735.334c.187.084.352.156.513.235l.429.208 2.097-.941.686.681-.896 1.95.293.776c.069.18.13.341.186.504l.155.453 2.152.819.003.966-2.011.747-.325.715c-.087.193-.162.362-.243.527l-.21.43z"/></svg>