<svg id="icons" xmlns="http://www.w3.org/2000/svg" viewBox="0 0 16 16"><defs><style>.cls-1{fill:none;}</style></defs><path d="M6.85858,11a1.24089,1.24089,0,0,1,.71173-.70068l.14551-.05371-.0752-.17188c-.01055-.02386-.011-.0495-.02-.07373H6V6h4V7.63837c.0235.00909.04816.01312.07129.02374l.13965.06445.06836-.17627A1.2412,1.2412,0,0,1,11,6.84186V6h3V7.6214a1.25263,1.25263,0,0,1,.43457-.09161A1.23622,1.23622,0,0,1,15,7.68427V1H1V15H7.67224a1.242,1.242,0,0,1-.05163-1H6V11ZM11,2h3V5H11ZM6,2h4V5H6ZM5,14H2V11H5Zm0-4H2V6H5ZM5,5H2V2H5Zm11.00024,7.55847v-1.117l-1.21691-.47113q-.04981-.13458-.11213-.26276l.53467-1.163-.77118-.76471-1.19354.52673q-.12945-.0596-.26544-.10681L12.532,8H11.44531l-.47094,1.2204q-.13469.04989-.26294.11224L9.5484,8.798l-.76465.77118.52674,1.19348q-.05961.12956-.10688.26551l-1.19976.44372v1.05628l1.19976.44372q.04716.13587.10688.26544l-.52674,1.19349.76465.77124,1.163-.53473q.12817.06225.26294.11224L11.44531,16H12.532l.44373-1.19977q.13586-.04715.26544-.10687l1.19354.52673.77118-.76471-.53467-1.163q.06217-.12809.11213-.26276Zm-1.81756-.16406a2.20519,2.20519,0,0,1-.35456.86139l.36493.793-.16119.15924-.76739-.3858a2.20668,2.20668,0,0,1-.86048.359L12.1015,15h-.22613l-.2696-.81683a2.20525,2.20525,0,0,1-.86175-.3545l-.7926.36475-.15931-.16052.38526-.768a2.20536,2.20536,0,0,1-.35877-.85907l-.81775-.30389v-.20386l.81775-.304a2.20612,2.20612,0,0,1,.35877-.85907l-.38526-.768.15931-.16052.7926.36474a2.20628,2.20628,0,0,1,.86175-.35449L11.87537,9h.22613l.30249.81873a2.20579,2.20579,0,0,1,.86048.359l.76739-.38586.16119.1593-.36493.793a2.20593,2.20593,0,0,1,.35456.86139l.81561.27087v.2472ZM13,12a1,1,0,1,1-1-1A1,1,0,0,1,13,12Z"/><rect class="cls-1" width="16" height="16"/></svg>