<svg xmlns="http://www.w3.org/2000/svg" viewBox="0 0 24 24"><path d="M11 15.5a4.5 4.5 0 114.5 4.5 4.5 4.5 0 01-4.5-4.5zm4.499-7.4a7.4 7.4 0 107.4 7.4 7.408 7.408 0 00-7.4-7.4zm.001 13.2A5.798 5.798 0 019.725 16h-.7A6.53 6.53 0 019 15.5a6.5 6.5 0 0113 0c0 .169-.013.334-.025.5h-.7a5.798 5.798 0 01-5.775 5.3zM8.5 4a4.497 4.497 0 00-.979 8.886 8.432 8.432 0 015.365-5.365A4.497 4.497 0 008.5 4zM7.1 15.5a8.385 8.385 0 01.12-1.356A5.793 5.793 0 012.724 9h-.7A6.53 6.53 0 012 8.5a6.5 6.5 0 0112.853-1.368c.214-.016.428-.032.646-.032.09 0 .177.01.266.013a7.398 7.398 0 10-8.652 8.653c-.003-.09-.013-.176-.013-.266z"/></svg>