<svg xmlns="http://www.w3.org/2000/svg" viewBox="0 0 24 24"><path d="M15.501 22.9a7.4 7.4 0 117.399-7.4 7.41 7.41 0 01-7.399 7.4zm0-14.1a6.7 6.7 0 106.7 6.7 6.708 6.708 0 00-6.7-6.7zM15.5 20.9a5.407 5.407 0 01-5.399-5.3h.8a4.6 4.6 0 009.198 0h.8a5.407 5.407 0 01-5.399 5.3zm-8.59-5.173a7.4 7.4 0 118.817-8.817h-.002a3.435 3.435 0 00-.226-.01c-.158 0-.313.011-.47.022l-.023.002A6.697 6.697 0 001.8 8.5a6.749 6.749 0 005.123 6.507l-.001.016c-.01.159-.022.317-.022.477 0 .074.005.146.01.219zM19.1 15.4a3.6 3.6 0 00-7.198 0h-.8a4.4 4.4 0 018.798 0zM7.09 13.707A5.391 5.391 0 013.101 8.6h.8a4.585 4.585 0 003.398 4.327 8.389 8.389 0 00-.209.78zM4.101 8.4a4.392 4.392 0 018.635-1.039 8.391 8.391 0 00-.736.294 3.6 3.6 0 00-7.1.745z"/></svg>