<svg xmlns="http://www.w3.org/2000/svg" viewBox="0 0 16 16"><path d="M10.5 5.05a5.45 5.45 0 105.45 5.45 5.457 5.457 0 00-5.45-5.45zm0 10.05a4.6 4.6 0 114.6-4.6 4.605 4.605 0 01-4.6 4.6zm0-1.2a3.404 3.404 0 01-3.398-3.3h.8a2.6 2.6 0 005.196 0h.8a3.404 3.404 0 01-3.398 3.3zm1.597-3.5a1.6 1.6 0 00-3.194 0h-.801a2.4 2.4 0 014.796 0zm-8.19.253a5.397 5.397 0 116.747-6.747A2.698 2.698 0 0010.5 3.9a6.505 6.505 0 00-.693.04A4.588 4.588 0 103.94 9.806a6.418 6.418 0 00-.04.694c0 .052.003.103.006.153zm.272-2.03A3.373 3.373 0 012.102 5.6h.8a2.583 2.583 0 001.55 2.274 6.55 6.55 0 00-.273.748zM3.102 5.4a2.396 2.396 0 014.59-.866 6.65 6.65 0 00-.708.386A1.585 1.585 0 005.5 3.9a1.602 1.602 0 00-1.597 1.5z"/></svg>