<svg xmlns="http://www.w3.org/2000/svg" viewBox="0 0 32 32"><path d="M9.247 18.759c-.04.264-.077.53-.1.8A8.411 8.411 0 013.1 11.5h.8a7.613 7.613 0 005.347 7.259zM9.12 20.89A9.7 9.7 0 1120.89 9.12c.245.008.492.013.733.036A10.4 10.4 0 109.157 21.623c-.024-.241-.029-.488-.037-.733zM11.5 4.1a7.408 7.408 0 00-7.4 7.4h.8a6.598 6.598 0 0112.868-2.056c.26-.064.523-.12.79-.166A7.412 7.412 0 0011.5 4.1zm1.646 9.046a10.4 10.4 0 110 14.708 10.397 10.397 0 010-14.708zm.495.495a9.7 9.7 0 1013.718 0 9.71 9.71 0 00-13.718 0zM28.1 20.5a7.6 7.6 0 01-15.2 0h-.8a8.4 8.4 0 0016.8 0zm-7.6-7.4a7.408 7.408 0 00-7.4 7.4h.8a6.6 6.6 0 0113.2 0h.8a7.408 7.408 0 00-7.4-7.4z"/></svg>