<?xml version="1.0" encoding="UTF-8"?><svg id="icons" xmlns="http://www.w3.org/2000/svg" viewBox="0 0 24 24"><defs><style>.cls-1{fill:none;}.cls-1,.cls-2,.cls-3{stroke-width:0px;}.cls-2{opacity:.25;}</style></defs><path class="cls-2" d="M15,5H5v-3h10v3Z"/><rect class="cls-1" width="24" height="24"/><path class="cls-3" d="M16.28998,1H4v12h1V2h10v6h6v15H5v-2h-1v3h18V6.70898l-5.71002-5.70898ZM21,7h-5V2h.20001l4.79999,4.79999v.20001ZM5.50278,17.42413l-1.414-1.41443,4.18365-4.18365,1.41345,1.41449-4.18311,4.18359ZM11.41104,11.47278l-.73431.73431-1.41418-1.41418.73431-.73431c.07806-.07812.20471-.07812.28284,0l1.13135,1.13135c.07812.07812.07812.20471,0,.28284ZM4.33688,18.37927l-2.08612.8396.83905-2.08673,1.24707,1.24713Z"/></svg>