<svg xmlns="http://www.w3.org/2000/svg" viewBox="0 0 16 16"><path d="M11.724 12.017A5.474 5.474 0 0013 8.5a5.403 5.403 0 00-.145-1.234l.812-.812.779-.779a7.477 7.477 0 01-2.01 8.462l-2.108-2.102.708-.707zM0 8.5a7.475 7.475 0 002.563 5.636l2.109-2.1-.708-.708-.688.689A5.474 5.474 0 012.026 9H3V8h-.975a5.474 5.474 0 011.251-3.017l.688.688.708-.707-.689-.688A5.474 5.474 0 017 3.026V4h1v-.975a5.467 5.467 0 013.319 1.535l.714-.714.707-.707A7.497 7.497 0 000 8.499zm14.444-5.651l.707.707-6.301 6.3a1.514 1.514 0 11-.707-.706zM8 10.499a.5.5 0 10-.5.5.501.501 0 00.5-.5z"/></svg>