<svg xmlns="http://www.w3.org/2000/svg" viewBox="0 0 24 24"><path d="M11 6.146a7.338 7.338 0 00-4.342 1.8L7.973 9.26l-.707.707-1.315-1.316A7.338 7.338 0 004.146 13H6v1H4.149a7.324 7.324 0 001.81 4.346l1.29-1.29.707.708c-2.174 2.174-.987.974-2.767 2.817l.002.002-.694.725A10.492 10.492 0 1118.86 6.018L17.18 7.7l.182-.182-.71.71A7.353 7.353 0 0012 6.145V8h-1zm7.503 15.162a10.473 10.473 0 002.19-12.88l-.487.487-.259.259-1.597 1.597a7.303 7.303 0 01-1.301 7.565L15.75 17.04l-.707.707 2.774 2.828-.01.009zm3.022-16.54l-8.648 8.648a2.505 2.505 0 10.707.707l8.648-8.648z"/></svg>