<svg xmlns="http://www.w3.org/2000/svg" viewBox="0 0 32 32"><path d="M16 19.95v-1A3.487 3.487 0 0018.95 16h1A4.477 4.477 0 0116 19.95zM6.025 15h1A8.498 8.498 0 0115 7.025v-1A9.497 9.497 0 006.025 15zM15 19.95v-1A3.487 3.487 0 0112.05 16h-1A4.477 4.477 0 0015 19.95zm1-8.9v1A3.487 3.487 0 0118.95 15h1A4.477 4.477 0 0016 11.05zM11.05 15h1A3.487 3.487 0 0115 12.05v-1A4.477 4.477 0 0011.05 15zM16 1.924A13.545 13.545 0 0129.076 15h.9A14.444 14.444 0 0016 1.024zM29.076 16A13.545 13.545 0 0116 29.076v.9A14.444 14.444 0 0029.976 16zM1.924 15A13.545 13.545 0 0115 1.924v-.9A14.444 14.444 0 001.024 15zM15 24.975v-1A8.498 8.498 0 017.025 16h-1A9.497 9.497 0 0015 24.975zm0 4.101A13.545 13.545 0 011.924 16h-.9A14.444 14.444 0 0015 29.976zm1-23.05v1A8.498 8.498 0 0123.975 15h1A9.497 9.497 0 0016 6.025zM24.975 16h-1A8.498 8.498 0 0116 23.975v1A9.497 9.497 0 0024.975 16z"/></svg>