<svg xmlns="http://www.w3.org/2000/svg" viewBox="0 0 24 24"><path d="M13 14.816V13h1.816A2.99 2.99 0 0113 14.816zm-2 0V13H9.184A2.99 2.99 0 0011 14.816zM13 3.06A9.013 9.013 0 0120.941 11h2.009A10.995 10.995 0 0013 1.05zM9.184 11H11V9.184A2.99 2.99 0 009.184 11zM5.08 11H7.1A5.015 5.015 0 0111 7.101V5.08A6.993 6.993 0 005.08 11zM13 9.184V11h1.816A2.99 2.99 0 0013 9.184zm-2 9.736V16.9A5.015 5.015 0 017.101 13H5.08A6.993 6.993 0 0011 18.92zm0 2.021A9.013 9.013 0 013.059 13H1.05A10.995 10.995 0 0011 22.95zM20.941 13A9.013 9.013 0 0113 20.941v2.009A10.995 10.995 0 0022.95 13zM3.059 11A9.013 9.013 0 0111 3.059V1.05A10.995 10.995 0 001.05 11zM13 5.08V7.1a5.015 5.015 0 013.899 3.9h2.021A6.993 6.993 0 0013 5.08zM18.92 13H16.9a5.015 5.015 0 01-3.9 3.899v2.021A6.993 6.993 0 0018.92 13z"/></svg>