<svg id="icons" xmlns="http://www.w3.org/2000/svg" viewBox="0 0 24 24"><path d="M10.431 20.98C4.967 20.79 2 19.168 2 18.309v-6.325C3.676 13.173 7.294 14 11.5 14s7.824-.827 9.5-2.017v1.235l.915-.364c.028-.012.057-.015.085-.025V5.5C22 3.566 17.298 2 11.5 2S1 3.566 1 5.5v12.808c0 2.034 4.682 3.684 10.464 3.691l-.859-.807a2.441 2.441 0 0 1-.174-.211zM11.5 13C5.232 13 2 11.248 2 10.5V6.983C3.676 8.173 7.294 9 11.5 9s7.824-.827 9.5-2.017V10.5c0 .748-3.232 2.5-9.5 2.5zm0-10C17.768 3 21 4.752 21 5.5S17.768 8 11.5 8 2 6.248 2 5.5 5.232 3 11.5 3zm10.991 11.819l.7.715-7.684 7.522-3.531-3.32.685-.73 2.832 2.664z"/></svg>