<svg xmlns="http://www.w3.org/2000/svg" viewBox="0 0 32 32"><path d="M17 20.661v-1.898A3.601 3.601 0 0018.763 17h1.9A5.374 5.374 0 0117 20.661zm0-10.324v1.898A3.602 3.602 0 0118.764 14h1.899A5.376 5.376 0 0017 10.337zm0-7.34A12.595 12.595 0 0128.003 14h1.92A14.506 14.506 0 0017 1.077zM14 20.66v-1.898A3.601 3.601 0 0112.237 17h-1.9A5.374 5.374 0 0014 20.661zM5.22 14h1.82A8.597 8.597 0 0114 7.038V5.22A10.39 10.39 0 005.22 14zm5.117 0h1.899A3.602 3.602 0 0114 12.235v-1.898A5.376 5.376 0 0010.337 14zm-7.34 0A12.595 12.595 0 0114 2.996v-1.92A14.506 14.506 0 001.077 14zm25.006 3A12.592 12.592 0 0117 28.002v1.92A14.502 14.502 0 0029.922 17zM14 28.002A12.592 12.592 0 012.998 17h-1.92A14.502 14.502 0 0014 29.921zM25.78 17h-1.82A8.594 8.594 0 0117 23.96v1.819A10.388 10.388 0 0025.78 17zM14 25.779v-1.82A8.594 8.594 0 017.04 17H5.22A10.388 10.388 0 0014 25.779zm3-20.56v1.82A8.597 8.597 0 0123.96 14h1.82A10.39 10.39 0 0017 5.22z"/></svg>