<?xml version="1.0" encoding="UTF-8"?><svg id="icons" xmlns="http://www.w3.org/2000/svg" viewBox="0 0 16 16"><defs><style>.cls-1{fill:none;}</style></defs><path d="M14,6h-4v-1h4v1ZM2,10.30957V5.5957c0-.29199,.13672-.71191,.78711-1.05957,.25244-.13379,.55859-.24609,.91113-.33301,.27344-.06738,.57666-.12109,.90137-.15625,.57227-.06055,1.22949-.06055,1.7998,0,.32568,.03516,.62891,.08887,.90234,.15625,.35254,.08691,.65869,.19922,.91064,.33301,.65088,.34766,.7876,.76758,.7876,1.05957v4.71387c0,1.10938-1.76074,1.69043-3.5,1.69043s-3.5-.58105-3.5-1.69043Zm1.00586-4.70312c.02197,.00684,.08643,.07715,.25195,.16504,.17383,.09375,.40869,.17773,.67968,.24512,.23438,.05859,.49219,.10352,.76856,.13281,.50195,.05273,1.08496,.05273,1.58887,0,.27539-.0293,.5332-.07422,.76562-.13281,.27295-.06738,.50781-.15137,.68066-.24414,.14746-.0791,.21533-.14355,.24414-.17676-.02832-.03418-.0957-.09863-.24316-.17676-.17627-.09375-.41162-.17871-.67969-.24512-.23339-.05762-.49169-.10352-.76855-.13281-.50195-.05273-1.08496-.05273-1.58887,0-.27588,.0293-.53418,.0752-.76758,.13281-.26806,.06641-.50341,.15137-.68017,.24512-.16553,.08789-.22998,.1582-.25146,.1875Zm-.00586,1.8457c-.00439-.01758,.02832,.05469,.25781,.17676,.17627,.09375,.41162,.17871,.67968,.24512,.2334,.05762,.4917,.10254,.76856,.13184,.50488,.05469,1.08398,.05469,1.58691,0,.27783-.0293,.53613-.07422,.76953-.13184,.26807-.06641,.50342-.15137,.68018-.24512,.19574-.10461,.24756-.17999,.25732-.19641v-.68414c-.2063,.09076-.43323,.17358-.69824,.23895-.27246,.06836-.57617,.12109-.90137,.15625-.28613,.03027-.58838,.04688-.90039,.04688s-.61426-.0166-.89941-.04688c-.32617-.03516-.62988-.08789-.9043-.15625-.26324-.06525-.48975-.14819-.69629-.2392v.70404Zm0,2.85742c.04199,.20508,.94336,.69043,2.5,.69043s2.45801-.48535,2.5-.69336v-1.70117c-.20825,.09143-.43549,.1745-.69824,.23926-.27344,.06738-.57666,.12012-.90137,.15527-.28467,.03125-.5874,.04785-.90039,.04785s-.61572-.0166-.90137-.04785c-.32373-.03516-.62695-.08789-.90039-.15527-.26288-.06482-.49017-.14795-.69824-.23938v1.70422Zm11-3.30957h-4v1h4v-1Zm2-6V15H0V1H16Zm-1,1H1V14H15V2Zm-2,7h-3v1h3v-1Z"/><rect class="cls-1" width="16" height="16"/></svg>