<?xml version="1.0" encoding="UTF-8"?><svg id="icons" xmlns="http://www.w3.org/2000/svg" viewBox="0 0 32 32"><defs><style>.cls-1{fill:none;}</style></defs><g><rect x="20.06249" y="16" width="7.875" height="1"/><rect x="20.06249" y="12" width="7.875" height="1"/><path d="M11,22.7998c3.39355,0,7-1.05176,7-3v-7.7998c0-.4668-.24707-1.14941-1.42334-1.75293-.5-.25488-1.11719-.47168-1.83398-.64258-.5752-.13672-1.20264-.24121-1.86572-.30957-1.21875-.125-2.53467-.125-3.75439,0-.6626,.06836-1.29004,.17285-1.86572,.30957-.71631,.1709-1.3335,.3877-1.83398,.64258-1.17578,.60352-1.42285,1.28613-1.42285,1.75293v7.7998c0,1.94824,3.60645,3,7,3ZM5.87842,11.1377c.4292-.21973,.97119-.4082,1.61035-.56055,.5332-.12695,1.11768-.22363,1.73682-.28809,.5752-.05859,1.17236-.08887,1.77441-.08887s1.19922,.03027,1.77393,.08887c.61963,.06445,1.2041,.16113,1.73682,.28809,.63965,.15234,1.18164,.34082,1.61035,.56055,.55029,.28223,.87891,.60449,.87891,.8623s-.32861,.58008-.87891,.86133c-.42822,.21973-.96973,.4082-1.60986,.56152-.5332,.12695-1.11768,.22363-1.73682,.28809-1.15039,.11719-2.39893,.11719-3.54834,0-.61963-.06445-1.2041-.16113-1.73682-.28809-.64062-.15332-1.18213-.3418-1.61084-.56152-.5498-.28125-.87842-.60352-.87842-.86133s.32861-.58008,.87842-.8623Zm-.87842,2.36786c.12616,.08313,.26477,.16553,.42285,.2464,.49902,.25586,1.11621,.47168,1.83447,.64355,.5752,.13672,1.20264,.24121,1.86572,.30957,.60938,.0625,1.24072,.09473,1.87695,.09473s1.26758-.03223,1.87744-.09473c.6626-.06836,1.29004-.17285,1.86572-.30957,.71777-.17188,1.33496-.3877,1.8335-.64355,.15826-.08093,.29706-.16345,.42334-.24664v1.8443c0,.25879-.32861,.58105-.87842,.8623-.4292,.21973-.97119,.4082-1.61084,.56055-.53271,.12793-1.1167,.22461-1.73682,.28809-1.14355,.11914-2.40332,.11914-3.54883,0-.61914-.06348-1.20312-.16016-1.73584-.28809-.63965-.15234-1.18164-.34082-1.61084-.56055-.5498-.28125-.87842-.60352-.87842-.8623v-1.84406Zm0,3.35034c.12628,.08319,.26508,.16571,.42334,.24664,.5,.25488,1.11719,.47168,1.8335,.64258,.5752,.1377,1.20361,.24219,1.86572,.30957,.60596,.06348,1.2373,.0957,1.87744,.0957s1.27148-.03223,1.87646-.0957c.66309-.06738,1.2915-.17188,1.8667-.30957,.71631-.1709,1.3335-.3877,1.8335-.64258,.15826-.08093,.29706-.16345,.42334-.24664v2.94391c0,.83496-2.28271,2-6,2s-6-1.16504-6-2v-2.94391Z"/><rect x="20.03125" y="20" width="5.96875" height="1"/><path d="M1,4V28H31V4H1ZM30,27H2V5H30V27Z"/></g><rect class="cls-1" width="32" height="32"/></svg>