<svg xmlns="http://www.w3.org/2000/svg" viewBox="0 0 32 32"><path d="M14.679 27.985C7.526 27.826 3 25.647 3 24.125v-8.241C5.01 17.711 9.846 19 15.5 19s10.49-1.29 12.5-3.116v3.598l1-.985V7.875h-.017C28.803 5.171 22.841 3 15.5 3S2.198 5.17 2.017 7.875H2v16.25c0 2.681 6.001 4.857 13.418 4.874l-.238-.227a1.99 1.99 0 0 1-.501-.787zm.821-23.96C23.13 4.026 28 6.38 28 8s-4.87 3.974-12.5 3.974S3 9.621 3 8s4.87-3.974 12.5-3.974zM3 11.116V9.884C5.01 11.711 9.846 13 15.5 13S25.99 11.71 28 9.884v5C25.99 16.711 21.154 18 15.5 18S5.01 16.71 3 14.884zm27.547 8.666l.701.712L20.513 31.07l-3.957-3.75.687-.725L20.5 29.68z"/></svg>