<svg id="icons" xmlns="http://www.w3.org/2000/svg" viewBox="0 0 16 16"><path d="M14 4.498C13.997 3.118 11.312 2 8 2S2.003 3.118 2 4.498V11.5c0 1.11 1.74 2.05 4.144 2.377l-.47-.47a1.497 1.497 0 0 1-.394-.712C3.787 12.337 3 11.758 3 11.5V8.88A9.97 9.97 0 0 0 8 10a12.197 12.197 0 0 0 3.65-.52l1.817-1.815a1.496 1.496 0 0 1 .533-.34zM8 3c3.281 0 5 1.113 5 1.5C13 4.885 11.281 6 8 6S3 4.885 3 4.5C3 4.113 4.719 3 8 3zm0 6a9.97 9.97 0 0 1-5-1.12v-2A9.97 9.97 0 0 0 8 7a9.97 9.97 0 0 0 5-1.12v2A9.97 9.97 0 0 1 8 9zm6.527-.274l.738.737-5.708 5.705-2.822-2.822.738-.738 2.084 2.088z"/></svg>