<?xml version="1.0" encoding="UTF-8"?><svg id="icons" xmlns="http://www.w3.org/2000/svg" viewBox="0 0 24 24"><defs><style>.cls-1{fill:none;}</style></defs><path d="M1,3V21H23V3H1ZM22,20H2V4H22V20Zm-1-11h-6v-1h6v1Zm0,3h-6v-1h6v1Zm-1,3h-5v-1h5v1Zm-12,1.81543c2.48486,0,5-.78516,5-2.28516v-5.53027c0-.36133-.19189-.88281-1.10791-1.31641-.35547-.16797-.79102-.30957-1.29541-.42188-.40381-.08887-.84033-.15625-1.29688-.20117-.8252-.07812-1.77393-.07812-2.6001,0-.45605,.04492-.89258,.1123-1.29785,.20117-.50293,.1123-.93848,.25391-1.29541,.42188-.91455,.43359-1.10645,.95508-1.10645,1.31641v5.53027c0,1.5,2.51514,2.28516,5,2.28516Zm-3.46631-8.22754c.28516-.13379,.66064-.25488,1.08447-.34961,.36523-.08008,.76172-.1416,1.17773-.18164,.38232-.03711,.78613-.05664,1.2041-.05664s.82178,.01953,1.20361,.05664c.4165,.04004,.81299,.10156,1.17676,.18164,.42529,.09473,.80078,.21582,1.08447,.34961,.43994,.20801,.53516,.38086,.53516,.41211s-.09521,.2041-.53369,.41211c-.28516,.13379-.66064,.25488-1.08447,.34961-.36523,.08008-.76172,.1416-1.17773,.18164-.76465,.07422-1.64404,.07422-2.40771,0-.4165-.04004-.81299-.10156-1.17676-.18164-.42529-.09473-.80078-.21582-1.08447-.34961-.43994-.20801-.53516-.38086-.53516-.41211s.09521-.2041,.53369-.41211Zm-.53369,1.67078c.03711,.01917,.06812,.03888,.10791,.05774,.35547,.16797,.79102,.30957,1.29541,.42188,.40381,.08887,.84033,.15625,1.29688,.20117,.4126,.03906,.84863,.06055,1.2998,.06055s.88721-.02148,1.30029-.06055c.45605-.04492,.89258-.1123,1.29785-.20117,.50293-.1123,.93848-.25391,1.29541-.42188,.03925-.01862,.06982-.03815,.10645-.05707v.79047c0,.03125-.09521,.20508-.53369,.41211-.28516,.13379-.66064,.25488-1.08447,.34961-.36523,.08008-.76172,.1416-1.17773,.18164-.76465,.07422-1.64404,.07422-2.40771,0-.4165-.04004-.81299-.10156-1.17676-.18164-.42529-.09473-.80078-.21582-1.08545-.34961-.43896-.20703-.53418-.38086-.53418-.41211v-.79114Zm0,2.04999c.03711,.01904,.06812,.03882,.10791,.05756,.35547,.16797,.79102,.30957,1.29541,.42188,.40381,.08887,.84033,.15625,1.29688,.20117,.4126,.03906,.84863,.06055,1.2998,.06055s.88721-.02148,1.30029-.06055c.45605-.04492,.89258-.1123,1.29785-.20117,.50293-.1123,.93848-.25391,1.29443-.42188,.03961-.01868,.0705-.03833,.10742-.05731v2.22137c0,.51172-1.59521,1.28516-4,1.28516s-4-.77344-4-1.28516v-2.22162Z"/><rect class="cls-1" width="24" height="24"/></svg>