<svg xmlns="http://www.w3.org/2000/svg" viewBox="0 0 24 24"><path d="M12 14.95v-1A2.507 2.507 0 0013.95 12h1A3.487 3.487 0 0112 14.95zm0-6.9v1A2.507 2.507 0 0113.95 11h1A3.487 3.487 0 0012 8.05zm-1 6.9v-1A2.507 2.507 0 019.05 12h-1A3.487 3.487 0 0011 14.95zm1-13.025A9.596 9.596 0 0121.075 11h.9A10.481 10.481 0 0012 1.025zM5.025 11h1A5.506 5.506 0 0111 6.025v-1A6.502 6.502 0 005.025 11zm3.026 0h1A2.507 2.507 0 0111 9.05v-1A3.487 3.487 0 008.05 11zm13.024 1A9.596 9.596 0 0112 21.075v.9A10.48 10.48 0 0021.975 12zM11 21.075A9.596 9.596 0 011.925 12h-.9A10.48 10.48 0 0011 21.975zm0-3.1v-1A5.506 5.506 0 016.025 12h-1A6.502 6.502 0 0011 17.975zM1.925 11A9.596 9.596 0 0111 1.925v-.9A10.481 10.481 0 001.025 11zM12 5.025v1A5.506 5.506 0 0116.975 11h1A6.502 6.502 0 0012 5.025zM17.975 12h-1A5.506 5.506 0 0112 16.975v1A6.502 6.502 0 0017.975 12z"/></svg>