<svg xmlns="http://www.w3.org/2000/svg" viewBox="0 0 16 16"><path d="M3.25 7A4.272 4.272 0 017 3.25v.812A3.476 3.476 0 004.062 7zM8 4.062A3.476 3.476 0 0110.938 7h.812A4.272 4.272 0 008 3.25zm-1 6.876A3.476 3.476 0 014.062 8H3.25A4.272 4.272 0 007 11.75zM10.938 8A3.475 3.475 0 018 10.938v.812A4.272 4.272 0 0011.75 8zM1.14 7A6.389 6.389 0 017 1.139V.225A7.29 7.29 0 00.225 7zM8 1.139A6.389 6.389 0 0113.861 7h.914A7.29 7.29 0 008 .225zM7 13.86A6.388 6.388 0 011.14 8H.224A7.29 7.29 0 007 14.775zM13.861 8A6.388 6.388 0 018 13.861v.914A7.29 7.29 0 0014.775 8zM8.8 7.5a1.3 1.3 0 10-1.3 1.3 1.3 1.3 0 001.3-1.3z"/></svg>