<svg id="icons" xmlns="http://www.w3.org/2000/svg" viewBox="0 0 16 16"><defs><style>.cls-1{fill:none;}</style></defs><path d="M15.5,10H2.5a.5.5,0,0,0-.5.5v4a.5.5,0,0,0,.5.5h13a.5.5,0,0,0,.5-.5v-4A.5.5,0,0,0,15.5,10ZM15,14H3V11H15ZM16,3.5v4a.5.5,0,0,1-.5.5H2.5A.5.5,0,0,1,2,7.5v-4A.5.5,0,0,1,2.5,3H4.87891l1,1H3V7H15V4H11V3h4.5A.5.5,0,0,1,16,3.5ZM10,2V6H6V5H8.293L5.61084,2.31787A4.47211,4.47211,0,0,0,2.42871,1H0V0H2.42871A5.46445,5.46445,0,0,1,6.31787,1.61084L9,4.293V2Z"/><rect class="cls-1" width="16" height="16"/></svg>