<svg id="icons" xmlns="http://www.w3.org/2000/svg" viewBox="0 0 32 32"><defs><style>.cls-1{fill:none;}</style></defs><path d="M29.42871,20H2.57129A.57144.57144,0,0,0,2,20.57129v7.85742A.57148.57148,0,0,0,2.57129,29H29.42871A.57148.57148,0,0,0,30,28.42871V20.57129A.57144.57144,0,0,0,29.42871,20ZM29,28H3V21H29ZM30,7.57129v7.85742A.57148.57148,0,0,1,29.42871,16H2.57129A.57148.57148,0,0,1,2,15.42871V7.57129A.57144.57144,0,0,1,2.57129,7H8.87891l1,1H3v7H29V8H17V7H29.42871A.57144.57144,0,0,1,30,7.57129ZM16,5v7H9V11h5.293L9.19678,5.90381A6.45762,6.45762,0,0,0,4.60059,4H0V3H4.60059A7.45077,7.45077,0,0,1,9.90381,5.19678L15,10.293V5Z"/><rect class="cls-1" width="32" height="32"/></svg>