<svg xmlns="http://www.w3.org/2000/svg" viewBox="0 0 16 16"><path d="M7.5 6a2.477 2.477 0 00-1.5.511V4H5v7h1v-.611A2.875 2.875 0 007.6 11 2.417 2.417 0 0010 8.5 2.5 2.5 0 007.5 6zm0 4.1A1.584 1.584 0 016 8.5a1.602 1.602 0 011.5-1.6 1.6 1.6 0 010 3.2zM3.524 6.594A1.97 1.97 0 001.994 6a2.029 2.029 0 00-1.66.717L1 7.263s.2-.363.994-.363a1.034 1.034 0 01.787.262A1.367 1.367 0 013 8.088c-1.883 0-3.002.252-2.9 1.693A1.498 1.498 0 001.725 11 1.6 1.6 0 003 10.393V11h1V7.974a2.049 2.049 0 00-.476-1.38zm-1.698 3.46c-.595 0-.881-.2-.9-.554C.89 8.842 3 8.905 3 8.905a1.176 1.176 0 01-1.174 1.15zm13.354.286a2.5 2.5 0 11-.004-3.683l-.635.638A1.586 1.586 0 0013.5 6.9a1.6 1.6 0 101.043 2.803z"/></svg>