<?xml version="1.0" encoding="UTF-8"?><svg id="icons" xmlns="http://www.w3.org/2000/svg" viewBox="0 0 24 24"><rect width="24" height="24" style="fill:none; stroke-width:0px;"/><path d="M9.90002,5.99963c-1.31708,0-2.50897.52832-3.39044,1.37659l-.75671-.67065c1.06573-1.05377,2.52997-1.70557,4.14716-1.70557,2.94513,0,5.37909,2.16022,5.82141,4.98114-.33722.22107-.65192.47327-.9375.75574-.08832-2.62518-2.23761-4.73724-4.88391-4.73724ZM8,13h3v-1h-3v1ZM2,6.44824c0-.68652.4043-1.30762,1.0293-1.58203l6.62988-2.91406c.2168-.0957.46777-.09277.68066-.00098l7.66016,3.36719v3.77197c.32599-.05505.65863-.09033,1-.09033v-4.33398L10.73926,1.03418c-.47168-.20312-1.00684-.2041-1.48047.00098L2.62695,3.9502c-.98828.43457-1.62695,1.41504-1.62695,2.49805v11.26562l7.77148,3.41663v-.40393c0-.22015.04437-.43384.11365-.63855l-6.88513-3.02649V6.44824ZM13,10h-5v1h5v-1ZM8,8v1h4v-1h-4ZM21,14.5c0,.82861-.67139,1.5-1.5,1.5s-1.5-.67139-1.5-1.5.67139-1.5,1.5-1.5,1.5.67139,1.5,1.5ZM20,14.5c0-.27539-.22461-.5-.5-.5s-.5.22461-.5.5.22461.5.5.5.5-.22461.5-.5ZM13.03436,15.63458c-.02203-.20868-.03436-.42017-.03436-.63458,0-.11853.01093-.23425.01776-.35107-.84985.70807-1.92761,1.15149-3.11774,1.15149-2.70215,0-4.90039-2.19824-4.90039-4.90039,0-.6593.13483-1.28674.37195-1.86139l-.78271-.69513c-.37347.77435-.58887,1.63928-.58887,2.55652,0,3.25842,2.64154,5.89996,5.90002,5.89996.91833,0,1.78418-.21588,2.5592-.59015l.57513-.57526ZM23,15c0,2.20856-1.79144,4-4,4-.30664,0-.60217-.04175-.88904-.10712l-.10706.10712h-1.00391v1l-.99512,1h-1.00488v1l-.98444.99017-.0224.00983h-2.99316v-2.27344l4.24591-4.39032c-.14966-.41974-.24591-.86517-.24591-1.33624,0-2.20862,1.79144-4,4-4s4,1.79138,4,4ZM22,15c0-1.6543-1.3457-3-3-3s-3,1.3457-3,3c0,.54993.15936,1.05896.4187,1.50262l-4.4187,4.59155v.90582h1.5918l.4082-.32611v-1.67389h2v-2h1.50507l.27197-.26672c.37445.16827.78656.26672,1.22296.26672,1.6543,0,3-1.3457,3-3Z" style="fill:#000; stroke-width:0px;"/></svg>