<?xml version="1.0" encoding="UTF-8"?><svg id="icons" xmlns="http://www.w3.org/2000/svg" viewBox="0 0 16 16"><defs><style>.cls-1{fill:none;}.cls-1,.cls-2{stroke-width:0px;}.cls-2{fill:#000;}</style></defs><path class="cls-2" d="M8.5,15.84961c-.22656,0-.43945-.08789-.60059-.24609L1.39941,9.10352c-.16113-.16406-.24902-.37695-.24902-.60352s.08789-.43945.24609-.60059L7.89648,1.39941c.32812-.32227.88184-.31934,1.2041-.00293l6.5,6.5c.16113.16406.24902.37695.24902.60352s-.08789.43945-.24609.60059l-6.5,6.5c-.16406.16113-.37695.24902-.60352.24902ZM2.20996,8.5l6.29004,6.29004,6.29004-6.29004-6.29004-6.29004-6.29004,6.29004ZM8.5,10.40527l1.90527-1.90527-1.90527-1.90527-1.90527,1.90527,1.90527,1.90527Z"/><rect class="cls-1" width="16" height="16"/></svg>