<?xml version="1.0" encoding="UTF-8"?><svg id="icons" xmlns="http://www.w3.org/2000/svg" viewBox="0 0 24 24"><defs><style>.cls-1{fill:none;}.cls-1,.cls-2{stroke-width:0px;}.cls-2{fill:#000;}</style></defs><path class="cls-2" d="M12.5,22.75c-.29785,0-.57812-.11621-.78809-.32617L2.5752,13.28809c-.43359-.43457-.43359-1.1416-.00098-1.5752L11.71191,2.57617c.41992-.41992,1.15625-.41992,1.57617,0l9.13672,9.13574c.43359.43457.43359,1.1416.00098,1.5752l-9.1377,9.13672c-.20996.20996-.49023.32617-.78809.32617ZM12.41895,3.2832L3.28223,12.41895c-.04297.04395-.04297.11816.00098.16309l9.2168,9.16797c.03125,0,.05859-.01074.08105-.0332l9.13672-9.13574c.04297-.04395.04297-.11816-.00098-.16309L12.58105,3.2832h-.16211ZM12.5,15.12315l2.62255-2.62315-2.62255-2.62315-2.62255,2.62315,2.62255,2.62315Z"/><rect class="cls-1" width="24" height="24"/></svg>