<?xml version="1.0" encoding="UTF-8"?><svg id="icons" xmlns="http://www.w3.org/2000/svg" viewBox="0 0 32 32"><defs><style>.cls-1{fill:none;}.cls-1,.cls-2{stroke-width:0px;}.cls-2{fill:#000;}</style></defs><path class="cls-2" d="M16.50029,30c-.4035,0-.7826-.16259-1.06786-.45857L3.44197,17.10066c-.28526-.29598-.44197-.68931-.44197-1.10797s.15671-.81199.44197-1.10797L15.43337,2.44397c.57053-.59195,1.56332-.59195,2.13385,0l11.99046,12.43979c.58836.6124.59023,1.60645.00282,2.21691l-11.99234,12.44077c-.28526.29598-.66436.45857-1.06786.45857ZM16.49977,3.22855c-.14372,0-.27916.05831-.3805.16346L4.3459,15.60658c-.10134.10515-.15754.24567-.15754.39575,0,.15199.05436.28868.15754.39575l11.77245,12.21457c.20361.21126.55739.21221.76284,0l11.77429-12.21457c.20914-.21795.20822-.57354-.00276-.79245L16.88027,3.39201c-.10319-.10706-.23493-.16346-.3805-.16346ZM16.5,20.25l3.75-3.75-3.75-3.75-3.75,3.75,3.75,3.75Z"/><rect class="cls-1" width="32" height="32"/></svg>