<?xml version="1.0" encoding="UTF-8"?><svg id="icons" xmlns="http://www.w3.org/2000/svg" viewBox="0 0 32 32"><defs><style>.cls-1{fill:none;}.cls-1,.cls-2{stroke-width:0px;}</style></defs><path class="cls-2" d="M19.5,9h-4c-.82715,0-1.5.67285-1.5,1.5v11c0,.82715.67285,1.5,1.5,1.5h4c.82715,0,1.5-.67285,1.5-1.5v-11c0-.82715-.67285-1.5-1.5-1.5ZM20,21.5c0,.27539-.22412.5-.5.5h-4c-.27588,0-.5-.22461-.5-.5v-11c0-.27539.22412-.5.5-.5h4c.27588,0,.5.22461.5.5v11ZM7.5,9H3.5c-.82715,0-1.5.67285-1.5,1.5v11c0,.82715.67285,1.5,1.5,1.5h4c.82715,0,1.5-.67285,1.5-1.5v-11c0-.82715-.67285-1.5-1.5-1.5ZM8,21.5c0,.27539-.22412.5-.5.5H3.5c-.27588,0-.5-.22461-.5-.5v-11c0-.27539.22412-.5.5-.5h4c.27588,0,.5.22461.5.5v11ZM11,22h1v1h-1v-1ZM30,22v1h-7v-1h3v-12h-3v-1h4v13h3Z"/><rect class="cls-1" width="32" height="32"/></svg>