<?xml version="1.0" encoding="UTF-8"?><svg id="icons" xmlns="http://www.w3.org/2000/svg" viewBox="0 0 16 16"><defs><style>.cls-1{fill:none;}.cls-1,.cls-2{stroke-width:0px;}</style></defs><path class="cls-2" d="M10,5h-2c-.55127,0-1,.44824-1,1v5c0,.55176.44873,1,1,1h2c.55127,0,1-.44824,1-1v-5c0-.55176-.44873-1-1-1ZM10,11h-2v-5h2v5ZM3,5H1c-.55127,0-1,.44824-1,1v5c0,.55176.44873,1,1,1h2c.55127,0,1-.44824,1-1v-5c0-.55176-.44873-1-1-1ZM3,11H1v-5h2v5ZM5,11h1v1h-1v-1ZM16,11v1h-4v-1h2v-5h-2v-1h3v6h1Z"/><rect class="cls-1" width="16" height="16"/></svg>