<?xml version="1.0" encoding="UTF-8"?><svg id="icons" xmlns="http://www.w3.org/2000/svg" viewBox="0 0 24 24"><defs><style>.cls-1{fill:none;}.cls-1,.cls-2{stroke-width:0px;}</style></defs><path class="cls-2" d="M8,17h1v1h-1v-1ZM16,8.25v8.5c0,.68945-.56055,1.25-1.25,1.25h-2.5c-.68945,0-1.25-.56055-1.25-1.25v-8.5c0-.68945.56055-1.25,1.25-1.25h2.5c.68945,0,1.25.56055,1.25,1.25ZM15,8.25c0-.1377-.1123-.25-.25-.25h-2.5c-.1377,0-.25.1123-.25.25v8.5c0,.1377.1123.25.25.25h2.5c.1377,0,.25-.1123.25-.25v-8.5ZM6,8.25v8.5c0,.68945-.56055,1.25-1.25,1.25h-2.5c-.68945,0-1.25-.56055-1.25-1.25v-8.5c0-.68945.56055-1.25,1.25-1.25h2.5c.68945,0,1.25.56055,1.25,1.25ZM5,8.25c0-.1377-.1123-.25-.25-.25h-2.5c-.1377,0-.25.1123-.25.25v8.5c0,.1377.1123.25.25.25h2.5c.1377,0,.25-.1123.25-.25v-8.5ZM21,17V7h-3v1h2v9h-2v1h5v-1h-2Z"/><rect class="cls-1" width="24" height="24"/></svg>