<svg xmlns="http://www.w3.org/2000/svg" viewBox="0 0 24 24"><path d="M6.324 4.647a3.952 3.952 0 0 1 1.02.15A6.972 6.972 0 0 1 13.484 1a7.131 7.131 0 0 1 6.933 6.297A5.186 5.186 0 0 1 24 12.226 4.695 4.695 0 0 1 19.596 17H16.05v-1h3.545A3.694 3.694 0 0 0 23 12.226a4.173 4.173 0 0 0-2.895-3.977l-.595-.193-.086-.62A6.164 6.164 0 0 0 13.483 2a5.988 5.988 0 0 0-5.254 3.265l-.373.703-.769-.206a2.965 2.965 0 0 0-.763-.115 2.473 2.473 0 0 0-2.532 2.318l-.041.563-.503.255A4.026 4.026 0 0 0 1 12.37 3.614 3.614 0 0 0 4.406 16h2.532v1H4.406a4.606 4.606 0 0 1-4.405-4.63 5.04 5.04 0 0 1 2.795-4.479 3.47 3.47 0 0 1 3.528-3.244zM11 11v10.292l-2.646-2.646-.707.707 3.854 3.854 3.853-3.852-.707-.707L12 21.294V11z"/></svg>