<svg xmlns="http://www.w3.org/2000/svg" viewBox="0 0 24 24"><path d="M24 11.226A4.695 4.695 0 0119.596 16H14v-2h5.595a2.708 2.708 0 002.406-2.774A3.175 3.175 0 0019.797 8.2l-1.19-.387-.173-1.24A5.16 5.16 0 0013.482 2a4.992 4.992 0 00-4.37 2.732L8.365 6.14l-1.538-.41a1.986 1.986 0 00-.504-.082 1.474 1.474 0 00-1.533 1.39l-.083 1.127-1.008.51a3.03 3.03 0 00-1.698 2.695A2.623 2.623 0 004.406 14H10v2H4.406a4.606 4.606 0 01-4.405-4.63 5.04 5.04 0 012.794-4.479 3.47 3.47 0 013.529-3.244 3.952 3.952 0 011.02.15A6.971 6.971 0 0113.482 0a7.131 7.131 0 016.933 6.297 5.186 5.186 0 013.586 4.929zm-8 6.315l-3 2.93V12h-2v8.47l-3-2.93v2.153l4 4 4-4z"/></svg>