<svg id="icons" xmlns="http://www.w3.org/2000/svg" viewBox="0 0 16 16"><path d="M4.216 3.476a2.588 2.588 0 0 1 .68.101A4.64 4.64 0 0 1 8.988 1a4.788 4.788 0 0 1 4.622 4.275A3.515 3.515 0 0 1 16 8.621 3.3 3.3 0 0 1 13.063 12H13v-1h.062A2.337 2.337 0 0 0 15 8.621a2.508 2.508 0 0 0-1.705-2.396l-.592-.196-.085-.618A3.808 3.808 0 0 0 8.988 2a3.652 3.652 0 0 0-3.205 2.039l-.37.714-.778-.21a1.592 1.592 0 0 0-.42-.067A1.34 1.34 0 0 0 2.86 5.75l-.04.56-.498.257A2.419 2.419 0 0 0 1 8.72 2.24 2.24 0 0 0 3 11h1v1H3a3.225 3.225 0 0 1-3-3.28 3.428 3.428 0 0 1 1.863-3.041 2.331 2.331 0 0 1 2.353-2.203zM8 7v7.277l-1.602-1.602-.707.707 2.809 2.81 2.809-2.81-.707-.707L9 14.277V7z"/></svg>