<svg xmlns="http://www.w3.org/2000/svg" viewBox="0 0 16 16"><path d="M16 7.621A3.3 3.3 0 0113.063 11H13v-1h.063A2.337 2.337 0 0015 7.621a2.508 2.508 0 00-1.705-2.396l-.592-.196-.085-.618A3.808 3.808 0 008.988 1a3.652 3.652 0 00-3.205 2.039l-.37.714-.778-.21a1.592 1.592 0 00-.42-.067A1.34 1.34 0 002.86 4.75l-.04.56-.498.257A2.419 2.419 0 001 7.72 2.24 2.24 0 003 10h1v1H3a3.225 3.225 0 01-3-3.28 3.428 3.428 0 011.863-3.041 2.331 2.331 0 012.353-2.203 2.588 2.588 0 01.68.101A4.64 4.64 0 018.988 0a4.788 4.788 0 014.622 4.275A3.515 3.515 0 0116 7.621zm-7 5.656V6H8v7.277l-1.602-1.602-.707.707 2.809 2.81 2.81-2.81-.708-.707z"/></svg>