<svg xmlns="http://www.w3.org/2000/svg" viewBox="0 0 32 32"><path d="M31.9 15.167C31.9 19.022 28.787 22 26 22h-7v-1.85h7.167c1.58 0 3.967-1.96 3.967-4.914a5.081 5.081 0 00-3.43-4.832l-1.182-.4-.177-1.237a7.709 7.709 0 00-7.361-6.817 7.416 7.416 0 00-6.475 4.052l-.754 1.413-1.551-.402a3.198 3.198 0 00-.804-.12 2.627 2.627 0 00-2.74 2.485l-.062 1.166-1.04.535a4.89 4.89 0 00-2.692 4.353c0 2.38 1.965 4.718 3.967 4.718H14V22H6C2.912 22 .1 18.784.1 15.36a6.802 6.802 0 013.733-6.061 4.572 4.572 0 014.692-4.337 5.073 5.073 0 011.293.182A9.278 9.278 0 0117.95.1a9.577 9.577 0 019.22 8.42 6.988 6.988 0 014.73 6.647zM11 23.761v2.908L16.5 32l5.5-5.33v-2.91l-4 3.842V16h-3v11.602z"/></svg>