<svg id="icons" xmlns="http://www.w3.org/2000/svg" viewBox="0 0 16 16"><defs><style>.cls-1{fill:none;}</style></defs><path d="M14,11.14221l1-.99988V15H10.01013l.05236-.02246a.99341.99341,0,0,0,.31349-.21192L11.14172,14H14ZM2,5.63867,6.92676,8.17285,14,2.97559V3.955a2.034,2.034,0,0,1,.98438.545L15,4.51562V1L6.83331,7,1,4V15H4.1499c.00873-.02344.009-.0481.01905-.07129L4.56683,14H2ZM15.72144,8.007l-1.4455,1.44232.00055.0011L9.66925,14.05853,5.57306,15.81427a.37137.37137,0,0,1-.48761-.48767l1.75568-4.09613L12.893,5.17853a.96533.96533,0,0,1,1.38488.02966l1.41388,1.41388A.96534.96534,0,0,1,15.72144,8.007ZM7.91766,13.72119l-.73919-.7392L6.62433,14.2757Zm5.05213-4.37726L11.55646,7.92932,7.54852,11.93726l1.41394,1.41449ZM14.858,7.32935a.30667.30667,0,0,0-.08972-.21668l-.981-.9809a.30644.30644,0,0,0-.43329,0L12.26355,7.22223l1.41418,1.41424L14.76825,7.546A.30665.30665,0,0,0,14.858,7.32935Z"/><rect class="cls-1" width="16" height="16"/></svg>