<svg id="icons" xmlns="http://www.w3.org/2000/svg" viewBox="0 0 24 24"><defs><style>.cls-1{fill:none;}</style></defs><path d="M9.167,20l-.42883,1H2V3.8l8.46155,5.6L22,1V7.81561a1.79431,1.79431,0,0,0-1,.02155V2.96484L10.48877,10.61719,3,5.66113V20ZM21,20H16.95435l-1.00007,1H22V14.95483l-1,.99994Zm2.68622-8.14545-10.32471,10.324L9.26532,23.93427a.37135.37135,0,0,1-.48761-.48761l1.75574-4.0962,10.309-10.309a.98.98,0,0,1,1.386,0l1.42817,1.42817A.96544.96544,0,0,1,23.68622,11.85455ZM12.557,21.43549l-1.28-1.28028-.96124,2.24036Zm8.24334-8.10987L19.38647,11.9115,11.9173,19.38141l1.41345,1.41376Zm1.86457-2.44537-.804-.83807a.41946.41946,0,0,0-.59918-.00617l-1.16827,1.1684,1.41388,1.41418L22.65887,11.467A.41931.41931,0,0,0,22.66492,10.88025Z"/><rect class="cls-1" width="24" height="24"/></svg>