<?xml version="1.0" encoding="UTF-8"?><svg id="icons" xmlns="http://www.w3.org/2000/svg" viewBox="0 0 16 16"><rect width="16" height="16" style="fill:none; stroke-width:0px;"/><rect x="5" y="2" width="3" height="9" style="fill:#6f6f6f; opacity:.25; stroke-width:0px;"/><path d="m9.61133,10.99414c-.37012-.15625-.61133-.51953-.61133-.92188v-5.07227c0-.55273.44727-1,1-1h1v-2h-3v9h1.62524l-.01392-.00586Z" style="fill:#6f6f6f; opacity:.5; stroke-width:0px;"/><path d="m11.35681,12H1V1h11v3h-1v-2H2v9h7.62524l1.76147.74121-.02991.25879Zm4.64319-7v5.0722l-2.46667,1.03888.46667,4.03473c0,.47174-.41718.85419-.93182.85419h-.13635c-.51465,0-.93182-.38245-.93182-.85419l.46667-4.03473-2.46667-1.03888v-5.0722h6Zm-1,3v-1c-.57141,0-.8631-.95239-1.297-.95239-.54108,0-.49347.51904-1.33331.51904-.42096,0-.84845-.79443-1.27271-.71112-.03632.00714-.0661.02325-.09698.03796v2.10651h4Z" style="stroke-width:0px;"/></svg>