<?xml version="1.0" encoding="UTF-8"?><svg id="icons" xmlns="http://www.w3.org/2000/svg" viewBox="0 0 32 32"><rect width="32" height="32" style="fill:none; stroke-width:0px;"/><rect x="11" y="4" width="7" height="20" style="fill:#6f6f6f; opacity:.25; stroke-width:0px;"/><path d="m23.62988,23.6084l-3.04785-1.40039c-.35449-.16309-.58203-.51758-.58203-.9082v-8.2998c0-.55273.44727-1,1-1h4V4h-7v20h5.58838l.0415-.3916Z" style="fill:#6f6f6f; opacity:.5; stroke-width:0px;"/><path d="m23.48242,25H3V3h23v9h-1V4H4v20h19.58838l-.10596,1Zm6.51758-12v8.29999l-3.70001,1.70001.70001,6.60223c0,.77197-.62579,1.39777-1.39771,1.39777h-.20459c-.77191,0-1.39771-.62579-1.39771-1.39777l.70001-6.60223-3.70001-1.70001v-8.29999h9Zm-8,5h7v-1.59619c-.1723.08661-.3634.1507-.59998.1507-.85718,0-1.19464-1.84021-1.84546-1.84021-.81171,0-.7403.8493-2,.8493-.63147,0-1.27277-1.29999-1.90912-1.16364-.29645.06354-.45764.32867-.64545.59338v3.00665Z" style="stroke-width:0px;"/></svg>