<?xml version="1.0" encoding="UTF-8"?><svg id="icons" xmlns="http://www.w3.org/2000/svg" viewBox="0 0 24 24"><rect width="24" height="24" style="fill:none; stroke-width:0px;"/><rect x="8" y="3" width="5" height="14" style="fill:#6f6f6f; opacity:.25; stroke-width:0px;"/><path d="m14.58203,16.36328c-.35449-.16309-.58203-.51758-.58203-.9082v-6.45508c0-.55273.44727-1,1-1h3V3h-5v14h2.96796l-1.38593-.63672Z" style="fill:#6f6f6f; opacity:.5; stroke-width:0px;"/><path d="m16.74249,18H2V2h17v6h-1V3H3v14h12.96796l.83966.38574-.06512.61426Zm5.25751-9v6.45551l-2.87781,1.32227.54449,5.13507c0,.6004-.48676,1.08716-1.0871,1.08716h-.15918c-.60034,0-1.0871-.48676-1.0871-1.08716l.54449-5.13507-2.87781-1.32227v-6.45551h7Zm-6,4h5v-1.27753c-.07855.01825-.15308.04218-.24445.04218-.66669,0-.92914-1.43134-1.43536-1.43134-.63129,0-.57574.66058-1.55554.66058-.49115,0-.98993-1.01111-1.48486-.90503-.11469.0246-.20184.09033-.27979.1731v2.73804Z" style="stroke-width:0px;"/></svg>