<svg xmlns="http://www.w3.org/2000/svg" viewBox="0 0 24 24"><path d="M2.7 16L8 10.706l3 3.001 3-3.001 2.63 2.628a5.44 5.44 0 0 1 1.144-.273l-3.067-3.063L20 4.703v8.516a5.538 5.538 0 0 1 1 .388V3H1v14h12.216a5.455 5.455 0 0 1 .406-1zm-.7-.715V4.703l5.293 5.295zM2.71 4h16.58L11 12.293zm18.294 10.764A4.499 4.499 0 1 0 18.5 23h.5v-1h-.5a3.504 3.504 0 0 1-3.5-3.5 3.462 3.462 0 0 1 .338-1.476A3.487 3.487 0 0 1 20.948 16H20v.513a2.477 2.477 0 0 0-1-.462 2.407 2.407 0 0 0-1.06.018c-.048.01-.093.029-.14.043a2.475 2.475 0 0 0-.389.148c-.04.02-.078.042-.117.064a2.49 2.49 0 0 0-.37.251l-.066.055a2.506 2.506 0 0 0-.366.394A2.477 2.477 0 0 0 16 18.5a2.495 2.495 0 0 0 4.233 1.795A1.497 1.497 0 0 0 23 19.5v-1a4.498 4.498 0 0 0-1.996-3.736zM18.5 20a1.5 1.5 0 1 1 1.5-1.5 1.502 1.502 0 0 1-1.5 1.5zm3.5-.5a.5.5 0 0 1-1 0v-3.447l.004.005A3.49 3.49 0 0 1 22 18.5z"/></svg>