<?xml version="1.0" encoding="UTF-8"?><svg id="icons" xmlns="http://www.w3.org/2000/svg" viewBox="0 0 32 32"><defs><style>.cls-1{fill:none;}.cls-2{fill:#231f20;}</style></defs><path class="cls-2" d="M20,22h6v1h-6v-1Zm-2-3h10v-1h-10v1Zm0-4h10v-1h-10v1Zm0-9h13V29H1V6H14V2h4V6Zm-3,1h2V3h-2V7Zm1,18.5c0-1.92969-1.57031-3.5-3.5-3.5H7.5c-1.92969,0-3.5,1.57031-3.5,3.5v2.5h12v-2.5Zm14,2.5V10H2V28h1v-2.5c0-2.48145,2.01855-4.5,4.5-4.5h5c2.48145,0,4.5,2.01855,4.5,4.5v2.5h13ZM18,7v1h-4v-1H2v2H30v-2h-12Zm-4,9c0,2.20557-1.79443,4-4,4s-4-1.79443-4-4,1.79443-4,4-4,4,1.79443,4,4Zm-1,0c0-1.6543-1.3457-3-3-3s-3,1.3457-3,3,1.3457,3,3,3,3-1.3457,3-3Z"/><rect class="cls-1" width="32" height="32"/></svg>