<?xml version="1.0" encoding="UTF-8"?><svg id="icons" xmlns="http://www.w3.org/2000/svg" viewBox="0 0 24 24"><defs><style>.cls-1{fill:none;}.cls-2{fill:#231f20;}</style></defs><path class="cls-2" d="M13,12h7v1h-7v-1Zm0,4h7v-1h-7v1Zm1,3h5v-1h-5v1Zm0-14h9V22H1V5H10V1h4V5Zm-3,1h2V2h-2V6Zm1,15v-.5c0-1.37891-1.12109-2.5-2.5-2.5h-3c-1.37891,0-2.5,1.12109-2.5,2.5v.5H12Zm10,0V9H2v12h1v-.5c0-1.92969,1.57031-3.5,3.5-3.5h3c1.92969,0,3.49,1.57031,3.49,3.5v.5h9.01ZM14,6v1h-4v-1H2v2H22v-2H14Zm-3.01,7c0,1.6543-1.3357,3-2.99,3s-3-1.3457-3-3,1.3457-3,3-3,2.99,1.3457,2.99,3Zm-.99,0c0-1.10303-.89697-2-2-2s-2,.89697-2,2,.89697,2,2,2,2-.89697,2-2Z"/><rect class="cls-1" width="24" height="24"/></svg>