<?xml version="1.0" encoding="UTF-8"?><svg id="icons" xmlns="http://www.w3.org/2000/svg" viewBox="0 0 16 16"><defs><style>.cls-1{fill:none;}.cls-2{fill:#231f20;}</style></defs><path class="cls-2" d="M10,8h4v1h-4v-1Zm0,3h4v-1h-4v1Zm1,2h2v-1h-2v1ZM10,0V3h6V15H0V3H6V0h4Zm-3,1V5h2V1h-2ZM1,4v1H6v-1H1Zm7,10v-.5c0-.82715-.67285-1.5-1.5-1.5h-2c-.82715,0-1.5,.67285-1.5,1.5v.5h5Zm-1-4.5c0-.82715-.67285-1.5-1.5-1.5s-1.5,.67285-1.5,1.5,.67285,1.5,1.5,1.5,1.5-.67285,1.5-1.5Zm8,4.5V6H1V14h1v-.5c0-1.07727,.68805-1.98883,1.6449-2.33972-.39648-.44263-.6449-1.02069-.6449-1.66028,0-1.37842,1.12109-2.5,2.5-2.5s2.49,1.12158,2.49,2.5c0,.63959-.23841,1.21765-.6349,1.66028,.95685,.35089,1.6449,1.26245,1.6449,2.33972v.5h6ZM10,4v1h5v-1h-5Z"/><rect class="cls-1" width="16" height="16"/></svg>