<svg id="icons" xmlns="http://www.w3.org/2000/svg" viewBox="0 0 32 32"><defs><style>.cls-1{fill:none;}</style></defs><path d="M4.73346,12.61237,3.8642,11.7431,5,4.9a15.37557,15.37557,0,0,0,4,.90515V6.81244A15.30794,15.30794,0,0,1,5.79492,6.2168ZM27,4.9a25.797,25.797,0,0,0-4.22034-.62835,4.48613,4.48613,0,0,1,.20093,1.02008,26.951,26.951,0,0,1,3.14343.4378l3.65137,21.999a37.22375,37.22375,0,0,0-6.313-.52832,22.21206,22.21206,0,0,0-3.82953.31158l.87848.87848A22.00228,22.00228,0,0,1,23.46222,28.2,33.15342,33.15342,0,0,1,31,29ZM16,22.269l-6-5.996V5.608C10,3.455,12.258,1,16,1s6,2.455,6,4.608V16.273Zm-5-6.41,5,4.997L21,15.859V5.607C21,4.095,19.262,2,16,2s-5,2.095-5,3.607V15.859Zm5-4.96a2.9,2.9,0,1,1,2.9-2.9A2.9,2.9,0,0,1,16,10.899Zm0-1a1.9,1.9,0,1,0-1.9-1.9A1.9,1.9,0,0,0,16,9.899ZM1.14648,11.85352l19,19,.707-.707-19-19ZM1.99585,23H3.0094l.166-1H2.1618ZM1.332,27H2.34552l.166-1H1.49792Zm.33191-2H2.67743l.166-1H1.82983Zm14.029,3.54883c-.23163.07483-.46185.14892-.69287.22186v1.04645c.69012-.21259,1.35712-.43573,2.04816-.64789l-.79871-.79871C16.06323,28.42987,15.877,28.48932,15.69287,28.54883ZM3,29.86359c.30328.105.63818.20965,1,.3103V29.12915c-.37048-.11017-.70428-.22168-1-.3316ZM2.32776,21H3.34131l.166-1H2.49377Zm1.51147-3H2.82568l-.166,1H3.67328ZM11,30.66925c.34967-.03772.6806-.084,1-.1355V29.523c-.31812.0542-.6507.10175-1,.14142ZM2.9917,17H4.00519l.12439-.74933-.86927-.86926ZM13,30.346q.51819-.11243,1-.2414V29.06909q-.48376.13641-1,.2544ZM1,29a10.32091,10.32091,0,0,0,1,.47949V28H1.166Zm6,1.72717c.32312.03.65833.04834,1,.05951v-1.006c-.34332-.01221-.67645-.03351-1-.06586Zm-2-.3078q.47754.10245,1,.18323V29.58429q-.52515-.08634-1-.19513Zm4,.36774c.34174-.00623.68567-.01148,1-.03021V29.75073c-.3172.01984-.65253.0318-1,.03827Z"/><rect class="cls-1" width="32" height="32"/></svg>