<svg id="icons" xmlns="http://www.w3.org/2000/svg" viewBox="0 0 16 16"><defs><style>.cls-1{fill:none;}</style></defs><path d="M16,15.28906a6.64508,6.64508,0,0,0-3.64893-1.081l-.97851-.97852c.26562-.01739.54053-.02929.835-.02929a8.30455,8.30455,0,0,1,2.48828.376L12.97559,3.41309a7.76313,7.76313,0,0,0-.975-.26355c-.00024-.23346-.00055-.38648-.0011-.40442a3.92277,3.92277,0,0,0-.08545-.628,8.12677,8.12677,0,0,1,1.95313.57116ZM2.93506,3.74023c.3103.06672.67187.13141,1.06885.17957V3.00049c-.00116-.03034.00622-.059.00579-.08917a10.11029,10.11029,0,0,1-1.87689-.423L1.91547,3.7724l.86731.86731ZM.35358,13h1.0141l.16925-1H.52289ZM2,15.65381c.30518.04993.63379.09222,1,.11743V14.76837a9.48429,9.48429,0,0,1-1-.13122Zm5.68066-1.60108c-.54962.18488-1.08722.36292-1.68066.49994v1.02539a25.416,25.416,0,0,0,2.678-.801l-.79273-.79272C7.8172,14.0072,7.74841,14.02991,7.68066,14.05273ZM.69214,11h1.0141l.16925-1H.86139ZM4,15.79327c.35632-.00622.688-.02777,1-.0614V14.72754c-.30731.0368-.64563.054-1,.061Zm-4-.70422a6.0208,6.0208,0,0,0,1,.35321V14H.18433ZM2.1687,8.26782l-.86731-.86731L1.03064,9h1.0141ZM8,10.01733l-2.998-2.998V3.02112a2.89848,2.89848,0,0,1,2.7901-2.997c.07227-.00275.14283-.006.21509-.00336a2.88749,2.88749,0,0,1,2.99072,2.78339q.00412.10848.00007.217V7.01935ZM6,6.58722l2.00012,1.998L10,6.58722s.002-3.71777,0-3.76318A1.90109,1.90109,0,0,0,8.04065,1.00568c-.001,0-.20752.00048-.22022,0A1.90373,1.90373,0,0,0,6,3.00323ZM9.25,3A1.249,1.249,0,0,0,8.002,1.75H8A1.25,1.25,0,1,0,9.25,3ZM.02393,4.70917,11.28375,15.969l.707-.707L.731,4.00214Z"/><rect class="cls-1" width="16" height="16"/></svg>