<svg id="icons" xmlns="http://www.w3.org/2000/svg" viewBox="0 0 24 24"><defs><style>.cls-1{fill:none;}</style></defs><path d="M16,12.014V4.352C16,2.458,14.006,1,12,1S8,2.458,8,4.352v7.662l4,4.045ZM9,4.353C9,3.006,10.584,2,12,2s3,1.006,3,2.353v7.25l-3,3.034L9,11.602ZM13.875,6A1.875,1.875,0,0,0,12,4.125h-.002A1.875,1.875,0,1,0,13.875,6ZM11,6a1,1,0,1,1,1,1A1,1,0,0,1,11,6ZM4.20337,9.08179l-.8656-.8656.71307-4.13825A14.92444,14.92444,0,0,0,7,4.705V5.707a17.1501,17.1501,0,0,1-2.15234-.36426ZM23.88135,22.183a13.093,13.093,0,0,0-5.42371-1.017c-.764,0-1.443.03759-2.07306.09692l-.90411-.90411a22.19831,22.19831,0,0,1,2.977-.19287,16.24279,16.24279,0,0,1,4.15771.5205L19.94092,4.81543a12.21466,12.21466,0,0,0-2.94873-.58923,3.75442,3.75442,0,0,0-.17072-1.005,12.926,12.926,0,0,1,4.009.85669ZM1.76318,8.05566l15.2002,15.2002-.707.707L1.05615,8.7627ZM1.82422,17H2.839l-.1723,1H1.65186Zm.3446-2H3.18359l-.1723,1H1.99652ZM3.3559,14H2.34113l.1723-1H3.5282Zm8.59515,7.07166.83014.83013c-.58728.14032-1.17053.28241-1.78119.41236V21.29083C11.31952,21.2204,11.63525,21.14728,11.95105,21.07166ZM1.47955,19H2.49438l-.1723,1H1.30725ZM5,21.73346c.314.02942.65094.04681,1,.05646v.99475c-.34808-.0091-.68414-.02411-1-.05176ZM1.13495,21H2v1.15845A8.36011,8.36011,0,0,1,1,21.783ZM9,21.64294q.52084-.06564,1-.15155V22.508c-.3183.054-.65332.10058-1,.142Zm-6-.24383c.29547.07269.62927.14221,1,.20355v1.01282c-.36621-.05621-.69629-.12055-1-.18964Zm4,.39014c.34845-.00873.68439-.02283,1-.04584v.999q-.47635.03315-1,.04559Z"/><rect class="cls-1" width="24" height="24"/></svg>