<svg xmlns="http://www.w3.org/2000/svg" viewBox="0 0 16 16"><path d="M15.268 8.384l-.22-.576-7.2-6.473a.723.723 0 00-.489-.191.631.631 0 00-.213.034L.026 3.213 0 3.94a10.405 10.405 0 00.889 3.207.678.678 0 00.154.247l6.994 7.231a.705.705 0 00.778.162l6.738-2.773c.941-.383.173-2.43-.285-3.63zM7.289 2.177L13.71 7.95 8.571 9.877a1.195 1.195 0 01-1.26-.273L1.53 3.823zm1.328 11.61L1.805 6.743l-.125-.33a17.084 17.084 0 01-.53-1.555l5.454 5.453a2.192 2.192 0 002.319.502l5.424-2.034a7.782 7.782 0 01.659 2.378z"/></svg>