<?xml version="1.0" encoding="UTF-8"?><svg id="icons" xmlns="http://www.w3.org/2000/svg" viewBox="0 0 16 16"><defs><style>.cls-1{fill:none;}.cls-1,.cls-2{stroke-width:0px;}</style></defs><path class="cls-2" d="m8.5,15c.82843,0,1.5-.67157,1.5-1.5s-.67157-1.5-1.5-1.5-1.5.67157-1.5,1.5.67157,1.5,1.5,1.5Zm-.5-2h1v1h-1v-1Zm.4516-2h.09668c.25806,0,.474-.19568.49939-.45245l.88953-8.9964c.01392-.14099-.03235-.28125-.1275-.38629-.09509-.10498-.23016-.16486-.37189-.16486h-1.87744c-.14172,0-.27679.05988-.37195.16492-.09515.10498-.14142.24536-.12744.38635l.8913,8.9964c.02539.25671.24139.45233.49933.45233Zm.43707-9l-.38965,8-.38867-8h.77832Z"/><rect class="cls-1" x="0" width="16" height="16"/></svg>