<?xml version="1.0" encoding="UTF-8"?><svg id="icons" xmlns="http://www.w3.org/2000/svg" viewBox="0 0 16 16"><defs><style>.cls-1{fill:none;}.cls-1,.cls-2{stroke-width:0px;}</style></defs><path class="cls-2" d="m7.95227,10.54767l-.8913-8.9964c-.01398-.14099.03229-.28137.12744-.38635.09515-.10504.23022-.16492.37195-.16492h1.87744c.14172,0,.27679.05988.37189.16486.09515.10504.14142.2453.1275.38629l-.88953,8.9964c-.02539.25677-.24133.45245-.49939.45245h-.09668c-.25793,0-.47394-.19562-.49933-.45233Zm.54773,4.45233c.82843,0,1.5-.67157,1.5-1.5s-.67157-1.5-1.5-1.5-1.5.67157-1.5,1.5.67157,1.5,1.5,1.5Z"/><rect class="cls-1" x="0" width="16" height="16"/></svg>