<?xml version="1.0" encoding="UTF-8"?><svg id="icons" xmlns="http://www.w3.org/2000/svg" viewBox="0 0 24 24"><defs><style>.cls-1{fill:none;}.cls-1,.cls-2{stroke-width:0px;}</style></defs><path class="cls-2" d="m12.5,19c-.82715,0-1.5.67285-1.5,1.5s.67285,1.5,1.5,1.5,1.5-.67285,1.5-1.5-.67285-1.5-1.5-1.5Zm.5,2h-1v-1h1v1Zm-.5-4c.28625,0,.52826-.21191.5661-.49561l1.76624-13.24683c.0423-.31738-.05438-.63757-.26532-.87848s-.51556-.37909-.83575-.37909h-2.46252c-.32019,0-.62482.13818-.83575.37909s-.30762.5611-.26532.87848l1.76624,13.24683c.03784.28369.27985.49561.5661.49561Zm-1.28729-13.94467c.03546-.04089.08691-.06433.14105-.06433l2.29303.00092c.05377.00006.10498.02325.14038.06378.03424.03906.0506.09064.04523.14227l-1.3324,12.80203-1.33246-12.80246c-.00531-.05139.01086-.10272.04517-.14221Z"/><rect class="cls-1" width="24" height="24"/></svg>