<?xml version="1.0" encoding="UTF-8"?><svg id="icons" xmlns="http://www.w3.org/2000/svg" viewBox="0 0 32 32"><defs><style>.cls-1{fill:none;}.cls-1,.cls-2{stroke-width:0px;}</style></defs><path class="cls-2" d="m16,22c.56848,0,1.04517-.4292,1.10468-.99451l1.72021-16.34106c.04468-.4245-.09283-.84796-.37842-1.16516s-.69232-.49829-1.11914-.49829h-2.65466c-.42682,0-.83356.18109-1.11914.49829s-.4231.74066-.37842,1.16516l1.72021,16.34106c.05951.56531.53619.99451,1.10468.99451Zm-1.70312-17.84005c.0957-.10742.23242-.16797.37598-.16797h2.6543c.14355,0,.28027.06055.375.16602.09668.10742.14355.25098.12793.39355l-1.71973,16.34982c-.00586.05566-.05371.09863-.11035.09863s-.10449-.04297-.11035-.09863l-1.7207-16.3508c-.01465-.1416.03223-.28516.12793-.39062Zm1.70312,24.84005c1.10303,0,2-.89746,2-2s-.89697-2-2-2-1.98999.89746-1.98999,2,.88696,2,1.98999,2Zm-1-2.5c0-.27618.22388-.5.5-.5h1c.27612,0,.5.22382.5.5v1c0,.27612-.22388.5-.5.5h-1c-.27612,0-.5-.22388-.5-.5v-1Z"/><rect class="cls-1" width="32" height="32"/></svg>