<?xml version="1.0" encoding="UTF-8"?><svg id="icons" xmlns="http://www.w3.org/2000/svg" viewBox="0 0 32 32"><defs><style>.cls-1{fill:none;}.cls-1,.cls-2{stroke-width:0px;}</style></defs><path class="cls-2" d="m14.79688,20.82324c-.32373-3.37207-.97949-11.14844-1.49463-16.07031-.04688-.44531.09814-.89062.39844-1.22461.30127-.33496.72998-.52734,1.17676-.52734h2.24512c.44824,0,.87744.19141,1.17773.52539.2998.33301.44482.7793.39746,1.22656-.54346,5.18945-1.23828,13.39355-1.51172,16.24902-.0542.56934-.52539.99805-1.09521.99805h-.00244c-.67188,0-1.22754-.50586-1.2915-1.17676Zm1.20312,8.17676c1.10303,0,2-.89746,2-2s-.89697-2-2-2-1.99001.89746-1.99001,2,.88698,2,1.99001,2Z"/><rect class="cls-1" width="32" height="32"/></svg>