<?xml version="1.0" encoding="UTF-8"?><svg id="icons" xmlns="http://www.w3.org/2000/svg" viewBox="0 0 24 24"><defs><style>.cls-1{fill:none;}.cls-1,.cls-2{stroke-width:0px;}</style></defs><path class="cls-2" d="m14.5752,2.25781c.14453.16406.21191.38281.18506.59961l-1.55957,13.47461c-.04785.38086-.37305.66797-.75635.66797-.32031,0-.59131-.23926-.63135-.55664l-1.57324-13.58594c-.02686-.2168.04053-.43555.18506-.59961s.35303-.25781.57178-.25781h3.00684c.21875,0,.42725.09375.57178.25781Zm-2.0752,16.74219c-.82715,0-1.5.67285-1.5,1.5s.67285,1.5,1.5,1.5,1.5-.67285,1.5-1.5-.67285-1.5-1.5-1.5Z"/><rect class="cls-1" width="24" height="24"/></svg>