<?xml version="1.0" encoding="UTF-8"?><svg id="icons" xmlns="http://www.w3.org/2000/svg" viewBox="0 0 16 16"><defs><style>.cls-1{fill:none;}</style></defs><path d="M12.57812,15h-.57812v-1h.57812c.78418,0,1.42188-.6377,1.42188-1.42188v-2.57812c0-.59668,.2627-1.13281,.67871-1.5-.41602-.36719-.67871-.90332-.67871-1.5v-2.57812c0-.78418-.6377-1.42188-1.42188-1.42188h-.57812v-1h.57812c1.33496,0,2.42188,1.08691,2.42188,2.42188v2.57812c0,.55176,.44824,1,1,1v1c-.55176,0-1,.44824-1,1v2.57812c0,1.33496-1.08691,2.42188-2.42188,2.42188Zm-8.57812-1h-.57812c-.78418,0-1.42188-.6377-1.42188-1.42188v-2.57812c0-.59668-.2627-1.13281-.67871-1.5,.41602-.36719,.67871-.90332,.67871-1.5v-2.57812c0-.78418,.6377-1.42188,1.42188-1.42188h.57812v-1h-.57812c-1.33496,0-2.42188,1.08691-2.42188,2.42188v2.57812c0,.55176-.44824,1-1,1v1c.55176,0,1,.44824,1,1v2.57812c0,1.33496,1.08691,2.42188,2.42188,2.42188h.57812v-1Zm8-4H4v3H12v-3Zm-2.6153-3h-2.76923l-.85724,2h-1.08777L7.67035,2h.65955l2.99969,7h-1.08771l-.85718-2Zm-.42859-1l-.95599-2.23047-.95599,2.23047h1.91199Z"/><rect class="cls-1" width="16" height="16"/></svg>