<?xml version="1.0" encoding="UTF-8"?><svg id="icons" xmlns="http://www.w3.org/2000/svg" viewBox="0 0 32 32"><defs><style>.cls-1{fill:none;}</style></defs><path d="M21.33502,20h1.11011l-6.13104-14h-.62817l-6.13104,14h1.11011l1.72827-4h7.2135l1.72827,4Zm-8.5097-5l3.17468-7.34766,3.17468,7.34766h-6.34937Zm11.51062,14h-1.33594v-1h1.33594c2.02051,0,3.66406-1.64355,3.66406-3.66406v-3.58594c0-1.37012,.80762-3.21387,2.06543-4.15039-1.22461-.61816-2.06543-1.8877-2.06543-3.34961v-4.58594c0-2.02051-1.64355-3.66406-3.66406-3.66406h-1.33594v-1h1.33594c2.57129,0,4.66406,2.09277,4.66406,4.66406v4.58594c0,1.5166,1.2334,2.75,2.75,2.75h.25v1h-.25c-1.41602,0-2.75,2.1123-2.75,3.75v3.58594c0,2.57129-2.09277,4.66406-4.66406,4.66406Zm-15.33594,0h-1.33594c-2.57129,0-4.66406-2.09277-4.66406-4.66406v-3.58594c0-1.6377-1.33398-3.75-2.75-3.75h-.25v-1H.25c1.5166,0,2.75-1.2334,2.75-2.75v-4.58594c0-2.57129,2.09277-4.66406,4.66406-4.66406h1.33594v1h-1.33594c-2.02051,0-3.66406,1.64355-3.66406,3.66406v4.58594c0,1.46191-.84082,2.73145-2.06543,3.34961,1.25781,.93652,2.06543,2.78027,2.06543,4.15039v3.58594c0,2.02051,1.64355,3.66406,3.66406,3.66406h1.33594v1Zm14-4H9v-4h14v4Z"/><rect class="cls-1" width="32" height="32"/></svg>