<?xml version="1.0" encoding="UTF-8"?><svg id="icons" xmlns="http://www.w3.org/2000/svg" viewBox="0 0 24 24"><defs><style>.cls-1{fill:none;}</style></defs><path d="M16.17346,14.97559h1.09259L12.45801,4.02441h-.91602L6.73395,14.97559h1.09259l1.30634-2.97559h5.73425l1.30634,2.97559Zm-6.60156-3.97559l2.4281-5.53076,2.4281,5.53076h-4.8562Zm-2.5719,11h-1.29688c-2.04199,0-3.70312-1.66113-3.70312-3.70312v-3.29688c0-1.10254-.89746-2-2-2v-1c1.10254,0,2-.89746,2-2v-3.29688c0-2.04199,1.66113-3.70312,3.70312-3.70312h1.29688v1h-1.29688c-1.49023,0-2.70312,1.21289-2.70312,2.70312v3.29688c0,1.04199-.53418,1.96191-1.34375,2.5,.80957,.53809,1.34375,1.45801,1.34375,2.5v3.29688c0,1.49023,1.21289,2.70312,2.70312,2.70312h1.29688v1Zm11.29688,0h-1.29688v-1h1.29688c1.49023,0,2.70312-1.21289,2.70312-2.70312v-3.29688c0-1.04199,.53418-1.96191,1.34375-2.5-.80957-.53809-1.34375-1.45801-1.34375-2.5v-3.29688c0-1.49023-1.21289-2.70312-2.70312-2.70312h-1.29688v-1h1.29688c2.04199,0,3.70312,1.66113,3.70312,3.70312v3.29688c0,1.10254,.89746,2,2,2v1c-1.10254,0-2,.89746-2,2v3.29688c0,2.04199-1.66113,3.70312-3.70312,3.70312Zm-1.29688-3H7v-3h10v3Z"/><rect class="cls-1" width="24" height="24"/></svg>