<svg xmlns="http://www.w3.org/2000/svg" viewBox="0 0 24 24"><path d="M15.805 20.918l-3.067-3.068a.668.668 0 00-.943 0l-.124.124-.968-.968a5.5 5.5 0 10-.69.69l.968.968-.13.129a.667.667 0 000 .943l3.068 3.067a.665.665 0 00.943 0l.943-.942a.666.666 0 000-.943zM9.683 16.68A4.47 4.47 0 016.5 17.999a4.502 4.502 0 113.183-1.318zM19 6h-1V1h-8v7.024a6.55 6.55 0 011.098.879A6.426 6.426 0 0112 10.07V10h9v1h-8.52a6.473 6.473 0 01.478 2H19v1h-6.042a6.488 6.488 0 01-.785 2.664c.031-.002.062-.01.093-.01a1.655 1.655 0 011.006.346H23V6zm2 2h-9V7h9zm2-3.4V5h-4V1h.4z"/></svg>