<svg id="icons" xmlns="http://www.w3.org/2000/svg" viewBox="0 0 32 32"><path d="M21,28h1v2H4V8H6V9H5V29H21Zm3-2H8V6H9V5H7V27H25V25H24ZM28,7.709V12H27V9H21V3H11v9H10V2H22.29ZM27,8V7.8L22.2,3H22V8Zm1,16V22H27v1H11V22H10v2ZM15.13867,15.48047l.707-.707a3.17921,3.17921,0,1,0,0,4.49511l-.707-.707a2.2296,2.2296,0,0,1-3.081,0,2.17863,2.17863,0,1,1,3.081-3.08105ZM26.80432,14l-1.79455,4.45312L23.24237,14H22.1662L24.541,19.98438l.92871.00195L27.88232,14Zm-7.17248,2.31152c-1.11231-.1709-1.12207-.58007-1.126-.78613a.66667.66667,0,0,1,.20019-.47656.80036.80036,0,0,1,.58008-.249,1.12523,1.12523,0,0,1,1.05176.62793l.84959-.52539a2.10948,2.10948,0,0,0-1.90135-1.10254,1.81232,1.81232,0,0,0-1.30078.55665,1.66028,1.66028,0,0,0-.47949,1.20019c.02148.959.68555,1.54492,1.97363,1.74316a1.33233,1.33233,0,0,1,.94629.47754.83635.83635,0,0,1,.041.6836,1.16474,1.16474,0,0,1-1.16114.63867,1.34069,1.34069,0,0,1-1.28222-.74414l-.86328.50391a2.31756,2.31756,0,0,0,2.1455,1.24023,2.13351,2.13351,0,0,0,2.1045-1.30664,1.82765,1.82765,0,0,0-.126-1.53027A2.18982,2.18982,0,0,0,19.63184,16.31152Z"/><path fill="none" d="M0 0h32v32H0z"/></svg>