<svg id="icons" xmlns="http://www.w3.org/2000/svg" viewBox="0 0 24 24"><path d="M15.29,1H3V11H4V2H14V8h6V22H4V20H3v3H21V6.709ZM20,7H15V2h.2L20,6.8Zm-4,3v2h2v1H16v2.5a.501.501,0,0,0,.5.5H18v1H16.5A1.50164,1.50164,0,0,1,15,15.5V13H14V12h1V10ZM9,16.70471A2.01823,2.01823,0,0,0,10.041,17h.918A2.04387,2.04387,0,0,0,13,14.959v-.918A2.04387,2.04387,0,0,0,10.959,12h-.918A2.01823,2.01823,0,0,0,9,12.29529V12H8v7H9ZM10.041,13h.918A1.04194,1.04194,0,0,1,12,14.041v.918A1.04194,1.04194,0,0,1,10.959,16h-.918A1.04194,1.04194,0,0,1,9,14.959v-.918A1.04194,1.04194,0,0,1,10.041,13Zm-6,4h.918A2.04387,2.04387,0,0,0,7,14.959v-.918A2.04387,2.04387,0,0,0,4.959,12H4.041A2.01823,2.01823,0,0,0,3,12.29529V12H2v7H3V16.70471A2.01823,2.01823,0,0,0,4.041,17Zm0-4h.918A1.04194,1.04194,0,0,1,6,14.041v.918A1.04194,1.04194,0,0,1,4.959,16H4.041A1.04194,1.04194,0,0,1,3,14.959v-.918A1.04194,1.04194,0,0,1,4.041,13Z"/><path fill="none" d="M0 0h24v24H0z"/></svg>