<svg id="icons" xmlns="http://www.w3.org/2000/svg" viewBox="0 0 24 24"><path d="M15.29,1H3V23H21V6.709ZM20,22H4V2H14V8h6ZM20,7H15V2h.2L20,6.8ZM11.1344,18c-.03076.32874-.04987.66272-.06171,1H8.25A1.25116,1.25116,0,0,1,7,17.75v-5.5A1.25116,1.25116,0,0,1,8.25,11h5.46643a11.9034,11.9034,0,0,0-.69073,1H8.25a.25048.25048,0,0,0-.25.25v5.5a.25048.25048,0,0,0,.25.25Zm1.79321,3h-.82666c-.3537-4.64838,1.07764-8.28925,3.46552-10.61346.61487-.54377,1.23706-.7262,1.75158-.27008v-.00184c1.25538,1.1167.30915,3.67658-.8349,5.47748a10.211,10.211,0,0,0-1.80084.85755,12.95373,12.95373,0,0,1,1.55634-.48169L15.0965,17.5462a1.9292,1.9292,0,0,0-1.17713,1.09766A16.68306,16.68306,0,0,1,16.594,11.40894C13.95819,13.50714,12.69049,16.7619,12.92761,21Z"/><path fill="none" d="M0 0h24v24H0z"/></svg>