<?xml version="1.0" encoding="UTF-8"?><svg id="icons" xmlns="http://www.w3.org/2000/svg" viewBox="0 0 16 16"><defs><style>.cls-1{fill:none;}.cls-1,.cls-2{stroke-width:0px;}</style></defs><rect class="cls-1" width="16" height="16"/><path class="cls-2" d="M11.40039,0H2v8h1V1h7v4h4v10H3v-1h-1v2h13V3.59961l-3.59961-3.59961ZM14,4h-3V1h.31049l2.68951,2.68951v.31049ZM12,13h-1v-6h1v6ZM10,10.5v2.5h-1v-2.5c0-.27539-.22461-.5-.5-.5s-.5.22461-.5.5v2.5h-1v-2.5c0-.27539-.22461-.5-.5-.5s-.5.22461-.5.5v2.5h-1v-4h1v.0921c.15717-.05603.32385-.0921.5-.0921.38556,0,.73401.15027,1,.39014.26599-.23987.61444-.39014,1-.39014.82715,0,1.5.67285,1.5,1.5ZM1.89844,10.89978l-1.20416-1.89978h1.18298l.61261.96649.61249-.96649h1.18286l-1.20386,1.89972,1.33124,2.10028h-1.18298l-.73969-1.16699-.7395,1.16699H.5675l1.33093-2.10022Z"/></svg>