<svg xmlns="http://www.w3.org/2000/svg" viewBox="0 0 24 24"><path d="M21 12H3V1h11v7h7zm0-5.291L15.29 1H15v6h6zM23 13v10H1V13zM4.25 20.5a.75.75 0 10-.75.75.75.75 0 00.75-.75zM10 16H8.041A2.044 2.044 0 006 18.041v.918A2.044 2.044 0 008.041 21H10v-1H8.041A1.042 1.042 0 017 18.959v-.918A1.042 1.042 0 018.041 17H10zm5 0h-2.651A1.35 1.35 0 0011 17.349v.302A1.35 1.35 0 0012.349 19h1.302a.349.349 0 01.349.349v.302a.349.349 0 01-.349.349H11v1h2.651A1.35 1.35 0 0015 19.651v-.302A1.35 1.35 0 0013.651 18H12.35a.349.349 0 01-.349-.349v-.302A.349.349 0 0112.35 17H15zm6.166 0H20.08l-1.57 3.688L16.967 16h-1.084l2.095 5h1.062z"/></svg>