<svg xmlns="http://www.w3.org/2000/svg" viewBox="0 0 32 32"><path d="M28 13H4V1h15v9h9zM20 1v8h8zM4 31h24v-3H4zm26-17v13H2V14zM6.5 23.5a1 1 0 10-1 1 1.002 1.002 0 001-1zm3.058-4.02a2.18 2.18 0 013.08 0l.708-.707a3.18 3.18 0 100 4.496l-.707-.707a2.229 2.229 0 01-3.081 0 2.182 2.182 0 010-3.082zm9.226 1.783a2.187 2.187 0 00-1.652-.951c-1.113-.171-1.122-.58-1.127-.786a.672.672 0 01.202-.478.798.798 0 01.579-.248 1.122 1.122 0 011.05.628l.852-.526a2.108 2.108 0 00-1.902-1.102 1.81 1.81 0 00-1.3.556 1.665 1.665 0 00-.48 1.2c.02.96.685 1.546 1.974 1.744a1.334 1.334 0 01.946.477.838.838 0 01.04.684 1.164 1.164 0 01-1.16.639 1.343 1.343 0 01-1.284-.745l-.862.505a2.32 2.32 0 002.146 1.24 2.134 2.134 0 002.104-1.307 1.826 1.826 0 00-.126-1.53zM25.382 18h-1.078l-1.795 4.453L20.742 18h-1.076l2.375 5.984.929.002z"/></svg>