<svg xmlns="http://www.w3.org/2000/svg" viewBox="0 0 32 32"><path d="M28 9h-8V1zm-9 1h9v21H4V1h15zm2 7h4v-1h-4zm0 3h4v-1h-4zm0 3h4v-1h-4zm0 3h4v-1h-4zM6 23h9v-1H6zm11 2H6v1h11zm1-6H6v1h12zm0-15H6v12h12V4zm-7.161 11a4.574 4.574 0 00-.437-.766 3.27 3.27 0 01-.304-.516 1.595 1.595 0 01.002-.334 3.137 3.137 0 00.008-.42 1.332 1.332 0 01.001-.139 1.354 1.354 0 00-.076-.578 1.48 1.48 0 00-.46-.556 1.887 1.887 0 01-.464-1.191.567.567 0 01.017-.333.95.95 0 01.237-.025l1.075-.033a1.592 1.592 0 00.817-.19 1.662 1.662 0 00.618-1.443c.018-.5.139-.562.145-.565a.353.353 0 01.17-.015 4.191 4.191 0 01.561.064 4.186 4.186 0 00.803.075 1.614 1.614 0 001.554-.99 1.912 1.912 0 00.056-.75 1.807 1.807 0 01.197-.705 4.567 4.567 0 00.21-.59H7v10h3.839zm5.25-6.005c-.19.007-.382.016-.574.007a.77.77 0 00-.442.102.738.738 0 00-.329.595.707.707 0 00.33.677l.02.123c.031.174.101.583.108.6a1.641 1.641 0 01-.317-.024 1.547 1.547 0 00-.715.017c-.606.212-.992.85-1.15 1.897A10.486 10.486 0 0012.966 15H17V9.014a5.696 5.696 0 00-.91-.019z"/></svg>