<svg xmlns="http://www.w3.org/2000/svg" viewBox="0 0 24 24"><path d="M21 12V6.709L15.29 1H3v11H0v12h24V12zM15 2h.2L20 6.8V7h-5zM4 2h10v6h6v4H4zm19 21H1V13h22zm-3.959-2h.918A2.019 2.019 0 0021 20.705V21h1v-7h-1v2.295A2.019 2.019 0 0019.959 16h-.918A2.044 2.044 0 0017 18.041v.918A2.044 2.044 0 0019.041 21zM18 18.041A1.042 1.042 0 0119.041 17h.918A1.042 1.042 0 0121 18.041v.918A1.042 1.042 0 0119.959 20h-.918A1.042 1.042 0 0118 18.959zm-12 .918v-.918A2.044 2.044 0 018.041 16H10v1H8.041A1.042 1.042 0 007 18.041v.918A1.042 1.042 0 008.041 20H10v1H8.041A2.044 2.044 0 016 18.959zM12.39 21H16v-3a2.043 2.043 0 00-2.041-2H12v1h1.959a1.042 1.042 0 011.04 1h-2.39A1.611 1.611 0 0011 19.61 1.392 1.392 0 0012.39 21zm.22-2H15v1h-2.61a.39.39 0 01-.39-.39.61.61 0 01.61-.61zm-9.86 1.5a.75.75 0 11.75.75.75.75 0 01-.75-.75z"/></svg>