<svg id="icons" xmlns="http://www.w3.org/2000/svg" viewBox="0 0 16 16"><path d="M11.40039,0H2V7H3V1h7V5h4V15H2v1H15V3.59961ZM14,4H11V1h.31049L14,3.68951ZM12,6V8h1V9H12v2h1v1H12a1.00067,1.00067,0,0,1-1-1V9H10V8h1V6ZM6,11.93591A1.37544,1.37544,0,0,0,6.39551,12h1.209A1.397,1.397,0,0,0,9,10.60449v-1.209A1.397,1.397,0,0,0,7.60449,8h-1.209A1.37541,1.37541,0,0,0,6,8.064V8H5v6H6ZM6.39551,9h1.209A.39635.39635,0,0,1,8,9.39551v1.209A.39635.39635,0,0,1,7.60449,11h-1.209A.39635.39635,0,0,1,6,10.60449v-1.209A.39635.39635,0,0,1,6.39551,9ZM4,10.60449v-1.209A1.397,1.397,0,0,0,2.60449,8h-1.209A1.37541,1.37541,0,0,0,1,8.064V8H0v6H1V11.93591A1.37544,1.37544,0,0,0,1.39551,12h1.209A1.397,1.397,0,0,0,4,10.60449ZM2.60449,11h-1.209A.39635.39635,0,0,1,1,10.60449v-1.209A.39635.39635,0,0,1,1.39551,9h1.209A.39635.39635,0,0,1,3,9.39551v1.209A.39635.39635,0,0,1,2.60449,11Z"/><path fill="none" d="M0 0h16v16H0z"/></svg>