<?xml version="1.0" encoding="UTF-8"?><svg id="icons" xmlns="http://www.w3.org/2000/svg" viewBox="0 0 32 32"><rect width="32" height="32" style="fill:none; stroke-width:0px;"/><path d="m24,15H8v-1h16v1Z" style="opacity:.5; stroke-width:0px;"/><path d="m24,17H8v-2h16v2Zm0,2H8v3h16v-3Zm0,5H8v2h16v-2Z" style="opacity:.25; stroke-width:0px;"/><path d="m19.29999,2H5v28h22V9.69897l-7.70001-7.69897Zm6.70001,27H6V3h12v8h8v18Zm-7-19V3l7,7h-7Zm-3-1h-8v-1h8v1Zm0-3h-8v-1h8v1Zm8,8v13H8v-13h1v12h14v-12h1Z" style="stroke-width:0px;"/></svg>