<svg id="icons" xmlns="http://www.w3.org/2000/svg" viewBox="0 0 32 32"><path d="M19.3,2H5V30H27V9.699ZM26,29H6V3H18v8h8ZM19,10V3l7,7ZM15.00012,26H10.5A1.50164,1.50164,0,0,1,9,24.5v-9A1.50164,1.50164,0,0,1,10.5,14h8.43164a11.76746,11.76746,0,0,0-.78528,1H10.5a.501.501,0,0,0-.5.5v9a.501.501,0,0,0,.5.5h4.52173C15.00775,25.32867,14.99988,25.66144,15.00012,26Zm3.87311-5.55847A21.0329,21.0329,0,0,1,21.7,15.3a10.67079,10.67079,0,0,0-3.76446,5.27289A17.33078,17.33078,0,0,0,17.00006,28H16.083c-.823-9.40753,4.16241-15,6.0993-15,1.59473,0,2.63135,2.25714-.67139,7.45612a13.61572,13.61572,0,0,0-2.40118,1.14343,8.16714,8.16714,0,0,1,2.0752-.64227c-.81739,1.23828-1.52295,2.10437-1.52295,2.10437a3.64337,3.64337,0,0,0-2.07325,1.93652A26.142,26.142,0,0,1,18.87323,20.44153Z"/><path fill="none" d="M0 0h32v32H0z"/></svg>