<?xml version="1.0" encoding="UTF-8"?><svg id="icons" xmlns="http://www.w3.org/2000/svg" viewBox="0 0 32 32"><defs><style>.cls-1{fill:none;}.cls-1,.cls-2{stroke-width:0px;}</style></defs><rect class="cls-1" width="32" height="32"/><path class="cls-2" d="M19.29999,2H5v14h1V3h12v8h8v18H6v-3h-1v4h22V9.69897l-7.70001-7.69897ZM19,10V3l7,7h-7ZM6.49994,21.67114l-1.81134,2.32886h-1.26605l2.4444-3.14282-2.22223-2.85718h1.26605l1.58917,2.04333,1.58923-2.04333h1.26611l-2.22229,2.85724,2.44427,3.14276h-1.26605l-1.81128-2.32886ZM12,18v.51245c.41907-.31708.93494-.51245,1.5-.51245.81641,0,1.54395.39355,2,1.00195.45605-.6084,1.18359-1.00195,2-1.00195,1.37891,0,2.5,1.12109,2.5,2.5v3.5h-1v-3.5c0-.82715-.67285-1.5-1.5-1.5s-1.5.67285-1.5,1.5v3.5h-1v-3.5c0-.82715-.67285-1.5-1.5-1.5s-1.5.67285-1.5,1.5v3.5h-1v-6h1ZM23,15v9h-1v-9h1Z"/></svg>