<svg id="icons" xmlns="http://www.w3.org/2000/svg" viewBox="0 0 16 16"><path d="M11.40039,0H2V16H15V3.59961ZM14,6.10535V15H3V1h7V5h4ZM14,4H11V1h.31049L14,3.68951ZM8.08612,12c-.0072.3277-.00745.65906.0105,1H5.75A.75144.75144,0,0,1,5,12.25V7.75A.75144.75144,0,0,1,5.75,7H9.517a7.41429,7.41429,0,0,0-.56122,1H6v4Zm4.98737-5.527a5.02146,5.02146,0,0,1-.61805,3.255,6.80854,6.80854,0,0,0-1.20056.57171,4.08536,4.08536,0,0,1,1.03754-.3211c-.40869.61914-.76141,1.05218-.76141,1.05218a1.77217,1.77217,0,0,0-.93665.96826A28.90675,28.90675,0,0,1,12.46362,6.4693a7.67175,7.67175,0,0,0-2.19586,3.21716A8.493,8.493,0,0,0,9.98865,14H9.18713c-.39721-3.08459.259-5.64575,1.77143-7.21918C12.177,5.51324,12.96924,6.08606,13.07349,6.473Z"/><path fill="none" d="M0 0h16v16H0z"/></svg>