<svg xmlns="http://www.w3.org/2000/svg" viewBox="0 0 16 16"><path d="M15 3.6V16H1V0h10.4zM14 5h-4V1H2v14h12zm0-1.31L11.31 1H11v3h3zM7.617 8.296c-.011.002-.022.006-.024.01zm-1.834 5.487a7.772 7.772 0 001.078-2.094c.776-.265 1.79-.53 2.693-.754a5.695 5.695 0 002.17 1.393 1.714 1.714 0 00.35.038 1.143 1.143 0 00.92-.419 1.375 1.375 0 00.12-1.42 1.411 1.411 0 00-1.247-.847l-.139-.003a8.296 8.296 0 00-1.788.25 23.548 23.548 0 01-1.726-1.913 9.45 9.45 0 00.555-2.972 1.299 1.299 0 00-.827-1.075 1.16 1.16 0 00-.39-.067 1.278 1.278 0 00-.851.333c-.684.613-.645 1.93.1 3.354a2.093 2.093 0 00.343.502c-.297.933-.657 1.94-.956 2.778a6.98 6.98 0 00-.998.451c-1.314.753-2.103 1.463-1.68 2.477a.994.994 0 00.764.621 1.135 1.135 0 00.2.017 1.858 1.858 0 001.31-.65zm-.58-.621a1.442 1.442 0 01-.889.522.116.116 0 01-.12-.063c-.086-.207-.263-.636 1.817-1.837a4.689 4.689 0 01-.809 1.378zm6.547-2.638l.131.003a.589.589 0 01.52.371.596.596 0 01.008.546.272.272 0 01-.21.069.914.914 0 01-.191-.023 4.05 4.05 0 01-1.461-.858 9.173 9.173 0 011.203-.108zm-2.619-.365c-.663.147-1.328.315-1.945.49a51.31 51.31 0 00.69-1.899c.39.474.819.957 1.255 1.41zM7.718 4.733a.476.476 0 01.34.39A5.116 5.116 0 017.56 7.23a2.73 2.73 0 01-.607-1.958.666.666 0 01.256-.443.7.7 0 01.372-.113.56.56 0 01.136.016z"/></svg>