<?xml version="1.0" encoding="UTF-8"?><svg id="icons" xmlns="http://www.w3.org/2000/svg" viewBox="0 0 24 24"><defs><style>.cls-1{fill:none;}.cls-2{fill:#231f20;}</style></defs><rect class="cls-1" width="24" height="24"/><path class="cls-2" d="M17,16h-4.93829c-.40723-.41437-.8916-.7467-1.42157-1h6.35986v1Zm2-3v-1h-7.5c0,.34479-.04706,.67725-.12085,1h7.62085Zm3-7.40039v14.40039H13.5v-.5c0-.1712-.03363-.33313-.05054-.5h7.55054V7h-4V3H8V7.62085c-.32275-.07379-.65521-.12085-1-.12085V2h11.40039l3.59961,3.59961Zm-1,.0899l-2.68951-2.68951h-.31049v3h3v-.31049Zm-2,3.31049H10.32959c.27051,.29999,.49768,.63544,.68036,1h7.99005v-1Zm-15,3c0-1.6543,1.3457-3,3-3s2.98999,1.3457,2.98999,3-1.33569,3-2.98999,3-3-1.3457-3-3Zm1,0c0,1.10303,.89697,2,2,2s2-.89697,2-2-.89697-2-2-2-2,.89697-2,2Zm6.99,7.5l.01,2.5H2v-2.5c0-1.92969,1.57031-3.5,3.5-3.5h3c1.92969,0,3.49,1.57031,3.49,3.5Zm-.99,0c0-1.37891-1.12158-2.5-2.5-2.5h-3c-1.37842,0-2.5,1.12109-2.5,2.5v1.5H11v-1.5Z"/></svg>