<?xml version="1.0" encoding="UTF-8"?><svg id="icons" xmlns="http://www.w3.org/2000/svg" viewBox="0 0 16 16"><rect width="16" height="16" style="fill:none; stroke-width:0px;"/><path d="m13,8H4v-1h9v1Z" style="opacity:.5; stroke-width:0px;"/><path d="m13,9H4v-1h9v1Zm0,1H4v1h9v-1Zm0,2H4v1h9v-1Z" style="opacity:.25; stroke-width:0px;"/><path d="m11.40039,0H2v16h13V3.59961l-3.59961-3.59961Zm2.59961,15H3V1h7v4h4v10Zm0-11h-3V1h.31049l2.68951,2.68951v.31049Zm-5-1h-5v-1h5v1Zm0,2h-5v-1h5v1Zm4,2v7H4v-7h1v6h7v-6h1Z" style="stroke-width:0px;"/></svg>