<?xml version="1.0" encoding="UTF-8"?><svg id="icons" xmlns="http://www.w3.org/2000/svg" viewBox="0 0 24 24"><rect width="24" height="24" style="fill:none; stroke-width:0px;"/><path d="m18,11H6v-1h12v1Z" style="opacity:.5; stroke-width:0px;"/><path d="m18,12H6v-1h12v1Zm0,2H7v2h11v-2Zm-1,4H6v1h11v-1Z" style="opacity:.25; stroke-width:0px;"/><path d="m15.28998,1H3v22h18V6.70898L15.28998,1Zm4.71002,21H4V2h10v6h6v14Zm0-15h-5V2h.20001l4.79999,4.79999v.20001Zm-7-2h-7v-1h7v1Zm0,2h-7v-1h7v1Zm5,3v10H6v-10h1v9h10v-9h1Z" style="stroke-width:0px;"/></svg>