<?xml version="1.0" encoding="UTF-8"?><svg id="icons" xmlns="http://www.w3.org/2000/svg" viewBox="0 0 16 16"><defs><style>.cls-1{fill:none;}.cls-2{fill:#231f20;}</style></defs><rect class="cls-1" width="16" height="16"/><path class="cls-2" d="M12,11h-2.79956c-.14954-.36652-.36005-.69684-.60577-1h3.40533v1Zm2-2v-1h-5.55054c.021,.16559,.05054,.3288,.05054,.5,0,.17102-.02039,.33618-.04498,.5h5.54498Zm0-3H7.59723c.24524,.30322,.45624,.63336,.60529,1h5.79749v-1Zm2-2.40039V14h-6.5v-1h5.5V5h-4V1H6v3.79749c-.31445-.12781-.65198-.20288-1-.24695V0h7.40039l3.59961,3.59961Zm-1,.09076l-2.68951-2.69037h-.31049v3h3v-.30963Zm-7,8.80963v2.5H1l.01001-2.5c0-1.07727,.67828-1.98883,1.63507-2.33972-.39655-.44263-.64508-1.02069-.64508-1.66028,0-1.37842,1.12158-2.5,2.5-2.5s2.48999,1.12158,2.48999,2.5c0,.63892-.24591,1.21643-.63947,1.65887,.95898,.34973,1.64948,1.26227,1.64948,2.34113ZM3,8.5c0,.82715,.67285,1.5,1.5,1.5s1.5-.67285,1.5-1.5-.67285-1.5-1.5-1.5-1.5,.67285-1.5,1.5Zm4,4c0-.82715-.67285-1.5-1.5-1.5H3.5c-.82715,0-1.5,.67285-1.5,1.5v1.5H7v-1.5Z"/></svg>