<svg xmlns="http://www.w3.org/2000/svg" viewBox="0 0 24 24"><path d="M8.766 16.894c.165-.094.357-.19.57-.285a8.46 8.46 0 01-1.054 1.982l-.024.024a1.438 1.438 0 01-1.126.565.303.303 0 01-.242-.206c-.126-.303-.338-.812 1.876-2.08zm8.718-2.14a12.853 12.853 0 00-2.038.201 5.726 5.726 0 002.107 1.32 1.014 1.014 0 00.447 0V15h.057a.835.835 0 00-.573-.246zM20 6.8L15.2 2H15v5h5zM18 18v-.913a1.877 1.877 0 01-.611-.028 7.52 7.52 0 01-2.948-1.921 32.635 32.635 0 00-4.041 1.06 11.669 11.669 0 01-1.564 2.97 2.355 2.355 0 01-1.62.818 1.269 1.269 0 01-.222-.018 1.097 1.097 0 01-.842-.686c-.506-1.215.52-2.11 2.217-3.082a9.482 9.482 0 011.402-.625 59.265 59.265 0 001.489-4.102 9.264 9.264 0 01-.531-.87c-.973-1.862-1.053-3.557-.205-4.318a1.439 1.439 0 011.435-.311 1.523 1.523 0 01.957 1.264 12.659 12.659 0 01-.778 4.095 23.31 23.31 0 002.568 2.942 14.608 14.608 0 012.81-.32 1.68 1.68 0 011.48 1.008c.006.012.006.025.012.037H20V8h-6V2H4v20h11v-4zm-4.25-3.533a24.43 24.43 0 01-1.907-2.19 54.502 54.502 0 01-1.054 2.955c.933-.29 1.97-.553 2.961-.765zm-1.624-7.099a.744.744 0 00-.435-.64.535.535 0 00-.183-.032.68.68 0 00-.45.185c-.463.416-.482 1.701.38 3.35.04.076.083.154.13.235a9.47 9.47 0 00.558-3.098zM24 19h-3v-3h-2v3h-3v2h3v3h2v-3h3z"/></svg>