<svg id="icons" xmlns="http://www.w3.org/2000/svg" viewBox="0 0 24 24"><path d="M15,21h1v2H3V7H5V8H4V22H15Zm3-2H7V15H6v5H19V18H18ZM7,5H8V4H6V8H7ZM21,15v1H10V15H9v2H22V15H21ZM9,1h9.40039L22,4.59961V8H21V6H17V2H10V8H9Zm9,4h3V4.68951L18.31049,2H18Zm2.03925,9h-1.062l-2.0949-5h1.084l1.54535,3.6875L21.0799,9h1.086ZM16,9H13.34863A1.35077,1.35077,0,0,0,12,10.34863v.30274A1.35077,1.35077,0,0,0,13.34863,12h1.30274A.34884.34884,0,0,1,15,12.34863v.30274A.34884.34884,0,0,1,14.65137,13H12v1h2.65137A1.35077,1.35077,0,0,0,16,12.65137v-.30274A1.35077,1.35077,0,0,0,14.65137,11H13.34863A.34884.34884,0,0,1,13,10.65137v-.30274A.34884.34884,0,0,1,13.34863,10H16ZM9.041,14H11V13H9.041A1.04194,1.04194,0,0,1,8,11.959v-.918A1.04194,1.04194,0,0,1,9.041,10H11V9H9.041A2.04387,2.04387,0,0,0,7,11.041v.918A2.04387,2.04387,0,0,0,9.041,14Z"/><path fill="none" d="M0 0h24v24H0z"/></svg>