<svg xmlns="http://www.w3.org/2000/svg" viewBox="0 0 32 32"><path d="M14.917 15.18c.003-.007.024-.013.045-.018zM19 24h2.863a14.673 14.673 0 01-2.915-2.243h-.001l-.183-.173-.247.044a47.64 47.64 0 00-5.348 1.246l-.227.07-.09.218c-1.254 3.053-1.918 3.96-2.203 4.228a3.464 3.464 0 01-2.421 1.11 2.254 2.254 0 01-.393-.033 1.498 1.498 0 01-1.166-.883c-.587-1.411.302-2.6 3.17-4.243a13.269 13.269 0 012.28-.972l.22-.075.085-.216a80.302 80.302 0 001.9-5.442l.07-.225-.129-.196c-.256-.393-.47-.753-.638-1.071-1.418-2.717-1.58-4.862-.442-5.882a1.96 1.96 0 011.303-.513 1.757 1.757 0 01.583.099 2.019 2.019 0 011.261 1.68c.145.857-.208 2.815-.994 5.518l-.067.232.14.197a34.927 34.927 0 003.425 4.073l.18.183.254-.04a26.392 26.392 0 013.613-.367l.236.004a2.194 2.194 0 01.881.242V19h4v-9h-9V1H4v30h20v-3h-5zm9-15h-8V1zm-4.924 12.127a1.402 1.402 0 01.924.398v2.088a1.107 1.107 0 01-.457.092 2.01 2.01 0 01-.41-.046 6.727 6.727 0 01-2.558-1.5l-.898-.741 1.156-.14a18.048 18.048 0 012.021-.155zm-12.839 2.906c.161-.092.344-.184.545-.28l1.223-.57-.556 1.23a9.14 9.14 0 01-1.379 2.424 2.717 2.717 0 01-1.836.864 1.479 1.479 0 01-.262-.022.689.689 0 01-.564-.404c-.327-.785.029-1.635 2.83-3.242zM32 25v2h-5v5h-2v-5h-5v-2h5v-5h2v5zm-18.333-3.927c.357-.959.702-1.946 1.02-2.917l.292-.892.577.74a35.974 35.974 0 001.894 2.23l.604.656-.874.173a49.89 49.89 0 00-2.917.668l-.932.246zm1.355-6.894l-.342 1.342-.594-1.251c-1.164-2.45-.953-3.886-.367-4.412a1.151 1.151 0 01.762-.311.97.97 0 01.323.055 1.235 1.235 0 01.738 1.056 10.868 10.868 0 01-.52 3.52z"/></svg>