<?xml version="1.0" encoding="UTF-8"?><svg id="icons" xmlns="http://www.w3.org/2000/svg" viewBox="0 0 16 16"><defs><style>.cls-1{fill:none;}.cls-1,.cls-2{stroke-width:0px;}</style></defs><path class="cls-2" d="M6.41504,14l-.35168-1.87561c-.00745-.039-.01581-.07715-.02185-.11676l-.93896-5.00763h3.79492l-.32886,1.75378c.07727.00201.15442.00452.2312.01282l.92908-.77374.23413-1.24884,4.03699-4.03699v-1.70703H0v1.70703l4.03699,4.03699,1.54797,8.25598h2.83008l.19445-.99961c-.0188.00043-2.19445-.00039-2.19445-.00039ZM1,2.29297v-.29297h12v.29297l-.70703.70703H1.70703l-.70703-.70703ZM2.70703,4h8.58594l-2,2h-4.58594l-2-2ZM14.5,10c-.651,0-1.20081.41925-1.4079,1h-3.06598l1.57153-1.30957c.25189.19147.56226.30957.90234.30957.82715,0,1.5-.67285,1.5-1.5s-.67285-1.5-1.5-1.5-1.5.67285-1.5,1.5c0,.21521.04736.41895.12933.60413l-1.58606,1.32172c-.27026-.26251-.63757-.42584-1.04327-.42584-.82715,0-1.5.67285-1.5,1.5s.67285,1.5,1.5,1.5c.4057,0,.77301-.16333,1.04327-.42584l1.58606,1.32178c-.08197.18518-.12933.38885-.12933.60406,0,.82715.67285,1.5,1.5,1.5s1.5-.67285,1.5-1.5-.67285-1.5-1.5-1.5c-.33997,0-.65027.11798-.9021.30933l-1.57178-1.3103h3.06567c.20679.58124.7569,1.00098,1.4082,1.00098.82715,0,1.5-.67285,1.5-1.5s-.67285-1.5-1.5-1.5ZM12,8h1v1h-1v-1ZM12,14.75v-.75h1v1h-1v-.25ZM9,11.26312v.73688h-1v-1h1v.26312ZM15,11.26312v.73688h-1v-1h1v.26312Z"/><rect class="cls-1" x="0" y="0" width="16" height="16"/></svg>