<?xml version="1.0" encoding="UTF-8"?><svg id="icons" xmlns="http://www.w3.org/2000/svg" viewBox="0 0 24 24"><defs><style>.cls-1{fill:none;}.cls-1,.cls-2{stroke-width:0px;}</style></defs><path class="cls-2" d="M11.04297,21h-2.08594l-.90918-10h3.9043l-.16565,1.8222c.23145-.04486.46918-.0722.7135-.0722.09808,0,.19696.01611.29565.02429l.18433-2.02747,7.02002-6.01733v-2.72949H0v2.72949l7.02002,6.01733,1.02295,11.25317h3.91406l.1626-1.78851c-.34308-.03522-.67468-.10583-.98425-.2276l-.09241,1.01611ZM1,3h18v1H1v-1ZM7.68457,10L1.85107,5h16.29785l-5.8335,5h-4.63086ZM21.5,14c-1.20764,0-2.21722.86005-2.44946,2h-4.1026c-.0813-.3988-.26434-.75653-.51099-1.06171l2.12079-1.88342c.4585.57147,1.15399.94513,1.94226.94513,1.37891,0,2.49103-1.12109,2.49103-2.5s-1.11212-2.5-2.49103-2.5-2.5,1.12109-2.5,2.5c0,.31616.06506.61597.17255.89459l-2.28381,2.02795c-.40167-.26935-.88501-.42572-1.40417-.42249-1.37891.00848-2.48401,1.13647-2.47552,2.51538.00854,1.37891,1.12756,2.49304,2.50641,2.4845.50793-.00317.9787-.16016,1.37189-.42371l2.28522,2.02917c-.10748.27863-.17255.57843-.17255.89459,0,1.37891,1.12109,2.5,2.5,2.5s2.49103-1.12109,2.49103-2.5-1.11212-2.5-2.49103-2.5c-.78827,0-1.4837.37366-1.9422.94513l-2.12115-1.88367c.2467-.30542.43079-.66302.51196-1.06146h4.10193c.23224,1.13995,1.24182,2,2.44946,2,1.37891,0,2.49103-1.12109,2.49103-2.5s-1.11212-2.5-2.49103-2.5ZM17,11c0-.55231.44769-1,1-1h1c.55231,0,1,.44769,1,1v1c0,.55225-.44769,1-1,1h-1c-.55231,0-1-.44775-1-1v-1ZM17,21c0-.55231.44769-1,1-1h1c.55231,0,1,.44769,1,1v1c0,.55225-.44769,1-1,1h-1c-.55231,0-1-.44775-1-1v-1ZM12.00928,18.00305c-.55231.00342-1.00275-.44159-1.00616-.99377l-.00616-1c-.00342-.55231.44147-1.00275.99377-1.00616l1-.00616c.55231-.00342,1.00275.44147,1.00616.99377l.00616,1c.00342.55219-.44147,1.00275-.99377,1.00616l-1,.00616ZM23,17c0,.55225-.44769,1-1,1h-1c-.55231,0-1-.44775-1-1v-1c0-.55231.44769-1,1-1h1c.55231,0,1,.44769,1,1v1Z"/><rect class="cls-1" width="24" height="24"/></svg>