<?xml version="1.0" encoding="UTF-8"?><svg id="icons" xmlns="http://www.w3.org/2000/svg" viewBox="0 0 32 32"><defs><style>.cls-1{fill:none;}.cls-1,.cls-2{stroke-width:0px;}</style></defs><path class="cls-2" d="M15.06641,27h-2.13281l-1.85742-13h5.84766l-.56384,3.94623c.32965-.1062.67419-.1756,1.03619-.18573l.57251-4.00781,9.03131-8.02808v-2.72461H1v2.72461l9.03131,8.02808,2.0351,14.24731h3.86719l.42108-2.94788c-.33636-.10895-.6593-.24786-.94684-.44196l-.34143,2.38983ZM10.69043,13L2.81519,6h22.36963l-7.87524,7h-6.61914ZM26,4v1H2v-1h24ZM28.5,19c-1.20764,0-2.21722.86005-2.44946,2h-6.10107c-.0777-.38129-.24982-.72473-.4798-1.02167l3.17432-2.81897c.45807.5119,1.11639.84064,1.85602.84064,1.37891,0,2.491-1.12109,2.491-2.5s-1.11209-2.5-2.491-2.5-2.5,1.12109-2.5,2.5c0,.36719.08411.71338.22681,1.02771l-3.29657,2.92719c-.40588-.28473-.89764-.4549-1.43024-.4549-1.37891,0-2.5,1.12109-2.5,2.5s1.12109,2.5,2.5,2.5c.53259,0,1.02435-.1701,1.43024-.45483l3.29657,2.92712c-.1427.31433-.22681.66052-.22681,1.02771,0,1.37891,1.12109,2.5,2.5,2.5s2.491-1.12109,2.491-2.5-1.11209-2.5-2.491-2.5c-.73962,0-1.39789.32874-1.85596.84064l-3.17438-2.81897c.22998-.29694.4021-.64038.4798-1.02167h6.10107c.23224,1.13995,1.24182,2,2.44946,2,1.37891,0,2.491-1.12109,2.491-2.5s-1.11209-2.5-2.491-2.5ZM23,15c0-.55231.44769-1,1-1h1c.55231,0,1,.44769,1,1v1c0,.55225-.44769,1-1,1h-1c-.55231,0-1-.44775-1-1v-1ZM23,27c0-.55231.44769-1,1-1h1c.55231,0,1,.44769,1,1v1c0,.55225-.44769,1-1,1h-1c-.55231,0-1-.44775-1-1v-1ZM17,23c-.55231,0-1-.44775-1-1v-1c0-.55231.44769-1,1-1h1c.55231,0,1,.44769,1,1v1c0,.55225-.44769,1-1,1h-1ZM30,22c0,.55225-.44769,1-1,1h-1c-.55231,0-1-.44775-1-1v-1c0-.55231.44769-1,1-1h1c.55231,0,1,.44769,1,1v1Z"/><rect class="cls-1" x="0" y="0" width="32" height="32"/></svg>