<?xml version="1.0" encoding="UTF-8"?><svg id="icons" xmlns="http://www.w3.org/2000/svg" viewBox="0 0 16 16"><path opacity=".25" d="M8.06348,.95508c-.58691-.5874-1.53516-.58936-2.12207-.00488L.93262,5.93701c-.58691,.58447-.58887,1.53418-.00391,2.12109,.29297,.29443,.67773,.44189,1.0625,.44189,.38281,0,.76562-.14551,1.05859-.43701L8.05859,3.07617c.58691-.58447,.58887-1.53418,.00488-2.12109ZM3,7.5c0,.27612-.22388,.5-.5,.5H1.5c-.27612,0-.5-.22388-.5-.5v-1c0-.27618,.22388-.5,.5-.5h1c.27612,0,.5,.22382,.5,.5v1ZM8,2.5c0,.27612-.22388,.5-.5,.5h-1c-.27612,0-.5-.22388-.5-.5V1.5c0-.27618,.22388-.5,.5-.5h1c.27612,0,.5,.22382,.5,.5v1Zm4.4043,12.37451l.24884,.24878c-.36035,.52863-.96674,.87671-1.65314,.87671-.97919,0-1.78168-.7124-1.95178-1.64349,.32538,.19,.67578,.33868,1.05194,.42828,.0907,.12695,.23193,.21521,.39984,.21521h1c.17059,0,.31384-.09094,.40405-.22137,.11566-.0282,.23315-.04926,.34595-.0882,.04492,.06494,.09668,.12646,.1543,.18408Zm-3.58521-.64307l-3.96356-.49536c-.29425,.73895-1.01331,1.26392-1.85553,1.26392-1.10254,0-2-.89697-2-2,0-.81262,.48889-1.51025,1.18622-1.82294l-.19812-1.17828c.00409,0,.00781,.00122,.0119,.00122,.34253,0,.66644-.06976,.97333-.17596l.20068,1.19354c.30481,.02686,.58887,.11926,.83929,.26788l2.27551-2.26593c-.15015-.25104-.24353-.53638-.27094-.84259l-1.19531-.19891c.10718-.30817,.17743-.63379,.17743-.97803,0-.00214-.00061-.00403-.00061-.00616l1.17584,.19568c.20099-.45056,.56274-.81232,1.01312-1.01361l-.19824-1.18695c.34027,.00092,.67462-.04608,.98785-.15466l.19763,1.18347c.47479,.04211,.9043,.24213,1.22577,.55859l1.68921-1.01349c-.05316-.17969-.09058-.36609-.09058-.56287,0-.14233,.01611-.28082,.04449-.41479l-1.63184-.81244c.1947-.26422,.34473-.56567,.44592-.89508l1.6394,.81598c.367-.42139,.90082-.69366,1.50201-.69366,1.10254,0,2,.89697,2,2,0,1.07916-.86066,1.95538-1.93042,1.99298l-.14166,.63757c-.29242-.16803-.60535-.29956-.93878-.38763l.10449-.47028c-.18158-.09332-.35083-.20709-.495-.34906l-1.23474,.74078c-.49316,.08173-.95123,.25665-1.36389,.50537v-.16974c0-.27618-.22388-.5-.5-.5h-1c-.27612,0-.5,.22382-.5,.5v1c0,.27612,.22388,.5,.5,.5h.16943c-.15924,.2641-.28265,.5484-.37622,.84814-.10278-.04077-.20862-.07599-.30298-.13171l-2.27368,2.27393c.13385,.22662,.22198,.4801,.25745,.75226l2.74188,.34277c.28821,.45215,.65967,.84583,1.10321,1.14606Zm3.18091-8.73145c0,.27612,.22388,.5,.5,.5h1c.27612,0,.5-.22388,.5-.5v-1c0-.27618-.22388-.5-.5-.5h-1c-.27612,0-.5,.22382-.5,.5v1ZM4,12.5c0-.27618-.22388-.5-.5-.5h-1c-.27612,0-.5,.22382-.5,.5v1c0,.27612,.22388,.5,.5,.5h1c.27612,0,.5-.22388,.5-.5v-1Z"/><path d="M14.17047,13.10889c-.14655-.14648-.38281-.14459-.52936,0l-.35608-.34241c.37982-.49042,.61499-1.09821,.61499-1.76648,0-1.60162-1.29846-2.90002-2.90002-2.90002s-2.90002,1.2984-2.90002,2.90002,1.2984,2.89996,2.90002,2.89996c.66113,0,1.26343-.22992,1.75122-.60242l.35486,.35449c-.13434,.14709-.1369,.3728,.00574,.51544l1.72174,1.72266c.14636,.14648,.38367,.14648,.53015,0l.52832-.5293c.14648-.14655,.14752-.38281,0-.53125l-1.72156-1.7207Zm-3.17047-4.00891c1.04755,0,1.90002,.85248,1.90002,1.90002s-.85248,1.89996-1.90002,1.89996-1.90002-.85242-1.90002-1.89996,.85248-1.90002,1.90002-1.90002ZM3.00775,5.28247c-.29712-.17505-.63873-.28247-1.00775-.28247-1.10254,0-2,.89697-2,2s.89746,2,2,2,2-.89697,2-2c0-.37054-.10803-.7135-.28436-1.01135l.72461-.7215s.00006,.00012,.00012,.00012l.83075-.82715c0-.00006-.00006,0-.00012-.00006l.72412-.72095c.29645,.17401,.63708,.28088,1.00488,.28088,1.10254,0,2-.89697,2-2s-.89746-2-2-2-2,.89697-2,2c0,.3717,.10864,.71576,.28595,1.01422l-.71869,.71558c-.00006,0-.00006-.00006-.00006-.00006l-.83398,.83032c.00006,0,0,.00006,.00006,.00006l-.72552,.72235Zm-.00775,2.21753c0,.27612-.22388,.5-.5,.5H1.5c-.27612,0-.5-.22388-.5-.5v-1c0-.27618,.22388-.5,.5-.5h1c.27612,0,.5,.22382,.5,.5v1ZM6,1.5c0-.27618,.22388-.5,.5-.5h1c.27612,0,.5,.22382,.5,.5v1c0,.27612-.22388,.5-.5,.5h-1c-.27612,0-.5-.22388-.5-.5V1.5Z"/><path fill="none" d="M0 0h16v16H0z"/></svg>