<svg id="icons" xmlns="http://www.w3.org/2000/svg" viewBox="0 0 24 24"><path opacity="0.25" d="M20.5,5a2.49353,2.49353,0,0,0-2.0293,1.05078l-4.532-2.014a2.49864,2.49864,0,1,0-4.93866-.53729L4.1864,7.10968A2.40266,2.40266,0,0,0,3.5,7a2.5,2.5,0,0,0,0,5c.01465,0,.02814-.00409.04272-.00433l.93891,4.22613a2.49662,2.49662,0,1,0,3.34576,3.17279l3.91748.6529a5.94748,5.94748,0,0,1-1.09527-1.19617L7.99072,18.408a2.483,2.483,0,0,0-.40716-1.28455l2.037-2.037a5.85752,5.85752,0,0,1,.42988-1.84394L6.87653,16.41644A2.48323,2.48323,0,0,0,5.5,16c-.01453,0-.02795.004-.04242.00427l-.93939-4.226a2.50868,2.50868,0,0,0,1.25989-1.25977l4.22619.939C10.004,11.472,10,11.48547,10,11.5a2.46819,2.46819,0,0,0,.31189,1.19177A5.91868,5.91868,0,0,1,11,11.69263V11a1,1,0,0,1,1-1h1a.96243.96243,0,0,1,.24585.04962,5.8467,5.8467,0,0,1,.99445-.31091,2.4668,2.4668,0,0,0-1.54657-.71912L12.29846,5.8573a2.49919,2.49919,0,0,0,1.231-.9082l4.5318,2.01428a2.30171,2.30171,0,0,0,.03332,1.18036L15.14642,9.618c.11762-.007.23426-.01788.35358-.01788a5.87245,5.87245,0,0,1,1.51086.20331l1.53254-.76612a2.50177,2.50177,0,0,0,.91986.731l-.26361,1.14215a5.948,5.948,0,0,1,.83685.82239l.40131-1.73908C20.459,9.99426,20.4787,10,20.5,10a2.5,2.5,0,0,0,0-5ZM5,17H6a1,1,0,0,1,1,1v1a1,1,0,0,1-1,1H5a1,1,0,0,1-1-1V18A1,1,0,0,1,5,17ZM4,11H3a1,1,0,0,1-1-1V9A1,1,0,0,1,3,8H4A1,1,0,0,1,5,9v1a.97436.97436,0,0,1-.05957.29517h0A.98839.98839,0,0,1,4,11Zm6.2218-.51837L5.99573,9.5423c.00024-.01428.00409-.02747.00421-.04175l4.81744-3.613a2.49659,2.49659,0,0,0,.48883.0929l.39533,3.16229A2.501,2.501,0,0,0,10.2218,10.48163ZM13,4a1,1,0,0,1-1,1H11a1,1,0,0,1-1-1V3a.97436.97436,0,0,1,.05957-.29517h0A.98833.98833,0,0,1,11,2h1a1,1,0,0,1,1,1Zm9,4a1,1,0,0,1-1,1H20a1,1,0,0,1-1-1V7a1,1,0,0,1,1-1h1a1,1,0,0,1,1,1ZM17.99341,22l.68957.68878a2.45481,2.45481,0,0,1-3.50354-1.30511c.10681.0058.21234.01623.32056.01623a5.68848,5.68848,0,0,0,.57129-.04657A.99448.99448,0,0,0,17,22Z"/><path d="M9.84918,5.36285a2.51957,2.51957,0,1,0-.60205-.79791L5.15082,7.63715A2.49,2.49,0,1,0,6,9.5a2.47251,2.47251,0,0,0-.24713-1.06494ZM10,4V3a1,1,0,0,1,1-1h1a1,1,0,0,1,1,1V4a1,1,0,0,1-1,1H11A1,1,0,0,1,10,4ZM5,9v1a1,1,0,0,1-1,1H3a1,1,0,0,1-1-1V9A1,1,0,0,1,3,8H4A1,1,0,0,1,5,9Zm15.75043,9.86169a.66848.66848,0,0,0-.94342,0l-.124.124-.75653-.75647a4.45117,4.45117,0,1,0-.68951.69079l.75586.75586-.12909.12909a.66752.66752,0,0,0,0,.94342l2.05578,2.05475a.66642.66642,0,0,0,.94214.00018l.93366-.93267a.68.68,0,0,0,.00043-.9618ZM12.1001,15.50006a3.4,3.4,0,1,1,3.4,3.4A3.40414,3.40414,0,0,1,12.1001,15.50006Z"/><path fill="none" d="M0 0h24v24H0z"/></svg>