<?xml version="1.0" encoding="UTF-8"?><svg id="icons" xmlns="http://www.w3.org/2000/svg" viewBox="0 0 32 32"><path opacity=".25" d="M15.70056,25.25012l-5.90619-1.18134c-.43237,1.12622-1.5177,1.93121-2.79437,1.93121-1.6543,0-3-1.3457-3-3,0-1.22656,.7417-2.28046,1.79852-2.745l-1.32562-5.3028c.33813-.04047,.66516-.11285,.97217-.2326l1.32593,5.30353c.0769-.00592,.15057-.02313,.229-.02313,.70447,0,1.34442,.25415,1.85687,.66211l4.61041-4.07007c-.29181-.46259-.46729-1.00586-.46729-1.59204,0-.15137,.02295-.29663,.04468-.44202l-5.47321-1.79309c.14752-.29706,.27094-.60742,.34106-.94043l5.44586,1.78387c.38721-.73157,1.06104-1.28088,1.87756-1.4975l-.37439-4.12482c.047,.00165,.091,.01398,.13843,.01398,.29517,0,.58093-.03693,.85803-.09784l.37378,4.12128c.89679,.07001,1.68146,.52734,2.18402,1.21417l4.73096-2.35809c-.08661-.27997-.14679-.57147-.14679-.87952,0-.34167,.06958-.66486,.17529-.97107l-4.94092-2.69513c.19531-.26984,.3576-.56207,.48138-.87653l4.93958,2.69409c.54987-.69574,1.39099-1.15137,2.34467-1.15137,1.6543,0,3,1.3457,3,3s-1.3457,3-3,3c-.07831,0-.15186-.01721-.2287-.02313l-.65582,2.62299c-.28033-.21417-.57336-.4126-.88544-.58179l.56824-2.27332c-.48322-.21246-.89478-.55157-1.20496-.97125l-4.73584,2.36072c.03802,.12506,.06854,.25311,.09308,.38312-.33246,.10535-.6507,.24084-.95898,.39386-.02161-.4657-.20221-.88782-.48987-1.21796l-.00012-.00012c-.07184-.08246-.1499-.15753-.23413-.22723-.00702-.0058-.01392-.01166-.021-.01733-.08044-.06476-.16479-.12292-.25476-.1748-.01361-.00793-.02753-.01489-.04132-.02246-.08868-.0484-.17963-.09119-.2757-.12592-.01398-.00507-.0285-.00848-.04266-.01324-.19983-.06714-.40991-.11212-.63202-.11212-.46521,0-.88837,.16626-1.22852,.43372-.01056,.00818-.02008,.01678-.03046,.02521-.16278,.1333-.30688,.2868-.42108,.46429-.20032,.31146-.31995,.67975-.31995,1.07678,0,.16187,.0246,.31714,.06104,.46796,.00323,.0127,.00812,.0246,.0116,.03717,.03802,.14459,.09241,.28119,.1601,.41113,.1546,.29675,.37378,.55487,.64935,.74127,.14166,.09589,.29968,.1662,.46387,.22351,.04102,.01434,.08148,.02679,.12366,.03845,.02997,.0083,.06311,.00684,.09344,.01416-.21033,.28052-.4032,.57428-.56891,.88586-.31616-.11682-.60779-.28571-.86627-.49426l-4.60046,4.07281c.29547,.46454,.4726,1.01172,.4726,1.60193,0,.03021-.008,.05829-.00891,.08832l4.9541,.99072c.21283,.41663,.46466,.80939,.75537,1.17108Zm8.29944-15.25012c0,.14783,.01855,.29095,.04913,.42969,.12585,.57111,.49908,1.04443,.99835,1.31787,.28455,.15576,.60596,.25244,.95251,.25244,.00549,0,.0105-.00159,.01599-.00165,.0014,0,.00275-.00037,.00415-.00037,.54578-.00555,1.0401-.22949,1.39819-.59027,.00684-.00684,.01172-.01532,.01843-.02228,.08154-.08453,.15765-.17438,.22345-.27222,.02203-.03271,.0365-.07019,.05664-.10419,.04498-.07629,.09174-.15155,.12646-.23376,.02661-.06281,.04114-.13104,.06128-.19696,.01801-.05914,.0423-.11554,.05481-.17688,.02655-.1297,.04059-.26398,.04059-.40143,0-1.10303-.89746-2-2-2-.14191,0-.27991,.01587-.41351,.04413-.02094,.00452-.03992,.01367-.06061,.01886-.11346,.02783-.22418,.06201-.32916,.10834-.00732,.00323-.01367,.008-.02087,.01135-.69153,.31506-1.17584,1.00891-1.17584,1.81732Zm-15,13c0-.18622-.03381-.3631-.08167-.53424-.00049-.00159-.00104-.00317-.00146-.00482-.03821-.13531-.08978-.26355-.15417-.38568,0-.00006-.00006-.00006-.00006-.00012-.15796-.29962-.383-.55768-.66425-.74347-.00012-.00012-.00037-.00012-.00049-.00024-.14001-.09247-.29486-.16113-.4563-.21631-.0351-.01202-.06964-.02277-.10553-.03284-.17175-.04816-.34918-.08228-.53607-.08228-.71942,0-1.34607,.38538-1.69849,.95715-.0094,.01508-.0163,.03125-.02533,.04657-.07074,.12183-.12738,.25116-.17133,.38751-.01245,.0379-.02515,.07465-.03534,.11359-.04095,.15924-.06952,.3233-.06952,.49518,0,1.10303,.89746,2,2,2,.17816,0,.34784-.03094,.51239-.07489,.03967-.01068,.07745-.02307,.11603-.03613,.15076-.05035,.29431-.11426,.42682-.1972,.00647-.00409,.01367-.00677,.02002-.01093,.15118-.09711,.28534-.21527,.40515-.34827,.00531-.00598,.00989-.01233,.01514-.01837,.31-.35236,.50446-.80902,.50446-1.31421Zm15.72467,3.82233l-.08307-.08307c-.35944,.22827-.7439,.40796-1.13751,.56464-.36707,.42273-.90173,.69611-1.50409,.69611-.13531,0-.26721-.0141-.39484-.03992-.05591-.01123-.10742-.03284-.1615-.04865-.06854-.02014-.13873-.03638-.20398-.06348-.03845-.01587-.07336-.03778-.1095-.0575-.0437,.00085-.08643,.00934-.13019,.00934-.52155,0-1.0274-.06451-1.51562-.17627,.53491,.82605,1.46033,1.37646,2.51562,1.37646,1.17328,0,2.18073-.68335,2.67358-1.66711-.00604-.17169,.00537-.34363,.05109-.51056ZM14.6994,5.9696c-.95947-.14636-1.6994-.96954-1.6994-1.9696,0-.1969,.03741-.38342,.0907-.56329L4.3006,9.0304c.95947,.14636,1.6994,.96954,1.6994,1.9696,0,.1969-.03741,.38342-.0907,.56329L14.6994,5.9696Z"/><path d="M27.73828,25.84961c-.26166-.25983-.68359-.25983-.94336,0l-.12402,.12402-1.23773-1.23767c.85162-1.00946,1.36682-2.31189,1.36682-3.73602,0-3.20325-2.59674-5.79993-5.79999-5.79993s-5.79999,2.59668-5.79999,5.79993,2.59674,5.80005,5.79999,5.80005c1.42767,0,2.73285-.51807,3.74335-1.37354l1.23737,1.23737-.12909,.12909c-.25983,.25977-.2608,.6817,0,.94336l3.06738,3.06641c.26068,.26172,.68262,.26172,.9433,0l.94238-.94141c.2608-.26166,.26172-.68359,0-.94336l-3.06641-3.0683Zm-6.73828-.04962c-2.64661,0-4.79999-2.15338-4.79999-4.79999s2.15338-4.79999,4.79999-4.79999,4.79999,2.15338,4.79999,4.79999-2.15338,4.79999-4.79999,4.79999ZM4,8c-1.6543,0-3,1.3457-3,3s1.3457,3,3,3,3-1.3457,3-3c0-.41339-.08405-.8075-.2359-1.1662l6.01904-3.83032c.54938,.60736,1.33527,.99652,2.21686,.99652,1.6543,0,3-1.3457,3-3s-1.3457-3-3-3-3,1.3457-3,3c0,.41339,.08417,.80743,.23602,1.16614l-6.01917,3.83038c-.54938-.60736-1.33527-.99652-2.21686-.99652ZM13,4c0-1.10303,.89746-2,2-2s2,.89697,2,2-.89746,2-2,2-2-.89697-2-2Zm-7,7c0,1.10303-.89746,2-2,2s-2-.89697-2-2,.89746-2,2-2,2,.89697,2,2Z"/><path fill="none" d="M0 0h32v32H0z"/></svg>