<svg id="icons" xmlns="http://www.w3.org/2000/svg" viewBox="0 0 16 16"><path d="M7 0h1v4.05A3.376 3.376 0 0 0 7.5 4a3.376 3.376 0 0 0-.5.05zM0 8h4.05A3.535 3.535 0 0 1 4 7.5a3.534 3.534 0 0 1 .05-.5H0zm9.91 2H5.09c.055.053.104.113.163.163l-2.849 2.849-.416-.416 2.849-2.849c.05.06.11.108.163.163V5.09c-.053.056-.113.105-.163.164L1.988 2.405l.416-.416 2.848 2.849c-.058.05-.106.109-.161.162h4.818c-.055-.053-.104-.113-.163-.163l2.849-2.849.416.416-2.848 2.849c-.05-.06-.11-.107-.163-.162v4.82c.053-.056.113-.105.163-.164l2.849 2.849-.416.416-2.849-2.849c.059-.05.108-.11.163-.163zM9 6H6v3h3zm6 1h-4.05a3.534 3.534 0 0 1 .05.5 3.535 3.535 0 0 1-.05.5H15zm-7 3.95a3.376 3.376 0 0 1-.5.05 3.376 3.376 0 0 1-.5-.05V15h1zm1.1-6.546l.77-1.861a5.524 5.524 0 0 0-.542-.226L8.556 4.18a3.5 3.5 0 0 1 .544.224zm3.583 1.268a5.504 5.504 0 0 0-.227-.543l-1.86.77a3.447 3.447 0 0 1 .224.544zm-2.811 6.785L9.1 10.596a3.411 3.411 0 0 1-.544.223l.772 1.863a5.508 5.508 0 0 0 .543-.225zm2.584-2.585a5.51 5.51 0 0 0 .226-.544l-1.862-.771a3.448 3.448 0 0 1-.224.544zM5.128 2.544l.771 1.86a3.4 3.4 0 0 1 .544-.223L5.67 2.318a5.313 5.313 0 0 0-.543.226zm.771 8.052l-.77 1.861a5.508 5.508 0 0 0 .542.225l.772-1.863a3.38 3.38 0 0 1-.544-.223zM2.544 5.129a5.384 5.384 0 0 0-.226.543l1.862.771a3.447 3.447 0 0 1 .224-.544zm-.226 4.2a5.525 5.525 0 0 0 .226.543l1.86-.771a3.448 3.448 0 0 1-.224-.544z"/></svg>