<svg xmlns="http://www.w3.org/2000/svg" viewBox="0 0 16 16"><path d="M6 6v5h5V6zm4 4H7V7h3zM5.837 6.254L2.988 3.405l.416-.416 2.848 2.849a3.488 3.488 0 0 0-.415.416zM8 5.05V1h1v4.05A3.377 3.377 0 0 0 8.5 5a3.377 3.377 0 0 0-.5.05zM5.05 9H1V8h4.05a3.53 3.53 0 0 0-.05.5 3.53 3.53 0 0 0 .05.5zm5.696-3.163l2.849-2.849.416.416-2.848 2.849a3.424 3.424 0 0 0-.417-.416zm.417 4.91l2.849 2.849-.416.416-2.849-2.849a3.6 3.6 0 0 0 .416-.416zM16 8v1h-4.05a3.53 3.53 0 0 0 .05-.5 3.53 3.53 0 0 0-.05-.5zm-9.747 3.163l-2.849 2.849-.416-.416 2.849-2.849a3.6 3.6 0 0 0 .416.416zM9 11.95V16H8v-4.05a3.377 3.377 0 0 0 .5.05 3.377 3.377 0 0 0 .5-.05zm1.1-6.545a3.5 3.5 0 0 0-.544-.224l.772-1.863a5.509 5.509 0 0 1 .543.226zm3.356.725a5.512 5.512 0 0 1 .227.543l-1.863.771a3.447 3.447 0 0 0-.224-.544zm-2.584 7.328a5.512 5.512 0 0 1-.543.225l-.772-1.863a3.412 3.412 0 0 0 .544-.223zm.948-3.9l1.862.771a5.536 5.536 0 0 1-.226.544l-1.86-.771a3.447 3.447 0 0 0 .224-.544zM6.128 3.544a5.307 5.307 0 0 1 .543-.226l.772 1.863a3.397 3.397 0 0 0-.544.223zm.771 8.052a3.378 3.378 0 0 0 .544.223l-.772 1.863a5.512 5.512 0 0 1-.543-.225zM5.18 7.443l-1.862-.771a5.39 5.39 0 0 1 .225-.543l1.861.77a3.447 3.447 0 0 0-.224.544zm-1.636 3.43a5.536 5.536 0 0 1-.226-.545l1.862-.771a3.447 3.447 0 0 0 .224.544z"/><path fill="none" d="M0 0h16v16H0z"/></svg>