<svg xmlns="http://www.w3.org/2000/svg" viewBox="0 0 24 24"><path d="M11 0h1v7h-1zm1 23v-7h-1v7zm11-12h-7v1h7zM7 11H0v1h7zm.84-3.617L3.456 3 3 3.457 7.383 7.84zM20 3.456L19.543 3 15.16 7.383l.457.457zM15 15H8V8h7zm-1-6H9v5h5zM2 8l4.295 1.694.248-.597L2.244 7.4c-.088.198-.166.4-.244.6zm7.695-1.705L8 2c-.201.078-.402.156-.598.243l1.696 4.3zM21 8a12.331 12.331 0 0 0-.244-.599l-4.299 1.696.248.597zm-5.402-5.757A13.923 13.923 0 0 0 15 2l-1.695 4.295.597.248zM7.84 15.617l-.457-.457L3 19.543l.456.457zM20 19.544l-4.383-4.384-.457.457L19.543 20zm-13.457-5.64l-.248-.598L2 15c.078.201.156.402.244.599zm3.152 2.801l-.597-.248-1.696 4.3c.196.087.397.165.598.243zM21 15l-4.295-1.694-.248.597 4.299 1.696c.088-.197.166-.398.244-.599zm-5.402 5.757l-1.696-4.3-.597.248L15 21c.201-.078.402-.156.598-.243z"/></svg>