<?xml version="1.0" encoding="UTF-8"?><svg id="icons" xmlns="http://www.w3.org/2000/svg" viewBox="0 0 32 32"><defs><style>.cls-1{fill:none;}.cls-1,.cls-2{stroke-width:0px;}</style></defs><rect class="cls-1" width="32" height="32"/><path class="cls-2" d="M3,26v-14h26v14h-.1817l.99988,1h.18182V7h-14l-1-2H5l-1,2h-2v20h14.85272c-.42078-.29175-.80652-.62854-1.15686-1H3ZM3,8h1.61816l1-2h8.76361l1,2h13.61823v3H3v-3ZM29.9942,29.297l-4.56104-4.56104c.85162-1.00946,1.36682-2.31189,1.36682-3.73602,0-3.20331-2.59674-5.79999-5.79999-5.79999s-5.79999,2.59668-5.79999,5.79999,2.59674,5.80005,5.79999,5.80005c1.42767,0,2.73285-.51807,3.74335-1.37354l4.57776,4.5777c.18555.18561.48627.18591.6723.00079.09412-.09369.14709-.22101.14722-.35382.00018-.13281-.05249-.26019-.14642-.35413ZM16.20001,21c0-2.64661,2.15338-4.80005,4.79999-4.80005s4.79999,2.15344,4.79999,4.80005-2.15338,4.79999-4.79999,4.79999-4.79999-2.15344-4.79999-4.79999Z"/></svg>