<?xml version="1.0" encoding="UTF-8"?><svg id="icons" xmlns="http://www.w3.org/2000/svg" viewBox="0 0 16 16"><defs><style>.cls-1{fill:none;}.cls-1,.cls-2{stroke-width:0px;}</style></defs><path class="cls-2" d="M15.76776,15.06061l-2.39746-2.39746c.33148-.47144.52972-1.04309.52972-1.66315,0-1.60162-1.29846-2.90002-2.90002-2.90002s-2.90002,1.2984-2.90002,2.90002,1.2984,2.89996,2.90002,2.89996c.62006,0,1.19171-.19824,1.66315-.52972l2.39752,2.39746c.19525.19525.51178.19531.70709.00006.09375-.09381.14642-.22095.14642-.35358.00006-.13263-.05267-.25983-.14642-.35358ZM9.09998,11c0-1.04755.85248-1.90002,1.90002-1.90002s1.90002.85248,1.90002,1.90002-.85248,1.89996-1.90002,1.89996-1.90002-.85242-1.90002-1.89996ZM2,13v-6h12v.95251c.43463.4223.7757.93378,1,1.50696V3l-6.7002.00201-1.31842-1.00201h-2.98138l-1.2998,1h-1.7002v11h6.9278c-.28662-.2934-.51807-.63483-.71204-1H2ZM2,4h1.04053l1.29974-1h2.3042l1.31842,1h6.03711v2H2v-2Z"/><rect class="cls-1" width="16" height="16"/></svg>