<svg xmlns="http://www.w3.org/2000/svg" viewBox="0 0 32 32"><path d="M31 6v22H1V6h2l1-2h11l1 2a.987.987 0 00-.86.518L14.383 5H4.618l-1 2H2v3h15.878l-1.034 1.035a1 1 0 000 1.414l.707.707a1 1 0 001.414 0l1.235-1.235a4.975 4.975 0 00.8.33V14a1 1 0 001 1h1a1 1 0 001-1v-1.749a4.975 4.975 0 00.8-.33l1.235 1.235a1 1 0 001.414 0l.707-.707a1 1 0 000-1.414L27.122 10H30V7a1 1 0 00-1-1zm-2 2V7h-2.55a3.955 3.955 0 00-.802-1.941l1.801-1.801-.707-.707-1.801 1.801A3.955 3.955 0 0023 3.55V1h-1v2.55a3.955 3.955 0 00-1.941.802l-1.801-1.801-.707.707 1.801 1.801A3.955 3.955 0 0018.55 7H16v1h2.55a3.955 3.955 0 00.802 1.941l-1.801 1.801.707.707 1.801-1.801A3.955 3.955 0 0022 11.45V14h1v-2.55a3.955 3.955 0 001.941-.802l1.801 1.801.707-.707-1.801-1.801A3.955 3.955 0 0026.45 8z"/></svg>