<?xml version="1.0" encoding="UTF-8"?><svg id="icons" xmlns="http://www.w3.org/2000/svg" viewBox="0 0 32 32"><defs><style>.cls-1{fill:none;}.cls-1,.cls-2{stroke-width:0px;}</style></defs><rect class="cls-1" width="32" height="32"/><path class="cls-2" d="m16,7l-1-2H5l-1,2h-2v20h7.51666c-.19263-.32056-.36884-.65179-.51447-1H3v-14h26v14h-5.60175c-.14563.34821-.3219.67944-.51453,1h7.11627V7h-14Zm13,4H3v-3h1.61816l1-2h8.76361l1,2h13.61823v3Zm-6.20001,12c0,3.76001-3.03998,6.79999-6.79999,6.79999s-6.79999-3.03998-6.79999-6.79999,3.03998-6.79999,6.79999-6.79999,6.79999,3.03998,6.79999,6.79999Zm-1,0c0-3.20001-2.59998-5.79999-5.79999-5.79999s-5.79999,2.59998-5.79999,5.79999,2.59998,5.79999,5.79999,5.79999,5.79999-2.59998,5.79999-5.79999Zm-7.79999-4v8l6-4-6-4Zm1.2002,1.86816l3.19727,2.13184-3.19727,2.13184v-4.26367Z"/></svg>