<?xml version="1.0" encoding="UTF-8"?><svg id="icons" xmlns="http://www.w3.org/2000/svg" viewBox="0 0 16 16"><defs><style>.cls-1{fill:none;}.cls-1,.cls-2,.cls-3{stroke-width:0px;}.cls-2{opacity:.5;}</style></defs><path class="cls-3" d="m16,16H1V1h15v15Zm-14-1h13V2H2v13Z"/><path class="cls-2" d="m5,5h-2v-2h2v2Zm3-2h-2v2h2v-2Zm3,0h-2v2h2v-2Zm3,0h-2v2h2v-2Zm-9,3h-2v2h2v-2Zm3,0h-2v2h2v-2Zm3,0h-2v2h2v-2Zm3,0h-2v2h2v-2Zm-9,3h-2v2h2v-2Zm3,0h-2v2h2v-2Zm3,0h-2v2h2v-2Zm3,0h-2v2h2v-2Z"/><rect class="cls-1" width="16" height="16"/></svg>