<?xml version="1.0" encoding="UTF-8"?><svg id="icons" xmlns="http://www.w3.org/2000/svg" viewBox="0 0 32 32"><rect width="32" height="32" style="fill:none; stroke-width:0px;"/><path d="m19.71999,14.99997l-6.71997,4.57996v-9.15997l6.71997,4.58002Zm-3.71999,10.99997H2V3.99994h28v19h-1v-1h-2v1h-1V4.99994H6v20h10v1ZM27,7.99994h2v-2h-2v2Zm0,4h2v-2h-2v2Zm0,4h2v-2h-2v2Zm0,4h2v-2h-2v2Zm-22,2h-2v2h2v-2Zm0-4h-2v2h2v-2Zm0-4h-2v2h2v-2Zm0-4h-2v2h2v-2Zm0-4h-2v2h2v-2Zm21.85352,18.14648l-.70703.70703,1.14648,1.14648h-7.79297c-.27539,0-.5-.22461-.5-.5v-2.5h-1v2.5c0,.82715.67285,1.5,1.5,1.5h7.79297l-1.14648,1.14648.70703.70703,2.35352-2.35352-2.35352-2.35352Z" style="stroke-width:0px;"/></svg>