<?xml version="1.0" encoding="UTF-8"?><svg id="icons" xmlns="http://www.w3.org/2000/svg" viewBox="0 0 24 24"><rect width="24" height="24" style="fill:none; stroke-width:0px;"/><path d="m14.71995,11.00002l-4.71997,3.21997v-6.44l4.71997,3.22003Zm-3.71995,8.99998H.99994V2h22v15.00006h-1v-1h-1.99994v1h-1v-1h-.00006v-2h.00006v-2h-.00006v-2h.00006v-2h-.00006v-2h.00006v-3.00006H5v15h-.00006v1h6.00006v1Zm9-13.99994h1.99994v-2.00006h-1.99994v2.00006Zm0,4h1.99994v-2h-1.99994v2Zm0,4h1.99994v-2h-1.99994v2Zm-16,2H1.99994l.00006,1.99994h2v-1.99994Zm0-4H1.99994v2h2.00006v-2Zm0-4H1.99994v2h2.00006v-2Zm0-4.00006h-2l-.00006,2.00006h2.00006v-2.00006Zm15.85352,14.14648l-.70703.70703,1.14648,1.14648h-5.79297c-.27539,0-.5-.22461-.5-.5v-2.5h-1v2.5c0,.82715.67285,1.5,1.5,1.5h5.79297l-1.14648,1.14648.70703.70703,2.35352-2.35352-2.35352-2.35352Z" style="stroke-width:0px;"/></svg>