<?xml version="1.0" encoding="UTF-8"?><svg id="icons" xmlns="http://www.w3.org/2000/svg" viewBox="0 0 16 16"><rect width="16" height="16" style="fill:none; stroke-width:0px;"/><path d="m13-.00006H0v14h6v-1h-2V.99994h8v9h4V-.00006h-3ZM3,11.99994H1v-2h2v2Zm0-4H1v-2h2v2Zm0-4H1V1.99994h2v2Zm12,4h-2v-2h2v2Zm0-4h-2V1.99994h2v2Zm.20703,9.5l-2.35352,2.35352-.70703-.70703,1.14648-1.14648h-3.79297c-.82715,0-1.5-.67285-1.5-1.5v-1.5h1v1.5c0,.27539.22461.5.5.5h3.79297l-1.14648-1.14648.70703-.70703,2.35352,2.35352Zm-5.09104-6.49997l-3.11597,2v-4l3.11597,2Z" style="stroke-width:0px;"/></svg>