<svg xmlns="http://www.w3.org/2000/svg" viewBox="0 0 16 16"><path d="M14.956 13.855A8.39 8.39 0 0112 12.805a4.173 4.173 0 002.898-3.397 3.047 3.047 0 00-1.859-3.163A2.702 2.702 0 0011.942 6a2.48 2.48 0 00-1.956 1.004 4.928 4.928 0 00-.633 4.727 4.79 4.79 0 01-2.098-.694 2.691 2.691 0 01-.87-1.765 4.324 4.324 0 01.767-2.363c.58-1.18 1.238-2.218.347-3.331a1.594 1.594 0 00-1.096-.595 2.93 2.93 0 00-2.116 1.045l-.086.09C3.443 4.9 2.775 5.65 2.276 5.65c-.324 0-.951-.46-.935-.943.035-1.054 1.729-2.357 2.725-3.12L3.275.556C2.962.798.108 2.68.042 4.665a2.397 2.397 0 002.212 2.291c1.107 0 2.091-1.117 2.883-1.937C5.454 4.691 6 4 6.484 4.39c.375.468-.03.991-.498 1.944a5.29 5.29 0 00-.889 3.112 3.717 3.717 0 001.412 2.656 6.367 6.367 0 003.629.987l.125-.001a7.79 7.79 0 004.53 1.859zm-3.96-6.035a1.198 1.198 0 01.94-.522 1.428 1.428 0 01.576.137 1.792 1.792 0 011.092 1.841 2.855 2.855 0 01-2.365 2.403q-.206.044-.418.07l-.004-.005a3.553 3.553 0 01.18-3.924z"/></svg>