<svg xmlns="http://www.w3.org/2000/svg" viewBox="0 0 32 32"><path d="M6 6v20h6v-1h1v1h6v-1h1v1h6V6H6zm7 18h-1v-1h1v1zm0-2h-1v-1h1v1zm0-2h-1v-1h1v1zm0-2h-1v-1h1v1zm0-2h-1v-1h1v1zm0-2h-1v-1h1v1zm0-2h-1v-1h1v1zm0-2h-1V9h1v1zm0-2h-1V7h1v1zm7 16h-1v-1h1v1zm0-2h-1v-1h1v1zm0-2h-1v-1h1v1zm0-2h-1v-1h1v1zm0-2h-1v-1h1v1zm0-2h-1v-1h1v1zm0-2h-1v-1h1v1zm0-2h-1V9h1v1zm0-2h-1V7h1v1z" opacity=".25" stroke-width="0"/><path stroke-width="0" fill="none" d="M0 0h32v32H0z"/><path d="M27 27H5V5h22v22zM6 26h20V6H6v20zm24 4H2V2h28v28zM3 29h26V3H3v26z" stroke-width="0"/><path d="M13 8h-1V7h1v1zm0 2h-1V9h1v1zm0 2h-1v-1h1v1zm0 2h-1v-1h1v1zm0 2h-1v-1h1v1zm0 2h-1v-1h1v1zm0 2h-1v-1h1v1zm0 2h-1v-1h1v1zm0 2h-1v-1h1v1zm0 2h-1v-1h1v1zm7-18h-1V7h1v1zm0 2h-1V9h1v1zm0 2h-1v-1h1v1zm0 2h-1v-1h1v1zm0 2h-1v-1h1v1zm0 2h-1v-1h1v1zm0 2h-1v-1h1v1zm0 2h-1v-1h1v1zm0 2h-1v-1h1v1zm0 2h-1v-1h1v1z" opacity=".5" stroke-width="0"/></svg>