<svg xmlns="http://www.w3.org/2000/svg" viewBox="0 0 24 24"><path d="M4 4v8h5v-1h1v1h4v-1h1v1h5V4H4zm6 6H9V9h1v1zm0-2H9V7h1v1zm0-2H9V5h1v1zm5 4h-1V9h1v1zm0-2h-1V7h1v1zm0-2h-1V5h1v1z" opacity=".25" stroke-width="0"/><path stroke-width="0" fill="none" d="M0 0h24v24H0z"/><path d="M21 13H3V3h18v10zM4 12h16V4H4v8zm19 11H1V1h22v22zM2 22h20V2H2v20z" stroke-width="0"/><path d="M15 6h-1V5h1v1zm0 1h-1v1h1V7zm0 2h-1v1h1V9zm0 2h-1v1h1v-1zm-5-5H9V5h1v1zm0 1H9v1h1V7zm0 2H9v1h1V9zm0 2H9v1h1v-1z" opacity=".5" stroke-width="0"/></svg>