<svg xmlns="http://www.w3.org/2000/svg" viewBox="0 0 32 32"><path d="M20 7h-1V6h-6v1h-1V6H6v11h6v-1h1v1h6v-1h1v1h6V6h-6v1zm-7 8h-1v-1h1v1zm0-2h-1v-1h1v1zm0-2h-1v-1h1v1zm0-2h-1V8h1v1zm7 6h-1v-1h1v1zm0-2h-1v-1h1v1zm0-2h-1v-1h1v1zm0-2h-1V8h1v1z" opacity=".25" stroke-width="0"/><path stroke-width="0" fill="none" d="M0 0h32v32H0z"/><path d="M27 18H5V5h22v13zM6 17h20V6H6v11zm24 13H2V2h28v28zM3 29h26V3H3v26z" stroke-width="0"/><path d="M13 17h-1v-1h1v1zm0-2h-1v-1h1v1zm0-2h-1v-1h1v1zm0-2h-1v-1h1v1zm0-2h-1V8h1v1zm0-2h-1V6h1v1zm7 10h-1v-1h1v1zm0-2h-1v-1h1v1zm0-2h-1v-1h1v1zm0-2h-1v-1h1v1zm0-2h-1V8h1v1zm0-2h-1V6h1v1z" opacity=".5" stroke-width="0"/></svg>