<svg xmlns="http://www.w3.org/2000/svg" viewBox="0 0 24 24"><path d="M4 4v16h5v-1h1v1h4v-1h1v1h5V4H4zm6 14H9v-1h1v1zm0-2H9v-1h1v1zm0-2H9v-1h1v1zm0-2H9v-1h1v1zm0-2H9V9h1v1zm0-2H9V7h1v1zm0-2H9V5h1v1zm5 12h-1v-1h1v1zm0-2h-1v-1h1v1zm0-2h-1v-1h1v1zm0-2h-1v-1h1v1zm0-2h-1V9h1v1zm0-2h-1V7h1v1zm0-2h-1V5h1v1z" opacity=".25" stroke-width="0"/><path stroke-width="0" fill="none" d="M0 0h24v24H0z"/><path d="M23 23H1V1h22v22zM2 22h20V2H2v20zm19-1H3V3h18v18zM4 20h16V4H4v16z" stroke-width="0"/><path d="M15 6h-1V5h1v1zm0 1h-1v1h1V7zm0 2h-1v1h1V9zm0 2h-1v1h1v-1zm0 2h-1v1h1v-1zm0 2h-1v1h1v-1zm0 3h-1v-1h1v1zm0 1h-1v1h1v-1zM10 6H9V5h1v1zm0 1H9v1h1V7zm0 2H9v1h1V9zm0 2H9v1h1v-1zm0 2H9v1h1v-1zm0 2H9v1h1v-1zm0 3H9v-1h1v1zm0 1H9v1h1v-1z" opacity=".5" stroke-width="0"/></svg>