<svg xmlns="http://www.w3.org/2000/svg" viewBox="0 0 16 16"><path d="M3 3v10h3v-1h1v1h2v-1h1v1h3V3H3zm4 8H6v-1h1v1zm0-2H6V8h1v1zm0-2H6V6h1v1zm0-2H6V4h1v1zm3 6H9v-1h1v1zm0-2H9V8h1v1zm0-2H9V6h1v1zm0-2H9V4h1v1z" opacity=".25" stroke-width="0"/><path stroke-width="0" fill="none" d="M0 0h16v16H0z"/><path d="M16 16H0V0h16v16zM1 15h14V1H1v14zm13-1H2V2h12v12zM3 13h10V3H3v10z" stroke-width="0"/><path d="M7 5H6V4h1v1zm0 1H6v1h1V6zm0 2H6v1h1V8zm0 2H6v1h1v-1zm0 3H6v-1h1v1zm3-8H9V4h1v1zm0 1H9v1h1V6zm0 2H9v1h1V8zm0 2H9v1h1v-1zm0 3H9v-1h1v1z" opacity=".5" stroke-width="0"/></svg>