<?xml version="1.0" encoding="UTF-8"?><svg id="icons" xmlns="http://www.w3.org/2000/svg" viewBox="0 0 24 24"><defs><style>.cls-1{fill:none;}.cls-1,.cls-2,.cls-3,.cls-4{stroke-width:0px;}.cls-2{opacity:.5;}.cls-3{opacity:.25;}</style></defs><path class="cls-3" d="m20,4v3h-5v-1h-1v1h-4v-1h-1v1h-5v-3h5v1h1v-1h4v1h1v-1h5Z"/><rect class="cls-1" width="24" height="24"/><path class="cls-4" d="m23,23H1V1h22v22Zm-21-1h20V2H2v20Zm19-14H3V3h18v5Zm-17-1h16v-3H4v3Z"/><path class="cls-2" d="m10,5h-1v-1h1v1Zm0,1h-1v1h1v-1Zm5-2h-1v1h1v-1Zm0,2h-1v1h1v-1Z"/></svg>