<?xml version="1.0" encoding="UTF-8"?><svg id="icons" xmlns="http://www.w3.org/2000/svg" viewBox="0 0 16 16"><defs><style>.cls-1{fill:none;}.cls-1,.cls-2,.cls-3,.cls-4{stroke-width:0px;}.cls-2{opacity:.5;}.cls-3{opacity:.25;}</style></defs><path class="cls-3" d="m3,3v10h3v-1h1v1h2v-1h1v1h3V3H3Zm4,8h-1v-1h1v1Zm0-2h-1v-1h1v1Zm0-2h-1v-1h1v1Zm0-2h-1v-1h1v1Zm3,6h-1v-1h1v1Zm0-2h-1v-1h1v1Zm0-2h-1v-1h1v1Zm0-2h-1v-1h1v1Z"/><rect class="cls-1" width="16" height="16"/><path class="cls-4" d="m16,16H0V0h16v16Zm-15-1h14V1H1v14Zm13-1H2V2h12v12Zm-11-1h10V3H3v10Z"/><path class="cls-2" d="m7,5h-1v-1h1v1Zm0,1h-1v1h1v-1Zm0,2h-1v1h1v-1Zm0,2h-1v1h1v-1Zm0,3h-1v-1h1v1Zm3-8h-1v-1h1v1Zm0,1h-1v1h1v-1Zm0,2h-1v1h1v-1Zm0,2h-1v1h1v-1Zm0,3h-1v-1h1v1Z"/></svg>