<svg xmlns="http://www.w3.org/2000/svg" viewBox="0 0 32 32"><path d="M30 27H2v-3h28zm-1-1v-1H3v1zm.934-8.067c0 .169-.004.882-.012 1.067h-7.794l.025-.339c.011-.185.016-.778.016-.928a5.889 5.889 0 0 0-2.021-4.421l.234-1.05a6.857 6.857 0 0 1 2.737 5.456V18h5.865v-.082a12.987 12.987 0 0 0-7.268-11.64l.21-.937a13.938 13.938 0 0 1 8.008 12.592zm-20.007-.2c0 .146.004.732.016.927l.021.34H2.077a51.406 51.406 0 0 1-.011-1.067A13.85 13.85 0 0 1 17.724 4.118l-.203.914A13.015 13.015 0 0 0 16 4.935 12.86 12.86 0 0 0 8.383 7.41l3.289 4.875a7.17 7.17 0 0 1 4.376-1.488c.062 0 .123.008.185.01l-.213.956a6.053 6.053 0 0 0-6.093 5.97zm.85-4.736L7.445 8.062a13.007 13.007 0 0 0-4.5 9.9V18H8.91l-.003-.317a6.81 6.81 0 0 1 1.871-4.686zM19.1 2.544l-2.497 11.198 2.31.515L21.408 3.06zm-.786 10.759l-.748-.165 2.133-9.64.747.166z"/></svg>