<svg xmlns="http://www.w3.org/2000/svg" viewBox="0 0 32 32"><path d="M14.707 21.293A.997.997 0 0115 22v2a1 1 0 01-1 1h-2v2h3v1h-3a1 1 0 01-1-1v-2a1 1 0 011-1h2v-2h-3a1 1 0 011-1h2a.997.997 0 01.707.293zM16 3a15.054 15.054 0 00-8.444 2.577l3.608 5.864a8.098 8.098 0 014.611-1.618l-.131.4a1.491 1.491 0 00-.07.6C12.13 11.055 8.675 13.779 9 19H.013A58.218 58.218 0 010 17.797 15.873 15.873 0 0118.294 2.185l-.316.959A15.2 15.2 0 0016 3zM6.749 6.173A14.697 14.697 0 001 17.797l.001.203h6.981a8.434 8.434 0 012.213-5.701c.065-.069.137-.129.203-.195zm12.536 5.778l-2.85-.94L20.019.15l2.85.937zm-.637-1.264l2.956-8.961-.95-.313-2.956 8.962zM20 24h-2v-3h-1v4h3v3h1v-7h-1zm3.069-20.33l-.309.936A14.782 14.782 0 0131 17.797l-.001.203h-6.97a8.32 8.32 0 00-2.143-5.68 7.745 7.745 0 00-1.301-1.117l-.193.587a1.479 1.479 0 01-.206.364A7.354 7.354 0 0123 19h8.987c.008-.21.013-1.012.013-1.203A15.84 15.84 0 0023.069 3.67z"/></svg>