<svg xmlns="http://www.w3.org/2000/svg" viewBox="0 0 24 24"><path d="M23 21H1v-3h22zm-1-1v-1H2v1zM12.012 8.8l.47-.981c-.148-.01-.294-.022-.444-.022a6.291 6.291 0 0 0-3.693 1.195L6.56 5.777a9.913 9.913 0 0 1 7.56-1.386l.44-.92A10.96 10.96 0 0 0 1 14.159c0 .133.003.704.01.842h5.815c-.02-.314-.033-.441-.033-1.086a5.187 5.187 0 0 1 5.22-5.114zm-6.22 5.115V14H2.001a9.984 9.984 0 0 1 3.742-7.633l1.824 3.284a6.03 6.03 0 0 0-1.775 4.264zM23 14.158c0 .133-.004.696-.01.842h-5.842a10.417 10.417 0 0 0 .035-1.086 5.077 5.077 0 0 0-1.21-3.278l.493-1.03a6.035 6.035 0 0 1 1.817 4.309V14H22a9.981 9.981 0 0 0-3.92-7.765l.438-.918A10.979 10.979 0 0 1 23 14.157zM18.061 3.952l-3.478 7.274-2.135-1.02 3.48-7.275zm-1.067.377l-.69-.33-2.788 5.83.69.33z"/></svg>