<svg id="icons" xmlns="http://www.w3.org/2000/svg" viewBox="0 0 32 32"><path transform="rotate(-71.751 19.652 6.05)" d="M14.433 5.05h10.436v2H14.433z"/><path d="M10.953 10.688l-.175.126-2.741-4.456.157-.107a13.724 13.724 0 0 1 10.035-2.273l.566-1.716A15.92 15.92 0 0 0 0 17.797C0 17.99.005 18.801.013 19H9c-.34-5.463 3.46-8.2 7.054-8.2l.025.001a.986.986 0 0 1 .04-.422l.447-1.36C16.43 9.014 16.293 9 16.154 9a8.767 8.767 0 0 0-5.201 1.688zM14 21h-2a1 1 0 0 0-1 1h3v2h-2a1 1 0 0 0-1 1v2a1 1 0 0 0 1 1h3v-1h-3v-2h2a1 1 0 0 0 1-1v-2a1 1 0 0 0-1-1zM20 24h-2v-3h-1v4h3v3h1v-7h-1v3zM22.614 3.453l-.56 1.696a14.005 14.005 0 0 1 8.016 11.746l.005.105h-5.202l-.003-.077a8.572 8.572 0 0 0-4.45-6.813l-.503 1.523a.985.985 0 0 1-.137.241C21.777 13.12 23.265 15.465 23 19h8.987c.008-.21.013-1.012.013-1.203a15.859 15.859 0 0 0-9.386-14.344z"/></svg>