<?xml version="1.0" encoding="UTF-8"?><svg id="icons" xmlns="http://www.w3.org/2000/svg" viewBox="0 0 32 32"><path d="M8,13h-2v-1h2v1Zm3-1h-2v1h2v-1Zm3,0h-2v1h2v-1ZM29,3V20h-1v-4h-2.5c-.46002-.60999-1.17999-1-2-1h4.5v-5H4v5H23.5c-.82001,0-1.53998,.39001-2,1H4v5h12v1H3V3H29Zm-1,1H4v5H28V4ZM6,18v1h2v-1h-2Zm3,0v1h2v-1h-2Zm3,0v1h2v-1h-2ZM6,7h2v-1h-2v1Zm3,0h2v-1h-2v1Zm3,0h2v-1h-2v1Zm18,15.5c0,1.09998-1.16998,1.88-2.23999,1.29999l-4.85999,4.15997c.06,.17004,.09998,.35004,.09998,.54004,0,.82996-.66998,1.5-1.5,1.5s-1.5-.67004-1.5-1.5v-.03003l-5.35999-2.01001c-.88,1.07001-2.64001,.44-2.64001-.95996,0-1.27645,1.49232-1.96024,2.45001-1.15002l2.58002-1.54999c-.24005-1.22003,1.00995-2.20001,2.12994-1.64001l3.03003-2.95001c-.12-.20996-.19-.44995-.19-.70996,0-.83002,.66998-1.5,1.5-1.5s1.5,.66998,1.5,1.5c0,.25-.07001,.47998-.16998,.69l3.01996,2.96997c.94-.48999,2.15002,.20001,2.15002,1.34003Zm-16,2.5h-1v1h1v-1Zm9-7h1v-1h-1v1Zm-5,5h1v-1h-1v1Zm2.41998,4.45996l-1.73999-3.47998c-.39996,.07001-.82001-.07001-1.13-.33002l-2.58002,1.55005c.02002,.12,.03003,.20996,.03003,.32996l5.35999,2.01001c.02002-.02997,.04004-.04999,.06-.08002Zm1.58002,.54004h-1v1h1v-1Zm5.09998-4.96002c0-.01001,0-.02997-.00995-.03998h-7.18005c-.06995,.20001-.19,.39001-.32996,.53998l1.73999,3.47998c.33002-.04999,.64001,.03003,.91998,.18005l4.85999-4.16003Zm.04004-1.16998l-3.04004-3c-.42999,.17999-.84998,.15997-1.16998,.01001l-3.07001,2.98999c.02002,.03998,.03003,.08997,.04999,.13h7.18005c.01996-.04004,.02997-.09003,.04999-.13Zm1.85999,.13h-1v1h1v-1Z"/><path fill="none" d="M0 0h32v32H0z"/></svg>