<?xml version="1.0" encoding="UTF-8"?><svg id="icons" xmlns="http://www.w3.org/2000/svg" viewBox="0 0 16 16"><path d="M3,3h1v1h-1v-1Zm2,1h1v-1h-1v1Zm2,0h1v-1h-1v1ZM15,1v7h-1v-2H2v3h6v1H1V1H15Zm-1,1H2v3H14V2ZM3,7v1h1v-1h-1Zm2,0v1h1v-1h-1Zm2,0v1h1v-1h-1Zm9,3.5c0,.85885-.73622,1.59761-1.68176,1.48169l-.73969,1.47931c.25983,.26971,.42145,.63489,.42145,1.039,0,.82843-.67157,1.5-1.5,1.5-.81873,0-1.48169-.65662-1.49713-1.47168l-3.32587-1.10864c-.27454,.35077-.69702,.58032-1.177,.58032-.82843,0-1.5-.67157-1.5-1.5s.67157-1.5,1.5-1.5c.40411,0,.76929,.16162,1.039,.42145l1.47931-.73969c-.11614-.94739,.62451-1.68176,1.48169-1.68176,.65216,0,1.2016,.41876,1.4082,1h1.18359c.2066-.58124,.75604-1,1.4082-1,.82843,0,1.5,.67157,1.5,1.5Zm-9,1.5h-1v1h1v-1Zm3-1h1v-1h-1v1Zm3,3h-1v1h1v-1Zm.42145-2.461c-.14648-.1521-.25751-.33594-.32965-.539h-1.18359c-.2066,.58124-.75604,1-1.4082,1-.40411,0-.76929-.16162-1.039-.42145l-1.47931,.73969c.00623,.05084,.01447,.10107,.01544,.15344l3.32587,1.10864c.30938-.39529,.79107-.63161,1.35876-.56201l.73969-1.47931Zm1.57855-1.539h-1v1h1v-1Z"/><path fill="none" d="M0 0h16v16H0z"/></svg>