<?xml version="1.0" encoding="UTF-8"?><svg id="icons" xmlns="http://www.w3.org/2000/svg" viewBox="0 0 24 24"><path d="M5,4h1v1h-1v-1Zm2,1h1v-1h-1v1Zm15-3V15h-.67999l-.47998-.62c.03998-.12,.15997-.38,.15997-.38v-3H3v3h13.04999c.03003,.13,.07001,.26001,.10999,.38l-.47998,.62H2V2H22Zm-1,5H3v3H21v-3Zm0-4H3v3H21V3ZM6,8h-1v1h1v-1Zm2,0h-1v1h1v-1Zm-3,4v1h1v-1h-1Zm2,0v1h1v-1h-1Zm2-7h1v-1h-1v1Zm1,3h-1v1h1v-1Zm-1,4v1h1v-1h-1Zm14,5.5c0,.82843-.67157,1.5-1.5,1.5-.19928,0-.38861-.04071-.56256-.11127l-1.30756,1.63446c.2276,.263,.37012,.60168,.37012,.97681,0,.82843-.67157,1.5-1.5,1.5-.78418,0-1.42047-.60394-1.487-1.37085l-4.12982-1.54865c-.22693,.5401-.76062,.91949-1.38318,.91949-.82843,0-1.5-.67157-1.5-1.5s.67157-1.5,1.5-1.5c.48175,0,.90564,.23102,1.18011,.58405l1.34766-.80859c-.01666-.08954-.02777-.18109-.02777-.27545,0-.82843,.67157-1.5,1.5-1.5,.19928,0,.38861,.04071,.56256,.11127l1.30756-1.63446c-.2276-.263-.37012-.60168-.37012-.97681,0-.82843,.67157-1.5,1.5-1.5s1.5,.67157,1.5,1.5c0,.37512-.14252,.71381-.37012,.97681l1.30756,1.63446c.17395-.07056,.36328-.11127,.56256-.11127,.82843,0,1.5,.67157,1.5,1.5Zm-11,1.5h-1v1h1v-1Zm6-5h1v-1h-1v1Zm-3,4h1v-1h-1v1Zm2.37012,2.52319l-1.30756-1.63446c-.63619,.25805-1.33281,.05422-1.74261-.47278l-1.34772,.80859c.00885,.04755,.01056,.09729,.01477,.1463l4.12982,1.54871c.06165-.14679,.15063-.27771,.2533-.39636Zm1.62988,.47681h-1v1h1v-1Zm1.37012-2.52319c-.12067-.1394-.21533-.29962-.27832-.47681h-3.18359c-.06299,.17719-.15765,.3374-.27832,.47681l1.30756,1.63446c.17395-.07056,.36328-.11127,.56256-.11127s.38861,.04071,.56256,.11127l1.30756-1.63446Zm0-1.95361l-1.30756-1.63446c-.3658,.14837-.75932,.14837-1.12512,0l-1.30756,1.63446c.12067,.1394,.21533,.29962,.27832,.47681h3.18359c.06299-.17719,.15765-.3374,.27832-.47681Zm1.62988,.47681h-1v1h1v-1Z"/><path fill="none" d="M0 0h24v24H0z"/></svg>