<?xml version="1.0" encoding="UTF-8"?><svg id="icons" xmlns="http://www.w3.org/2000/svg" viewBox="0 0 24 24"><path d="M5,4h1v1h-1v-1Zm2,1h1v-1h-1v1Zm15-3V12.82996c-.29999-.29999-.64001-.56995-1-.79999v-1.02997H3v3H12.03003c-.21002,.31-.38,.64996-.53003,1H2V2H22Zm-1,5H3v3H21v-3Zm0-4H3v3H21V3ZM6,8h-1v1h1v-1Zm2,0h-1v1h1v-1Zm-3,4v1h1v-1h-1Zm2,0v1h1v-1h-1Zm2-7h1v-1h-1v1Zm1,3h-1v1h1v-1Zm-1,4v1h1v-1h-1Zm14,5.5c0,3.02997-2.46997,5.5-5.5,5.5s-5.49-2.47003-5.49-5.5,2.45997-5.5,5.49-5.5,5.5,2.46997,5.5,5.5Zm-1,0c0-2.48004-2.02002-4.5-4.5-4.5s-4.5,2.01996-4.5,4.5,2.02002,4.5,4.5,4.5,4.5-2.02002,4.5-4.5Zm-4,.5v-3h-1v4h3v-1h-2Z"/><path fill="none" d="M0 0h24v24H0z"/></svg>