<?xml version="1.0" encoding="UTF-8"?><svg id="icons" xmlns="http://www.w3.org/2000/svg" viewBox="0 0 16 16"><path d="M3,3h1v1h-1v-1Zm2,1h1v-1h-1v1Zm2,0h1v-1h-1v1ZM15,1V7.95996c-.29999-.22998-.64001-.41998-1-.56995v-1.39001H2v3h6.02002c-.23999,.31-.44,.64001-.60004,1H1V1H15Zm-1,1H2v3H14V2ZM3,7v1h1v-1h-1Zm2,0v1h1v-1h-1Zm2,0v1h1v-1h-1Zm9,5c0,2.20996-1.70001,4-3.94,4s-4.06-1.79004-4.06-4c0-2.20142,1.82139-4,4.06-4,2.29285,0,3.94,1.85306,3.94,4Zm-1,0c0-1.67334-1.37845-3-3-3-1.62118,0-3,1.32628-3,3,0,1.64996,1.34998,3,3,3s3-1.35004,3-3Zm-3,0h1v1h-2v-3h1v2Zm4,0c0,2.20996-1.70001,4-3.94,4s-4.06-1.79004-4.06-4c0-2.20142,1.82139-4,4.06-4,2.29285,0,3.94,1.85306,3.94,4Zm-1,0c0-1.67334-1.37845-3-3-3-1.62118,0-3,1.32628-3,3,0,1.64996,1.34998,3,3,3s3-1.35004,3-3Zm-3,0h1v1h-2v-3h1v2Zm0,0v-2h-1v3h2v-1h-1Z"/><path fill="none" d="M0 0h16v16H0z"/></svg>