<?xml version="1.0" encoding="UTF-8"?><svg id="icons" xmlns="http://www.w3.org/2000/svg" viewBox="0 0 16 16"><path d="M6.42902,8.5719c.00018-.00702,.00049-.01855,.00067-.02502,.37158-.27246,.5459-.60938,.5459-1.01758,0-.01367,0-.02734-.00049-.04004,.03223-.04492,.06348-.09473,.09229-.14941,.05762-.01562,.1123-.03418,.16309-.05664,.38721,.23047,.78711,.23047,.9541,.23047h.35938c.06738,0,.24219-.02148,.45605-.05273v1.12402l1-.71429V0H0V10H4.71173c.31213-.71155,.94629-1.24664,1.71729-1.4281Zm-5.42902,.4281V1H6.09814c-.17529,.21777-.29932,.48926-.29932,.82227,0,.07812,.00732,.15137,.01904,.21875-.06549,.0907-.12427,.20093-.16833,.32825-.01422,.04333-.0271,.08966-.03772,.13757-.08594,.06543-.16504,.1416-.2373,.22852-.23828,.28711-.33838,.62598-.28271,.95703-.02148,.02051-.0415,.04102-.06055,.06152-.07227-.01367-.14941-.02148-.23242-.02148-.37549,0-.7124,.1709-.94189,.43945-.13477-.05273-.29004-.08594-.46826-.08594-.73828,0-1.33887,.61328-1.33887,1.36719,0,.11328,.01269,.21094,.02832,.29004-.07178,.15332-.14355,.36035-.14355,.62012,0,.38379,.18604,.72559,.47607,.94727-.06934,.3418,.01465,.63965,.12939,.86914,.11279,.22559,.27393,.37207,.43848,.4707-.01025,.07422-.0166,.1543-.0166,.24023,0,.00391,0,.04492,.00049,.10938H1Zm2.96234,0c-.00024-.06018-.00043-.10583-.00043-.10944,0-.17377,.05566-.29675,.10058-.42969,.03321-.09369,.06049-.19531,.06049-.3183,0-.3125-.59467-.22272-.68842-.41022-.2334-.4668,.39551-.58588,.39551-.95697,0-.0899-.04688-.2774-.19141-.29303-.20118-.02148-.25391,.08795-.4541,.08795-.125,0-.25-.08203-.25-.20703,0-.2207,.1748-.32233,.1748-.54297,0-.14453-.05957-.22461-.05957-.36725,0-.19525,.14447-.36719,.33887-.36719,.18359,0,.26465,.15039,.35254,.3067,.0733,.13281,.20221,.17773,.3526,.17773,.27917,0,.45496-.34961,.45496-.55664,0-.14459,.10754-.28131,.25-.28131,.19922,0,.27252,.20514,.46985,.20514,.32709,0,.31641-.43164,.60437-.58594,.3526-.19141,.25-.60358,.20508-.82227-.01849-.09961,.1651-.28711,.26373-.28131,.41107,.03131,.23627-.30847,.23627-.46869,0-.03131,.00305-.05859,.01373-.08203,.0625-.18945,.33887-.25,.33887-.47845,0-.15833-.1319-.23444-.1319-.39655,0-.23828,.23315-.39349,.60236-.56921,.08173-.05615,.13666-.14795,.17755-.25305h1.42133V6.44897c-.23969,.03693-.43359,.0647-.45612,.0647h-.35931c-.19049,0-.37006-.01569-.51959-.14648-.15131-.13092-.1474-.39648-.35248-.39648-.27539,0-.29693,.41211-.57232,.41211-.125,0-.18451-.08795-.30951-.08795-.11035,0-.21979,.06842-.21979,.17975v.28516c0,.24225-.32318,.29102-.32318,.5351,0,.09772,.08789,.13483,.08789,.23444,0,.33008-.58789,.28522-.58789,.61719,0,.10742,.03998,.17383,.04297,.27728,.00092,.00592,.00092,.01172,.00092,.01575,0,.05109-.00665,.28687-.01819,.56049h-1.45105ZM15,5h-1c-.54999,0-1,.45001-1,1v.95685l-3.8042,2.71722c.24548,.22809,.44629,.50165,.58472,.81165l3.7074-2.64825c.15222,.09393,.32104,.16254,.51208,.16254v5c-.32373,0-.5993,.16602-.78235,.40643l-3.26917-1.40094c-.06921,.33575-.20801,.64526-.39734,.91742l3.44885,1.47821v.59888c0,.54999,.45001,1,1,1h1c.54999,0,1-.45001,1-1v-1c0-.54999-.45001-1-1-1v-5c.54999,0,1-.45001,1-1v-1c0-.54999-.45001-1-1-1Zm0,10h-1v-1h1v1Zm0-8h-1v-1h1v1Zm-6,5c0,.54999-.45001,1-1,1h-1c-.54999,0-1-.45001-1-1v-1c0-.54999,.45001-1,1-1h1c.54999,0,1,.45001,1,1v1Z"/><path fill="none" d="M0 0h16v16H0z"/></svg>