<?xml version="1.0" encoding="UTF-8"?><svg id="icons" xmlns="http://www.w3.org/2000/svg" viewBox="0 0 32 32"><path d="M8.35107,21c-.14905,.3114-.24927,.64636-.30054,1H2V2H22V12.73083l-1,.64716V3h-2.97363c-.05859,.1875-.16119,.34375-.35156,.43359-.83203,.39648-1.62891,.87891-1.62891,1.41797,0,.36328,.29877,.53125,.29877,.89062,0,.51367-.62109,.65039-.76459,1.07617-.02051,.05463-.0293,.11713-.0293,.18164,0,.36517,.39551,1.125-.53027,1.05658-.2226-.01361-.63873,.41022-.59473,.63092,.09961,.49408,.33099,1.42377-.46289,1.85156-.64752,.3476-.62109,1.32031-1.35651,1.32031-.44531,0-.6123-.46289-1.05762-.46289-.3222,0-.5625,.30859-.5625,.6308,0,.4707-.39545,1.25592-1.02539,1.25592-.33978,0-.62689-.09961-.79388-.39844-.19922-.35345-.37793-.69336-.79401-.69336-.43652,0-.75867,.38867-.75867,.82806,0,.32031,.13177,.50201,.13177,.82623,0,.49609-.39551,.72656-.39551,1.22266,0,.28125,.28119,.46295,.5625,.46295,.4541,0,.57129-.2442,1.0224-.19934,.3252,.03522,.43073,.45709,.43073,.66211,0,.83398-1.41504,1.10358-.89062,2.15039,.21088,.42194,1.55273,.22272,1.55273,.92584,0,.10217-.01581,.19171-.03052,.28198-.49506,.23749-.92114,.58698-1.25433,1.01685,.0307-.39117,.13-.70532,.15985-.78906,0,0,.04688-.13281,.04932-.14062-.00684-.00195-.01367-.00293-.02002-.00488-.41943-.09766-1.05273-.24512-1.35107-.8418-.46045-.91895-.12842-1.61719,.22314-2.06543-.81152-.05176-1.4541-.68652-1.4541-1.45898,0-.50293,.19238-.85547,.31934-1.08984,.03027-.05469,.07129-.13086,.07617-.13281,0-.03125-.00928-.06934-.03369-.16211-.0415-.15918-.09814-.37598-.09814-.66406,0-1.00781,.78906-1.82812,1.75879-1.82812,.85303,0,1.28955,.56738,1.55322,1.00781,.03174-.06055,.05713-.12891,.06006-.17188,0-.89941,.70068-1.63086,1.5625-1.63086,.43213,0,.75342,.16895,.96973,.31543,.17627-.31152,.44336-.77051,.99707-1.06836,.06201-.11523-.02637-.5459-.0708-.76074-.07666-.38672,.04736-.80176,.34912-1.16992,.11865-.14453,.38818-.42969,.76416-.57227-.00488-.0498-.00732-.09668-.00732-.14062,0-.18848,.03125-.36816,.08154-.50098,.13916-.41309,.41504-.6709,.61768-.8457-.09668-.1875-.2041-.45312-.2041-.80176,0-.31738,.24432-1.19659,1.24072-1.85156H3V21h5.35107Zm5.8175-3.20081l1.05255-.68121c.21527-.21936,.45758-.54034,.49762-1.01935,.06201,.00781,.12695,.0127,.19531,.0127,.55908,0,.93604-.27441,1.18457-.54004,.05396,.07062,.12231,.13922,.1933,.20648l.89191-.57721c-.06354-.03717-.12756-.07245-.18677-.12439-.3399-.29486-.33105-.89258-.79401-.89258-.62109,0-.66785,.92767-1.289,.92767-.28125,0-.41309-.20111-.6944-.20111-.24896,0-.49506,.1582-.49506,.40625v.64447c0,.54498-.72949,.6543-.72949,1.19928,0,.22266,.19916,.30664,.19916,.52936,0,.04199-.0177,.07275-.0257,.10968Zm-2.66858,7.20081c1.37842,0,2.5-1.12158,2.5-2.5s-1.12158-2.5-2.5-2.5-2.5,1.12158-2.5,2.5,1.12158,2.5,2.5,2.5ZM30.91553,10.88898c.04987,.19666,.08447,.39911,.08447,.61102,0,1.20721-.86029,2.2171-2,2.4494v11.1012c1.13971,.2323,2,1.24219,2,2.4494,0,.18781-.0246,.36926-.06403,.54535-.01001,.04449-.02783,.08563-.04016,.12921-.03699,.1308-.08014,.25806-.13702,.37933-.02509,.05359-.0556,.10382-.08435,.15527-.05707,.10217-.11853,.20013-.1889,.29291-.04279,.0564-.08759,.1109-.13489,.16339-.07141,.07935-.14813,.15179-.22906,.22144-.06091,.05243-.11993,.10681-.18573,.15326-.03937,.02777-.08069,.05164-.12164,.07715-.08276,.05157-.16864,.09821-.25745,.13995-.05518,.02594-.1106,.04993-.16785,.07184-.08679,.03326-.17657,.05975-.26764,.08325-.05573,.0144-.10986,.03113-.16699,.04169-.14777,.02734-.29871,.04596-.45428,.04596-.2099,0-.41052-.03375-.60547-.0827-1.08521-.27258-1.89453-1.24878-1.89453-2.4173,0-.07111,.01514-.13806,.021-.2077l-11.34747-3.33759c.13824-.30017,.22821-.62299,.27661-.9613l11.35284,3.33899c.34552-.64709,.95752-1.13104,1.69702-1.2818V13.9494c-.49713-.10132-.93951-.35181-1.2821-.70087l-12.04572,7.79425c-.14154-.30652-.32935-.58429-.54913-.83545l12.05371-7.7995c-.11072-.28223-.17676-.58685-.17676-.90784,0-.85809,.43518-1.61597,1.09583-2.06635,.01111-.00757,.02319-.01343,.03442-.02081,.11707-.07709,.24091-.14453,.37048-.20135,.02271-.01001,.04584-.01843,.06891-.02771,.11615-.04688,.23724-.08325,.36121-.11237,.03522-.00824,.06946-.01776,.10522-.02448,.1507-.0285,.30505-.04694,.46393-.04694,.18933,0,.37213,.02521,.54956,.06531,.04871,.01099,.09399,.03021,.1416,.04407,.12708,.03687,.25067,.07928,.36853,.13495,.05469,.02582,.1062,.05664,.15863,.08624,.14197,.08002,.27417,.1723,.39722,.27753,.03827,.03278,.08008,.06116,.11633,.09607,.13953,.13458,.26202,.28479,.36743,.44849,.03101,.04816,.05457,.10107,.08228,.15137,.07196,.13062,.13171,.26691,.17963,.41034,.01935,.05774,.03918,.11511,.05432,.17462Zm-.91553,.11102c0-.55231-.44769-1-1-1h-1c-.55231,0-1,.44769-1,1v1c0,.55225,.44769,1,1,1h1c.55231,0,1-.44775,1-1v-1Zm0,16c0-.55231-.44769-1-1-1h-1c-.55231,0-1,.44769-1,1v1c0,.55225,.44769,1,1,1h1c.55231,0,1-.44775,1-1v-1Z"/><path fill="none" d="M0 0h32v32H0z"/></svg>