<svg id="icons" xmlns="http://www.w3.org/2000/svg" viewBox="0 0 24 24"><path d="M9.54309,13.17242c.26215-.12866.5401-.24731.5401-.543,0-.167-.14935-.23-.14935-.397,0-.40875.54712-.49072.54712-.89947v-.48334a.342.342,0,0,1,.37133-.30469c.21094,0,.30982.15082.52076.15082.46582,0,.501-.69574.96679-.69574.34717,0,.34058.44824.59546.66943a1.24172,1.24172,0,0,0,.87451.249h.3584l-1.27636.851a1.82889,1.82889,0,0,1-.61206-.34461c-.01172-.00976-.02344-.0205-.03467-.03125a1.3757,1.3757,0,0,1-.811.30079,1.55662,1.55662,0,0,1-.38135.6582,1.276,1.276,0,0,1,.03028.27734,1.31421,1.31421,0,0,1-.07361.39447l-.72333.48224A3.64257,3.64257,0,0,0,9.54309,13.17242ZM2,15V2h8.81006a1.48706,1.48706,0,0,0-.19385,1.42969,1.55491,1.55491,0,0,0-.39844.61426,1.30621,1.30621,0,0,0-.07422.415,1.65384,1.65384,0,0,0-.51074.417A1.30483,1.30483,0,0,0,9.31836,5.96a3.33261,3.33261,0,0,1,.0625.37012,1.95679,1.95679,0,0,0-.60156.61621,1.447,1.447,0,0,0-.6377-.14844A1.4299,1.4299,0,0,0,6.78906,7.81641a1.42319,1.42319,0,0,0-1.02929-.42286,1.59752,1.59752,0,0,0-1.56885,1.6211,2.10722,2.10722,0,0,0,.08154.56055.03344.03344,0,0,0,.019-.01563,1.98729,1.98729,0,0,0-.29834.99219,1.35511,1.35511,0,0,0,.93311,1.26465,1.558,1.558,0,0,0,.0166,1.49023,1.40452,1.40452,0,0,0,.92676.69824c-.03229.09949-.05841.20386-.082.31067a3.50107,3.50107,0,0,1,1.16345-.93793c-.20282-.3197-.977-.24462-1.1142-.51928-.39331-.7851.66791-.98731.66791-1.6128,0-.15374-.0791-.47015-.323-.49658-.33831-.03363-.4262.14948-.76678.14948a.39038.39038,0,0,1-.42188-.34717c0-.37207.29663-.54492.29663-.917,0-.24317-.09887-.37946-.09887-.61969a.59655.59655,0,0,1,.569-.621c.31207,0,.4461.25489.59552.52a.62071.62071,0,0,0,.5954.29883c.47241,0,.769-.58893.769-.942a.45638.45638,0,0,1,.42187-.47309c.334,0,.45923.34717.79322.34717.55157,0,.53174-.72949,1.01739-.99023.5954-.32086.42188-1.01813.34717-1.38868-.033-.16552.279-.48339.446-.4732.69433.05133.3977-.51856.3977-.79242a.39053.39053,0,0,1,.022-.13623c.10761-.31934.57343-.42188.57343-.80713,0-.26953-.22406-.39551-.22406-.668,0-.329.39966-.62774.88348-.88867H15v8.364l1-.66668V1H1V16H5.05054a3.455,3.455,0,0,1,.30053-1Zm19-4.0506v7.1012A2.5,2.5,0,1,1,18,20.5a2.45721,2.45721,0,0,1,.03-.2962l-7.37512-2.45856a2.49254,2.49254,0,1,1-.396-3.0188L18.18713,9.4411A2.49817,2.49817,0,1,1,21,10.9494ZM20.5,10A1.5,1.5,0,1,0,19,8.5,1.50164,1.50164,0,0,0,20.5,10Zm-2.15472,9.25464A2.498,2.498,0,0,1,20,18.0506V10.9494a2.49631,2.49631,0,0,1-1.259-.676l-7.9281,5.28564A2.48159,2.48159,0,0,1,11,16.5a2.44943,2.44943,0,0,1-.03.29645ZM22,20.5A1.5,1.5,0,1,0,20.5,22,1.50164,1.50164,0,0,0,22,20.5Z"/><path fill="none" d="M0 0h24v24H0z"/></svg>