<svg xmlns="http://www.w3.org/2000/svg" viewBox="0 0 32 32"><path d="M0 5v20h17.5l7 7h.5v-7h7V5zm31 19h-7v6.086L17.914 24H1V6h30zM9.854 10.1v1.169a2.513 2.513 0 00-1.165-1.05 3.642 3.642 0 00-1.496-.32 3.876 3.876 0 00-1.51.284 3.387 3.387 0 00-1.89 1.916 3.778 3.778 0 00-.262 1.409 3.715 3.715 0 00.263 1.4 3.38 3.38 0 00.737 1.13 3.423 3.423 0 001.158.754 4.026 4.026 0 001.52.277 3.62 3.62 0 001.473-.305 2.802 2.802 0 001.126-.92v1.095a4.363 4.363 0 01-.137 1.11 2.413 2.413 0 01-.469.928 2.234 2.234 0 01-.866.623 3.333 3.333 0 01-1.29.223 3.876 3.876 0 01-2.652-1.087l-.666.811a4.775 4.775 0 001.453.819 5.445 5.445 0 001.85.334 4.568 4.568 0 001.83-.322 3.22 3.22 0 001.177-.848 3.147 3.147 0 00.638-1.219 5.61 5.61 0 00.193-1.48V10.1zm-.129 4.452a2.64 2.64 0 01-.54.88 2.52 2.52 0 01-.852.59 2.73 2.73 0 01-1.094.217 2.517 2.517 0 01-1.103-.235 2.626 2.626 0 01-.824-.614 2.588 2.588 0 01-.516-.88 3.095 3.095 0 01-.173-1.033 3.194 3.194 0 01.173-1.055 2.497 2.497 0 01.518-.883 2.538 2.538 0 011.925-.824 2.611 2.611 0 011.09.225 2.66 2.66 0 011.396 1.483 2.914 2.914 0 01.191 1.054 3.026 3.026 0 01-.19 1.075zm6.475 2.602a4.022 4.022 0 01-1.468-.263 3.387 3.387 0 01-1.152-.736 3.44 3.44 0 01-.757-1.144 3.904 3.904 0 01-.277-1.496 4 4 0 01.271-1.49 3.394 3.394 0 01.751-1.158 3.482 3.482 0 011.14-.751 3.94 3.94 0 012.809-.022 2.858 2.858 0 011.041.706 3.253 3.253 0 01.661 1.126 4.56 4.56 0 01.235 1.512s0 .34-.003.397h-5.82l.008.199a1.907 1.907 0 00.225.842 2.485 2.485 0 00.56.762 2.582 2.582 0 00.805.504 2.794 2.794 0 002.347-.17 2.9 2.9 0 00.784-.673l.71.57a3.398 3.398 0 01-1.19.937 3.976 3.976 0 01-1.68.348zm-.077-6.554a2.543 2.543 0 00-.94.175 2.458 2.458 0 00-.767.476 2.493 2.493 0 00-.533.708 2.288 2.288 0 00-.244.881l-.015.206h4.745l-.008-.2a2.986 2.986 0 00-.156-.863 2.057 2.057 0 00-.425-.72 2.01 2.01 0 00-.697-.486 2.431 2.431 0 00-.96-.177zm8.37 6.554a4.04 4.04 0 01-1.484-.271 3.485 3.485 0 01-1.182-.758 3.582 3.582 0 01-.78-1.161 3.77 3.77 0 01-.285-1.48 3.72 3.72 0 01.284-1.47 3.45 3.45 0 011.963-1.897 4.198 4.198 0 012.967 0 3.651 3.651 0 011.191.753 3.457 3.457 0 01.788 1.144 3.716 3.716 0 01.283 1.47 3.768 3.768 0 01-.284 1.48 3.516 3.516 0 01-.787 1.16 3.579 3.579 0 01-1.19.759 4.04 4.04 0 01-1.485.27zm-.008-6.477a2.611 2.611 0 00-1.125.233 2.46 2.46 0 00-.827.625 2.726 2.726 0 00-.506.898 3.329 3.329 0 000 2.119 2.808 2.808 0 00.505.905 2.414 2.414 0 00.828.633 2.824 2.824 0 002.249 0 2.406 2.406 0 00.83-.633 2.815 2.815 0 00.504-.906 3.332 3.332 0 000-2.118 2.726 2.726 0 00-.506-.898 2.456 2.456 0 00-.828-.625 2.61 2.61 0 00-1.124-.233z"/></svg>