<svg xmlns="http://www.w3.org/2000/svg" viewBox="0 0 32 32"><path d="M0 5v20h18l7 7v-7h7V5zm10.836 12.616a6.006 6.006 0 01-.208 1.592 3.455 3.455 0 01-.704 1.344 3.53 3.53 0 01-1.296.936 4.925 4.925 0 01-1.984.352 5.837 5.837 0 01-1.992-.36 5.068 5.068 0 01-1.72-1.016l.96-1.168a3.622 3.622 0 001.24.896 3.673 3.673 0 001.528.336 3.258 3.258 0 001.264-.216 2.115 2.115 0 00.824-.592 2.297 2.297 0 00.448-.888 4.326 4.326 0 00.136-1.104v-.976H9.3a2.672 2.672 0 01-1.136.976 3.588 3.588 0 01-1.536.336 3.966 3.966 0 01-1.576-.304 3.544 3.544 0 01-1.208-.832 3.722 3.722 0 01-.768-1.24 4.238 4.238 0 01-.272-1.528 4.304 4.304 0 01.272-1.536 3.792 3.792 0 01.768-1.256 3.6 3.6 0 011.2-.848 3.828 3.828 0 011.568-.312 3.608 3.608 0 011.56.352 2.686 2.686 0 011.176 1.072h.032v-1.216h1.456zm9.16-3.216c0 .085-.006.272-.017.357h-6.032a1.803 1.803 0 00.216.797 2.376 2.376 0 00.536.73 2.473 2.473 0 00.777.485 2.507 2.507 0 00.935.175 2.532 2.532 0 001.328-.336 2.711 2.711 0 00.88-.816l1.057.848a3.777 3.777 0 01-1.433 1.187 4.591 4.591 0 01-3.431.093 3.69 3.69 0 01-1.265-.808 3.753 3.753 0 01-.832-1.256 4.244 4.244 0 01-.304-1.632 4.338 4.338 0 01.297-1.624 3.71 3.71 0 01.825-1.272 3.802 3.802 0 011.251-.824 4.294 4.294 0 013.07-.024 3.142 3.142 0 011.156.784 3.554 3.554 0 01.73 1.24 4.919 4.919 0 01.255 1.64zm8.943 1.408a3.84 3.84 0 01-.864 1.272 3.9 3.9 0 01-1.304.832 4.562 4.562 0 01-3.232 0 3.809 3.809 0 01-1.296-.832 3.907 3.907 0 01-.855-1.272 4.1 4.1 0 01-.313-1.616 4.041 4.041 0 01.313-1.608 3.837 3.837 0 01.855-1.256 3.88 3.88 0 011.296-.824 4.562 4.562 0 013.232 0 3.974 3.974 0 011.304.824 3.772 3.772 0 01.864 1.256 4.04 4.04 0 01.312 1.608 4.099 4.099 0 01-.312 1.616zM9.26 13.104a2.83 2.83 0 01.185 1.024 2.936 2.936 0 01-.185 1.048 2.536 2.536 0 01-.522.848 2.406 2.406 0 01-.818.568 2.63 2.63 0 01-1.059.208 2.409 2.409 0 01-1.06-.224 2.517 2.517 0 01-.794-.592 2.492 2.492 0 01-.497-.848 3 3 0 01-.169-1.008 3.115 3.115 0 01.169-1.032 2.391 2.391 0 01.497-.848 2.439 2.439 0 011.854-.792 2.501 2.501 0 011.051.216 2.567 2.567 0 011.348 1.432zm9.049-.408a2.893 2.893 0 01.151.84h-4.512a2.167 2.167 0 01.233-.84 2.39 2.39 0 01.511-.68 2.342 2.342 0 01.737-.456 2.432 2.432 0 01.903-.168 2.321 2.321 0 01.92.168 1.875 1.875 0 01.656.456 1.934 1.934 0 01.4.68zm9.207.467a3.266 3.266 0 010 2.074 2.708 2.708 0 01-.49.877 2.297 2.297 0 01-.795.607 2.742 2.742 0 01-2.167 0 2.302 2.302 0 01-.794-.607 2.708 2.708 0 01-.489-.877 3.266 3.266 0 010-2.074 2.623 2.623 0 01.49-.87 2.356 2.356 0 01.793-.598 2.742 2.742 0 012.167 0 2.35 2.35 0 01.795.599 2.623 2.623 0 01.49.87z"/></svg>