<?xml version="1.0" encoding="UTF-8"?><svg id="icons" xmlns="http://www.w3.org/2000/svg" viewBox="0 0 32 32"><path d="M8,13h-2v-1h2v1Zm3-1h-2v1h2v-1Zm3,0h-2v1h2v-1ZM29,3V19.02997c-.29999-.37-.63-.70996-1-1.01001v-2.01996H4v5H15.81c-.14001,.32001-.26001,.65997-.34998,1H3V3H29Zm-1,7H4v5H28v-5Zm0-6H4v5H28V4ZM6,18v1h2v-1h-2Zm3,0v1h2v-1h-2Zm3,0v1h2v-1h-2ZM6,7h2v-1h-2v1Zm3,0h2v-1h-2v1Zm3,0h2v-1h-2v1ZM29.79999,24c0,3.76001-3.03998,6.79999-6.79999,6.79999s-6.79999-3.03998-6.79999-6.79999,3.03998-6.79999,6.79999-6.79999,6.79999,3.03998,6.79999,6.79999Zm-1,0c0-3.20001-2.59998-5.79999-5.79999-5.79999s-5.79999,2.59998-5.79999,5.79999,2.59998,5.79999,5.79999,5.79999,5.79999-2.59998,5.79999-5.79999Zm-2.79999,.00006h-3v-4h-1v5h4v-1Z"/><path fill="none" d="M0 0h32v32H0z"/></svg>