<?xml version="1.0" encoding="UTF-8"?><svg id="icons" xmlns="http://www.w3.org/2000/svg" viewBox="0 0 24 24"><path d="M5,4h1v1h-1v-1Zm2,1h1v-1h-1v1Zm2,0h1v-1h-1v1Zm13-3V13.19l-1-.41003v-1.77997H3v3h6.69c-.18973,.31604-.1838,.69371,0,1H2V2H22Zm-1,5H3v3H21v-3Zm0-4H3v3H21V3ZM6,8h-1v1h1v-1Zm2,0h-1v1h1v-1Zm2,0h-1v1h1v-1Zm-5,4v1h1v-1h-1Zm2,0v1h1v-1h-1Zm2,0v1h1v-1h-1Zm13.54999,8.5l-6,2.5-6-2.5,2.29999-.96002,1.29004,.53998c-.97039,.40521-.87207,.36099-.98999,.42004l3.39996,1.41998,3.40002-1.41998c-.12344-.0549-.0231-.01209-1-.42004l1.28998-.53998,2.31,.96002Zm0-3l-6,2.5-6-2.5,2.29999-.96002,1.30005,.53998-1,.42004,3.39996,1.41998,3.40002-1.41998-1-.42004,1.28998-.53998,2.31,.96002Zm-6.00256-4.41669l-3.39981,1.41666,3.39983,1.41669,3.40018-1.41669-3.40019-1.41666m0-1.08331l6.00031,2.49994-6.00031,2.50006-5.99969-2.50006,5.99969-2.49994h0Z"/><path fill="none" d="M0 0h24v24H0z"/></svg>