<?xml version="1.0" encoding="UTF-8"?><svg id="icons" xmlns="http://www.w3.org/2000/svg" viewBox="0 0 32 32"><path d="M8,12v1h-2v-1h2Zm1,0v1h2v-1h-2Zm3,0v1h2v-1h-2ZM29,3v14.76996l-1-.53998v-1.22998h-2.31l-1.88-1h4.19v-5H4v5H21.19l-1.87,1H4v5H14v1H3V3H29Zm-1,1H4v5H28V4ZM6,18v1h2v-1h-2Zm3,0v1h2v-1h-2Zm3,0v1h2v-1h-2ZM6,7h2v-1h-2v1Zm3,0h2v-1h-2v1Zm3,0h2v-1h-2v1ZM30,26l-7.5,4-7.5-4,1.21997-.65002,1.06006,.56-.16003,.09003,5.38,2.87,5.38-2.87-.16003-.09003,1.06006-.56,1.21997,.65002Zm0-3l-7.5,4-7.5-4,1.21997-.65002,1.06006,.56-.16003,.09003,5.38,2.87,5.38-2.87-.16003-.09003,1.06006-.56,1.21997,.65002Zm-7.5-5.86667l-5.375,2.86667,5.375,2.86667,5.375-2.86667-5.375-2.86667m0-1.13333l7.5,4-7.5,4-7.5-4,7.5-4h0Z"/><path fill="none" d="M0 0h32v32H0z"/></svg>