<?xml version="1.0" encoding="UTF-8"?><svg id="icons" xmlns="http://www.w3.org/2000/svg" viewBox="0 0 16 16"><defs><style>.cls-1{fill:none;}.cls-1,.cls-2,.cls-3{stroke-width:0px;}.cls-2{opacity:.25;}</style></defs><path class="cls-2" d="m5,10h-1v-4h1v4Zm7-3h-1v3h1v-3Z"/><path class="cls-3" d="m2,15h14v1H1V0h1v15ZM15,4v1h1v5h-1v2h1v1h-3v-1h1v-2h-1v1h-1v2h1v1h-3v-1h1v-2h-1v-5h1V1h-1V0h3v1h-1v5h1v-1h1v-1h-1v-1h3v1h-1Zm-3,3h-1v3h1v-3Zm3-1h-1v3h1v-3Zm-9,7h-3v-1h1v-1h-1v-6h1v-3h-1v-1h3v1h-1v3h1v1h1v-2h-1v-1h3v1h-1v2h1v4h-1v3h1v1h-3v-1h1v-3h-1v1h-1v1h1v1Zm1-4h1v-2h-1v2Zm-3,1h1v-4h-1v4Z"/><rect class="cls-1" width="16" height="16"/></svg>