<?xml version="1.0" encoding="UTF-8"?><svg id="icons" xmlns="http://www.w3.org/2000/svg" viewBox="0 0 24 24"><defs><style>.cls-1{fill:none;}.cls-1,.cls-2{stroke-width:0px;}</style></defs><rect class="cls-1" width="24" height="24"/><path class="cls-2" d="m23,22v1H1V1h1v21h21Zm0-10v-5h-2V2h1v-1h-3v1h1v1.69092l-6,3v-1.69092h1v-1h-3v1h1v2h-4v-1h-2v-3h1v-1h-3v1h1v3h-2v6h2v3h-1v1h3v-1h-1v-3h1.79303l2.20697,1.68683v3.31317h2v2h-1v1h3v-1h-1v-2h2v-3.04608l2.91473-1.95392h1.08527v5h-1v1h3v-1h-1v-5h2Zm-8,1.42023l-1.43945.96503-1.56055-1.19287v-1.19238h3v1.42023Zm-10-2.42023v-4h1.5v1h1.5v2.13477l-.69629-.53223-.60742.79492.78833.60254h-2.48462Zm4-.10083v-2.89917h4v3h-2v1.42798l-2-1.52881Zm6,5.10083h-3v-1.54889l1.52246,1.16364,1.47754-.99048v1.37573Zm-1-5v-3.19092l6-3v2.19092h-2v4.40906l-2,1.34082v-1.74988h-2Zm6.40643,0l.87189-.58447-.55664-.83105-1.72168,1.15417v-2.73865h3v3h-1.59357Z"/></svg>