<?xml version="1.0" encoding="UTF-8"?><svg id="icons" xmlns="http://www.w3.org/2000/svg" viewBox="0 0 16 16"><defs><style>.cls-1{fill:none;}.cls-1,.cls-2{stroke-width:0px;}</style></defs><rect class="cls-1" width="16" height="16"/><path class="cls-2" d="m2,15h14v1H1V1h1v14ZM15,2v2h1v4h-1v3h1v1h-3v-1h1v-2.53967l-3,2.10022v1.43945h-1v1h1v1h-3v-1h1v-1h-1v-1.19092l-3-1.5v1.69092h1v1h-3v-1h1v-2h-1v-4h1v-2h-1v-1h3v1h-1v2h1v1h3v-2h-1v-1h3v1h-1v1.70026l3-1.46161v-.23865h.48981l.51019-.2486v-1.7514h-1v-1h3v1h-1Zm-6,6v2.19092l.45703.22852.54297-.38007v-2.03937h-1Zm-5,0h1v-2h-1v2Zm4,1.69092v-2.69092h-2v1.69092l2,1Zm3-2.69092v2.33948l2-1.39984v-2.5885l-3,1.46143v.18744h1Zm4-2h-1v2h1v-2Z"/></svg>