<?xml version="1.0" encoding="UTF-8"?><svg id="icons" xmlns="http://www.w3.org/2000/svg" viewBox="0 0 32 32"><defs><style>.cls-1{fill:none;}.cls-1,.cls-2,.cls-3{stroke-width:0px;}.cls-2{opacity:.25;}</style></defs><rect class="cls-1" width="32" height="32"/><path class="cls-3" d="m30,29v1H2V2h1v27h27Zm-9-6h-2v-9h2V4h-1v-1h3v1h-1v10h2v-3h2v-4h-1v-1h3v1h-1v4h2v11h-2v4h1v1h-3v-1h1v-4h-2v1h-2v4h1v1h-3v-1h1v-4Zm4-2h3v-9h-3v9Zm-2,1v-7h-3v7h3Zm-15,1h-2v-11h2v-5h-1v-1h3v1h-1v5h2v1h2v-4h-1v-1h3v1h-1v4h2v9h-2v5h1v1h-3v-1h1v-5h-2v1h-2v3h1v1h-3v-1h1v-3Zm4-2h3v-7h-3v7Zm-2,1v-9h-3v9h3Z"/><path class="cls-2" d="m7,22v-9h3v9h-3Zm16,0v-7h-3v7h3Z"/></svg>