<?xml version="1.0" encoding="UTF-8"?><svg id="icons" xmlns="http://www.w3.org/2000/svg" viewBox="0 0 32 32"><defs><style>.cls-1{fill:none;}.cls-1,.cls-2{stroke-width:0px;}</style></defs><rect class="cls-1" width="32" height="32"/><path class="cls-2" d="m3,29h27v1H2V2h1v27ZM30,10v6h-3v8h1v1h-3v-1h1.00006v-8h-1.84625l-3.15381,2.45288v4.54712h-3v3h1v1h-3v-1h1v-3h-3v-5.06097l-3.30634-2.93909h-1.69366v6.00006h1v1h-3v-1h1v-6.00006h-3v-7h3v-3h-1v-.99994h3v.99994h-.99994v3h2.99994v2.00006h5.00006v-4h-1.00006v-1h3v1h-1v3.73065l8.00006-3.55579v-2.17499h-1.00006v-1h3v1h-1v6.00012h3Zm-19-1h-5v5h3.56879l-1.40082-1.24524.67096-.75476,2.16107,1.92084v-2.92084h-3v-1h3v-1Zm3,5h3.00006v-3h-5.00006v3.80969l2,1.77771v-2.5874Zm6,5.23065l-2.42517,1.88617-2.57483-2.28882v3.172h5v-2.76935Zm0-4.23065h-5v2.47626l2.61829,2.32727,2.38171-1.85248v-2.95105Zm3-5h3.00006v-2.73053l-8.00006,3.55542v3.17511h3v3.17322l2-1.5556v-5.61761Zm6,1h-5v3.83984l2.37939-1.85071.62061.79724-1.56042,1.21362h3.56042v-4Z"/></svg>