<svg xmlns="http://www.w3.org/2000/svg" viewBox="0 0 32 32"><path d="M21.25 20.5a1.25 1.25 0 111.25 1.25 1.25 1.25 0 01-1.25-1.25zm-5-5a1.25 1.25 0 101.25-1.25 1.25 1.25 0 00-1.25 1.25zm7.25-1.75a1.25 1.25 0 10-1.25-1.25 1.25 1.25 0 001.25 1.25zm2-8a1.25 1.25 0 10-1.25-1.25 1.25 1.25 0 001.25 1.25zm-15 13a1.25 1.25 0 10-1.25-1.25 1.25 1.25 0 001.25 1.25zm6-9a1.25 1.25 0 10-1.25-1.25 1.25 1.25 0 001.25 1.25zM2 30V0H1v31h31v-1zm4.5-2.25a1.25 1.25 0 10-1.25-1.25 1.25 1.25 0 001.25 1.25zm7-3a1.25 1.25 0 10-1.25-1.25 1.25 1.25 0 001.25 1.25z"/></svg>