<?xml version="1.0" encoding="UTF-8"?><svg id="icons" xmlns="http://www.w3.org/2000/svg" viewBox="0 0 32 32"><defs><style>.cls-1{fill:none;}.cls-1,.cls-2{opacity:.5;}.cls-3{opacity:.25;}</style></defs><path class="cls-3" d="M18,17.68311v4.43359l-4.5,2.70001-4.5-2.70001v-4.43359l4.5-2.70001,4.5,2.70001Zm5-3.56641v-4.43359l-4.5-2.70001-4.5,2.70001v4.43359l4.5,2.70001,4.5-2.70001Zm-10,0v-4.43359l-4.5-2.70001-4.5,2.70001v4.43359l4.5,2.70001,4.5-2.70001Zm.5-5.29999l4.5-2.70001V3.5H9v2.6167l4.5,2.70001Zm-5.5,13.29999v-4.43359l-4.5-2.70007v9.83374l4.5-2.70007Zm0-16V3.5H3.5v5.31677l4.5-2.70007Z"/><path class="cls-2" d="M28.5,6.98309V3.5h-.5v2.6167l-4.5,2.70001-4.5-2.70001V3.5h-1v2.6167l-4.5,2.70001-4.5-2.70001V3.5h-1v2.6167l-4.5,2.70007v6.16626l4.5,2.70007v4.43359l-4.5,2.70007v3.68323h.5v-2.81689l4.5-2.70001,4.5,2.70001v2.81689h1v-2.81689l4.5-2.70001,4.5,2.70001v2.81689h1v-2.81689l4.5-2.70001v-6.16638l-4.5-2.70001v-4.43359l4.5-2.70001ZM4,14.1167v-4.43359l4.5-2.70001,4.5,2.70001v4.43359l-4.5,2.70001-4.5-2.70001Zm14,8l-4.5,2.70001-4.5-2.70001v-4.43359l4.5-2.70001,4.5,2.70001v4.43359Zm-4-8v-4.43359l4.5-2.70001,4.5,2.70001v4.43359l-4.5,2.70001-4.5-2.70001Zm14,3.56641v4.43359l-4.5,2.70001-4.5-2.70001v-4.43359l4.5-2.70001,4.5,2.70001Z"/><path d="M3,3V29H29V3H3ZM28,15.08502l-3.92542-.75934-3.56592-10.32568h7.49133V15.08502ZM19.45068,4l3.68005,10.65588-9.29681,10.71436-9.83392-1.9021V4h15.45068ZM4,24.48682l9.65002,1.8667,.5686,1.64648H4v-3.51318Zm11.27655,3.51318l-.68268-1.97668,9.29681-10.71436,4.10931,.7948v11.89624H15.27655Z"/><rect class="cls-1" width="32" height="32"/></svg>