<?xml version="1.0" encoding="UTF-8"?><svg id="icons" xmlns="http://www.w3.org/2000/svg" viewBox="0 0 24 24"><defs><style>.cls-1{fill:none;}.cls-1,.cls-2{opacity:.5;}.cls-3{opacity:.25;}</style></defs><path class="cls-2" d="M20.5,2.5v1.27649l-3,1.73218-3-1.73218v-1.27649h-1v1.27649l-3,1.73218-3-1.73218v-1.27649h-1v1.27649l-3,1.73218-1-.57739v1.16663l.5,.2887v3.45178l-.5,.28876v1.15527l1-.57733,3,1.73193v3.45221l-3,1.73181-1-.57727v1.16693l.5,.2887v3.00061h1v-3.00061l3-1.73218,3,1.73218v3.00061h1v-3.00061l3-1.73218,3,1.73218v3.00061h1v-3.00061l3-1.73218,.5,.2887v-5.77386l-.5,.28876-3-1.73242v-3.45178l3-1.73218,.5,.2887V2.5h-1ZM4,9.83838v-3.45178l3-1.73218,3,1.73218v3.45178l-3,1.73242-3-1.73242Zm9.5,6.05084l-3,1.73181-3-1.73181v-3.45221l3-1.73193,3,1.73193v3.45221Zm-2.5-6.05084v-3.45178l3-1.73218,3,1.73218v3.45178l-3,1.73242-3-1.73242Zm9.5,2.59863v3.45221l-3,1.73181-3-1.73181v-3.45221l3-1.73193,3,1.73193Z"/><path class="cls-3" d="M14,11.5708l-3-1.73242v-3.45178l3-1.73218,3,1.73218v3.45178l-3,1.73242Zm-4-5.1842l-3-1.73218-3,1.73218v3.45178l3,1.73242,3-1.73242v-3.45178Zm-2.5,6.05042v3.45221l3,1.73181,3-1.73181v-3.45221l-3-1.73193-3,1.73193Zm3-6.92834l3-1.73218v-1.27649H7.5v1.27649l3,1.73218Zm-4-1.73218v-1.27649H2.5v2.43127l1,.57739,3-1.73218Zm0,12.11273v-3.45221l-3-1.73193-1,.57733v5.76135l1,.57727,3-1.73181ZM3,6.3866l-.5-.2887v4.02924l.5-.28876v-3.45178Z"/><path d="M2,2V22H22V2H2ZM21,10.39899l-2.77283-.5365-2.36963-6.86249h5.14246v7.39899ZM14.79962,3l2.4834,7.19196-6.97504,8.03857-7.30798-1.4137V3H14.79962ZM3,17.83545l7.12341,1.37823,.61688,1.78632H3v-3.16455Zm8.79828,3.16455l-.73071-2.11578,6.97504-8.03857,2.9574,.57208v9.58228H11.79828Z"/><rect class="cls-1" width="24" height="24"/></svg>