<?xml version="1.0" encoding="UTF-8"?><svg id="icons" xmlns="http://www.w3.org/2000/svg" viewBox="0 0 16 16"><defs><style>.cls-1{fill:none;}.cls-1,.cls-2{opacity:.5;}.cls-3{opacity:.25;}</style></defs><path class="cls-2" d="M14.5,3.03546V1.5h-.49707v.66071l-2,1.15466-2-1.15466v-.66071h-1v.66071l-2,1.15466-2-1.15466v-.66071h-1v.66071l-2,1.15466-.50293-.29034V7.66443l.50293-.29041,2,1.15479v2.30957l-2,1.15479-.50293-.29041v1.1593l.00293,.00171v1.63623h1v-1.63623l2-1.15479,2,1.15479v1.63623h1v-1.63623l2-1.15479,2,1.15479v1.63623h1v-1.63623l1.99707-1.15308V7.6438l-1.99707-1.15308v-2.30231l1.99707-1.15295ZM2.50293,6.49072v-2.30231l2-1.15466,2,1.15466v2.30231l-2,1.15479-2-1.15479Zm6.5,4.34766l-2,1.15479-2-1.15479v-2.30957l2-1.15479,2,1.15479v2.30957Zm-1.5-4.34766v-2.30231l2-1.15466,2,1.15466v2.30231l-2,1.15479-2-1.15479Zm6.5,2.03809v2.30957l-2,1.15479-2-1.15479v-2.30957l2-1.15479,2,1.15479Z"/><path class="cls-3" d="M9.50293,7.64551l-2-1.15479v-2.30231l2.00006-1.15466,1.99994,1.15466v2.30231l-2,1.15479Zm-4.5,.8833v2.30957l2,1.15479,2-1.15479v-2.30957l-2-1.15479-2,1.15479Zm1.5-4.34039l-2-1.15466-2,1.15466v2.30231l2,1.15479,2-1.15479v-2.30231Zm-2.5,6.64996v-2.30957l-2-1.15479-.50293,.29041v4.03833l.50293,.29041,2-1.15479Zm0-8.67767v-.66071H1.5v1.52502l.50293,.29034,2-1.15466Zm3,1.15466l2-1.15466v-.66071H5.00293v.66071l2,1.15466Z"/><path d="M1,1V15H15V1H1ZM14,6.72723l-1.60889-.31122-1.52502-4.41602h3.13391V6.72723ZM9.80286,2l1.63257,4.72772-4.6532,5.36273-4.78223-.92487V2h7.80286ZM2,12.18427l4.56091,.88226,.32233,.93347H2v-1.81573Zm5.94116,1.81573l-.42395-1.22772,4.6532-5.36273,1.82959,.35394v6.23651H7.94116Z"/><rect class="cls-1" width="16" height="16"/></svg>