<svg xmlns="http://www.w3.org/2000/svg" viewBox="0 0 16 16"><path d="M.047 5.306a5.265 5.265 0 00.43.779 3.862 3.862 0 00.919.936 1.047 1.047 0 00.615.103 1.571 1.571 0 00.762-.358 9.005 9.005 0 00.859-1.09 1.248 1.248 0 01.717-.58 4.689 4.689 0 01.984.313l.582-.628a3.953 3.953 0 01.496-.443c.13-.102.231-.174.326-.24l.656-.458a1.653 1.653 0 01-.257-.524 5.224 5.224 0 00-.134-.77A3.933 3.933 0 018.5 1.6a12.516 12.516 0 012.09-.27l.862-.03-.812-.896-.119-.03a11.1 11.1 0 00-3.979-.21 6.586 6.586 0 00-3.12 1.376c-.161.143-.794.822-.739 1.329a.487.487 0 01-.085.362 6.037 6.037 0 01-.486.384 1.486 1.486 0 00-.925-.023 5.661 5.661 0 00-.977.71l-.092.078-.032.118a1.338 1.338 0 00-.039.808zm6.521-.055a4.287 4.287 0 01.333-.281c.143-.111.241-.181.32-.236l.664-.454c.504.597 1.115 1.297 1.59 1.762A157.431 157.431 0 0112.8 9.419c.026.028 2.606 2.757 2.765 2.983.248.248.72.931-.256 1.909a1.956 1.956 0 01-1.304.75 1.178 1.178 0 01-.37-.064 3.646 3.646 0 01-1.355-1.327c-.065-.087-.232-.299-.454-.584-.747-.952-1.998-2.548-2.432-3.204-.359-.54-2.408-2.92-3.408-4.08z"/></svg>