<svg xmlns="http://www.w3.org/2000/svg" viewBox="0 0 32 32"><path d="M29 16.72v2.006a6.08 6.08 0 01-1 2.942c-.512.81-1.323 1.778-2.285 1.778h-.002a1.421 1.421 0 01-.42-.074 13.43 13.43 0 01-7.307 6.249A1.625 1.625 0 0116.3 31h-1.6a1.512 1.512 0 110-3h1.6a1.823 1.823 0 011.075.348 12.015 12.015 0 006.879-6.027A3.758 3.758 0 0124 20.875V14.57c0-1.491.572-2.219 1.2-2.465v-.15a9.747 9.747 0 00-3-6.358 9.687 9.687 0 00-6.98-2.796h-.11A10.126 10.126 0 005.101 10.92 21.93 21.93 0 005.1 14.4h-.5a1.999 1.999 0 01-1.32-3.5A11.874 11.874 0 0115.09 1h.19a11.394 11.394 0 018.185 3.317A11.647 11.647 0 0127 11.954v.622a6.486 6.486 0 012 4.144z"/></svg>