<svg id="icons" xmlns="http://www.w3.org/2000/svg" viewBox="0 0 32 32"><defs><style>.cls-1{fill:none;}</style></defs><path d="M3.5,8h17A1.50164,1.50164,0,0,0,22,6.5v-2A1.50164,1.50164,0,0,0,20.5,3H3.5A1.50164,1.50164,0,0,0,2,4.5v2A1.50164,1.50164,0,0,0,3.5,8ZM3,4.5A.50034.50034,0,0,1,3.5,4h17a.50034.50034,0,0,1,.5.5v2a.50034.50034,0,0,1-.5.5H3.5A.50034.50034,0,0,1,3,6.5ZM3.5,15h17A1.50164,1.50164,0,0,0,22,13.5v-2A1.50164,1.50164,0,0,0,20.5,10H3.5A1.50164,1.50164,0,0,0,2,11.5v2A1.50164,1.50164,0,0,0,3.5,15ZM3,11.5a.50034.50034,0,0,1,.5-.5h17a.50034.50034,0,0,1,.5.5v2a.50034.50034,0,0,1-.5.5H3.5a.50034.50034,0,0,1-.5-.5ZM3.5,21H9.39075c-.50489.56537-.79334.94562-.83374,1H3.5A1.50164,1.50164,0,0,1,2,20.5v-2A1.50164,1.50164,0,0,1,3.5,17H14.17084c-.53113.31848-1.0365.653-1.50409,1H3.5a.50034.50034,0,0,0-.5.5v2A.50034.50034,0,0,0,3.5,21Zm20.44983,2.47968-.00067.038.00024.038A3.44144,3.44144,0,0,1,20.49866,26.95a3.54678,3.54678,0,0,1-.72388-.08319L23.87659,22.765A3.3058,3.3058,0,0,1,23.94983,23.47968ZM31,23.5l-.22363.29883c-.18744.252-4.57123,6.0841-10.23462,6.14679h-.0221a9.359,9.359,0,0,1-3.19153-.63214l.7035-.70349a8.26476,8.26476,0,0,0,2.49194.43505h.01428c4.55231-.05432,8.377-4.3435,9.36865-5.545l-.00476-.0058.00483-.00574a19.32787,19.32787,0,0,0-3.46174-3.29168l.642-.642a19.35766,19.35766,0,0,1,3.69269,3.6441Zm-3.49963-7.7074-2.47382,2.47382a10.067,10.067,0,0,0-4.41846-1.22309c-.02581-.00024-.129-.00024-.15478,0-5.66242.12232-10.0481,5.90156-10.23285,6.15552L10,23.5l.22363.29883A19.73419,19.73419,0,0,0,15.096,28.197L12.7926,30.50037l.707.707L28.2074,16.49963ZM11.09351,23.5l.00476-.0058-.00483-.00574c.979-1.21191,4.82178-5.44244,9.37323-5.54461l.064-.00025.064.00025a9.06976,9.06976,0,0,1,3.76519.98919l-1.81536,1.81537a3.47663,3.47663,0,0,0-2.00867-.6983c-.012-.00012-.05982-.00012-.07178,0a3.43918,3.43918,0,0,0-3.41394,3.42957l.00067.038-.00024.038a3.28566,3.28566,0,0,0,.69372,1.99305l-1.99621,1.99621A19.203,19.203,0,0,1,11.09351,23.5Z"/><rect class="cls-1" width="32" height="32"/></svg>