<svg id="icons" xmlns="http://www.w3.org/2000/svg" viewBox="0 0 32 32"><defs><style>.cls-1{fill:none;}</style></defs><path d="M29,8H17V7H29.42871A.57144.57144,0,0,1,30,7.57129v7.85742a.55647.55647,0,0,1-.03455.1709,2.45338,2.45338,0,0,0-.34387-.51416L29,14.46387ZM11.99213,28.47272c-.19587-.15827-.37744-.31568-.5586-.47272H3V21H9.39075c.26147-.29279.58264-.63239.95392-1H2.57129A.57144.57144,0,0,0,2,20.57129v7.85742A.57148.57148,0,0,0,2.57129,29h8.89355ZM9.19678,5.90381,14.293,11H9v1h7V5H15v5.293L9.90381,5.19678A7.45077,7.45077,0,0,0,4.60059,3H0V4H4.60059A6.45762,6.45762,0,0,1,9.19678,5.90381Zm21.58276,17.295a19.35845,19.35845,0,0,0-3.69269-3.644l-.642.642a19.32714,19.32714,0,0,1,3.46167,3.29168l-.00483.00574.00476.0058c-.99163,1.20154-4.81628,5.49072-9.36859,5.545h-.01434a8.26471,8.26471,0,0,1-2.49194-.435l-.7035.70349a9.35862,9.35862,0,0,0,3.19153.63208h.02216c5.66339-.06269,10.04712-5.89478,10.23456-6.14679L31,23.5Zm-2.57208-6.69922L13.49963,31.2074l-.707-.707L15.096,28.197a19.73421,19.73421,0,0,1-4.87238-4.39813L10,23.5l.22052-.30115c.18475-.254,4.57037-6.0332,10.23279-6.15552.02582-.00024.129-.00024.15478,0a10.067,10.067,0,0,1,4.41846,1.22315l2.47388-2.47388ZM15.74811,27.54486l1.99627-1.99628a3.285,3.285,0,0,1-.69378-1.993l.00024-.038-.00061-.038a3.43913,3.43913,0,0,1,3.41388-3.42957c.012-.00012.05982-.00012.07184,0a3.47678,3.47678,0,0,1,2.00867.6983L24.36,18.933a9.06987,9.06987,0,0,0-3.76526-.98919l-.064-.00025-.064.00025c-4.55152.10217-8.39435,4.3327-9.3733,5.54461l.00489.00574-.00482.0058A19.20173,19.20173,0,0,0,15.74811,27.54486Zm8.12848-4.77978-4.10175,4.10174a3.54678,3.54678,0,0,0,.72388.08319A3.44142,3.44142,0,0,0,23.9494,23.5556l-.00018-.038.00061-.038A3.30516,3.30516,0,0,0,23.87659,22.76508ZM19,15H3V8H9.87891l-1-1H2.57129A.57144.57144,0,0,0,2,7.57129v7.85742A.57148.57148,0,0,0,2.57129,16h13.5733A12.47283,12.47283,0,0,1,19,15.18207Z"/><rect class="cls-1" width="32" height="32"/></svg>