<svg id="icons" xmlns="http://www.w3.org/2000/svg" viewBox="0 0 16 16"><defs><style>.cls-1{fill:none;}</style></defs><path d="M3,4V7H8.742A8.14733,8.14733,0,0,0,6.55786,8H2.5A.5.5,0,0,1,2,7.5v-4A.5.5,0,0,1,2.5,3H4.87891l1,1ZM15,6.23022a1.45837,1.45837,0,0,1,.72559.37427L16,6.87891V3.5a.5.5,0,0,0-.5-.5H11V4h4ZM5.61084,2.31787,8.293,5H6V6h4V2H9V4.293L6.31787,1.61084A5.46445,5.46445,0,0,0,2.42871,0H0V1H2.42871A4.47211,4.47211,0,0,1,5.61084,2.31787Zm.1626,12.18457c-.21747-.1701-.41309-.33862-.595-.50244H3V11h.548a1.48572,1.48572,0,0,1,.20691-.38574l.21387-.27588c.04175-.05426.14056-.17731.28064-.33838H2.5a.5.5,0,0,0-.5.5v4a.5.5,0,0,0,.5.5H5.59393A1.47943,1.47943,0,0,1,5.77344,14.50244Zm10.08838-3.24621a9.04109,9.04109,0,0,0-.92286-.978l-.56158.56158c.29681.26819.53424.51459.69751.6944a7.69987,7.69987,0,0,1-3.80212,2.41022l-.86988.86987c.03272.00067.06421.00574.09711.00574,2.981,0,5.26611-2.887,5.36182-3.00983L16,11.63324v-.20007Zm-.48957-2.884-7.60119,7.6012-.707-.707,1.047-1.047A9.44494,9.44494,0,0,1,5.1543,11.80927l-.21387-.27607.21387-.27606C5.249,11.13428,7.51855,8.2464,10.5,8.2464a5.64212,5.64212,0,0,1,2.77869.80536l1.38653-1.38654ZM12.69073,9.63971a4.74292,4.74292,0,0,0-2.19122-.59509c-2.10034,0-3.91339,1.774-4.55829,2.48858a8.74185,8.74185,0,0,0,2.77869,2.07733l.92737-.92736a1.38311,1.38311,0,0,1-.639-1.15,1.458,1.458,0,0,1,1.5-1.40863,1.5283,1.5283,0,0,1,1.1651.53247Z"/><rect class="cls-1" width="16" height="16"/></svg>