<svg id="icons" xmlns="http://www.w3.org/2000/svg" viewBox="0 0 24 24"><defs><style>.cls-1{fill:none;}</style></defs><path d="M2,5H17a1.0013,1.0013,0,0,0,1-1V2a1.0013,1.0013,0,0,0-1-1H2A1.0013,1.0013,0,0,0,1,2V4A1.0013,1.0013,0,0,0,2,5ZM2,2H17l.001,2H2Zm0,9H17a1.0013,1.0013,0,0,0,1-1V8a1.0013,1.0013,0,0,0-1-1H2A1.0013,1.0013,0,0,0,1,8v2A1.0013,1.0013,0,0,0,2,11ZM2,8H17l.001,2H2Zm3.94342,9H2a1.0013,1.0013,0,0,1-1-1V14a1.0013,1.0013,0,0,1,1-1H9.76868a15.62544,15.62544,0,0,0-1.30121,1H2v2H6.49823l-.20233.25391A1.96354,1.96354,0,0,0,5.94342,17Zm8.94983,2.84406,2.85022-2.85022a2.39178,2.39178,0,0,1-2.85022,2.85022ZM23,17.5l-.23438.30469C22.63379,17.97607,19.5235,22,15.45807,22a6.92076,6.92076,0,0,1-2.3031-.41766l.71527-.71527A5.83432,5.83432,0,0,0,15.45959,21.1c3.05561,0,5.62684-2.67035,6.43946-3.59949a13.13869,13.13869,0,0,0-2.45557-2.20667l.64362-.64361a12.93338,12.93338,0,0,1,2.67852,2.5451Zm-9.384,1.59052.002.00262,3.37464-3.37463-.00263-.002,1.16437-1.16437.00329.00135.66791-.66791-.00317-.00147L20.353,12.35352l-.707-.707L17.83588,13.4566A6.82143,6.82143,0,0,0,15.45807,13c-4.06055,0-7.07233,4.01709-7.209,4.188L8,17.5l.249.312a10.18767,10.18767,0,0,0,2.63489,2.59656L9.646,21.64648l.707.707L11.75751,20.949l.00287.00177.663-.663-.003-.00165ZM9.12054,17.5c.8498-.93719,3.29352-3.6,6.33905-3.6a5.77844,5.77844,0,0,1,1.66828.26459l-1.04718,1.04718A2.31148,2.31148,0,0,0,15.39948,15.1a2.40251,2.40251,0,0,0-2.4,2.4,2.311,2.311,0,0,0,.11182.68115l-1.58148,1.58148A11.18354,11.18354,0,0,1,9.12054,17.5Z"/><rect class="cls-1" width="24" height="24"/></svg>