<svg id="icons" xmlns="http://www.w3.org/2000/svg" viewBox="0 0 16 16"><defs><style>.cls-1{fill:none;}</style></defs><path d="M10,0H1A1.0013,1.0013,0,0,0,0,1V2A1.0013,1.0013,0,0,0,1,3h9a1.0013,1.0013,0,0,0,1-1V1A1.0013,1.0013,0,0,0,10,0Zm0,2H1V1h9l.001,1Zm.5,4.74658c.04572,0,.09161.00586.13739.0069A.9847.9847,0,0,0,11,6V5a1.0013,1.0013,0,0,0-1-1H1A1.0013,1.0013,0,0,0,0,5V6A1.0013,1.0013,0,0,0,1,7H8.742A6.46118,6.46118,0,0,1,10.5,6.74658ZM1,5h9l.001,1H1Zm15,6.43317v.20007l-.13818.17694C15.76611,11.933,13.481,14.82,10.5,14.82c-.0329,0-.06439-.00507-.09711-.00574l.86988-.86987a7.69987,7.69987,0,0,0,3.80212-2.41022c-.16327-.17981-.4007-.42621-.69751-.6944l.56158-.56158a9.04109,9.04109,0,0,1,.92286.978Zm-1.33478-3.768L13.27869,9.05176A5.64212,5.64212,0,0,0,10.5,8.2464c-2.98145,0-5.19141,2.88788-5.28613,3.01074L5,11.5332l.21387.27607A8.863,8.863,0,0,0,8.111,14.21942l-1.047,1.047.707.707,7.60119-7.6012ZM11.6734,10.657a1.5283,1.5283,0,0,0-1.1651-.53247,1.458,1.458,0,0,0-1.5,1.40863,1.38311,1.38311,0,0,0,.639,1.15l-.92737.92736A8.36907,8.36907,0,0,1,6.00079,11.5332c.6449-.71454,2.39838-2.48858,4.49872-2.48858a4.74292,4.74292,0,0,1,2.19122.59509ZM3.548,11H1a1.0013,1.0013,0,0,1-1-1V9A1.0013,1.0013,0,0,1,1,8H6.55786a10.633,10.633,0,0,0-1.316,1H1v1H4.24939c-.14008.16107-.23889.28412-.28064.33838l-.21387.27588A1.48572,1.48572,0,0,0,3.548,11Z"/><rect class="cls-1" width="16" height="16"/></svg>