<svg id="icons" xmlns="http://www.w3.org/2000/svg" viewBox="0 0 24 24"><defs><style>.cls-1{fill:none;}</style></defs><path d="M7.80444,22H1.43054A.43053.43053,0,0,1,1,21.56946V15.43054A.43053.43053,0,0,1,1.43054,15H7.39343c-.45373.46283-.749.81763-.84851.94141L6.49823,16H2v5H8.16205A2.32292,2.32292,0,0,0,7.80444,22ZM7.59149,4.32458,11.251,8H7V9h6V3H12V7.42786L8.30414,3.65228A5.49911,5.49911,0,0,0,4.37451,2H0V3H4.40344A4.49891,4.49891,0,0,1,7.59149,4.32458ZM15.39954,19.9a2.39149,2.39149,0,0,0,2.34393-2.90618l-2.85022,2.85022A2.39549,2.39549,0,0,0,15.39954,19.9Zm7.36608-2.70471a12.93338,12.93338,0,0,0-2.67852-2.5451l-.64362.64361A13.13821,13.13821,0,0,1,21.899,17.50049C21.08636,18.42963,18.5152,21.1,15.45966,21.1a5.83279,5.83279,0,0,1-1.58942-.23291l-.71527.71527A6.92139,6.92139,0,0,0,15.45813,22c4.06543,0,7.17566-4.02393,7.30749-4.19531L23,17.5ZM12.42035,20.28619l.003.00165-.663.663-.00287-.00177L10.353,22.35352l-.707-.707,1.23791-1.23791A10.18767,10.18767,0,0,1,8.249,17.812L8,17.5l.249-.312C8.38574,17.01709,11.39758,13,15.45813,13a6.82109,6.82109,0,0,1,2.37775.4566L19.646,11.64648l.707.707-1.53058,1.53057.00317.00147-.66791.66791-.00329-.00135-1.16437,1.16437.00263.002L13.618,19.09314l-.002-.00262Zm-.8905-.52356,1.58148-1.58148A2.311,2.311,0,0,1,12.99951,17.5a2.40252,2.40252,0,0,1,2.4-2.4,2.31141,2.31141,0,0,1,.68115.11181l1.04718-1.04718A5.778,5.778,0,0,0,15.45966,13.9c-3.04554,0-5.48938,2.66279-6.33918,3.6A16.58749,16.58749,0,0,0,11.52985,19.76263ZM22.56946,5H14V6h8v6h.56946A.43053.43053,0,0,0,23,11.56946V5.43054A.43053.43053,0,0,0,22.56946,5ZM14,11H2V6H7.83728l-.954-.9541C6.866,5.02863,6.845,5.01685,6.82745,5H1.43054A.43053.43053,0,0,0,1,5.43054v6.13892A.43053.43053,0,0,0,1.43054,12H11.47595A10.15362,10.15362,0,0,1,14,11.16449Z"/><rect class="cls-1" width="24" height="24"/></svg>