<svg xmlns="http://www.w3.org/2000/svg" viewBox="0 0 16 16"><path d="M0 1v14h5v-1H1V6h15V1zm15 4H1V2h14zm.862 6.238l.138.189v.213l-.138.188c-.096.131-2.381 3.205-5.362 3.205a4.596 4.596 0 01-1.16-.156l.739-.739a3.561 3.561 0 00.42.045c2.109 0 3.927-1.887 4.576-2.649a10.358 10.358 0 00-1.201-1.19l.586-.587a10.058 10.058 0 011.402 1.481zM13.51 7.821l-.773.773a5.076 5.076 0 00-2.237-.56c-2.981 0-5.251 3.074-5.346 3.205l-.214.294.214.294a9.995 9.995 0 002.224 2.125l-.557.558.707.707 6.689-6.69zm-7.57 3.712c.645-.76 2.458-2.65 4.559-2.65a4.14 4.14 0 011.598.35l-.95.95a1.483 1.483 0 00-.64-.15 1.502 1.502 0 00-1.5 1.5 1.483 1.483 0 00.15.64l-1.17 1.17a9.666 9.666 0 01-2.047-1.81z"/></svg>