<svg xmlns="http://www.w3.org/2000/svg" viewBox="0 0 32 32"><path d="M26 4V3h1V2H4v1h1v1.02a.998.998 0 00.996.98h1.137A7.765 7.765 0 007 6.375c0 2.668 2.45 5.493 5.164 8.016a2.484 2.484 0 01.797 1.818v.558a2.483 2.483 0 01-.806 1.827C9.576 20.964 7 23.79 7 26.625A7.764 7.764 0 007.134 28H6v.001a1 1 0 00-1 1V30H4v1h23v-1h-1v-1.02a.998.998 0 00-.996-.979H25V28h-1.134A7.764 7.764 0 0024 26.625c0-3.131-2.563-5.706-5.135-8.022A2.524 2.524 0 0118 16.758v-.542a2.522 2.522 0 01.85-1.833C21.56 11.906 24 9.303 24 6.375A7.765 7.765 0 0023.867 5H25a1 1 0 001-1zm-3 2.375c0 2.373-1.929 4.623-4.825 7.27A3.515 3.515 0 0017 16.216v.543a3.514 3.514 0 001.195 2.589C20.626 21.537 23 23.9 23 26.625A6.776 6.776 0 0122.846 28H8.154A6.776 6.776 0 018 26.625c0-2.53 2.582-5.228 4.832-7.294a3.5 3.5 0 001.13-2.564v-.558a3.496 3.496 0 00-1.117-2.552C10.765 11.726 8 8.868 8 6.375A6.776 6.776 0 018.154 5h14.692A6.776 6.776 0 0123 6.375zM10.148 9.237a21.431 21.431 0 0011.718-2.609c-.194 2.713-3.436 5.696-5.866 7.296v7.42A18.028 18.028 0 0122 27H9a18.028 18.028 0 016-5.656v-7.467a25.903 25.903 0 01-3.778-3.2 8.424 8.424 0 01-1.074-1.44z"/></svg>