<?xml version="1.0" encoding="UTF-8"?><svg id="icons" xmlns="http://www.w3.org/2000/svg" viewBox="0 0 24 24"><path d="m18,5v-2h-4v2h4Zm-3,7c0,.26514-.10547.51953-.29297.70703l-1.70703,1.70703v1.58594h4v-4h-2Zm-3-3v-2h-4v2h4Z" style="fill:#6f6f6f; opacity:.5;"/><path d="m7,6v3h1v-2h4v2h1v-2h4v4h-2v1h2v4.001h-4v-1.58694l-1,1v.58694h-.58594l-.47144.47044-.06567.52856h12.12305V6H7Zm15,10.001h-4v-4.001h4v4.001Zm0-5.001h-4v-4h4v4Zm-9.01556-1.00006H1.00006v2l4,4,1,8h3l1-8,4-4v-2h-1.01562Zm-4.86719,13h-1.23438l-.75-7h2.73438l-.75,7Zm1.46869-7.99994h-4.17188l-2-2h8.17188l-2,2Zm3.41412-3.41412l-.41406.41406H2.41412l-.41406-.41406v-.58594h11v.58594Zm5.99994-9.58588v3h-1v-2h-4v2h-1v-2h-4v2h-1v-2h-4v4h2v1h-2v1h-1V2h16Z"/><path d="m6,7h-2V3h4v2h-2v2Zm16,0h-4v4h4v-4Z" style="fill:#6f6f6f; opacity:.25;"/><rect width="24" height="24" style="fill:none;"/></svg>