<?xml version="1.0" encoding="UTF-8"?><svg id="icons" xmlns="http://www.w3.org/2000/svg" viewBox="0 0 24 24"><defs><style>.cls-1{fill:none;}</style></defs><path d="M4,10.69745c-.3465,.08966-.68066,.20807-1,.35522V2H23V19H10.94165c.14764-.31946,.26642-.65399,.35748-1h10.70087v-2.51886l-3.11621-3.11591-1.83301,1.37451c-.2627,.19629-.57422,.30029-.90137,.30029-.35156,0-.69336-.12402-.96191-.34863l-3.25977-2.71631-1.76141,1.76141c-.20996-.25989-.44342-.49884-.69318-.72046l2.06891-2.06885c.18384-.18384,.4776-.1972,.67737-.0307l3.6084,3.00696c.17908,.14917,.43713,.15582,.6236,.01599l2.17749-1.63306c.2002-.15015,.48029-.13025,.65723,.04669l2.71387,2.71387V3H4v7.69745ZM15,6.5c0-.82843,.67157-1.5,1.5-1.5s1.5,.67157,1.5,1.5-.67157,1.5-1.5,1.5-1.5-.67157-1.5-1.5Zm1,0c0,.27588,.22461,.5,.5,.5s.5-.22412,.5-.5-.22461-.5-.5-.5-.5,.22412-.5,.5Zm-3.98865,15.81415c.08942,.08942,.13953,.21063,.1394,.33704s-.05054,.24756-.14008,.33673l-.01709,.01703c-.18597,.18524-.48682,.18494-.67242-.00067l-3.08423-3.08423c-.75323,.6037-1.69653,.97992-2.73694,.97992-2.43005,0-4.40002-1.96991-4.40002-4.39996s1.96997-4.40002,4.40002-4.40002,4.40002,1.96997,4.40002,4.40002c0,1.0368-.3736,1.97723-.97357,2.72925l3.0849,3.0849Zm-6.51123-2.41412c1.87457,0,3.40002-1.52545,3.40002-3.39996s-1.52545-3.40002-3.40002-3.40002-3.40002,1.52545-3.40002,3.40002,1.52545,3.39996,3.40002,3.39996Z"/><rect class="cls-1" width="24" height="24"/></svg>