<?xml version="1.0" encoding="UTF-8"?><svg id="icons" xmlns="http://www.w3.org/2000/svg" viewBox="0 0 24 24"><path d="M5,4h1v1h-1v-1Zm2,1h1v-1h-1v1Zm15-3V12h-1v-1H3v3H12v1H2V2H22Zm-1,5H3v3H21v-3Zm0-4H3v3H21V3ZM6,8h-1v1h1v-1Zm2,0h-1v1h1v-1Zm-3,4v1h1v-1h-1Zm2,0v1h1v-1h-1Zm2-7h1v-1h-1v1Zm1,3h-1v1h1v-1Zm-1,4v1h1v-1h-1Zm14,1v10H13V13h10Zm-3,1v2h2v-2h-2Zm0,5h2v-2h-2v2Zm-3-5v1.99994l2,.00006v-2h-2Zm0,4.99994l2,.00006v-2l-2-.00006v2Zm-3-4.99994v1.99994h2v-1.99994h-2Zm2,2.99994h-2v2h2v-2Zm0,5.00006v-2.00006h-2v2.00006h2Zm3,0v-2l-2-.00006v2.00006h2Zm3,0v-2h-2v2h2Z"/><path opacity=".25" d="M16,16h-2v-2h2v2Zm6,1h-2v2h2v-2Zm-3,3h-2v2h2v-2Z"/><path opacity=".5" d="M16,22h-2v-2h2v2Zm3-8h-2v2h2v-2Z"/><path fill="none" d="M0 0h24v24H0z"/></svg>