<?xml version="1.0" encoding="UTF-8"?><svg id="icons" xmlns="http://www.w3.org/2000/svg" viewBox="0 0 32 32"><path opacity=".25" d="M21,21h-3v-3h3v3Zm8,1h-3v3h3v-3Zm-4,4h-3v3h3v-3Z"/><path opacity=".5" d="M25,21h-3v-3h3v3Zm-4,5h-3v3h3v-3Z"/><path d="M8,13h-2v-1h2v1Zm3-1h-2v1h2v-1Zm3,0h-2v1h2v-1ZM29,3v13H4v5h12v1H3V3H29Zm-1,7H4v5H28v-5Zm0-6H4v5H28V4ZM6,18v1h2v-1h-2Zm3,0v1h2v-1h-2Zm3,0v1h2v-1h-2ZM6,7h2v-1h-2v1Zm3,0h2v-1h-2v1Zm3,0h2v-1h-2v1Zm18,10v13h-13v-13h13Zm-4,7.99994h3v-3h-3v3Zm-4-4h3v-2.99994h-3v2.99994Zm0,4.00006h3v-3.00006h-3v3.00006Zm-4,0h3v-3.00006h-3v3.00006Zm0-7v2.99994h3v-2.99994h-3Zm3,11v-3h-3v3h3Zm4,0v-3h-3v3h3Zm4,0v-3.00006h-3v3.00006h3Zm0-11h-3v2.99994h3v-2.99994Z"/><path fill="none" d="M0 0h32v32H0z"/></svg>