<?xml version="1.0" encoding="UTF-8"?><svg id="icons" xmlns="http://www.w3.org/2000/svg" viewBox="0 0 32 32"><path d="m12,8h-5V3h5v5Zm17,2h-5v5h5v-5Z" style="fill:#6f6f6f; opacity:.25;"/><path d="m12,12v-2h5v2h-5Zm7-9v5h5V3h-5Zm-1,13.40759v4.59241h5v-5h-4.5921l-.4079.40759Z" style="fill:#6f6f6f; opacity:.5;"/><path d="m25,2v6h-1V3h-5v5h-1V3h-5v5h-1V3h-5v5h3v1h-3v3h-1V2h19Zm5,7v13H13.61804l.12341-.999h3.25854v-3.59426l1-.99915v4.59341h5v-5.001h-4.5921l.36017-.35986c.06323-.07574.11322-.15924.15082-.24719.0033-.00757.00348-.0163.00659-.02393.04132-.10388.06036-.21289.06543-.32385.00073-.01581.00909-.02917.00909-.04517h4v-5h-5v2h-1v-2h-5v2h-1v-3h19Zm-1,7h-5v5.001h5v-5.001Zm0-6h-5v5h5v-5Zm-11,3v2l-5,5-1.5,11h-3l-1.5-11-5-5v-2h16Zm-6.14551,7h-3.70898l1.22754,10h1.25391l1.22754-10Zm4.01025-4H4.13525l3.33301,3h5.06348l3.33301-3Zm1.13525-2H3v1h14v-1Z"/><rect width="32" height="32" style="fill:none;"/></svg>