<?xml version="1.0" encoding="UTF-8"?><svg id="icons" xmlns="http://www.w3.org/2000/svg" viewBox="0 0 16 16"><defs><style>.cls-1{fill:none;}</style></defs><path d="M3,6.70117c-.34576,0-.67761,.05194-1,.12933V1h14V12H7.15179c.08966-.34558,.14899-.67938,.14899-.99951,0-.00018-.00006-.00031-.00006-.00049h7.69928v-1.08691l-2.80859-2.70898-.68652,.45898c-.22461,.18115-.50781,.28125-.79492,.28125-.3125,0-.61328-.11523-.8457-.32275l-1.50098-1.3335-1.53418,1.63623c-.15118,.16095-.3457,.25958-.55194,.32526-.30365-.3609-.65894-.6709-1.06433-.91632l.08722-.09308c.11041-.1178,.28949-.1178,.39996,0s.28955,.1178,.40002,0l2.01733-2.15179c.10339-.11035,.26868-.11835,.38104-.01849l2.02979,1.8042c.10071,.0896,.24585,.09351,.35071,.00958l1.22485-.82336c.11261-.09009,.2702-.07812,.36969,.02808l2.52655,2.43597V2H3V6.70117Zm8.5-2.20117c.55231,0,1-.44769,1-1s-.44769-1-1-1-1,.44769-1,1,.44769,1,1,1ZM5.3703,12.66315l2.39746,2.39746c.09375,.09375,.14648,.22095,.14642,.35358,0,.13263-.05267,.25977-.14642,.35358-.19531,.19525-.51184,.19519-.70709-.00006l-2.39752-2.39746c-.47144,.33148-1.04309,.52972-1.66315,.52972C1.39838,13.89996,.09998,12.60156,.09998,11s1.2984-2.90002,2.90002-2.90002,2.90002,1.2984,2.90002,2.90002c0,.62006-.19824,1.19171-.52972,1.66315Zm-2.3703,.23682c1.04755,0,1.90002-.85242,1.90002-1.89996s-.85248-1.90002-1.90002-1.90002-1.90002,.85248-1.90002,1.90002,.85248,1.89996,1.90002,1.89996Z"/><rect class="cls-1" width="16" height="16"/></svg>