<?xml version="1.0" encoding="UTF-8"?><svg id="icons" xmlns="http://www.w3.org/2000/svg" viewBox="0 0 16 16"><path d="m5,4h-1v-2h2v1h-1v1Zm10,1h-2v2h2v-2Z" style="fill:#6f6f6f; opacity:.25;"/><path d="m10,3v-1h2v1h-2Zm-1,3v-1h-2v1h2Zm1,2v2h2v-2h-2Z" style="fill:#6f6f6f; opacity:.5;"/><path d="m13,1v2h-1v-1h-2v1h-1v-1h-2v1h-1v-1h-2v2h1v1h-1v1h-1V1h10Zm3,3v7h-7.67212c1.3992-1.31126,1.62433-1.39459,1.6593-1.93634.00146-.02222.01282-.08483.01282-.10741v1.04475h2v-2.001h-2v-1h2v-2h-2v2c0-.55225-.44727-1-1-1v-1h-2v1h-1v-2h10Zm-1,4h-2v2.001h2v-2.001Zm0-3h-2v2h2v-2Zm-6,2v2l-3.2016,3-.13525,4h-1.32629l-.13525-4-3.2016-3v-2h8Zm-2.24402,3h-3.55438l1.04999,1h1.49683l1.00757-1Zm1.24402-2H2v1h6v-1Z"/><rect width="16" height="16" style="fill:none;"/></svg>