<?xml version="1.0" encoding="UTF-8"?><svg id="icons" xmlns="http://www.w3.org/2000/svg" viewBox="0 0 16 16"><path opacity=".25" d="M15,14h-1v-2h1v2Zm-1,0h-2v1h2v-1Zm-2-4h-2v1h2v-1Z"/><path opacity=".5" d="M14,11h-2v-1h2v1Zm-2,3h-2v1h2v-1Z"/><path d="M3,3h1v1h-1v-1Zm2,1h1v-1h-1v1Zm2,0h1v-1h-1v1ZM15,1v7h-1v-2H2v3h6v1H1V1H15Zm-1,1H2v3H14V2ZM3,7v1h1v-1h-1Zm2,0v1h1v-1h-1Zm2,0v1h1v-1h-1Zm9,2v7h-7v-7h7Zm-5,5h-1v1h1v-1Zm0-2h-1v1h1v-1Zm0-2h-1v1h1v-1Zm2,4h-1v1h1v-1Zm0-2h-1v1h1v-1Zm0-2h-1v1h1v-1Zm2,4h-1v1h1v-1Zm0-2h-1v1h1v-1Zm0-2h-1v1h1v-1Z"/><path fill="none" d="M0 0h16v16H0z"/></svg>