<?xml version="1.0" encoding="UTF-8"?><svg id="icons" xmlns="http://www.w3.org/2000/svg" viewBox="0 0 32 32"><path d="M25.02588,11h1.16272c.96277,1.78815,1.5116,3.83081,1.5116,6,0,7.00293-5.69727,12.7002-12.7002,12.7002S2.2998,24.00293,2.2998,17,7.99707,4.2998,15,4.2998c2.13776,0,4.15076,.53625,5.92023,1.47314l-.61072,.81427c-1.5957-.81708-3.39716-1.28741-5.30951-1.28741-6.45117,0-11.7002,5.24854-11.7002,11.7002s5.24902,11.7002,11.7002,11.7002,11.7002-5.24854,11.7002-11.7002c0-2.19482-.61865-4.24292-1.67432-6Zm-6.02588-1h12L25,2l-6,8Z"/><path fill="none" d="M0 0h32v32H0z"/></svg>