<?xml version="1.0" encoding="UTF-8"?><svg id="icons" xmlns="http://www.w3.org/2000/svg" viewBox="0 0 32 32"><path d="M29,5h-7v-1c0-1.10303-.89746-2-2-2H12c-1.10254,0-2,.89697-2,2v1H3c-1.10254,0-2,.89697-2,2V27c0,1.10303,.89746,2,2,2H29c1.10254,0,2-.89697,2-2V7c0-1.10303-.89746-2-2-2Zm-.36133,1c.29492,0,.57324,.12891,.76367,.354,.19043,.22461,.27148,.52002,.22363,.81055l-.77637,4.65723c-.39966,2.39301-2.43268,4.13098-4.84961,4.17084v-1.99261h-4v2H12v-2h-4v1.99261c-2.41693-.03986-4.44995-1.77783-4.84961-4.17035l-.77637-4.65771c-.04785-.29053,.0332-.58594,.22266-.81055,.19141-.2251,.46973-.354,.76465-.354H28.63867Zm-7.63867,9h2v4h-2v-4Zm-12,0h2v4h-2v-4Zm2-11c0-.55127,.44824-1,1-1h8c.55176,0,1,.44873,1,1v1H11v-1ZM29,28H3c-.55176,0-1-.44873-1-1V11.00244l.16406,.98438c.47974,2.87689,2.92773,4.96576,5.83594,5.0058v3.00739h4v-3h8v3h4v-3.00739c2.9082-.04004,5.3562-2.12891,5.83594-5.00629l.16406-.98425v15.99792c0,.55127-.44824,1-1,1Z"/><path fill="none" d="M0 0h32v32H0z"/></svg>