<?xml version="1.0" encoding="UTF-8"?><svg id="icons" xmlns="http://www.w3.org/2000/svg" viewBox="0 0 16 16"><path d="M15,3h-3v-.5c0-.82715-.67285-1.5-1.5-1.5H6.5c-.82715,0-1.5,.67285-1.5,1.5v.5H2c-.55176,0-1,.44873-1,1V14c0,.55127,.44824,1,1,1H15c.55176,0,1-.44873,1-1V4c0-.55127-.44824-1-1-1Zm-5,4v1h-3v-1h-2v1h-.45898c-.98145,0-1.81055-.70264-1.97266-1.6709l-.3877-2.3291H14.81934l-.3877,2.32861c-.16211,.96875-.99121,1.67139-1.97266,1.67139h-.45898v-1h-2ZM6,2.5c0-.27588,.22461-.5,.5-.5h4c.27539,0,.5,.22412,.5,.5v.5H6v-.5ZM2,14V7.58472c.53314,.8573,1.47467,1.41528,2.54102,1.41528h.45898v1h2v-1h3v1h2v-1h.45898c1.06635,0,2.00787-.55798,2.54102-1.41547v6.41547H2Z"/><path fill="none" d="M0 0h16v16H0z"/></svg>