<?xml version="1.0" encoding="UTF-8"?><svg id="icons" xmlns="http://www.w3.org/2000/svg" viewBox="0 0 32 32"><defs><style>.cls-1{fill:none;}.cls-1,.cls-2{stroke-width:0px;}</style></defs><rect class="cls-1" x="0" width="32" height="32"/><path class="cls-2" d="M28,17c-.60107,0-1.13477.27234-1.50177.6936l-2.54626-1.26752c.03009-.13763.04803-.2796.04803-.42609,0-1.10254-.89746-2-2-2s-1.99103.89746-1.99103,2c0,.36975.10675.7121.28119,1.00958l-2.28265,2.27283c-.29706-.17499-.63861-.28241-1.00751-.28241-1.10254,0-1.99103.89746-1.99103,2,0,1.03986.79327,1.88739,1.80811,1.98151l.36969,2.19873c-.68378.31415-1.15076,1.00989-1.15076,1.81976,0,1.10254.86145,2,1.96399,2,.84216,0,1.56116-.52527,1.85547-1.26398l4.17053.5213c.12793.98016.95959,1.74268,1.974,1.74268,1.10254,0,2-.89746,2-2,0-.77466-.44769-1.44049-1.09363-1.77252l1.16327-5.2345c1.0697-.03766,1.93036-.91431,1.93036-1.99298,0-1.10254-.89746-2-2-2ZM23.49451,17.31525l2.55005,1.26984c-.02844.13403-.04456.27252-.04456.41492,0,.19672.03735.38312.09058.56281l-1.68939,1.01361c-.32147-.31647-.75085-.51648-1.22559-.55865l-.36615-2.1925c.26514-.1181.49554-.29492.68506-.51001ZM24,21.20001v1.59998c0,.11047-.08954.20001-.20001.20001h-1.59998c-.11047,0-.20001-.08954-.20001-.20001v-1.59998c0-.11047.08954-.20001.20001-.20001h1.59998c.11047,0,.20001.08954.20001.20001ZM21,16.5v-1.29999c0-.11047.08954-.20001.20001-.20001h1.59998c.11047,0,.20001.08954.20001.20001v1.59998c0,.11047-.08954.20001-.20001.20001h-1.59998c-.11047,0-.20001-.08954-.20001-.20001v-.29999ZM20.99585,17.71814c.24658.14575.52588.23676.82623.26385l.36639,2.19385c-.45032.20129-.81207.56317-1.01312,1.01361l-2.19312-.36493c-.02692-.30341-.11902-.5863-.26672-.83582l2.28033-2.27057ZM16.5,22h-.29999c-.11047,0-.20001-.08954-.20001-.20001v-1.59998c0-.11047.08954-.20001.20001-.20001h1.59998c.11047,0,.20001.08954.20001.20001v1.59998c0,.11047-.08954.20001-.20001.20001h-1.29999ZM19,26.5v1.29999c0,.11047-.08954.20001-.20001.20001h-1.59998c-.11047,0-.20001-.08954-.20001-.20001v-1.59998c0-.11047.08954-.20001.20001-.20001h1.59998c.11047,0,.20001.08954.20001.20001v.29999ZM19.01318,25.28552c-.25043-.14862-.53436-.24109-.83917-.26794l-.36835-2.19031c.4527-.20056.81616-.56354,1.01825-1.01538l2.19397.36511c.0274.30609.12079.59137.271.84241l-2.2757,2.26611ZM24.14453,27.26398l-4.17059-.52136c-.03552-.27209-.1236-.52551-.25745-.75208l2.27405-2.27405c.29749.17572.63977.28351,1.00946.28351.14911,0,.29327-.0191.43317-.05023l1.26288,2.54639c-.23993.20837-.43207.4679-.55151.76782ZM27,27.20001v1.59998c0,.11047-.08954.20001-.20001.20001h-1.59998c-.11047,0-.20001-.08954-.20001-.20001v-1.59998c0-.11047.08954-.20001.20001-.20001h1.59998c.11047,0,.20001.08954.20001.20001ZM25.93042,26.00702c-.11877.00415-.2359.01447-.34863.03857l-1.27307-2.54565c.42004-.36694.69128-.8999.69128-1.49994,0-.19666-.03735-.38293-.09052-.56262l1.68939-1.01373c.14417.14185.31323.25562.49475.34888l-1.16321,5.2345ZM29,18.5v1.29999c0,.11047-.08954.20001-.20001.20001h-1.59998c-.11047,0-.20001-.08954-.20001-.20001v-1.59998c0-.11047.08954-.20001.20001-.20001h1.59998c.11047,0,.20001.08954.20001.20001v.29999ZM4,23.48926v-7.98645c2.03448,1.58099,6.87335,2.44,11.5,2.44.83948,0,1.68567-.02917,2.52112-.0849l.96228-.85801c-1.07233.10602-2.23279.16888-3.4834.16888-7.125,0-11.5-2.04965-11.5-3.34359v-5.22882c2.03448,1.50452,6.87335,2.40399,11.5,2.40399s9.46552-.89948,11.5-2.40399v5.22882c0,.51624-.71008,1.13544-2,1.69489v.31097l.33942.16895h.8634c.29449-.15765.57019-.3208.79718-.49719v.49719h1V7c0-2.5332-6.44043-4.00043-12.5-4.00043S3.009,4.4668,3.009,7c0,.03284-.009,16.48926-.009,16.48926,0,2.74109,6.09137,4.34387,12,4.42999v-.8465c-6.50519-.09686-11-2.04309-11-3.5835ZM15.5,3.91858c7.125,0,11.5,1.87048,11.5,3.08142s-4.375,3.08136-11.5,3.08136-11.5-1.87042-11.5-3.08136,4.375-3.08142,11.5-3.08142Z"/></svg>