<?xml version="1.0" encoding="UTF-8"?><svg id="icons" xmlns="http://www.w3.org/2000/svg" viewBox="0 0 16 16"><path opacity=".5" d="M8,4c-1.10303,0-2-.89697-2-2s.89697-2,2-2,2,.89697,2,2-.89697,2-2,2Zm0-3c-.55127,0-1,.44873-1,1s.44873,1,1,1,1-.44873,1-1-.44873-1-1-1Zm6,6c-1.10303,0-2-.89697-2-2s.89697-2,2-2,2,.89697,2,2-.89697,2-2,2Zm0-3c-.55127,0-1,.44873-1,1s.44873,1,1,1,1-.44873,1-1-.44873-1-1-1ZM3,9c-1.10303,0-2-.89697-2-2s.89697-2,2-2,2,.89697,2,2-.89697,2-2,2Zm0-3c-.55127,0-1,.44873-1,1s.44873,1,1,1,1-.44873,1-1-.44873-1-1-1Zm6,4c-1.10303,0-2-.89697-2-2s.89697-2,2-2,2,.89697,2,2-.89697,2-2,2Zm0-3c-.55127,0-1,.44873-1,1s.44873,1,1,1,1-.44873,1-1-.44873-1-1-1Zm3,9c-1.10303,0-2-.89697-2-2s.89697-2,2-2,2,.89697,2,2-.89697,2-2,2Zm0-3c-.55127,0-1,.44873-1,1s.44873,1,1,1,1-.44873,1-1-.44873-1-1-1Zm-8,2c-1.10303,0-2-.89697-2-2s.89697-2,2-2,2,.89697,2,2-.89697,2-2,2Zm0-3c-.55127,0-1,.44873-1,1s.44873,1,1,1,1-.44873,1-1-.44873-1-1-1Z"/><path d="M2.45459,6.82812l1.11426,6.62207,8.8208,1.10254,2.18311-9.82617L7.90137,1.40576,2.45459,6.82812Zm5.52002,1.50806l-3.64209,3.62708-.7323-4.35504,4.37439,.72797Zm-3.94043-1.66937l3.6322-3.61591,.7251,4.341-4.3573-.7251Zm4.8432,2.16284l2.26105,4.55859-6.06189-.75775,3.80084-3.80084Zm.77692-.63922l3.60541-2.16315-1.44244,6.48907-2.16296-4.32593Zm-.28198-.99695l-.71765-4.29608,4.30542,2.14343-3.58777,2.15265Z"/><path fill="none" d="M0 0h16v16H0z"/></svg>