<?xml version="1.0" encoding="UTF-8"?><svg id="icons" xmlns="http://www.w3.org/2000/svg" viewBox="0 0 32 32"><path d="M8,13h-2v-1h2v1Zm3-1h-2v1h2v-1Zm3,0h-2v1h2v-1Zm-6,6h-2v1h2v-1Zm3,0h-2v1h2v-1Zm2,0h-1v1h1v-1ZM8,6h-2v1h2v-1Zm3,0h-2v1h2v-1Zm3,0h-2v1h2v-1Zm15.8,13.39001c.13,.51996,.19,1.04999,.19,1.60999,0,3.17999-2.11,5.85999-5.01002,6.71997,.01001,.09003,.02002,.17999,.02002,.28003,0,1.09998-.90002,2-2,2s-2-.90002-2-2c0-.10004,.01001-.20001,.02002-.29004-1.95001-.56995-3.54004-1.95996-4.38-3.77997,.32996-.07001,.64996-.20001,.92999-.38,.73999,1.57001,2.14001,2.77002,3.83997,3.23999,.37006-.47998,.94-.78998,1.59003-.78998,.38,0,.73999,.10999,1.04999,.29999,1.95001-2.31,2.82001-5.46002,3.19-7.45001-.64996-.27002-1.13-.87-1.21997-1.59998-3.47003-.10999-6.5,1.64996-8.21002,2.89996,.12,.26001,.19,.55005,.19,.85004,0,.64001-.31,1.21997-.78003,1.57996-.25995,.21002-.57996,.35004-.92999,.40002-.08997,.01001-.19,.02002-.28998,.02002-1.09998,0-1.99-.90002-1.99-2,0-1.10004,.89002-2,1.99-2,.09882,0,.19739,.00989,.28656,.01971,.08978-.32318,.21631-.64606,.35345-.94971,1.10999-2.40002,3.53998-4.07001,6.35999-4.07001,1.10999,0,2.15002,.25,3.07001,.70996-.26001,.22003-.48999,.49005-.66998,.79004-.73004-.32001-1.55005-.5-2.40002-.5-2.40002,0-4.46997,1.40997-5.42999,3.45001-.13062,.2699-.23987,.56335-.32031,.85901,1.82874-1.35559,5.08502-3.22607,8.90033-3.04901,.28998-.74005,1.00995-1.26001,1.84998-1.26001,1.09998,0,2,.89996,2,2,0,1.01996-.78003,1.87-1.77002,1.98999-.36951,2.00885-1.23767,5.14966-3.17255,7.61841,2.29016-.83252,3.94257-3.02759,3.94257-5.6084,0-.39001-.03998-.77002-.10999-1.14001,.32996-.09998,.63996-.26001,.90998-.46997Zm-12.82002,1.40997c-.07001-.35999-.32996-.64001-.66998-.73999-.07001-.03003-.15997-.04999-.23999-.04999-.02002-.01001-.04999-.01001-.07001-.01001-.54999,0-1,.45001-1,1s.45001,1,1,1c.02002,0,.04999,0,.07001-.01001,.52002-.03003,.92999-.46002,.92999-.98999,0-.07001-.01001-.14001-.02002-.20001Zm10.42999-2.98999c.17004,.12,.37006,.19,.59003,.19,.14001,0,.28003-.03003,.40002-.09003,.34998-.14996,.59998-.5,.59998-.90997,0-.54999-.45001-1-1-1-.29999,0-.57001,.14001-.76001,.34998-.14996,.17999-.23999,.40002-.23999,.65002,0,.12,.02002,.22998,.06,.33997,.07001,.19,.19,.35004,.34998,.47003Zm-3.40997,10.19c0-.03003,0-.06-.01001-.08002,0-.03998,0-.08002-.01001-.10999-.07001-.35004-.32001-.64001-.65997-.75-.10004-.04004-.21002-.06-.32001-.06-.53003,0-.96002,.40997-.98999,.92999-.01001,.02002-.01001,.04999-.01001,.07001,0,.54999,.45001,1,1,1s1-.45001,1-1ZM29,3V14h-1v-4H4v5h12v1H4v5H13v1H3V3H29Zm-1,1H4v5H28V4Z"/><path fill="none" d="M0 0h32v32H0z"/></svg>