<svg id="icons" xmlns="http://www.w3.org/2000/svg" viewBox="0 0 24 24"><path d="M6.42371,21.8A13.09324,13.09324,0,0,1,1,20.783L4.05084,3.07794A15.02836,15.02836,0,0,0,8.57062,3.8c3.84808,0,3.89209-1.6,7.74011-1.6a12.67416,12.67416,0,0,1,4.51978.87793L23.88135,21.183a13.093,13.093,0,0,0-5.42371-1.017c-.038,0-.07159.002-.10925.00213a2.48587,2.48587,0,0,0,.54529-.98675,16.287,16.287,0,0,1,3.72137.50506L19.94061,3.815A11.85932,11.85932,0,0,0,16.31073,3.2a7.79191,7.79191,0,0,0-3.48981.72486A9.80471,9.80471,0,0,1,8.57062,4.8a16.19309,16.19309,0,0,1-3.723-.45691L2.1239,20.14978A13.72618,13.72618,0,0,0,6.42371,20.8a22.051,22.051,0,0,0,5.78308-.78925c.5329-.12817,1.07531-.25622,1.64581-.37408l.45892.06549a2.47326,2.47326,0,0,0,.65387.74341C12.152,20.912,10.2912,21.8,6.42371,21.8Zm8.60614-3.00482-4.208-.60132a1.49518,1.49518,0,1,1-2.08826-1.97626l-.44794-2.23926a1.49613,1.49613,0,1,1,.85682-2.82812l2.00781-2.00763A1.48331,1.48331,0,0,1,11,8.5a1.5,1.5,0,1,1,2.96979.299l2.58148,1.54883A1.48556,1.48556,0,0,1,17.5,10a1.49971,1.49971,0,0,1,.29517,2.97015l-.6012,4.20807a1.49675,1.49675,0,1,1-2.16412,1.61695ZM10,18V17H9v1ZM8,13H9V12H8Zm4-5V9h1V8Zm5,3v1h1V11Zm-.79517,6.02985.6012-4.20807a1.50227,1.50227,0,0,1-.3443-.24347l-1.4801.74011a1.34714,1.34714,0,0,1-.32941,1.13025l1.549,2.58154ZM14,14V13H13v1Zm2-2.5a1.50267,1.50267,0,0,1,.03021-.29889l-2.58142-1.549a1.49389,1.49389,0,0,1-.18243.13037l.44775,2.2392a1.49165,1.49165,0,0,1,.82422.40008l1.48-.74A1.47568,1.47568,0,0,1,16,11.5ZM11.85742,9.84973,9.84985,11.8576a1.481,1.481,0,0,1,.12848.42823l2.2392.44781a1.50049,1.50049,0,0,1,.51611-.51611l-.44781-2.2392A1.48253,1.48253,0,0,1,11.85742,9.84973ZM9.26648,13.78241l.44775,2.23926a1.47825,1.47825,0,0,1,.43409.13171l2.01129-1.99365a1.4806,1.4806,0,0,1-.13794-.44556l-2.2392-.44781A1.50152,1.50152,0,0,1,9.26648,13.78241ZM10.97021,17.205l4.208.60089a1.49629,1.49629,0,0,1,.17414-.26013l-1.53217-2.582a1.44448,1.44448,0,0,1-.96259-.114l-2.00787,2.00757A1.48124,1.48124,0,0,1,10.97021,17.205ZM16,19h1V18H16Z"/><path fill="none" d="M0 0h24v24H0z"/></svg>