<?xml version="1.0" encoding="UTF-8"?><svg id="icons" xmlns="http://www.w3.org/2000/svg" viewBox="0 0 16 16"><path d="M16,5c0-1.10303-.89746-2-2-2-.6012,0-1.13501,.27228-1.50201,.69366l-2.54608-1.26727c.03009-.1377,.0481-.27979,.0481-.42639,0-1.10303-.89746-2-2-2-.45819,0-.87579,.16113-1.21344,.42133l.2486,.2486c.11444,.11444,.18317,.25226,.23053,.39612,.07086-.03845,.14807-.06604,.23431-.06604h1c.27612,0,.5,.22382,.5,.5v1c0,.27612-.22388,.5-.5,.5h-.5v1c0,.1532-.04291,.29291-.10449,.42273l.29285,1.75317c-.45038,.20129-.81213,.56305-1.01312,1.01361l-.86261-.14355c-.19342,.18585-.44165,.28217-.69153,.28217-.22266,0-.44531-.07373-.62793-.22119-.05273,.50195-.47754,.89307-.99414,.89307h-1.49902c-.27612,0-.5-.22388-.5-.5v-.38934c-.17603,.13995-.39447,.21747-.62109,.21747-.12207,0-.24054-.02771-.35284-.07025,.12018,.91974,.86139,1.63757,1.79102,1.72363l.36914,2.19556c-.69733,.31268-1.17622,1.01031-1.17622,1.82294,0,1.10303,.88746,2,1.99,2,.84222,0,1.56128-.52496,1.85553-1.26392l4.17047,.52124c.12787,.98053,.95953,1.74268,1.974,1.74268,1.10254,0,2-.89697,2-2,0-.77502-.44769-1.44073-1.09363-1.77264l1.16321-5.23438c1.06976-.0376,1.93042-.91382,1.93042-1.99298Zm-2.5-1h1c.27612,0,.5,.22382,.5,.5v1c0,.27612-.22388,.5-.5,.5h-1c-.27612,0-.5-.22388-.5-.5v-1c0-.27618,.22388-.5,.5-.5Zm-1.91827,8.04559l-1.27295-2.54553c.41998-.36688,.69122-.89978,.69122-1.50006,0-.19678-.03741-.38318-.09058-.56293l1.68921-1.01349c.14417,.14197,.31342,.25574,.495,.34906l-1.16321,5.23438c-.11877,.00415-.23596,.01447-.34869,.03857Zm-1.43726,1.21838l-4.17047-.52136c-.03546-.27216-.1236-.52563-.25745-.75226l2.27368-2.27393c.29755,.17578,.63995,.28357,1.00977,.28357,.14905,0,.29315-.0191,.43298-.05017l1.26294,2.54626c-.23993,.20831-.43207,.46796-.55145,.76788Zm-.65002-9.94843l2.55005,1.26965c-.02838,.13397-.04449,.27246-.04449,.41479,0,.19678,.03741,.38318,.09058,.56287l-1.68921,1.01349c-.32147-.31647-.75098-.51648-1.22577-.55859l-.36609-2.1925c.26508-.1181,.49542-.29468,.68494-.5097Zm-.99445,3.68445h1c.27612,0,.5,.22382,.5,.5v1c0,.27612-.22388,.5-.5,.5h-1c-.27612,0-.5-.22388-.5-.5v-1c0-.27618,.22388-.5,.5-.5Zm-3.67596,.81183l2.19385,.36511c.0274,.30621,.12079,.59155,.27094,.84259l-2.27551,2.26593c-.25043-.14862-.53448-.24103-.83929-.26788l-.36829-2.19025c.4527-.20056,.81622-.56354,1.01831-1.0155Zm-.32404,6.18817h-1c-.27612,0-.5-.22388-.5-.5v-1c0-.27618,.22388-.5,.5-.5h1c.27612,0,.5,.22382,.5,.5v1c0,.27612-.22388,.5-.5,.5Zm8.5-.5v1c0,.27612-.22388,.5-.5,.5h-1c-.27612,0-.5-.22388-.5-.5v-1c0-.27618,.22388-.5,.5-.5h1c.27612,0,.5,.22382,.5,.5ZM1.37891,6.32806l.92676-.92731c.21063,.13251,.4433,.23193,.69336,.28894v1.3103h1v-1.30969c.25061-.05682,.48364-.15649,.69458-.28918l.92749,.92694,.70801-.70697-.9278-.9278c.13239-.21069,.23181-.4433,.28864-.6933h1.31006v-1h-1.31006c-.05695-.25061-.15662-.48383-.28943-.69482l.92761-.92816-.70703-.70715-.92804,.92865c-.21082-.13245-.44366-.23206-.69403-.28882V0h-1V1.3103c-.24957,.05688-.48175,.15607-.69202,.28821l-.9281-.92865-.70703,.70905,.92719,.92712c-.13257,.21082-.23212,.44366-.289,.69397H0v1H1.31006c.05688,.25024,.15643,.48315,.289,.69397l-.92719,.92712,.70703,.70697ZM3.5,2c.82867,0,1.5,.67133,1.5,1.5,0,.82532-.67133,1.5-1.5,1.5s-1.5-.67468-1.5-1.5c0-.82867,.67133-1.5,1.5-1.5Z"/><path fill="none" d="M0 0h16v16H0z"/></svg>