<?xml version="1.0" encoding="UTF-8"?><svg id="icons" xmlns="http://www.w3.org/2000/svg" viewBox="0 0 16 16"><path d="M16,4.5c0-.82715-.67285-1.5-1.5-1.5-.36163,0-.68933,.13385-.94867,.34778l-2.58154-1.54895c.01959-.09662,.03021-.19653,.03021-.29883,0-.82715-.67285-1.5-1.5-1.5s-1.5,.67285-1.5,1.5c0,.23096,.05676,.4472,.15039,.64282l-2.00787,2.00739c-.1955-.09351-.41168-.15021-.64252-.15021-.68439,0-1.25671,.46338-1.43616,1.09088,.36816,.10919,.68982,.3183,.93616,.60034v-.69122h1v1h-.77826c.1723,.29541,.27826,.63416,.27826,1v1.0498l.23358,1.16779c-.08362,.05017-.1615,.1076-.23358,.17255v.70947c.16016-.04102,.32568-.0625,.49316-.0625,.00232,0,.00452,.00067,.00684,.00067v-.03778h1v.32141c.13806,.08282,.27002,.17682,.38672,.29382,.1795,.17902,.3175,.38776,.41626,.61334,.00647-.01147,.0127-.02301,.01886-.03467l4.20801,.60132c.13751,.68616,.74408,1.20477,1.47015,1.20477,.82715,0,1.5-.67285,1.5-1.5,0-.57556-.32947-1.0705-.80634-1.32196l.60138-4.20789c.68628-.13751,1.20496-.74402,1.20496-1.47015Zm-2,7.5h-1v-1h1v1Zm-6.15033-2.14264l2.00769-2.00769c.19556,.09357,.41174,.15033,.64264,.15033,.11011,0,.2168-.01355,.32019-.03619l1.53217,2.58197c-.06689,.08032-.12488,.16693-.17407,.26007l-4.20813-.60083c-.0246-.12274-.06787-.23767-.12048-.34766Zm-.87134-4.57147c-.02197-.15155-.06476-.29498-.12854-.42841l2.00739-2.00787c.13348,.0639,.27704,.10675,.42865,.12872l.44781,2.2392c-.21228,.12732-.38885,.30389-.51617,.51617l-2.23914-.44781ZM10,1v1h-1V1h1Zm5,3v1h-1v-1h1Zm-1.98163,.68176l-1.48004,.73999c-.2207-.21259-.50647-.35406-.82385-.40009l-.448-2.23926c.06451-.0387,.12439-.08252,.18213-.13019l2.5816,1.54895c-.01959,.09662-.03021,.19647-.03021,.29883,0,.06226,.01099,.12152,.01837,.18176Zm-2.01837,2.31824h-1v-1h1v1Zm2.20129,3.03021l-1.54883-2.58185c.21375-.25928,.34753-.58685,.34753-.94836,0-.06226-.01099-.12152-.01837-.18176l1.48004-.73999c.1015,.09772,.21869,.17731,.34442,.24359l-.60083,4.20795c-.00128,.00024-.00269,.00018-.00397,.00043Zm-6.41876-3.76392l2.23914,.44781c.02295,.15826,.06958,.30731,.13794,.44562l-2.01129,1.99365c-.13501-.06537-.28033-.10944-.43408-.13171l-.44775-2.23926c.21222-.12732,.38879-.30389,.51605-.51611Zm-.45636,6.11603l-2.80859,2.80908L.70801,12.38232l.70703-.70703,1.58496,1.58459V7h1v6.2948l1.61914-1.61951,.70703,.70703Z"/><path fill="none" d="M0 0h16v16H0z"/></svg>