<?xml version="1.0" encoding="UTF-8"?><svg id="icons" xmlns="http://www.w3.org/2000/svg" viewBox="0 0 32 32"><path d="M27,8c-.95367,0-1.7948,.45563-2.34467,1.15137l-5.83063-3.18011c.10571-.30627,.17529-.62946,.17529-.97125,0-1.6543-1.3457-3-3-3-1.42047,0-2.60718,.99463-2.91608,2.32245,.54999,.35632,.91608,.97333,.91608,1.67755v1c0,.06989-.01093,.13684-.01794,.2049,.47998,.43958,1.10065,.71857,1.7879,.77185l.466,5.13409c-.81653,.21661-1.49036,.76593-1.87756,1.4975l-5.52747-1.81061c-.14679,.33575-.38397,.62-.67957,.82953l5.89331,1.93073c-.02173,.14539-.04468,.29065-.04468,.44202,0,.58618,.17548,1.12946,.46729,1.59204l-4.61041,4.07007c-.51245-.40796-1.1524-.66211-1.85687-.66211-.07843,0-.1521,.01721-.229,.02313l-1.56958-6.27814c.40082-.17621,.74884-.44226,1.03546-.76575-.07831,.00934-.15607,.02075-.23688,.02075h-1c-.17389,0-.33978-.02911-.50067-.07086-.16052,.04169-.32593,.07086-.49933,.07086-.84906,0-1.57166-.53412-1.86127-1.28241-.05872,.00525-.11444,.02509-.17389,.02509-.32208,0-.63208-.08606-.91315-.23114,.24445,1.41034,1.46918,2.48846,2.9483,2.48846,.07843,0,.15216-.01721,.22906-.02313l1.56946,6.27814c-1.05682,.46454-1.78852,1.51843-1.78852,2.745,0,1.6543,1.3357,3,2.99,3,1.27667,0,2.362-.80499,2.79437-1.93121l9.21454,1.84308c-.00092,.02997-.00891,.05798-.00891,.08813,0,1.6543,1.3457,3,3,3s2.99-1.3457,2.99-3c0-1.22662-.73158-2.28052-1.78852-2.745l2.56982-10.27814c.07684,.00592,.15039,.02313,.2287,.02313,1.6543,0,2.99-1.3457,2.99-3s-1.3357-3-2.99-3Zm0,5c-1.10254,0-2-.89697-2-2s.89746-2,2-2,2,.89697,2,2-.89746,2-2,2Zm-2.82471-2.97107c-.10571,.30621-.17529,.62939-.17529,.97107,0,.30804,.06018,.59955,.14679,.87952l-4.73096,2.35809c-.50256-.68683-1.28723-1.14417-2.18402-1.21417l-.4657-5.13495c.63495-.16888,1.18237-.53845,1.57867-1.03998l5.83051,3.18042Zm-9.17529,5.97107c0-1.10303,.89746-2,2-2s2,.89697,2,2-.89746,2-2,2-2-.89697-2-2Zm-1-11c0-1.10303,.89746-2,2-2s2,.89697,2,2-.89746,2-2,2-2-.89697-2-2Zm-4,19c0,1.10303-.89746,2-2,2s-2-.89697-2-2,.89746-2,2-2,2,.89697,2,2Zm.99109,.08832c.00092-.03003,.00891-.05811,.00891-.08832,0-.59021-.17712-1.13739-.4726-1.60193l4.60046-4.07281c.51483,.41547,1.16052,.67474,1.87213,.67474,.34222,0,.66583-.06976,.97247-.17572l3.18231,5.82825c-.42181,.3324-.75342,.76898-.94904,1.2785l-9.21466-1.84271Zm12.00891,.91168c1.10254,0,2,.89697,2,2s-.89746,2-2,2-2-.89697-2-2,.89746-2,2-2Zm.229-.97687c-.0769-.00592-.15057-.02313-.229-.02313-.34045,0-.66235,.06927-.96765,.17419l-3.18311-5.83002c.69537-.54987,1.15076-1.39081,1.15076-2.34418,0-.30298-.05859-.58984-.14252-.86578l4.73584-2.36072c.31018,.41968,.72174,.75879,1.20496,.97125l-2.56927,10.27838ZM3.70551,8.5874l-1.44812,1.44812,.70709,.70709,1.44812-1.44812c.45685,.34192,.99652,.56976,1.5874,.65509v2.05042h1v-2.05042c.59088-.08533,1.13055-.31317,1.5874-.65509l1.44812,1.44812,.70709-.70709-1.44812-1.44812c.34192-.45679,.56976-.99652,.65509-1.5874h2.05042v-1h-2.05042c-.08533-.59088-.31317-1.13055-.65509-1.5874l1.44812-1.44812-.70709-.70715-1.44812,1.44812c-.45679-.34192-.99652-.5697-1.5874-.65503V1h-1V3.05042c-.59088,.08533-1.13062,.31311-1.5874,.65503l-1.44812-1.44812-.70709,.70715,1.44812,1.44812c-.34192,.45685-.56976,.99652-.65509,1.5874H1v1H3.05042c.08533,.59088,.31317,1.13062,.65509,1.5874Zm2.79449-4.5874c1.38025,0,2.5,1.11975,2.5,2.5s-1.11975,2.5-2.5,2.5-2.5-1.11981-2.5-2.5,1.11981-2.5,2.5-2.5Z"/><path fill="none" d="M0 0h32v32H0z"/></svg>