<?xml version="1.0" encoding="UTF-8"?><svg id="icons" xmlns="http://www.w3.org/2000/svg" viewBox="0 0 32 32"><path d="M27,3.89996l4,24.10004s-2.96509-.76385-7.25592-.79688c.13562-.30798,.21051-.64496,.23505-.9964,2.48724,.03381,4.52045,.29889,5.79608,.52136l-3.65125-21.9989c-.94855-.19287-2.87079-.51807-5.04987-.51807-2.47443,0-3.84198,.39368-5.28979,.81049-1.44568,.4162-2.94061,.84662-5.44513,.84662-2.00488,0-3.52789-.34583-4.54413-.65094L2.1076,27.43427c1.05927,.479,3.42621,1.36572,6.43018,1.36572,3.28064,0,5.16248-.60797,7.15485-1.25159,.69165-.22345,1.39636-.44745,2.15765-.64886l.32288,.06458c.0968,.28271,.23615,.54535,.40692,.78357-3.17566,.76239-5.19385,2.05231-10.0423,2.05231-4.44446,0-7.53778-1.79999-7.53778-1.79999L5,3.89996c.69922,.23309,2.5188,.96826,5.33917,.96826,4.80804,0,5.59076-1.6571,10.73492-1.6571,3.25922,0,5.9259,.68884,5.9259,.68884Zm-6,24.10004c-1.06458,0-1.92902-.83771-1.98865-1.88763l-6.21808-1.24377c-.32458,.66699-1.00281,1.13141-1.79327,1.13141-1.10303,0-2-.89697-2-2,0-.75647,.42676-1.40808,1.04773-1.7478l-1.06348-4.25378c-1.09564-.00873-1.98425-.90076-1.98425-1.99841,0-1.10303,.89697-2,2-2,.42511,0,.81781,.13538,1.14215,.3623l4.0683-3.48688c-.13049-.2655-.21045-.56006-.21045-.87543,0-1.10303,.89697-2,2-2s2,.89697,2,2c0,.20935-.04132,.40735-.1012,.59711l4.72858,2.95538c.3587-.34021,.84021-.55249,1.37262-.55249,1.10303,0,2,.89697,2,2s-.89697,2-2,2c-.00909,0-.01746-.00256-.02655-.00269l-1.98413,7.27496c.60071,.3454,1.00068,.98627,1.00068,1.72772,0,1.10303-.88697,2-1.99,2Zm-.5-1h1c.27612,0,.5-.22388,.5-.5v-1c0-.27618-.22388-.5-.5-.5h-1c-.27612,0-.5,.22382-.5,.5v1c0,.27612,.22388,.5,.5,.5Zm-8.5-3.5c0-.27618-.22388-.5-.5-.5h-1c-.27612,0-.5,.22382-.5,.5v1c0,.27612,.22388,.5,.5,.5h1c.27612,0,.5-.22388,.5-.5v-1Zm-3.5-6.5h1c.27612,0,.5-.22388,.5-.5v-1c0-.27618-.22388-.5-.5-.5h-1c-.27612,0-.5,.22382-.5,.5v1c0,.27612,.22388,.5,.5,.5Zm6.5-6.5c0,.27612,.22388,.5,.5,.5h1c.27612,0,.5-.22388,.5-.5v-1c0-.27618-.22388-.5-.5-.5h-1c-.27612,0-.5,.22382-.5,.5v1Zm8,4v1c0,.27612,.22388,.5,.5,.5h1c.27612,0,.5-.22388,.5-.5v-1c0-.27618-.22388-.5-.5-.5h-1c-.27612,0-.5,.22382-.5,.5Zm-1,.5c0-.20935,.04132-.40735,.1012-.59711l-4.72864-2.95538c-.18335,.17389-.39819,.31317-.63678,.40814l.52124,4.17035c.53564,.06976,1.00159,.34808,1.31757,.75537l3.45575-1.48102c-.01501-.09869-.03033-.19751-.03033-.30035Zm-4.5,2h-1c-.27612,0-.5,.22382-.5,.5v1c0,.27612,.22388,.5,.5,.5h1c.27612,0,.5-.22388,.5-.5v-1c0-.27618-.22388-.5-.5-.5Zm-2.64227-5.36243l-4.06805,3.48712c.12823,.26105,.2063,.55035,.20874,.8598l4.25366,1.06342c.2229-.40729,.57697-.73041,1.01215-.90356l-.5213-4.17035c-.32568-.04242-.62793-.15649-.88519-.33643Zm-4.9054,6.11023l1.06335,4.25378c.36676,.00293,.70654,.10999,1.00128,.28571l3.27991-3.25281c-.18201-.29858-.29236-.64502-.29529-1.01898l-4.25366-1.06342c-.18414,.33655-.45905,.61157-.79559,.79572Zm3.03632,6.14001l6.21814,1.24341c.11902-.24457,.28571-.45862,.48895-.63513l-2.25629-4.54822c-.14185,.03198-.28809,.05212-.43945,.05212-.36975,0-.71198-.10767-1.0094-.2832l-3.27393,3.27362c.15735,.26654,.25342,.57056,.27197,.8974Zm10.02203-7.16016c-.22742-.13074-.42523-.30273-.58521-.50891l-3.45581,1.48126c.01501,.09857,.03033,.19727,.03033,.29999,0,.60028-.27118,1.13318-.6911,1.50006l2.27289,4.54547c.13507-.02887,.2746-.04553,.41821-.04553,.00909,0,.01752,.00256,.02661,.00269l1.98407-7.27502Z"/><path fill="none" d="M0 0h32v32H0z"/></svg>