<?xml version="1.0" encoding="UTF-8"?><svg id="icons" xmlns="http://www.w3.org/2000/svg" viewBox="0 0 32 32"><path d="M5.5,30.26758l-3.85352-3.85352,.70703-.70703,2.64648,2.64648V13h1v15.35352l2.64648-2.64648,.70703,.70703-3.85352,3.85352Zm1.5-18.76758c0-1.37842,1.12109-2.5,2.5-2.5,.61957,0,1.17981,.2348,1.617,.60919l5.15082-4.00616c-.16589-.33417-.26782-.70532-.26782-1.10303,0-1.37842,1.12109-2.5,2.5-2.5s2.5,1.12158,2.5,2.5c0,.26392-.05225,.51355-.12842,.75256l4.7276,2.64252c.45892-.54266,1.13593-.89508,1.90082-.89508,1.37891,0,2.49,1.12158,2.49,2.5s-1.11109,2.5-2.49,2.5c-.01953,0-.03766-.00537-.05713-.0058l-1.90503,8.23816c.86035,.39557,1.46216,1.26038,1.46216,2.26764,0,1.37842-1.12109,2.5-2.5,2.5-1.33667,0-2.42169-1.05652-2.48755-2.37665l-8.17603-1.25781c-.3537,.95129-1.26306,1.63446-2.33643,1.63446-1.37891,0-2.5-1.12158-2.5-2.5,0-1.01508,.61029-1.88696,1.48145-2.27814l-.93903-4.22614c-.01447,.00024-.02789,.00427-.04242,.00427-1.37891,0-2.5-1.12158-2.5-2.5Zm1,.5c0,.55225,.44769,1,1,1h1c.55231,0,1-.44775,1-1v-1c0-.55231-.44769-1-1-1h-1c-.55231,0-1,.44769-1,1v1Zm10.27203-5.02307c-.52893-.04883-1.00696-.25885-1.38904-.58612l-5.15082,4.00616c.16449,.3313,.2652,.69916,.26678,1.09308l5.19727,1.03943c.28088-.66437,.84589-1.17206,1.53754-1.39679l-.46173-4.15576Zm4.61414,13.62964l-2.61139-4.74188c-.24542,.08069-.50269,.13531-.77478,.13531-.56799,0-1.08612-.19757-1.50629-.51776l-4.32996,3.78882c.18829,.3302,.30377,.70392,.32379,1.10559l8.17596,1.25787c.15002-.4035,.40094-.7533,.72266-1.02795Zm-2.88617-8.60657h-1c-.55231,0-1,.44769-1,1v1c0,.55225,.44769,1,1,1h1c.55231,0,1-.44775,1-1v-1c0-.55231-.44769-1-1-1Zm-8.5423,6.00427c.0144-.00024,.02783-.00427,.0423-.00427,.56927,0,1.08844,.19855,1.50909,.52008l4.33325-3.77991c-.21021-.36426-.33948-.78076-.34131-1.23022l-5.19727-1.03943c-.24628,.58246-.70935,1.04901-1.28528,1.30762l.93921,4.22614Zm1.5423,2.99573v-1c0-.55231-.44769-1-1-1h-1c-.55231,0-1,.44769-1,1v1c0,.55225,.44769,1,1,1h1c.55231,0,1-.44775,1-1Zm12,0h-1c-.55231,0-1,.44769-1,1v1c0,.55225,.44769,1,1,1h1c.55231,0,1-.44775,1-1v-1c0-.55231-.44769-1-1-1Zm1.46881-9.22876c-.35968-.164-.66815-.41321-.91248-.71832l-3.64868,1.81042c.0542,.20453,.09235,.41534,.09235,.63666,0,.7572-.3454,1.42865-.87891,1.88745l2.63263,4.73901c.23718-.07483,.48462-.12646,.74628-.12646,.02173,0,.04181,.00586,.06342,.00641l1.9054-8.23517Zm-.46881-2.77124v1c0,.55225,.44769,1,1,1h1c.55231,0,1-.44775,1-1v-1c0-.55231-.44769-1-1-1h-1c-.55231,0-1,.44769-1,1Zm-5.61639-2.87427c-.29535,.34167-.67816,.59888-1.11725,.74158l.46191,4.15576c.70416,.065,1.31995,.41766,1.73309,.94543l3.6391-1.80579c-.0589-.21246-.10046-.43182-.10046-.66272,0-.25452,.04944-.49536,.12042-.72693l-4.73682-2.64734Zm-2.38361-.12573h1c.55231,0,1-.44775,1-1v-1c0-.55231-.44769-1-1-1h-1c-.55231,0-1,.44769-1,1v1c0,.55225,.44769,1,1,1Z"/><path fill="none" d="M0 0h32v32H0z"/></svg>