<?xml version="1.0" encoding="UTF-8"?><svg id="icons" xmlns="http://www.w3.org/2000/svg" viewBox="0 0 32 32"><path d="M5,15c.07843,0,.15216-.01721,.22906-.02313l1.56946,6.27814c-1.05682,.46454-1.78852,1.51843-1.78852,2.745,0,1.6543,1.3357,3,2.99,3,1.27667,0,2.36194-.80493,2.79437-1.93121l9.21454,1.84302c-.00092,.02997-.00891,.05798-.00891,.0882,0,1.6543,1.3457,3,3,3s2.99-1.3457,2.99-3c0-1.2265-.73152-2.28027-1.78828-2.74487l2.56927-10.27826c.0769,.00592,.15057,.02313,.229,.02313,1.6543,0,2.99-1.3457,2.99-3s-1.3357-3-2.99-3c-.95374,0-1.79492,.45569-2.34479,1.15155l-5.83051-3.18024c.10571-.30627,.17529-.62952,.17529-.97131,0-1.6543-1.3457-3-3-3s-3,1.3457-3,3c0,.41345,.08411,.80762,.23602,1.16632l-6.0191,3.83026c-.54938-.60736-1.33533-.99658-2.21692-.99658-1.6543,0-3,1.3457-3,3s1.3457,3,3,3Zm0-5c1.10303,0,2,.89697,2,2s-.89697,2-2,2-2-.89697-2-2,.89697-2,2-2Zm1.20142,4.745c.6015-.2644,1.09033-.72479,1.40851-1.29498l6.43475,2.10803c-.02173,.14539-.04468,.29059-.04468,.44196,0,.58612,.17542,1.12927,.4671,1.59174l-4.61047,4.07019c-.51245-.40784-1.15228-.66193-1.85663-.66193-.07843,0-.1521,.01721-.229,.02313l-1.56958-6.27814Zm8.79858,1.255c0-1.10303,.89697-2,2-2s2,.89697,2,2-.89697,2-2,2-2-.89697-2-2Zm-5,8c0,1.10303-.89697,2-2,2s-2-.89697-2-2,.89697-2,2-2,2,.89697,2,2Zm.99109,.08832c.00092-.03003,.00891-.05811,.00891-.08832,0-.59009-.17706-1.13715-.47247-1.60168l4.6004-4.073c.51483,.41541,1.16052,.67468,1.87207,.67468,.34216,0,.66577-.0697,.97241-.17572l3.18207,5.82849c-.42175,.3324-.75323,.76886-.94879,1.27832l-9.2146-1.84277Zm12.00891,.91168c1.10303,0,2,.89697,2,2s-.89697,2-2,2-2-.89697-2-2,.89697-2,2-2Zm.2287-.97687c-.07678-.00592-.15039-.02313-.2287-.02313-.34027,0-.66205,.06921-.96722,.17407l-3.18323-5.8302c.69519-.54987,1.15045-1.39062,1.15045-2.34387,0-.30298-.05859-.58984-.14252-.86578l4.73584-2.36072c.31024,.4198,.72186,.75897,1.2052,.97144l-2.56982,10.2782Zm3.7713-15.02313c1.10303,0,2,.89697,2,2s-.89697,2-2,2-2-.89697-2-2,.89697-2,2-2Zm-2.82465,1.02875c-.10571,.30627-.17535,.62952-.17535,.97125,0,.30792,.06012,.5993,.14667,.87915l-4.73102,2.35822c-.5025-.68665-1.28693-1.1438-2.18347-1.21393l-.46594-5.13501c.63483-.16888,1.18237-.53851,1.57861-1.03998l5.83051,3.1803ZM14,5c0-1.10303,.89697-2,2-2s2,.89697,2,2-.89697,2-2,2-2-.89697-2-2Zm-.21698,2.00336c.50031,.55316,1.19946,.91235,1.98694,.97339l.466,5.13409c-.81653,.21661-1.49036,.76587-1.87756,1.49744l-6.40979-2.09967c.02863-.16614,.05139-.33441,.05139-.50861,0-.41345-.08405-.80756-.23596-1.16626l6.01898-3.83038Z"/><path fill="none" d="M0 0h32v32H0z"/></svg>