<svg id="icons" xmlns="http://www.w3.org/2000/svg" viewBox="0 0 24 24"><path d="M4.5,22.99365,1.66016,20.36719l.67968-.73438L4,21.16876V12.00049H5v9.16827l1.66016-1.53595.67968.73438ZM23,7a2.00229,2.00229,0,0,1-2,2c-.026,0-.05011-.00671-.07587-.00769l-1.89087,6.304a1.99485,1.99485,0,1,1-3.00451,1.98773l-5.16522-.57373A1.99671,1.99671,0,1,1,8.264,14.14447L7.74261,9.97394A1.99482,1.99482,0,1,1,9.16309,6.37976l3.03424-2.52862A1.97748,1.97748,0,0,1,12,3a2,2,0,0,1,4,0,1.97491,1.97491,0,0,1-.078.52258L19.56952,5.607A1.99675,1.99675,0,0,1,23,7Zm-1-.5a.5.5,0,0,0-.5-.5h-1a.5.5,0,0,0-.5.5v1a.5.5,0,0,0,.5.5h1a.5.5,0,0,0,.5-.5ZM15.43042,4.39307a2.00362,2.00362,0,0,1-.66168.45227l.45367,3.17718a1.98454,1.98454,0,0,1,1.27741.66846l2.54571-1.27283A1.99652,1.99652,0,0,1,19,7a1.97294,1.97294,0,0,1,.07806-.52264ZM18.5,16h-1a.5.5,0,0,0-.5.5v1a.5.5,0,0,0,.5.5h1a.5.5,0,0,0,.5-.5v-1A.5.5,0,0,0,18.5,16Zm-1.71545-.577-1.47144-3.45465a1.84,1.84,0,0,1-1.32263-.25177l-3.27387,3.27387a1.97439,1.97439,0,0,1,.25464.72534l5.16516.5741A1.99859,1.99859,0,0,1,16.78455,15.423ZM10,15.5a.5.5,0,0,0-.5-.5h-1a.5.5,0,0,0-.5.5v1a.5.5,0,0,0,.5.5h1a.5.5,0,0,0,.5-.5ZM7.5,9h1A.5.5,0,0,0,9,8.5v-1A.5.5,0,0,0,8.5,7h-1a.5.5,0,0,0-.5.5v1A.5.5,0,0,0,7.5,9ZM13,3.5a.5.5,0,0,0,.5.5h1a.5.5,0,0,0,.5-.5v-1a.5.5,0,0,0-.5-.5h-1a.5.5,0,0,0-.5.5Zm-.163,1.1203L9.80261,7.14874A1.977,1.977,0,0,1,10,8c0,.017-.00458.03278-.005.04968l3.289.9397a2.0044,2.0044,0,0,1,.94714-.83472l-.45386-3.17718A1.98211,1.98211,0,0,1,12.837,4.6203ZM15.5,9h-1a.5.5,0,0,0-.5.5v1a.5.5,0,0,0,.5.5h1a.5.5,0,0,0,.5-.5v-1A.5.5,0,0,0,15.5,9Zm-6.764.85553L9.25726,14.026a1.97606,1.97606,0,0,1,.75751.26025l3.27826-3.259A1.97893,1.97893,0,0,1,13,10c0-.017.00458-.03278.005-.04968l-3.289-.9397A2.00154,2.00154,0,0,1,8.736,9.85553ZM19.967,8.70386a1.99964,1.99964,0,0,1-.46686-.39484L16.95447,9.58185a1.97073,1.97073,0,0,1-.73584,1.99255L17.7,15.03033A1.97687,1.97687,0,0,1,18,15c.02588,0,.04987.00665.0755.00763Z"/><path fill="none" d="M0 0h24v24H0z"/></svg>