<?xml version="1.0" encoding="UTF-8"?><svg id="icons" xmlns="http://www.w3.org/2000/svg" viewBox="0 0 24 24"><path d="M6,5h-1v-1h1v1Zm2-1h-1v1h1v-1Zm2.00098,.00098l-1-.00098-.00195,1,1,.00098,.00195-1Zm-4.00098,4.99902h-1v-1h1v1Zm2-1h-1v1h1v-1Zm2.00098,.00098l-1-.00098-.00195,1,1,.00098,.00195-1Zm-.00195,4.99902l-1-.00098,.00195-1,1,.00098-.00195,1Zm-3.99902-1h-1v1h1v-1Zm2,0h-1v1h1v-1ZM2,2V15H10.47998c.07001-.34003,.17999-.67999,.31-1H3v-3H13.19c.65997-.47003,1.40997-.81,2.21997-1H3v-3H21v3h-2.40997c.81,.19,1.56,.52997,2.21997,1h1.19V2H2Zm1,4V3H21v3H3ZM22.34003,15.19c-.25,.26996-.56,.48999-.90002,.62,.32747,1.80182-.61865,3.81299-2.46893,4.73102,1.72009-2.24554,2.09979-4.36975,2.12622-5.66663,.53033-.23145,.90271-.7597,.90271-1.37439,0-.82715-.67285-1.5-1.5-1.5-.6004,0-1.11572,.35675-1.35522,.86749-2.81232-.09302-4.89856,1.27661-6.03741,2.28674-.11493-.05084-.22919-.10443-.35736-.12427,.10999-.32996,.26001-.63995,.45001-.92999,.79999-1.26001,2.20001-2.09998,3.79999-2.09998,.47998,0,.92999,.07001,1.35999,.20996,.19-.31995,.45001-.58997,.75-.78998-.64996-.27002-1.35999-.41998-2.10999-.41998-2.14001,0-4,1.22998-4.90997,3.02997-.20001,.39001-.35004,.81-.45001,1.25-.39001,.26001-.64001,.71002-.64001,1.22003,0,.82996,.66998,1.5,1.5,1.5s1.5-.67004,1.5-1.5c0-.23694-.07086-.45184-.16943-.65137,1.01801-.88519,2.82135-2.03168,5.2196-1.98346,.13129,.51971,.53247,.92822,1.04681,1.07288-.03888,1.19427-.42255,3.12909-2.05573,5.1731-.16913-.06537-.34845-.11115-.54126-.11115-.62,0-1.15002,.37-1.37,.90997-1.22998-.22998-2.28998-.97998-2.92999-2.01001-.36004,.11455-.81291,.12589-1.12,.06,.76996,1.55005,2.23999,2.67004,3.98999,2.96002,.16998,.62,.75,1.08002,1.42999,1.08002,.78998,0,1.42999-.60004,1.48999-1.38,2.62027-1.00982,4.02342-3.85866,3.35004-6.42999Zm-9.34003,1.81h-1v-1h1v1Zm7-4h1v1h-1v-1Zm-2,9h-1v-1h1v1Z"/><path fill="none" d="M0 0h24v24H0z"/></svg>