<?xml version="1.0" encoding="UTF-8"?><svg id="icons" xmlns="http://www.w3.org/2000/svg" viewBox="0 0 16 16"><path d="M16,5c0-1.10303-.89697-2-2-2-.6015,0-1.13531,.27228-1.50226,.69373l-2.54584-1.26727c.03009-.1377,.0481-.27985,.0481-.42645,0-1.10303-.89697-2-2-2s-2,.89697-2,2c0,.37164,.10852,.71564,.28577,1.0141l-2.27826,2.26807c-.297-.17487-.63855-.28217-1.00751-.28217-1.10303,0-2,.89697-2,2,0,1.04034,.80072,1.88745,1.81689,1.98151l.36945,2.19537c-.69757,.31262-1.18634,1.01038-1.18634,1.82312,0,1.10303,.89697,2,2,2,.84265,0,1.56152-.52509,1.85559-1.26398l4.17041,.5213c.12775,.98053,.95911,1.74268,1.974,1.74268,1.10303,0,2-.89697,2-2,0-.77515-.44751-1.44092-1.09369-1.77277l1.1629-5.23425c1.07037-.03741,1.93079-.91364,1.93079-1.99298Zm-3,8.5v1c0,.27612-.22388,.5-.5,.5h-1c-.27612,0-.5-.22388-.5-.5v-1c0-.27618,.22388-.5,.5-.5h1c.27612,0,.5,.22382,.5,.5Zm-8,0c0,.27612-.22388,.5-.5,.5h-1c-.27612,0-.5-.22388-.5-.5v-1c0-.27618,.22388-.5,.5-.5h1c.27612,0,.5,.22382,.5,.5v1ZM2,7.5v-1c0-.27618,.22388-.5,.5-.5h1c.27612,0,.5,.22382,.5,.5v1c0,.27612-.22388,.5-.5,.5h-1c-.27612,0-.5-.22388-.5-.5ZM7,1.5c0-.27618,.22388-.5,.5-.5h1c.27612,0,.5,.22382,.5,.5v1c0,.27612-.22388,.5-.5,.5h-1c-.27612,0-.5-.22388-.5-.5V1.5Zm.8219,2.48199l.36646,2.19379c-.4505,.20123-.81219,.56311-1.01318,1.01373l-2.19293-.36493c-.02692-.30365-.11884-.58649-.2666-.83612l2.27942-2.26923c.24731,.14514,.52686,.23578,.82684,.26276Zm2.1781,3.51801v1c0,.27612-.22388,.5-.5,.5h-1c-.27612,0-.5-.22388-.5-.5v-1c0-.27618,.22388-.5,.5-.5h1c.27612,0,.5,.22382,.5,.5Zm-5.1759,.31189l2.19379,.36511c.0274,.30609,.12067,.59137,.27075,.84235l-2.27539,2.26599c-.25055-.14862-.53467-.24103-.83972-.26782l-.36823-2.18982c.45306-.20044,.81671-.56366,1.0188-1.01581Zm.89258,4.17847l2.27368-2.27368c.29742,.1756,.63983,.28333,1.00964,.28333,.14905,0,.29315-.0191,.43298-.05017l1.26288,2.54614c-.23993,.20837-.43207,.46808-.55145,.76807l-4.17041-.52136c-.03546-.27216-.1236-.52576-.25732-.75232Zm5.86517,.05518l-1.27277-2.54559c.41986-.36688,.69092-.89972,.69092-1.49994,0-.19666-.03729-.383-.09045-.56268l1.68921-1.01349c.14429,.14197,.31348,.25586,.49518,.34912l-1.16345,5.23407c-.11877,.00415-.23596,.0144-.34863,.03851Zm1.41815-7.54553c0-.27618,.22388-.5,.5-.5h1c.27612,0,.5,.22382,.5,.5v1c0,.27612-.22388,.5-.5,.5h-1c-.27612,0-.5-.22388-.5-.5v-1Zm-.95544,.08508c-.02838,.13403-.04456,.27252-.04456,.41492,0,.19666,.03735,.383,.09045,.56262l-1.68921,1.01355c-.32129-.31622-.75061-.51617-1.22534-.55841l-.36621-2.19244c.26514-.11804,.49542-.29474,.68488-.50977l2.54999,1.26953Z"/><path fill="none" d="M0 0h16v16H0z"/></svg>