<?xml version="1.0" encoding="UTF-8"?><svg id="icons" xmlns="http://www.w3.org/2000/svg" viewBox="0 0 16 16"><path d="M6,10H1V3H14v3.93463l.19434,.09711c.1001-.021,.20215-.03174,.30566-.03174h.5V1c0-.55273-.44733-1-1-1H1C.44727,0,0,.44727,0,1V10c0,.55267,.44727,1,1,1H6.0899c-.05597-.15704-.0899-.32404-.0899-.5v-.5ZM1,1H14v1H1V1ZM10,5h-1v-1h1v1Zm3,0h-2v-1h2v1Zm-6,3s-.70081,.41925-.9079,1H2V4h1v4h1V4h1v4h1v-3h1v3Zm7.16376,.13477l-2.16376-1.08167v-.5531c0-.27618-.22388-.5-.5-.5h-1c-.27612,0-.5,.22382-.5,.5v.93445l-1.5658,1.56555h-.9342c-.27612,0-.5,.22382-.5,.5v1c0,.27612,.22388,.5,.5,.5h.33783l.50769,2.03119c-.19928,.0658-.34552,.24744-.34552,.46881v1c0,.27612,.22388,.5,.5,.5h1c.23926,0,.42981-.17157,.479-.39606l3.021,.60431v.29175c0,.27612,.22388,.5,.5,.5h1c.27612,0,.5-.22388,.5-.5v-1c0-.25134-.18854-.45062-.43005-.4859l.66913-4.0141h.26093c.27612,0,.5-.22388,.5-.5v-1c0-.27618-.22388-.5-.5-.5h-1c-.13055,0-.24719,.05286-.33624,.13477Zm-5.00146,4.86523l-.50793-2.03119c.15002-.04956,.26489-.16443,.31445-.31445l2.03119,.50818v.27155l-1.56592,1.56592h-.27179Zm1.40326-5h.27209l.50775,2.03119c-.1499,.0495-.26465,.16437-.31415,.31421l-2.03125-.50751v-.27209l1.56555-1.5658Zm1.27087-.13489l2.16357,1.08209v.24097l-1.28827,.86267c-.06482-.0307-.13525-.05084-.21173-.05084h-.33765l-.50781-2.03119c.06824-.02252,.13019-.05615,.18188-.1037Zm-1.83643,5.69806l1.55725-1.56317h.49548l1.08197,2.16394c-.05872,.06378-.09442,.14423-.11371,.23199l-3.021-.60406v-.2287Zm2.8653-1.72705c.08191-.08899,.1347-.20563,.1347-.33612v-.68585l1.29285-.86188c.04236,.01941,.08942,.02655,.13708,.03357l-.62231,3.7348-.94232-1.88452Z"/><path fill="none" d="M0 0h16v16H0z"/></svg>