<svg id="icons" xmlns="http://www.w3.org/2000/svg" viewBox="0 0 24 24"><path d="M9.00012,6,9,6.00006V6ZM3.5,12A2.50263,2.50263,0,0,1,1,9.5a2.46742,2.46742,0,0,1,.1015-.666.98547.98547,0,0,0,.57038.20159.99321.99321,0,0,0,.33435-.06652C2.00586,8.98,2,8.98907,2,9v1a1,1,0,0,0,1,1H4a1,1,0,0,0,1-1,.9864.9864,0,0,0,.96637-.83313A2.45827,2.45827,0,0,1,6,9.5c0,.01447-.004.02783-.00427.0423l4.22607.93933A2.501,2.501,0,0,1,11.70154,9.1427l-.39533-3.16229A2.47324,2.47324,0,0,1,9.907,5.41064.98672.98672,0,0,0,10,5V4a1,1,0,0,0,1,1h1a1,1,0,0,0,1-1V3a1,1,0,0,0-1-1H11a1,1,0,0,0-1,1V4a.99442.99442,0,0,0-.9505-.99,2.49821,2.49821,0,1,1,4.88922,1.02673l4.532,2.014A2.494,2.494,0,1,1,20.5,10c-.0213,0-.041-.00574-.06219-.00629l-1.90119,8.239a2.49561,2.49561,0,1,1-3.52734,2.35882l-7.18189-1.197A2.49613,2.49613,0,1,1,4.48163,16.2218l-.93891-4.22613C3.52814,11.99591,3.51465,12,3.5,12ZM7,19V18a1,1,0,0,0-1-1H5a1,1,0,0,0-1,1v1a1,1,0,0,0,1,1H6A1,1,0,0,0,7,19Zm.58356-1.87653A2.483,2.483,0,0,1,7.99072,18.408l7.18189,1.19733a2.49436,2.49436,0,0,1,.70642-.99292l-2.63275-4.73889a2.4051,2.4051,0,0,1-2.12281-.29ZM18,19H17a1,1,0,0,0-1,1v1a1,1,0,0,0,1,1h1a1,1,0,0,0,1-1V20A1,1,0,0,0,18,19Zm1.46326-9.23175a2.50177,2.50177,0,0,1-.91986-.731L14.9054,10.856a2.41185,2.41185,0,0,1-.78443,2.53155l2.63275,4.73889A2.465,2.465,0,0,1,17.5,18c.02124,0,.04095.00574.06207.00629ZM19,7V8a1,1,0,0,0,1,1h1a1,1,0,0,0,1-1V7a1,1,0,0,0-1-1H20A1,1,0,0,0,19,7ZM12.29846,5.8573l.39527,3.16229a2.48293,2.48293,0,0,1,1.76306.9433l3.63775-1.81915a2.30171,2.30171,0,0,1-.03332-1.18036L13.52942,4.9491A2.49919,2.49919,0,0,1,12.29846,5.8573ZM11,11v1a1,1,0,0,0,1,1h1a1,1,0,0,0,1-1V11a1,1,0,0,0-1-1H12A1,1,0,0,0,11,11Zm-6.48181.77832.93939,4.226C5.47205,16.004,5.48547,16,5.5,16a2.48323,2.48323,0,0,1,1.37653.41644l3.53991-3.53991A2.48367,2.48367,0,0,1,10,11.5c0-.01453.004-.028.00427-.04248l-4.22619-.939A2.50868,2.50868,0,0,1,4.51819,11.77832ZM1.67157,8.03552.96448,7.32843,2.41577,5.87714A2.48313,2.48313,0,0,1,2.05042,5H0V4H2.05042a2.48313,2.48313,0,0,1,.36535-.87714L.96448,1.67157,1.67157.96448,3.12286,2.41571A2.483,2.483,0,0,1,4,2.05042V0H5V2.05042a2.483,2.483,0,0,1,.87714.36529L7.32843.96448l.70709.70709L6.58423,3.12286A2.48313,2.48313,0,0,1,6.94958,4H9V5H6.94958a2.48313,2.48313,0,0,1-.36535.87714L8.03552,7.32843l-.70709.70709L5.87714,6.58423A2.482,2.482,0,0,1,5,6.94958V9H4V6.94958a2.482,2.482,0,0,1-.87714-.36535ZM3,4.5A1.5,1.5,0,1,0,4.5,3,1.502,1.502,0,0,0,3,4.5Z"/><path fill="none" d="M0 0h24v24H0z"/></svg>