<svg id="icons" xmlns="http://www.w3.org/2000/svg" viewBox="0 0 24 24"><path d="M11.79541,2.20312c.06824-.00042.13635-.00292.20459-.00292,4.96924,0,10,1.1333,10,3.2998V14h-.5a1.50031,1.50031,0,0,0-.306.0318l-.194-.097V12.01819a6.23691,6.23691,0,0,1-1.26459.64386,1.48639,1.48639,0,0,0-1.18731-.65729C20.11859,11.54645,21,10.96991,21,10.5V7.01819c-1.70831,1.173-5.36615,1.78161-9,1.78161-.14758,0-.29492-.00427-.44244-.00628l-.29047-.65192.92725-.34479C17.57452,7.76459,21,6.42621,21,5.5c0-.9375-3.50586-2.2998-9-2.2998-.16882,0-.32977.00512-.49481.00762l.21356-.46661A.99109.99109,0,0,0,11.79541,2.20312ZM14,20.73419c-.631.04242-1.29828.06561-2,.06561-5.57617,0-9-1.45605-9-2.5V12.01819a6.75319,6.75319,0,0,0,1.58679.7644.9916.9916,0,0,1-.32556-.434l-.34918-.93817c-.05872-.03076-.11237-.06171-.16559-.09259l-.98572.44092A.96727.96727,0,0,1,2,11.77625V18.2998c0,2.27344,5.15234,3.5,10,3.5.67365,0,1.35217-.02612,2.02295-.073A1.48717,1.48717,0,0,1,14,21.5ZM7.7066,12.48871A.99046.99046,0,0,1,6.84766,13H5.278A25.89034,25.89034,0,0,0,12,13.7998a30.65551,30.65551,0,0,0,4-.25762V13.5a1.49174,1.49174,0,0,1,.41406-1.029A28.11924,28.11924,0,0,1,12,12.7998,28.25285,28.25285,0,0,1,7.7066,12.48871ZM6,8A2,2,0,1,1,8,6,2,2,0,0,1,6,8ZM5,6A1,1,0,1,0,6,5,1,1,0,0,0,5,6ZM1.18591,9.6795,1.8952,8.13715,1.65967,7.4837,0,6.84772V5.19812l1.58636-.59021.29511-.62781L1.15381,2.35254,2.32043,1.18585l1.54242.70935.65345-.23553L5.15228,0h1.6496l.59021,1.58636.62775.296,1.624-.724L10.80951,2.325,10.1048,3.86279l.23553.65345L12,5.15228v1.6496l-1.58636.59021-.296.62775.724,1.624-1.162,1.17029-1.54242-.70935-.65345.23553L6.84772,12H5.19812l-.59021-1.58636-.62775-.29511-1.62762.72766Zm1.24152-2.816.4339,1.20569L2.27118,9.35162l.41119.41126L4.08276,9.136l1.16028.5448L5.7337,11h.58149l.54827-1.42749,1.20569-.4339,1.28076.58844.41034-.413L9.1369,7.91547,9.68079,6.7569,11,6.2663V5.68481L9.57257,5.13654l-.4339-1.204.58582-1.27985-.41211-.41125L7.91547,2.8631,6.757,2.31915,6.2663,1H5.68481L5.13654,2.42743l-1.20569.4339L2.64832,2.27118l-.4112.41119L2.864,4.08276,2.31921,5.243,1,5.7337v.58149ZM23,15.5v1a.5.5,0,0,1-.5.5h-.26093L21.57,21.0141A.49387.49387,0,0,1,22,21.5v1a.5.5,0,0,1-.5.5h-1a.5.5,0,0,1-.5-.5v-.29175l-3.021-.60431A.49294.49294,0,0,1,16.5,22h-1a.5.5,0,0,1-.5-.5v-1a.49471.49471,0,0,1,.34552-.46881L14.83783,18H14.5a.5.5,0,0,1-.5-.5v-1a.5.5,0,0,1,.5-.5h.9342L17,14.43445V13.5a.5.5,0,0,1,.5-.5h1a.5.5,0,0,1,.5.5v.5531l2.16376,1.08167A.49522.49522,0,0,1,21.5,15h1A.5.5,0,0,1,23,15.5Zm-7,1.0658v.27209l2.03125.50751a.49022.49022,0,0,1,.31415-.31421L17.83765,15h-.2721Zm2.65454-1.597L19.16235,17H19.5a.49121.49121,0,0,1,.21173.05084L21,16.18817v-.241l-2.16357-1.08209A.49371.49371,0,0,1,18.65454,14.96881Zm2.63831,1.98346L20,17.81415V18.5a.4949.4949,0,0,1-.1347.33612l.94232,1.88452.62231-3.7348A.50172.50172,0,0,1,21.29285,16.95227Zm-5.63849,1.01654L16.16229,20h.27179L18,18.43408v-.27154l-2.03119-.50818A.49062.49062,0,0,1,15.65436,17.96881ZM20.021,21.39594a.49264.49264,0,0,1,.1137-.232L19.05273,19h-.49548L17,20.56317v.2287Z"/><path fill="none" d="M0 0h24v24H0z"/></svg>