<?xml version="1.0" encoding="UTF-8"?><svg id="icons" xmlns="http://www.w3.org/2000/svg" viewBox="0 0 24 24"><defs><style>.cls-1{fill:none;}.cls-1,.cls-2{stroke-width:0px;}</style></defs><rect class="cls-1" x="0" width="24" height="24"/><path class="cls-2" d="M3,17.5791v-6.24854c1.64313,1.09882,5.08203,1.66943,8.5,1.66943.47302,0,.94513-.01349,1.41412-.03522l.99829-.96478c-.75012.06567-1.55273.07196-2.41241.07196-5.18848,0-8.5-1.34637-8.5-2.2243v-3.43622c1.64313,1.04572,5.08203,1.58856,8.5,1.58856s6.85687-.54285,8.5-1.58856v3.43622c0,.29773-.29413.64899-1,.9837,0,.22961-.01447.26996,0,.41132l.55005.33789c.15509-.08179.31732-.16132.44995-.25v.51996l.24915.14948h.75085v-7c0-1.96973-4.7793-3-9.5-3S2,3.03027,2,5v12.5791c0,2.11682,4.44794,3.32874,9,3.41205v-.91095c-4.96637-.09424-8-1.55536-8-2.5011ZM11.5,2.92798c5.5,0,8.5,1.39331,8.5,2.07202s-3,2.06299-8.5,2.06299S3,5.67871,3,5s3-2.07202,8.5-2.07202ZM23,14.5c0-.82715-.67285-1.5-1.5-1.5-.36163,0-.68927.13385-.94855.34772l-2.5816-1.54926c.01959-.0965.03015-.19623.03015-.29846,0-.82715-.67285-1.5-1.5-1.5s-1.5.67285-1.5,1.5c0,.2309.05676.44708.15033.64264l-2.00769,2.00769c-.19556-.09357-.41174-.15033-.64264-.15033-.82715,0-1.5.67285-1.5,1.5,0,.75372.56049,1.37317,1.28558,1.47833l.44794,2.23932c-.43726.26239-.73352.73633-.73352,1.28235,0,.82715.67285,1.5,1.5,1.5.57538,0,1.07019-.32928,1.32172-.80585l4.20807.60083c.13751.68628.74408,1.20502,1.47021,1.20502.82715,0,1.49103-.67285,1.49103-1.5,0-.57562-.3205-1.07062-.79742-1.32202l.60138-4.20782c.68628-.13751,1.20502-.74402,1.20502-1.47015ZM17.44836,12.65247l2.58185,1.54877c-.01959.09662-.03021.19647-.03021.29877,0,.06226.01099.12152.01837.18176l-1.48004.73999c-.2207-.21259-.50653-.35413-.82391-.40009l-.44806-2.2392c.06439-.03864.12433-.08246.18201-.13ZM18,16v1h-1v-1h1ZM16,11h1v1h-1v-1ZM15.85736,12.84967c.13348.06384.27692.10669.42853.12866l.44781,2.23914c-.21234.12732-.38892.30389-.51624.51624l-2.23914-.44781c-.02197-.15161-.06482-.29504-.12866-.42853l2.00769-2.00769ZM12,16v-1h1v1h-1ZM14,21h-1v-1h1v1ZM14.14832,19.15338c-.13501-.06531-.28027-.10944-.43396-.13171l-.44775-2.23932c.21216-.12732.38867-.30383.51593-.51605l2.23914.44781c.02295.15826.06958.30731.13794.44562l-2.01129,1.99365ZM19.1781,20.80621l-4.20795-.60156c-.0246-.12262-.06787-.23737-.12048-.34729l2.00769-2.00769c.19556.09357.41174.15033.64264.15033.11017,0,.21698-.01361.32043-.03625l1.5321,2.58185c-.06702.08044-.12524.16724-.17444.26062ZM18.65228,17.44861c.21393-.25928.34772-.58698.34772-.94861,0-.06226-.01099-.12152-.01837-.18176l1.48004-.73999c.1015.09772.21869.17731.34442.24359l-.60077,4.20795c-.0014.00024-.00287.00012-.00427.00043l-1.54877-2.5816ZM21,22h-1v-1h1v1ZM21,15v-1h1v1h-1Z"/></svg>