<svg id="icons" xmlns="http://www.w3.org/2000/svg" viewBox="0 0 24 24"><path d="M19.5,12.00635l2.83984,2.62646-.67968.73438L20,13.83124v9.16827H19V13.83124l-1.66016,1.536-.67968-.73438ZM15,17a1.99546,1.99546,0,0,1-3.97125.28406l-5.16522-.57373A1.99671,1.99671,0,1,1,3.264,14.14447L2.74261,9.97394A1.99482,1.99482,0,1,1,4.16309,6.37976L7.19733,3.85114A1.97748,1.97748,0,0,1,7,3a2,2,0,0,1,4,0,1.97491,1.97491,0,0,1-.078.52258L14.56952,5.607A1.99863,1.99863,0,1,1,16,9c-.026,0-.05011-.00671-.07587-.00769l-1.89087,6.304A1.99411,1.99411,0,0,1,15,17Zm-1-.5a.5.5,0,0,0-.5-.5h-1a.5.5,0,0,0-.5.5v1a.5.5,0,0,0,.5.5h1a.5.5,0,0,0,.5-.5Zm-9-1a.5.5,0,0,0-.5-.5h-1a.5.5,0,0,0-.5.5v1a.5.5,0,0,0,.5.5h1a.5.5,0,0,0,.5-.5ZM2.5,9h1A.5.5,0,0,0,4,8.5v-1A.5.5,0,0,0,3.5,7h-1a.5.5,0,0,0-.5.5v1A.5.5,0,0,0,2.5,9ZM8,3.5a.5.5,0,0,0,.5.5h1a.5.5,0,0,0,.5-.5v-1A.5.5,0,0,0,9.5,2h-1a.5.5,0,0,0-.5.5ZM7.837,4.6203,4.80261,7.14874A1.977,1.977,0,0,1,5,8c0,.017-.00458.03278-.005.04968l3.289.9397a2.0044,2.0044,0,0,1,.94714-.83472L8.77728,4.97748A1.98211,1.98211,0,0,1,7.837,4.6203ZM10.5,9h-1a.5.5,0,0,0-.5.5v1a.5.5,0,0,0,.5.5h1a.5.5,0,0,0,.5-.5v-1A.5.5,0,0,0,10.5,9Zm-6.764.85553L4.25726,14.026a1.97606,1.97606,0,0,1,.75751.26025l3.27826-3.259A1.97893,1.97893,0,0,1,8,10c0-.017.00458-.03278.005-.04968l-3.289-.9397A2.00154,2.00154,0,0,1,3.736,9.85553Zm2.23523,5.86023,5.16516.5741a1.99859,1.99859,0,0,1,.64814-.86689l-1.47144-3.45465a1.84,1.84,0,0,1-1.32263-.25177L5.71661,14.99042A1.97439,1.97439,0,0,1,5.97125,15.71576ZM14.967,8.70386a1.99964,1.99964,0,0,1-.46686-.39484L11.95447,9.58185a1.97073,1.97073,0,0,1-.73584,1.99255L12.7,15.03033A1.97687,1.97687,0,0,1,13,15c.02588,0,.04987.00665.0755.00763ZM15,6.5v1a.5.5,0,0,0,.5.5h1a.5.5,0,0,0,.5-.5v-1a.5.5,0,0,0-.5-.5h-1A.5.5,0,0,0,15,6.5ZM10.43042,4.39307a2.00362,2.00362,0,0,1-.66168.45227l.45367,3.17718a1.98454,1.98454,0,0,1,1.27741.66846l2.54571-1.27283A1.99652,1.99652,0,0,1,14,7a1.97294,1.97294,0,0,1,.07806-.52264Z"/><path fill="none" d="M0 0h24v24H0z"/></svg>