<?xml version="1.0" encoding="UTF-8"?><svg id="icons" xmlns="http://www.w3.org/2000/svg" viewBox="0 0 16 16"><path d="M8.0791,10.79169l-4.10895-.58667c-.0246-.12274-.06787-.23767-.12048-.34766l2.00769-2.00769c.19556,.09357,.41174,.15033,.64264,.15033,.11011,0,.2168-.01355,.32019-.03619l1.37152,2.31128c.09888-.26587,.24933-.51135,.45624-.71747l.1687-.1687-1.16418-1.94055c.21375-.25928,.34753-.58685,.34753-.94836,0-.06226-.01099-.12152-.01837-.18176l1.48004-.73999c.1015,.09772,.21869,.17731,.34442,.24359l-.42932,3.00696,1.1781-1.1781,.24017-1.68054c.68628-.13751,1.20496-.74402,1.20496-1.47015,0-.82715-.67285-1.5-1.5-1.5-.36163,0-.68933,.13385-.94867,.34778l-2.58154-1.54895c.01959-.09662,.03021-.19653,.03021-.29883,0-.82715-.67285-1.5-1.5-1.5s-1.5,.67285-1.5,1.5c0,.23096,.05676,.4472,.15039,.64282l-2.00787,2.00739c-.1955-.09351-.41168-.15021-.64252-.15021-.82715,0-1.5,.67285-1.5,1.5,0,.75378,.56061,1.37329,1.28564,1.47833l.44794,2.23926c-.43726,.26233-.73358,.73633-.73358,1.28241,0,.82715,.67285,1.5,1.5,1.5,.5755,0,1.07037-.32928,1.32184-.80609l4.4397,.63446c-.12653-.2652-.20001-.55414-.20001-.85669,0-.06116,.01221-.11987,.01758-.17999Zm-6.0791,.20831v-1h1v1h-1ZM1,5h1v1H1v-1ZM6,1v1h-1V1h1Zm5,3v1h-1v-1h1Zm-1.98163,.68176l-1.48004,.73999c-.2207-.21259-.50647-.35406-.82385-.40009l-.448-2.23926c.06451-.0387,.12439-.08252,.18213-.13019l2.5816,1.54895c-.01959,.09662-.03021,.19647-.03021,.29883,0,.06226,.01099,.12152,.01837,.18176Zm-2.01837,2.31824h-1v-1h1v1Zm-1.71417-4.02167l.44781,2.2392c-.21228,.12732-.38885,.30389-.51617,.51617l-2.23914-.44781c-.02197-.15155-.06476-.29498-.12854-.42841l2.00739-2.00787c.13348,.0639,.27704,.10675,.42865,.12872Zm-2.5033,3.28796l2.23914,.44781c.02295,.15826,.06958,.30731,.13794,.44562l-2.01129,1.99365c-.13501-.06537-.28033-.10944-.43408-.13171l-.44775-2.23926c.21222-.12732,.38879-.30389,.51605-.51611Zm9.73505,1.5423l2.80859,2.80908-.70703,.70703-1.61914-1.61951v6.2948h-1v-6.25989l-1.58496,1.58459-.70703-.70703,2.80957-2.80908Z"/><path fill="none" d="M0 0h16v16H0z"/></svg>