<?xml version="1.0" encoding="UTF-8"?><svg id="icons" xmlns="http://www.w3.org/2000/svg" viewBox="0 0 16 16"><path d="M7.31055,1.25562c3.71405-.12885,7.68945,.78558,7.68945,2.74438v4h-.5c-.17261,0-.33588,.03522-.4903,.08911l-.0827-.02759c-.06055-.19629-.17029-.36572-.29919-.51898,.23511-.18695,.37219-.37372,.37219-.54254v-1.48901c-1.29138,.84924-3.65326,1.28882-6,1.28882-.46344,0-.927-.01837-1.38354-.05231l.41919-.41888c.1499-.15033,.22943-.34735,.26245-.55414,.0932,.00366,.18536,.00787,.28058,.01013,.14294,.00336,.27399,.0152,.42133,.0152,3.6626,0,6-1.06592,6-1.7998s-2.3374-1.7998-6-1.7998c-.14215,0-.26849,.01154-.40662,.01465-.14087-.10669-.30078-.18933-.48596-.20898,.17511-.21692,.23584-.48798,.20312-.75024Zm1.68945,12.50519c-.3244,.01947-.64935,.039-1,.039-3.71729,0-6-1.16504-6-2v-3.28882c1.29138,.84924,3.65326,1.28882,6,1.28882,.06116,0,.12213-.00256,.18329-.00317,.25311-.47156,.74506-.79663,1.31671-.79663h.37866l.12134-.12134v-.20306c-.61487,.07312-1.27271,.12421-2,.12421-2.11444,0-3.76617-.35828-4.80255-.7998h-.19745c-.51611,0-.94092-.39111-.99414-.89307-.18262,.14746-.40527,.22119-.62744,.22119-.12878,0-.25732-.02521-.37842-.07471v4.54639c0,1.94873,3.60645,3,7,3,.34155,0,.68481-.01355,1.02679-.03467-.0155-.08636-.02679-.17432-.02679-.26514v-.7392ZM1.04901,5.2439c.20221-.20221,.26123-.50739,.14899-.77045-.00525-.01239-.0105-.02484-.01556-.03735-.10748-.26373-.36407-.43616-.64886-.43616H0v-1H.53357c.28473,0,.54144-.17255,.64886-.43622,.00507-.01251,.01031-.02496,.01556-.03735,.11224-.26306,.05316-.56812-.14905-.77039l-.37738-.37738,.70709-.70703,.37738,.37744c.20227,.20221,.50745,.26123,.77051,.14899,.01239-.00531,.02484-.0105,.03735-.01556,.26367-.10748,.4361-.36407,.4361-.64886V-.00006h1V.53363c0,.28467,.17249,.54132,.43616,.6488,.01251,.00507,.0249,.01031,.03729,.01556,.26312,.1123,.56824,.05322,.77051-.14899l.37738-.37744,.70709,.70703-.37738,.37738c-.20221,.20221-.26129,.50739-.14905,.77039,.00531,.01239,.0105,.02484,.01556,.03735,.10748,.26379,.36407,.43622,.64886,.43622h.53357v1h-.53357c-.28473,0-.54144,.17255-.64886,.43616-.00513,.01251-.01031,.02496-.01556,.03741-.1123,.26306-.05322,.56812,.14899,.77039l.37744,.37738-.70709,.70703-.37744-.37738c-.20221-.20221-.50732-.26129-.77039-.14905-.01239,.00531-.02484,.0105-.03735,.01562-.26367,.10748-.43616,.36407-.43616,.6488v.53363h-1v-.53363c0-.28473-.17249-.54132-.43616-.6488-.01251-.00513-.0249-.01031-.03729-.01556-.26312-.1123-.56824-.05328-.77051,.14899l-.37738,.37738-.70709-.70703,.37744-.37738Zm1.03717-3.15778c.06439,.2572,.04565,.53351-.06354,.79028-.11011,.27063-.29504,.48431-.52264,.62268,.22583,.1358,.40778,.3429,.51263,.59967,.11487,.27112,.13617,.55438,.0722,.81549,.0979-.02435,.19934-.03699,.30292-.03699,.16925,0,.33417,.03394,.48999,.10052,.26978,.11011,.48303,.29462,.6214,.52216,.13574-.22583,.3429-.40771,.59961-.51257,.18018-.07617,.34467-.10968,.51349-.10968,.10272,0,.20367,.01221,.30115,.03613-.06396-.2572-.04523-.53394,.06396-.79028,.11011-.27063,.29504-.48431,.52264-.62268-.22583-.1358-.40778-.34296-.51263-.59967-.11487-.27112-.13574-.55481-.0722-.81549-.0979,.02435-.19934,.03699-.30292,.03699-.16925,0-.33417-.03394-.48999-.10052-.26978-.11011-.48303-.29462-.6214-.52222-.13574,.22589-.3429,.40778-.59961,.51263-.18018,.07617-.34467,.10968-.51349,.10968-.10315,0-.2041-.01221-.30157-.03613Zm.41382,1.41382c0,.55231,.44769,1,1,1s1-.44769,1-1c0-.55225-.44769-1-1-1s-1,.44775-1,1Zm13.5,6.00006v1c0,.27612-.22388,.5-.5,.5v3c.27612,0,.5,.22382,.5,.5v1c0,.27612-.22388,.5-.5,.5h-1c-.27612,0-.5-.22388-.5-.5v-.23431l-2.07471-.51855c-.08673,.14838-.24103,.25287-.42529,.25287h-1c-.27612,0-.5-.22388-.5-.5v-1c0-.15289,.07239-.28485,.18048-.37653l-.37451-1.12347h-.30597c-.27612,0-.5-.22388-.5-.5v-1c0-.27618,.22388-.5,.5-.5h.79279l.70721-.70734v-.79266c0-.27618,.22388-.5,.5-.5h1c.27612,0,.5,.22382,.5,.5v.30621l1.12335,.37451c.09174-.10822,.22369-.18073,.37665-.18073h1c.27612,0,.5,.22382,.5,.5Zm-2,.69373l-1.12335-.37439c-.01788,.02106-.03638,.03949-.0575,.05737l.37451,1.12329h.0993l.70703-.70703v-.09924Zm-3,.51343v.09882l1.12354,.37451c.01782-.02106,.03632-.03943,.05737-.05725l-.37445-1.12323h-.09906l-.7074,.70715Zm-.18048,1.16931l.37451,1.12354h.09894l.70703-.70703v-.09894l-1.12347-.37451c-.01776,.02094-.03607,.03925-.05701,.05695Zm3.05566,2.32666l-.79382-1.20312h-.37433l-.70703,.70703v.02716l1.87518,.46893Zm.62482-.85449v-2.1416l-.5,.5v.79297c0,.02686-.01117,.04999-.01526,.07568l.51526,.77295Z"/><path fill="none" d="M0 0h16v16H0z"/></svg>