<svg id="icons" xmlns="http://www.w3.org/2000/svg" viewBox="0 0 24 24"><path opacity="0.5" d="M6,9.5A2.5,2.5,0,1,0,3.5,12,2.50263,2.50263,0,0,0,6,9.5ZM2,10V9A1,1,0,0,1,3,8H4A1,1,0,0,1,5,9v1a1,1,0,0,1-1,1H3A1,1,0,0,1,2,10ZM12.5,9A2.5,2.5,0,1,0,15,11.5,2.50263,2.50263,0,0,0,12.5,9ZM14,12a1,1,0,0,1-1,1H12a1,1,0,0,1-1-1V11a1,1,0,0,1,1-1h1a1,1,0,0,1,1,1Zm0-8.5A2.5,2.5,0,1,0,11.5,6,2.50263,2.50263,0,0,0,14,3.5ZM10,4V3a1,1,0,0,1,1-1h1a1,1,0,0,1,1,1V4a1,1,0,0,1-1,1H11A1,1,0,0,1,10,4ZM20.5,5a2.5,2.5,0,1,0,2.49,2.5A2.50263,2.50263,0,0,0,20.5,5ZM22,8a1,1,0,0,1-1,1H20a1,1,0,0,1-1-1V7a1,1,0,0,1,1-1h1a1,1,0,0,1,1,1ZM5.5,16A2.5,2.5,0,1,0,8,18.5,2.50263,2.50263,0,0,0,5.5,16ZM7,19a1,1,0,0,1-1,1H5a1,1,0,0,1-1-1V18a1,1,0,0,1,1-1H6a1,1,0,0,1,1,1Zm10.5-1a2.5,2.5,0,1,0,2.49,2.5A2.50263,2.50263,0,0,0,17.5,18ZM19,21a1,1,0,0,1-1,1H17a1,1,0,0,1-1-1V20a1,1,0,0,1,1-1h1a1,1,0,0,1,1,1Z"/><path d="M17.88135,21.07031,21.08008,7.21045l-9.645-4.28662L2.94189,9.29346,5.085,18.9375Zm-4.69086-9.35669L19.774,8.42206,17.30542,19.12042Zm3.36908,8.12287L6.54071,18.16632l5.84418-5.84418Zm-3.65118-9.09955L12.1059,4.31659l7.22259,3.21008Zm-.99237.12134-7.2461-1.6106,6.44086-4.83087Zm-.4134.93206-5.712,5.712L4.15857,10.15869Z"/><path fill="none" d="M0 0h24v24H0z"/></svg>