<?xml version="1.0" encoding="UTF-8"?><svg id="icons" xmlns="http://www.w3.org/2000/svg" viewBox="0 0 16 16"><path d="M3,3h1v1h-1v-1Zm2,1h1v-1h-1v1Zm2,0h1v-1h-1v1ZM2,6v3H6.5c-.21997,.28998-.37,.63-.45001,1H1V1H15V6H2Zm0-1H14V2H2v3Zm2,2h-1v1h1v-1Zm2,0h-1v1h1v-1Zm2,0h-1v1h1v-1Zm7.95997,3.51996c.02002,.16003,.03003,.32001,.03003,.48004,0,1.88-1.28999,3.45996-3.05,3.88-.15997,.64996-.73999,1.12-1.44,1.12-.83002,0-1.5-.67004-1.5-1.5v-.03003c-.59998-.34998-1.10999-.84998-1.46997-1.46997,.37,0,.71997-.09003,1.03998-.23999,.21997,.29999,.48999,.56,.79999,.75995,.27002-.31995,.67999-.51996,1.13-.51996,.06,0,.12,0,.17999,.01996l1.73999-3.47998c-.03998-.03998-.07001-.07001-.09998-.12l-3.32001,1.09998c-.01001,.82001-.67999,1.48004-1.5,1.48004-.83002,0-1.5-.67004-1.5-1.5,0-.83002,.66998-1.5,1.5-1.5h.03998c.19-.33002,.42004-.63,.70001-.89001,.72003-.69,1.69-1.10999,2.76001-1.10999,.15997,0,.32001,.01001,.47998,.02997-.20996,.28003-.35999,.61005-.42999,.97003-1.53941,0-2.30851,.99237-2.57001,1.37,.08002,.06,.14001,.13,.20001,.20996l3.32001-1.09998c.01001-.82001,.67999-1.47998,1.5-1.47998,.83002,0,1.5,.66998,1.5,1.5,0,.82996-.66998,1.5-1.5,1.5-.06,0-.12,0-.17999-.02002l-1.73999,3.47998c.12,.12,.20996,.26001,.26996,.41003,1.19393-.3466,2.15002-1.45659,2.15002-2.91998,.35999-.07001,.68-.22003,.95997-.43005Zm-1.95997-1.51996h1v-1h-1v1Zm-5,2v-1h-1v1h1Zm3,4v-1h-1v1h1Z"/><path fill="none" d="M0 0h16v16H0z"/></svg>