<?xml version="1.0" encoding="UTF-8"?><svg id="icons" xmlns="http://www.w3.org/2000/svg" viewBox="0 0 16 16"><defs><style>.cls-1{fill:none;}.cls-1,.cls-2{stroke-width:0px;}</style></defs><rect class="cls-1" x="0" width="16" height="16"/><path class="cls-2" d="M15.5,8h-1c-.13055,0-.24719.05286-.33624.13477l-2.16376-1.08167v-.5531c0-.27618-.22388-.5-.5-.5h-1c-.27612,0-.5.22382-.5.5v.93445l-1.5658,1.56555h-.9342c-.27612,0-.5.22382-.5.5v1c0,.27612.22388.5.5.5h.33783l.50769,2.03119c-.19928.0658-.34552.24744-.34552.46881v1c0,.27612.22388.5.5.5h1c.23926,0,.42981-.17157.479-.39606l3.021.60431v.29175c0,.27612.22388.5.5.5h1c.27612,0,.5-.22388.5-.5v-1c0-.25134-.18854-.45062-.43005-.4859l.66913-4.0141h.26093c.27612,0,.5-.22388.5-.5v-1c0-.27618-.22388-.5-.5-.5ZM11.83643,7.86511l2.16357,1.08209v.24097l-1.28827.86267c-.06482-.0307-.13525-.05084-.21173-.05084h-.33765l-.50781-2.03119c.06824-.02252.13019-.05615.18188-.1037ZM9,9.5658l1.56555-1.5658h.27209l.50775,2.03119c-.1499.0495-.26465.16437-.31415.31421l-2.03125-.50751v-.27209ZM9.43408,13h-.27179l-.50793-2.03119c.15002-.04956.26489-.16443.31445-.31445l2.03119.50818v.27155l-1.56592,1.56592ZM13.021,14.39594l-3.021-.60406v-.2287l1.55725-1.56317h.49548l1.08197,2.16394c-.05872.06378-.09442.14423-.11371.23199ZM13.80762,13.72064l-.94232-1.88452c.08191-.08899.1347-.20563.1347-.33612v-.68585l1.29285-.86188c.04236.01941.08942.02655.13708.03357l-.62231,3.7348ZM1,10.47949v-3.57306c1.10126.67175,3.04523,1.07306,5.5,1.07306.56476,0,1.09882-.02356,1.60547-.06445l.89453-.89453v-.13794c-.70044.11102-1.5296.18042-2.5.18042-3.83887,0-5.5-1.07666-5.5-1.5835v-1.57306c1.10126.67175,3.04523,1.09357,5.5,1.09357s4.39874-.42181,5.5-1.09357v1.18481c.42407.15118.76068.48602.91229.90875h.08771v-3.52051c0-1.49512-2.6123-2.47949-6.5-2.47949S0,.98438,0,2.47949v8C0,11.97461,2.6123,12.97949,6.5,12.97949c.17023,0,.33521-.00403.5-.00818v-.91718c-.16516.00671-.3208.01782-.5.01782-3.83887,0-5.5-1.08563-5.5-1.59247ZM6.5.92548c3.83887,0,5.5,1.04718,5.5,1.55402s-1.66113,1.5835-5.5,1.5835S1,2.98633,1,2.47949,2.66113.92548,6.5.92548Z"/></svg>