<?xml version="1.0" encoding="UTF-8"?><svg id="icons" xmlns="http://www.w3.org/2000/svg" viewBox="0 0 32 32"><path opacity=".5" d="M23,30c-1.6543,0-3-1.3457-3-3s1.3457-3,3-3,2.99,1.3457,2.99,3-1.3357,3-2.99,3Zm0-5c-1.10303,0-2,.89697-2,2s.89697,2,2,2,2-.89697,2-2-.89697-2-2-2Zm-15,2c-1.6543,0-3-1.3457-3-3s1.3457-3,3-3,3,1.3457,3,3-1.3457,3-3,3Zm0-5c-1.10303,0-2,.89697-2,2s.89697,2,2,2,2-.89697,2-2-.89697-2-2-2Zm-3-7c-1.6543,0-3-1.3457-3-3s1.3457-3,3-3,3,1.3457,3,3-1.3457,3-3,3Zm0-5c-1.10303,0-2,.89697-2,2s.89697,2,2,2,2-.89697,2-2-.89697-2-2-2Zm11-2c-1.6543,0-3-1.3457-3-3s1.3457-3,3-3,2.99,1.3457,2.99,3-1.3357,3-2.99,3Zm0-5c-1.10303,0-2,.89697-2,2s.89697,2,2,2,2-.89697,2-2-.89697-2-2-2Zm11.00391,11c-1.18066,0-2.30225-.70117-2.77832-1.8584-.62939-1.53027,.10303-3.28662,1.63281-3.91602,1.53174-.62988,3.27711,.10352,3.90602,1.63281,.62939,1.53027-.09303,3.28662-1.62281,3.91602-.37256,.15332-.7583,.22559-1.1377,.22559Zm-.00635-5c-.25342,0-.51025,.04834-.7583,.15039-1.02002,.41943-1.5083,1.59082-1.08887,2.61035,.41943,1.02051,1.59131,1.50635,2.61035,1.08887,1.02002-.41943,1.5083-1.59082,1.08887-2.61035-.31738-.77197-1.06543-1.23926-1.85205-1.23926Zm-9.99756,10c-1.6543,0-3-1.3457-3-3s1.3457-3,3-3,3,1.3457,3,3-1.3457,3-3,3Zm0-5c-1.10303,0-2,.89697-2,2s.89697,2,2,2,2-.89697,2-2-.89697-2-2-2Z"/><path d="M15.98047,4.41992L4.42773,11.77148l3.16406,12.65674,15.77783,3.15576,4.20898-16.83789L15.98047,4.41992Zm1.45154,10.80621l-.84729-9.33777,9.34943,5.09979-8.50214,4.23798Zm-.99841,.06195l-10.34436-3.38855L15.57794,5.86108l.85565,9.427Zm.42828,1.50208l5.19238,9.51062-12.99847-2.59949,7.80609-6.91113Zm.82581-.57428l8.55994-4.26703-3.42047,13.68011-5.13947-9.41309Zm-11.9646-3.38403l10.30994,3.37756-7.75409,6.84528-2.55585-10.22284Z"/><path fill="none" d="M0 0h32v32H0z"/></svg>