<?xml version="1.0" encoding="UTF-8"?><svg id="icons" xmlns="http://www.w3.org/2000/svg" viewBox="0 0 32 32"><path d="M16.30273,3.22021l-.01587-.01575c6.2171,.04486,12.71313,1.54486,12.71313,4.29553v9.5c-.35187,0-.68646,.0675-1,.17981v-1.95404c-.52686,.42352-1.23792,.79761-2.0929,1.1192-.07501-.3349-.20831-.64465-.3844-.92725,1.56165-.5769,2.47729-1.26294,2.47729-1.91772v-4.27423c-2.09015,1.68042-7.15564,2.57404-12,2.57404-.01221,0-.02448-.00055-.03668-.00055l1.47125-.54486c.2644-.09833,.47461-.28339,.61798-.51184,5.81036-.30298,9.94745-1.84497,9.94745-3.24255,0-1.50684-4.80792-3.1814-11.33899-3.28937,.02966-.36084-.09155-.7254-.35828-.99042Zm-.27954,24.57922c-.00787,0-.01532,.00037-.02319,.00037-7.07178,0-12-1.84473-12-3.5v-7.62219c-.26703-.03418-.5257-.13416-.72559-.3324l-.27441-.2724v8.22699c0,2.92285,6.69775,4.5,13,4.5,.04034,0,.08099-.00177,.1214-.00189-.07111-.25574-.1214-.51984-.1214-.79791,0-.06909,.01849-.13269,.02319-.20056Zm-4.3772-11.24908l-.3374,.88666c-.0108,.02838-.03119,.05017-.04382,.07739,1.52771,.1886,3.14374,.2854,4.73523,.2854,1.36426,0,2.74371-.07489,4.07312-.21387-.04156-.19006-.07312-.38348-.07312-.58594,0-.14191,.02271-.27777,.04187-.41449-1.25293,.13464-2.6062,.21429-4.04187,.21429-1.55585,0-3.01581-.09302-4.354-.24945Zm19.354,3.44965c0,1.07935-.86041,1.95557-1.93079,1.99298l-1.1629,5.23425c.64618,.33185,1.09369,.99762,1.09369,1.77277,0,1.10303-.89697,2-2,2-1.01489,0-1.84625-.76215-1.974-1.74268l-4.17041-.5213c-.29407,.73889-1.01294,1.26398-1.85559,1.26398-1.10303,0-2-.89697-2-2,0-.81274,.48877-1.5105,1.18634-1.82312l-.36945-2.19537c-1.01617-.09406-1.81689-.94116-1.81689-1.98151,0-1.10303,.89697-2,2-2,.36896,0,.71051,.1073,1.00751,.28217l2.27826-2.26807c-.17725-.29846-.28577-.64246-.28577-1.0141,0-1.10303,.89697-2,2-2s2,.89697,2,2c0,.14661-.01801,.28876-.0481,.42645l2.54584,1.26727c.36694-.42145,.90076-.69373,1.50226-.69373,1.10303,0,2,.89697,2,2Zm-6.50543-1.68445c-.18945,.21503-.41974,.39172-.68488,.50977l.36621,2.19244c.47473,.04224,.90405,.24219,1.22534,.55841l1.68921-1.01355c-.0531-.17963-.09045-.36597-.09045-.56262,0-.1424,.01617-.28088,.04456-.41492l-2.54999-1.26953Zm.50543,4.18445c0-.27618-.22388-.5-.5-.5h-1c-.27612,0-.5,.22382-.5,.5v1.00079c0,.27612,.22388,.5,.5,.5h1c.27612,0,.5-.22388,.5-.5v-1.00079Zm.69586,4.99597l-1.26288-2.54614c-.13983,.03107-.28394,.05017-.43298,.05017-.36981,0-.71222-.10773-1.00964-.28333l-2.27368,2.27368c.13373,.22656,.22186,.48016,.25732,.75232l4.17041,.52136c.11938-.29999,.31152-.55969,.55145-.76807Zm-5.68262-1.21063l2.27539-2.26599c-.15009-.25098-.24335-.53625-.27075-.84235l-2.19379-.36511c-.20209,.45215-.56573,.81537-1.0188,1.01581l.36823,2.18982c.30505,.02679,.58917,.1192,.83972,.26782Zm-.03101-4.46075l2.19293,.36493c.20099-.45062,.56268-.8125,1.01318-1.01373l-.36646-2.19379c-.29999-.02698-.57953-.11761-.82684-.26276l-2.27942,2.26923c.14777,.24963,.23969,.53247,.2666,.83612Zm2.01776-5.32538v1.00079c0,.27612,.22388,.5,.5,.5h1c.27612,0,.5-.22388,.5-.5v-1.00079c0-.27618-.22388-.5-.5-.5h-1c-.27612,0-.5,.22382-.5,.5Zm-3.5,6.50159c.27612,0,.5-.22388,.5-.5v-1.00079c0-.27618-.22388-.5-.5-.5h-1c-.27612,0-.5,.22382-.5,.5v1.00079c0,.27612,.22388,.5,.5,.5h1Zm1.5,5.5v-1.00079c0-.27618-.22388-.5-.5-.5h-1c-.27612,0-.5,.22382-.5,.5v1.00079c0,.27612,.22388,.5,.5,.5h1c.27612,0,.5-.22388,.5-.5Zm7.5-.50159h-1c-.27612,0-.5,.22382-.5,.5v1.00079c0,.27612,.22388,.5,.5,.5h1c.27612,0,.5-.22388,.5-.5v-1.00079c0-.27618-.22388-.5-.5-.5Zm.59393-6.22626c-.1817-.09326-.35089-.20715-.49518-.34912l-1.68921,1.01349c.05316,.17969,.09045,.36603,.09045,.56268,0,.60022-.27106,1.13306-.69092,1.49994l1.27277,2.54559c.11267-.02411,.22986-.03436,.34863-.03851l1.16345-5.23407Zm1.90607-2.27338c0-.27612-.22388-.5-.5-.5h-1c-.27612,0-.5,.22388-.5,.5v1.00079c0,.27618,.22388,.5,.5,.5h1c.27612,0,.5-.22382,.5-.5v-1.00079ZM2.57861,13.89258l.9494-2.06598-.31842-.84857-2.20154-.83765-.00787-2.22125,2.13025-.78925,.37683-.82581-.96527-2.14905,1.56555-1.57648,2.06604,.94946,.84851-.31848,.83771-2.20148,2.22125-.00787,.78918,2.13025,.82581,.37683,2.14911-.96527,1.57642,1.56555-.9494,2.06598,.31842,.84857,2.20148,.83765,.00793,2.22229-2.13025,.78918-.37683,.82483,.96527,2.14905-1.56561,1.57648-2.06598-.94946-.84851,.31848-.83771,2.20148-2.22223,.00793-.78925-2.13031-.82477-.37677-2.14911,.96521-1.57642-1.56555Zm1.42023-3.65326l.58862,1.60699-.83118,1.80939,.63574,.63116,1.94519-.87329,1.55481,.72174,.69073,1.86389,.89685-.00281,.75867-1.9942,1.60791-.58954,1.80939,.83167,.63116-.63574-.87469-1.948,.72217-1.55157,1.8653-.69214-.00323-.89636-1.99512-.75958-.5882-1.60699,.83124-1.80841-.63623-.63208-1.94519,.87323-1.55524-.72076-.6908-1.86572-.89636,.00366-.75867,1.9942-1.60791,.58954-1.8089-.83167-.63165,.6358,.87421,1.94519-.72125,1.55524-1.86572,.69214,.00323,.89545,1.99512,.75958Zm8.00116-1.23944c0,1.6568-1.34314,2.99988-2.99994,2.99988s-2.99988-1.34308-2.99988-2.99988,1.34314-2.99988,2.99988-2.99988,2.99994,1.34308,2.99994,2.99988Zm-1.00006,0c0-1.10449-.89539-1.99988-1.99988-1.99988s-1.99982,.89539-1.99982,1.99988,.89532,1.99988,1.99982,1.99988,1.99988-.89539,1.99988-1.99988Z"/><path fill="none" d="M0 0h32v32H0z"/></svg>