<svg xmlns="http://www.w3.org/2000/svg" viewBox="0 0 24 24"><path d="M9 20h5v-1h1v1h5V4H9v16zm5-15h1v1h-1V5zm0 2h1v1h-1V7zm0 2h1v1h-1V9zm0 2h1v1h-1v-1zm0 2h1v1h-1v-1zm0 2h1v1h-1v-1zm0 2h1v1h-1v-1z" opacity=".25" stroke-width="0"/><path stroke-width="0" fill="none" d="M0 0h24v24H0z"/><path d="M23 23H1V1h22v22zM2 22h20V2H2v20zm19-1H8V3h13v18zM9 20h11V4H9v16z" stroke-width="0"/><path d="M15 6h-1V5h1v1zm0 2h-1V7h1v1zm0 2h-1V9h1v1zm0 2h-1v-1h1v1zm0 2h-1v-1h1v1zm0 2h-1v-1h1v1zm0 2h-1v-1h1v1zm0 2h-1v-1h1v1z" opacity=".5" stroke-width="0"/></svg>