<?xml version="1.0" encoding="UTF-8"?><svg id="icons" xmlns="http://www.w3.org/2000/svg" viewBox="0 0 16 16"><defs><style>.cls-1{fill:none;}.cls-1,.cls-2,.cls-3,.cls-4{stroke-width:0px;}.cls-2{opacity:.5;}.cls-3{opacity:.25;}</style></defs><path class="cls-3" d="m9,13v-1h1v1h3V3h-7v10h3Zm0-9h1v1h-1v-1Zm0,2h1v1h-1v-1Zm0,2h1v1h-1v-1Zm0,2h1v1h-1v-1Z"/><rect class="cls-1" width="16" height="16"/><path class="cls-4" d="m14,14H5V2h9v12Zm-8-1h7V3h-7v10Zm10,3H0V0h16v16Zm-15-1h14V1H1v14Z"/><path class="cls-2" d="m10,5h-1v-1h1v1Zm0,1h-1v1h1v-1Zm0,2h-1v1h1v-1Zm0,2h-1v1h1v-1Zm0,3h-1v-1h1v1Z"/></svg>