<svg xmlns="http://www.w3.org/2000/svg" viewBox="0 0 32 32"><path d="M13 26h6v-1h1v1h6V6H13v20zm6-19h1v1h-1V7zm0 2h1v1h-1V9zm0 2h1v1h-1v-1zm0 2h1v1h-1v-1zm0 2h1v1h-1v-1zm0 2h1v1h-1v-1zm0 2h1v1h-1v-1zm0 2h1v1h-1v-1zm0 2h1v1h-1v-1z" opacity=".25" stroke-width="0"/><path stroke-width="0" fill="none" d="M0 0h32v32H0z"/><path d="M27 27H12V5h15v22zm-14-1h13V6H13v20zm17 4H2V2h28v28zM3 29h26V3H3v26z" stroke-width="0"/><path d="M20 8h-1V7h1v1zm0 2h-1V9h1v1zm0 2h-1v-1h1v1zm0 2h-1v-1h1v1zm0 2h-1v-1h1v1zm0 2h-1v-1h1v1zm0 2h-1v-1h1v1zm0 2h-1v-1h1v1zm0 2h-1v-1h1v1zm0 2h-1v-1h1v1z" opacity=".5" stroke-width="0"/></svg>