<?xml version="1.0" encoding="UTF-8"?><svg id="icons" xmlns="http://www.w3.org/2000/svg" viewBox="0 0 32 32"><defs><style>.cls-1{fill:none;}.cls-1,.cls-2,.cls-3,.cls-4{stroke-width:0px;}.cls-2{opacity:.5;}.cls-3{opacity:.25;}</style></defs><path class="cls-3" d="m13,26h6v-1h1v1h6V6h-13v20Zm6-19h1v1h-1v-1Zm0,2h1v1h-1v-1Zm0,2h1v1h-1v-1Zm0,2h1v1h-1v-1Zm0,2h1v1h-1v-1Zm0,2h1v1h-1v-1Zm0,2h1v1h-1v-1Zm0,2h1v1h-1v-1Zm0,2h1v1h-1v-1Z"/><rect class="cls-1" width="32" height="32"/><path class="cls-4" d="m27,27h-15V5h15v22Zm-14-1h13V6h-13v20Zm17,4H2V2h28v28Zm-27-1h26V3H3v26Z"/><path class="cls-2" d="m20,8h-1v-1h1v1Zm0,2h-1v-1h1v1Zm0,2h-1v-1h1v1Zm0,2h-1v-1h1v1Zm0,2h-1v-1h1v1Zm0,2h-1v-1h1v1Zm0,2h-1v-1h1v1Zm0,2h-1v-1h1v1Zm0,2h-1v-1h1v1Zm0,2h-1v-1h1v1Z"/></svg>