<svg xmlns="http://www.w3.org/2000/svg" viewBox="0 0 16 16"><path d="M4.47 12.531a5.595 5.595 0 003.33 1.6v.218a11.042 11.042 0 01-7.8-.06l2.133-12.8a9.745 9.745 0 005.867 0 9.762 9.762 0 015.867 0l1.758 10.551-1.041-1.042a1.838 1.838 0 00-.773-.458 5.696 5.696 0 10-9.342 1.991zm11.335 2.33l-.943.942a.665.665 0 01-.943 0l-2.067-2.067a.667.667 0 010-.943l.129-.13-.675-.674a4.5 4.5 0 11.69-.69l.675.675.124-.124a.668.668 0 01.943 0l2.067 2.068a.666.666 0 010 .943zM8.5 12.101a3.561 3.561 0 002.185-.757l.642-.64A3.58 3.58 0 108.5 12.101zM9 9h2V8H9V6H8v2H6v1h2v2h1z"/></svg>