<svg xmlns="http://www.w3.org/2000/svg" viewBox="0 0 16 16"><path d="M6.527 14.69A10.565 10.565 0 010 14.29L2.133 1.487a9.745 9.745 0 005.867 0 9.762 9.762 0 015.867 0l.794 4.767-1.375 1.375a6.238 6.238 0 00-2.785-.697c-3.573 0-6.184 3.549-6.291 3.699l-.219.3a1.02 1.02 0 000 1.202l.217.299a11.413 11.413 0 002.319 2.258zm8.845-6.318l-7.6 7.601-.708-.707.932-.931a9.674 9.674 0 01-2.842-2.508l-.214-.294.214-.294c.095-.13 2.365-3.206 5.346-3.206a5.459 5.459 0 012.88.918l1.285-1.286zm-2.605 1.192a4.571 4.571 0 00-2.267-.68c-2.1 0-3.914 1.888-4.559 2.65A8.935 8.935 0 008.63 13.7l.977-.977A1.495 1.495 0 1111.7 10.63zm3.095 1.674a9.454 9.454 0 00-.883-1l-.58.58c.286.276.517.53.676.716a7.49 7.49 0 01-3.977 2.585l-.895.896c.099.006.196.018.297.018 2.981 0 5.266-3.074 5.362-3.205L16 11.64v-.213z"/></svg>