<svg xmlns="http://www.w3.org/2000/svg" viewBox="0 0 24 24"><path d="M20.83 2.678s-4.576-1.525-8.39 0-8.39 0-8.39 0L1 20.983s4.576 2.288 11.44 0 11.441 0 11.441 0zm-8.705 17.356A18.043 18.043 0 016.424 21a13.713 13.713 0 01-4.304-.652l2.736-16.42a17.121 17.121 0 003.715.428 11.392 11.392 0 004.241-.75A9.415 9.415 0 0116.311 3a15.195 15.195 0 013.637.467l2.67 16.02a16.253 16.253 0 00-4.16-.521 20.03 20.03 0 00-6.333 1.068zm6.947-15.741A13.993 13.993 0 0016.311 4a8.416 8.416 0 00-3.127.535 12.401 12.401 0 01-4.613.82 17.656 17.656 0 01-2.897-.25L3.252 19.634A13.397 13.397 0 006.424 20a17.052 17.052 0 005.385-.914 21.021 21.021 0 016.649-1.12 18.036 18.036 0 012.932.235zM4.398 18.845L6.5 6.232a17.916 17.916 0 002.07.123 13.39 13.39 0 004.985-.891 7.259 7.259 0 012.515-.455c-.612.597-.384.834-.322 1.513a1.11 1.11 0 00-.991.445 1.008 1.008 0 00-.28.9c.148.719.15 1.15-.26 1.371a2.155 2.155 0 00-.823.93c-.245.437-.311.544-.657.282a1.38 1.38 0 00-.869-.35 1.14 1.14 0 00-1.102 1.174c0 .724-.776 1.117-1.025.66a1.479 1.479 0 00-1.277-.983 1.354 1.354 0 00-1.316 1.387 2.114 2.114 0 00.087.57 1.162 1.162 0 01.055.317.858.858 0 01-.151.417 1.77 1.77 0 00-.274.896 1.042 1.042 0 001.103.995 1.802 1.802 0 00.706-.15 1.22 1.22 0 01.284-.09.464.464 0 01.07.237c0 .159-.15.32-.394.563a1.564 1.564 0 00-.511 1.965 1.434 1.434 0 001.066.601l.155.037a15.158 15.158 0 01-2.92.304 12.885 12.885 0 01-2.026-.155zm7.094-.707c-.287.095-.573.171-.86.251a1.702 1.702 0 00-1.215-.703 2.511 2.511 0 00-.4-.076c-.148-.297-.077-.41.323-.809a1.8 1.8 0 00.687-1.27 1.143 1.143 0 00-.91-1.208 1.599 1.599 0 00-.806.13.844.844 0 01-.343.08c-.057 0-.1-.02-.103 0a.867.867 0 01.152-.413 1.77 1.77 0 00.273-.895 2.152 2.152 0 00-.087-.57 1.162 1.162 0 01-.055-.317.36.36 0 01.316-.387c.116 0 .191.088.413.488.693 1.249 2.889.726 2.889-1.165 0-.092.063-.173.102-.173a2.689 2.689 0 001.135.496 1.453 1.453 0 001.263-.937 1.319 1.319 0 01.427-.542 2.046 2.046 0 00.768-2.432c.043-.066.123-.155.095-.168 1.335.101 1.059-.713 1.108-1.67a5.878 5.878 0 00.705-.796c.296.027.58.061.833.1l1.335 8.014c-.09-.06-.089.012-.254-.324a1.07 1.07 0 00-.955-.74c-.683 0-1.288.926-1.288.926a1.991 1.991 0 00-.694-.199.943.943 0 00-.995.905c0 1.37-.727.817-.727 1.843a.849.849 0 00.197.54 1.308 1.308 0 01-.379.232c-.375.183-.942.46-.942 1.144 0 .029.005.05.006.078-.671.16-1.343.343-2.014.567zm3.267-.83l.12-.06c1.03-.5 1.134-1.245.745-1.67a1.895 1.895 0 00.727-1.749 1.89 1.89 0 00.689.2 1.285 1.285 0 001.05-.67 1.082 1.082 0 00.18-.282c.643.63.223 1.022 1.454 1.208l.46 2.757a19.751 19.751 0 00-1.726-.075 21.009 21.009 0 00-3.7.342z"/></svg>