<svg xmlns="http://www.w3.org/2000/svg" viewBox="0 0 16 16"><path d="M16 14.29s-3.2-1.6-8 0-8 0-8 0L2.133 1.487a9.744 9.744 0 005.867 0 9.762 9.762 0 015.867 0zm-8.316-.95a14.313 14.313 0 014.524-.762 11.904 11.904 0 012.538.267l-1.76-10.559a10.323 10.323 0 00-2.28-.272 6.29 6.29 0 00-2.334.402 8.253 8.253 0 01-3.078.547 12.159 12.159 0 01-2.353-.241L1.123 13.637a9.531 9.531 0 002.67.363 12.319 12.319 0 003.89-.66zM9 7h4v4H9zm3 3V8h-2v2zm0-5V4H4v1zM5.5 7A2.5 2.5 0 113 9.5 2.5 2.5 0 015.5 7zM7 9.5A1.5 1.5 0 105.5 11 1.502 1.502 0 007 9.5z"/></svg>