<svg id="icons" xmlns="http://www.w3.org/2000/svg" viewBox="0 0 32 32"><defs><style>.cls-1{fill:none;}</style></defs><path d="M15.69287,27.54834c.43042-.139.86743-.27783,1.317-.41229l-.5611,1.22027A22.35164,22.35164,0,0,1,8.53778,29.8,16.27328,16.27328,0,0,1,1,28L5,3.9a14.9894,14.9894,0,0,0,5.33917.96827c4.80805,0,5.59076-1.65711,10.73493-1.65711A26.40147,26.40147,0,0,1,27,3.9L29.0639,16.3349a1.2429,1.2429,0,0,0-.21917-.04291,1.25649,1.25649,0,0,0-.5127.10987l-.25177.11315L26.124,4.72852a26.164,26.164,0,0,0-5.0498-.51758,16.62829,16.62829,0,0,0-5.29.81054,17.41966,17.41966,0,0,1-5.44482.84668,15.6001,15.6001,0,0,1-4.54444-.65087L2.10742,27.43408A15.989,15.989,0,0,0,8.5376,28.7998,20.42178,20.42178,0,0,0,15.69287,27.54834ZM27,23.99994A2.99991,2.99991,0,1,1,24.00012,21,2.99985,2.99985,0,0,1,27,23.99994Zm-1.00006,0a1.99985,1.99985,0,1,0-1.99982,1.99982A1.9999,1.9999,0,0,0,25.99994,23.99994Zm3.493,2.69617.96527,2.149-1.56555,1.57642-2.066-.9494-.84851.31842-.83771,2.20154L22.91815,32,22.129,29.86975l-.82483-.37683-2.14911.96527-1.57642-1.56555.94941-2.066-.31843-.84851-2.20147-.83771-.00794-2.22125,2.13031-.78919.37677-.8258L17.542,19.155l1.56561-1.57642,2.066.94941.84858-.31843.83764-2.20147,2.22125-.00794.78925,2.13031.82581.37677,2.149-.96527,1.57642,1.56561-.9494,2.066.31842.84858,2.20154.83764L32,25.082l-2.13025.78925Zm-.20618,1.91247-.87469-1.948.72223-1.55151,1.86523-.69214-.00323-.89636-1.99512-.75964L28.413,21.154l.83118-1.80847-.63623-.63208-1.94519.87329-1.55524-.72082-.69079-1.86573-.89636.00373-.75867,1.99414-1.60791.5896-1.8089-.83167-.63159.63574.87414,1.94519-.72125,1.55524-1.86572.69214.00323.89545,1.99512.75964.58862,1.607-.83117,1.80933.63574.63117,1.94525-.87323,1.55475.72167.69073,1.8639.89685-.00275.75867-1.9942,1.60791-.5896,1.80939.83172Z"/><rect class="cls-1" width="32" height="32"/></svg>