<svg xmlns="http://www.w3.org/2000/svg" viewBox="0 0 16 16"><path d="M6 13.776l.712.871A10.648 10.648 0 010 14.29l2.133-12.8A9.745 9.745 0 008 1.49a9.762 9.762 0 015.867 0l1.815 10.891-1.217-1.217-1.479-8.877a10.323 10.323 0 00-2.28-.272 6.29 6.29 0 00-2.334.402 8.252 8.252 0 01-3.078.547 12.159 12.159 0 01-2.353-.241L1.123 13.637a9.531 9.531 0 002.67.363A11.666 11.666 0 006 13.776zm9.805 1.085l-.943.942a.665.665 0 01-.943 0l-2.067-2.067a.667.667 0 010-.943l.129-.13-.675-.674a4.5 4.5 0 11.69-.69l.675.675.124-.124a.668.668 0 01.943 0l2.067 2.068a.666.666 0 010 .943zM8.5 12.1a3.562 3.562 0 002.193-.764l.63-.628A3.58 3.58 0 108.5 12.1zm6.361 2.29l-1.595-1.598-.473.473 1.597 1.595zM9 9h2V8H9V6H8v2H6v1h2v2h1z"/></svg>