<svg id="icons" xmlns="http://www.w3.org/2000/svg" viewBox="0 0 16 16"><defs><style>.cls-1{fill:none;}</style></defs><path d="M7.57031,13.70068l.14551.05371-.0752.17188a1.21818,1.21818,0,0,0-.05792.2132,11.197,11.197,0,0,1-3.79.66052A9.15818,9.15818,0,0,1,0,14.08905L2.13281,1.48828A10.38935,10.38935,0,0,0,5.294,2c2.6875,0,2.72125-.98572,5.412-.98572a8.2045,8.2045,0,0,1,3.16114.67395l1.00317,5.92694a1.20453,1.20453,0,0,0-.94067.02106l-.06513.02881-.889-5.25226a7.21244,7.21244,0,0,0-2.26954-.3985,5.89543,5.89543,0,0,0-2.36749.43335A7.83308,7.83308,0,0,1,5.294,3a11.376,11.376,0,0,1-2.35883-.26007L1.12457,13.43732A9.53947,9.53947,0,0,0,3.79272,13.8a9.93052,9.93052,0,0,0,3.21381-.52747A1.24318,1.24318,0,0,0,7.57031,13.70068Zm7.213-.671q-.04981.13458-.11213.26276l.53467,1.163-.77118.76471-1.19354-.52673q-.12945.05959-.26544.10687L12.532,16H11.44531l-.47094-1.22046q-.13469-.04989-.26294-.11224l-1.163.53473-.76465-.77124.52674-1.19349q-.05961-.12945-.10688-.26544l-1.19976-.44372V11.47186l1.19976-.44372q.04716-.13587.10688-.26551L8.78375,9.56915,9.5484,8.798l1.163.53467q.12817-.06216.26294-.11224L11.44531,8H12.532l.44373,1.19977q.13586.04715.26544.10681l1.19354-.52673.77118.76471-.53467,1.163q.06217.12809.11213.26276l1.21691.47113v1.117Zm.215-.90606v-.2472l-.81561-.27087a2.20593,2.20593,0,0,0-.35456-.86139l.36493-.793-.16119-.1593-.76739.38586a2.20579,2.20579,0,0,0-.86048-.359L12.1015,9h-.22613l-.2696.81677a2.20628,2.20628,0,0,0-.86175.35449l-.7926-.36474L9.79211,9.967l.38526.768a2.20612,2.20612,0,0,0-.35877.85907l-.81775.304v.20386l.81775.30389a2.20536,2.20536,0,0,0,.35877.85907l-.38526.768.15931.16052.7926-.36475a2.20525,2.20525,0,0,0,.86175.3545L11.87537,15h.22613l.30249-.81873a2.20668,2.20668,0,0,0,.86048-.359l.76739.3858.16119-.15924-.36493-.793a2.20519,2.20519,0,0,0,.35456-.86139ZM12,11a1,1,0,1,0,1,1A1,1,0,0,0,12,11Z"/><rect class="cls-1" width="16" height="16"/></svg>