<svg id="icons" xmlns="http://www.w3.org/2000/svg" viewBox="0 0 24 24"><defs><style>.cls-1{fill:none;}</style></defs><path d="M11.79742,20.10852l.62446.23962-.33027.71821A22.27006,22.27006,0,0,1,6.42377,21.8,13.09338,13.09338,0,0,1,1,20.783L4.05084,3.07794A15.02836,15.02836,0,0,0,8.57062,3.8c3.84808,0,3.89209-1.6,7.74011-1.6a12.67416,12.67416,0,0,1,4.51978.87793l1.53112,9.08643a1.23646,1.23646,0,0,0-.71808-.25617,1.26642,1.26642,0,0,0-.32739.06977L19.94061,3.815A11.85932,11.85932,0,0,0,16.31073,3.2a7.79109,7.79109,0,0,0-3.48981.72486A9.80471,9.80471,0,0,1,8.57062,4.8a16.19263,16.19263,0,0,1-3.723-.45691L2.1239,20.14978A13.72669,13.72669,0,0,0,6.42377,20.8,21.11246,21.11246,0,0,0,11.79742,20.10852ZM20,18a2,2,0,1,1-2-2A2,2,0,0,1,20,18Zm-1,0a1,1,0,1,0-1,1A1,1,0,0,0,19,18Zm3.41364,1.39209-.296.62775.724,1.624-1.162,1.17029-1.54242-.70935-.65345.23553L18.84772,24h-1.6496l-.59021-1.58636-.62775-.29511-1.62762.72766L13.18591,21.6795l.70929-1.54235-.23553-.65345L12,18.84772v-1.6496l1.58636-.59021.29511-.62781-.72766-1.62756,1.16662-1.16669,1.54242.70935.65345-.23553L17.15228,12h1.6496l.59021,1.58636.62775.296,1.624-.724L22.80951,14.325l-.70471,1.53778.23553.65345L24,17.15228v1.6496Zm-1.27674.52338.54389-1.15857L23,18.2663v-.58149l-1.42743-.54827-.4339-1.204.58582-1.27985-.41211-.41125-1.39691.62164L18.757,14.31915,18.2663,13h-.58149l-.54827,1.42743-1.20569.4339-1.28253-.59015-.4112.41119.62683,1.40039L14.31921,17.243,13,17.7337v.58149l1.42743.54827.4339,1.20569-.59015,1.28247.41119.41126,1.40039-.62689,1.16028.5448L17.7337,23h.58149l.54827-1.42749,1.20569-.4339,1.28076.58844.41034-.413Z"/><rect class="cls-1" width="24" height="24"/></svg>