<svg xmlns="http://www.w3.org/2000/svg" viewBox="0 0 24 24"><path d="M20.83 2.678s-4.576-1.525-8.39 0-8.39 0-8.39 0L1 20.983s4.576 2.288 11.44 0 11.441 0 11.441 0zm-8.705 17.356A18.043 18.043 0 016.424 21a13.713 13.713 0 01-4.304-.652l2.736-16.42a17.121 17.121 0 003.715.428 11.392 11.392 0 004.241-.75A9.415 9.415 0 0116.311 3a15.195 15.195 0 013.637.467l2.67 16.02a16.253 16.253 0 00-4.16-.521 20.03 20.03 0 00-6.333 1.068zm4.856-13.03C13.244 7.004 11.315 9 8.25 9a21.422 21.422 0 01-2.668-.174l.115-1.064A19.403 19.403 0 008.488 8c2.775 0 4.763-2 8.13-2 .84 0 2.755.278 2.755.278l.124.957a13.11 13.11 0 00-2.517-.231zm1.025 4.007a16.835 16.835 0 00-4.946.781v5.219a16.88 16.88 0 014.946-.78 14.796 14.796 0 011.934.13l-.86-5.31c-.341-.025-.697-.04-1.074-.04zm0 4.22a17.283 17.283 0 00-3.945.474v-3.159a15.483 15.483 0 013.945-.535c.073 0 .145 0 .217.002l.523 3.236q-.37-.018-.74-.018zM7.5 13.031A3.271 3.271 0 004 15.998a3.271 3.271 0 003.5 2.97A3.271 3.271 0 0011 16a3.271 3.271 0 00-3.5-2.969zm0 4.939A2.286 2.286 0 015 15.999a2.285 2.285 0 012.5-1.969A2.285 2.285 0 0110 16a2.286 2.286 0 01-2.5 1.97z"/></svg>