<svg xmlns="http://www.w3.org/2000/svg" viewBox="0 0 32 32"><path d="M23.889 20.467a30.95 30.95 0 00-9.217 1.549 20.806 20.806 0 01-6.56 1.117 16.786 16.786 0 01-2.35-.162L7.62 11.82a9.798 9.798 0 014.458-1.59 1.801 1.801 0 01.812.159 2.103 2.103 0 01.58.854 3.533 3.533 0 001.359 1.414 4.045 4.045 0 002.326.534 2.74 2.74 0 011.11.14c.648.334 1.202 1.354 1.79 2.076a7.285 7.285 0 003.235 2.671 3.965 3.965 0 002.159.16l.383 2.3a25.63 25.63 0 00-1.943-.072zM17 30h11v2H4v-2h11v-3.7C6.563 28.76 1 26 1 26L5 2s6 2 11 0 11 0 11 0l4 24s-5.563-2.761-14-.3zm-1.948-6.846a27.905 27.905 0 018.837-1.488 24.333 24.333 0 013.386.234l-2.91-17.465a17.856 17.856 0 00-3.29-.324 10.679 10.679 0 00-3.96.674 16.613 16.613 0 01-6.19 1.104 23.272 23.272 0 01-3.487-.274L4.384 23.943a17.514 17.514 0 003.727.389 22.006 22.006 0 006.94-1.178zM12.078 9.332a9.582 9.582 0 00-4.272 1.376l.626-3.755a23.696 23.696 0 002.494.135 17.803 17.803 0 006.634-1.19 12.156 12.156 0 015.761-.421l1.98 11.878a2.983 2.983 0 01-1.72-.127 6.603 6.603 0 01-2.827-2.388c-.649-.796-1.261-1.888-2.07-2.305a3.255 3.255 0 00-1.524-.242 3.231 3.231 0 01-1.828-.382 2.569 2.569 0 01-1.06-1.076 2.54 2.54 0 00-.97-1.245 2.686 2.686 0 00-1.224-.258zm8.923 1.562a.863.863 0 00.978.805.903.903 0 00.972-.854.892.892 0 00-.982-.727.933.933 0 00-.968.776zm-4-3.118a.863.863 0 00.978.805.903.903 0 00.972-.854.892.892 0 00-.982-.726.933.933 0 00-.968.775z"/></svg>