<svg xmlns="http://www.w3.org/2000/svg" viewBox="0 0 16 16"><path d="M13.867 1.488a9.762 9.762 0 00-5.867 0 9.745 9.745 0 01-5.867 0L0 14.29s3.2 1.6 8 0 8 0 8 0zM7.684 13.34a12.319 12.319 0 01-3.892.66 9.531 9.531 0 01-2.67-.363l1.82-10.915a12.159 12.159 0 002.353.24 8.253 8.253 0 003.078-.546 6.29 6.29 0 012.334-.402 10.323 10.323 0 012.28.272l1.76 10.56a11.904 11.904 0 00-2.538-.268 14.313 14.313 0 00-4.524.762zM12 4H4l-1 8h10zM4.883 5h5.38c.007.152-.019.218-.068.245a1.865 1.865 0 00-.732.807l-.035.06a1.27 1.27 0 00-.779-.28 1.165 1.165 0 00-1.137 1.187.494.494 0 01-.146.288 1.326 1.326 0 00-1.186-.859 1.32 1.32 0 00-1.291 1.343 1.85 1.85 0 00.074.498.611.611 0 01.028.145.9.9 0 01-.069.141 1.615 1.615 0 00-.24.812 1.102 1.102 0 001.138 1.06c.029 0 .056-.002.083-.003a1.755 1.755 0 00-.351.556h-1.42zm1.468 6c.231-.285.6-.516.6-.895 0-.16-.082-.488-.334-.513-.351-.035-.443.154-.797.154a.406.406 0 01-.437-.36c0-.386.308-.566.308-.952 0-.25-.102-.393-.102-.643a.619.619 0 01.59-.643c.323 0 .464.264.618.54a.642.642 0 00.617.308c.49 0 .798-.61.798-.977a.471.471 0 01.437-.488c.347 0 .476.36.824.36.57 0 .55-.756 1.053-1.03A.865.865 0 0010.97 5h.148l.389 3.11a.58.58 0 01-.462.308c-.219 0-.321-.154-.54-.154a.355.355 0 00-.386.314v.502c0 .424-.565.508-.565.934 0 .171.154.236.154.41 0 .316-.306.438-.584.576zm3.892 0a1.06 1.06 0 00.164-.576.974.974 0 00-.077-.381 1.272 1.272 0 00.488-.947 1.136 1.136 0 00.226.022 1.097 1.097 0 00.569-.152L11.867 11z"/></svg>