<svg xmlns="http://www.w3.org/2000/svg" viewBox="0 0 32 32"><path d="M17 27.2c.338 0 .668-.038 1-.07v.23a20.097 20.097 0 00-2 .54c-7.178 2.393-14.242.137-14.994-.034L5 3.9a13.387 13.387 0 0011 0c5-2 11 0 11 0l3.715 22.29-2.674-2.674a2.188 2.188 0 00-1.556-.645 2.218 2.218 0 00-.485.054l-.418-.42A10.197 10.197 0 1017 27.2zm14.707 3.092l-1.415 1.416a1.001 1.001 0 01-1.414 0l-4.514-4.516a.997.997 0 01-.014-1.393l-1.756-1.756a8.996 8.996 0 111.419-1.409l1.747 1.748.018-.018a1 1 0 011.414 0l4.515 4.514a1 1 0 010 1.414zM24.1 17a7.1 7.1 0 10-7.1 7.1 7.108 7.108 0 007.1-7.1zM18 12h-2v4h-4v2h4v4h2v-4h4v-2h-4z"/></svg>