<svg xmlns="http://www.w3.org/2000/svg" viewBox="0 0 16 16"><path d="M6 13.78l.71.87A10.64 10.64 0 0 1 0 14.29l2.13-12.8a9.74 9.74 0 0 0 5.87 0 9.74 9.74 0 0 1 5.87 0l1.81 10.89-1.21-1.22L13 2.29A9.85 9.85 0 0 0 10.71 2a6.23 6.23 0 0 0-2.34.41A8.29 8.29 0 0 1 5.29 3a11.74 11.74 0 0 1-2.35-.24L1.12 13.64a9.53 9.53 0 0 0 2.67.36A11.91 11.91 0 0 0 6 13.78zm9.8 1.08l-.94.94a.66.66 0 0 1-.94 0l-2.07-2.06a.68.68 0 0 1 0-1l.13-.13-.67-.61a4.49 4.49 0 1 1 .69-.7l.67.67.12-.12a.68.68 0 0 1 1 0l2.06 2.07a.65.65 0 0 1-.05.94zM8.5 12.1a3.57 3.57 0 0 0 2.19-.76l.63-.63A3.59 3.59 0 1 0 8.5 12.1zm6.36 2.29l-1.59-1.6-.48.47 1.6 1.6zM9 9h2V8H9V6H8v2H6v1h2v2h1z"/></svg>