<svg xmlns="http://www.w3.org/2000/svg" viewBox="0 0 24 24"><path d="M11.18 20.31l1.17.7C5.54 23.25 1 21 1 21L4.05 2.68s4.58 1.52 8.39 0 8.39 0 8.39 0l3 17.82-1.22-1.22L20 3.47A15 15 0 0 0 16.31 3a9.3 9.3 0 0 0-3.5.61 11.53 11.53 0 0 1-4.24.75 17.11 17.11 0 0 1-3.71-.43L2.12 20.35a13.72 13.72 0 0 0 4.3.65 17.62 17.62 0 0 0 4.76-.69zM24 22.39a.71.71 0 0 1-.19.48l-.94.93a.66.66 0 0 1-.94 0L19.06 21a.66.66 0 0 1 0-.94l.13-.13L18 18.7a5.5 5.5 0 1 1 .7-.7l1.18 1.18.13-.13a.66.66 0 0 1 .94 0l2.85 2.85a.71.71 0 0 1 .2.49zm-6.24-4.64a4.6 4.6 0 1 0-6.5 0 4.54 4.54 0 0 0 3.24 1.35 4.56 4.56 0 0 0 3.25-1.35zm5.11 4.64L20.48 20l-.47.48 2.38 2.38zM15 12h-1v2h-2v1h2v2h1v-2h2v-1h-2z"/></svg>