<svg xmlns="http://www.w3.org/2000/svg" viewBox="0 0 24 24"><path d="M20.83 2.678s-4.576-1.525-8.39 0-8.39 0-8.39 0L1 20.983s4.576 2.288 11.44 0 11.441 0 11.441 0zm-9.02 16.408A17.052 17.052 0 016.424 20a13.397 13.397 0 01-3.172-.366L5.674 5.105a17.656 17.656 0 002.897.25 12.401 12.401 0 004.613-.82A8.416 8.416 0 0116.31 4a13.993 13.993 0 012.761.293l2.318 13.908a18.036 18.036 0 00-2.933-.234 21.021 21.021 0 00-6.648 1.119zM11.399 13H5.372l-.974 5.845A12.885 12.885 0 006.424 19a16.059 16.059 0 005.068-.862 23.177 23.177 0 013.51-.88zM7.5 17.5a1 1 0 111-1 1 1 0 01-1 1zM18.202 5.152A12.599 12.599 0 0016.316 5l-4.329 7.457 3.963 4.682a20.727 20.727 0 012.508-.172c.581 0 1.158.025 1.725.075zM16.5 12.5a1 1 0 111-1 1 1 0 01-1 1zm-5.172-.5l4.033-6.949a6.652 6.652 0 00-1.806.413 13.39 13.39 0 01-4.984.891A17.916 17.916 0 016.5 6.232L5.539 12zM8.5 8.5a1 1 0 11-1 1 1 1 0 011-1z"/></svg>