<svg xmlns="http://www.w3.org/2000/svg" viewBox="0 0 16 16"><path d="M11.672 7.985L11.766 9H4.234c.406-4.397.219-2.368.374-4.037a1.151 1.151 0 01.73-.075 1.584 1.584 0 01.772.618 2.608 2.608 0 00.539.536 3.26 3.26 0 001.918.46.297.297 0 01.195.07l.099.099a4.956 4.956 0 001.475 1.077 3.762 3.762 0 001.336.237zM9 14h5v2H2v-2h5v-1.308a10.73 10.73 0 01-7-.292L2.066 0h11.868L16 12.4a10.719 10.719 0 00-7-.291zm3.883-4l-.779-8H3.895l-.778 8zM4.688 4.095L4.79 3H8v1.005h1V3h2.21l.387 4.182a2.883 2.883 0 01-.945-.17 4.25 4.25 0 01-1.23-.91l-.108-.107a1.097 1.097 0 00-.743-.293 2.532 2.532 0 01-1.475-.324 1.985 1.985 0 01-.368-.38 2.331 2.331 0 00-1.174-.88 1.816 1.816 0 00-.866-.023zm5.312.91h1v-1h-1z"/></svg>