<svg xmlns="http://www.w3.org/2000/svg" viewBox="0 0 16 16"><path d="M13.867 1.488a9.762 9.762 0 00-5.867 0 9.745 9.745 0 01-5.867 0L0 14.29s3.2 1.6 8 0 8 0 8 0zM7.684 13.34a12.319 12.319 0 01-3.892.66 9.531 9.531 0 01-2.67-.363l1.82-10.915a12.159 12.159 0 002.353.24 8.253 8.253 0 003.078-.546 6.29 6.29 0 012.334-.402 10.323 10.323 0 012.28.272l1.76 10.56a11.904 11.904 0 00-2.538-.268 14.313 14.313 0 00-4.524.762zM6.5 5.5a1 1 0 11-1-1 1 1 0 011 1zm6 3a1 1 0 11-1-1 1 1 0 011 1zm-7 2a1 1 0 11-1-1 1 1 0 011 1z"/></svg>