<svg xmlns="http://www.w3.org/2000/svg" viewBox="0 0 32 32"><path d="M20.044 23.447a.807.807 0 0 0-.076-.447h-7.936a.807.807 0 0 0-.076.447.82.82 0 0 0 .335.546L14 24.5l-1.84.6a.492.492 0 0 0 0 .8l1.84.6-1.84.6a.492.492 0 0 0 0 .8l3.844 2.603 3.814-2.606a.382.382 0 0 0-.068-.668L18 26.5l1.814-.756a.265.265 0 0 0 0-.488L18 24.5l1.71-.507a.82.82 0 0 0 .334-.546zM15.96 1c-5.559.105-8.202 4.189-7.942 8.53.26 4.398 3.227 6.497 3.62 7.876.395 1.377.198 2.169.461 3.35.094.423.34 1.244.76 1.244H14v-5.52l-1.075-3.326.951-.308L14.896 16h2.208l1.02-3.154.951.308L18 16.48V22h1.062c.42 0 .666-.82.76-1.243.263-1.181.066-1.973.46-3.35.394-1.38 3.36-3.478 3.622-7.876.26-4.341-2.384-8.425-7.943-8.53z"/><path d="M15 17h2v5h-2z"/><path d="M13 21h6v1h-6z"/></svg>