<svg xmlns="http://www.w3.org/2000/svg" viewBox="0 0 16 16"><path d="M8.928 13.322a.32.32 0 0 0-.03-.221.177.177 0 0 0-.15-.101H6.252a.177.177 0 0 0-.15.1.32.32 0 0 0-.03.222l.153.678L6 15l.879.662a.909.909 0 0 0 1.242 0L9 15l-.225-1zm1.479-12.176a4.386 4.386 0 0 0-5.727-.074 4.455 4.455 0 0 0-1.6 3.691c.15 2.514 1.834 3.714 2.059 4.502.225.787.112 1.235.263 1.909.15.674.487.826.487.826H9.11s.338-.152.487-.826c.15-.674.038-1.122.263-1.91.225-.787 1.91-1.987 2.06-4.5a4.452 4.452 0 0 0-1.514-3.618zM8 11H7V8h1zm1-4H6V6h3z"/></svg>