<?xml version="1.0" encoding="UTF-8"?><svg id="icons" xmlns="http://www.w3.org/2000/svg" viewBox="0 0 24 24"><defs><style>.cls-1{fill:none;}.cls-1,.cls-2{stroke-width:0px;}</style></defs><path class="cls-2" d="M13,6h-4v-1h4v1ZM12.52295,20.25c-.46667,0-.90845-.09528-1.32056-.25H2.7887c-.43561,0-.7887-.35315-.7887-.7887V2.78943c0-.43597.35345-.78943.78949-.78943h11.42181c.43561,0,.7887.35309.7887.7887v7.2113h.0976c.21515-.48492.5127-.92297.9024-1.27448V2.57971c0-.86884-.71088-1.57971-1.57971-1.57971H2.58508c-.87543,0-1.58508.70966-1.58508,1.58508v16.83752c0,.87115.70624,1.57739,1.57739,1.57739h11.8421c.09692,0,.19092-.01178.28302-.0285l-1.02673-.91095c-.37012.12305-.7583.1875-1.15283.18945ZM9,11h4v-1h-4v1ZM4,14h4v4h-4v-4ZM5,17h2v-2h-2v2ZM23.99103,16.5c0,1.37891-1.11212,2.5-2.49103,2.5-1.20764,0-2.21722-.86005-2.44946-2h-4.10193c-.08118.39844-.26526.75604-.51196,1.06146l2.12115,1.88367c.4585-.57147,1.15393-.94513,1.9422-.94513,1.37891,0,2.49103,1.12109,2.49103,2.5s-1.11212,2.5-2.49103,2.5-2.5-1.12109-2.5-2.5c0-.31616.06506-.61597.17255-.89459l-2.28522-2.02917c-.39319.26355-.86395.42053-1.37189.42371-1.37885.00854-2.49786-1.10559-2.50641-2.4845-.00848-1.37891,1.09662-2.5069,2.47552-2.51538.51917-.00323,1.0025.15314,1.40417.42249l2.28381-2.02795c-.10748-.27863-.17255-.57843-.17255-.89459,0-1.37891,1.12109-2.5,2.5-2.5s2.49103,1.12109,2.49103,2.5-1.11212,2.5-2.49103,2.5c-.78827,0-1.48376-.37366-1.94226-.94513l-2.12079,1.88342c.24664.30518.42969.6629.51099,1.06171h4.1026c.23224-1.13995,1.24182-2,2.44946-2,1.37891,0,2.49103,1.12109,2.49103,2.5ZM17,12c0,.55225.44769,1,1,1h1c.55231,0,1-.44775,1-1v-1c0-.55231-.44769-1-1-1h-1c-.55231,0-1,.44769-1,1v1ZM17,22c0,.55225.44769,1,1,1h1c.55231,0,1-.44775,1-1v-1c0-.55231-.44769-1-1-1h-1c-.55231,0-1,.44769-1,1v1ZM14.00305,16.99072l-.00616-1c-.00342-.55231-.45386-.99719-1.00616-.99377l-1,.00616c-.55231.00342-.99719.45386-.99377,1.00616l.00616,1c.00342.55219.45386.99719,1.00616.99377l1-.00616c.55231-.00342.99719-.45398.99377-1.00616ZM23,16c0-.55231-.44769-1-1-1h-1c-.55231,0-1,.44769-1,1v1c0,.55225.44769,1,1,1h1c.55231,0,1-.44775,1-1v-1ZM8,13h-4v-4h4v4ZM7,10h-2v2h2v-2ZM8,8h-4v-4h4v4ZM7,5h-2v2h2v-2Z"/><rect class="cls-1" width="24" height="24"/></svg>