<?xml version="1.0" encoding="UTF-8"?><svg id="icons" xmlns="http://www.w3.org/2000/svg" viewBox="0 0 32 32"><defs><style>.cls-1{fill:none;}.cls-1,.cls-2{stroke-width:0px;}</style></defs><path class="cls-2" d="M17,9h-5v-1h5v1ZM17,14h-5v1h5v-1ZM11,11h-5v-5h5v5ZM10,7h-3v3h3v-3ZM11,17h-5v-5h5v5ZM10,13h-3v3h3v-3ZM6,18h5v5h-5v-5ZM7,22h3v-3h-3v3ZM30.99103,21.5c0,1.37891-1.11212,2.5-2.49103,2.5-1.20764,0-2.21722-.86005-2.44946-2h-6.10107c-.0777.38129-.24982.72473-.4798,1.02167l3.17438,2.81897c.45807-.5119,1.11633-.84064,1.85596-.84064,1.37891,0,2.49103,1.12109,2.49103,2.5s-1.11212,2.5-2.49103,2.5-2.5-1.12109-2.5-2.5c0-.36719.08411-.71338.22681-1.02771l-3.29657-2.92712c-.40588.28473-.89764.45483-1.43024.45483-1.37891,0-2.5-1.12109-2.5-2.5s1.12109-2.5,2.5-2.5c.53259,0,1.02435.17017,1.43024.4549l3.29657-2.92719c-.1427-.31433-.22681-.66052-.22681-1.02771,0-1.37891,1.12109-2.5,2.5-2.5s2.49103,1.12109,2.49103,2.5-1.11212,2.5-2.49103,2.5c-.73962,0-1.39795-.32874-1.85602-.84064l-3.17432,2.81897c.22998.29694.4021.64038.4798,1.02167h6.10107c.23224-1.13995,1.24182-2,2.44946-2,1.37891,0,2.49103,1.12109,2.49103,2.5ZM23,16c0,.55225.44769,1,1,1h1c.55231,0,1-.44775,1-1v-1c0-.55231-.44769-1-1-1h-1c-.55231,0-1,.44769-1,1v1ZM23,28c0,.55225.44769,1,1,1h1c.55231,0,1-.44775,1-1v-1c0-.55231-.44769-1-1-1h-1c-.55231,0-1,.44769-1,1v1ZM19,21c0-.55231-.44769-1-1-1h-1c-.55231,0-1,.44769-1,1v1c0,.55225.44769,1,1,1h1c.55231,0,1-.44775,1-1v-1ZM30,21c0-.55231-.44769-1-1-1h-1c-.55231,0-1,.44769-1,1v1c0,.55225.44769,1,1,1h1c.55231,0,1-.44775,1-1v-1ZM19.00098,26H3.99902c-.55176,0-.99902-.44733-.99902-.99799V4c0-.55273.44727-1,.99902-1h15.00195c.5517,0,.99902.44727.99902,1v12.83295l.80273-.71283c-.03516-.2041-.05273-.41113-.05273-.62012,0-.4635.09546-.90277.25-1.31299V4.00781c0-1.10156-.89752-2.00781-2.00098-2.00781H3.99799c-1.1015,0-1.98899.90625-1.98899,2.00781l-.009,20.99017c0,1.10358.89648,2.00201,1.99799,2.00201h15.00104c.5188,0,.98767-.20361,1.34357-.52875l-.76306-.67755c-.16516.12079-.35822.2063-.57855.2063ZM18.73193,17.95898l.26807-.23804V4H4v21h12c-.56665-.21344-.8761-.55823-1.27448-1H5V5h13v12.79211c.24939.03369.49524.08405.73193.16687ZM12,21h1.80054c.03772-.27887.10706-.54596.19946-.8028v-.1972h-2v1Z"/><rect class="cls-1" x="0" width="32" height="32"/></svg>