<?xml version="1.0" encoding="UTF-8"?><svg id="icons" xmlns="http://www.w3.org/2000/svg" viewBox="0 0 16 16"><defs><style>.cls-1{fill:none;}.cls-1,.cls-2{stroke-width:0px;}</style></defs><path class="cls-2" d="M8,7h-3v-1h3v1ZM5,10h1.20032c.20502-.31335.48792-.55884.79968-.7652v-.2348h-2v1ZM8,3h-3v1h3v-1ZM6.20032,13H1.83331c-.46021,0-.83331-.40704-.83331-.90912V1.90906c0-.50208.37311-.90906.83331-.90906h6.33337c.46021,0,.83331.40698.83331.90906v6.88928c.14105.02606.28009.06049.41455.10791l.33838-.28223c-.00195-.04102-.00293-.08203-.00293-.12402,0-.40424.09277-.78528.25-1.13129V1.79486c0-.98865-.74707-1.79486-1.66669-1.79486H1.66669C.74707,0,0,.80621,0,1.79486v10.41028c0,.9903.74707,1.79486,1.66669,1.79486h5.70203c-.47809-.21729-.8833-.56433-1.1684-1ZM16,11.5c0,.82715-.67285,1.5-1.5,1.5-.65131,0-1.20142-.41974-1.4082-1.00098h-3.06567l1.57178,1.3103c.25183-.19135.56213-.30933.9021-.30933.82715,0,1.5.67285,1.5,1.5s-.67285,1.5-1.5,1.5-1.5-.67285-1.5-1.5c0-.21521.04736-.41888.12933-.60406l-1.58606-1.32178c-.27026.26251-.63757.42584-1.04327.42584-.82715,0-1.5-.67285-1.5-1.5s.67285-1.5,1.5-1.5c.4057,0,.77301.16333,1.04327.42584l1.58606-1.32172c-.08197-.18518-.12933-.38892-.12933-.60413,0-.82715.67285-1.5,1.5-1.5s1.5.67285,1.5,1.5-.67285,1.5-1.5,1.5c-.34009,0-.65045-.1181-.90234-.30957l-1.57153,1.30957h3.06598c.20709-.58075.7569-1,1.4079-1,.82715,0,1.5.67285,1.5,1.5ZM12,9h1v-1h-1v1ZM9,11h-1v1h1v-1ZM12,15h1v-1h-1v1ZM15,11h-1v1h1v-1ZM4,3h-2v2h2v-2ZM2,11h2v-2h-2v2ZM4,6h-2v2h2v-2Z"/><rect class="cls-1" x="0" width="16" height="16"/></svg>