<?xml version="1.0" encoding="UTF-8"?><svg id="icons" xmlns="http://www.w3.org/2000/svg" viewBox="0 0 16 16"><path d="M13.5,6c-1.2074,0-2.21735,.86066-2.44946,2.00049H4.9494c-.03668-.17993-.09607-.35083-.16925-.51459l3.02411-2.16028c.44647,.41492,1.03967,.67438,1.69574,.67438,1.37842,0,2.49-1.12158,2.49-2.5s-1.11158-2.5-2.49-2.5-2.5,1.12158-2.5,2.5c0,.36182,.08093,.7038,.21985,1.01459l-3.02411,2.16028c-.44647-.41492-1.03967-.67438-1.69574-.67438-1.37842,0-2.5,1.12158-2.5,2.5s1.12158,2.49951,2.5,2.49951c.65613,0,1.24939-.25897,1.69586-.67395l3.02374,2.15985c-.13879,.31067-.2196,.65247-.2196,1.0141,0,1.37842,1.12158,2.5,2.5,2.5s2.49-1.12158,2.49-2.5-1.11158-2.5-2.49-2.5c-.65625,0-1.24969,.25952-1.69617,.67468l-3.02362-2.15973c.07312-.16364,.13251-.33502,.16919-.51495h6.10126c.23254,1.1394,1.24231,2,2.44934,2,1.37842,0,2.49-1.12158,2.49-2.5s-1.11158-2.5-2.49-2.5Zm1.5,3c0,.55225-.44769,1-1,1h-1c-.55231,0-1-.44775-1-1v-1c0-.55231,.44769-1,1-1h1c.55231,0,1,.44769,1,1v1Zm-7-5v-1c0-.55231,.44769-1,1-1h1c.55231,0,1,.44769,1,1v1c0,.55225-.44769,1-1,1h-1c-.55231,0-1-.44775-1-1Zm1,8h1c.55231,0,1,.44769,1,1v1c0,.55225-.44769,1-1,1h-1c-.55231,0-1-.44775-1-1v-1c0-.55231,.44769-1,1-1Z"/><path fill="none" d="M0 0h16v16H0z"/></svg>