<?xml version="1.0" encoding="UTF-8"?><svg id="icons" xmlns="http://www.w3.org/2000/svg" viewBox="0 0 32 32"><path d="M26.5,12c-1.75848,0-3.20422,1.30835-3.44946,3H8.94946c-.04614-.31824-.12531-.62463-.25128-.90936l10.1441-6.34003c.64258,.75751,1.58905,1.24939,2.65771,1.24939,1.92969,0,3.49-1.57031,3.49-3.5s-1.56031-3.5-3.49-3.5-3.5,1.57031-3.5,3.5c0,.50208,.1106,.97729,.30182,1.40936l-10.1441,6.34003c-.64258-.75751-1.58905-1.24939-2.65771-1.24939-1.92969,0-3.49,1.57031-3.49,3.5s1.56031,3.5,3.49,3.5c1.04272,0,1.96997-.46771,2.61176-1.19366l11.21436,7.23956c-.20453,.44427-.32611,.9339-.32611,1.4541,0,1.92969,1.57031,3.5,3.5,3.5s3.49-1.57031,3.49-3.5-1.56031-3.5-3.49-3.5c-1.05042,0-1.98328,.47498-2.62543,1.21027l-11.21094-7.23737c.14203-.30353,.23608-.62988,.28583-.9729h14.10107c.24524,1.69165,1.69098,3,3.44946,3,1.92969,0,3.49-1.57031,3.49-3.5s-1.56031-3.5-3.49-3.5Zm0,6c-1.37842,0-2.5-1.12158-2.5-2.5s1.12158-2.5,2.5-2.5,2.5,1.12158,2.5,2.5-1.12158,2.5-2.5,2.5Zm-7.5-12.5c0-1.37842,1.12158-2.5,2.5-2.5s2.5,1.12158,2.5,2.5-1.12158,2.5-2.5,2.5-2.5-1.12158-2.5-2.5Zm3.5,18.5c1.37842,0,2.5,1.12158,2.5,2.5s-1.12158,2.5-2.5,2.5-2.5-1.12158-2.5-2.5,1.12158-2.5,2.5-2.5Z"/><path fill="none" d="M0 0h32v32H0z"/></svg>