<svg id="icons" xmlns="http://www.w3.org/2000/svg" viewBox="0 0 24 24"><path d="M20,9.00049a2.99507,2.99507,0,0,0-2.81573,2H6.81573c-.02661-.07459-.04949-.15-.08172-.22174l7.08923-4.7262a3.00627,3.00627,0,1,0-.55719-.83038L6.17676,9.94843a3,3,0,1,0,0,4.10412l7.08929,4.7262A2.97324,2.97324,0,0,0,13,20.00049a3.02073,3.02073,0,1,0,.82324-2.05206L6.734,13.22223A2.97328,2.97328,0,0,0,7,12.00049H17a3,3,0,1,0,3-3Zm-6-5a2,2,0,1,1,2,2A2.002,2.002,0,0,1,14,4.00049Zm2,14a2,2,0,1,1-2,2A2.002,2.002,0,0,1,16,18.00049Zm4-4a2,2,0,1,1,2-2A2.002,2.002,0,0,1,20,14.00049Z"/><path fill="none" d="M0 0h24v24H0z"/></svg>