<svg xmlns="http://www.w3.org/2000/svg" viewBox="0 0 24 24"><path d="M21 5H3a2.002 2.002 0 01-2-2V2a2.002 2.002 0 012-2h18a2.002 2.002 0 012 2v1a2.002 2.002 0 01-2 2zM3 1a1.001 1.001 0 00-1 1v1a1.001 1.001 0 001 1h18a1.001 1.001 0 001-1V2a1.001 1.001 0 00-1-1zm13 1H8v1h8zm7 9.5a2.5 2.5 0 01-2.5 2.5h-17a2.5 2.5 0 010-5h17a2.5 2.5 0 012.5 2.5zm-7-.5H8v1h8zm5 12H3a2.002 2.002 0 01-2-2v-1a2.002 2.002 0 012-2h18a2.002 2.002 0 012 2v1a2.002 2.002 0 01-2 2zM3 19a1.001 1.001 0 00-1 1v1a1.001 1.001 0 001 1h18a1.001 1.001 0 001-1v-1a1.001 1.001 0 00-1-1zm13 1H8v1h8z"/></svg>