<svg xmlns="http://www.w3.org/2000/svg" viewBox="0 0 24 24"><path d="M22 3v1H7V3zM7 20h15v-1H7zm0-8h15v-1H7zM6 2.975v1.05A1.975 1.975 0 0 1 4.025 6h-1.05A1.975 1.975 0 0 1 1 4.025v-1.05A1.975 1.975 0 0 1 2.975 1h1.05A1.975 1.975 0 0 1 6 2.975zm-1-.333A.642.642 0 0 0 4.358 2H2.642A.642.642 0 0 0 2 2.642v1.716A.642.642 0 0 0 2.642 5h1.716A.642.642 0 0 0 5 4.358zm1 8.333v1.05A1.975 1.975 0 0 1 4.025 14h-1.05A1.975 1.975 0 0 1 1 12.025v-1.05A1.975 1.975 0 0 1 2.975 9h1.05A1.975 1.975 0 0 1 6 10.975zm-1-.333A.642.642 0 0 0 4.358 10H2.642a.642.642 0 0 0-.642.642v1.716a.642.642 0 0 0 .642.642h1.716A.642.642 0 0 0 5 12.358zm1 8.333v1.05A1.975 1.975 0 0 1 4.025 22h-1.05A1.975 1.975 0 0 1 1 20.025v-1.05A1.975 1.975 0 0 1 2.975 17h1.05A1.975 1.975 0 0 1 6 18.975zm-1-.333A.642.642 0 0 0 4.358 18H2.642a.642.642 0 0 0-.642.642v1.716a.642.642 0 0 0 .642.642h1.716A.642.642 0 0 0 5 20.358zM3.5 2.9a.6.6 0 1 0 .6.6.6.6 0 0 0-.6-.6z"/></svg>