<svg xmlns="http://www.w3.org/2000/svg" viewBox="0 0 32 32"><path d="M29 5v1H11V5zM11 16h18v-1H11zm0 10h18v-1H11zM9 5.5A3.5 3.5 0 115.5 2 3.5 3.5 0 019 5.5zm-1 0A2.5 2.5 0 105.5 8 2.5 2.5 0 008 5.5zM5.5 14A1.5 1.5 0 107 15.5 1.5 1.5 0 005.5 14zM9 15.5A3.5 3.5 0 115.5 12 3.5 3.5 0 019 15.5zm-1-.358A2.142 2.142 0 005.858 13h-.716A2.142 2.142 0 003 15.142v.716A2.142 2.142 0 005.142 18h.716A2.142 2.142 0 008 15.858zM9 25.5A3.5 3.5 0 115.5 22 3.5 3.5 0 019 25.5zm-1 0A2.5 2.5 0 105.5 28 2.5 2.5 0 008 25.5z"/></svg>