<?xml version="1.0" encoding="UTF-8"?><svg id="icons" xmlns="http://www.w3.org/2000/svg" viewBox="0 0 16 16"><defs><style>.cls-1{fill:none;}.cls-1,.cls-2{stroke-width:0px;}</style></defs><rect class="cls-1" y="0" width="16" height="16"/><path class="cls-2" d="M8.06348,4.00562c-2.23804,0-4.05225,1.78833-4.05225,3.99438,0,2.20593,1.81421,3.99438,4.05225,3.99438s3.93652-1.78845,3.93652-3.99438c0-2.20605-1.69849-3.99438-3.93652-3.99438ZM8,11c-1.65405,0-3-1.34589-3-3s1.34595-3,3-3,3,1.34589,3,3-1.34595,3-3,3ZM7,6l3,2-3,2v-4ZM10.00781,13.42133c-2.10596.43817-3.40186,1.37866-6.21509,1.37866C1.42236,14.79999,0,14.08905,0,14.08905L2.13281,1.48828s1.42285.51172,3.16113.51172c2.6875,0,2.72119-.98572,5.41211-.98572,1.73828,0,3.16113.67395,3.16113.67395l1.5,8.86249c-.33105-.21039-.69775-.36755-1.09155-.45734l-1.30005-7.6806c-.49536-.16968-1.33667-.3985-2.26953-.3985-1.17041,0-1.72534.20087-2.36768.43335-.71509.25891-1.52563.55237-3.04443.55237-.90796,0-1.73608-.12628-2.35864-.26007l-1.81079,10.69733c.57397.16846,1.49097.36273,2.66821.36273,1.66895,0,2.74683-.36316,3.88794-.74768.77197-.26007,1.56104-.52527,2.52515-.68927-.11597.33435-.18945.68707-.198,1.05829ZM15.995,13.5c0,1.37795-1.11705,2.495-2.495,2.495s-2.495-1.11705-2.495-2.495,1.11705-2.495,2.495-2.495,2.495,1.11705,2.495,2.495Z"/></svg>