<?xml version="1.0" encoding="UTF-8"?><svg id="icons" xmlns="http://www.w3.org/2000/svg" viewBox="0 0 32 32"><defs><style>.cls-1{fill:none;}.cls-1,.cls-2{stroke-width:0px;}</style></defs><rect class="cls-1" y="0" width="32" height="32"/><path class="cls-2" d="M22.7999,16c0,3.76001-3.03994,6.79999-6.7999,6.79999s-6.7999-3.03998-6.7999-6.79999,3.03994-6.79999,6.7999-6.79999,6.7999,3.03998,6.7999,6.79999ZM21.79991,16c0-3.20001-2.59994-5.79999-5.79991-5.79999s-5.79991,2.59998-5.79991,5.79999,2.59994,5.79999,5.79991,5.79999,5.79991-2.59998,5.79991-5.79999ZM14.00009,12v8l6-4-6-4ZM15.00009,13.86816l3.19727,2.13184-3.19727,2.13184v-4.26367ZM19.03223,26.61975c-1.25073.25494-2.30469.59442-3.33936.92859-1.99268.64355-3.87451,1.25146-7.15527,1.25146-3.00293,0-5.36963-.88623-6.43018-1.36572L5.79492,5.21729c1.0166.30518,2.53906.65088,4.54443.65088,2.50439,0,3.99951-.43018,5.44482-.84668,1.44775-.41699,2.81543-.81055,5.29004-.81055,2.1875,0,4.104.32471,5.0498.51758l2.77515,16.72028c.50024.42932.927.93982,1.26416,1.51025l-3.16333-19.05908s-2.66675-.68884-5.92578-.68884c-5.14429,0-5.927,1.6571-10.73511,1.6571-2.82031,0-4.63989-.73517-5.33911-.96826L1,28s3.09326,1.79999,7.53784,1.79999c5.16992,0,7.11621-1.46918,10.68579-2.19861-.08838-.31818-.15674-.64465-.19141-.98163ZM25,21c-2.76142,0-5,2.23858-5,5s2.23858,5,5,5,5-2.23858,5-5-2.23858-5-5-5Z"/></svg>