<svg id="icons" xmlns="http://www.w3.org/2000/svg" viewBox="0 0 32 32"><defs><style>.cls-1{fill:none;}</style></defs><path d="M24.00012,21A2.99988,2.99988,0,1,0,27,23.99994,3,3,0,0,0,24.00012,21Zm0,4.99976a1.99988,1.99988,0,1,1,1.99982-1.99982A1.99985,1.99985,0,0,1,24.00012,25.99976ZM12.98535,27.80322a3.08023,3.08023,0,0,1,.23731-1.09472l.05957-.16846a3.23136,3.23136,0,0,0,.17968-.75635,1.00026,1.00026,0,0,0-.65332-1.03857,6.16971,6.16971,0,0,0-.61132-.16846c-.84473-.19727-.98536-.40381-1.00489-.44287-.2539-.50586-.1123-.75293.50586-1.34082l.17969-.17383a1.80569,1.80569,0,0,0,.70508-1.24121,1.00039,1.00039,0,0,0-1.3252-.9458l-.15918.05908a1.48665,1.48665,0,0,1-.61035.13525.57722.57722,0,0,1-.624-.48974,1.53078,1.53078,0,0,1,.248-.75879,1.75209,1.75209,0,0,0,.28614-.8916,2.245,2.245,0,0,0-.09473-.59717,1.90641,1.90641,0,0,1-.083-.5166.94135.94135,0,0,1,.8916-.98194c.39747,0,.59571.22706.94239.84522a1.232,1.232,0,0,0,1.19726.62549c.91114,0,1.51563-1.1001,1.51563-1.82764a.674.674,0,0,1,.625-.71289c.09863,0,.27734.15674.40722.271.083.07226.15821.1372.25293.20849a3.49366,3.49366,0,0,0,.29.2002.99747.99747,0,0,0,1.03711-.04492,2.01362,2.01362,0,0,0,.59375-.76319l.11621-.21484a2.14253,2.14253,0,0,1,.61817-.832c1.11133-.59912.85058-1.86572.71191-2.54151l-.01953-.09765a.52182.52182,0,0,1,.1621-.34473.92091.92091,0,0,1,.52735-.33984,1.01053,1.01053,0,0,0,.7002-.41065,1.03053,1.03053,0,0,0,.17871-.80127,2,2,0,0,1-.04883-.35205.62638.62638,0,0,1,.02832-.19238,1.84946,1.84946,0,0,1,.39453-.34131c.10547-.07617.2002-.14648.3125-.2417l.10645-.08935a1.00128,1.00128,0,0,0,.42383-.99756,1.47633,1.47633,0,0,0-.2041-.49854,3.11107,3.11107,0,0,0-.31934-.42383,3.7278,3.7278,0,0,1-.32129-.415c.08691-.34082.85449-.74073,1.47852-1.06592l.2041-.10694A.99084.99084,0,0,0,23.54706,4H28V16.55109l.332-.14923.00281-.00061A.85111.85111,0,0,1,29,16.32239V3H3V29H16.345l.00012-.00635a1.23066,1.23066,0,0,1,.00678-.30285,1.12289,1.12289,0,0,1,.09051-.32068L16.61255,28H12.96606A1.06117,1.06117,0,0,0,12.98535,27.80322Zm-.64752-1.59112-.05756.16247a4.00823,4.00823,0,0,0-.29535,1.42865l-.0119.06262c-.00506.04377-.00982.08936-.01483.13416H4V3.991H22.5589c-1.09839.57678-2.22559,1.10721-2.22559,2.129,0,.47143.65259,1.04742.777,1.26751a1.1576,1.1576,0,0,1,.08972.17774,2.90649,2.90649,0,0,0-.23022.187c-.25134.21411-.80493.507-.96576.98431a1.63672,1.63672,0,0,0-.0846.52136,3.06689,3.06689,0,0,0,.06684.54l.00592.02875a1.90489,1.90489,0,0,0-1.19928.69659,1.42113,1.42113,0,0,0-.37409,1.17469l.02033.10241c.18957.92255.13965,1.27887-.20569,1.46509a3.30606,3.30606,0,0,0-1.13074,1.4361,1.97125,1.97125,0,0,1-.27844.42315c-.0296-.01611-.12945-.09228-.19635-.14306a2.02913,2.02913,0,0,0-1.23566-.66083,1.67249,1.67249,0,0,0-1.625,1.713c0,.29963-.29791.82776-.51544.82776-.26239,0-.29455-.05755-.31146-.08886a2.10732,2.10732,0,0,0-1.82813-1.38209,1.94107,1.94107,0,0,0-1.8916,1.98212,2.90115,2.90115,0,0,0,.11676.77527,1.29319,1.29319,0,0,1,.061.33856.89633.89633,0,0,1-.16168.40961A2.47326,2.47326,0,0,0,8.86438,20.137a1.56332,1.56332,0,0,0,1.62415,1.48957,2.46459,2.46459,0,0,0,.97418-.204c.05078-.01941.08886-.03382.12018-.0448v.00671c0,.11511-.23615.3504-.42487.54-.48071.47906-1.54785,1.28363-.8606,2.65723a2.44933,2.44933,0,0,0,1.67225.96856,5.06087,5.06087,0,0,1,.49682.13458A2.24582,2.24582,0,0,1,12.33783,26.2121Zm17.53192-.34082L32,25.082l-.00787-2.22223-2.20154-.83764-.31842-.84858.9494-2.066L28.84515,17.542l-2.149.96527-.82581-.37677-.78925-2.13031-2.22125.00794-.83764,2.20147-.84858.31843-2.066-.94941L17.542,19.155l.96527,2.14911-.37677.8258-2.13031.78919.00794,2.22125,2.20147.83771.31843.84851-.94941,2.066L19.155,30.45819l2.14911-.96527.82483.37683L22.91815,32l2.22223-.00787.83771-2.20154.84851-.31842,2.066.9494,1.56555-1.57642-.96527-2.149Zm-1.21417,3.3731-1.80939-.83172-1.60791.5896-.75867,1.9942-.89685.00275-.69073-1.8639-1.55475-.72167-1.94525.87323-.63574-.63117.83117-1.80933-.58862-1.607-1.99512-.75964-.00323-.89545,1.86572-.69214.72125-1.55524-.87414-1.94519.63159-.63574,1.8089.83167,1.60791-.5896.75867-1.99414.89636-.00373.69079,1.86573,1.55524.72082,1.94519-.87329.63623.63208L28.413,21.154l.58814,1.60694,1.99512.75964.00323.89636-1.86523.69214-.72223,1.55151.87469,1.948Z"/><rect class="cls-1" width="32" height="32"/></svg>