<?xml version="1.0" encoding="UTF-8"?><svg id="icons" xmlns="http://www.w3.org/2000/svg" viewBox="0 0 24 24"><defs><style>.cls-1{fill:none;}.cls-1,.cls-2{stroke-width:0px;}</style></defs><path class="cls-2" d="M9,6v-1h4v1h-4ZM4,4h4v4h-4v-4ZM5,7h2v-2h-2v2ZM4,9h4v4h-4v-4ZM5,12h2v-2h-2v2ZM4,14h4v4h-4v-4ZM5,17h2v-2h-2v2ZM2,19.2113V2.78943c0-.43597.35345-.78943.78949-.78943h11.42181c.43561,0,.7887.35309.7887.7887v5.2113h1V2.57971c0-.86884-.71088-1.57971-1.57971-1.57971H2.58508c-.87543,0-1.58508.70966-1.58508,1.58508v16.83752c0,.87115.70624,1.57739,1.57739,1.57739h5.42261v-1H2.7887c-.43561,0-.7887-.35315-.7887-.7887ZM24,9v15h-15v-15h15ZM13.72998,23c-.00049-.10449-.00098-.17578-.00098-.18457,0-.31445.06201-.56836.14062-.81055-.32178-.09375-.71191-.26855-.92676-.69824-.30713-.61328-.21094-1.11621-.0166-1.49023-.54395-.18945-.93311-.68457-.93311-1.26465,0-.4248.15674-.72852.29834-.99219-.00537.00781-.01221.01465-.01904.01562-.03223-.12402-.08154-.3125-.08154-.56055,0-.89355.70361-1.62109,1.56885-1.62109.46387,0,.79395.19238,1.0293.42285.18506-.59082.72168-1.01855,1.35254-1.01855.25293,0,.46338.06445.6377.14844.13037-.20215.31738-.43848.60156-.61621-.00684-.09863-.0376-.24902-.0625-.37012-.07227-.36426.03955-.74902.31445-1.08398.08398-.10254.25391-.28418.51074-.41699.00439-.15723.03223-.30566.07422-.41504.08887-.26367.23877-.45508.39844-.61426-.05566-.14453-.10156-.3252-.10156-.54102,0-.3457.1167-.63965.29541-.88867h-8.81006v13h3.72998ZM23,19.81445c-.42236.10352-.49756.10352-.5835.10352h-.60645c-.28906,0-.96582,0-1.53027-.49316-.01172-.00977-.02344-.02051-.03467-.03125-.19922.15625-.46436.28711-.81104.30078-.07471.2793-.22852.49414-.38135.6582.01855.08398.03027.17578.03027.27734,0,.78906-.58594,1.1748-.92773,1.35352l.01172.04785v.13574c0,.00684-.01025.38379-.04053.83301h4.87354v-3.18555ZM23,18.78174v-8.78174h-2.60187c-.48383.26093-.88348.55963-.88348.88867,0,.27246.22406.39844.22406.66797,0,.38525-.46582.48779-.57343.80713-.01538.04095-.02197.08783-.02197.13623,0,.27386.29663.84375-.39771.79242-.16699-.01019-.47906.30768-.44604.47321.07471.37054.24823,1.06781-.34717,1.38867-.48566.26074-.46582.99023-1.0174.99023-.33398,0-.45923-.34717-.79321-.34717-.24164,0-.42188.23145-.42188.47308,0,.35303-.29663.94196-.76904.94196-.25482,0-.47015-.07471-.5954-.29883-.14941-.26514-.28345-.52002-.59552-.52002-.32739,0-.56903.2915-.56903.62103,0,.24023.09888.37653.09888.61969,0,.37207-.29663.54492-.29663.91699,0,.21094.21088.34717.42188.34717.34058,0,.42847-.18311.76678-.14948.2439.02643.323.34283.323.49658,0,.62549-1.06122.8277-.66791,1.61279.15814.31647,1.16449.16705,1.16449.6944,0,.20801-.04828.37793-.10327.5376-.07684.22406-.16919.43353-.16919.7251,0,.0083.00031.08044.00079.18457h2.39429c.02759-.37665.04297-.73029.04297-.83258,0-.01019,0-.01904-.0022-.02783-.00665-.17572-.07471-.28558-.07471-.46875,0-.55804.9931-.48334.9931-1.04144,0-.16699-.14935-.22998-.14935-.39697,0-.40875.54712-.49072.54712-.89948v-.48334c0-.18604.18457-.30469.37134-.30469.21094,0,.30981.15082.52075.15082.46582,0,.50098-.69574.9668-.69574.34717,0,.34058.44824.59546.66943.25049.21967.55591.24902.87451.24902h.60645c.04388,0,.2934-.0614.58374-.13672Z"/><rect class="cls-1" width="24" height="24"/></svg>