<svg id="icons" xmlns="http://www.w3.org/2000/svg" viewBox="0 0 24 24"><defs><style>.cls-1{fill:none;}</style></defs><path d="M10.407,20.97583a2.11791,2.11791,0,0,1,.16968-.75446l.04871-.13989a2.70711,2.70711,0,0,0,.17236-.92212,1.23473,1.23473,0,0,1-.04541-.2962c-.1734-.55737-.83069-.714-1.24872-.81128-.15881-.03705-.39886-.09387-.42865-.0993-.16064-.31946-.08124-.44849.33032-.85914a1.77915,1.77915,0,0,0,.67951-1.25079,1.10688,1.10688,0,0,0-.879-1.17139,1.50233,1.50233,0,0,0-.79053.12726.878.878,0,0,1-.3601.08393.258.258,0,0,1-.14441-.03614.89972.89972,0,0,1,.158-.43945,1.755,1.755,0,0,0,.26983-.88171,2.1261,2.1261,0,0,0-.08575-.56226,1.23625,1.23625,0,0,1-.056-.32849.40065.40065,0,0,1,.35651-.42865c.1444,0,.22741.10919.45123.509a1.32983,1.32983,0,0,0,1.25983.666c.9566,0,1.56756-1.07575,1.56756-1.81574,0-.10467.074-.21478.14441-.21478.07758,0,.14526.0451.29144.15613a1.35642,1.35642,0,0,0,.85016.342,1.40778,1.40778,0,0,0,1.23364-.92145,1.37189,1.37189,0,0,1,.44672-.56042,2.0095,2.0095,0,0,0,.74811-2.41767c.04516-.07489.14892-.18408.14081-.20031a1.0914,1.0914,0,0,0,.943-.29694,1.22405,1.22405,0,0,0,.15613-1.09015.9462.9462,0,0,1-.027-.26355A.92532.92532,0,0,1,17.01935,5.82a1.34089,1.34089,0,0,0,.58929-1.02881,1.37374,1.37374,0,0,0-.22021-.70661.5393.5393,0,0,1-.102-.25451c0-.05139.10064-.37354.92053-.81763L18.23077,3H21v9.07672l.13477-.06012a1.07627,1.07627,0,0,1,.84625-.04187v-9.955H2.02051V21.98022h9.96173a1.23733,1.23733,0,0,1,.06756-.823L12.12213,21h-1.7149Zm-.65521-1.19574-.046.12994a2.98491,2.98491,0,0,0-.2229,1.0658L9.48309,21H3V3H16.70892a1.2772,1.2772,0,0,0-.34655.83,1.37535,1.37535,0,0,0,.22107.70935.5378.5378,0,0,1,.10107.25177c0,.08484-.06317.15252-.26532.3258a1.57813,1.57813,0,0,0-.53607.68677,1.085,1.085,0,0,0-.05414.34381,2.15239,2.15239,0,0,0,.04968.38721c.018.09833.05414.27972.09021.27972a.49568.49568,0,0,1-.21747.01172,1.14931,1.14931,0,0,0-.84112.43775.9717.9717,0,0,0-.26984.86816c.15161.74182.15161,1.18762-.28155,1.42133a2.13831,2.13831,0,0,0-.8122.91961c-.21387.37995-.28247.45124-.42865.45124-.07855,0-.14624-.04511-.29333-.15613a1.35061,1.35061,0,0,0-.84827-.342A1.10648,1.10648,0,0,0,10.9079,11.565c0,.29779-.278.8916-.64343.8916-.34656,0-.41425-.12359-.4657-.21563a1.44988,1.44988,0,0,0-1.24536-.95935A1.31963,1.31963,0,0,0,7.27283,12.6344a2.12637,2.12637,0,0,0,.08569.56226,1.23384,1.23384,0,0,1,.056.32849.89993.89993,0,0,1-.1579.43951,1.754,1.754,0,0,0-.26983.88165,1.01955,1.01955,0,0,0,1.06848.96021,1.78833,1.78833,0,0,0,.69488-.14618.80754.80754,0,0,1,.32306-.08392h.00635a.49642.49642,0,0,1,.08124.26623c0,.176-.15436.343-.408.5965a1.51983,1.51983,0,0,0-.50446,1.92767,1.413,1.413,0,0,0,1.045.58478c.18322.04242.52435.12183.58026.20758A1.80733,1.80733,0,0,1,9.75183,19.78009ZM18,16a2,2,0,1,0,2,2A2,2,0,0,0,18,16Zm0,3a1,1,0,1,1,1-1A1,1,0,0,1,18,19Zm6-.19812v-1.6496l-1.65967-.636-.23553-.65345.70471-1.53778L21.6438,13.15839l-1.624.724-.62775-.296L18.80188,12h-1.6496l-.636,1.65967-.65345.23553-1.54242-.70935-1.16662,1.16669.72766,1.62756-.29511.62781L12,17.19812v1.6496l1.65967.636.23553.65345-.70929,1.54235,1.16663,1.16669,1.62762-.72766.62775.29511L17.19812,24h1.6496l.636-1.65973.65345-.23553,1.54242.70935,1.162-1.17029-.724-1.624.296-.62775Zm-2.23975,2.51221-.41034.413-1.28076-.58844-1.20569.4339L18.31519,23H17.7337L17.243,21.68079l-1.16028-.5448-1.40039.62689-.41119-.41126.59015-1.28247-.4339-1.20569L13,18.31519V17.7337l1.31921-.49066.54474-1.16028-.62683-1.40039.4112-.41119,1.28253.59015,1.20569-.4339L17.68481,13h.58149l.49066,1.31915,1.15851.54395,1.39691-.62164.41211.41125-.58582,1.27985.4339,1.204L23,17.68481v.58149l-1.31921.4906-.54389,1.15857Z"/><rect class="cls-1" width="24" height="24"/></svg>