<svg id="icons" xmlns="http://www.w3.org/2000/svg" viewBox="0 0 16 16"><defs><style>.cls-1{fill:none;}</style></defs><path d="M7.62061,14H6.37518a1.5449,1.5449,0,0,0,.09064-.502c0-.54682-1.04394-.39252-1.208-.72071-.40722-.8125.69336-1.02142.69336-1.67181,0-.16016-.08209-.48828-.334-.51367-.35163-.03522-.44342.15429-.79688.15429a.40582.40582,0,0,1-.4375-.35943c0-.38666.3086-.56635.3086-.95307,0-.25-.10254-.39264-.10254-.64264a.61885.61885,0,0,1,.59082-.64257c.32232,0,.46289.26373.61719.53912a.6421.6421,0,0,0,.61718.30859c.48926,0,.79785-.60943.79785-.97662a.47106.47106,0,0,1,.4375-.48816c.34668,0,.47559.35925.82331.35925.57116,0,.55066-.75579,1.05365-1.02929.61725-.332.4375-1.05268.36035-1.43939-.0332-.16987.2901-.5.46289-.48829.7207.05079.41211-.53912.41211-.82232a.434.434,0,0,1,.02246-.14246c.11133-.33215.59473-.4375.59473-.836,0-.28125-.23243-.41015-.23243-.6933A.653.653,0,0,1,11.36652,2H14V7.6214a1.25263,1.25263,0,0,1,.43457-.09161A1.23622,1.23622,0,0,1,15,7.68427V1H1V15H7.67224A1.242,1.242,0,0,1,7.62061,14ZM2,14V2h8.27777c-.01269.07715-.13129.35645-.13129.43945a1.49638,1.49638,0,0,0,.11133.56739,1.60077,1.60077,0,0,0-.42187.64355,1.42761,1.42761,0,0,0-.07422.44141,1.67592,1.67592,0,0,0-.53613.43066,1.31729,1.31729,0,0,0-.32032,1.09082,3.213,3.213,0,0,1,.06641.41406,1.987,1.987,0,0,0-.64844.669,1.46249,1.46249,0,0,0-.67383-.165A1.44713,1.44713,0,0,0,6.26562,7.61719a1.44276,1.44276,0,0,0-1.08593-.46875A1.61958,1.61958,0,0,0,3.58887,8.791c0,.2539.11346.2929.084.57421s-.29.53479-.29,1.02149a1.371,1.371,0,0,0,.98438,1.29,1.58334,1.58334,0,0,0-.00293,1.54883C4.50684,13.51172,5,14,4.89777,14Zm14.00024-1.44153v-1.117l-1.21691-.47113q-.04981-.13458-.11213-.26276l.53467-1.163-.77118-.76471-1.19354.52673q-.12945-.0596-.26544-.10681L12.532,8H11.44531l-.47094,1.2204q-.13469.04989-.26294.11224L9.5484,8.798l-.76465.77118.52674,1.19348q-.05961.12956-.10688.26551l-1.19976.44372v1.05628l1.19976.44372q.04716.13587.10688.26544l-.52674,1.19349.76465.77124,1.163-.53473q.12817.06225.26294.11224L11.44531,16H12.532l.44373-1.19977q.13586-.04715.26544-.10687l1.19354.52673.77118-.76471-.53467-1.163q.06217-.12809.11213-.26276Zm-1.81756-.16406a2.20519,2.20519,0,0,1-.35456.86139l.36493.793-.16119.15924-.76739-.3858a2.20668,2.20668,0,0,1-.86048.359L12.1015,15h-.22613l-.2696-.81683a2.20525,2.20525,0,0,1-.86175-.3545l-.7926.36475-.15931-.16052.38526-.768a2.20536,2.20536,0,0,1-.35877-.85907l-.81775-.30389v-.20386l.81775-.304a2.20612,2.20612,0,0,1,.35877-.85907l-.38526-.768.15931-.16052.7926.36474a2.20628,2.20628,0,0,1,.86175-.35449L11.87537,9h.22613l.30249.81873a2.20579,2.20579,0,0,1,.86048.359l.76739-.38586.16119.1593-.36493.793a2.20593,2.20593,0,0,1,.35456.86139l.81561.27087v.2472ZM13,12a1,1,0,1,1-1-1A1,1,0,0,1,13,12Z"/><rect class="cls-1" width="16" height="16"/></svg>