<?xml version="1.0" encoding="UTF-8"?><svg id="icons" xmlns="http://www.w3.org/2000/svg" viewBox="0 0 32 32"><defs><style>.cls-1{fill:none;}.cls-1,.cls-2{stroke-width:0px;}</style></defs><path class="cls-2" d="M17,9h-5v-1h5v1ZM11,11h-5v-5h5v5ZM10,7h-3v3h3v-3ZM11,17h-5v-5h5v5ZM10,13h-3v3h3v-3ZM6,18h5v5h-5v-5ZM7,22h3v-3h-3v3ZM3,25.00201V4c0-.55273.44727-1,.99902-1h15.00195c.5517,0,.99902.44727.99902,1v7h1v-6.99219c0-1.10156-.89752-2.00781-2.00098-2.00781H3.99799c-1.1015,0-1.98899.90625-1.98899,2.00781l-.009,20.99017c0,1.10358.89648,2.00201,1.99799,2.00201h8.00201v-1H3.99902c-.55176,0-.99902-.44733-.99902-.99799ZM31,12v18H13V12h18ZM18.88202,29c.00183-.21857.00867-.38446.0213-.41992,0,0,.04688-.13281.04932-.14062-.00684-.00195-.01367-.00293-.02002-.00488-.41943-.09766-1.05273-.24512-1.35107-.8418-.46045-.91895-.12842-1.61719.22314-2.06543-.81152-.05176-1.4541-.68652-1.4541-1.45898,0-.50293.19238-.85547.31934-1.08984.03027-.05469.07129-.13086.07617-.13281,0-.03125-.00928-.06934-.03369-.16211-.0415-.15918-.09814-.37598-.09814-.66406,0-1.00781.78906-1.82812,1.75879-1.82812.85303,0,1.28955.56738,1.55322,1.00781.03174-.06055.05713-.12891.06006-.17188,0-.89941.70068-1.63086,1.5625-1.63086.43213,0,.75342.16895.96973.31543.17627-.31152.44336-.77051.99707-1.06836.06201-.11523-.02637-.5459-.0708-.76074-.07666-.38672.04736-.80176.34912-1.16992.11865-.14453.38818-.42969.76416-.57227-.00488-.0498-.00732-.09668-.00732-.14062,0-.18848.03125-.36816.08154-.50098.13916-.41309.41504-.6709.61768-.8457-.09668-.1875-.2041-.45312-.2041-.80176,0-.11725.1347-.4494.35052-.85156h-11.39642v16h4.88202ZM30,25.25629c-.29681.08221-.60199.14313-.83691.15192-.58234.02179-1.24268-.06934-1.82129-.57715-.0957-.08203-.17529-.1709-.24316-.25977-.24854.26562-.62549.54004-1.18457.54004-.06836,0-.1333-.00488-.19531-.0127-.04688.56055-.37354.91406-.60596,1.12891.04639.12793.08154.28223.08154.46191,0,.99707-.82715,1.40039-1.22461,1.59375-.01416.00684-.03027.01465-.04688.02246.02002.09375.03857.20703.04541.33691.00293.03516.00439.06836.00439.09766,0,.01587.00153.12292.0036.25977h6.02374v-3.74371ZM30,13h-3.32648c-.37006.26263-.62762.54767-.62762.85156,0,.36328.29877.53125.29877.89062,0,.51367-.62109.65039-.76459,1.07617-.02051.05463-.0293.11713-.0293.18164,0,.36517.39551,1.125-.53027,1.05658-.2226-.01361-.63873.41022-.59473.63092.09961.49408.33099,1.42377-.46289,1.85156-.64752.3476-.62109,1.32031-1.35651,1.32031-.44531,0-.6123-.46289-1.05762-.46289-.3222,0-.5625.30859-.5625.6308,0,.4707-.39545,1.25592-1.02539,1.25592-.33978,0-.62689-.09961-.79388-.39844-.19922-.35345-.37793-.69336-.79401-.69336-.43652,0-.75867.38867-.75867.82806,0,.32031.13177.50201.13177.82623,0,.49609-.39551.72656-.39551,1.22266,0,.28125.28119.46295.5625.46295.4541,0,.57129-.2442,1.0224-.19934.3252.03522.43073.45709.43073.66211,0,.83398-1.41504,1.10358-.89062,2.15039.21088.42194,1.55273.22272,1.55273.92584,0,.27734-.06445.50385-.13776.7168-.02423.07074-.04694.14264-.07159.21289h3.13641c.01099-.09833.01733-.18707.01733-.25983,0-.01361,0-.02539-.00305-.03711-.00879-.23425-.09955-.3808-.09955-.625,0-.74408,1.32416-.64447,1.32416-1.38855,0-.22272-.19916-.3067-.19916-.52936,0-.54498.72949-.6543.72949-1.19928v-.64447c0-.24805.24609-.40625.49506-.40625.28131,0,.41315.20111.6944.20111.62115,0,.66791-.92767,1.289-.92767.46295,0,.4541.59772.79401.89258.33405.29291.74121.33203,1.16602.33203h.80859c.00598,0,.02106-.01056.02832-.01215v-11.39606ZM5,5h13v6h1v-7H4v21h8v-1h-7V5Z"/><rect class="cls-1" width="32" height="32"/></svg>