<?xml version="1.0" encoding="UTF-8"?><svg id="icons" xmlns="http://www.w3.org/2000/svg" viewBox="0 0 16 16"><defs><style>.cls-1{fill:none;}.cls-1,.cls-2{stroke-width:0px;}</style></defs><path class="cls-2" d="M2,9h2v2h-2v-2ZM4,6h-2v2h2v-2ZM4,3h-2v2h2v-2ZM8,3h-3v1h3v-1ZM1,12.09088V1.90906c0-.50208.37311-.90906.83331-.90906h6.33337c.46021,0,.83331.40698.83331.90906v3.09094h1V1.79486c0-.98865-.74707-1.79486-1.66669-1.79486H1.66669C.74707,0,0,.80621,0,1.79486v10.41028c0,.9903.74707,1.79486,1.66669,1.79486h3.33331v-1H1.83331c-.46021,0-.83331-.40704-.83331-.90912ZM16,6v10H6V6h10ZM8.9624,15c-.00049-.06445-.00049-.10547-.00049-.10938,0-.08594.00635-.16602.0166-.24023-.16455-.09863-.32568-.24512-.43848-.4707-.11475-.22949-.19873-.52734-.12939-.86914-.29004-.22168-.47607-.56348-.47607-.94727,0-.25977.07178-.4668.14355-.62012-.01563-.0791-.02832-.17676-.02832-.29004,0-.75391.60059-1.36719,1.33887-1.36719.17822,0,.3335.0332.46826.08594.22949-.26855.56641-.43945.94189-.43945.08301,0,.16016.00781.23242.02148.01904-.02051.03906-.04102.06055-.06152-.05566-.33105.04443-.66992.28271-.95703.07227-.08691.15137-.16309.2373-.22852.01062-.04791.0235-.09424.03772-.13757.04407-.12732.10284-.23755.16833-.32825-.01172-.06738-.01904-.14062-.01904-.21875,0-.33301.12402-.60449.29932-.82227h-5.09814v8h1.9624ZM15,13.46094c-.21387.03125-.38867.05273-.45605.05273h-.35938c-.16699,0-.56689,0-.9541-.23047-.05078.02246-.10547.04102-.16309.05664-.02881.05469-.06006.10449-.09229.14941.00049.0127.00049.02637.00049.04004,0,.4082-.17432.74512-.5459,1.01758-.00244.10059-.00684.26465-.01416.45312h2.58447v-1.53906ZM15,12.44897v-5.44897h-1.42133c-.04089.1051-.09583.1969-.17755.25305-.3692.17572-.60236.33093-.60236.56921,0,.16211.1319.23822.1319.39655,0,.22845-.27637.289-.33887.47845-.01068.02344-.01373.05072-.01373.08203,0,.16022.1748.5-.23627.46869-.09863-.0058-.28223.1817-.26373.28131.04492.21869.14752.63086-.20508.82227-.28796.1543-.27728.58594-.60437.58594-.19733,0-.27063-.20514-.46985-.20514-.14246,0-.25.13672-.25.28131,0,.20703-.17578.55664-.45496.55664-.15039,0-.2793-.04492-.3526-.17773-.08789-.15631-.16895-.3067-.35254-.3067-.1944,0-.33887.17194-.33887.36719,0,.14264.05957.22272.05957.36725,0,.22064-.1748.32227-.1748.54297,0,.125.125.20703.25.20703.2002,0,.25293-.10944.4541-.08795.14453.01562.19141.20312.19141.29303,0,.37109-.62891.49017-.39551.95697.09375.1875.68842.09772.68842.41022,0,.12299-.02728.22461-.06049.3183-.04492.13293-.10058.25592-.10058.42969,0,.0036.00018.04926.00043.10944h1.45105c.01154-.27362.01819-.5094.01819-.56049,0-.00403,0-.00983-.00092-.01575-.00299-.10345-.04297-.16986-.04297-.27728,0-.33197.58789-.28711.58789-.61719,0-.09961-.08789-.13672-.08789-.23444,0-.24408.32318-.29285.32318-.5351v-.28516c0-.11133.10944-.17975.21979-.17975.125,0,.18451.08795.30951.08795.27539,0,.29694-.41211.57232-.41211.20508,0,.20118.26556.35248.39648.14954.1308.3291.14648.51959.14648h.35931c.02252,0,.21643-.02777.45612-.0647Z"/><rect class="cls-1" x="0" width="16" height="16"/></svg>