<?xml version="1.0" encoding="UTF-8"?><svg id="icons" xmlns="http://www.w3.org/2000/svg" viewBox="0 0 24 24"><defs><style>.cls-1{fill:none;}.cls-1,.cls-2,.cls-3,.cls-4{stroke-width:0px;}.cls-2{opacity:.5;}.cls-3{opacity:.25;}</style></defs><rect class="cls-1" width="24" height="24"/><path class="cls-4" d="m21,13h-13V3h13v10Zm-12-1h11V4h-11v8Zm14,11H1V1h22v22Zm-21-1h20V2H2v20Z"/><path class="cls-2" d="m15,6h-1v-1h1v1Zm0,1h-1v1h1v-1Zm0,2h-1v1h1v-1Zm0,2h-1v1h1v-1Z"/><path class="cls-3" d="m9,12h5v-1h1v1h5V4h-11v8Zm5-7h1v1h-1v-1Zm0,2h1v1h-1v-1Zm0,2h1v1h-1v-1Z"/></svg>