<?xml version="1.0" encoding="UTF-8"?><svg id="icons" xmlns="http://www.w3.org/2000/svg" viewBox="0 0 32 32"><defs><style>.cls-1{fill:none;}.cls-1,.cls-2{stroke-width:0px;}</style></defs><path class="cls-2" d="M4,28h6v1H3v-7h1v6ZM28,10h1V3h-7v1h6v6ZM4,4h6v-1H3v7h1v-6ZM28.00024,22v6h-6v1h7v-7h-1ZM13,14c.46606,0,.90698-.0954,1.3233-.24261-.11725-.30707-.19745-.6311-.25165-.96393-.33386.12854-.69299.20654-1.07166.20654-1.6543,0-3-1.3457-3-3s1.3457-3,3-3c1.06903,0,2.00262.56616,2.534,1.41022.24231-.23401.50934-.43982.79474-.62152-.71759-1.0766-1.94073-1.7887-3.32874-1.7887-2.20557,0-3.95001,1.79443-3.95001,4s1.74445,4,3.95001,4ZM7,19.5c0-1.92969,1.57031-3.5,3.5-3.5h5c.14923,0,.29138.02588.43573.04407.04175-.00433.08032-.01831.12231-.02167-.39264-.28809-.73639-.63599-1.03168-1.0224h-4.52637c-2.48145,0-4.45001,2.01855-4.45001,4.5l-.04999,4.5h5v-1h-4v-3.5ZM19,8c2.20557,0,4,1.79443,4,4s-1.79443,4-4,4-3.95001-1.79443-3.95001-4,1.74445-4,3.95001-4ZM16,12c0,1.6543,1.3457,3,3,3s3-1.3457,3-3-1.3457-3-3-3-3,1.3457-3,3ZM26,26h-14l.04999-4.5c0-2.48145,1.96857-4.5,4.45001-4.5h5c2.48145,0,4.5,2.01855,4.5,4.5v4.5ZM25,21.5c0-1.92969-1.57031-3.5-3.5-3.5h-5c-1.92969,0-3.5,1.57031-3.5,3.5v3.5h12v-3.5Z"/><rect class="cls-1" width="32" height="32"/></svg>