<?xml version="1.0" encoding="UTF-8"?><svg id="icons" xmlns="http://www.w3.org/2000/svg" viewBox="0 0 24 24"><defs><style>.cls-1{fill:none;}.cls-1,.cls-2{stroke-width:0px;}</style></defs><path class="cls-2" d="M21,16h1v6h-6v-1h5v-5ZM3,16h-1v6h6v-1H3v-5ZM3,3h5v-1H2v6h1V3ZM16,2v1h5v5h1V2h-6ZM18.95,19h-9.95v-2.5c0-1.92969,1.57031-3.5,3.5-3.5h3c1.92969,0,3.45001,1.57031,3.45001,3.5v2.5ZM18,16.5c0-1.37891-1.12109-2.5-2.5-2.5h-3c-1.37891,0-2.5,1.12109-2.5,2.5v1.5h8v-1.5ZM7,8c0,1.6543,1.3457,3,3,3,.18439,0,.36316-.02246.53845-.05444-.17249-.29999-.31525-.61682-.40466-.95911-.04504.00305-.08795.01355-.13379.01355-1.10303,0-2-.89697-2-2s.89697-2,2-2c.39001,0,.75146.11664,1.05945.31042.23126-.25269.48834-.47833.77704-.6651-.50916-.39813-1.14148-.64532-1.83649-.64532-1.6543,0-3,1.3457-3,3ZM8.5,13h1.203c.52576-.41943,1.13928-.73407,1.81793-.88568-.04248-.03394-.07452-.0788-.11566-.11432h-2.90527c-1.92969,0-3.5,1.57031-3.5,3.5v2.5h3v-1h-2v-1.5c0-1.37891,1.12109-2.5,2.5-2.5ZM11,9c0-1.6543,1.3457-3,3-3s2.95001,1.3457,2.95001,3-1.29572,3-2.95001,3-3-1.3457-3-3ZM12,9c0,1.10303.89697,2,2,2s2-.89697,2-2-.89697-2-2-2-2,.89697-2,2Z"/><rect class="cls-1" width="24" height="24"/></svg>