<svg id="icons" xmlns="http://www.w3.org/2000/svg" viewBox="0 0 24 24"><defs><style>.cls-1{fill:none;}</style></defs><path d="M12.49994,6,10,3h2V1h1V3h2ZM14.4527,6l-.80036.96045C13.64,6.97522,13.624,6.98578,13.61121,7H21v5H3V7h8.38879c-.01281-.01422-.0288-.02478-.04113-.03955L10.5473,6H2V19h8.5473l.80036-.96045c.01233-.01477.02832-.02533.04113-.03955H3V13H21v5H13.61121c.01281.01422.0288.02478.04113.03955L14.4527,19H22V6ZM10,22h2v2h1V22h2l-2.49994-3Z"/><rect class="cls-1" width="24" height="24"/></svg>