<svg id="icons" xmlns="http://www.w3.org/2000/svg" viewBox="0 0 32 32"><defs><style>.cls-1{fill:none;}</style></defs><path d="M16.49994,8,14,5h2V2h1V5h2ZM18.4527,8l-.80036.96045C17.64,8.97522,17.624,8.98578,17.61121,9H27v7H5V9H15.38879c-.01281-.01422-.0288-.02478-.04113-.03955L14.5473,8H4V25H14.5473l.80036-.96045c.01233-.01477.02832-.02533.04113-.03955H5V17H27v7H17.61121c.01281.01422.0288.02478.04113.03955L18.4527,25H28V8ZM14,28h2v3h1V28h2l-2.49994-3Z"/><rect class="cls-1" width="32" height="32"/></svg>