<svg xmlns="http://www.w3.org/2000/svg" viewBox="0 0 32 32"><g data-name="light background"><path d="M245-422v831h-651v-831z"/><path d="M225-402v791h-611v-791z"/></g><path d="M3.798 2h23.404A1.798 1.798 0 0 1 29 3.798V27.2a1.8 1.8 0 0 1-1.8 1.8H3.8A1.8 1.8 0 0 1 2 27.2V3.798A1.798 1.798 0 0 1 3.798 2z"/><path d="M3.8 28a.8.8 0 0 1-.8-.8V3.798A.798.798 0 0 1 3.798 3h23.4a.801.801 0 0 1 .802.798V27.2a.801.801 0 0 1-.8.8z"/><path d="M24 15v1H7v-1z"/><path d="M27.198 2h-23.4A1.8 1.8 0 0 0 2 3.798V27.2A1.8 1.8 0 0 0 3.8 29h23.4a1.8 1.8 0 0 0 1.8-1.8V3.798A1.802 1.802 0 0 0 27.198 2zM28 27.2a.801.801 0 0 1-.8.8H3.8a.8.8 0 0 1-.8-.8V3.798A.798.798 0 0 1 3.798 3h23.4a.801.801 0 0 1 .802.798zM7 16v-1h17v1z"/></svg>