<svg xmlns="http://www.w3.org/2000/svg" viewBox="0 0 24 24"><g data-name="light background"><path d="M241-486v831h-651v-831z"/><path d="M221-466v791h-611v-791z"/></g><rect x="2" y="2" width="19" height="19" rx="1.282" ry="1.282"/><rect x="3" y="3" width="17" height="17" rx=".281" ry=".281"/><path d="M18 11v1H5v-1z"/><path d="M19.719 2H3.28A1.281 1.281 0 0 0 2 3.281v16.437A1.282 1.282 0 0 0 3.281 21h16.437A1.282 1.282 0 0 0 21 19.718V3.281A1.281 1.281 0 0 0 19.719 2zM20 19.719a.281.281 0 0 1-.281.281H3.28a.281.281 0 0 1-.28-.281V3.28A.281.281 0 0 1 3.281 3H19.72a.281.281 0 0 1 .281.281zM5 12v-1h13v1z"/></svg>