<?xml version="1.0" encoding="UTF-8"?><svg id="icons" xmlns="http://www.w3.org/2000/svg" viewBox="0 0 24 24"><path d="m6,5h-1v-1h1v1Zm2-1h-1v1h1v-1Zm2,0h-1v1h1v-1Zm-4,4h-1v1h1v-1Zm2,0h-1v1h1v-1Zm2,0h-1v1h1v-1Zm0,4h-1v1h1v-1Zm-4,0h-1v1h1v-1Zm2,0h-1v1h1v-1Zm1.36978,3H2V2h20v11.83368c-.0426-.01312-.08191-.03247-.12549-.04364-.22803-.05957-.46338-.08984-.69824-.08984-.02051,0-.04102.00098-.06152.00098l-.11475-.11475v-2.58643h-1.73776c-.11627-.37354-.30518-.71143-.55566-1h2.29343v-3H3v3h11.29343c-.25049.28857-.43939.62646-.55566,1H3v3h7.34549c-.2019.14618-.42944.35754-.57031.49414-.1582.15369-.28949.32556-.4054.50586ZM3,6h18v-3H3v3Zm15.84998,10.50043l-2.34998,2.35004-2.34998-2.35004,2.34998-2.35004,2.34998,2.35004Zm-2.34998.9361l.93604-.93652-.93604-.93555-.93604.93555.93604.93652Zm4.03855,1.02432l-.65588-.65588-3.03066,2.9991c-.19495.19292-.50893.19278-.70372-.00032l-3.67462-3.64289-1.90088-1.94935c-.33677.32726-.54779.7831-.54779,1.28894,0,.99288.80717,1.80005,1.79959,1.80005.14359,0,.28536-.01721.42442-.05164l2.50303,2.50303c-.03442.1386-.05164.28083-.05164.42397,0,.99288.80717,1.80005,1.79959,1.80005s1.79959-.80717,1.79959-1.80005c0-.14313-.01721-.28536-.05164-.42397l2.2906-2.29105Zm-4.39454-6.32104c.1959-.19796.5158-.1977.71137.00059l5.57182,5.64901c.33677-.32726.54779-.7831.54779-1.28894,0-.82076-.55532-1.53824-1.35117-1.74297-.29034-.07519-.58884-.07519-.87285-.00544l-2.50303-2.50303c.03442-.1386.05164-.28083.05164-.42397,0-.99288-.80717-1.80005-1.79959-1.80005s-1.79959.80717-1.79959,1.80005c0,.14313.01721.28536.05164.42397l-2.06774,2.0682.65588.65588,2.80383-2.83329Z"/><path fill="none" d="M0 0h24v24H0z"/></svg>