<?xml version="1.0" encoding="UTF-8"?><svg id="icons" xmlns="http://www.w3.org/2000/svg" viewBox="0 0 32 32"><path d="m8,13h-2v-1h2v1Zm3-1h-2v1h2v-1Zm3,0h-2v1h2v-1Zm-6,6h-2v1h2v-1Zm3,0h-2v1h2v-1Zm3,0h-2v1h2v-1Zm-6-12h-2v1h2v-1Zm3,0h-2v1h2v-1Zm3,0h-2v1h2v-1Zm-1.2951,16H3V3h26v15.8504c-.1651-.02264-.3288-.0506-.5-.0506-.07227,0-.14453.00293-.21777.00781l-.28223-.28223v-2.52539h-1.72607c-.04803-.35065-.13446-.68756-.27393-1h2v-5H4v5h15c-.13947.31244-.22589.64935-.27393,1H4v5h9c-.14545.31921-.24719.65283-.2951,1ZM4,9h24v-5H4v5Zm18.5,17l-3.5-3.5,3.5-3.5,3.5,3.5-3.5,3.5Zm-2.08594-3.5l2.08594,2.08594,2.08594-2.08594-2.08594-2.08594-2.08594,2.08594Zm8.08594-2.5c-.21948,0-.42859.03723-.63141.09039l-2.95898-2.95898c.05316-.20288.09039-.41193.09039-.63141,0-1.38074-1.11926-2.5-2.5-2.5s-2.5,1.11926-2.5,2.5c0,.21948.03723.42853.09039.63141l-2.95898,2.95898-.02051.02051.70697.70697,3.45728-3.45728c-.70184-.99563.02005-2.3606,1.22485-2.3606,1.20354,0,1.92763,1.36365,1.22485,2.3606l3.91455,3.91455c.33534-.23639.75072-.33127,1.17236-.24158.97123.20624,1.50312,1.30466.98743,2.2066l.75201.68408c.28149-.40448.44879-.8941.44879-1.42426,0-1.38074-1.11926-2.5-2.5-2.5Zm-1.56818,4.43243l-3.20697,3.20697c.23637.33532.33127.75069.24158,1.1723-.14658.68993-.7611,1.18829-1.46643,1.18829-1.21311,0-1.9238-1.36907-1.22485-2.3606l-3.91455-3.91455c-1.34143.94561-3.05564-.58197-2.07629-1.97549l-.71674-.71674c-.34943.42999-.54757.87009-.54757,1.46738,0,1.38068,1.09926,2.5,2.48,2.5.21954,0,.42859-.03723.63141-.09039l2.95898,2.95892c-.05316.20288-.09039.41193-.09039.63147,0,1.38068,1.11926,2.5,2.5,2.5s2.5-1.11932,2.5-2.5c0-.21954-.03723-.42859-.09039-.63147l2.95898-2.95892.02051-.02051-.70697-.70697-.25031.25031Z"/><path fill="none" d="M0 0h32v32H0z"/></svg>