<svg xmlns="http://www.w3.org/2000/svg" viewBox="0 0 24 24"><path d="M18.654 0H8.346A2.346 2.346 0 0 0 6 2.346v19.308A2.346 2.346 0 0 0 8.346 24h10.308A2.346 2.346 0 0 0 21 21.654V2.346A2.346 2.346 0 0 0 18.654 0zM7 4h13v15H7zm13 17.654A1.347 1.347 0 0 1 18.654 23H8.346A1.347 1.347 0 0 1 7 21.654V20h13zM7 3v-.654A1.347 1.347 0 0 1 8.346 1h10.308A1.347 1.347 0 0 1 20 2.346V3zm8 18.794a.206.206 0 0 1-.206.206h-2.588a.206.206 0 0 1-.206-.206v-.588a.206.206 0 0 1 .206-.206h2.588a.206.206 0 0 1 .206.206z"/></svg>