<svg xmlns="http://www.w3.org/2000/svg" viewBox="0 0 16 16"><path d="M14.998 2a2.016 2.016 0 0 0-2.015-2H7.017a2.016 2.016 0 0 0-2.015 2H5v11.983A2.017 2.017 0 0 0 7.017 16h5.966A2.017 2.017 0 0 0 15 13.983V2zm-7.98-1h5.964a1.016 1.016 0 0 1 1.015 1H6.004a1.016 1.016 0 0 1 1.014-1zM14 13.983A1.018 1.018 0 0 1 12.982 15h-2.188a.206.206 0 0 0 .206-.206v-.588a.206.206 0 0 0-.206-.206H9.206a.206.206 0 0 0-.206.206v.588a.206.206 0 0 0 .206.206H7.018A1.018 1.018 0 0 1 6 13.983V13h8zM14 12H6V3h8z"/></svg>