<svg xmlns="http://www.w3.org/2000/svg" viewBox="0 0 32 32"><path d="M23.104 0H9.896A2.896 2.896 0 0 0 7 2.896v26.208A2.896 2.896 0 0 0 9.896 32h13.208A2.896 2.896 0 0 0 26 29.104V2.896A2.896 2.896 0 0 0 23.104 0zM8 5h17v20H8zm17 24.104A1.898 1.898 0 0 1 23.104 31H9.896A1.898 1.898 0 0 1 8 29.104V26h17zM8 4V2.896A1.898 1.898 0 0 1 9.896 1h13.209A1.898 1.898 0 0 1 25 2.896V4zm6.283 26h4.434a.283.283 0 0 0 .283-.283v-2.434a.283.283 0 0 0-.283-.283h-4.434a.283.283 0 0 0-.283.283v2.434a.283.283 0 0 0 .283.283zM15 28h3v1h-3zM14 2h5v1h-5z"/></svg>