<?xml version="1.0" encoding="UTF-8"?><svg id="icons" xmlns="http://www.w3.org/2000/svg" viewBox="0 0 32 32"><defs><style>.cls-1{fill:none;}.cls-1,.cls-2{stroke-width:0px;}</style></defs><path class="cls-2" d="M26.5,12.09998c-2.25513,0-4.0976,1.7113-4.34949,3.90002h-3.15051v-3h-6.29297l-2.77747-2.77747c.59796-.75146.97046-1.6897.97046-2.72253,0-2.42633-1.97369-4.40002-4.40002-4.40002s-4.40002,1.97369-4.40002,4.40002,1.97369,4.39996,4.40002,4.39996c1.03284,0,1.97107-.3725,2.72253-.9704l2.77747,2.77747v5.55469l-2.79456,2.79456c-.74872-.58966-1.6806-.9563-2.70544-.9563-2.42633,0-4.40002,1.97369-4.40002,4.40002s1.97369,4.39996,4.40002,4.39996,4.40002-1.97369,4.40002-4.39996c0-1.04083-.37823-1.98553-.98456-2.73969l2.76031-2.76031h6.32422v-3h3.15051c.18182,1.57977,1.19861,2.8999,2.59491,3.51825l.59735-.59735c.02386-.02386.0567-.03406.08264-.05524-1.43018-.45856-2.4754-1.7854-2.4754-3.36566,0-1.95728,1.59271-3.54999,3.54999-3.54999s3.54999,1.59271,3.54999,3.54999c0,.57239-.14905,1.10583-.39075,1.58514l.62384.62402c.3822-.65179.61694-1.40045.61694-2.20917,0-2.42633-1.97369-4.40002-4.40002-4.40002ZM6.5,11.04999c-1.95728,0-3.54999-1.59277-3.54999-3.54999s1.59271-3.54999,3.54999-3.54999,3.54999,1.59271,3.54999,3.54999-1.59271,3.54999-3.54999,3.54999ZM10.04999,25.5c0,1.95721-1.59271,3.54999-3.54999,3.54999s-3.54999-1.59277-3.54999-3.54999,1.59271-3.54999,3.54999-3.54999,3.54999,1.59271,3.54999,3.54999ZM18,19h-5v-5h5v5ZM19.12457,27.71436l1.80823,1.80719-3.15088,1.34943,1.34265-3.15662ZM26.04993,20.62769l1.9209,1.92188-5.76312,5.7641-1.92145-1.92188,5.76367-5.7641ZM30.12799,19.96826c.11713.11713.12048.30371.00751.41681l-1.02734,1.02808-1.92163-1.92163,1.02753-1.02783c.05426-.05432.12872-.08405.20691-.08264.07812.0014.15369.03375.20996.09003l1.49707,1.49719Z"/><rect class="cls-1" width="32" height="32"/></svg>