<?xml version="1.0" encoding="UTF-8"?><svg id="icons" xmlns="http://www.w3.org/2000/svg" viewBox="0 0 16 16"><defs><style>.cls-1{fill:none;}.cls-1,.cls-2{stroke-width:0px;}</style></defs><path class="cls-2" d="M13.5,6c-1.20721,0-2.2171.86005-2.4494,2h-2.0506v-1h-2.29297l-2.12347-2.12347c.26196-.3952.41644-.86774.41644-1.37653,0-1.37891-1.12158-2.5-2.5-2.5S0,2.12109,0,3.5s1.12158,2.5,2.5,2.5c.50867,0,.98126-.15448,1.37653-.41644l2.12347,2.12347v1.55469l-2.14368,2.14368c-.39136-.25427-.85583-.4054-1.35632-.4054-1.37842,0-2.5,1.12109-2.5,2.5s1.12158,2.5,2.5,2.5,2.45-1.12109,2.45-2.5c0-.51703-.10765-.9978-.37743-1.39679l2.10321-2.10321h2.32422v-1h2.0506c.07678.37683.245.71814.47076,1.01288l.70276-.71405c.00238-.00238.00562-.0033.008-.00568-.14484-.23071-.23212-.50122-.23212-.79315,0-.82715.67285-1.5,1.5-1.5.5907,0,1.09772.34613,1.34222.84357.06006.03851.12598.0672.17731.11835l.93982.94025c.02155-.13171.04065-.2644.04065-.40216,0-1.37891-1.12158-2.5-2.5-2.5ZM2.5,5c-.82715,0-1.5-.67285-1.5-1.5s.67285-1.5,1.5-1.5,1.5.67285,1.5,1.5-.67285,1.5-1.5,1.5ZM2.5,15c-.82715,0-1.5-.67285-1.5-1.5s.67285-1.5,1.5-1.5,1.5.67285,1.5,1.5-.67285,1.5-1.5,1.5ZM8,9h-1v-1h1v1ZM12.93719,10l1.06281,1.04907-4,3.95093-2,1,1-2,3.93719-4ZM14.31201,8.66919l.99738.99731-.64526.64758-.99738-.99731.64526-.64758Z"/><rect class="cls-1" width="16" height="16"/></svg>