<?xml version="1.0" encoding="UTF-8"?><svg id="icons" xmlns="http://www.w3.org/2000/svg" viewBox="0 0 16 16"><defs><style>.cls-1{fill:none;}.cls-1,.cls-2{stroke-width:0px;}</style></defs><path class="cls-2" d="M6.5,8.79291l.70709.70709-.70709.70709-.70709-.70709.70709-.70709ZM9.20709,7.5l-.70709-.70709-.70709.70709.70709.70709.70709-.70709ZM9.78577,5.50708l.70715.70709.70709-.70709-.70709-.70709-.70715.70709ZM3,9h1v-1h-1v1ZM4,6h-1v1h1v-1ZM15,7h1v-3h-1v3ZM1,4H0v3h1v-3ZM1,9H0v3h1v-3ZM15,2h1V0h-2v1h1v1ZM12,0h-3v1h3V0ZM4,16h3v-1h-3v1ZM7,0h-3v1h3V0ZM1,14H0v2h2v-1h-1v-1ZM1,1h1V0H0v1c0,.52881,0,1.05707,0,1h1v-1ZM12,2h1c.55231,0,1,.44769,1,1v1c0,.55225-.44769,1-1,1h-1c-.55231,0-1-.44775-1-1v-1c0-.55231.44769-1,1-1ZM13,3h-1v1h1v-1ZM2,3c0-.55231.44769-1,1-1h1c.55231,0,1,.44769,1,1v1c0,.55225-.44769,1-1,1h-1c-.55231,0-1-.44775-1-1v-1ZM3,4h1v-1h-1v1ZM4.5,14h-1c-.82843,0-1.5-.67157-1.5-1.5v-1c0-.82843.67157-1.5,1.5-1.5h1c.82843,0,1.5.67157,1.5,1.5v1c0,.82843-.67157,1.5-1.5,1.5ZM3.5,13h1c.27539,0,.5-.22461.5-.5v-1c0-.27539-.22461-.5-.5-.5h-1c-.27539,0-.5.22461-.5.5v1c0,.27539.22461.5.5.5ZM14.78333,13.02966c-.0332.08972-.07068.17737-.11212.26276l.53467,1.16296-.77118.76471-1.19354-.52673c-.0863.03973-.17487.07544-.26544.10687l-.44373,1.19977h-1.08667l-.47095-1.22046c-.08978-.03326-.17749-.07074-.26294-.11224l-1.16302.53473-.76465-.77124.52673-1.19348c-.03973-.0863-.07544-.17487-.10687-.26544l-1.19977-.44373v-1.05627l1.19977-.44373c.03143-.09058.06714-.17914.10687-.2655l-.52673-1.19348.76465-.77118,1.16302.53467c.08545-.04144.17316-.07898.26294-.11224l.47095-1.2204h1.08667l.44373,1.19977c.09058.03143.17914.06708.26544.10681l1.19354-.52673.77118.76471-.53467,1.16302c.04144.08539.07892.17303.11212.26276l1.21692.47113v1.117l-1.21692.47119ZM14.99829,12.1236v-.24719l-.81561-.27087c-.05658-.31525-.17981-.60742-.35455-.86139l.36493-.79297-.16119-.1593-.7674.38586c-.25336-.17621-.54529-.30096-.86047-.35901l-.30249-.81873h-.22614l-.26959.81677c-.31543.05652-.60767.17975-.86176.35449l-.7926-.36475-.1593.16052.38525.76801c-.17596.25305-.3006.54443-.35876.85907l-.81775.30396v.20386l.81775.30389c.05817.3147.1828.60608.35876.85907l-.38525.76801.1593.16052.7926-.36475c.25409.1748.54633.29797.86176.35449l.26959.81683h.22614l.30249-.81873c.31519-.05811.60712-.1828.86047-.35901l.7674.3858.16119-.15924-.36493-.79303c.17474-.25391.29797-.54608.35455-.86139l.81561-.27081ZM12,11c-.55231,0-1,.44769-1,1,0,.55225.44769,1,1,1s1-.44775,1-1c0-.55231-.44769-1-1-1Z"/><rect class="cls-1" width="16" height="16"/></svg>