<?xml version="1.0" encoding="UTF-8"?><svg id="icons" xmlns="http://www.w3.org/2000/svg" viewBox="0 0 24 24"><defs><style>.cls-1{fill:none;}.cls-1,.cls-2{stroke-width:0px;}</style></defs><path class="cls-2" d="M6,20.99982h2v1h-2v-1ZM22,5.99982h-1v2h1v-2ZM13,2.00018h-2v1h2v-1ZM18,2.00018h-2v1h2v-1ZM8,2.00018h-2v1h2v-1ZM3,16.00018h-1v2h1v-2ZM3,11.00018h-1v2h1v-2ZM3,6.00018h-1v2h1v-2ZM2,4h1v-1h1v-1h-2v2ZM21,4h1v-2h-2v1h1v1ZM3,20h-1v2h2v-1h-1v-1ZM7,13h1v-1h-1v1ZM8,9h-1v1h1v-1ZM10.5,12.79291l-.70709.70709.70709.70709.70709-.70709-.70709-.70709ZM11.79291,11.5l.70709.70709.70709-.70709-.70709-.70709-.70709.70709ZM15.20001,9.50708l-.70709-.70709-.70715.70709.70715.70709.70709-.70709ZM6,7v-1c0-.55231.44769-1,1-1h1c.55231,0,1,.44769,1,1v1c0,.55225-.44769,1-1,1h-1c-.55231,0-1-.44775-1-1ZM7,7h1v-1h-1v1ZM16,7v-1c0-.55231.44769-1,1-1h1c.55231,0,1,.44769,1,1v1c0,.55225-.44769,1-1,1h-1c-.55231,0-1-.44775-1-1ZM17,7h1v-1h-1v1ZM10,15.79999v1.40002c0,.99408-.80591,1.79999-1.79999,1.79999h-1.40002c-.99408,0-1.79999-.80591-1.79999-1.79999v-1.40002c0-.99414.80591-1.79999,1.79999-1.79999h1.40002c.99408,0,1.79999.80585,1.79999,1.79999ZM9,15.7998c0-.44141-.3584-.7998-.7998-.7998h-1.40039c-.44141,0-.7998.3584-.7998.7998v1.40039c0,.44141.3584.7998.7998.7998h1.40039c.44141,0,.7998-.3584.7998-.7998v-1.40039ZM20,18c0,1.10455-.89545,2-2,2s-2-.89545-2-2c0-1.10461.89545-2,2-2s2,.89539,2,2ZM19,18c0-.55231-.44769-1-1-1s-1,.44769-1,1c0,.55225.44769,1,1,1s1-.44775,1-1ZM22.41364,19.39209l-.29602.62775.724,1.62396-1.16205,1.17029-1.54242-.70935-.65344.23553-.63599,1.65973h-1.6496l-.59021-1.58636-.62775-.2951-1.62762.72766-1.16663-1.16669.70929-1.54236-.23553-.65344-1.65967-.63599v-1.6496l1.58636-.59021.2951-.62781-.72766-1.62756,1.16663-1.16669,1.54242.70935.65344-.23553.63599-1.65967h1.6496l.59021,1.58636.62775.29602,1.62396-.724,1.16571,1.16663-.70471,1.53778.23553.65344,1.65967.63605v1.6496l-1.58636.59021ZM21.1369,19.91547l.54388-1.15857,1.31921-.4906v-.58148l-1.42743-.54828-.4339-1.20398.58582-1.27985-.41211-.41125-1.39691.62164-1.15851-.54395-.49066-1.31915h-.58148l-.54828,1.42743-1.20569.4339-1.28253-.59015-.41119.41119.62683,1.40039-.54474,1.16028-1.31921.49066v.58148l1.42743.54828.4339,1.20569-.59015,1.28247.41119.41125,1.40039-.62689,1.16028.5448.49066,1.31921h.58148l.54828-1.42749,1.20569-.4339,1.28076.58844.41034-.41296-.62335-1.39862ZM21,12h1v-1h-1v1ZM11,22h1v-1h-1v1Z"/><rect class="cls-1" width="24" height="24"/></svg>