<?xml version="1.0" encoding="UTF-8"?><svg id="icons" xmlns="http://www.w3.org/2000/svg" viewBox="0 0 32 32"><defs><style>.cls-1{fill:none;}.cls-1,.cls-2{stroke-width:0px;}</style></defs><path class="cls-2" d="M7,27.99982h2v1h-2v-1ZM11,28.99982h2v-1h-2v1ZM15.00012,28.99994h1v-1h-1v1ZM29,6.99982h-1v2h1v-2ZM28,12.99982h1v-2h-1v2ZM25,3h-2v1h2v-1ZM21,3h-2v1h2v-1ZM13,3h-2v1h2v-1ZM17,3h-2v1h2v-1ZM9,3h-2v1h2v-1ZM4,23h-1v2h1v-2ZM4,19h-1v2h1v-2ZM4,11h-1v2h1v-2ZM4,15h-1v2h1v-2ZM4,7h-1v2h1v-2ZM3,4.99982h1v-1h1v-1h-2v2ZM28,5h1v-2h-2v1h1v1ZM4,27h-1v2h2v-1h-1v-1ZM12.991,22.5c0,1.92999-1.56101,3.5-3.491,3.5s-3.5-1.57001-3.5-3.5,1.57001-3.5,3.5-3.5,3.491,1.57001,3.491,3.5ZM11.991,22.5c0-1.38-1.111-2.5-2.491-2.5s-2.5,1.12-2.5,2.5,1.12,2.5,2.5,2.5,2.491-1.12,2.491-2.5ZM9,18h1v-2h-1v2ZM10,12h-1v2h1v-2ZM16.64642,16.06067l1.41425-1.41425-.70709-.70709-1.41425,1.41418.70709.70715ZM21.06067,11.64642l-.70709-.70709-1.41425,1.41418.70709.70715,1.41425-1.41425ZM14.35358,16.93933l-1.41425,1.41418.70709.70715,1.41425-1.41425-.70709-.70709ZM21,7.79999c0-.99414.80591-1.79999,1.79999-1.79999h1.40002c.99408,0,1.79999.80585,1.79999,1.79999v1.40002c0,.99408-.80591,1.79999-1.79999,1.79999h-1.40002c-.99408,0-1.79999-.80591-1.79999-1.79999v-1.40002ZM22,9.2002c0,.44141.3584.7998.7998.7998h1.40039c.44141,0,.7998-.3584.7998-.7998v-1.40039c0-.44141-.3584-.7998-.7998-.7998h-1.40039c-.44141,0-.7998.3584-.7998.7998v1.40039ZM7,9.20001v-1.40002c0-.99414.80591-1.79999,1.79999-1.79999h1.40002c.99408,0,1.79999.80585,1.79999,1.79999v1.40002c0,.99408-.80591,1.79999-1.79999,1.79999h-1.40002c-.99408,0-1.79999-.80591-1.79999-1.79999ZM8,9.2002c0,.44141.3584.7998.7998.7998h1.40039c.44141,0,.7998-.3584.7998-.7998v-1.40039c0-.44141-.3584-.7998-.7998-.7998h-1.40039c-.44141,0-.7998.3584-.7998.7998v1.40039ZM29.49292,25.69604l.96521,2.14905-1.56555,1.57648-2.06598-.94946-.84857.31848-.83765,2.20148-2.22223.00793-.78925-2.13031-.82483-.37677-2.14905.96521-1.57642-1.56555.9494-2.06598-.31848-.84857-2.20148-.83765-.00787-2.22125,2.13025-.78925.37683-.82581-.96527-2.14905,1.56555-1.57648,2.06598.94946.84857-.31848.83771-2.20148,2.22125-.00793.78918,2.13031.82581.37677,2.14905-.96521,1.57648,1.56555-.9494,2.06598.31842.84857,2.20148.83765.00793,2.22229-2.13031.78918-.37677.82483ZM29.28668,27.60858l-.87463-1.948.72217-1.55157,1.8653-.69214-.00323-.89636-1.99512-.75958-.5882-1.60699.83124-1.80847-.63623-.63208-1.94519.87329-1.5553-.72076-.69073-1.86578-.89636.00372-.75867,1.9942-1.60791.58954-1.8089-.83167-.63165.63574.87421,1.94525-.72125,1.55524-1.86572.69214.00323.89545,1.99512.75958.58862,1.60699-.83124,1.80939.6358.6311,1.94519-.87323,1.55481.72168.69073,1.86389.89685-.00275.75867-1.9942,1.60791-.58954,1.80939.83167.6311-.63574ZM26.90002,23c0,1.60162-1.2984,2.89996-2.90002,2.89996s-2.90002-1.29834-2.90002-2.89996,1.2984-2.89996,2.90002-2.89996,2.90002,1.29834,2.90002,2.89996ZM25.93323,23c0-1.06769-.86554-1.93329-1.93323-1.93329s-1.93323.8656-1.93323,1.93329c0,1.06775.86554,1.93329,1.93323,1.93329s1.93323-.86554,1.93323-1.93329Z"/><rect class="cls-1" width="32" height="32"/></svg>