<svg id="icons" xmlns="http://www.w3.org/2000/svg" viewBox="0 0 24 24"><defs><style>.cls-1{fill:none;}</style></defs><rect class="cls-1" width="24" height="24"/><path d="M19,20v1H16v3H15V21H12V20h3V17h1v3Zm.5-10.973A3.4665,3.4665,0,0,0,16.05042,12H14V10H9.70215l-2.413-2.413A3.4491,3.4491,0,0,0,7.955,5.5a3.45506,3.45506,0,1,0-6.91,0A3.43891,3.43891,0,0,0,4.5,8.973a3.43414,3.43414,0,0,0,2.08331-.67777L9,10.71191v3.73243L6.66882,16.77551l.00043.00037A3.42381,3.42381,0,0,0,4.5,16.036a3.39918,3.39918,0,1,0,2.85962,1.46278L9.8584,15H14V13h2.05042A3.47059,3.47059,0,1,0,19.5,9.027ZM4.5,7.973A2.43906,2.43906,0,0,1,2.045,5.5a2.45954,2.45954,0,1,1,4.919,0A2.44658,2.44658,0,0,1,4.5,7.973Zm0,14.009A2.473,2.473,0,1,1,6.973,19.5,2.44665,2.44665,0,0,1,4.5,21.982ZM13,14H10V11h3Zm6.5.964A2.4685,2.4685,0,1,1,21.964,12.5,2.439,2.439,0,0,1,19.5,14.964Z"/></svg>