<svg xmlns="http://www.w3.org/2000/svg" viewBox="0 0 32 32"><path d="M5.828 3H29v23.172l-1-1v-4.274c-.07.026-.142.053-.207.079a2.616 2.616 0 01-.902.248h-1.108l-.493.007a2.366 2.366 0 01-1.674-.545 2.62 2.62 0 01-.582-.805l-.104.147-.032.04-.715-.714.034-.048a1.013 1.013 0 01.815-.419.88.88 0 01.071.003.998.998 0 01.818.53 1.728 1.728 0 00.355.515 1.397 1.397 0 001.014.296l.48-.006h1.12a3.176 3.176 0 00.54-.181l.218-.084a1.009 1.009 0 01.352-.063V4h-4.453a.99.99 0 01-.524.885l-.204.107c-.624.325-1.391.725-1.478 1.066a3.728 3.728 0 00.321.415 3.111 3.111 0 01.32.424 1.476 1.476 0 01.204.498 1.001 1.001 0 01-.424.998l-.107.09a4.766 4.766 0 01-.312.241 1.85 1.85 0 00-.395.341.626.626 0 00-.028.193 2 2 0 00.049.352 1.03 1.03 0 01-.179.801 1.01 1.01 0 01-.7.41.92.92 0 00-.528.34.522.522 0 00-.162.345l.02.098c.139.676.4 1.942-.712 2.541a2.143 2.143 0 00-.618.832l-.1.185-.738-.738a2.669 2.669 0 01.981-1.159c.346-.186.396-.542.206-1.465l-.02-.102a1.421 1.421 0 01.374-1.175 1.905 1.905 0 011.2-.696l-.007-.03a3.067 3.067 0 01-.067-.54 1.637 1.637 0 01.085-.52c.16-.478.714-.77.966-.985a2.906 2.906 0 01.23-.187 1.158 1.158 0 00-.09-.178c-.124-.22-.777-.796-.777-1.267 0-1.022 1.128-1.543 2.226-2.12H6.829zm19.344 25H18.28a5.86 5.86 0 00.33-1.434v-.606l-.384-.175a1.242 1.242 0 00.007-.127c.026-.019.217-.127.343-.198a1.961 1.961 0 001.226-1.707 1.35 1.35 0 00-.268-.794c.04-.045.096-.101.138-.143.046-.046.1-.106.152-.164l-.714-.714c-.05.059-.09.115-.154.179-.05.051-.116.118-.165.172a1 1 0 00-.071 1.251.352.352 0 01.082.213c0 .368-.23.562-.718.836a12.11 12.11 0 00-.427.25 1.02 1.02 0 00-.425.83 1.002 1.002 0 00.378.905 7.819 7.819 0 01-.286 1.133.976.976 0 00-.018.293h-4.34a1.061 1.061 0 00.02-.197 3.08 3.08 0 01.237-1.095l.06-.168a3.231 3.231 0 00.179-.756 1 1 0 00-.653-1.039 6.17 6.17 0 00-.612-.168c-.844-.198-.985-.404-1.005-.443-.254-.506-.112-.753.506-1.341l.18-.174a1.806 1.806 0 00.705-1.241 1 1 0 00-1.325-.946l-.16.06a1.487 1.487 0 01-.61.134.577.577 0 01-.624-.49 1.53 1.53 0 01.248-.758 1.752 1.752 0 00.286-.892 2.245 2.245 0 00-.094-.597 1.906 1.906 0 01-.083-.516.941.941 0 01.891-.982c.398 0 .596.227.943.845a1.232 1.232 0 001.197.625 1.387 1.387 0 001.11-.671l-.726-.726c-.107.212-.256.398-.384.398-.263 0-.295-.058-.312-.09a2.107 2.107 0 00-1.828-1.381 1.941 1.941 0 00-1.891 1.982 2.901 2.901 0 00.116.775 1.293 1.293 0 01.061.339.896.896 0 01-.161.41 2.473 2.473 0 00-.373 1.24 1.563 1.563 0 001.625 1.49 2.465 2.465 0 00.974-.204 4.9 4.9 0 01.12-.045v.006c0 .116-.236.35-.425.54-.48.48-1.548 1.284-.86 2.658a2.45 2.45 0 001.672.968 5.06 5.06 0 01.496.135 2.246 2.246 0 01-.128.527l-.058.163a4.008 4.008 0 00-.295 1.428l-.012.063-.015.134H4V6.828l-1-1V29h23.172zm5.474 3.354l-30-30 .707-.707 30 30z"/></svg>