<svg xmlns="http://www.w3.org/2000/svg" viewBox="0 0 24 24"><path d="M19.152 21.98H2.021V4.85l8.489 8.49a1.119 1.119 0 01-.245.042 1.33 1.33 0 01-1.26-.666c-.224-.4-.307-.51-.452-.51a.4.4 0 00-.356.43 1.236 1.236 0 00.056.328 2.126 2.126 0 01.086.562 1.755 1.755 0 01-.27.882.9.9 0 00-.158.44.258.258 0 00.144.035.878.878 0 00.36-.083 1.502 1.502 0 01.79-.128 1.107 1.107 0 01.88 1.172 1.78 1.78 0 01-.68 1.25c-.411.411-.49.54-.33.86.03.005.27.062.429.099.484.113 1.294.302 1.294 1.107a2.708 2.708 0 01-.173.922l-.048.14a2.118 2.118 0 00-.17.755V21h3.478l.117-.268c.274-.63.31-.716.31-.89a1.084 1.084 0 00-.288-.655c-.038-.05-.087-.13-.108-.117a1.41 1.41 0 01.422-.158 1.398 1.398 0 001.032-.714zm-5.035-10.69a3.137 3.137 0 00.235-.362 1.372 1.372 0 01.446-.56 2.01 2.01 0 00.749-2.418c.045-.075.148-.184.14-.2a1.091 1.091 0 00.943-.297 1.224 1.224 0 00.156-1.09.946.946 0 01-.027-.264.925.925 0 01.26-.278 1.34 1.34 0 00.59-1.029 1.374 1.374 0 00-.22-.706.54.54 0 01-.103-.255c0-.051.101-.373.921-.818L18.231 3H21v13.535a2.764 2.764 0 00-.306.034 3.36 3.36 0 01-.51.052 2.337 2.337 0 01-1.44-.704l3.237 3.236V2.02H4.848zm8.53 12.065l-22-22 .706-.707 22 22z"/></svg>