<svg xmlns="http://www.w3.org/2000/svg" viewBox="0 0 32 32"><path d="M26 0a5.994 5.994 0 00-4.578 9.87L9.87 21.423a6.014 6.014 0 10.707.707L22.13 10.577A5.998 5.998 0 1026 0zm3.853 2.853a4.983 4.983 0 01.623.963l-6.66 6.66a4.986 4.986 0 01-.962-.622zm-2.706-1.707l-6.001 6.002A4.958 4.958 0 0121 6c0-.112.026-.216.033-.326l4.642-4.641c.11-.007.214-.033.325-.033a4.956 4.956 0 011.147.146zm-3.433.433L21.58 3.713a5.001 5.001 0 012.134-2.134zm-2.19 6.605l6.66-6.66a4.986 4.986 0 01.962.622l-7 7a4.983 4.983 0 01-.622-.962zM6 31a5 5 0 115-5 5.006 5.006 0 01-5 5zm18.853-20.146l6.001-6.002A4.958 4.958 0 0131 6c0 .112-.026.216-.033.326l-4.642 4.641c-.11.007-.214.033-.325.033a4.956 4.956 0 01-1.147-.146zm3.433-.433l2.134-2.134a5.001 5.001 0 01-2.134 2.134z"/></svg>