<svg xmlns="http://www.w3.org/2000/svg" viewBox="0 0 24 24"><path d="M4 24a4 4 0 114-4 4.005 4.005 0 01-4 4zm0-7a3 3 0 103 3 3.003 3.003 0 00-3-3zm0 7a4 4 0 114-4 4.005 4.005 0 01-4 4zm0-7a3 3 0 103 3 3.003 3.003 0 00-3-3zM20 0a4 4 0 104 4 4.005 4.005 0 00-4-4zm-.636 6.929a2.977 2.977 0 01-1.097-.489l4.173-4.173a2.977 2.977 0 01.489 1.097zm1.272-5.858a2.977 2.977 0 011.097.489L17.56 5.733a2.977 2.977 0 01-.489-1.097zm-1.478.064l-2.023 2.023a2.992 2.992 0 012.023-2.023zm1.684 5.73l2.023-2.023a2.992 2.992 0 01-2.023 2.023z"/></svg>