<?xml version="1.0" encoding="UTF-8"?><svg id="icons" xmlns="http://www.w3.org/2000/svg" viewBox="0 0 24 24"><rect width="24" height="24" style="fill:none; stroke-width:0px;"/><path d="m18,10H7v-1h11v1Zm0,2H7v1h11v-1Zm-1,3H7v1h10v-1Zm-4,3h-6v1h6v-1ZM21,3v10h-1V4h-1v-1h2ZM5,22h12v1H4V3h2v1h-1v18Zm3.5-16.75V1.75c0-.4125-.3375-.75-.75-.75h0c-.4125,0-.75.3375-.75.75v3.5c0,.4125.3375.75.75.75h0c.4125,0,.75-.3375.75-.75Zm3,0V1.75c0-.4125-.3375-.75-.75-.75h0c-.4125,0-.75.3375-.75.75v3.5c0,.4125.3375.75.75.75h0c.4125,0,.75-.3375.75-.75Zm3.5,0V1.75c0-.4125-.3375-.75-.75-.75h0c-.4125,0-.75.3375-.75.75v3.5c0,.4125.3375.75.75.75h0c.4125,0,.75-.3375.75-.75Zm3,0V1.75c0-.4125-.3375-.75-.75-.75h0c-.4125,0-.75.3375-.75.75v3.5c0,.4125.3375.75.75.75h0c.4125,0,.75-.3375.75-.75Zm1.99994,18.75v-4.00098h4.00006v-.99902h-4.00006v-4h-1v4h-4v.99902h4v4.00098h1Z" style="stroke-width:0px;"/></svg>