<?xml version="1.0" encoding="UTF-8"?><svg id="icons" xmlns="http://www.w3.org/2000/svg" viewBox="0 0 16 16"><rect width="16" height="16" style="fill:none; stroke-width:0px;"/><path d="m14,1v15H1V1h2v1h-1v13h11V2h-1v-1h2Zm-2,4H3v1h9v-1Zm0,3H3v1h9v-1Zm-4,3H3v1h5v-1ZM5,2.5V.5c0-.275-.225-.5-.5-.5h0c-.275,0-.5.225-.5.5v2c0,.275.225.5.5.5h0c.275,0,.5-.225.5-.5Zm2,0V.5c0-.275-.225-.5-.5-.5h0c-.275,0-.5.225-.5.5v2c0,.275.225.5.5.5h0c.275,0,.5-.225.5-.5Zm2,0V.5c0-.275-.225-.5-.5-.5h0c-.275,0-.5.225-.5.5v2c0,.275.225.5.5.5h0c.275,0,.5-.225.5-.5Zm2,0V.5c0-.275-.225-.5-.5-.5h0c-.275,0-.5.225-.5.5v2c0,.275.225.5.5.5h0c.275,0,.5-.225.5-.5Z" style="stroke-width:0px;"/></svg>