<?xml version="1.0" encoding="UTF-8"?><svg id="icons" xmlns="http://www.w3.org/2000/svg" viewBox="0 0 16 16"><rect width="16" height="16" style="fill:none; stroke-width:0px;"/><path d="m12,6H3v-1h9v1Zm-1,2H3v1h8v-1Zm-3,3H3v1h5v-1ZM14,1v6.71997c-.14996.04999-.28998.13-.39996.23999l-.60004.61005V2h-1v-1h2ZM2,15h5.39001l-.28003.54999c-.06995.15002-.10999.29999-.10999.45001H1V1h2v1h-1v13Zm12-2.54999v3.54999h-3.76996l.21997-.10999c.09003-.04004.17999-.10004.25-.18005l.72003-.70996h1.57996v-1.56l1-.98999ZM5,2.5V.5c0-.275-.225-.5-.5-.5h0c-.275,0-.5.225-.5.5v2c0,.275.225.5.5.5h0c.275,0,.5-.225.5-.5Zm2,0V.5c0-.275-.225-.5-.5-.5h0c-.275,0-.5.225-.5.5v2c0,.275.225.5.5.5h0c.275,0,.5-.225.5-.5Zm2,0V.5c0-.275-.225-.5-.5-.5h0c-.275,0-.5.225-.5.5v2c0,.275.225.5.5.5h0c.275,0,.5-.225.5-.5Zm2,0V.5c0-.275-.225-.5-.5-.5h0c-.275,0-.5.225-.5.5v2c0,.275.225.5.5.5h0c.275,0,.5-.225.5-.5Zm-2,11.5l-1,2,2-1,4-3.95093-1.06281-1.04907-3.93719,4Zm5.31201-5.33081l-.64526.64758.99738.99731.64526-.64758-.99738-.99731Z" style="stroke-width:0px;"/></svg>