<?xml version="1.0" encoding="UTF-8"?><svg id="icons" xmlns="http://www.w3.org/2000/svg" viewBox="0 0 24 24"><rect width="24" height="24" style="fill:none; stroke-width:0px;"/><path d="m18,10H7v-1h11v1Zm0,2H7v1h11v-1Zm-1,3H7v1h10v-1Zm-4,3h-6v1h6v-1ZM21,3v10.19c-.22998.20996-.53998.51001-1,.96997V4h-1v-1h2ZM5,22h7.73004l-.41003,1H4V3h2v1h-1v18Zm16-3.13v4.13h-4.14001c.07001-.04999.06006-.04999,1.01001-1h2.13v-2.13l1-1ZM8.5,5.25V1.75c0-.4125-.3375-.75-.75-.75h0c-.4125,0-.75.3375-.75.75v3.5c0,.4125.3375.75.75.75h0c.4125,0,.75-.3375.75-.75Zm3,0V1.75c0-.4125-.3375-.75-.75-.75h0c-.4125,0-.75.3375-.75.75v3.5c0,.4125.3375.75.75.75h0c.4125,0,.75-.3375.75-.75Zm3.5,0V1.75c0-.4125-.3375-.75-.75-.75h0c-.4125,0-.75.3375-.75.75v3.5c0,.4125.3375.75.75.75h0c.4125,0,.75-.3375.75-.75Zm3,0V1.75c0-.4125-.3375-.75-.75-.75h0c-.4125,0-.75.3375-.75.75v3.5c0,.4125.3375.75.75.75h0c.4125,0,.75-.3375.75-.75Zm3.43512,11.77167l-1.41345-1.41449-5.18365,5.18365,1.414,1.41443,5.18311-5.18359Zm1.72516-2.0506l-1.13135-1.13135c-.07812-.07812-.20477-.07812-.28284,0l-.73431.73431,1.41418,1.41418.73431-.73431c.07812-.07812.07812-.20471,0-.28284Zm-9.32123,6.9422l-.83905,2.08673,2.08612-.8396-1.24707-1.24713Z" style="stroke-width:0px;"/></svg>