<?xml version="1.0" encoding="UTF-8"?><svg id="icons" xmlns="http://www.w3.org/2000/svg" viewBox="0 0 24 24"><rect width="24" height="24" style="fill:none; stroke-width:0px;"/><path d="m7.75,6h0c-.4125,0-.75-.3375-.75-.75V1.75c0-.4125.3375-.75.75-.75h0c.4125,0,.75.3375.75.75v3.5c0,.4125-.3375.75-.75.75Zm3.75-.75V1.75c0-.4125-.3375-.75-.75-.75h0c-.4125,0-.75.3375-.75.75v3.5c0,.4125.3375.75.75.75h0c.4125,0,.75-.3375.75-.75Zm6.5,3.75H7v1h11v-1Zm0,4H7v-1h11v1Zm0,3H7v-1h11v1Zm-5,3h-6v-1h6v1ZM19,3v1h1v18H5V4h1v-1h-2v20h17V3h-2Zm-4.75,3h0c-.4125,0-.75-.3375-.75-.75V1.75c0-.4125.3375-.75.75-.75h0c.4125,0,.75.3375.75.75v3.5c0,.4125-.3375.75-.75.75Zm3,0h0c-.4125,0-.75-.3375-.75-.75V1.75c0-.4125.3375-.75.75-.75h0c.4125,0,.75.3375.75.75v3.5c0,.4125-.3375.75-.75.75Z" style="stroke-width:0px;"/></svg>