<?xml version="1.0" encoding="UTF-8"?><svg id="icons" xmlns="http://www.w3.org/2000/svg" viewBox="0 0 32 32"><rect width="32" height="32" style="fill:none; stroke-width:0px;"/><path d="m24,10H8v-1h16v1Zm0,3H8v1h16v-1Zm0,4H8v1h16v-1Zm0,4H8v1h16v-1Zm-8,4h-8v1h8v-1ZM27,3v27H5V3h2v1h-1v25h20V4h-1v-1h2Zm-16,3V2c0-.55-.45-1-1-1h0c-.55,0-1,.45-1,1v4c0,.55.45,1,1,1h0c.55,0,1-.45,1-1Zm4,0V2c0-.55-.45-1-1-1h0c-.55,0-1,.45-1,1v4c0,.55.45,1,1,1h0c.55,0,1-.45,1-1Zm4,0V2c0-.55-.45-1-1-1h0c-.55,0-1,.45-1,1v4c0,.55.45,1,1,1h0c.55,0,1-.45,1-1Zm4,0V2c0-.55-.45-1-1-1h0c-.55,0-1,.45-1,1v4c0,.55.45,1,1,1h0c.55,0,1-.45,1-1Z" style="stroke-width:0px;"/></svg>