<?xml version="1.0" encoding="UTF-8"?><svg id="icons" xmlns="http://www.w3.org/2000/svg" viewBox="0 0 32 32"><rect width="32" height="32" style="fill:none; stroke-width:0px;"/><path d="m24,10H8v-1h16v1Zm0,3H8v1h16v-1Zm0,4H8v1h16v-1Zm-1,4h-15v1h15v-1Zm-7,4h-8v1h8v-1ZM27,3v16.26001l-1,1V4h-1v-1h2ZM6,29h11.91003l-.42004,1H5V3h2v1h-1v25Zm21-3.06v4.06h-4.07001l1-1h2.07001v-2.07001l1-.98999ZM11,6V2c0-.55-.45-1-1-1h0c-.55,0-1,.45-1,1v4c0,.55.45,1,1,1h0c.55,0,1-.45,1-1Zm4,0V2c0-.55-.45-1-1-1h0c-.55,0-1,.45-1,1v4c0,.55.45,1,1,1h0c.55,0,1-.45,1-1Zm4,0V2c0-.55-.45-1-1-1h0c-.55,0-1,.45-1,1v4c0,.55.45,1,1,1h0c.55,0,1-.45,1-1Zm4,0V2c0-.55-.45-1-1-1h0c-.55,0-1,.45-1,1v4c0,.55.45,1,1,1h0c.55,0,1-.45,1-1Zm-3.87543,22.71435l-1.34265,3.15662,3.15088-1.34943-1.80823-1.80719Zm9.84625-6.16479l-1.9209-1.92188-6.76367,6.7641,1.92145,1.92188,6.76312-6.7641Zm2.15717-2.5813l-1.49707-1.49719c-.05627-.05627-.13184-.08862-.20996-.09003-.07819-.0014-.15265.02832-.20691.08264l-1.02753,1.02783,1.92163,1.92163,1.02734-1.02808c.11298-.1131.10962-.29968-.00751-.41681Z" style="stroke-width:0px;"/></svg>