<?xml version="1.0" encoding="UTF-8"?><svg id="icons" xmlns="http://www.w3.org/2000/svg" viewBox="0 0 16 16"><rect width="16" height="16" style="fill:none; stroke-width:0px;"/><path d="m12,6H3v-1h9v1Zm-9,2v1h7v-1H3Zm0,3v1h4v-1H3ZM14,1v6h-1V2h-1v-1h2ZM2,15h8v1H1V1h2v1h-1v13ZM5,2.5V.5c0-.275-.225-.5-.5-.5h0c-.275,0-.5.225-.5.5v2c0,.275.225.5.5.5h0c.275,0,.5-.225.5-.5Zm2,0V.5c0-.275-.225-.5-.5-.5h0c-.275,0-.5.225-.5.5v2c0,.275.225.5.5.5h0c.275,0,.5-.225.5-.5Zm2,0V.5c0-.275-.225-.5-.5-.5h0c-.275,0-.5.225-.5.5v2c0,.275.225.5.5.5h0c.275,0,.5-.225.5-.5Zm2,0V.5c0-.275-.225-.5-.5-.5h0c-.275,0-.5.225-.5.5v2c0,.275.225.5.5.5h0c.275,0,.5-.225.5-.5Zm5,9.49994h-3v-2.99994h-1v2.99994h-3v1h3v3.00006h1v-3.00006h3v-1Z" style="stroke-width:0px;"/></svg>