<?xml version="1.0" encoding="UTF-8"?><svg id="icons" xmlns="http://www.w3.org/2000/svg" viewBox="0 0 24 24"><defs><style>.cls-1{fill:none;}.cls-1,.cls-2{stroke-width:0px;}</style></defs><rect class="cls-1" width="24" height="24"/><path class="cls-2" d="M3,17.5791v-6.24854c1.64313,1.09882,5.08203,1.66943,8.5,1.66943.16699,0,.33313-.00769.5-.01044v-.92566c-.1665.00287-.32941.00806-.5.00806-5.18848,0-8.5-1.34637-8.5-2.2243v-3.43622c1.64313,1.04572,5.08203,1.58856,8.5,1.58856s6.85687-.54285,8.5-1.58856v3.43622c0,.21686-.20367.46228-.58612.70892l1.08612.62701c.2948.17017.47626.47876.49341.81641h.00659v-7c0-1.96973-4.7793-3-9.5-3S2,3.03027,2,5v12.5791c0,1.80341,3.22931,2.95135,7,3.30377v-.91858c-3.76788-.38275-6-1.57391-6-2.38519ZM11.5,2.92798c5.5,0,8.5,1.39331,8.5,2.07202s-3,2.06299-8.5,2.06299S3,5.67871,3,5s3-2.07202,8.5-2.07202ZM20,15.68304v-3.63422l-3.5-2.01953-3.5,2.01953v3.63422l-3,1.73102v4.20801l3.5,2.02051,3-1.73187,3,1.73187,3.5-2.02051v-4.20801l-3-1.73102ZM13,20v2.1994l-2-1.15546v-2.24231l2.0769,1.19836h-.0769ZM11.29883,17.81934l2.20117-1.27051,2.20117,1.27051-2.20117,1.27051-2.20117-1.27051ZM16,21.04395l-2,1.15546v-2.1994h-.0769l2.0769-1.19836v2.24231ZM16,16.83435l-2-1.15466v-2.24329l2,1.15399v2.24396ZM14.29883,12.4541l2.20117-1.27051,2.20117,1.27051-2.20117,1.27051-2.20117-1.27051ZM19,13.4364v2.24329l-2,1.15466v-2.24396l2-1.15399ZM19,20v2.1994l-2-1.15546v-2.24231l2.0769,1.19836h-.0769ZM17.29883,17.81934l2.20117-1.27051,2.20117,1.27051-2.20117,1.27051-2.20117-1.27051ZM22,21.04395l-2,1.15546v-2.1994h-.0769l2.0769-1.19836v2.24231Z"/></svg>