<?xml version="1.0" encoding="UTF-8"?><svg id="icons" xmlns="http://www.w3.org/2000/svg" viewBox="0 0 32 32"><defs><style>.cls-1{fill:none;}.cls-1,.cls-2{stroke-width:0px;}</style></defs><rect class="cls-1" width="32" height="32"/><path class="cls-2" d="M27,20.95758v-4.80426l-4.5-2.59668-4.5,2.59668v4.80426l-4,2.30902v5.39844l4,2.30817v.02679h.04645l.45355.26172.45355-.26172h.04645v-.02679l3.5-2.01965,3.5,2.01965v.02679h.04645l.45355.26172.45355-.26172h.04645v-.02679l4-2.30817v-5.39844l-4-2.30902ZM26.5,25.59668l-3.25317-1.87842,3.26801-1.88647,3.25275,1.87817-3.26758,1.88672ZM26,20.95758l-3,1.73175v-3.33929l3-1.73175v3.33929ZM22.5,14.71094l3.26758,1.88672-3.26758,1.88672-3.26758-1.88672,3.26758-1.88672ZM22,19.35004v3.33929l-3-1.73175v-3.33929l3,1.73175ZM18.48517,21.83179l3.26801,1.88647-3.25317,1.87842-3.26758-1.88672,3.25275-1.87817ZM15,28.08691v-3.35632l3,1.73175v3.35645l-3-1.73187ZM19,26.46234l3-1.73175v3.35632l-3,1.73187v-3.35645ZM23,28.08691v-3.35632l3,1.73175v3.35645l-3-1.73187ZM30,28.08691l-3,1.73187v-3.35645l3-1.73175v3.35632ZM26.45166,14.68243l1.04834.60516c.26306.15192.43274.41718.47949.7124h.02051V7c0-2.5332-6.44043-4.00043-12.5-4.00043S3.009,4.4668,3.009,7c0,.03284-.009,16.48926-.009,16.48926,0,2.43115,4.79364,3.96875,10,4.34619v-.84857c-5.40997-.4151-9-2.12024-9-3.49762v-7.98645c2.03448,1.58099,6.87335,2.44,11.5,2.44.49884,0,1-.01196,1.5-.03174v-.87469c-.48663.01947-.98389.03241-1.5.03241-7.125,0-11.5-1.94965-11.5-3.24359v-5.22882c2.03448,1.50452,6.87335,2.40399,11.5,2.40399s9.46552-.89948,11.5-2.40399v5.22882c0,.26556-.19385.55896-.54834.85724ZM15.5,10.08136c-7.125,0-11.5-1.87042-11.5-3.08136s4.375-3.08142,11.5-3.08142,11.5,1.87048,11.5,3.08142-4.375,3.08136-11.5,3.08136Z"/></svg>