<?xml version="1.0" encoding="UTF-8"?><svg id="icons" xmlns="http://www.w3.org/2000/svg" viewBox="0 0 16 16"><defs><style>.cls-1{fill:none;}.cls-1,.cls-2{stroke-width:0px;}</style></defs><rect class="cls-1" width="16" height="16"/><path class="cls-2" d="M14,10.38251v-2.43036l-2.49316-1.41406-2.50684,1.41406v2.43811l-2,1.13342v2.74048l2.51758,1.45264,1.98926-1.14868,1.98926,1.14868,2.50391-1.45264v-2.74048l-2-1.14117ZM9,14.49426l-1-.57715v-1.32764l1,.57745v1.32733ZM8.19531,11.77832l1.3219-.76251,1.32251.76257-1.32214.76361-1.32227-.76367ZM11,13.93744l-1,.57709v-1.32727l1-.57745v1.32764ZM11,10.94659l-.2876-.16583-.7124-.41113v-1.32764l1,.57745v1.32715ZM10.18457,8.22461l1.32227-.7627,1.32227.7627-1.32227.76367-1.32227-.76367ZM13,9.04987v1.32764l-.69873.40326-.30127.17371v-1.32715l1-.57745ZM13,14.50665l-1-.57715v-1.32758l1,.57745v1.32727ZM12.17395,11.77838l1.32251-.76257,1.3219.76251-1.32227.76367-1.32214-.76361ZM15,13.9245l-1,.57745v-1.32721l1-.5777v1.32745ZM6.5,7.97949c.43622,0,.84985-.01697,1.25195-.04156.00311-.26343.09662-.49695.24805-.70093v-.237c-.46033.04175-.94562.06299-1.5.06299-3.83887,0-5.5-1.07666-5.5-1.5835v-1.57306c1.10126.67175,3.04523,1.09357,5.5,1.09357s4.39874-.42181,5.5-1.09357v1.49493c.04382.01904.0899.03033.13184.05469l.86816.50128v-3.47784c0-1.49512-2.6123-2.47949-6.5-2.47949S0,.98438,0,2.47949v8c0,1.42963,2.39178,2.40863,6,2.49182v-.91718c-3.4668-.0932-5-1.09149-5-1.57465v-3.57306c1.10126.67175,3.04523,1.07306,5.5,1.07306ZM6.5.92548c3.83887,0,5.5,1.04718,5.5,1.55402s-1.66113,1.5835-5.5,1.5835S1,2.98633,1,2.47949,2.66113.92548,6.5.92548Z"/></svg>