<svg xmlns="http://www.w3.org/2000/svg" viewBox="0 0 24 24"><path d="M24 13.226A4.695 4.695 0 0119.596 18h-1.353c2.756-2.568 3.759-3.205 3.759-4.774a3.175 3.175 0 00-2.204-3.026l-1.19-.387-.173-1.24A5.16 5.16 0 0013.482 4a4.992 4.992 0 00-4.37 2.732L8.365 8.14l-1.538-.41a1.986 1.986 0 00-.504-.082 1.474 1.474 0 00-1.533 1.39l-.083 1.127-1.008.51a3.03 3.03 0 00-1.698 2.695A2.623 2.623 0 004.406 16h3.25l2 2h-5.25a4.606 4.606 0 01-4.405-4.63 5.04 5.04 0 012.794-4.479 3.47 3.47 0 013.529-3.244 3.952 3.952 0 011.02.15A6.972 6.972 0 0113.482 2a7.131 7.131 0 016.933 6.297 5.186 5.186 0 013.586 4.929zm-5.102 1.29L17.484 13.1l-3.535 3.537-3.535-3.535L9 14.516l3.535 3.535L9 21.586 10.414 23l3.535-3.535L17.484 23l1.414-1.414-3.535-3.535z"/></svg>