<svg xmlns="http://www.w3.org/2000/svg" viewBox="0 0 32 32"><path d="M30 9v21H9v-3h1v2h19V10h-2V9zm-4-4h-3v1h2v19H6v-2H5v3h21zm-4 17H1V1h21zM12 3.31L13.31 2H12zm-10 15L3.31 17H2zm4 1.41L4.72 21H6zM6 17H4.72L2 19.72V21h1.31L6 18.31zm0-5H2v4h4zm0-5H2v4h4zm0-5H2v4h4zm5 15H7v4h4zm0-5H7v4h4zm0-5H7v4h4zm0-5H7v4h4zm5 15h-4v4h4zm0-5h-4v4h4zm0-5h-4v4h4zm0-2.28L14.72 6H16zM16 2h-1.28L12 4.72V6h1.31L16 3.31zm5 15h-4v4h4zm0-5h-4v4h4zm0-5h-4v4h4zm0-5h-4v4h4zm-3.25 10.25h-.5v.5h.5zm1 0h-.5v.5h.5zm1 0h-.5v.5h.5zm1 0h-.5v.5h.5zm-3 1h-.5v.5h.5zm1 0h-.5v.5h.5zm1 0h-.5v.5h.5zm1 0h-.5v.5h.5zm-3 1h-.5v.5h.5zm1 0h-.5v.5h.5zm1 0h-.5v.5h.5zm1 0h-.5v.5h.5zm-3 1h-.5v.5h.5zm1 0h-.5v.5h.5zm1 0h-.5v.5h.5zm1 0h-.5v.5h.5zm-8-3h-.5v.5h.5zm1 0h-.5v.5h.5zm1 0h-.5v.5h.5zm1 0h-.5v.5h.5zm-3 1h-.5v.5h.5zm1 0h-.5v.5h.5zm1 0h-.5v.5h.5zm1 0h-.5v.5h.5zm-3 1h-.5v.5h.5zm1 0h-.5v.5h.5zm1 0h-.5v.5h.5zm1 0h-.5v.5h.5zm-3 1h-.5v.5h.5zm1 0h-.5v.5h.5zm1 0h-.5v.5h.5zm1 0h-.5v.5h.5zm-13-13h-.5v.5h.5zm2 0h-.5v.5h.5zm-1 1h-.5v.5h.5zm2 0h-.5v.5h.5zm-3 1h-.5v.5h.5zm2 0h-.5v.5h.5zm-1 1h-.5v.5h.5zm2 0h-.5v.5h.5zm2 2h-.5v.5h.5zm2 0h-.5v.5h.5zm-1 1h-.5v.5h.5zm2 0h-.5v.5h.5zm-3 1h-.5v.5h.5zm2 0h-.5v.5h.5zm-1 1h-.5v.5h.5zm2 0h-.5v.5h.5zm7-8h-.5v.5h.5zm2 0h-.5v.5h.5zm-1 1h-.5v.5h.5zm2 0h-.5v.5h.5zm-3 1h-.5v.5h.5zm2 0h-.5v.5h.5zm-1 1h-.5v.5h.5zm2 0h-.5v.5h.5zm-3 12h-.5v.5h.5zm2 0h-.5v.5h.5zm-1 1h-.5v.5h.5zm2 0h-.5v.5h.5zm-3 1h-.5v.5h.5zm2 0h-.5v.5h.5zm-1 1h-.5v.5h.5zm2 0h-.5v.5h.5zm-8-3h-.5v.5h.5zm2 0h-.5v.5h.5zm-1 1h-.5v.5h.5zm2 0h-.5v.5h.5zm-3 1h-.5v.5h.5zm2 0h-.5v.5h.5zm-1 1h-.5v.5h.5zm2 0h-.5v.5h.5zm-8-3h-.5v.5h.5zm1 0h-.5v.5h.5zm1 0h-.5v.5h.5zm1 0h-.5v.5h.5zm-3 1h-.5v.5h.5zm1 0h-.5v.5h.5zm1 0h-.5v.5h.5zm1 0h-.5v.5h.5zm-3 1h-.5v.5h.5zm1 0h-.5v.5h.5zm1 0h-.5v.5h.5zm1 0h-.5v.5h.5zm-3 1h-.5v.5h.5zm1 0h-.5v.5h.5zm1 0h-.5v.5h.5zm1 0h-.5v.5h.5zm7-13h-.5v.5h.5zm1 0h-.5v.5h.5zm1 0h-.5v.5h.5zm1 0h-.5v.5h.5zm-3 1h-.5v.5h.5zm1 0h-.5v.5h.5zm1 0h-.5v.5h.5zm1 0h-.5v.5h.5zm-3 1h-.5v.5h.5zm1 0h-.5v.5h.5zm1 0h-.5v.5h.5zm1 0h-.5v.5h.5zm-3 1h-.5v.5h.5zm1 0h-.5v.5h.5zm1 0h-.5v.5h.5zm1 0h-.5v.5h.5zm-13-8h-.5v.5h.5zm1 0h-.5v.5h.5zm1 0h-.5v.5h.5zm1 0h-.5v.5h.5zm-3 1h-.5v.5h.5zm1 0h-.5v.5h.5zm1 0h-.5v.5h.5zm1 0h-.5v.5h.5zm-3 1h-.5v.5h.5zm1 0h-.5v.5h.5zm1 0h-.5v.5h.5zm1 0h-.5v.5h.5zm-3 1h-.5v.5h.5zm1 0h-.5v.5h.5zm1 0h-.5v.5h.5zm1 0h-.5v.5h.5z"/></svg>