<?xml version="1.0" encoding="UTF-8"?><svg id="icons" xmlns="http://www.w3.org/2000/svg" viewBox="0 0 32 32"><defs><style>.cls-1{fill:none;}.cls-1,.cls-2{stroke-width:0px;}.cls-2{fill:#000;}</style></defs><path class="cls-2" d="M10,16H2V7h19v7h1V2h-6V0H7v2H1v15h8c0-.55273.44727-1,1-1ZM8,1h7v1h-7v-1ZM2,3h19v3H2v-3ZM32,8v3h-1v-3c0-1.6543-1.3457-3-3-3h-3.2959l2.00391,2.00391-.70703.70703-3.21387-3.21387,3.21387-3.21387.70703.70703-2.00977,2.00977h3.30176c2.20605,0,4,1.79395,4,4ZM25,17.00031v-2h-9v2h-6v14.99969h21v-14.99969h-6ZM17,16h7v1h-7v-1ZM30,31.00031H11v-9h19v9ZM11,21.00031v-3h19v3H11Z"/><rect class="cls-1" width="32" height="32"/></svg>