<svg xmlns="http://www.w3.org/2000/svg" viewBox="0 0 16 16"><path d="M10 0H0v10h10zM1 7h1.29L1 8.29zm2 2H1.71L3 7.71zm0-2zm0-1H1V4h2zm0-3H1V1h2zm1-2h1.29L4 2.29zm2 8H4V7h2zm0-3H4V4h2zm0-3H4.71L6 1.71zm1 1h1.29L7 5.29zm2 5H7V7h2zm0-3H7.71L9 4.71zm0-3H7V1h2zm4 10H2v-2h1v1h9V3h-1V2h2v11zm3-8v11H5v-2h.94v1H15V6h-1V5h2zM1.75 4.75h-.5v-.5h.5zm1 0h-.5v-.5h.5zm0 1h-.5v-.5h.5zm-1 0h-.5v-.5h.5zm6-4h-.5v-.5h.5zm1 0h-.5v-.5h.5zm0 1h-.5v-.5h.5zm-1 0h-.5v-.5h.5zm-3 5h-.5v-.5h.5zm1 0h-.5v-.5h.5zm0 1h-.5v-.5h.5zm-1 0h-.5v-.5h.5z"/></svg>