<svg xmlns="http://www.w3.org/2000/svg" viewBox="0 0 24 24"><path d="M20 20H4v-2h1v1h14V5h-1V4h2zm1-13v1h1v14H8v-1H7v2h16V7zM6 17H1V1h16v16H6zm6-11h4V2h-4zm0 5h4V7h-4zm0 5h4v-4h-4zM11 4.72L9.72 6H11zM7 3.31L8.31 2H7zM7 6h1.31L11 3.31V2H9.72L7 4.72zm0 5h4V7H7zm0 5h4v-4H7zM2 6h4V2H2zm0 5h4V7H2zm0 2.31L3.31 12H2zM3.31 16L6 13.31V12H4.72L2 14.72V16zm1.41 0H6v-1.28zm2.53-3.25h.5v-.5h-.5zm1 0h.5v-.5h-.5zm1 0h.5v-.5h-.5zm1 0h.5v-.5h-.5zm-3 1h.5v-.5h-.5zm1 0h.5v-.5h-.5zm1 0h.5v-.5h-.5zm1 0h.5v-.5h-.5zm-3 1h.5v-.5h-.5zm1 0h.5v-.5h-.5zm1 0h.5v-.5h-.5zm1 0h.5v-.5h-.5zm-3 1h.5v-.5h-.5zm1 0h.5v-.5h-.5zm1 0h.5v-.5h-.5zm1 0h.5v-.5h-.5zm-8-13h.5v-.5h-.5zm1 0h.5v-.5h-.5zm1 0h.5v-.5h-.5zm1 0h.5v-.5h-.5zm-3 1h.5v-.5h-.5zm1 0h.5v-.5h-.5zm1 0h.5v-.5h-.5zm1 0h.5v-.5h-.5zm-3 1h.5v-.5h-.5zm1 0h.5v-.5h-.5zm1 0h.5v-.5h-.5zm1 0h.5v-.5h-.5zm-3 1h.5v-.5h-.5zm1 0h.5v-.5h-.5zm1 0h.5v-.5h-.5zm1 0h.5v-.5h-.5zm7 2h.5v-.5h-.5zm1 0h.5v-.5h-.5zm1 0h.5v-.5h-.5zm1 0h.5v-.5h-.5zm-3 1h.5v-.5h-.5zm1 0h.5v-.5h-.5zm1 0h.5v-.5h-.5zm1 0h.5v-.5h-.5zm-3 1h.5v-.5h-.5zm1 0h.5v-.5h-.5zm1 0h.5v-.5h-.5zm1 0h.5v-.5h-.5zm-3 1h.5v-.5h-.5zm1 0h.5v-.5h-.5zm1 0h.5v-.5h-.5zm1 0h.5v-.5h-.5z"/></svg>