<svg xmlns="http://www.w3.org/2000/svg" viewBox="0 0 24 24"><path d="M5.68 17.574a10.525 10.525 0 01-3.7-2.296A5.904 5.904 0 01.112 11.07c.016-4.308 5.28-7.893 11.736-7.99l.172-.002c1.51 0 2.448.314 2.951.988a3.083 3.083 0 01.06 2.788c-.28.945-.303 1.231-.107 1.332a7.498 7.498 0 002.695.535l-1.227.884a6.087 6.087 0 01-1.924-.53c-.99-.507-.66-1.615-.396-2.507.253-.853.408-1.49.098-1.904-.29-.389-1.014-.586-2.145-.586l-.161.001C6.049 4.166 1.125 7.37 1.112 11.073a4.925 4.925 0 001.577 3.5 9.816 9.816 0 003.829 2.253 2.477 2.477 0 00-.838.748zm17.783-7.327a2.095 2.095 0 00-.991-.872l-.812.747a1.481 1.481 0 01.924.602 2.344 2.344 0 01-.076 2.425c-1.23 2.12-5.24 3.944-9.336 4.36l-1.337 1.089c4.924-.108 9.99-2.28 11.538-4.946a3.327 3.327 0 00.09-3.405zm-13.975 8.91L8.05 17.419s-1.734-.072-1.74 1.44c-.01 1.496-1.81 2.464-1.81 2.464l.004.003h.002a3.764 3.764 0 003.353.065 2.94 2.94 0 001.63-2.234zm-2.812 1.557a3.191 3.191 0 00.633-1.85.378.378 0 01.311-.396l.78.942a1.829 1.829 0 01-.953 1.07 3.04 3.04 0 01-.771.234zM23.419 6.42a.547.547 0 00-.786-.081l-7.522 5.418-6.418 5.23 1.409 1.734 6.42-5.23 6.816-6.285a.543.543 0 00.08-.787zm-13.32 10.71l5.644-4.598 1.571-1.133-1.47 1.356-5.598 4.558zM9.5 6A1.5 1.5 0 118 7.5 1.5 1.5 0 019.5 6zm.5 1.5a.5.5 0 10-.5.5.5.5 0 00.5-.5zM5.5 8A1.5 1.5 0 114 9.5 1.5 1.5 0 015.5 8zM6 9.5a.5.5 0 10-.5.5.5.5 0 00.5-.5zM7.5 12A1.5 1.5 0 116 13.5 1.5 1.5 0 017.5 12zm.5 1.5a.5.5 0 10-.5.5.5.5 0 00.5-.5z"/></svg>