<svg xmlns="http://www.w3.org/2000/svg" viewBox="0 0 16 16"><path d="M8.49 15l-.119-.083a1.254 1.254 0 01-.228-.187 3.983 3.983 0 00-1.246-.814l-.15-.077a7.899 7.899 0 01-1.01-.66 7.151 7.151 0 00-.384-.27 8.985 8.985 0 00-.297-.173 4.039 4.039 0 01-.835-.556 10.733 10.733 0 01-.326-.395 5.865 5.865 0 00-.498-.577 8.314 8.314 0 01-.91-1.273c-.08-.147.067-.518.163-.763a4.08 4.08 0 00.114-.31l.068-.222a8.18 8.18 0 00.17-1.192.419.419 0 00.076-.22c0-.065.064-.64.108-1.05a.225.225 0 01.112-.221.455.455 0 01.162-.034.49.49 0 01.352.209c.037.052.377.357.418.58.03.151.059.31.093.46a6.344 6.344 0 00.199.758 2.216 2.216 0 01.13.532 1.83 1.83 0 00.06.309 2.775 2.775 0 00.13.32c.043.094.088.196.135.33a.598.598 0 01-.037.39 1.274 1.274 0 00-.066.28 1.112 1.112 0 00.227.636l.159.052h.048l.41-.166a1.082 1.082 0 01-.003-.523l.032-.134a1.49 1.49 0 00.082-.761l-.197-.555a1.433 1.433 0 01-.075-.459l-.007-.103a3.362 3.362 0 00-.126-.434 5.105 5.105 0 01-.13-.427c-.067-.296-.12-.56-.169-.796-.063-.308-.399-.565-.456-.78a5.068 5.068 0 01-.083-1.505 1.671 1.671 0 01.5-.798.772.772 0 01.496-.162.99.99 0 01.198.022c.086.017.272.237.575 1.59.025.112.045.2.06.25l.073.247c.165.567.218.712.283.778a.343.343 0 00.247.085c.063 0 .274-.011.344-.156a.248.248 0 00-.019-.217 8.18 8.18 0 01-.328-1.097l-.045-.205a9.515 9.515 0 01-.217-1.244 1.1 1.1 0 01.198-.675c.094-.167.298-.249.623-.249a1.098 1.098 0 01.637.338 4.694 4.694 0 01.362.995c.042.144.081.277.116.382a8.313 8.313 0 01.182.868 2.434 2.434 0 00.2.806 1.074 1.074 0 00.53.354l.145-.053.028-.053c.087-.166-.055-.547-.132-.664a6.677 6.677 0 01-.157-.755 7.816 7.816 0 00-.137-.675 8.185 8.185 0 01-.13-.53 4.264 4.264 0 00-.041-.173 1.564 1.564 0 01.118-.196.534.534 0 01.41-.142 1.016 1.016 0 01.133.01.925.925 0 01.652.394 2.422 2.422 0 01.371.94c.033.198.308 1.73.318 1.805a.612.612 0 00.527.41c.054 0 .357-.045.39-.112.086-.173-.153-.927-.155-.934a2.526 2.526 0 01-.06-.465 5.507 5.507 0 00-.033-.365 2.366 2.366 0 00-.053-.268c-.032-.124-.03-.125.01-.18A.306.306 0 0112.003 4a2.377 2.377 0 01.637.094c.147.068.376.298.638 1a40.93 40.93 0 01.706 5.672 13.739 13.739 0 01-.167 2.673c0 .283-.108.566.077.866a3.235 3.235 0 01.299.556l.05.139z"/></svg>