<svg xmlns="http://www.w3.org/2000/svg" viewBox="0 0 32 32"><path d="M15.99 30.587c-.981-.763-1.714-.78-4.157-2.53a8.324 8.324 0 00-1.227-.79 8.116 8.116 0 01-1.862-1.26c-.18-.193-.388-.447-.601-.71a12.336 12.336 0 00-.906-1.046 16.12 16.12 0 01-1.966-2.686 1.648 1.648 0 01-.145-1.065 6.077 6.077 0 01.404-1.275 9.91 9.91 0 00.19-.51l.1-.317c.162-.523.6-2.013.637-2.19a1.597 1.597 0 01.208-.495c.019-.268.113-1.407.195-2.119a1.493 1.493 0 01.897-1.43 2.491 2.491 0 01.801-.14 1.706 1.706 0 01.555.094 5.383 5.383 0 01-.012-1.738 3.791 3.791 0 011.438-2.037 2.633 2.633 0 011.616-.598 1.828 1.828 0 01.77.16 1.66 1.66 0 01.563.378 4.029 4.029 0 01.463-1.218 2.08 2.08 0 012.025-1.01 3.063 3.063 0 012.058 1.038 2.647 2.647 0 01.351.64 2.05 2.05 0 011.663-.732 3.123 3.123 0 01.406.029 2.85 2.85 0 011.993 1.21 5.99 5.99 0 01.562 1.074A1.603 1.603 0 0124.056 9a3.43 3.43 0 011.316.278 4.102 4.102 0 011.78 2.476 10.844 10.844 0 01.682 3.526c0 .022.338 5.019.346 5.119a63.56 63.56 0 01-.421 7.87 12 12 0 00.82 2.214c.005.007.022.057.038.104.045.14.098.276.149.413h-.91c-.049-.14-.109-.271-.153-.413l-.015-.05-.104-.28c-.331-.891-.707-1.267-.707-2.068a65.761 65.761 0 00.418-7.726 761.73 761.73 0 01-.246-5.182 10.786 10.786 0 00-.727-3.213 3.525 3.525 0 00-1.318-1.987 2.54 2.54 0 00-.948-.195.684.684 0 00-.527.154c-.133.177-.116.254-.052.5.213.845.07.926.245 1.534a7.099 7.099 0 01.308 1.865.31.31 0 01-.192.105.86.86 0 01-.72-.609c-.018-.14-.131-.757-.257-1.445-.134-.742-.249-1.025-.314-1.418a5.155 5.155 0 00-.738-1.943 2.172 2.172 0 00-1.478-.822 2.02 2.02 0 00-.283-.021 1.19 1.19 0 00-.937.344 2.892 2.892 0 00-.275.464c.021.004.192.976.35 1.494.16.53.406 2.09.547 2.303a1.625 1.625 0 01.245 1.056.24.24 0 01-.161.1 1.93 1.93 0 01-.868-.596 14.663 14.663 0 01-.66-2.653c-.336-1.626-.476-2.213-.946-2.751a2.392 2.392 0 00-1.366-.707 1.421 1.421 0 00-1.356.563 2.23 2.23 0 00-.403 1.365 13.783 13.783 0 00.396 2.1 14.264 14.264 0 00.73 2.464.285.285 0 01.024.212c-.092.185-.45.19-.489.19a.493.493 0 01-.336-.101 5.37 5.37 0 01-.493-1.387 10.007 10.007 0 01-.28-1.039c-.197-.872-.627-2.376-1.184-2.484a1.796 1.796 0 00-1.484.306c-.465.379-1.077 1.03-1.115 1.432a5.105 5.105 0 00.128 2.156c.191.714.358 1.973.65 3.264.048.207.254.622.355.92a6.356 6.356 0 01.233.779c.005.053.006.115.011.186a2.774 2.774 0 00.153.91c.114.331.213.594.286.794.055.147.095.262.125.345a3.218 3.218 0 01-.195 1.231l-.062.253a2.61 2.61 0 00-.022 1.02.137.137 0 01-.079.152.213.213 0 01-.038.01.133.133 0 01-.125-.056 1.959 1.959 0 01-.394-1.064 2.312 2.312 0 01.116-.484 1.263 1.263 0 00.07-.855 6.662 6.662 0 00-.266-.64 4.994 4.994 0 01-.237-.577 3.2 3.2 0 01-.11-.55 3.737 3.737 0 00-.16-1.047 11.3 11.3 0 01-.476-1.521 15.382 15.382 0 00-.67-2.415 1.12 1.12 0 00-.819-.46 1.05 1.05 0 00-.377.076.609.609 0 00-.334.617 60.066 60.066 0 00-.208 2.352.599.599 0 01-.116.313.664.664 0 00-.097.214 43.983 43.983 0 01-.63 2.175l-.13.42a7.86 7.86 0 01-.213.568c-.22.555-.495 1.245-.303 1.598a15.578 15.578 0 001.778 2.446 9.774 9.774 0 01.932 1.065c.225.276.446.55.632.751a7.644 7.644 0 001.642 1.086c.215.121.412.229.56.32.184.114.433.292.722.5a15.25 15.25 0 001.958 1.261l.284.142a7.578 7.578 0 012.323 1.488c.229.263.452.53.67.796h-1.102c-.151-.14-.293-.281-.462-.413z"/></svg>