<svg xmlns="http://www.w3.org/2000/svg" viewBox="0 0 16 16"><path d="M7.645 15a7.442 7.442 0 00-.841-.482l-.153-.076a8.415 8.415 0 01-1.085-.705l-.084-.06a6.046 6.046 0 00-.278-.196 16.62 16.62 0 00-.271-.156 4.288 4.288 0 01-.999-.69 8.227 8.227 0 01-.319-.38 6.264 6.264 0 00-.463-.546 8.506 8.506 0 01-1.05-1.454 1.615 1.615 0 01.13-1.33c.627-1.253.687-1.525.797-1.72a10.998 10.998 0 01-.006-1.232.806.806 0 01.43-.842 1.102 1.102 0 01.405-.081.94.94 0 01.173.016 4.406 4.406 0 01-.007-.99 2.493 2.493 0 01.84-1.258 1.465 1.465 0 01.91-.34 1.04 1.04 0 01.444.093.683.683 0 01.149.097 1.37 1.37 0 011.407-.935 1.548 1.548 0 011.154.49 1.191 1.191 0 01.135.222 1.188 1.188 0 01.841-.309 1.628 1.628 0 01.226.016 1.589 1.589 0 011.113.687 3.316 3.316 0 01.256.474 1.026 1.026 0 01.503-.115 3.558 3.558 0 011.013.156 2.256 2.256 0 01.983 1.373 38.781 38.781 0 01.847 5.99 15.887 15.887 0 01-.106 2.787 1.284 1.284 0 00.143.907 4.829 4.829 0 01.218.498l.033.091h-.69l-.051-.14a3.235 3.235 0 00-.299-.555c-.185-.3-.077-.583-.077-.866a13.739 13.739 0 00.167-2.673 45.19 45.19 0 00-.806-5.802c-.262-.702-.491-.931-.638-1a3.179 3.179 0 00-.737-.094.326.326 0 00-.196.042c-.1.082-.058.447-.058.449.017.127.026.249.034.365a2.526 2.526 0 00.06.464 3.204 3.204 0 01.054.964.25.25 0 01-.19.111.612.612 0 01-.527-.41c-.01-.073-.085-1.506-.118-1.705a2.422 2.422 0 00-.371-.94.925.925 0 00-.652-.393 1.016 1.016 0 00-.134-.01.534.534 0 00-.41.142 1.564 1.564 0 00-.117.196c.01.04.023.095.04.174.036.157.084.373.131.529.078.259.204 1.162.294 1.33.077.117.22.498.132.664l-.028.053-.144.053a1.074 1.074 0 01-.532-.354c-.066-.085-.125-.164-.2-.706a7.451 7.451 0 00-.297-1.25 4.683 4.683 0 00-.362-.995.947.947 0 00-.637-.238c-.992 0-.88.466-.821.824.039.236.3.804.417 1.144.203.592.277 1.045.373 1.202a.248.248 0 01.02.217c-.071.145-.282.156-.345.156a.343.343 0 01-.247-.084 7.104 7.104 0 01-.416-1.176c-.478-1.301-.69-1.473-.775-1.49a.99.99 0 00-.198-.022.772.772 0 00-.496.162 2.026 2.026 0 00-.6.798A5.068 5.068 0 004.77 5.64c.057.216.393.473.456.781a7.408 7.408 0 00.299 1.223 3.362 3.362 0 01.126.434 2.526 2.526 0 00.28 1.117 1.49 1.49 0 01-.083.761l-.032.134a1.082 1.082 0 00.004.523l-.11.166c-.07 0-.025.008-.208-.052a1.112 1.112 0 01-.227-.636c.042-.48.27-.336-.033-1-.137-.305-.055-.378-.09-.629a2.216 2.216 0 00-.13-.532 9.22 9.22 0 01-.29-1.219 1.845 1.845 0 00-.42-.68.719.719 0 00-.452-.208.455.455 0 00-.16.034.225.225 0 00-.113.221c-.044.41-.008 1.285-.008 1.35a.419.419 0 01-.076.22c-.073.221-.336.725-.652 1.524-.096.245-.242.616-.163.763a8.314 8.314 0 00.91 1.273 5.865 5.865 0 01.498.577c.143.178.242.301.326.395a4.039 4.039 0 00.835.556c.157.09.235.134.297.173.098.06.23.157.384.27a7.899 7.899 0 001.01.66l.15.077a3.983 3.983 0 011.246.814 1.254 1.254 0 00.228.187l.12.083z"/></svg>