<?xml version="1.0" encoding="UTF-8"?><svg id="icons" xmlns="http://www.w3.org/2000/svg" viewBox="0 0 32 32"><defs><style>.cls-1{fill:none;}.cls-2{fill:#231f20;}</style></defs><rect class="cls-1" width="32" height="32"/><path class="cls-2" d="M28.30664,14.3457l2.31689-2.43457-7.41602-7.43164,2.13135-2.125-.70605-.70898-2.83936,2.83203,1.44574,1.44885-3.18109,3.46033c-.17676,.17188-.41016,.28125-.65674,.30762l-2.82281,.29437c-.44983-.20978-1.9259-.86371-2.89105-.86371h-1.53418c-.26221,0-.50879-.10156-.69385-.28613l-2.79285-2.78632,.56042-.56036-2.84521-2.8457-.70703,.70703,2.13818,2.13867L2.64648,10.6582c-.25537,.25586-.47461,.51074-.69336,.7666-.20166,.23535-.40332,.47168-.63867,.70703l-.30615,.30762,.73047,.9707,1.09521,1.64551c.21875,.29102,.33203,.65332,.31787,1.01953l-.06738,1.76172c-.02588,.66309,.21826,1.32031,.66943,1.80566l1.03595,1.10846c-.57202,.44678-.88672,1.14429-.84015,1.87006,.04688,.73047,.45166,1.38672,1.0835,1.75684l7.95215,4.65723c.34668,.20312,.72998,.30176,1.11084,.30176,.34052,0,.6748-.08838,.98236-.2428l.65826,.28186c.78418,.3916,1.66113,.59863,2.53564,.59863,1.89307,0,2.62646-.4668,6.6958-3.05859,.98096-.625,2.16309-1.37793,3.61035-2.28418,.63135-.39551,1.03906-1.0752,1.08984-1.81836s-.26025-1.47266-.83154-1.94922l-.83691-.69891v-5.05499c0-.28613,.10889-.55762,.30664-.76465ZM5.53809,23.51465c-.34424-.20117-.56494-.55957-.59033-.95801-.02539-.39746,.14746-.78027,.48096-1.03809,.36328-.30859,.81641-.46973,1.26904-.46973,.16943,0,.33838,.02246,.50293,.06836l2.75122,.90601-2.5708,2.5708-1.84302-1.07935Zm2.73486,1.60156l2.74268-2.74268,2.9375,.96735-3.19684,3.22961-2.48334-1.45428Zm6.6748,2.86621c-.38525,.38965-.98486,.46777-1.45703,.18945l-1.84381-1.07977,3.36731-3.40179,.93744,.30872c.49951,.14062,.86572,.5332,.97998,1.05078,.11621,.52734-.05566,1.04883-.48877,1.42383l-1.49512,1.50879Zm3.32471,.99219c-.7207,0-1.44287-.1709-2.12305-.50879l-.19525-.0799,1.16937-1.18182c.13477-.11566,.24249-.25256,.3465-.39117l2.00415,2.03723c-.38312,.09564-.74957,.12445-1.20172,.12445Zm9.92334-7.34277c.32617,.27246,.50391,.68848,.47461,1.11328-.02881,.4248-.26172,.81348-.62207,1.03906-.33588,.21039-.6543,.41052-.96246,.60468l-5.73383-5.68573-.7041,.71094,5.56982,5.52307c-.65924,.4173-1.25555,.79675-1.78662,1.13513-.38855,.2475-.73553,.4682-1.06299,.6759l-5.01172-5.09875-.71289,.70117,4.85901,4.94342c-.87097,.54388-1.49701,.91364-2.00946,1.16608l-2.59259-2.63544c.06262-.323,.08136-.65637,.00769-.99066-.19531-.88281-.8252-1.55469-1.66455-1.79102l-8.75098-2.88184c-.60797-.172-1.23645-.12146-1.80792,.08826l-1.19843-1.28845c-.27148-.29102-.41797-.68652-.40283-1.08496l.06738-1.76172c.02295-.5957-.16113-1.18555-.49902-1.63379l-.97754-1.48926-.35205-.46875c.13477-.14941,.2627-.29785,.39062-.44727,.20215-.23633,.40479-.47363,.64062-.70996L7.96008,6.75909l2.79333,2.7868c.37354,.37402,.87109,.5791,1.3999,.5791h1.53418c.18951,0,.42493,.04187,.67651,.10602-.84705,.11713-1.64624,.44641-2.28833,.9516l-4.16553,2.74512c-.31982,.25195-.48535,.64355-.44141,1.04883,.04443,.4043,.29004,.75,.65869,.92773,.84766,.4043,2.08447,.88574,3.16699,.88574h.00342c.64795,0,1.63135-.69238,2.02393-.99023,1.26416-.95898,2.17822-1.58594,2.49658-1.7998h2.72803l2.5332,1.68555,7.11621,5.94629Zm-.61328-7.97559c-.37549,.39355-.58252,.91016-.58252,1.4541v4.21991l-5.32227-4.44452-2.82861-1.88574h-3.33203l-.125,.08203c-.04297,.02832-1.06836,.70312-2.6748,1.9209-.64453,.48828-1.26318,.79492-1.42285,.78711-.89551,0-1.98242-.42871-2.73486-.78711-.0542-.02637-.09033-.07715-.09668-.13477-.00635-.05957,.01807-.11621,.03125-.12891l4.16504-2.74512c.56787-.44629,1.24854-.72168,1.96777-.79688l4.87891-.50879c.46924-.0498,.91309-.25781,1.26904-.60449l3.1709-3.4494,5.28174,5.29315-1.64502,1.72852Z"/></svg>