<?xml version="1.0" encoding="UTF-8"?><svg id="icons" xmlns="http://www.w3.org/2000/svg" viewBox="0 0 24 24"><defs><style>.cls-1{fill:none;}.cls-2{fill:#231f20;}</style></defs><rect class="cls-1" width="24" height="24"/><path class="cls-2" d="M18.20703,3.5l1.14648-1.14648-.70703-.70703-1.85352,1.85352,1.53406,1.53406-2.54675,2.48645-2.33618,.24451-1.18091-.76501h-3.70117c-.13086,0-.25928-.05273-.35205-.14551l-1.14954-1.14807,.68713-.68982L4.35205,1.64551l-.70459,.70898,2.68506,2.66602L.99658,10.38184l.37305,.31445,.55566,.76172c.06836,.09375,.07861,.2207,.0752,.31055l-.0625,1.61426c-.0166,.46387,.1543,.92383,.46924,1.2627l1.20679,1.28839c-.13611,.24274-.21161,.51813-.19751,.80634,.02588,.50879,.30322,.9668,.74268,1.22461l6.44629,3.77441c.23682,.13867,.49951,.20605,.76025,.20605,.19476,0,.38849-.03796,.56989-.112,.47034,.12775,.92859,.15204,1.26849,.15204,.8623,0,1.6748-.26172,2.38672-.75879l4.22803-2.53125c.69336-.42773,1.1216-1.16602,1.17971-1.97656,.01233-.16956-.00244-.3371-.02374-.50293h.00568l.00951-4.41602,2.69652-2.82031-5.47949-5.47949ZM4.66455,17.10156c-.14746-.08691-.24072-.24023-.24902-.41113s.06885-.33301,.2373-.45703c.34131-.29004,.79932-.39062,1.2085-.27734l1.87128,.61652-1.46667,1.46667-1.60138-.93768Zm2.49329,1.45984l1.63843-1.63843,1.93781,.63837-1.93903,1.95868-1.63721-.95862Zm4.56775,2.2345c-.16309,.16504-.41553,.19824-.61475,.08008l-1.42505-.83441,2.10925-2.13068,.63513,.20923c.3291,.09277,.5708,.35254,.64648,.69434,.07715,.34961-.03613,.69531-.3335,.95312l-1.01758,1.02832Zm1.47852,.18945c-.09021,0-.16919-.00549-.25195-.00909l.47217-.47821c.0777-.06665,.1347-.14886,.19971-.22534l.55872,.55219c-.31598,.10541-.6427,.16046-.97864,.16046Zm6.25116-3.26855l-3.76776-3.77637-.70801,.70703,3.61041,3.61865-1.67053,1.00073-3.24457-3.29907-.71289,.70117,3.07495,3.12659-.91724,.54944-1.05542-1.04315c.03345-.23096,.04095-.46661-.01147-.70319-.15625-.70801-.66162-1.24707-1.33105-1.43457l-6.56885-2.16406c-.62964-.17523-1.28625-.06641-1.81793,.25269l-1.19476-1.28687c-.13623-.14648-.20996-.34668-.20312-.5459l.0625-1.6123c.01416-.35645-.07812-.68066-.2666-.93945l-.34717-.46875,3.96899-3.9845,1.14868,1.14758c.27881,.27832,.66504,.4375,1.05859,.4375h2.91113c-.55115,.11938-1.06799,.35394-1.49951,.69238l-2.86719,2.03027c-.27539,.21582-.41699,.55176-.37891,.89746,.03711,.34668,.24805,.64453,.56445,.7959,.64746,.30859,1.59375,.67676,2.42773,.67676h.00391c.50391,0,1.21436-.48145,1.59326-.76855,.90674-.6875,1.57275-1.14648,1.83496-1.32422h.86426l1.06836,.68945,4.38965,3.66797c.37842,.31543,.58301,.79785,.54736,1.28906-.03033,.42365-.24402,.80664-.56622,1.07031Zm.54474-6.31738l.00031,3.09412-4.32306-3.60779-1.36572-.88574h-1.46094l-.125,.08203c-.03223,.02148-.80469,.5293-2.01318,1.44531-.4668,.35352-.87695,.55566-.98926,.56543h-.00293c-.5127,0-1.20312-.2002-2.0166-.56836l2.86768-2.03027c.40771-.31934,.896-.51758,1.41211-.57129l4.24707-.44336,2.80371-2.73828,3.25586,3.25586-2.29004,2.40234Z"/></svg>