<?xml version="1.0" encoding="UTF-8"?><svg id="icons" xmlns="http://www.w3.org/2000/svg" viewBox="0 0 16 16"><defs><style>.cls-1{fill:#231f20;}</style></defs><path class="cls-1" d="M.36963,6.39648l.34326,.4707c.19678,.27051,.29834,.60449,.28564,.93945l-.06152,1.61133c-.00732,.2002,.06592,.39844,.20264,.54688l1.2594,1.33722c-.08813,.09167-.16565,.19495-.22522,.31415-.21973,.43652-.16797,.97168,.13428,1.36621l1.5249,1.95605c.37842,.48535,.91553,.83008,1.51221,.96973,.20898,.0498,.42188,.07422,.63184,.07422,.37579,0,.7309-.09882,1.05634-.24493,.37433,.15253,.76404,.24786,1.17072,.24786,.66211,0,1.28027-.20508,1.8623-.61035l4.22852-2.53125c.41895-.25879,.69092-.70605,.72705-1.19727,.03516-.49219-.17041-.97461-.51904-1.2627l-.50293-.49231v-2.09167l1.37451-1.44238,.3125-.37793L11.61426,1.90723l1.13086-1.13184-.70703-.70703-1.83789,1.83887,.87036,.87024-1.26978,1.22546-3.23828,.01953c-.39893,0-.77588-.15625-1.05957-.4375l-.51086-.51086,1.07483-1.07507L4.15674,.09668l-.08447-.08984-.66895,.74316,1.24951,1.24902L.62402,6.02832l-.25439,.36816ZM6.83008,14.74316c-.36084,.22461-.81934,.29395-1.25537,.19238h-.00098c-.375-.08887-.71338-.30566-.95166-.6123l-1.52246-1.95215c-.06738-.08789-.08008-.21094-.03174-.30664,.04736-.09473,.14844-.15723,.25781-.15723,.03125-.00781,.10352,.00586,.16553,.02148,.07275,.0166,.14355,.04395,.19287,.07031l3.18555,1.93945c.15234,.08398,.23486,.22363,.23145,.39941,0,.16699-.08643,.30762-.271,.40527Zm1.67627-9.72363l1.70312-.02246,1.56812-1.51263,2.53638,2.53607-1.31396,1.37891v1.51318l-3.04834-2.98389-.33838,.22852c-.25488,.17188-.94434,.64453-1.90088,1.37012-.34619,.2627-.84619,.47559-.98877,.47559-.52979,0-1.08105-.09961-1.51221-.27441-.09082-.03613-.15234-.12012-.15967-.2168-.00781-.0957,.04053-.18945,.16846-.26953,1.32812-1.00977,2.98486-2.14844,3.28613-2.22266Zm-4.22144-1.2381l.51245,.51154c.47363,.4707,1.10059,.72949,1.76514,.72949h.02374c-.68707,.46405-1.40741,.99677-1.92609,1.39258-.41113,.24707-.64307,.69727-.60547,1.1748s.33691,.88672,.78223,1.06641c.5542,.22363,1.22412,.34668,1.88672,.34668,.5083,0,1.24707-.41602,1.59326-.67871,.65283-.49512,1.17822-.87012,1.52002-1.1084l3.99658,3.91016c.13184,.10938,.20312,.27734,.19141,.44824-.0127,.1709-.10791,.32715-.24951,.41504l-.65338,.39136-2.43451-2.44019-.70801,.70703,2.25781,2.26306-1.65863,.99347-1.90387-1.93622-.71289,.70117,1.73419,1.76367-.1712,.10254c-.52399,.36426-1.06073,.48755-1.57758,.42328,.09222-.18915,.15332-.39368,.15375-.6098,.01025-.54004-.26855-1.01953-.729-1.27441l-3.18555-1.93945c-.14795-.08203-.30566-.14258-.46729-.17969-.11469-.02747-.22217-.03809-.32819-.04211l-.38324-.40515-1.06787-1.15039,.05762-1.51172c.01904-.49512-.11133-.98828-.36914-1.40723l2.65649-2.65704Z"/></svg>