<?xml version="1.0" encoding="UTF-8"?><svg id="icons" xmlns="http://www.w3.org/2000/svg" viewBox="0 0 16 16"><defs><style>.cls-1{fill:none;}.cls-1,.cls-2{stroke-width:0px;}</style></defs><rect class="cls-1" width="16" height="16"/><path class="cls-2" d="M.35352,5.64648l-.35352.35352v.70703l1,1v7.29297h7.29297l1,1h.70703l.35352-.35352L.35352,5.64648ZM2,14v-5.29297l1.29297,1.29297h-.29297v1h1v-.29297l1.29297,1.29297h-.29297v1h1.29297l1,1H2ZM3,12h1v1h-1v-1ZM2.47461,6h8.52539v8.52539l-1-1v-6.52539H3.47461l-1-1ZM12,2v-1h-2.2774c-.34644-.59528-.98419-1-1.7226-1s-1.37616.40472-1.7226,1h-2.2774v1h-2v3h1v-2h1v1h8v-1h1v10h-1v1h2V2h-2ZM11,3h-6v-1h2v-.31787c0-.37671.30542-.68213.68213-.68213h.63574c.37671,0,.68213.30542.68213.68213v.31787h2v1ZM7.47461,11l-1-1h2.52539v1h-1.52539ZM9,9h-3.52539l-.47461-.47461v-.52539h4v1Z"/></svg>