<?xml version="1.0" encoding="UTF-8"?><svg id="icons" xmlns="http://www.w3.org/2000/svg" viewBox="0 0 16 16"><defs><style>.cls-1{fill:none;}.cls-1,.cls-2{stroke-width:0px;}</style></defs><path class="cls-2" d="M0,16h10V7H0v9ZM1,8h8v7H1v-7ZM2,9h1v1h-1v-1ZM2,11h1v1h-1v-1ZM2,13h1v1h-1v-1ZM4,9h4v1h-4v-1ZM4,11h4v1h-4v-1ZM4,13h4v1h-4v-1ZM12,2v-1h-2.2774c-.34644-.59528-.98419-1-1.7226-1s-1.37616.40472-1.7226,1h-2.2774v1h-2v4h1v-3h1v1h8v-1h1v10h-2v1h3V2h-2ZM11,3h-6v-1h2v-.31787c0-.37671.30542-.68213.68213-.68213h.63574c.37671,0,.68213.30542.68213.68213v.31787h2v1Z"/><rect class="cls-1" width="16" height="16"/></svg>