<?xml version="1.0" encoding="UTF-8"?><svg id="icons" xmlns="http://www.w3.org/2000/svg" viewBox="0 0 32 32"><defs><style>.cls-1{fill:none;}.cls-1,.cls-2{stroke-width:0px;}</style></defs><rect class="cls-1" width="32" height="32"/><path class="cls-2" d="M23,4v-2h-4.05042c-.23169-1.14111-1.24011-2-2.44958-2s-2.2179.85889-2.44958,2h-4.05042v2h-4v10h1V5h3v2h13v-2h3v22h-6v1h7V4h-4ZM22,6h-11v-3h4.0921c-.05603-.15717-.0921-.32385-.0921-.5,0-.82715.67285-1.5,1.5-1.5s1.5.67285,1.5,1.5c0,.17615-.03607.34283-.0921.5h4.0921v3ZM5,25h1v1h-1v-1ZM5,19h1v1h-1v-1ZM5,22h1v1h-1v-1ZM18,26.52539v-10.52539H7.47461l-1-1h12.52539v12.52539l-1-1ZM.64649,12.35352l2.64648,2.64648h-1.29297v15h16.29297l1.35352,1.35352.70703-.70703L1.35352,11.64649l-.70703.70703ZM3,29v-13h1.29297l3,3h-.29297v1h1.29297l2,2h-3.29297v1h4.29297l2,2h-6.29297v1h7.29297l3,3H3ZM14.47461,23l-1-1h2.52539v1h-1.52539ZM16,20h-4.52539l-1-1h5.52539v1Z"/></svg>