<svg xmlns="http://www.w3.org/2000/svg" viewBox="0 0 32 32"><path d="M13.15 8a1.997 1.997 0 00-1.93 1.481L9.025 17.7a1.108 1.108 0 002.098.646L13.112 12v6l-.507 10.917A1 1 0 0013.602 30h.087a1 1 0 00.98-.804l1.831-9.381 1.83 9.38a1 1 0 00.981.805h.087a1 1 0 00.997-1.083L19.888 18v-6l1.99 6.346a1.108 1.108 0 002.098-.646l-2.197-8.219A1.997 1.997 0 0019.85 8zm3.35 11a.799.799 0 00-.781.644l-1.833 9.395a.202.202 0 01-.198.161c-.159 0-.207-.035-.233-.064a.195.195 0 01-.053-.152l.507-10.918.003-6.066a.8.8 0 00-.69-.792.854.854 0 00-.111-.008.8.8 0 00-.769.581l-1.968 6.271c-.087.153-.167.153-.203.153a.44.44 0 01-.317-.164.177.177 0 01-.05-.162l2.2-8.193A1.197 1.197 0 0113.16 8.8h6.68a1.197 1.197 0 011.156.886l2.2 8.193a.177.177 0 01-.05.162.44.44 0 01-.317.164c-.036 0-.116 0-.203-.153l-1.968-6.27a.8.8 0 00-.769-.582.854.854 0 00-.111.008.8.8 0 00-.69.792l.003 6.066.507 10.918a.195.195 0 01-.053.152c-.026.029-.074.064-.233.064a.202.202 0 01-.198-.16l-1.833-9.396A.799.799 0 0016.5 19zm0-17A2.5 2.5 0 1019 4.5 2.5 2.5 0 0016.5 2zm0 4.1a1.6 1.6 0 111.6-1.6 1.6 1.6 0 01-1.6 1.6z"/></svg>