<svg xmlns="http://www.w3.org/2000/svg" viewBox="0 0 24 24"><path d="M12 5a2 2 0 10-2-2 2 2 0 002 2zm-1.2-2.2a1 1 0 011-1h.4a1 1 0 011 1v.4a1 1 0 01-1 1h-.4a1 1 0 01-1-1zm10 2.74l-6 .46H9.22l-6-.46a.71.71 0 00-.75.6.73.73 0 00.13.54.74.74 0 00.46.32L9.3 9l.7 3.22-3.1 9.85a.67.67 0 00.31.81h.07a.71.71 0 00.57.06.73.73 0 00.42-.39l3.16-7.27c.15-.37.24-.61.6-.61s.45.24.6.61l3.16 7.27a.73.73 0 00.42.39.71.71 0 00.57-.06h.07a.67.67 0 00.31-.81L14 12.22 14.7 9l6.24-2a.74.74 0 00.48-.28.73.73 0 00.13-.54.71.71 0 00-.75-.64zm-.38.84l-5.86 1.91a.69.69 0 00-.55.58l-.68 3.25a.85.85 0 000 .32l3 9.59a.07.07 0 010 .06.05.05 0 01-.07 0l-3-7c-.26-.63-.57-1-1.25-1s-1 .41-1.25 1l-3 7a.05.05 0 01-.07 0 .07.07 0 010-.06l3-9.59a.85.85 0 000-.32L10 8.87a.69.69 0 00-.55-.58L3.58 6.38h.06l5.54.5h5.72l5.54-.5h-.02z"/></svg>