<svg xmlns="http://www.w3.org/2000/svg" viewBox="0 0 24 24"><path d="M18.674 14.972a.56.56 0 00-.79 0l-2.111 2.11-7.75-7.75 2.11-2.11a.56.56 0 000-.79L7.044 3.34a.56.56 0 00-.784-.007L3.955 5.552a2.945 2.945 0 00-.74 3.039 21.526 21.526 0 005.377 7.822 21.527 21.527 0 007.823 5.378 2.944 2.944 0 003.038-.74l2.29-2.205a.56.56 0 00.007-.798zm.214 5.513a2.226 2.226 0 01-1.557.661 1.973 1.973 0 01-.652-.11 20.752 20.752 0 01-7.522-5.188A20.756 20.756 0 013.97 8.325a2.149 2.149 0 01.55-2.208l2.135-2.035 2.744 2.745-1.842 1.842a.939.939 0 000 1.328l7.552 7.552a.939.939 0 001.328 0l1.842-1.843 2.744 2.745z"/></svg>