<svg xmlns="http://www.w3.org/2000/svg" viewBox="0 0 16 16"><path d="M13.187 10.462a.326.326 0 00-.462 0l-1.852 1.852-6.087-6.087 1.752-1.753a.326.326 0 000-.46L3.955 1.43a.326.326 0 00-.46 0L1.703 3.22a2.313 2.313 0 00-.582 2.387 16.91 16.91 0 004.225 6.145 16.407 16.407 0 006.245 4.125 2.313 2.313 0 002.387-.582l1.79-1.79a.326.326 0 000-.461zm.226 4.269a1.58 1.58 0 01-1.102.47 1.37 1.37 0 01-.455-.078 15.634 15.634 0 01-5.944-3.935 16.146 16.146 0 01-4.035-5.844 1.516 1.516 0 01.392-1.556L3.725 2.33l1.912 1.913-1.319 1.32a.939.939 0 000 1.327l5.89 5.89a.939.939 0 001.328 0l1.42-1.419 1.914 1.912z"/></svg>