<svg xmlns="http://www.w3.org/2000/svg" viewBox="0 0 32 32"><path d="M16 1.998s-2 1.238-2 4.95v5.902l-8.764 5.978S4 19.797 4 20.762V22l10.054-3.567L14 25l-1.383 1.523s-.617.485-.617.97V29l4-1.063L20 29v-1.508c0-.484-.617-.969-.617-.969L18 25l-.054-6.567L28 22v-1.238c0-.965-1.236-1.934-1.236-1.934L18 12.85V6.947c0-3.71-2-4.949-2-4.949zM16 27l-3 .692v-.124c.061-.1 2-2.468 2-2.468l-.2-8-9.723 3.417a3.189 3.189 0 0 1 .747-.88L15 13.36V6.947a5.743 5.743 0 0 1 1.001-3.559A5.758 5.758 0 0 1 17 6.948v6.411l9.176 6.278a3.189 3.189 0 0 1 .747.88L17.2 17.1l-.2 8s1.939 2.367 2 2.467v.125z"/></svg>