<svg xmlns="http://www.w3.org/2000/svg" viewBox="0 0 16 16"><path d="M16 11.941v-.812c0-.632-.788-1.267-.788-1.267L10 5.802V3.246A3.565 3.565 0 0 0 8.5 0 3.565 3.565 0 0 0 7 3.245v2.558L1.788 9.862S1 10.497 1 11.129v.812l6-2.435.162 3.362L6 14.4v1.4l2.5-.973 2.5.973v-1.4l-1.162-1.532L10 9.506zm-6.43 2.23l-1.07-.417-1.07.417.57-.988-.248-5.134-4.39 1.854L8 6.291V3.244a4.296 4.296 0 0 1 .043-.62A2.957 2.957 0 0 1 8.5 1.382a2.959 2.959 0 0 1 .457 1.243 4.291 4.291 0 0 1 .043.62v3.047l4.639 3.612L9.248 8.05 9 13.183z"/></svg>