<svg xmlns="http://www.w3.org/2000/svg" viewBox="0 0 24 24"><path d="M12 22.008L16 23v-1.019c0-.379-.176-.462-2.3-2.633l.3-4.73 7.97 3.142v-1.046c0-.82-1.052-1.638-1.052-1.638L14 9.84V5.19a4.601 4.601 0 0 0-2-4.183 4.601 4.601 0 0 0-2 4.183v4.648l-6.918 5.237s-1.051.819-1.051 1.638v1.046L10 14.618l.3 4.73C8.176 21.519 8 21.603 8 21.98V23zm0-19.72a4.088 4.088 0 0 1 1 2.902v5.146l7.315 5.537a2.632 2.632 0 0 1 .291.275l-7.417-2.964-.315 6.545s1.506 1.733 1.642 1.873L12 20.978l-2.516.624a206.6 206.6 0 0 0 1.642-1.873l-.315-6.545-7.417 2.964a2.632 2.632 0 0 1 .29-.275L11 10.336V5.19a4.088 4.088 0 0 1 1-2.902z"/></svg>