<svg id="icons" xmlns="http://www.w3.org/2000/svg" viewBox="0 0 24 24"><defs><style>.cls-1{fill:none;}</style></defs><path d="M19,5.4209,17,6.877V5.64l2-1.456ZM16,6.368,14,7.824V9.061l2-1.456ZM7,8.10907,5,6.78546V7.98474L7,9.30835Zm3,1.98541L8,8.77087V9.97015l2,1.32355ZM22,5H21V7h1Zm0,3H21v2h1ZM21,4h1V2L20,3.456V4.69287l1-.728Zm1,7H21v2h1Zm-1,4.109,1,.72961V14H21ZM2,22H3V20H2ZM13,8.552l-2,1.456v1.237l1-.728v-.0072a.99959.99959,0,0,1,1-1ZM10,22h2V21H10ZM2,19H3V17H2Zm16.75684-1L20.94592,22.515l-2.89355,1.45557-2.26624-4.62067L13,23.16943V10.50952L23.26611,18Zm-1.59668-1h3.03808L14,12.47754v7.624l1.9541-2.67968,2.55176,5.20117,1.11035-.5586ZM4,22H6V21H4Zm3,0H9V21H7ZM2,13H3V11H2Zm0,3H3V14H2ZM4,6.1236,2,4.8V7H3V6.66113l1,.66181ZM2,10H3V8H2Z"/><rect class="cls-1" width="24" height="24"/></svg>