<svg id="icons" xmlns="http://www.w3.org/2000/svg" viewBox="0 0 32 32"><defs><style>.cls-1{fill:none;}</style></defs><path d="M31.3584,25,19,16V31l3.45605-4.52246,2.64863,5.51129,3.23242-1.626L25.79688,25Zm-4.3631,4.91852-1.44824.72851-2.93573-6.07965L20,28.14746V17.95117L28.291,24H24.17773ZM6,9.18182l2,1.45453v1.23657L6,10.4184ZM4,12H3V10H4Zm5-.63635,2,1.45453v1.23651L9,12.60016ZM3,7,5,8.45453V9.6911L4,8.96387V8.991H3Zm1,8H3V13H4Zm0,6H3V19H4Zm0-3H3V16H4Zm8-4.45453L14,15v1.23651L12,14.782ZM15,14.2l2-1.6v1.28094l-2,1.6ZM26,6.681l-2,1.6V7l2-1.6Zm-3,2.4-2,1.6V9.4l2-1.6Zm-3,2.4-2,1.6V11.8l2-1.6ZM29,12H28V10h1Zm0,6H28V16h1ZM4,24H3V22H4Zm24-5h1v1.80389l-1-.72967ZM28,5.08105l-1,.8V4.6L29,3V6H28ZM29,9H28V7h1ZM15,28h2v1H15ZM29,15H28V13h1ZM4,28H5v1H3V28Zm0-1H3V25H4Zm2,1H8v1H6Zm6,0h2v1H12ZM9,28h2v1H9Z"/><rect class="cls-1" width="32" height="32"/></svg>