<svg id="icons" xmlns="http://www.w3.org/2000/svg" viewBox="0 0 16 16"><defs><style>.cls-1{fill:none;}</style></defs><path d="M15.982,11,8,5.03564v9.94324l2.11621-2.75671L12,15.95215,14.55469,14.667,12.7168,11Zm-2.7691,3.22217-.77051.38818L10.27148,10.312,9,12.02393V7.00342L13,10H11.09668ZM2,9H1V7H2ZM1,4,3,5.02856V6.153L2,5.63867V6H1ZM4,5.54285,6,6.57141V7.69617L4,6.66742ZM2,12H1V10H2Zm2,2H6v1H4ZM2,14H3v1H1V13H2Zm9.24481-9H10V4.67346L12,3.2041v1.241ZM14,7h1V8.98322l-1-.74555Zm0-4.02441-1,.73474v-1.241L15,1V3H14ZM15,6H14V4h1Z"/><rect class="cls-1" width="16" height="16"/></svg>