<svg xmlns="http://www.w3.org/2000/svg" viewBox="0 0 24 24"><path d="M22 7h-3V4.61L15.39 1H9v6H6a1 1 0 0 0-1 1v1.048c.167-.015.33-.049.501-.049.17 0 .332.034.499.049V8h16v7h-3v-1h1v-2h-9.624a5.402 5.402 0 0 1 .394 1H18v5h-5.415l1 1H19v-3h3a1 1 0 0 0 1-1V8a1 1 0 0 0-1-1zm-7-5l3 3h-3zm-5 5V2h4v4h4v1zm2 8v-1h4v1zm0 1h4v1h-4zm9-6h-1V9h1zM9.795 17.85l-.124.124-.675-.675a4.5 4.5 0 1 0-.69.69l.675.675-.13.129a.667.667 0 0 0 0 .943l3.068 3.067a.665.665 0 0 0 .943 0l.943-.942a.666.666 0 0 0 0-.943l-3.067-3.068a.668.668 0 0 0-.943 0zm-4.293.148zm7.36 3.392l-.471.47-2.597-2.595.473-.473z"/></svg>