<?xml version="1.0" encoding="UTF-8"?><svg id="icons" xmlns="http://www.w3.org/2000/svg" viewBox="0 0 16 16"><defs><style>.cls-1{fill:none;}.cls-1,.cls-2{stroke-width:0px;}</style></defs><path class="cls-2" d="m2,5h12v-.58936l-2.55615-3.41064H3.55615l-2.55615,3.41064v9.58936h6v-1H2V5Zm6-3h2.94385l1.49884,2h-4.44269v-2Zm-3.94385,0h2.94385v2H2.55731l1.49884-2Zm10.91357,4h-5.93945c-.56787,0-1.03027.4624-1.03027,1.03027v7.96973c0,.56787.43213,1,1,1h6c.56787,0,1-.4624,1-1.03027v-7.93945c0-.56787-.4624-1.03027-1.03027-1.03027Zm.03027,9h-6V7h6s.0166,8,0,8Zm-3-6h2v1h-2v-1Zm0,3h2v1h-2v-1Zm-2-3h1v1h-1v-1Zm0,3h1v1h-1v-1Z"/><rect class="cls-1" width="16" height="16"/></svg>