<?xml version="1.0" encoding="UTF-8"?><svg id="icons" xmlns="http://www.w3.org/2000/svg" viewBox="0 0 24 24"><defs><style>.cls-1{fill:none;}</style></defs><rect class="cls-1" width="24" height="24"/><path d="M12.58575,20H2V10H14.39423c.51373-.59192,1.26227-.97461,2.10577-.97461s1.59204,.38269,2.10577,.97461h3.39423v3.83368c.3761,.11566,.71399,.30414,1,.55096V5h-6c0-.11108,0-2.10822,0-2H7c0,.11108,0,2.10822,0,2H1V21H13.58551l-.99976-1ZM8,4h8v1H8v-1ZM2,6H22v3H2v-3Zm21,12.5871v2.4129h-3.58551l.99951-1h1.586v-1.31805c.13605,.06506,.2796,.10712,.42725,.10712,.20343,0,.39935-.07831,.57275-.20197Zm-6.5-4.43671l-2.34998,2.35004,2.34998,2.35004,2.34998-2.35004-2.34998-2.35004Zm-.93604,2.34961l.93604-.93555,.93604,.93555-.93604,.93652-.93604-.93652Zm2.68399,4.2519c.03442,.1386,.05164,.28083,.05164,.42397,0,.99288-.80717,1.80005-1.79959,1.80005s-1.79959-.80717-1.79959-1.80005c0-.14313,.01721-.28536,.05164-.42397l-2.50303-2.50303c-.13906,.03442-.28083,.05164-.42442,.05164-.99243,0-1.79959-.80717-1.79959-1.80005,0-.50584,.21102-.96168,.54779-1.28894l1.90088,1.94935,3.67462,3.64289c.19478,.1931,.50876,.19324,.70372,.00032l3.03066-2.9991,.65588,.65588-2.2906,2.29105Zm-4.90777-5.77881l-.65588-.65588,2.06774-2.0682c-.03442-.1386-.05164-.28083-.05164-.42397,0-.99288,.80717-1.80005,1.79959-1.80005s1.79959,.80717,1.79959,1.80005c0,.14313-.01721,.28536-.05164,.42397l2.50303,2.50303c.284-.06976,.5825-.06976,.87285,.00544,.79584,.20474,1.35117,.92222,1.35117,1.74297,0,.50584-.21102,.96168-.54779,1.28894l-5.57182-5.64901c-.19558-.19829-.51547-.19855-.71137-.00059l-2.80383,2.83329Z"/></svg>