<?xml version="1.0" encoding="UTF-8"?><svg id="icons" xmlns="http://www.w3.org/2000/svg" viewBox="0 0 32 32"><defs><style>.cls-1{fill:none;}</style></defs><rect class="cls-1" width="32" height="32"/><path d="M13.12433,24H2V10H28v8.52539l.28223,.28223c.07324-.00488,.14551-.00781,.21777-.00781,.1712,0,.3349,.02795,.5,.0506,0-6.23633,0-14.95746,0-14.8504h-9c0-.11108,0-2.10822,0-2H9c0,.11108,0,2.10822,0,2H1V25H13.78986c-.27197-.29462-.5-.62915-.66553-1ZM10,3h9v1H10v-1ZM2,5H28v4H2V5ZM26,22.5l-3.5-3.5-3.5,3.5,3.5,3.5,3.5-3.5Zm-3.5-2.08594l2.08594,2.08594-2.08594,2.08594-2.08594-2.08594,2.08594-2.08594Zm8.48,2.08594c0,.53015-.1473,1.01978-.42879,1.42426l-.75201-.68408c.5157-.90195-.0162-2.00036-.98743-2.2066-.42164-.08969-.83703,.00519-1.17236,.24158l-3.91455-3.91455c.70277-.99694-.02131-2.3606-1.22485-2.3606-1.2048,0-1.9267,1.36497-1.22485,2.3606l-3.45728,3.45728-.70697-.70697,.02051-.02051,2.95898-2.95898c-.05316-.20288-.09039-.41193-.09039-.63141,0-1.38074,1.11926-2.5,2.5-2.5s2.5,1.11926,2.5,2.5c0,.21948-.03723,.42853-.09039,.63141l2.95898,2.95898c.20282-.05316,.41193-.09039,.63141-.09039,1.38074,0,2.48,1.11926,2.48,2.5Zm-3.79792,1.68213l.70697,.70697-.02051,.02051-2.95898,2.95892c.05316,.20288,.09039,.41193,.09039,.63147,0,1.38068-1.11926,2.5-2.5,2.5s-2.5-1.11932-2.5-2.5c0-.21954,.03723-.42859,.09039-.63147l-2.95898-2.95892c-.20282,.05316-.41187,.09039-.63141,.09039-1.38074,0-2.44995-1.11932-2.44995-2.5,0-.59729,.16809-1.07001,.51752-1.5l.71674,.64856c-.97935,1.39352,.73487,3.0219,2.07629,2.07629l3.91455,3.91455c-.69895,.99152,.01174,2.3606,1.22485,2.3606,.70533,0,1.31985-.49837,1.46643-1.18829,.08969-.42161-.0052-.83698-.24158-1.1723l3.20697-3.20697,.25031-.25031Z"/></svg>