<?xml version="1.0" encoding="UTF-8"?><svg id="icons" xmlns="http://www.w3.org/2000/svg" viewBox="0 0 32 32"><defs><style>.cls-1{fill:none;}.cls-1,.cls-2{stroke-width:0px;}</style></defs><path class="cls-2" d="m3,10h25v4h.5c.1712,0,.33838.01764.5.0506v-4.56085l-4.76758-6.48975H6.76758l-4.76758,6.48975v18.51025h15v-1H3V10Zm13-6h7.72656l3.67267,5h-11.39923v-5Zm-8.72656,0h7.72656v5H3.60077l3.67267-5Zm21.22656,11h-9c-.82715,0-1.5.67285-1.5,1.5v12c0,.82715.67285,1.5,1.5,1.5h9c.82715,0,1.5-.67285,1.5-1.5v-12c0-.82715-.67285-1.5-1.5-1.5Zm.5,13.5c0,.27588-.22412.5-.5.5h-9c-.27588,0-.5-.22412-.5-.5v-12c0-.27588.22412-.5.5-.5h9c.27588,0,.5.22412.5.5v12Zm-6-10.5h4v1h-4v-1Zm0,8h4v1h-4v-1Zm0-4h4v1h-4v-1Zm-2-4h1v1h-1v-1Zm0,8h1v1h-1v-1Zm0-4h1v1h-1v-1Z"/><rect class="cls-1" width="32" height="32"/></svg>