<?xml version="1.0" encoding="UTF-8"?><svg id="icons" xmlns="http://www.w3.org/2000/svg" viewBox="0 0 24 24"><defs><style>.cls-1{fill:none;}.cls-1,.cls-2{stroke-width:0px;}</style></defs><path class="cls-2" d="m11,20H2v-12h19v1h.5c.1712,0,.33838.01764.5.0506v-2.10284l-3.72754-4.94775H4.72754L1,6.94775v14.05225h10v-1Zm1-17h5.77344l3.01355,4h-8.78699V3Zm-6.77344,0h5.77344v4H2.21301l3.01355-4Zm16.27344,7h-8c-.82715,0-1.5.67285-1.5,1.5v10c0,.82715.67285,1.5,1.5,1.5h8c.82715,0,1.5-.67285,1.5-1.5v-10c0-.82715-.67285-1.5-1.5-1.5Zm.5,11.5c0,.27588-.22412.5-.5.5h-8c-.27588,0-.5-.22412-.5-.5v-10c0-.27588.22412-.5.5-.5h8c.27588,0,.5.22412.5.5v10Zm-5-8.5h3v1h-3v-1Zm0,6h3v1h-3v-1Zm0-3h3v1h-3v-1Zm-2-3h1v1h-1v-1Zm0,6h1v1h-1v-1Zm0-3h1v1h-1v-1Z"/><rect class="cls-1" width="24" height="24"/></svg>