<?xml version="1.0" encoding="UTF-8"?><svg id="icons" xmlns="http://www.w3.org/2000/svg" viewBox="0 0 16 16"><defs><style>.cls-1{fill:none;}</style></defs><rect class="cls-1" width="16" height="16"/><path d="M6.78564,13H1V7H7.78595l.2287-.22852c-.00977-.08984-.01465-.18066-.01465-.27148,0-.17126,.01764-.33838,.0506-.5H1v-2H15v2h-2.0506c.03296,.16162,.0506,.32874,.0506,.5,0,.09082-.00488,.18164-.01465,.27148l.22858,.22852h1.78607v1.05054c.37177,.07574,.70789,.24103,1,.4621,0-2.80365,0-5.51263,0-5.51263h-3.99999c0-.11108,0-2.10822,0-2-.14044,0-8.25983,0-8,0,0,.11108,0,2.10822,0,2H0c0,1.4248,0,4.10266,0,4v7H7.78607l-1.00043-1ZM5,2h6v1H5v-1Zm11,10.47937v1.52063h-2.78595l.78595-.68164,.88684-.31836,.45154-.16211c.24176-.08698,.46332-.20953,.66162-.35852Zm-5.5-.77937l-1.2-1.2,1.2-1.2,1.2,1.2-1.2,1.2Zm1.26996,2.53529c.01862,.08521,.03003,.17334,.03003,.26471,0,.71796-.58203,1.29999-1.29999,1.29999s-1.29999-.58203-1.29999-1.29999c0-.09302,.01141-.18274,.0307-.26929l-2.46143-2.46143c-.08655,.01929-.17627,.0307-.26929,.0307-.71796,0-1.29999-.58203-1.29999-1.29999,0-.46643,.25916-.85663,.62811-1.086l1.17188,1.17194h0l3.41406,3.41406h.17383l2.53477-2.51945,.70697,.70697-2.05967,2.04777Zm4.03003-3.73529c0,.46643-.25909,.85669-.62805,1.086l-1.52216-1.52222h0l-3.06384-3.06378h-.17188l-2.52805,2.52805-.70703-.70703,2.05173-2.05173c-.01929-.08655-.0307-.17627-.0307-.26929,0-.71796,.58203-1.29999,1.29999-1.29999s1.29999,.58203,1.29999,1.29999c0,.09302-.01141,.18274-.0307,.26929l2.46143,2.46143c.08655-.01929,.17627-.0307,.26929-.0307,.71796,0,1.29999,.58203,1.29999,1.29999Z"/></svg>