<?xml version="1.0" encoding="UTF-8"?><svg id="icons" xmlns="http://www.w3.org/2000/svg" viewBox="0 0 24 24"><defs><style>.cls-1{fill:none;}</style></defs><path d="m12,9h-1v-1h1v1Zm9-1h-8v1h8v-1Zm-9,3h-1v1h1v-1Zm9,0h-8v1h8v-1Zm2,4h-2v7.25c0,.41418-.33582.75-.75.75H1.75c-.41418,0-.75-.33582-.75-.75V1.75c0-.41425.33582-.75.75-.75h18.5c.41418,0,.75.33575.75.75v3.25h2v10Zm-3,0h-7.27441l-4.72559,4.71429V5h12v-3H2v20h18v-7Zm2-9h-13v11.3042l3.01953-3.01221c.1875-.18701.44141-.29199.70605-.29199h9.27441V6Z"/><rect class="cls-1" width="24" height="24"/></svg>