<svg xmlns="http://www.w3.org/2000/svg" viewBox="0 0 24 24"><path d="M9 3H3v6h6zM8 8H4V4h4zM7 7H5V5h2zm14-4h-6v6h6zm-1 5h-4V4h4zm-1-1h-2V5h2zM9 15H3v6h6zm-1 5H4v-4h4zm-1-1H5v-2h2zm13-1v1h1v2h-2v-3zm1-1h-1v-1h1zm-1-2v1h-1v-1zm-9 6h-1v-4h1v4zM6 10v2H4v-1H3v-1h3zm2 1v1h1v2H8v-1H7v1H6v-2h1v-2h2v1zm2-4h1v1h-1zm3-3v2h-1V3h2v1zm-3 0h1v1h-1zm9 6v1h-2v2h-2v-1h1v-2h3zm-7 4h-1v-1h-1v-1h2v2zm6 2h1v1h-1zm3-2h-2v-1h1v-1h1v2zm-1-3v1h-1v-1zm-9 3v1h-1v-1zm6 5h1v2h-2v-2zm-3 0h1v1h-1v1h-2v-1h1v-1zm0-1v-1h2v1zm0-5h1v3h-1v1h-1v1h-1v-2h-1v-1h3v-1h-1v-1zm-9 0v1H4v-1zm12 4h-1v-1h1zm1-2h-2v-1h2zm-7-5V8h3v3h-2v-1h1V9h-1v1zm0-4h1v1h-1zm-1 4h1v1h-1zm3-3V6h1v1z"/></svg>