<svg id="icons" xmlns="http://www.w3.org/2000/svg" viewBox="0 0 32 32"><path d="M4 11h7V4H4zm1-6h5v5H5zm1 4h3V6H6zm1-2h1v1H7zm14 4h7V4h-7zm1-6h5v5h-5zm1 4h3V6h-3zm1-2h1v1h-1zM4 28h7v-7H4zm1-6h5v5H5zm1 4h3v-3H6zm1-2h1v1H7zm20 3h-2v-2h2v-1h-1v-2h1v1h1v5h-1zm1-5h-1v-1h1zm-1-2v1h-1v-1zm-13 6v-1h1v2h-1v1h-2v-2zm0-3v2h-2v-2zm3-1v2h-1v-2zm1-2v1h-4v-1zm0-3h2v1h-1v1h-1v-2zM4 12h2v2h2v1H4zm7 0v1h-1v-1zm-2 1H7v-1h2zm5 2v-1h1v1h1v2h-1v-1h-1v3h-1v-3h-2v-1zm3-7h-1V6h1v1h3v2h-2v1h-1v1h-1V9h1zm-1-3v1h-1v1h-1V6h-1V5h2V4h4v1zm-3-1v1h-1V4zm15 13h-1v-1h-3v-1h3v-1h1zm-1-4v1h-4v2h-1v-3zm1 0h-1v-1h1zm-11 2v-1h1v-2h1v3h-2zm-2 3h1v1h-1zm11 0v2h-1v-2zm1 0h-1v-1h1zm0 1v-1h1v1zM8 17h1v2H8zm3 1v-1h1v1zm2 2v1h-1v-1zm9 7v1h-1v-2h1v-1h2v2zm-4-1h1v2h-3v-1h2zm1-6v-1h4v-2h1v4h1v1h-1v1h1v1h-4v1h-1v1h-1v-1h-1v-4h1v1h2v1h2v-3h-3v1h-1zm1-4h2v1h-2zM9 20v-1h1v1zm-3-3v1h1v1H6v1H5v-3zm11-5v-1h1v1zm3 0h-1v-2h1zm1 2h-1v-1h1zm1 8h-1v-1h1zm-12-6h1v1H9v-3h2v1h-1zm6-4v1h-2v1h-3v-1h2v-1h1V9h1v2h1zm0-3h-1V8h1zm-3 1v2h-1v-2zm1-2v1h-1V8zm3 5v1h-1v-1z"/></svg>