<svg xmlns="http://www.w3.org/2000/svg" viewBox="0 0 24 24"><path d="M17.879 23H16v-2h1.879a2.205 2.205 0 002.203-2.203V14.5a3.489 3.489 0 011.053-2.5 3.489 3.489 0 01-1.053-2.5V5.203A2.205 2.205 0 0017.879 3H16V1h1.879a4.208 4.208 0 014.203 4.203V9.5a1.502 1.502 0 001.5 1.5v2a1.502 1.502 0 00-1.5 1.5v4.297A4.208 4.208 0 0117.879 23zM11.25 7.5a1.25 1.25 0 101.25-1.25 1.25 1.25 0 00-1.25 1.25zm2.657 5.6h-1.9A19.177 19.177 0 019.915 22h1.578a15.979 15.979 0 002.414-8.9zM8 21H6.318a2.205 2.205 0 01-2.203-2.203V14.5A3.489 3.489 0 003.062 12a3.489 3.489 0 001.053-2.5V5.203A2.205 2.205 0 016.318 3H8V1H6.318a4.208 4.208 0 00-4.203 4.203V9.5a1.502 1.502 0 01-1.5 1.5v2a1.502 1.502 0 011.5 1.5v4.297A4.208 4.208 0 006.318 23H8z"/></svg>