<svg xmlns="http://www.w3.org/2000/svg" viewBox="0 0 16 16"><path d="M11.078 15H10.2v-2h.878a.923.923 0 00.922-.922V9.5a2.12 2.12 0 01.664-1.5A2.12 2.12 0 0112 6.5V3.922A.923.923 0 0011.078 3H10.2V1h.878A2.925 2.925 0 0114 3.922V6.5a1.41 1.41 0 001 .5v2a1.37 1.37 0 00-1 .516v2.562A2.925 2.925 0 0111.078 15zM4.8 13h-.878A.923.923 0 013 12.078V9.5A2.12 2.12 0 002.336 8 2.12 2.12 0 003 6.5V3.922A.923.923 0 013.922 3H4.8V1h-.878A2.925 2.925 0 001 3.922v2.562A1.37 1.37 0 010 7v2a1.41 1.41 0 011 .5v2.578A2.925 2.925 0 003.922 15H4.8zm1.7-6.5a1 1 0 101-1 1 1 0 00-1 1zM9 10.106l-1.944.012A10.266 10.266 0 016 15h1a6.191 6.191 0 002-4.894z"/></svg>