<svg xmlns="http://www.w3.org/2000/svg" viewBox="0 0 16 16"><path d="M10.578 14H10v-1h.578A1.423 1.423 0 0 0 12 11.578V9a1.995 1.995 0 0 1 .679-1.5A1.995 1.995 0 0 1 12 6V3.422A1.423 1.423 0 0 0 10.578 2H10V1h.578A2.425 2.425 0 0 1 13 3.422V6a1.001 1.001 0 0 0 1 1v1a1.001 1.001 0 0 0-1 1v2.578A2.425 2.425 0 0 1 10.578 14zM2 3.422V6a1.001 1.001 0 0 1-1 1v1a1.001 1.001 0 0 1 1 1v2.578A2.425 2.425 0 0 0 4.422 14H5v-1h-.578A1.423 1.423 0 0 1 3 11.578V9a1.995 1.995 0 0 0-.679-1.5A1.995 1.995 0 0 0 3 6V3.422A1.423 1.423 0 0 1 4.422 2H5V1h-.578A2.425 2.425 0 0 0 2 3.422zM8.25 5.5a.75.75 0 1 0-.75.75.75.75 0 0 0 .75-.75zm-2.278 8.053l.795.607C6.817 14.094 8 12.504 8 9H7a8.169 8.169 0 0 1-1.028 4.553z"/></svg>