<svg xmlns="http://www.w3.org/2000/svg" viewBox="0 0 24 24"><path d="M13.25 7.5a.75.75 0 1 1-.75-.75.75.75 0 0 1 .75.75zM9.911 20.35l.816.578C10.819 20.798 13 17.666 13 12h-1a15.503 15.503 0 0 1-2.089 8.35zM4 5.703V9a2.002 2.002 0 0 1-2 2v1a2.002 2.002 0 0 1 2 2v3.297A3.707 3.707 0 0 0 7.703 21H9v-1H7.703A2.706 2.706 0 0 1 5 17.297V14a2.999 2.999 0 0 0-1.344-2.5A2.999 2.999 0 0 0 5 9V5.703A2.706 2.706 0 0 1 7.703 3H9V2H7.703A3.707 3.707 0 0 0 4 5.703zM20 9V5.703A3.707 3.707 0 0 0 16.297 2H15v1h1.297A2.706 2.706 0 0 1 19 5.703V9a2.999 2.999 0 0 0 1.344 2.5A2.999 2.999 0 0 0 19 14v3.297A2.706 2.706 0 0 1 16.297 20H15v1h1.297A3.707 3.707 0 0 0 20 17.297V14a2.002 2.002 0 0 1 2-2v-1a2.002 2.002 0 0 1-2-2z"/></svg>