<svg xmlns="http://www.w3.org/2000/svg" viewBox="0 0 16 16"><path d="M14 8v1a1.001 1.001 0 00-1 1v2.578A2.425 2.425 0 0110.578 15H10v-1h.578A1.423 1.423 0 0012 12.578V10a1.995 1.995 0 01.679-1.5A1.995 1.995 0 0112 7V4.422A1.423 1.423 0 0010.578 3H10V2h.578A2.425 2.425 0 0113 4.422V7a1.001 1.001 0 001 1zM2 4.422V7a1.001 1.001 0 01-1 1v1a1.001 1.001 0 011 1v2.578A2.425 2.425 0 004.422 15H5v-1h-.578A1.423 1.423 0 013 12.578V10a1.995 1.995 0 00-.679-1.5A1.995 1.995 0 003 7V4.422A1.423 1.423 0 014.422 3H5V2h-.578A2.425 2.425 0 002 4.422zM7.5 5.75a.75.75 0 10.75.75.75.75 0 00-.75-.75zm-1.483 8.93l.816.577a9.162 9.162 0 001.224-5.15l-1 .011a8.413 8.413 0 01-1.04 4.563z"/></svg>