<?xml version="1.0" encoding="UTF-8"?><svg id="icons" xmlns="http://www.w3.org/2000/svg" viewBox="0 0 32 32"><defs><style>.cls-1{fill:none;}.cls-1,.cls-2{stroke-width:0px;}</style></defs><rect class="cls-1" width="32" height="32"/><path class="cls-2" d="M29,7c0-2.5332-6.44043-3.90039-12.5-3.90039s-12.491,1.36719-12.491,3.90039v7c.33154-.15021.991-.47772.991-.52734v-4.87628c2.03448,1.50452,6.87335,2.40363,11.5,2.40363s9.46552-.89911,11.5-2.40363v5.22882c0,1.29395-4.375,3.1748-11.5,3.1748-1.28345,0-2.47394-.06447-3.5694-.16805.23682.33026.44476.68103.62469,1.04901.97235.07477,1.96265.11904,2.9447.11904,4.62665,0,9.46552-.9162,11.5-2.49719v7.98645c0,1.54681-4.45142,3.43903-11,3.51074.18628.34906.36664.69208.53412,1,5.76245-.15039,11.46588-1.83997,11.46588-4.51074V7ZM16.5,10c-7.125,0-11.5-1.78906-11.5-3s4.375-2.90039,11.5-2.90039,11.5,1.68945,11.5,2.90039-4.375,3-11.5,3ZM11.43317,24.73596c.85162-1.00946,1.36682-2.31189,1.36682-3.73602,0-3.20325-2.59674-5.79993-5.79999-5.79993s-5.79999,2.59668-5.79999,5.79993,2.59674,5.80005,5.79999,5.80005c1.42767,0,2.73285-.51807,3.74335-1.37354l4.57776,4.5777c.18555.18561.48633.18591.6723.00079l.01709-.01703c.0896-.08917.14001-.21033.1402-.33673.00012-.12646-.05005-.24774-.1394-.3371l-4.57812-4.57812ZM2.20001,21c0-2.64661,2.15338-4.79999,4.79999-4.79999s4.79999,2.15338,4.79999,4.79999-2.15338,4.79999-4.79999,4.79999-4.79999-2.15338-4.79999-4.79999Z"/></svg>