<?xml version="1.0" encoding="UTF-8"?><svg id="icons" xmlns="http://www.w3.org/2000/svg" viewBox="0 0 16 16"><defs><style>.cls-1{fill:none;}.cls-1,.cls-2{stroke-width:0px;}</style></defs><rect class="cls-1" width="16" height="16"/><path class="cls-2" d="M8.5,1c-3.8877,0-6.5.98438-6.5,2.47949v3.35101c.32239-.07739.65424-.12933,1-.12933v-1.79474c1.10126.67175,3.04523,1.07306,5.5,1.07306s4.39874-.40131,5.5-1.07306v2.57306c0,.50684-1.66113,1.60999-5.5,1.60999-.66406,0-1.23981-.03772-1.77625-.08948.18494.32458.33044.56146.42615.93152.43182.02875.87817.04797,1.3501.04797,2.45477,0,4.39874-.40131,5.5-1.07306v2.57306c0,.50684-1.66113,1.55334-5.5,1.55334-.36139,0-.68481-.01648-1.00806-.03284l1.03229.97913c3.87408-.00427,6.47577-1.00769,6.47577-2.49963V3.47949c0-1.49512-2.6123-2.47949-6.5-2.47949ZM8.5,5c-3.83887,0-5.5-1.01367-5.5-1.52051s1.66113-1.5,5.5-1.5,5.5.99316,5.5,1.5-1.66113,1.52051-5.5,1.52051ZM5.3703,12.66315c.33148-.47144.52972-1.04309.52972-1.66315,0-1.60162-1.29846-2.90002-2.90002-2.90002S.09998,9.39838.09998,11s1.2984,2.89996,2.90002,2.89996c.62006,0,1.19171-.19824,1.66315-.52972l2.39752,2.39746c.19525.19525.51178.19531.70709.00006.09375-.09381.14642-.22095.14642-.35358.00006-.13263-.05267-.25983-.14642-.35358l-2.39746-2.39746ZM1.09998,11c0-1.04755.85248-1.90002,1.90002-1.90002s1.90002.85248,1.90002,1.90002-.85248,1.89996-1.90002,1.89996-1.90002-.85242-1.90002-1.89996Z"/></svg>