<svg xmlns="http://www.w3.org/2000/svg" viewBox="0 0 32 32"><path d="M15.5.999a14.5 14.5 0 1 0 14.5 14.5A14.501 14.501 0 0 0 15.5.999zM17 24.25a.75.75 0 0 1-.75.75h-1.5a.75.75 0 0 1-.75-.75v-1.5a.75.75 0 0 1 .75-.75h1.5a.75.75 0 0 1 .75.75zm1.366-7.873c-1.159 1.1-1.377 1.418-1.377 2.89V20h-3v-1.198c0-2.081.574-2.587 1.922-3.934l.52-.493a4.538 4.538 0 0 0 1.709-3.317 2.482 2.482 0 0 0-2.607-2.688 2.9 2.9 0 0 0-2.544 2.155A5.794 5.794 0 0 0 12.937 12H9.99v-.712A5.49 5.49 0 0 1 15.561 6C18.91 6 21 7.901 21 10.976a6.762 6.762 0 0 1-2.634 5.4z"/></svg>