<?xml version="1.0" encoding="UTF-8"?><svg id="icons" xmlns="http://www.w3.org/2000/svg" viewBox="0 0 32 32"><defs><style>.cls-1{fill:none;}.cls-1,.cls-2{stroke-width:0px;}</style></defs><rect class="cls-1" width="32" height="32"/><path class="cls-2" d="m2.7256,7h-1.7256l.1533-1h1.7266l.2539-1.6992c.2685-1.9297,1.1338-3.3008,3.2656-3.3008.3389,0,.7471.0684.9815.2031l-.3545,1.1856c-.2715-.1026-.5586-.1699-.8643-.1699-1.3721,0-1.5576.998-1.7598,2.3701l-.2011,1.4111h1.9287l-.1533,1h-1.9297l-.9639,7h-1.32129l.96389-7Zm7.2773,2.6934l-2.3437-3.6934h1.7451l1.71,2.873,2.4091-2.873h1.6231l-3.2822,3.6934,2.7021,4.3066h-1.76069l-2.05181-3.4531-2.9746,3.4531h-1.6572l3.8808-4.3066Zm17.9971-1.6934h-11.89221l-.88873,1h12.78094v11.6955l1,.75V3H9.25067l-.29913,1h19.04846v4Zm-6,18H4v-10.5h-1v11.5h19v-1Zm1-7v12l8-6-8-6Z"/></svg>