<?xml version="1.0" encoding="UTF-8"?><svg id="icons" xmlns="http://www.w3.org/2000/svg" viewBox="0 0 24 24"><defs><style>.cls-1{fill:none;}.cls-1,.cls-2{stroke-width:0px;}</style></defs><rect class="cls-1" width="24" height="24"/><path class="cls-2" d="m5.03313,6.93512h-1.80444l-.78172,6.06488h-1.23553l.78172-6.06488H.37956l.14337-.93512h1.6145l.29317-1.89062c.2511-1.80444,1.06018-3.08655,3.05365-3.08655.31689,0,.69861.06396.91779.18994l-.33148,1.10864c-.25391-.09595-.52234-.15887-.80823-.15887-1.28302,0-1.45648.93323-1.64557,2.21625l-.24379,1.62122h1.80353l-.14337.93512Zm8.02608-.93512h-1.51776l-1.83332,2.20575-1.322-2.20575h-1.63184l1.91459,2.9729-3.62891,4.0271h1.54962l2.78156-3.229,1.91864,3.229h1.64636l-2.52667-4.0271,2.64972-2.9729Zm7.94079,0h-5.89569l-.89124,1h6.78693v6.80261l1,.81262V2h-13.81024l-.29895,1h13.10919v3Zm-5,14H3v-6h-1v7h14v-1Zm1,3.94971l6.70703-5.44873-6.70703-5.4502v10.89893Z"/></svg>