<?xml version="1.0" encoding="UTF-8"?><svg id="icons" xmlns="http://www.w3.org/2000/svg" viewBox="0 0 32 32"><path d="M11.72272,23.32397l-2.11169-2.11096,4.39301-4.39282-.70685-.70685-4.9353,4.9353-2.34259,5.46527c-.04932,.11517-.02362,.24878,.065,.3374,.08856,.08856,.22217,.11432,.33734,.06494l5.46533-2.34253,4.93488-4.93567-.7066-.7066-4.39252,4.39252Zm-4.10101,1.99017l1.40265-3.2738,1.87115,1.87054-3.2738,1.40326ZM21.90417,8.92029l2.11127,2.11096-5.07208,5.07208,.70642,.70636,5.33783-5.33868,1.80127-1.7984c.48682-.48682,.44989-1.2381-.03699-1.7262l-1.76233-1.76233c-.4881-.48688-1.23938-.5238-1.7262-.03699l-7.13806,7.13806,.70691,.70691,5.07196-5.07178Zm2.06616-2.0661c.03809-.0376,.0752-.0542,.12109-.0542,.06348,0,.13379,.03369,.19238,.09229l1.76074,1.76123c.01758,.01758,.1709,.17871,.03711,.31152l-1.35919,1.35919-2.11127-2.11096,1.35913-1.35907Zm6.01966,20.34601l.01-21.40186c0-1.54297-1.25684-2.79834-2.80176-2.79834H5.79834c-1.54297,0-2.79834,1.25537-2.79834,2.79834V27.2002c0,1.54395,1.25635,2.7998,2.80029,2.7998H27.19971c1.54395,0,2.79029-1.25586,2.79029-2.7998ZM6.84033,4H27.19824c.99365,0,1.80176,.80664,1.80176,1.79834V27.2002c0,.31104-.08655,.59943-.22607,.85498L4.94464,4.2254c.25519-.13916,.54315-.2254,.8537-.2254h1.04199Zm-1.04004,25c-.99268,0-1.80029-.80762-1.80029-1.7998V5.79834c0-.31696,.08948-.61066,.23401-.86951L28.07031,28.76562c-.25916,.14478-.55322,.23438-.87061,.23438H5.80029Z"/><path fill="none" d="M0 0h32v32H0z"/></svg>