<?xml version="1.0" encoding="UTF-8"?><svg id="icons" xmlns="http://www.w3.org/2000/svg" viewBox="0 0 16 16"><path d="M9.55646,5.92932l1.41333,1.41461-.39301,.39301,.70636,.70636,.9931-.99347,1.44519-1.44287c.39056-.39056,.36096-.99329-.02966-1.38489l-1.41388-1.41388c-.3916-.39062-.99432-.42023-1.38489-.02966l-2.43732,2.43732,.70715,.70709,.39362-.39362Zm1.79755-1.79755c.11963-.11963,.31366-.11963,.43329,0l.98096,.9809c.05743,.0575,.08972,.13544,.08972,.21667s-.03229,.15918-.08972,.21667l-1.09052,1.09045-1.41418-1.41425,1.09045-1.09045Zm-4.39154,7.21997l-1.41394-1.41449,.78619-.78619-.70715-.70709-.78644,.7865-1.75568,4.09613c-.05988,.13959-.02869,.30151,.07874,.40894,.10736,.10736,.26929,.13855,.40887,.07874l4.09619-1.75574,.78632-.78656-.70673-.70673-.78638,.7865Zm-2.33813,.92395l.55414-1.2937,.7392,.7392-1.29333,.5545Zm11.37567,1.79559V2.92871c0-1.06348-.86523-1.92871-1.92871-1.92871H2.92871c-1.06348,0-1.92871,.86523-1.92871,1.92871V14.07129c0,1.06348,.86523,1.92871,1.92871,1.92871H14.07129c1.06348,0,1.92871-.86523,1.92871-1.92871ZM4.83984,2H14.07129c.51221,0,.92871,.4165,.92871,.92871V14.07129c0,.06189-.02374,.11609-.03534,.17462L2.75409,2.03534c.05853-.0116,.11273-.03534,.17462-.03534h1.91113Zm-1.91113,13c-.51221,0-.92871-.4165-.92871-.92871V2.92871c0-.06885,.02496-.12958,.03925-.19415L14.26544,14.96075c-.06458,.01428-.12531,.03925-.19415,.03925H2.92871Z"/><path fill="none" d="M0 0h16v16H0z"/></svg>