<svg id="icons" xmlns="http://www.w3.org/2000/svg" viewBox="0 0 24 24"><path d="M4.92188,16.71l-.65137.75781A6.83221,6.83221,0,0,1,2.2002,12.48535,6.37205,6.37205,0,0,1,8.58643,6H16.04L14.39941,4.35938l.707-.707L17.9541,6.5,15.10645,9.34766l-.707-.707L16.04,7H8.58643A5.386,5.386,0,0,0,3.2002,12.5,5.92041,5.92041,0,0,0,4.92188,16.71ZM19.72119,7.53223,19.06982,8.29a5.94429,5.94429,0,0,1,1.73,4.21A5.39018,5.39018,0,0,1,15.40527,18H7.96l1.64063-1.64062-.707-.707L6.0459,18.5l2.84765,2.84766.707-.707L7.96,19h7.44531a6.37616,6.37616,0,0,0,6.39453-6.48633A6.85736,6.85736,0,0,0,19.72119,7.53223Z"/><path fill="none" d="M0 0h24v24H0z"/></svg>