<svg id="icons" xmlns="http://www.w3.org/2000/svg" viewBox="0 0 32 32"><path d="M7.5542,22.01562l-.52246.85352A8.25964,8.25964,0,0,1,3.2002,15.877,7.87425,7.87425,0,0,1,11.0542,8H21.043L18.39648,5.35352l.707-.707L22.957,8.5l-3.85351,3.85352-.707-.707L21.043,9H11.0542a6.87327,6.87327,0,0,0-6.854,6.877A7.24057,7.24057,0,0,0,7.5542,22.01562ZM24.96436,9.13086l-.52247.85352a7.24213,7.24213,0,0,1,3.35791,6.13867A6.87535,6.87535,0,0,1,20.94189,23H10.957l2.64649-2.64648-.707-.707L9.043,23.5l3.85351,3.85352.707-.707L10.957,24h9.98486a7.876,7.876,0,0,0,7.85791-7.877A8.2641,8.2641,0,0,0,24.96436,9.13086Z"/><path fill="none" d="M0 0h32v32H0z"/></svg>