<?xml version="1.0" encoding="UTF-8"?><svg id="icons" xmlns="http://www.w3.org/2000/svg" viewBox="0 0 24 24"><defs><style>.cls-1{fill:none;}</style></defs><path d="M16.91833,12.67053l1.29913-.75006-1.44696-2.50641c-.08203-.14062-.2168-.15576-.27051-.15576s-.18848,.01514-.27051,.15576l-.22949,.39752-.76941,1.33276-.86542-.49963,.99908-1.73065c.47266-.82129,1.79883-.82129,2.27148,0l.04962,.08594,1.39752,2.42084,1.29956-.75031-.4162,3.27911-3.04791-1.27911Zm3.58167-7.67053H3.44592l-.00049-.00549c-.80133-.02942-1.44543-.68604-1.44543-1.49451,0-.82715,.67285-1.5,1.5-1.5H20.5c.82715,0,1.5,.67285,1.5,1.5,0,.80841-.64398,1.46497-1.44531,1.49445l-.00055,.00555h-.05414Zm0-1c.27539,0,.5-.22412,.5-.5s-.22461-.5-.5-.5H3.5c-.27539,0-.5,.22412-.5,.5s.22461,.5,.5,.5H20.5Zm-1.04718,2l-.28827,3h1.00452l.28882-3h-1.00507Zm-8.77509,12.34424c.23633,.41064,.66113,.65576,1.13574,.65576h2.18658v-1h-2.18658c-.16211,0-.24316-.10889-.27051-.15576-.02637-.04688-.08105-.17139,0-.31201l1.13855-1.97235,1.29962,.75037-.4162-3.27911-3.04791,1.27911,1.29907,.75-1.13837,1.97198c-.2373,.41113-.2373,.90137,0,1.31201Zm11.64453-1.31201l-1.01538-1.75885-.86542,.49963,1.01556,1.75922c.08105,.14111,.02637,.26514,0,.31201-.02734,.04688-.10742,.15576-.26953,.15576h-3.1875v-1.5l-2,1.33331-1,.66669,1,.66669,2,1.33331v-1.5h3.1875c.47363,0,.89844-.24512,1.13477-.65527,.2373-.41113,.2373-.90137,0-1.3125Zm-6.32227,4.96777H6.35547c-.14258,0-.26562-.10156-.28613-.19092l-1.52191-15.80908h-1.00507l1.5387,15.95557c.12207,.60498,.65723,1.04443,1.27441,1.04443h11.28906c.58435,0,1.08356-.40149,1.24646-1h-2.89099Z"/><rect class="cls-1" width="24" height="24"/></svg>