<?xml version="1.0" encoding="UTF-8"?><svg id="icons" xmlns="http://www.w3.org/2000/svg" viewBox="0 0 16 16"><defs><style>.cls-1{fill:none;}</style></defs><path d="M16,1.5c0-.82715-.67285-1.5-1.5-1.5H1.5C.67285,0,0,.67285,0,1.5s.67285,1.5,1.5,1.5H14.5c.82715,0,1.5-.67285,1.5-1.5ZM1,1.5c0-.27588,.22461-.5,.5-.5H14.5c.27539,0,.5,.22412,.5,.5s-.22461,.5-.5,.5H1.5c-.27539,0-.5-.22412-.5-.5ZM11.65308,7.96497l.86633-.50018-.72058-1.24799c-.03613-.06201-.10254-.1001-.17383-.1001s-.1377,.03809-.17285,.09961l-.00098,.00049-.45117,.78162-.03815,.0661-.86542-.49963,.4895-.84808c.10004-.17389,.24652-.30322,.41406-.39545,.54578-.30042,1.33777-.1712,1.66504,.39594l.72021,1.24762,.86591-.49994-.29907,2.48206-2.29901-.98206Zm-4.2312,3.23376l.71326-1.23578-.86633-.50018,2.29901-.98206,.29907,2.48206-.86639-.50018-.71436,1.23761c-.03613,.06201-.03613,.1377-.00098,.19824,.03711,.06348,.10352,.10156,.17383,.10156h1.54102v1h-1.54102c-.42676,0-.8252-.22998-1.03906-.60059-.21484-.36865-.21484-.83008,.00195-1.20068Zm4.42383,3.80127h1.11359l-.00714,.05957c-.11133,.56152-.57422,.94043-1.10645,.94043H4.1543c-.53223,0-.99512-.37891-1.10059-.90137L1.72168,4h1.00635l1.31201,10.94043c.00586,.01807,.05566,.05957,.11426,.05957h7.69141Zm3.98438-3.7998c.21387,.37012,.21387,.82959,0,1.19971-.21289,.37012-.61133,.6001-1.03906,.6001h-1.79102v1l-2-1.5,2-1.5v1h1.79102c.07129,0,.1377-.03809,.17285-.09961,.03613-.06201,.03613-.13867,.00098-.2002l-.76495-1.32489,.86554-.49969,.76465,1.32458Z"/><rect class="cls-1" width="16" height="16"/></svg>