<?xml version="1.0" encoding="UTF-8"?><svg id="icons" xmlns="http://www.w3.org/2000/svg" viewBox="0 0 32 32"><defs><style>.cls-1{fill:none;}</style></defs><path d="M29,4.5c0-.82715-.67285-1.5-1.5-1.5H4.5c-.82715,0-1.5,.67285-1.5,1.5s.67285,1.5,1.5,1.5H27.5c.82715,0,1.5-.67285,1.5-1.5Zm-25,0c0-.27588,.22461-.5,.5-.5H27.5c.27539,0,.5,.22412,.5,.5s-.22461,.5-.5,.5H4.5c-.27539,0-.5-.22412-.5-.5Zm19.97076,11.81482l1.73224-1.00012-1.76941-3.0647c-.13086-.22559-.34668-.25-.43359-.25s-.30273,.02441-.43359,.25l-.99585,1.72491-.07056-.04071-.79492-.45892,.79492-1.37683,.20117-.34845c.27051-.46973,.75684-.75,1.29883-.75s1.02832,.28027,1.29883,.75l1.76959,3.06506,1.73242-1.00024-.66504,3.84802-3.66504-1.34802Zm-.10437,10.68518h1.00586l-.21503,1.75684c-.14551,.73633-.76465,1.24316-1.47656,1.24316H8.81934c-.71191,0-1.33105-.50684-1.4707-1.20557L4.68018,7h1.0069l2.64789,21.63574c.04102,.19531,.24707,.36426,.48438,.36426h14.36133c.2373,0,.44336-.16895,.49023-.40186l.1955-1.59814Zm6.70587-3.75c-.27148,.46973-.75684,.75-1.29883,.75h-4.27344v2l-3-2.5,3-2.5v2h4.27344c.26074,0,.38965-.1748,.43262-.25,.04395-.0752,.13086-.27441,.00098-.5l-1.30402-2.25867,.86542-.49969,1.30383,2.25836c.27148,.46973,.27148,1.03027,0,1.5Zm-3.74188-12.25h-1.00671l.48932-4h1.00696l-.48956,4Zm-9.53741,11.25c-.12988,.22559-.04297,.4248,.00098,.5,.04297,.0752,.17188,.25,.43262,.25h3.2735v1h-3.2735c-.54199,0-1.02734-.28027-1.29883-.75s-.27148-1.03027,0-1.5l2.07739-3.59821-1.73254-1.00031,3.6651-1.34802,.66504,3.84808-1.73218-1.00006-2.07758,3.59851Z"/><rect class="cls-1" width="32" height="32"/></svg>