<?xml version="1.0" encoding="UTF-8"?><svg id="icons" xmlns="http://www.w3.org/2000/svg" viewBox="0 0 16 16"><defs><style>.cls-1{fill:none;}.cls-1,.cls-2{stroke-width:0px;}</style></defs><rect class="cls-1" width="16" height="16"/><path class="cls-2" d="M15.99103,8.4248c0-1.51855-1.11212-2.4248-2.99103-2.4248s-3,.90625-3,2.4248v4.23633l3,3.01953,3-3.01953-.00897-4.23633ZM15,12.24902l-2,2.01367-2-2.01367v-3.82422c0-.94531.67285-1.55084,2-1.55084s2,.60553,2,1.55084v3.82422ZM14.00006,9.5c0,.55249-.44751,1-1,1s-1-.44751-1-1c0-.55243.44751-1,1-1s1,.44757,1,1ZM1,5.47949v-1.57306c1.10126.67175,3.04523,1.09357,5.5,1.09357s4.39874-.42181,5.5-1.09357v.93091c.31238-.05365.64227-.08734,1-.08734v-2.27051c0-1.49512-2.6123-2.47949-6.5-2.47949S0,.98438,0,2.47949v8c0,1.49512,2.6123,2.5,6.5,2.5.91058,0,1.74664-.05768,2.5-.16132v-.92804c-.70044.11182-1.5296.18182-2.5.18182-3.83887,0-5.5-1.08563-5.5-1.59247v-3.57306c1.10126.67175,3.04523,1.07306,5.5,1.07306.9104,0,1.74701-.05719,2.5-.16095v-.94769c-.70172.11462-1.51764.19214-2.5.19214-3.83887,0-5.5-1.07666-5.5-1.5835ZM6.5.92548c3.83887,0,5.5,1.04718,5.5,1.55402s-1.66113,1.5835-5.5,1.5835S1,2.98633,1,2.47949,2.66113.92548,6.5.92548Z"/></svg>