<?xml version="1.0" encoding="UTF-8"?><svg id="icons" xmlns="http://www.w3.org/2000/svg" viewBox="0 0 24 24"><defs><style>.cls-1{fill:none;}.cls-1,.cls-2{stroke-width:0px;}</style></defs><rect class="cls-1" width="24" height="24"/><path class="cls-2" d="M19,9c-2.50488,0-4,1.19434-4,3.19434v7.51953l4,4.02539,4-4.02539v-7.62012c0-1.15527-.51953-3.09375-4-3.09375ZM22,19.30176l-3,3.01953-3-3.01953v-7.10742c0-1.81348,1.63184-2.29333,3-2.29333,3,0,3,1.67517,3,2.19275v7.20801ZM3,9.84766v-3.43622c1.64313,1.04572,5.08203,1.58856,8.5,1.58856s6.85687-.54285,8.5-1.58856v1.14764c.3551.03906.69244.09338,1,.17181v-2.7309c0-1.96973-4.7793-3-9.5-3S2,3.03027,2,5v12.5791c0,2.19434,4.7793,3.4209,9.5,3.4209.84106,0,1.6825-.04156,2.5-.11798v-.85474c-.77234.07843-1.60413.12567-2.5.12567-5.2666,0-8.5-1.59631-8.5-2.57385v-6.24854c1.64313,1.09882,5.08203,1.66943,8.5,1.66943.84125,0,1.68329-.03534,2.5-.10388v-.87415c-.77441.0705-1.60699.11298-2.5.11298-5.18848,0-8.5-1.40936-8.5-2.28729ZM11.5,2.92798c5.5,0,8.5,1.39331,8.5,2.07202s-3,2.06299-8.5,2.06299S3,5.67871,3,5s3-2.07202,8.5-2.07202ZM19,12.09998c-1.04742,0-1.90002.8526-1.90002,1.90002s.8526,1.89996,1.90002,1.89996,1.90002-.85254,1.90002-1.89996-.8526-1.90002-1.90002-1.90002ZM20,14.75c0,.13806-.11194.25-.25.25h-1.5c-.13806,0-.25-.11194-.25-.25v-1.5c0-.13806.11194-.25.25-.25h1.5c.13806,0,.25.11194.25.25v1.5Z"/></svg>