<svg id="icons" xmlns="http://www.w3.org/2000/svg" viewBox="0 0 24 24"><defs><style>.cls-1{fill:none;}</style></defs><rect class="cls-1" width="24" height="24"/><path d="M9.5,7.9A2.4,2.4,0,1,0,7.1,5.5,2.40255,2.40255,0,0,0,9.5,7.9ZM9.5,4A1.5,1.5,0,1,1,8,5.5,1.50164,1.50164,0,0,1,9.5,4Zm.5,7H9V9h1ZM9,12h1v2H9ZM21,22V12H20V10H19V9H18v1H16V8H13v2H12v5H8v7H2V20H4V19H2V17H4V16H2V14H4V13H2V11H4V10H2V8H4V7H2V5H4V4H2V2H1V23H23V22ZM19,11v1H17V11ZM14,9h1v1H14ZM9,22V16h3v6Zm4,0V11h3V22Zm4,0V13h3v9Z"/></svg>