<?xml version="1.0" encoding="UTF-8"?><svg id="icons" xmlns="http://www.w3.org/2000/svg" viewBox="0 0 32 32"><defs><style>.cls-1{fill:none;}.cls-1,.cls-2{stroke-width:0px;}</style></defs><rect class="cls-1" width="32" height="32"/><path class="cls-2" d="M25,13.01074c-3.17773,0-5,1.44434-5,3.96387v8.56641l5,5.03223,5-5.03223v-8.66602c0-2.49219-1.77539-3.86426-5-3.86426ZM29,25.12891l-4,4.02637-4-4.02637v-8.1543c0-2.44922,2.1748-3.06287,4-3.06287,2.6543,0,4,1.06287,4,2.96326v8.25391ZM24.98633,17.10645c-1.0293,0-1.86719.83789-1.86719,1.86719s.83789,1.86621,1.86719,1.86621,1.86719-.83691,1.86719-1.86621-.83789-1.86719-1.86719-1.86719ZM26,19.75c0,.13806-.11194.25-.25.25h-1.5c-.13806,0-.25-.11194-.25-.25v-1.5c0-.13806.11194-.25.25-.25h1.5c.13806,0,.25.11194.25.25v1.5ZM15.5,27.08209c-6.77734,0-11.5-2.01276-11.5-3.59283v-7.98645c2.03448,1.58099,6.87335,2.44,11.5,2.44,1.16943,0,2.35217-.0553,3.5-.16284v-.88165c-1.0769.10718-2.24304.17047-3.5.17047-7.125,0-11.5-1.94965-11.5-3.24359v-5.22882c2.03448,1.50452,6.87335,2.40399,11.5,2.40399s9.46552-.89948,11.5-2.40399v3.12329c.35303.07404.68726.16595,1,.28033v-5c0-2.5332-6.44043-4.00043-12.5-4.00043S3.009,4.4668,3.009,7c0,.03284-.009,16.48926-.009,16.48926,0,2.81836,6.44043,4.43982,12.5,4.43982,1.49921,0,3.00842-.11633,4.45032-.30914l-.76013-.76508c-1.14532.13611-2.36682.22723-3.69019.22723ZM15.5,3.91858c7.125,0,11.5,1.87048,11.5,3.08142s-4.375,3.08136-11.5,3.08136-11.5-1.87042-11.5-3.08136,4.375-3.08142,11.5-3.08142Z"/></svg>