<?xml version="1.0" encoding="UTF-8"?><svg id="icons" xmlns="http://www.w3.org/2000/svg" viewBox="0 0 32 32"><defs><style>.cls-1{fill:none;}</style></defs><g><path d="M28,9c-1.30194,0-2.40161,.8385-2.81573,2H14.81573c-.02661-.07458-.0495-.15002-.08173-.22174l7.08929-4.7262c.54736,.58038,1.31775,.94794,2.1767,.94794,3.96839,0,3.96839-6,0-6-1.6543,0-3,1.3457-3,3,0,.43591,.09814,.8476,.26605,1.22168l-7.08936,4.72626c-.54736-.58038-1.31775-.94794-2.1767-.94794-1.6543,0-3,1.3457-3,3s1.3457,3,3,3c.85895,0,1.62933-.36755,2.1767-.94794l7.08936,4.72626c-.16791,.37408-.26605,.78577-.26605,1.22168,0,1.6543,1.3457,3,3,3,3.96839,0,3.96839-6,0-6-.85895,0-1.62939,.36749-2.17676,.94794l-7.08929-4.7262c.16791-.37408,.26605-.78583,.26605-1.22174h10c0,1.6543,1.3457,3,3,3,3.96839,0,3.96839-6,0-6Zm-4-7c1.10303,0,2,.89746,2,2s-.89697,2-2,2-2-.89746-2-2,.89697-2,2-2Zm0,16c1.10303,0,2,.89746,2,2s-.89697,2-2,2-2-.89746-2-2,.89697-2,2-2Zm-12-4c-1.10303,0-2-.89746-2-2s.89697-2,2-2,2,.89746,2,2-.89697,2-2,2Zm16,0c-1.10303,0-2-.89746-2-2s.89697-2,2-2,2,.89746,2,2-.89697,2-2,2Z"/><polygon points="14.13611 17.15662 8.50006 22.79272 8.5 22.79266 8.49994 22.79272 2.86389 17.15662 2.1568 17.86377 7.79285 23.49982 7.79266 23.5 7.79285 23.50018 2.1568 29.13623 2.86389 29.84332 8.49994 24.20728 8.5 24.20734 8.50006 24.20728 14.13611 29.84332 14.8432 29.13623 9.20715 23.50018 9.20734 23.5 9.20715 23.49982 14.8432 17.86377 14.13611 17.15662"/></g><rect class="cls-1" width="32" height="32"/></svg>