<?xml version="1.0" encoding="UTF-8"?><svg id="icons" xmlns="http://www.w3.org/2000/svg" viewBox="0 0 16 16"><defs><style>.cls-1{fill:none;}</style></defs><path d="M6.48218,10.22504l-2.27502,2.27496,2.27496,2.27502-.70715,.70709-2.27496-2.27502-2.27502,2.27496-.70715-.70709,2.27502-2.27496L.51788,10.22498l.70715-.70715,2.27496,2.27502,2.27502-2.27496,.70715,.70715Zm9.51782-3.72504c0,.82715-.67285,1.5-1.5,1.5-.651,0-1.20081-.41925-1.4079-1H7.9079c-.02161,.06061-.047,.11847-.07593,.17523l2.68207,2.20337c.26434-.23267,.60693-.3786,.98596-.3786,.82715,0,1.5,.67285,1.5,1.5s-.67285,1.5-1.5,1.5-1.5-.67285-1.5-1.5c0-.17548,.03589-.34143,.09149-.49805l-2.75122-2.26025c-.23987,.1629-.52905,.2583-.84027,.2583-.82715,0-1.5-.67285-1.5-1.5s.67285-1.5,1.5-1.5c.31116,0,.60034,.09546,.84021,.2583l2.75128-2.26025c-.0556-.15662-.09149-.32257-.09149-.49805,0-.82715,.67285-1.5,1.5-1.5s1.5,.67285,1.5,1.5-.67285,1.5-1.5,1.5c-.37903,0-.72162-.14594-.98596-.3786l-2.68207,2.20331c.02893,.05676,.05432,.11469,.07593,.17529h5.1842c.20709-.58075,.7569-1,1.4079-1,.82715,0,1.5,.67285,1.5,1.5Zm-5-3.75c0,.13806,.11194,.25,.25,.25h.5c.13806,0,.25-.11194,.25-.25v-.48688c0-.14532-.1178-.26312-.26312-.26312h-.48688c-.13806,0-.25,.11188-.25,.25v.5Zm-4,3.51312c0-.14532-.1178-.26312-.26318-.26312h-.48682c-.13806,0-.25,.11194-.25,.25v.5c0,.13806,.11194,.25,.25,.25h.5c.13806,0,.25-.11194,.25-.25v-.48688Zm4,4.48688c0,.13806,.11194,.25,.25,.25h.5c.13806,0,.25-.11194,.25-.25v-.48688c0-.14532-.1178-.26312-.26318-.26312h-.48682c-.13806,0-.25,.11194-.25,.25v.5Zm4-4.48688c0-.14532-.1178-.26312-.26318-.26312h-.48682c-.13806,0-.25,.11194-.25,.25v.5c0,.13806,.11194,.25,.25,.25h.5c.13806,0,.25-.11194,.25-.25v-.48688Z"/><rect class="cls-1" width="16" height="16"/></svg>