<?xml version="1.0" encoding="UTF-8"?><svg id="icons" xmlns="http://www.w3.org/2000/svg" viewBox="0 0 24 24"><defs><style>.cls-1{fill:none;}</style></defs><path d="M6.70715,18l4.14642,4.14648-.70715,.70709-4.14642-4.14648L1.85352,22.85352l-.70715-.70709,4.14648-4.14642L1.14642,13.85352l.70715-.70715,4.14642,4.14648,4.14648-4.14642,.70709,.70715-4.14642,4.14642Zm13.79285-7c-1.20721,0-2.2171-.86005-2.4494-2h-6.1012c-.03662,.17981-.09583,.35052-.16888,.51416l3.02386,2.15991c.44647-.41479,1.03961-.67407,1.69562-.67407,3.3068,0,3.3068,5,0,5-1.37842,0-2.5-1.12109-2.5-2.5,0-.36169,.08075-.70349,.21948-1.01416l-3.02386-2.15991c-.44647,.41479-1.03961,.67407-1.69562,.67407-1.37842,0-2.5-1.12109-2.5-2.5s1.12158-2.5,2.5-2.5c.65601,0,1.24915,.25928,1.69562,.67407l3.02386-2.15991c-.13873-.31067-.21948-.65247-.21948-1.01416,0-1.37891,1.12158-2.5,2.5-2.5,3.3068,0,3.3068,5,0,5-.65601,0-1.24915-.25928-1.69562-.67407l-3.02386,2.15991c.07306,.16364,.13226,.33435,.16888,.51416h6.1012c.2323-1.13995,1.24219-2,2.4494-2,3.3068,0,3.3068,5,0,5Zm-5.5-7c0,.55225,.44769,1,1,1h1c.55231,0,1-.44775,1-1v-1c0-.55231-.44769-1-1-1h-1c-.55231,0-1,.44769-1,1v1Zm0,10c0,.55225,.44769,1,1,1h1c.55231,0,1-.44775,1-1v-1c0-.55231-.44769-1-1-1h-1c-.55231,0-1,.44769-1,1v1Zm-4-5v-1c0-.55231-.44769-1-1-1h-1c-.55231,0-1,.44769-1,1v1c0,.55225,.44769,1,1,1h1c.55231,0,1-.44775,1-1Zm11-1c0-.55231-.44769-1-1-1h-1c-.55231,0-1,.44769-1,1v1c0,.55225,.44769,1,1,1h1c.55231,0,1-.44775,1-1v-1Z"/><rect class="cls-1" width="24" height="24"/></svg>