<?xml version="1.0" encoding="UTF-8"?><svg id="icons" xmlns="http://www.w3.org/2000/svg" viewBox="0 0 16 16"><defs><style>.cls-1{fill:none;}.cls-1,.cls-2{stroke-width:0px;}</style></defs><path class="cls-2" d="M6,14h9v1H6v-1ZM1,13h3v3H1v-3ZM2,15h1v-1h-1v1ZM6,2v1h9v-1H6ZM6,9h9v-1H6v1ZM4,4H1V1h3v3ZM3,2h-1v1h1v-1ZM3.07355,8.49286l1.65887,1.64777-.56445.56836-1.66083-1.64972-1.72394,1.72394-.56641-.56641,1.72205-1.72205L.2207,6.78809l.56445-.56836,1.72009,1.70862,1.71155-1.71155.56641.56641-1.70966,1.70966Z"/><rect class="cls-1" width="16" height="16"/></svg>