<?xml version="1.0" encoding="UTF-8"?><svg id="icons" xmlns="http://www.w3.org/2000/svg" viewBox="0 0 32 32"><defs><style>.cls-1{fill:none;}.cls-1,.cls-2{stroke-width:0px;}</style></defs><path class="cls-2" d="M29,6v1H11v-1h18ZM11,17h18v-1H11v1ZM11,27h18v-1H11v1ZM8,9H3v-5h5v5ZM7,5h-3v3h3v-3ZM3,24h5v5H3v-5ZM4,28h3v-3h-3v3ZM9.3623,19.83301l-3.30621-3.32269,3.22711-3.22711-.56641-.56641-3.22571,3.22571-3.20691-3.22278-.56641.56445,3.20782,3.22382-3.2088,3.2088.56641.56641,3.2074-3.2074,3.3053,3.32166.56641-.56445Z"/><rect class="cls-1" width="32" height="32"/></svg>