<?xml version="1.0" encoding="UTF-8"?><svg id="icons" xmlns="http://www.w3.org/2000/svg" viewBox="0 0 24 24"><defs><style>.cls-1{fill:none;}.cls-1,.cls-2{stroke-width:0px;}</style></defs><path class="cls-2" d="M15,10h1v1h-1v-1ZM17,12h1v-1h-1v1ZM22,11v3h-3v-3h3ZM21,12h-1v1h1v-1ZM17,21h1v-1h-1v1ZM15,21h1v-1h-1v1ZM13,8.41687v14.58313h1V5h-1v3.41687ZM5,3.61688l7,4.20001v1.1662l-7-4.20001v.21692h-1v14h1v1h7v1h-7v1h-3v-3h1V5h-1v-3h3v1.61688ZM4,20h-1v1h1v-1ZM4,3h-1v1h1v-1ZM19,19h3v3h-3v-3ZM20,21h1v-1h-1v1Z"/><rect class="cls-1" y="0" width="24" height="24"/></svg>