<?xml version="1.0" encoding="UTF-8"?><svg id="icons" xmlns="http://www.w3.org/2000/svg" viewBox="0 0 32 32"><defs><style>.cls-1{fill:none;}.cls-1,.cls-2,.cls-3{stroke-width:0px;}.cls-2{fill:#6f6f6f;opacity:.5;}</style></defs><rect class="cls-1" width="32" height="32"/><path class="cls-3" d="M31,6v1h-9v-1h9ZM15,10h3v3h-1v13h1v3h-3v-1H6v1h-3v-3h1V6h-1v-3h3v1.64392l9,5.53845v-.18237ZM4,5h1v-1h-1v1ZM5,27h-1v1h1v-1ZM17,27h-1v1h1v-1ZM16,12h1v-1h-1v1ZM16,13h-1v-1.64392L6,5.81763v.18237h-1v20h1v1h9v-1h1v-13Z"/><path class="cls-2" d="M30,20v-3h-3v.56702l-9-5.53845v.97144h-.32861l9.32861,5.74066v1.25934h1v6h-1v.99988h-9.00006v1h9.00006v1.00012h3v-3h-1v-6h1ZM29,28h-1v-1h1v1ZM28,19v-1h1v1h-1Z"/></svg>