<?xml version="1.0" encoding="UTF-8"?><svg id="icons" xmlns="http://www.w3.org/2000/svg" viewBox="0 0 32 32"><defs><style>.cls-1{fill:none;}.cls-1,.cls-2{stroke-width:0px;}</style></defs><rect class="cls-1" width="32" height="32"/><path class="cls-2" d="M25,27h1v1h-1v-1ZM23,28h1v-1h-1v1ZM21,28h1v-1h-1v1ZM19,28h1v-1h-1v1ZM19,14h1v-1h-1v1ZM21,15h1v-1h-1v1ZM23,16h1v-1h-1v1ZM25,17h1v-1h-1v1ZM29,20h-1v1h1v-1ZM28,23h1v-1h-1v1ZM28,25h1v-1h-1v1ZM27,16h3v3h-3v-3ZM28,18h1v-1h-1v1ZM27,26h3v3h-3v-3ZM28,28h1v-1h-1v1ZM27,5V1h-1v4h-4v1h4v4h1v-4h4v-1h-4ZM15,10h3v3h-1v13h1v3h-3v-1H6v1h-3v-3h1V6h-1v-3h3v1.64392l9,5.53845v-.18237ZM4,5h1v-1h-1v1ZM5,27h-1v1h1v-1ZM17,27h-1v1h1v-1ZM16,12h1v-1h-1v1ZM16,13h-1v-1.64392L6,5.81763v.18237h-1v20h1v1h9v-1h1v-13Z"/></svg>