<?xml version="1.0" encoding="UTF-8"?><svg id="icons" xmlns="http://www.w3.org/2000/svg" viewBox="0 0 16 16"><defs><style>.cls-1{fill:none;}.cls-1,.cls-2{stroke-width:0px;}</style></defs><rect class="cls-1" width="16" height="16"/><path class="cls-2" d="M13,8v3h3v-3h-3ZM15,10h-1v-1h1v1ZM13,15h3v-3h-3v3ZM14,13h1v1h-1v-1ZM11,13h1v1h-1v-1ZM9,13h1v1h-1v-1ZM9,7h1v1h-1v-1ZM11,8h1v1h-1v-1ZM7,2h1v14h-1V2ZM3,1H0v3h1v8H0v3h3v-1h3v-1h-3v-1h-1V4h1v-.06573l3,2v-1.20184l-3-2v-1.73242ZM2,14h-1v-1h1v1ZM2,3h-1v-1h1v1Z"/></svg>