<?xml version="1.0" encoding="UTF-8"?><svg id="icons" xmlns="http://www.w3.org/2000/svg" viewBox="0 0 16 16"><defs><style>.cls-1{fill:none;}.cls-1,.cls-2{stroke-width:0px;}</style></defs><path class="cls-2" d="M13,11h1v1h-1v3h3v-3h-1v-1h1v-3h-3v3ZM15,14h-1v-1h1v1ZM14,9h1v1h-1v-1ZM11,8h1v1h-1v-1ZM11,13h1v1h-1v-1ZM9,7h1v1h-1v-1ZM9,13h1v1h-1v-1ZM16,2v1h-2v2h-1v-2h-2v-1h2V0h1v2h2ZM5,4.06573l-2-1.33331v-1.73242H0v3h1v8H0v3h3v-1.00024h2v1.00024h3v-3h-1v-5h1v-3h-3v.06573ZM1,2h1v1h-1v-1ZM2,14h-1v-1h1v1ZM7,14h-1v-1h1v1ZM6,5h1v1h-1v-1ZM6,12h-1v.99976h-2v-.99976h-1V4h1v-.06573l2,1.33331v1.73242h1v5Z"/><rect class="cls-1" width="16" height="16"/></svg>