<?xml version="1.0" encoding="UTF-8"?><svg id="icons" xmlns="http://www.w3.org/2000/svg" viewBox="0 0 32 32"><defs><style>.cls-1{fill:none;}.cls-1,.cls-2{stroke-width:0px;}</style></defs><path class="cls-2" d="M25,27h1v1h-1v-1ZM23,28h1v-1h-1v1ZM21,28h1v-1h-1v1ZM19,28h1v-1h-1v1ZM19,14h1v-1h-1v1ZM21,15h1v-1h-1v1ZM23,16h1v-1h-1v1ZM25,17h1v-1h-1v1ZM30,16v3h-3v-3h3ZM29,17h-1v1h1v-1ZM27,26h3v3h-3v-3ZM28,28h1v-1h-1v1ZM17,11.41284v19.58716h1V7h-1v4.41284ZM6,4.64362l10,6.15387v1.17426L6,5.81793v.18207h-1v20h1v1h10v1H6v1h-3v-3h1V6h-1v-3h3v1.64362ZM5,27h-1v1h1v-1ZM5,4h-1v1h1v-1Z"/><rect class="cls-1" width="32" height="32"/></svg>