<?xml version="1.0" encoding="UTF-8"?><svg id="icons" xmlns="http://www.w3.org/2000/svg" viewBox="0 0 16 16"><defs><style>.cls-1{fill:none;}.cls-1,.cls-2,.cls-3{stroke-width:0px;}.cls-2{fill:#6f6f6f;opacity:.5;}</style></defs><path class="cls-2" d="M16,11v-3h-3v.91064l-3-1.87488v.96423h-.34271l3.34271,2.08905v.91095h1v1h-1v1h-3v1h3v1h3v-3h-1v-1h1ZM15,14h-1v-1h1v1ZM14,9h1v1h-1v-1Z"/><path class="cls-3" d="M16,2v1h-5v-1h5ZM7,5h3v3h-1v4h1v3h-3v-1H3v1H0v-3h1V4H0V1h3v1.66077l4,2.5v-.16077ZM1,3h1v-1h-1v1ZM2,13h-1v1h1v-1ZM9,13h-1v1h1v-1ZM8,7h1v-1h-1v1ZM8,8h-1v-1.66077L3,3.83923v.16077h-1v8h1v1h4v-1h1v-4Z"/><rect class="cls-1" y="0" width="16" height="16"/></svg>