<svg xmlns="http://www.w3.org/2000/svg" viewBox="0 0 24 24"><path d="M23.517 10.931L13.069.485a1.51 1.51 0 00-2.137-.002L.483 10.931a1.512 1.512 0 000 2.137l10.45 10.449a1.51 1.51 0 002.135 0l10.449-10.449a1.512 1.512 0 000-2.137zm-.739 1.4L12.33 22.78a.466.466 0 01-.66 0L1.22 12.33a.469.469 0 010-.66L11.67 1.22a.465.465 0 01.658 0l10.451 10.448a.477.477 0 01.137.33.483.483 0 01-.138.332zm-8.424-4.685l2.853 2.854-2.854 2.854-.707-.707L15.293 11h-2.58A2.717 2.717 0 0010 13.714V16H9v-2.286A3.718 3.718 0 0112.714 10h2.579l-1.647-1.646z"/></svg>