<?xml version="1.0" encoding="UTF-8"?><svg id="icons" xmlns="http://www.w3.org/2000/svg" viewBox="0 0 24 24"><path d="m22,20.71849c0,.70776-.57375,1.28151-1.28151,1.28151H4.28151c-.70776,0-1.28151-.57375-1.28151-1.28151V4.28151c0-.70776.57375-1.28151,1.28151-1.28151h16.43697c.70776,0,1.28151.57375,1.28151,1.28151v16.43697Zm-1.28125.28151c.15527,0,.28125-.12598.28125-.28125V4.28125c0-.15527-.12598-.28125-.28125-.28125H4.28125c-.15527,0-.28125.12598-.28125.28125v16.4375c0,.15527.12598.28125.28125.28125h16.4375Zm-11.71914-3.49999c0-.82822-.6714-1.49962-1.49962-1.49962s-1.49962.6714-1.49962,1.49962.6714,1.49962,1.49962,1.49962,1.49962-.6714,1.49962-1.49962Zm-2.99961-7.50001v1c4.42871,0,8.03125,3.58887,8.03125,8h1c0-4.96289-4.05176-9-9.03125-9Zm0-4v1c6.50488,0,12,5.49512,12,12h1c0-7.04688-5.95312-13-13-13Z" style="stroke-width:0px;"/><rect width="24" height="24" style="fill:none; stroke-width:0px;"/></svg>