<?xml version="1.0" encoding="UTF-8"?><svg id="icons" xmlns="http://www.w3.org/2000/svg" viewBox="0 0 16 16"><path d="m5.50001,12.49979c-.55217,0-.9998-.44762-.9998-.9998s.44762-.9998.9998-.9998.9998.44762.9998.9998-.44762.9998-.9998.9998ZM2.92857,2c-.51284,0-.92857.41574-.92857.92857v11.14286c0,.51284.41574.92857.92857.92857h11.14286c.51284,0,.92857-.41574.92857-.92857V2.92857c0-.51284-.41574-.92857-.92857-.92857H2.92857Zm.07143,12V3h11v11H3Zm7-2h-1c0-2.3418-1.6416-3.97656-3.99316-3.97656v-1c2.89355,0,4.99316,2.09277,4.99316,4.97656Zm3.00684,0h-1c0-3.85938-3.14062-7-7-7v-1c4.41113,0,8,3.58887,8,8Z" style="stroke-width:0px;"/><rect width="16" height="16" style="fill:none; stroke-width:0px;"/></svg>