<?xml version="1.0" encoding="UTF-8"?><svg id="icons" xmlns="http://www.w3.org/2000/svg" viewBox="0 0 32 32"><path d="m29,5.8v21.4c0,.99-.81,1.8-1.8,1.8H5.8c-.99,0-1.8-1.01-1.8-2V5.8c0-.99.81-1.8,1.8-1.8h21.4c.99,0,1.8.81,1.8,1.8Zm-1,21.4V5.8c0-.44-.36-.8-.8-.8H5.8c-.44,0-.8.36-.8.8v21.4c0,.44.36.8.8.8h21.4c.44,0,.8-.36.8-.8ZM8,8v1c9.72,0,16,6.28,16,16h1c0-10.17-6.83-17-17-17Zm0,6v1c5.51,0,10,4.49,10,10h1c0-6.07-4.93-11-11-11Zm0,9.5c0,.83.67,1.5,1.5,1.5s1.5-.67,1.5-1.5-.67-1.5-1.5-1.5-1.5.67-1.5,1.5Z" style="stroke-width:0px;"/><rect width="32" height="32" style="fill:none; stroke-width:0px;"/></svg>