<svg id="icons" xmlns="http://www.w3.org/2000/svg" viewBox="0 0 32 32"><defs><style>.cls-1{fill:none;}</style></defs><rect class="cls-1" width="32" height="32"/><path d="M30.559,14.13928,28.79663,12.377a1.20328,1.20328,0,0,0-1.7262-.037c-5.91418,5.91418-6.21752,6.21759-12.54351,12.54364l-2.34259,5.46527a.30641.30641,0,0,0,.40234.40234L18.052,28.40869,28.79486,17.66461l-.0003-.00152L30.596,15.86548A1.20328,1.20328,0,0,0,30.559,14.13928ZM13.78674,29.14911l1.40265-3.2738,1.87116,1.87054Zm4.101-1.99017-2.1117-2.111,9.93518-9.93481,2.11127,2.111Zm12.001-12.001-1.35919,1.35919-2.11127-2.111,1.35913-1.35907a.16315.16315,0,0,1,.1211-.0542.28512.28512,0,0,1,.19238.09228l1.76074,1.76123C29.8692,14.864,30.02252,15.02509,29.88873,15.1579ZM28,19.87561l1-.99988V28a1.00126,1.00126,0,0,1-1,1H18.87451l1.00012-1H23V24.875l1-.99988V28h4ZM9,18H19.99658l.4408-.4408L20.99652,17H8V28H4V4H8v8a1.00122,1.00122,0,0,0,1,1H23a1.00122,1.00122,0,0,0,1-1V4l4,2.999v4.004a2.21756,2.21756,0,0,1,1,.29413V7a1.00378,1.00378,0,0,0-.40039-.80078l-4-3A1.0048,1.0048,0,0,0,24,3H4A1.00063,1.00063,0,0,0,3,4V28a1.00122,1.00122,0,0,0,1,1h7.67462l.42877-1H9ZM19,4h2V8H19ZM9,4h9V9h4V4h1v8H9Z"/></svg>