<?xml version="1.0" encoding="UTF-8"?><svg id="icons" xmlns="http://www.w3.org/2000/svg" viewBox="0 0 24 24"><rect width="24" height="24" style="fill:none; stroke-width:0px;"/><path d="m20.21094,13.5l-9.71094,9.70703-3.70703-3.70703,6.00049-6.00049-6.3064-6.32263c-.11499.03961-.23364.07312-.36206.07312-.62134,0-1.125-.50372-1.125-1.125,0-.62134.50366-1.125,1.125-1.125s1.125.50366,1.125,1.125c0,.11829-.03345.22632-.06732.33344l7.02386,7.04205-5.99951,5.99951,2.29297,2.29297,8.29688-8.29297L9.51703,4.22253l-2.37262-.69,1.68164-.65173.73303-1.76294.5816,2.31427,10.07025,10.06787Z" style="stroke-width:0px;"/></svg>