<?xml version="1.0" encoding="UTF-8"?><svg id="icons" xmlns="http://www.w3.org/2000/svg" viewBox="0 0 32 32"><path d="m28.96997,27.5c0,.82843-.64154,1.46997-1.46997,1.46997s-1.47998-.64154-1.47998-1.46997c0-.14313.00647-.27887.04388-.40997l-9.5639-5.92596-11.5,7.95508v-7.63232l11.5-7.50293,10.5,7.1568v-4.7583l-10.5-7.08453-11.5,7.85889v-7.47656l11.5-7.52783,10.06018,5.95789,3.20831.30219-2.12213,1.13452-.05829,2.45038-1.61395-2.93689-9.47412-5.70496-10.5,6.86182v5.03613l10.5-7.17725,11.5,7.79156v7.2251l-11.5-7.89508-10.5,6.82812v5.17334l10.5-7.25684,10.14075,6.43073c.24365-.17102.539-.27313.85925-.27313.82843,0,1.46997.57159,1.46997,1.40002Z" style="stroke-width:0px;"/><rect width="32" height="32" style="fill:none; stroke-width:0px;"/></svg>