<?xml version="1.0" encoding="UTF-8"?><svg id="icons" xmlns="http://www.w3.org/2000/svg" viewBox="0 0 32 32"><rect width="32" height="32" style="fill:none; stroke-width:0px;"/><rect width="32" height="32" style="fill:none; stroke-width:0px;"/><path d="m26.20703,17.50391l-12.70703,12.70312-4.70703-4.70703,8-7.99609-7.65027-7.65369c-.1955.09326-.41168.14978-.6427.14978-.82843,0-1.5-.67157-1.5-1.5s.67157-1.5,1.5-1.5,1.5.67157,1.5,1.5c0,.23126-.05664.44763-.15009.64325l8.35712,8.36066-8,7.99609,3.29297,3.29297,11.29297-11.28906L13.49628,6.211l-3.49628-1.23212,2.30243-.67651.69757-2.30237,1.21539,3.51605,11.99164,11.98785Z" style="stroke-width:0px;"/><rect width="32" height="32" style="fill:none; stroke-width:0px;"/></svg>