<?xml version="1.0" encoding="UTF-8"?><svg id="icons" xmlns="http://www.w3.org/2000/svg" viewBox="0 0 16 16"><rect width="16" height="16" style="fill:none; stroke-width:0px;"/><path d="m3,5.18695v2.01465l5-3.2016,6,4v3.97217l-6-3.97217-5,3.41827v1.77856l5-3.19684,4.61395,3.07788c.11884-.0498.24915-.07788.38605-.07788.55231,0,1,.44769,1,1,0,.55225-.44769,1-1,1s-1-.44775-1-1c0-.08411.02832-.15912.04785-.23718l-4.04785-2.76282-6,4v-3.9624l6-4.0376,5,3.25311v-1.84991l-5-3.4032-6,4v-4.09192l6-3.90808,5.31854,3.17755,2.01477.11029-1.33374.71088.00043,1.51556-1.11316-1.62683-4.88684-2.88745-5,3.18695Z" style="stroke-width:0px;"/></svg>