<?xml version="1.0" encoding="UTF-8"?><svg id="icons" xmlns="http://www.w3.org/2000/svg" viewBox="0 0 16 16"><rect width="16" height="16" style="fill:none; stroke-width:0px;"/><path d="m13.2041,8.50293l-6.7041,6.7041-2.70508-2.70459,4.00244-4.05273-3.47302-3.5152c-.10291.03577-.20929.06549-.32434.06549-.55231,0-1-.44775-1-1,0-.55231.44769-1,1-1s1,.44769,1,1c0,.05762-.02344.10754-.03278.16254l4.23541,4.28717-3.99756,4.04785,1.29492,1.29541,5.2959-5.2959L6.27106,2.87872l-1.67676-.48755,1.35846-.52655.59216-1.42413.43573,1.7337,6.22345,6.32874Z" style="stroke-width:0px;"/></svg>