<svg id="icons" xmlns="http://www.w3.org/2000/svg" viewBox="0 0 24 24"><path d="M12,22.94336C3.533,18.31873,2.49755,12.0256,3.16064,4.72363l.08008-.86914.87061-.042c3.30957-.166,5.668-.93457,7.209-2.35059L12,.83789l.67969.624c1.541,1.416,3.89941,2.18457,7.20947,2.35059l.87012.042.08008.86817C21.5058,12.06262,20.43251,18.3329,12,22.94336ZM4.16064,4.81055c-.54394,5.98828-.0415,12.69433,7.83741,16.99316,7.87939-4.29883,8.38916-11.001,7.84521-16.99023C16.29,4.63574,13.72314,3.77832,12.00293,2.19824,10.28271,3.77832,7.71338,4.63281,4.16064,4.81055Zm14.7837,1.36816L18.919,5.75488l-.42237-.043a13.14213,13.14213,0,0,1-6.21338-2.0166l-.5664.82422A13.74354,13.74354,0,0,0,17.96924,6.6582c.21777,4.50586-.4458,9.501-6.22754,12.99024l.5166.85547C18.71387,16.60938,19.22266,10.80273,18.94434,6.17871Z"/><path fill="none" d="M0 0h24v24H0z"/></svg>