<svg id="icons" xmlns="http://www.w3.org/2000/svg" viewBox="0 0 24 24"><defs><style>.cls-1{fill:none;}</style></defs><path d="M9,5.1A2.9,2.9,0,1,0,11.9,8,2.89926,2.89926,0,0,0,9,5.1ZM9,9.8999A1.8999,1.8999,0,1,1,10.8999,8,1.90174,1.90174,0,0,1,9,9.8999ZM9,22.16943l2.75-2.768v1.41864L8.99994,23.5882,3,17.54889,3.009,5.61853C3.009,2.28284,5.68671,1,8.99994,1s5.99994,1.28284,5.99994,4.61853V10.422L14,9.6925V5.61865C14,2.62793,11.28076,2,9,2S4,2.62793,4,5.61865V17.13672ZM23.26611,18,13,10.50952V23.16943l2.78613-3.81958,2.26624,4.62067L20.94592,22.515,18.75684,18Zm-3.6499,4.06445-1.11035.5586L15.9541,17.42188,14,20.10156v-7.624L20.19824,17H17.16016Z"/><rect class="cls-1" width="24" height="24"/></svg>