<?xml version="1.0" encoding="UTF-8"?><svg id="icons" xmlns="http://www.w3.org/2000/svg" viewBox="0 0 32 32"><defs><style>.cls-1{fill:none;}.cls-1,.cls-2,.cls-3{stroke-width:0px;}.cls-2{fill:#6f6f6f;opacity:.25;}</style></defs><rect class="cls-1" width="32" height="32"/><path class="cls-2" d="M2,5v22h28V5H2ZM3,12h5.00012v4H3v-4ZM3,17h5.00012v4H3v-4ZM29,26H3v-4h5.00012v3.99988h.99988v-3.99988h9v-1h-9v-4h9v-1h-9v-4h9v-1H3v-5h26v20Z"/><path class="cls-3" d="M29.99994,5v-.00006h-11.99994l.00006,22.00006h12V5h-.00012ZM29.00006,26h-10v-4.00006h10v4.00006ZM29.00006,21.00012l-.00012-.00012h-9.99988v-4.00006h10v4.00018ZM29.00006,16.00006l-.00012-.00012h-9.99988v-3.99994h10v4.00006ZM29.00006,11h-10v-5.00006h10v5.00006Z"/></svg>