<svg id="icons" xmlns="http://www.w3.org/2000/svg" viewBox="0 0 32 32"><defs><style>.cls-1{fill:none;}</style></defs><path d="M9.1,11a3.9,3.9,0,1,0,3.90057-3.9A3.90473,3.90473,0,0,0,9.1,11Zm6.79992,0a2.8999,2.8999,0,1,1-2.89941-2.8999A2.90294,2.90294,0,0,1,15.8999,11ZM13,2C9.80664,2,6,2.895,6,7.1582V22.2533l7,7.04541,4.75-4.78083v1.41858L13,30.71759,5,22.66516V7.15808C5,2.71045,8.58228,1,13,1c4.41766,0,8,1.71045,8,6.15808v8.73761l-1-.72955V7.1582C20,2.895,16.19336,2,13,2ZM31.3584,25,19,15.9834V31.21484l3.45605-4.7373,2.64863,5.51129,3.23242-1.626L25.79688,25Zm-4.3631,4.91852-1.44824.72851-2.93573-6.07965L20,28.14746V17.95117L28.291,24H24.17773Z"/><rect class="cls-1" width="32" height="32"/></svg>