<svg id="icons" xmlns="http://www.w3.org/2000/svg" viewBox="0 0 16 16"><defs><style>.cls-1{fill:none;}</style></defs><path d="M3,5A2,2,0,1,0,5,3,2,2,0,0,0,3,5ZM6,5A1,1,0,1,1,5,4,1.00067,1.00067,0,0,1,6,5ZM8.1,2.92657C8.1,1.50873,7.05658.79022,5,.79022s-3.1.71851-3.1,2.13635v7.259L5,13.2937l1.75-1.75458v1.2063L5,14.5,1,10.4895V3.067C1,.85187,2.79114,0,5,0S9,.85187,9,3.067V4.19836l-.25293-.18859A1.245,1.245,0,0,0,8.1,3.778Zm7.9,8.0495L8,5.01172V15l2.11621-2.80176L12,15.92822l2.55469-1.28515-1.83789-3.667Zm-2.78711,3.22217-.77051.38819-2.1709-4.29834L9,12V6.97949l4,2.99658H11.09668Z"/><rect class="cls-1" width="16" height="16"/></svg>