<?xml version="1.0" encoding="UTF-8"?><svg id="icons" xmlns="http://www.w3.org/2000/svg" viewBox="0 0 32 32"><defs><style>.cls-1{fill:none;}.cls-1,.cls-2,.cls-3{stroke-width:0px;}.cls-3{fill:#6f6f6f;opacity:.3;}</style></defs><path class="cls-3" d="M4,17V3h9c-.02521,1.40051.13568,3.02496.27637,3.99219.99158,6.81805,3.9953,4.57184,5.82031,11.30859.81116,2.99426.21667,5.59753,2.0285,9.69922h-4.12518v-10c0-.55273-.44727-1-1-1H4Z"/><path class="cls-2" d="M19.08008,24.97363c-.14355-.67773-.23145-1.33301-.34082-2.18555l.99219-.12695c.10547.82812.19141,1.46484.32715,2.10547l-.97852.20703ZM19.09668,18.30078l-.96484.26172c.22949.85156.31445,1.51562.36719,2.05371l.99609-.09766c-.05762-.5791-.14844-1.29492-.39844-2.21777ZM17.24219,14.19238l-.79688.60352c.39941.5293.72754,1.1084,1.00098,1.77051l.92383-.38086c-.30664-.74316-.6748-1.39453-1.12793-1.99316ZM15.02539,13.2373l.71875-.69531c-.49414-.51172-.89746-.98047-1.25977-1.60645l-.86523.50195c.4375.75488.93457,1.31152,1.40625,1.7998ZM12.74414,9.3252l.96094-.27539c-.17383-.60645-.31836-1.29883-.42871-2.05762l-.99023.14453c.11719.80273.27148,1.53906.45801,2.18848ZM5,7h-1v2h1v-2ZM5,4h1v-1h-2v2h1v-1ZM10,3h-2v1h2v-1ZM5,11h-1v2h1v-2ZM14.99854,3c-.00116.26227-.01331.5224-.00146.78711.0033.07397.0083.14032.0119.21289h12.99103v5.97058c-2.12677.07489-5.90765.6449-8.9964,3.41071.15674.2749.31342.58661.45453.93134,2.88519-2.71289,6.50641-3.26611,8.54187-3.34137v16.02875h-5v1h6V3h-14.00146ZM12.05664,4.93359l.99805-.06641c-.02112-.31085-.04486-.62244-.05469-.97192s0-.89526,0-.89526h-1s-.01105.63489,0,1c.01105.36505.0368.63593.05664.93359ZM19,28h2v-1h-2v1ZM1,18h15v13H1v-13ZM2,30h13v-11H2v11ZM4,28h1v-1h-1v1ZM4,22h1v-1h-1v1ZM4,25h1v-1h-1v1ZM6,27v1h7v-1h-7ZM6,25h7v-1h-7v1ZM6,22h7v-1h-7v1ZM5,15h-1v2h1v-2Z"/><rect class="cls-1" width="32" height="32"/></svg>