<svg xmlns="http://www.w3.org/2000/svg" viewBox="0 0 16 16"><path d="M5 8H2a2 2 0 00-2 2v3a2 2 0 002 2h3a2 2 0 002-2v-3a2 2 0 00-2-2zm1 5a1 1 0 01-1 1H2a1 1 0 01-1-1v-3a1 1 0 011-1h3a1 1 0 011 1zm7-5h-3a2 2 0 00-2 2v3a2 2 0 002 2h3a2 2 0 002-2v-3a2 2 0 00-2-2zm1 5a1 1 0 01-1 1h-3a1 1 0 01-1-1v-3a1 1 0 011-1h3a1 1 0 011 1zM13 0h-3a2 2 0 00-2 2v3a2 2 0 002 2h3a2 2 0 002-2V2a2 2 0 00-2-2zm1 5a1 1 0 01-1 1h-3a1 1 0 01-1-1V2a1 1 0 011-1h3a1 1 0 011 1zM5 0H2a2 2 0 00-2 2v3a2 2 0 002 2h3a2 2 0 002-2V2a2 2 0 00-2-2zm1 5a1 1 0 01-1 1H2a1 1 0 01-1-1V2a1 1 0 011-1h3a1 1 0 011 1zm-4.265 6.646l.738-.738.784.788L4.962 10l.738.738-2.443 2.43z"/></svg>