<?xml version="1.0" encoding="UTF-8"?><svg id="icons" xmlns="http://www.w3.org/2000/svg" viewBox="0 0 24 24"><defs><style>.cls-1{fill:none;}.cls-1,.cls-2,.cls-3{stroke-width:0px;}.cls-3{fill:#6f6f6f;opacity:.3;}</style></defs><path class="cls-3" d="M3,12V2h6c.14478,6.60504,1.59271,6.24963,3.86621,8.37891,1.82208,1.70648,2.05151,4.22363,2.33008,6.39062.16071,1.24994.49701,1.8291,2.34473,5.23047h-4.54102v-9c0-.55273-.44775-1-1-1H3Z"/><path class="cls-2" d="M22,2v20h-3v-1h2v-11.9491c-1.42322.12671-3.44458.56134-5.25311,1.90979-.15363-.24933-.34906-.54297-.55811-.83789,2.01788-1.48798,4.26044-1.94812,5.81122-2.07483V3h-11v-1h12ZM4,3h1v-1h-2c0,.11108,0,2.10822,0,2h1v-1ZM13,22h1v-1h-1v1ZM4,6h-1v2h1v-2ZM4,11h-1v1h1v-1ZM8,3.02246c.0166.36133.03809.7002.06738,1.02344l.99609-.08984c-.10107-1.13727-.05066-1.37128-.06348-1.95605h-2v1h1v.02246ZM14.84082,14.21387c-.1377-.5625-.33301-1.15527-.59473-1.81055l-.08789-.20996-.91406.40625.07324.17383c.24512.61328.42578,1.16211.55273,1.67871l.9707-.23828ZM15.14746,16.30957l-.99609.0918c.01562.16504.03125.3291.05273.49707.07812.59277.20898,1.11133.41309,1.63086l.93164-.36523c-.17383-.44238-.28613-.88574-.35254-1.39453-.01953-.1543-.03516-.30664-.04883-.45996ZM9.16895,8.17676l.86914-.49414c-.2832-.49805-.50195-1.07812-.66895-1.77344l-.97266.23242c.18945.78906.44238,1.45508.77246,2.03516ZM11.24512,9.08691l-.63867.76953c.22168.18359.44629.35254.6709.52051.30859.23145.61621.46094.90723.73242l.68164-.73047c-.32324-.30273-.66211-.55664-.98926-.80176-.21094-.1582-.42383-.31738-.63184-.49023ZM16.4502,19.9707l-.88867.45703c.13477.2627.27441.55078.41699.87598l.3053.69629h1.2572l-.54102-1s-.40527-.74902-.5498-1.0293ZM0,13h12v11H0v-11ZM1,23h10v-9H1v9ZM2,22h1v-1h-1v1ZM2,16h1v-1h-1v1ZM2,19h1v-1h-1v1ZM4,21v1h6v-1h-6ZM4,19h6v-1h-6v1ZM4,16h6v-1h-6v1Z"/><rect class="cls-1" width="24" height="24"/></svg>