<svg xmlns="http://www.w3.org/2000/svg" viewBox="0 0 32 32"><path d="M6.72 8l-.14-1.375a2.56 2.56 0 0 0-2.186-2.277L4 4.29h-.001L1.979 4H1v1h.904l2.347.338a1.56 1.56 0 0 1 1.333 1.389l1.47 14.323 19.864-2.091L29.11 8zm19.362 10.041l-18.136 1.91L6.823 9H27.89zM27 29a2 2 0 1 1 2-2 2.002 2.002 0 0 1-2 2zm-.3-3.1a.8.8 0 0 0-.8.8v.6a.8.8 0 0 0 .8.8h.6a.8.8 0 0 0 .8-.8v-.6a.8.8 0 0 0-.8-.8zM8 29a2 2 0 1 1 2-2 2.002 2.002 0 0 1-2 2zm-.3-3.1a.8.8 0 0 0-.8.8v.6a.8.8 0 0 0 .8.8h.6a.8.8 0 0 0 .8-.8v-.6a.8.8 0 0 0-.8-.8z"/><path d="M28 25.585h-1a.588.588 0 0 0-.17-.413.582.582 0 0 0-.415-.172H6.54a1.626 1.626 0 0 1-1.236-2.683c1.508-1.761 1.752-2.058 1.786-2.104l.365.274.525.15c-.04.14-.04.14-1.916 2.33A.625.625 0 0 0 6.541 24h19.874a1.574 1.574 0 0 1 1.121.465 1.593 1.593 0 0 1 .464 1.12z"/></svg>