<svg id="icons" xmlns="http://www.w3.org/2000/svg" viewBox="0 0 16 16"><defs><style>.cls-1{fill:none;}</style></defs><path d="M10,0H1A1.0013,1.0013,0,0,0,0,1V2A1.0013,1.0013,0,0,0,1,3h9a1.0013,1.0013,0,0,0,1-1V1A1.0013,1.0013,0,0,0,10,0Zm0,2H1V1h9l.001,1ZM3.548,11H1a1.0013,1.0013,0,0,1-1-1V9A1.0013,1.0013,0,0,1,1,8H6.55786a10.633,10.633,0,0,0-1.316,1H1v1H4.24939c-.14008.16107-.23889.28412-.28064.33838l-.21387.27588A1.48572,1.48572,0,0,0,3.548,11ZM16,11.43318l-.13818-.17693C15.76611,11.13336,13.481,8.24639,10.5,8.24639c-2.98145,0-5.251,2.88788-5.3457,3.01077l-.21387.276.21387.276C5.249,11.93213,7.51855,14.82,10.5,14.82c2.981,0,5.26611-2.887,5.36182-3.00985L16,11.63322Zm-5.4917-1.30861a1.41142,1.41142,0,1,0,1.5,1.40863A1.45807,1.45807,0,0,0,10.5083,10.12457Zm-.00879,3.89718c-2.10034,0-3.91339-1.77409-4.55829-2.48855.6449-.71452,2.45795-2.4886,4.55829-2.4886,2.10138,0,3.92481,1.77311,4.57538,2.48958C14.42639,12.24961,12.6076,14.02175,10.49951,14.02175ZM10.5,6.74658c.04645,0,.09064.00635.13672.00739A.98469.98469,0,0,0,11,6V5a1.0013,1.0013,0,0,0-1-1H1A1.0013,1.0013,0,0,0,0,5V6A1.0013,1.0013,0,0,0,1,7H8.742A6.46118,6.46118,0,0,1,10.5,6.74658ZM1,5h9l.001,1H1Z"/><rect class="cls-1" width="16" height="16"/></svg>