<svg id="icons" xmlns="http://www.w3.org/2000/svg" viewBox="0 0 16 16"><defs><style>.cls-1{fill:none;}</style></defs><path d="M1,3h9a1.0013,1.0013,0,0,0,1-1V1a1.0013,1.0013,0,0,0-1-1H1A1.0013,1.0013,0,0,0,0,1V2A1.0013,1.0013,0,0,0,1,3ZM1,1h9l.001,1H1ZM5,5H3V4H5ZM8,5H6V4H8ZM1,4H2V5H1V6H2V7H1A1.0013,1.0013,0,0,1,0,6V5A1.0013,1.0013,0,0,1,1,4Zm9,2h.001L10,5H9V4h1a1.0013,1.0013,0,0,1,1,1V6a1.0013,1.0013,0,0,1-1,1H9V6ZM6,6H8V7H6ZM5,7H3V6H5ZM3,8H5V9H3ZM1,8H2V9H1v1H2v1H1a1.0013,1.0013,0,0,1-1-1V9A1.0013,1.0013,0,0,1,1,8Zm2,2H4.24939c-.14008.16107-.23889.28412-.28064.33838l-.21387.27588A1.48572,1.48572,0,0,0,3.548,11H3Zm12.86182,1.25623C15.76611,11.13336,13.481,8.2464,10.5,8.2464c-2.98145,0-5.19141,2.88788-5.28613,3.01074L5,11.5332l.21387.27607C5.30859,11.93213,7.51855,14.82,10.5,14.82c2.981,0,5.26611-2.887,5.36182-3.00983L16,11.63324v-.20007Zm-5.36231,2.7655c-2.10034,0-3.85382-1.774-4.49872-2.48853.6449-.71454,2.39838-2.48858,4.49872-2.48858,2.10138,0,3.92481,1.77307,4.57538,2.48956C14.42639,12.24963,12.6076,14.02173,10.49951,14.02173ZM12.0083,11.5332a1.503,1.503,0,1,1-1.5-1.40863A1.458,1.458,0,0,1,12.0083,11.5332Z"/><rect class="cls-1" width="16" height="16"/></svg>