<svg id="icons" xmlns="http://www.w3.org/2000/svg" viewBox="0 0 24 24"><defs><style>.cls-1{fill:none;}</style></defs><path d="M2,5H17a1.0013,1.0013,0,0,0,1-1V2a1.0013,1.0013,0,0,0-1-1H2A1.0013,1.0013,0,0,0,1,2V4A1.0013,1.0013,0,0,0,2,5ZM2,2H17l.001,2H2Zm0,9H17a1.0013,1.0013,0,0,0,1-1V8a1.0013,1.0013,0,0,0-1-1H2A1.0013,1.0013,0,0,0,1,8v2A1.0013,1.0013,0,0,0,2,11ZM2,8H17l.001,2H2Zm3.84338,9H2a1.0013,1.0013,0,0,1-1-1V14a1.0013,1.0013,0,0,1,1-1H9.66016A15.52212,15.52212,0,0,0,8.361,14H2v2H6.39777l-.20148.25244A1.96308,1.96308,0,0,0,5.84338,17Zm9.61471,5c-4.06054,0-7.07235-4.01709-7.20907-4.188L8,17.5l.249-.312C8.38574,17.01709,11.39755,13,15.45809,13c4.06543,0,7.1757,4.02393,7.30753,4.19531L23,17.5l-.23438.30469C22.63379,17.97607,19.52352,22,15.45809,22ZM9.12052,17.5c.84978.93717,3.29356,3.6,6.33909,3.6,3.05558,0,5.62679-2.67037,6.4394-3.5995-.81462-.92863-3.39085-3.6005-6.4394-3.6005C12.41408,13.9,9.9703,16.56283,9.12052,17.5ZM15.5,19.9a2.4,2.4,0,1,1,2.4-2.4A2.40252,2.40252,0,0,1,15.5,19.9Z"/><rect class="cls-1" width="24" height="24"/></svg>