<svg id="icons" xmlns="http://www.w3.org/2000/svg" viewBox="0 0 32 32"><defs><style>.cls-1{fill:none;}</style></defs><path d="M3.5,8h17A1.50164,1.50164,0,0,0,22,6.5v-2A1.50164,1.50164,0,0,0,20.5,3H3.5A1.50164,1.50164,0,0,0,2,4.5v2A1.50164,1.50164,0,0,0,3.5,8ZM3,4.5A.50034.50034,0,0,1,3.5,4h17a.50034.50034,0,0,1,.5.5v2a.50034.50034,0,0,1-.5.5H3.5A.50034.50034,0,0,1,3,6.5ZM3.5,15h17A1.50164,1.50164,0,0,0,22,13.5v-2A1.50164,1.50164,0,0,0,20.5,10H3.5A1.50164,1.50164,0,0,0,2,11.5v2A1.50164,1.50164,0,0,0,3.5,15ZM3,11.5a.50034.50034,0,0,1,.5-.5h17a.50034.50034,0,0,1,.5.5v2a.50034.50034,0,0,1-.5.5H3.5a.50034.50034,0,0,1-.5-.5ZM3.5,21H9.43823c-.47253.53912-.75793.91724-.81842,1H3.5A1.50164,1.50164,0,0,1,2,20.5v-2A1.50164,1.50164,0,0,1,3.5,17H14.16266c-.52783.3183-1.02625.65326-1.48938,1H3.5a.50034.50034,0,0,0-.5.5v2A.50034.50034,0,0,0,3.5,21Zm20.44983,2.47968-.00067.038.00024.038a3.44985,3.44985,0,0,1-6.8988,0l.00024-.038-.00067-.038a3.43918,3.43918,0,0,1,3.41394-3.42957c.012-.00012.05982-.00012.07178,0A3.43918,3.43918,0,0,1,23.94983,23.47968Zm6.82971-.28083c-.18475-.254-4.509-6.0332-10.17145-6.15552-.02581-.00024-.129-.00024-.15478,0-5.66242.12232-10.0481,5.90156-10.23285,6.15552L10,23.5l.22363.29883c.18744.252,4.63263,6.0841,10.296,6.14679h.0221c5.66339-.06269,10.04718-5.89478,10.23462-6.14679L31,23.5Zm-.873.30115c-.99163,1.20154-4.81634,5.49072-9.36865,5.545h-.01428c-4.55231-.05432-8.43842-4.3435-9.43-5.545l.00476-.0058-.00483-.00574c.979-1.21191,4.82178-5.44244,9.37323-5.54461l.064-.00025.064.00025c4.55145.10217,8.33288,4.3327,9.31183,5.54461l-.00483.00574Z"/><rect class="cls-1" width="32" height="32"/></svg>