<svg id="icons" xmlns="http://www.w3.org/2000/svg" viewBox="0 0 24 24"><defs><style>.cls-1{fill:none;}</style></defs><path d="M2,5H17a1.0013,1.0013,0,0,0,1-1V2a1.0013,1.0013,0,0,0-1-1H2A1.0013,1.0013,0,0,0,1,2V4A1.0013,1.0013,0,0,0,2,5ZM2,2H17l.001,2H2ZM4,14V13H6v1ZM3,16v1H2a1.0013,1.0013,0,0,1-1-1V14a1.0013,1.0013,0,0,1,1-1H3v1H2v2Zm0-6v1H2a1.0013,1.0013,0,0,1-1-1V8A1.0013,1.0013,0,0,1,2,7H3V8H2v2ZM4,8V7H6V8ZM7,8V7H9V8Zm6,0V7h2V8ZM10,8V7h2V8Zm5,2v1H13V10Zm-3,0v1H10V10Zm6-2v2a1.0013,1.0013,0,0,1-1,1H16V10h1.001L17,8H16V7h1A1.0013,1.0013,0,0,1,18,8ZM6,10v1H4V10Zm3,0v1H7V10Zm-.639,4H7V13H9v.4812Q8.661,13.743,8.361,14Zm7.09707,8c-4.06054,0-7.07235-4.01709-7.20907-4.188L8,17.5l.249-.312C8.38574,17.01709,11.39755,13,15.45809,13c4.06543,0,7.1757,4.02393,7.30753,4.19531L23,17.5l-.23438.30469C22.63379,17.97607,19.52352,22,15.45809,22ZM9.12052,17.5c.84978.93717,3.29356,3.6,6.33909,3.6,3.05558,0,5.62679-2.67037,6.4394-3.5995-.81462-.92863-3.39085-3.6005-6.4394-3.6005C12.41408,13.9,9.9703,16.56283,9.12052,17.5ZM15.5,19.9a2.4,2.4,0,1,1,2.4-2.4A2.40252,2.40252,0,0,1,15.5,19.9ZM5.84338,17H4V16H6v.60919A1.9581,1.9581,0,0,0,5.84338,17Z"/><rect class="cls-1" width="24" height="24"/></svg>