<svg id="icons" xmlns="http://www.w3.org/2000/svg" viewBox="0 0 24 24"><defs><style>.cls-1{fill:none;}</style></defs><path d="M9.66016,22H1.43054A.43053.43053,0,0,1,1,21.56946V15.43054A.43053.43053,0,0,1,1.43054,15H7.28979c-.45257.4632-.74627.81781-.84448.94043L6.39777,16H2v5H8.3609A15.52773,15.52773,0,0,0,9.66016,22ZM7.59149,4.32458,11.251,8H7V9h6V3H12V7.42786L8.30414,3.65228A5.49911,5.49911,0,0,0,4.37451,2H0V3H4.40344A4.49891,4.49891,0,0,1,7.59149,4.32458ZM22.76562,17.80469,23,17.5l-.23438-.30469C22.63379,17.02393,19.52352,13,15.45809,13c-4.06054,0-7.07235,4.01709-7.20907,4.188L8,17.5l.249.312c.13672.1709,3.14853,4.188,7.20907,4.188C19.52352,22,22.63379,17.97607,22.76562,17.80469ZM15.45961,13.9c3.04855,0,5.62478,2.67187,6.4394,3.6005-.81261.92913-3.38382,3.5995-6.4394,3.5995-3.04553,0-5.48931-2.66283-6.33909-3.6C9.9703,16.56283,12.41408,13.9,15.45961,13.9ZM17.9,17.5a2.4,2.4,0,1,0-2.4,2.4A2.40252,2.40252,0,0,0,17.9,17.5ZM22.56946,5H14V6h8v5H17v.16052A9.93541,9.93541,0,0,1,19.5304,12h3.03906A.43053.43053,0,0,0,23,11.56946V5.43054A.43053.43053,0,0,0,22.56946,5ZM14,11H2V6H7.83728l-.954-.9541C6.866,5.02863,6.845,5.01685,6.82745,5H1.43054A.43053.43053,0,0,0,1,5.43054v6.13892A.43053.43053,0,0,0,1.43054,12h9.93665A10.09754,10.09754,0,0,1,14,11.14392Z"/><rect class="cls-1" width="24" height="24"/></svg>