<?xml version="1.0" encoding="UTF-8"?><svg id="icons" xmlns="http://www.w3.org/2000/svg" viewBox="0 0 16 16"><defs><style>.cls-1{fill:none;}.cls-1,.cls-2{stroke-width:0px;}</style></defs><rect class="cls-1" width="16" height="16"/><path class="cls-2" d="M14.69897,12.60803c.12354-.34796.20105-.71759.20105-1.10803,0-.94568-.39667-1.79187-1.02417-2.4054.07922-.18256.12415-.38324.12415-.5946,0-.82715-.67285-1.5-1.5-1.5-.70306,0-1.29028.48792-1.45197,1.14166-1.13715.15363-2.08649.86847-2.57526,1.86108-.81427.01495-1.47278.67944-1.47278,1.49725s.65851,1.4823,1.47278,1.49725c.55273,1.1225,1.69281,1.90271,3.02722,1.90271.39044,0,.76001-.07745,1.10797-.20099.25006.18658.55676.30103.89203.30103.82715,0,1.49103-.67285,1.49103-1.5,0-.33527-.10547-.64197-.29205-.89197ZM12,8h1v1h-1v-1ZM9,12h-1v-1h1v1ZM12,13.5c0,.11316.01495.22253.03882.32861-.17371.04181-.35199.07129-.53882.07129-.8941,0-1.66656-.49725-2.07965-1.2243.35016-.27478.57965-.6969.57965-1.1756s-.22949-.90082-.57965-1.1756c.35718-.62866.98358-1.07764,1.72626-1.1886.24017.50885.75433.8642,1.35339.8642.25653,0,.49451-.07074.70587-.18469.42853.43372.69452,1.02844.69452,1.68469,0,.18689-.0296.36523-.07141.53894-.1062-.02393-.21564-.03894-.32898-.03894-.82715,0-1.5.67285-1.5,1.5ZM14,14h-1v-1h1v1ZM6.5,7.97949c.77325,0,1.48865-.04401,2.15021-.11957.40405-.31891.86053-.5636,1.34979-.73431v-.45483c-.86285.22791-2.01154.39221-3.5.39221-3.83887,0-5.5-1.07666-5.5-1.5835v-1.57306c1.10126.67175,3.04523,1.09357,5.5,1.09357s4.39874-.42181,5.5-1.09357v1.71979c0,.10431-.08923.23553-.23456.37378h1.23456v-3.52051c0-1.49512-2.6123-2.47949-6.5-2.47949S0,.98438,0,2.47949v8c0,1.45514,2.47827,2.44305,6.1947,2.495-.18085-.28003-.31311-.59155-.38251-.927-3.33246-.12408-4.81219-1.09369-4.81219-1.56799v-3.57306c1.10126.67175,3.04523,1.07306,5.5,1.07306ZM6.5.92548c3.83887,0,5.5,1.04718,5.5,1.55402s-1.66113,1.5835-5.5,1.5835S1,2.98633,1,2.47949,2.66113.92548,6.5.92548Z"/></svg>