<?xml version="1.0" encoding="UTF-8"?><svg id="icons" xmlns="http://www.w3.org/2000/svg" viewBox="0 0 24 24"><defs><style>.cls-1{fill:none;}.cls-1,.cls-2{stroke-width:0px;}</style></defs><rect class="cls-1" width="24" height="24"/><path class="cls-2" d="M22.23975,18.85608c.35638-.71008.56024-1.50873.56024-2.35608,0-1.3728-.54016-2.60846-1.40302-3.54663.31079-.4046.50305-.90466.50305-1.45337,0-1.32379-1.07629-2.40002-2.40002-2.40002-1.23169,0-2.2373.93524-2.37286,2.13123-1.90271.13574-3.51697,1.27429-4.33264,2.89856-.0976-.01215-.19366-.02979-.29449-.02979-1.32373,0-2.40002,1.07623-2.40002,2.40002s1.07629,2.39996,2.40002,2.39996c.10083,0,.19684-.01764.29443-.02979.8692,1.7309,2.64008,2.92981,4.70557,2.92981.3208,0,.63013-.04083.93262-.10193.41595.71497,1.18201,1.2019,2.06738,1.2019,1.32373,0,2.40002-1.07623,2.40002-2.39996,0-.63745-.25372-1.21381-.66028-1.64392ZM18,11.25055v-.25055c0-.55231.44769-1,1-1h1c.55231,0,1,.44769,1,1v1c0,.16516-.04974.31433-.12067.45166-.06586.12756-.16241.23352-.2724.32294-.04901.03845-.09875.07538-.15454.10425-.03717.01996-.0752.03796-.11505.05304-.10632.03851-.21771.06812-.33734.06812h-1c-.55231,0-1-.44775-1-1v-.74945ZM13.44824,17.88159c-.0451.02307-.09357.03906-.14136.05646-.09808.03217-.198.06195-.30688.06195h-1c-.55231,0-1-.44775-1-1v-1c0-.55231.44769-1,1-1h1c.10883,0,.20868.02979.30676.06189.04785.01746.09637.03339.14148.05646.32379.16553.55176.49304.55176.88165v1c0,.38855-.22797.71606-.55176.88159ZM18.09998,20.5c0,.08154.01605.15857.02405.23804-.20441.03278-.41022.06177-.62402.06177-1.62811,0-3.03107-.9176-3.7572-2.25677.69086-.42175,1.15723-1.17578,1.15723-2.04303s-.46637-1.62134-1.15723-2.04309c.68408-1.2616,1.97229-2.13605,3.48047-2.23431.30865.96906,1.20648,1.67737,2.27673,1.67737.41864,0,.8067-.11719,1.1496-.30627.70996.76508,1.15021,1.78229,1.15021,2.90631,0,.63715-.15186,1.23468-.40387,1.77716-.27734-.11218-.5788-.17719-.89594-.17719-1.32373,0-2.40002,1.07623-2.40002,2.40002ZM22,21c0,.55225-.44769,1-1,1h-1c-.36267,0-.66602-.20312-.84137-.49207-.03937-.06482-.07068-.13434-.0976-.20563-.03125-.09686-.06104-.19507-.06104-.30231v-1c0-.55231.44769-1,1-1h1c.11725,0,.22601.02966.33051.06671.04193.01581.08289.03308.12177.05432.04639.02405.08679.05603.1286.08673.10785.08344.20355.18262.27252.30206.0849.14697.14661.30829.14661.49017v1ZM11.42084,20.08856c-5.21881-.01562-8.42084-1.53693-8.42084-2.50946v-6.24854c1.5968,1.06781,4.89014,1.63214,8.21149,1.66339.29895-.11035.60895-.1972.93793-.22784.18286-.26178.39594-.53656.61182-.76611-.40839.01788-.82556.03052-1.26123.03052-5.18848,0-8.5-1.30493-8.5-2.18286v-3.43622c1.64313,1.04572,5.08203,1.58856,8.5,1.58856s6.85687-.54285,8.5-1.58856v1.3891c.27887.03772.54596.10706.8028.19946h.1972v-3c0-1.96973-4.7793-3-9.5-3S2,3.03027,2,5v12.5791c0,2.19434,4.7793,3.4209,9.5,3.4209.41779,0,.8349-.013,1.25024-.03204-.21478-.23022-.41931-.47162-.60181-.73407-.25092-.02344-.49335-.07471-.7276-.14532ZM11.5,2.92798c5.5,0,8.5,1.39331,8.5,2.07202s-3,2.06299-8.5,2.06299S3,5.67871,3,5s3-2.07202,8.5-2.07202Z"/></svg>