<?xml version="1.0" encoding="UTF-8"?><svg id="icons" xmlns="http://www.w3.org/2000/svg" viewBox="0 0 32 32"><defs><style>.cls-1{fill:none;}.cls-1,.cls-2{stroke-width:0px;}</style></defs><rect class="cls-1" width="32" height="32"/><path class="cls-2" d="M4,23.48926v-7.98645c2.03448,1.58099,6.87335,2.44,11.5,2.44.95917,0,1.92639-.03906,2.87689-.11169.4425-.40015.93311-.54211,1.45959-.8291-1.29913.16559-2.74475.16678-4.33649.16678-7.125,0-11.5-2.04966-11.5-3.3436v-5.22882c2.03448,1.50452,6.87335,2.40399,11.5,2.40399s9.46552-.89948,11.5-2.40399v5.22882c0,.07098.69092.62158,1,.90033v-7.72552c0-2.5332-6.44043-4.00043-12.5-4.00043S3.009,4.4668,3.009,7c0,.03284-.009,16.48926-.009,16.48926,0,2.81836,6.44043,4.43982,12.5,4.43982.15955,0,.31982-.00574.4798-.008-.45508-.20312-.85938-.49469-1.19745-.85223-6.38745-.1366-10.78235-2.0564-10.78235-3.57959ZM15.5,3.91858c7.125,0,11.5,1.87048,11.5,3.08142s-4.375,3.08136-11.5,3.08136-11.5-1.87042-11.5-3.08136,4.375-3.08142,11.5-3.08142ZM29.41296,25.91608c.30792-.74689.48706-1.55939.48706-2.41608,0-1.92633-.86536-3.6452-2.21722-4.8186.19031-.35345.30823-.75183.30823-1.1814,0-1.37891-1.11212-2.5-2.49103-2.5-1.25665,0-2.28894.93427-2.46393,2.14307-2.80469.20526-5.09045,2.21265-5.72839,4.87634-1.28772.1001-2.29868,1.16754-2.29868,2.48059,0,1.37891,1.11209,2.5,2.491,2.5.21191,0,.41412-.03455.61041-.08435,1.13611,1.78674,3.11969,2.98383,5.38959,2.98383.85492,0,1.66595-.17828,2.41156-.48492.43323.36005.98218.58545,1.58844.58545,1.37891,0,2.49103-1.12109,2.49103-2.5,0-.60413-.22223-1.15137-.57806-1.58392ZM24,17c0-.55231.44769-1,1-1h1c.55231,0,1,.44769,1,1v1c0,.55225-.44769,1-1,1h-1c-.55231,0-1-.44775-1-1v-1ZM19,25c0,.55225-.44769,1-1,1h-1c-.55231,0-1-.44775-1-1v-1c0-.55231.44769-1,1-1h1c.55231,0,1,.44769,1,1v1ZM25,27.5c0,.3949.10028.76367.26392,1.09601-.55334.19354-1.14526.30341-1.76392.30341-1.87543,0-3.52185-.96729-4.49023-2.42267.59332-.45728.98126-1.16901.98126-1.97675,0-1.09674-.70813-2.02002-1.68994-2.3562.57245-2.18933,2.47003-3.82928,4.79156-4.0061.28387,1.06885,1.25018,1.8623,2.40735,1.8623.58844,0,1.12109-.21265,1.54669-.55389,1.13177.98981,1.8537,2.43604,1.8537,4.05389,0,.61908-.11011,1.21143-.30408,1.76508-.33185-.16431-.7005-.26508-1.09631-.26508-1.37891,0-2.5,1.12109-2.5,2.5ZM29,28c0,.55225-.44775,1-1,1h-1c-.55231,0-1-.44775-1-1v-1c0-.55231.44769-1,1-1h1c.55225,0,1,.44769,1,1v1Z"/></svg>