<svg xmlns="http://www.w3.org/2000/svg" viewBox="0 0 16 16"><path d="M10.995 6h-7V5h7zm-1 1h-6v1h6zM2.05 14.967a17.008 17.008 0 0 0 3.401-1.71 2 2 0 0 1-.418-.932 12.906 12.906 0 0 1-1.15.713l.013-.034a7.996 7.996 0 0 0 .577-2.208l.06-.74-.693-.271C2.062 9.089 1 7.942 1 6.715 1 4.668 3.915 3 7.497 3c3.583 0 6.498 1.667 6.498 3.716 0 .043-.009.084-.01.127.003.052.015.103.015.157v2h.177a3.752 3.752 0 0 0 .818-2.284C14.995 4.07 11.702 2 7.497 2 3.293 2 0 4.071 0 6.716c0 1.662 1.314 3.154 3.476 4a6.942 6.942 0 0 1-.51 1.922zM12 7h-1v4H7v1h4v4h1v-4h4v-1h-4z"/></svg>