<svg xmlns="http://www.w3.org/2000/svg" viewBox="0 0 16 16"><title>speech-bubbles-16</title><g id="icons"><path d="M11,4H3V3h8ZM3,5V6H9V5Zm9-5H2A2.00229,2.00229,0,0,0,0,2V7A2.00229,2.00229,0,0,0,2,9H3v3.5l3-2.25006V9.00006L4,10.5V8H2A1.001,1.001,0,0,1,1,7V2A1.001,1.001,0,0,1,2,1H12a1.001,1.001,0,0,1,1,1V6h1V2A2.00229,2.00229,0,0,0,12,0ZM9,9v1h5V9Zm3,2H9v1h3Zm2.5-4a1.48254,1.48254,0,0,1,.5.0921A1.49758,1.49758,0,0,1,16,8.5v4A1.50164,1.50164,0,0,1,14.5,14H14v1.2041a.65743.65743,0,0,1-.34814.58106.66518.66518,0,0,1-.311.07714.6583.6583,0,0,1-.36279-.10937L10.34863,14H8.5A1.50164,1.50164,0,0,1,7,12.5v-4A1.50164,1.50164,0,0,1,8.5,7Zm0,1h-6a.50065.50065,0,0,0-.5.5v4a.50065.50065,0,0,0,.5.5h2.15137L13,14.56641V13h1.5a.50065.50065,0,0,0,.5-.5v-4A.50065.50065,0,0,0,14.5,8Z"/></g></svg>