<svg xmlns="http://www.w3.org/2000/svg" viewBox="0 0 32 32"><path d="M24 16H8v-1h16zm0-7H8v1h16zm-4 3H8v1h12zm2 9.268V20.23a25.34 25.34 0 0 1-6 .68c-.479 0-.948-.019-1.411-.047l-.414-.026-.31.275a20.041 20.041 0 0 1-7.293 4.191l-.163.054.109-.244a17.329 17.329 0 0 0 1.332-5.097l.078-.725-.666-.296C3.918 17.508 2 15.27 2 12.855 2 8.524 8.28 5 16 5s14 3.524 14 7.855a6.402 6.402 0 0 1-3 5.22v1.22c2.486-1.543 4-3.723 4-6.44C31 7.89 24.411 4 16 4S1 7.89 1 12.855c0 2.851 2.122 5.393 5.856 7.055a16.185 16.185 0 0 1-1.251 4.797L4.57 27.026l2.318-.773a21.054 21.054 0 0 0 7.639-4.391c.484.03.974.048 1.473.048a26.903 26.903 0 0 0 6-.642zM25 31v-6.001h6V24h-6v-6h-1v6h-6v.999h6V31z"/></svg>