<svg xmlns="http://www.w3.org/2000/svg" viewBox="0 0 16 16"><path d="M11 4H3V3h8zM3 5v1h6V5zm9-5H2a2.002 2.002 0 00-2 2v5a2.002 2.002 0 002 2h1v3.5l3-2.25V9l-2 1.5V8H2a1.001 1.001 0 01-1-1V2a1.001 1.001 0 011-1h10a1.001 1.001 0 011 1v4h1V2a2.002 2.002 0 00-2-2zM9 9v1h5V9zm3 2H9v1h3zm2-4a2.025 2.025 0 012 2v3a2.002 2.002 0 01-2 2v1.204a.657.657 0 01-.348.581.665.665 0 01-.311.077.658.658 0 01-.363-.11L10.348 14H9a2.002 2.002 0 01-2-2V9a2.002 2.002 0 012-2zm0 1H9a1.001 1.001 0 00-1 1v3a1.001 1.001 0 001 1h1.651L13 14.566V13h1a1.001 1.001 0 001-1V9a1.001 1.001 0 00-1-1z" id="icons"/></svg>