<svg xmlns="http://www.w3.org/2000/svg" viewBox="0 0 24 24"><path d="M18 8H6V7h12zm-3 2H6v1h9zm-2.998 5.811A17.25 17.25 0 0 0 16 15.35v-1.034a16.008 16.008 0 0 1-3.998.497h-.638l-.3.413a12.033 12.033 0 0 1-4.118 3.302l-1.089.506.428-1.088a11.253 11.253 0 0 0 .816-3.098l.06-.743-.693-.271C3.673 12.742 2.005 10.9 2.005 8.906 2.005 5.65 6.489 3 12.002 3S22 5.65 22 8.906a4.232 4.232 0 0 1-1.357 2.957 1.986 1.986 0 0 1 .35 1.06A5.394 5.394 0 0 0 23 8.906C23 5.033 18.17 2 12.002 2 5.836 2 1.005 5.033 1.005 8.906c0 2.435 1.927 4.62 5.098 5.858a10.16 10.16 0 0 1-.748 2.815L4.012 20.99l3.353-1.555a12.945 12.945 0 0 0 4.51-3.624zM19 24v-5.001h5V18h-5v-5h-1v5h-5v.999h5V24z"/></svg>