<svg xmlns="http://www.w3.org/2000/svg" viewBox="0 0 24 24"><path d="M6 6h10v1H6zm0 3v1h7V9zm1 7.519V13H4a1.001 1.001 0 01-1-1V4a1.001 1.001 0 011-1h14a1.001 1.001 0 011 1v6h1V4a2.002 2.002 0 00-2-2H4a2.002 2.002 0 00-2 2v8a2.002 2.002 0 002 2h2v4.481L9 16.3v-1.236zM13 14v1h7v-1zm0 3h5v-1h-5zm8 3h-1v2.306a.595.595 0 01-.328.533.608.608 0 01-.269.063.596.596 0 01-.363-.123L15.334 20H12a2.002 2.002 0 01-2-2v-5a2.002 2.002 0 012-2h9a2.002 2.002 0 012 2v5a2.002 2.002 0 01-2 2zm0-1a1.001 1.001 0 001-1v-5a1.001 1.001 0 00-1-1h-9a1.001 1.001 0 00-1 1v5a1.001 1.001 0 001 1h3.667L19 21.5V19z" id="icons"/></svg>