<svg xmlns="http://www.w3.org/2000/svg" viewBox="0 0 24 24"><title>speech-bubble-24</title><g id="icons"><path d="M6,8H18V9H6Zm0,4h9V11H6Zm1,7.51855V16H4.75A1.75213,1.75213,0,0,1,3,14.25V5.75A1.75213,1.75213,0,0,1,4.75,4h14.5A1.75213,1.75213,0,0,1,21,5.75v8.5a1.72959,1.72959,0,0,1-.17554.75h1.05847A2.71288,2.71288,0,0,0,22,14.25V5.75A2.7528,2.7528,0,0,0,19.25,3H4.75A2.7528,2.7528,0,0,0,2,5.75v8.5A2.7528,2.7528,0,0,0,4.75,17H6v4.48145l4-2.90882V17.33649ZM21,18.999V18H16.99994V14h-1v4h-4v.999h4V23h1V18.999Z"/></g></svg>