<?xml version="1.0" encoding="UTF-8"?><svg id="icons" xmlns="http://www.w3.org/2000/svg" viewBox="0 0 16 16"><defs><style>.cls-1{fill:none;}.cls-1,.cls-2{stroke-width:0px;}</style></defs><rect class="cls-1" width="16" height="16"/><path class="cls-2" d="M3,4.90643c1.10126.67175,3.04523,1.07306,5.5,1.07306s4.39874-.40131,5.5-1.07306v3.09357h1V3.47949c0-1.49512-2.6123-2.47949-6.5-2.47949S2,1.98438,2,3.47949v3.35101c.32239-.07739.65424-.12933,1-.12933v-1.79474ZM8.5,1.97949c3.83887,0,5.5.99316,5.5,1.5s-1.66113,1.5-5.5,1.5-5.5-.99316-5.5-1.5,1.66113-1.5,5.5-1.5ZM13,14h-3v-1h3v1ZM7,9v3h1v4h7v-4h1v-3H7ZM14,15h-5v-3h5v3ZM15,11h-7v-1h7v1ZM7,14.29285l-1.6297-1.6297c.33148-.47144.52972-1.04309.52972-1.66315,0-1.60162-1.29846-2.90002-2.90002-2.90002S.09998,9.39838.09998,11s1.2984,2.89996,2.90002,2.89996c.62006,0,1.19171-.19824,1.66315-.52972l2.33685,2.33679v-1.41418ZM3,12.89996c-1.04755,0-1.90002-.85242-1.90002-1.89996s.85248-1.90002,1.90002-1.90002,1.90002.85248,1.90002,1.90002-.85248,1.89996-1.90002,1.89996Z"/></svg>