<?xml version="1.0" encoding="UTF-8"?><svg id="icons" xmlns="http://www.w3.org/2000/svg" viewBox="0 0 32 32"><defs><style>.cls-1{fill:none;}</style></defs><rect class="cls-1" width="32" height="32"/><path d="M8,13h-2v-1h2v1Zm3-1h-2v1h2v-1Zm3,0h-2v1h2v-1Zm-6,6h-2v1h2v-1Zm3,0h-2v1h2v-1Zm3,0h-2v1h2v-1Zm-6,6h-2v1h2v-1Zm3,0h-2v1h2v-1Zm3,0h-2v1h2v-1ZM8,6h-2v1h2v-1Zm3,0h-2v1h2v-1Zm3,0h-2v1h2v-1Zm1.0191,22H3V3H29v14.3443c-.29968-.15186-.63605-.28894-1-.41351v-.93079H4v5H15v1H4v5H15v.7998c0,.06909,.01392,.133,.0191,.2002ZM4,9H28V4H4v5Zm0,6H28v-5H4v5Zm26,5v7.7998c0,1.94873-3.60645,3-7,3s-7-1.05127-7-3v-7.7998c0-.46777,.24707-1.15137,1.42383-1.75244,.49805-.25537,1.11523-.47168,1.83301-.64258,.57422-.13721,1.20215-.2417,1.86621-.31055,1.20898-.125,2.54492-.125,3.75391,0,.66406,.06885,1.29199,.17334,1.86621,.31055,.71777,.1709,1.33496,.38721,1.83398,.64307,1.17578,.60059,1.42285,1.28418,1.42285,1.75195Zm-13,0c0,.25879,.32812,.58057,.87891,.86182,.42773,.21973,.96973,.4082,1.61035,.56055,.53223,.12744,1.11621,.22412,1.7373,.28809,1.14062,.11914,2.40625,.11914,3.54688,0,.62109-.06396,1.20508-.16064,1.7373-.28809,.64062-.15234,1.18262-.34082,1.60938-.56006,.55176-.28174,.87988-.60352,.87988-.8623s-.32812-.58057-.87891-.86182c-.42773-.21973-.96973-.4082-1.61035-.56055-.53223-.12744-1.11621-.22412-1.7373-.28809-.57031-.05957-1.16699-.08936-1.77344-.08936s-1.20312,.02979-1.77344,.08936c-.62109,.06396-1.20508,.16064-1.7373,.28809-.64062,.15234-1.18262,.34082-1.60938,.56006-.55176,.28174-.87988,.60352-.87988,.8623Zm12,7.7998v-6.29413c-.1264,.08319-.26532,.16583-.42383,.24677-.49805,.25537-1.11523,.47168-1.83301,.64258-.57422,.13721-1.20215,.2417-1.86621,.31055-.60449,.0625-1.23633,.09424-1.87695,.09424s-1.27246-.03174-1.87695-.09424c-.66406-.06885-1.29199-.17334-1.86621-.31055-.71777-.1709-1.33496-.38721-1.83398-.64307-.15808-.08075-.29669-.16309-.42285-.24609v6.29395c0,.83496,2.28223,2,6,2s6-1.16504,6-2Z"/></svg>