<?xml version="1.0" encoding="UTF-8"?><svg id="icons" xmlns="http://www.w3.org/2000/svg" viewBox="0 0 24 24"><defs><style>.cls-1{fill:none;}.cls-1,.cls-2{stroke-width:0px;}</style></defs><rect class="cls-1" width="24" height="24"/><path class="cls-2" d="M12,14v3h1v6h10v-6h1v-3h-12ZM22,22h-8v-5h8v5ZM23,16h-10v-1h10v1ZM20,19h-4v-1h4v1ZM3.41577,6.87714l-1.45129,1.45129.70709.70709,1.45129-1.45129c.26227.17371.55817.3006.87714.36536v2.05042h1v-2.05042c.31897-.06476.61487-.19165.87714-.36536l1.45129,1.45129.70709-.70709-1.45129-1.45129c.17365-.26227.3006-.55817.36536-.87714h2.05042v-1h-2.05042c-.06476-.31897-.19171-.61487-.36536-.87714l1.45129-1.45129-.70709-.70709-1.45129,1.45123c-.26227-.17365-.55817-.30054-.87714-.3653V1h-1v2.05042c-.31897.06476-.61487.19165-.87714.3653l-1.45129-1.45123-.70709.70709,1.45129,1.45129c-.17365.26227-.3006.55817-.36536.87714H1v1h2.05042c.06476.31897.19171.61487.36536.87714ZM5.5,4c.8269,0,1.5.6731,1.5,1.5s-.6731,1.5-1.5,1.5-1.5-.6731-1.5-1.5.6731-1.5,1.5-1.5ZM12,13h-2.57843c-.29486-.42267-.6424-.6662-1.03345-1,1.17975.18445,2.55481.24219,4.11188.24219,5.18848,0,8.5-1.27441,8.5-2.15234v-3.67841c-1.64313,1.04572-5.08203,1.58856-8.5,1.58856-.86749,0-1.73566-.03571-2.57617-.10498-.04736-.09711-.10089-.19269-.18164-.27344l-.62109-.62158h3.37891c5.5,0,8.5-1.32129,8.5-2s-3-2-8.5-2c-.9342,0-1.62982.04053-2.4173.10712.15765-.32129.12524-.69611-.0827-.99597.86694-.07355,1.60419-.11115,2.5-.11115,4.7207,0,9.491,1.03027,9.491,3l.009,8h-1v-1.42725c-1.02289.68396-2.74231,1.16278-4.71875,1.42725h-4.28125ZM7.92645,19.22925c.59998-.75201.97357-1.69244.97357-2.72925,0-2.43005-1.97003-4.40002-4.40002-4.40002S.09998,14.06995.09998,16.5s1.96997,4.39996,4.40002,4.39996c1.04041,0,1.9837-.37622,2.73694-.97992l3.08423,3.08423c.18561.18561.48645.18591.67242.00067l.01709-.01703c.08954-.08917.13995-.21033.14008-.33673s-.04999-.24762-.1394-.33704l-3.0849-3.0849ZM1.1001,16.50006c0-1.87457,1.52545-3.40002,3.40002-3.40002s3.40002,1.52545,3.40002,3.40002-1.52545,3.39996-3.40002,3.39996-3.40002-1.52545-3.40002-3.39996Z"/></svg>