<?xml version="1.0" encoding="UTF-8"?><svg id="icons" xmlns="http://www.w3.org/2000/svg" viewBox="0 0 16 16"><defs><style>.cls-1{fill:none;}</style></defs><rect class="cls-1" width="16" height="16"/><path d="M4,4h-1v-1h1v1Zm2-1h-1v1h1v-1Zm2,0h-1v1h1v-1ZM4,7h-1v1h1v-1Zm2,0h-1v1h1v-1Zm2,0h-1v1h1v-1Zm-4,4h-1v1h1v-1Zm2,0h-1v1h1v-1Zm1,3H1V1H15v7.85077c-.0976-.06708-.19824-.13361-.31543-.19598-.20221-.10815-.43634-.19971-.68457-.28302v-2.37177H2v3H7.80469c-.39594,.32654-.60602,.68207-.70782,1H2v3H7v1ZM2,5H14V2H2v3Zm13,5.59521v3.71436c0,1.10986-1.76074,1.69043-3.5,1.69043s-3.5-.58057-3.5-1.69043v-3.71436c0-.29199,.13672-.7124,.78711-1.05908,.25-.1333,.55566-.24512,.91016-.33301,.27441-.06787,.57812-.12109,.90234-.15576,.57227-.06152,1.22852-.06152,1.80078,0,.32422,.03467,.62793,.08789,.90234,.15576,.35449,.08789,.66016,.19971,.91016,.3335,.65039,.34619,.78711,.7666,.78711,1.05859Zm-5.99414,.01123c.02148,.00684,.08594,.07666,.25195,.16504,.1748,.09326,.40918,.17822,.68066,.24561,.23242,.05762,.49121,.10205,.76855,.13184,.50195,.05371,1.08398,.05371,1.58594,0,.27734-.02979,.53613-.07422,.77051-.13184,.26953-.06738,.50391-.15234,.67871-.24512,.14746-.07861,.21484-.14307,.24316-.17676-.02832-.03369-.0957-.09766-.24316-.17627-.1748-.09375-.40918-.17822-.67969-.24512-.2334-.05811-.49219-.10254-.76953-.13232-.50195-.05371-1.08398-.05371-1.58594,0-.27734,.02979-.53613,.07422-.76953,.13232-.27051,.06689-.50488,.15137-.67969,.24463-.16602,.08887-.23047,.15869-.25195,.18799Zm4.99414,3.70068v-2.55878c-.20642,.09076-.43274,.17371-.69629,.23944-.27539,.06738-.5791,.12061-.90332,.15527-.28613,.03076-.58789,.04736-.90039,.04736s-.61426-.0166-.90039-.04736c-.32422-.03467-.62793-.08789-.90137-.15527-.26508-.06573-.49176-.14874-.69824-.23975v2.56152c.04199,.20459,.94238,.69043,2.5,.69043s2.45801-.48584,2.5-.69287Z"/></svg>