<?xml version="1.0" encoding="UTF-8"?><svg id="icons" xmlns="http://www.w3.org/2000/svg" viewBox="0 0 24 24"><defs><style>.cls-1{fill:none;}</style></defs><rect class="cls-1" width="24" height="24"/><path d="M7,9h1v1h-1v-1Zm2,1h1v-1h-1v1Zm0-4h1v-1h-1v1Zm-4,4h1v-1h-1v1Zm2-4h1v-1h-1v1Zm-2,0h1v-1h-1v1Zm3,12v-1h-1v1h1Zm-2,0v-1h-1v1h1Zm4,0v-1h-1v1h1Zm2,2H2V3H22V13.65375c-.30096-.12012-.63196-.22729-1-.31738v-1.33636H3v3H12.26654c-.21216,.38312-.26654,.74506-.26654,1H3v3H12v1ZM3,7H21v-3H3v3Zm0,4H21v-3H3v3Zm7,3v-1h-1v1h1Zm-2,0v-1h-1v1h1Zm-2,0v-1h-1v1h1Zm17,2v5.52979c0,1.50049-2.51562,2.28564-5,2.28564s-5-.78516-5-2.28564v-5.52979c0-.36182,.19238-.88379,1.10645-1.31592,.35742-.16846,.79297-.31006,1.2959-.42236,.40625-.08936,.8418-.15674,1.29785-.20068,.82617-.0791,1.77344-.0791,2.59961,0,.45605,.04395,.8916,.11133,1.29688,.20068,.50391,.1123,.93945,.25391,1.2959,.42236,.91504,.43213,1.10742,.9541,1.10742,1.31592Zm-9,0c0,.03174,.09473,.2041,.53418,.41162,.28711,.13525,.66211,.25684,1.08496,.3501,.36133,.08008,.75781,.1416,1.17676,.18213,.76367,.07324,1.64453,.07324,2.4082,0,.41895-.04053,.81543-.10205,1.17676-.18213,.42285-.09326,.79785-.21484,1.08594-.3501,.43848-.20752,.5332-.37988,.5332-.41162s-.09473-.2041-.53418-.41162c-.28906-.13672-.6543-.25439-1.08496-.3501-.36523-.08057-.76172-.1416-1.17676-.18213-.38184-.03662-.78613-.05615-1.2041-.05615s-.82227,.01953-1.2041,.05615c-.41504,.04053-.81152,.10156-1.17773,.18213-.42969,.0957-.79492,.21338-1.08496,.3501-.43848,.20752-.5332,.37988-.5332,.41162Zm8,5.52979v-4.27081c-.03662,.01886-.0672,.03839-.10645,.05695-.35938,.16943-.7959,.31104-1.2959,.42236-.40137,.08887-.83789,.15625-1.29785,.20068-.41309,.03955-.84863,.06104-1.2998,.06104s-.88672-.02148-1.2998-.06104c-.45996-.04443-.89648-.11182-1.29785-.20068-.5-.11133-.93652-.25293-1.29492-.42236-.03961-.01868-.0705-.03833-.10742-.05737v4.27124c0,.51172,1.5957,1.28564,4,1.28564s4-.77393,4-1.28564Z"/></svg>