<?xml version="1.0" encoding="UTF-8"?><svg id="icons" xmlns="http://www.w3.org/2000/svg" viewBox="0 0 16 16"><defs><style>.cls-1{fill:none;}.cls-1,.cls-2{stroke-width:0px;}</style></defs><rect class="cls-1" width="16" height="16"/><path class="cls-2" d="M7,9v3h1v4h7v-4h1v-3H7ZM14,15h-5v-3h5v3ZM15,11h-7v-1h7v1ZM13,14h-3v-1h3v1ZM7.10645,1.98236c.22882-.28308.27393-.61737.14801-.94385.39911-.02417.81305-.03851,1.24554-.03851,3.8877,0,6.5.98438,6.5,2.47949v4.52051h-1v-3.09357c-1.10126.67175-3.04523,1.07306-5.5,1.07306-.42975,0-.8374-.0166-1.23407-.04047.03467-.10229.06317-.20746.06317-.31744,0-.22949-.07812-.43018-.2207-.60693.06433-.0069.95728-.01465,1.3916-.01465,3.83887,0,5.5-1.01367,5.5-1.52051s-1.66113-1.52301-5.5-1.52301c-.47845,0-.92285.0155-1.33466.04352-.02063-.00354-.03784-.01538-.0589-.01764ZM1.59906,4.69397l-.92719.92712.70703.70697.92676-.92731c.21063.13251.4523.23193.70236.28894v1.3103h.991v-1.30969c.25061-.05682.48364-.15649.69458-.28918l.92749.92694.70801-.70697-.9278-.9278c.13239-.21069.23181-.4433.28864-.6933h1.31006v-1h-1.31006c-.05695-.25061-.15662-.48383-.28943-.69482l.92761-.92816-.70703-.70715-.92804.92865c-.21082-.13245-.44366-.23206-.69403-.28882V0h-.991v1.3103c-.24957.05688-.49075.15607-.70102.28821l-.9281-.92865-.70703.70905.92719.92712c-.13257.21082-.23212.44366-.289.69397H0v1h1.31006c.05688.25024.15643.48315.289.69397ZM3.5,2c.82867,0,1.5.67133,1.5,1.5,0,.82532-.67133,1.5-1.5,1.5s-1.5-.67468-1.5-1.5c0-.82867.67133-1.5,1.5-1.5ZM5.90002,11c0-1.60162-1.29846-2.90002-2.90002-2.90002S.09998,9.39838.09998,11s1.2984,2.89996,2.90002,2.89996c.62006,0,1.19171-.19824,1.66315-.52972l2.33685,2.33679v-1.41418l-1.6297-1.6297c.33148-.47144.52972-1.04309.52972-1.66315ZM1.09998,11c0-1.04755.85248-1.90002,1.90002-1.90002s1.90002.85248,1.90002,1.90002-.85248,1.89996-1.90002,1.89996-1.90002-.85242-1.90002-1.89996Z"/></svg>