<?xml version="1.0" encoding="UTF-8"?><svg id="icons" xmlns="http://www.w3.org/2000/svg" viewBox="0 0 32 32"><defs><style>.cls-1{fill:none;}.cls-1,.cls-2{stroke-width:0px;}</style></defs><rect class="cls-1" width="32" height="32"/><path class="cls-2" d="M17,20v3h1v8h12v-8h1v-3h-14ZM29,30h-10v-7h10v7ZM30,22h-12v-1h12v1ZM27,26h-6v-1h6v1ZM3.70551,7.5874l-1.44812,1.44812.70709.70709,1.44812-1.44812c.45685.34192.99652.56976,1.5874.65509v2.05042h1v-2.05042c.59088-.08533,1.13055-.31317,1.5874-.65509l1.44812,1.44812.70709-.70709-1.44812-1.44812c.34192-.45679.56976-.99652.65509-1.5874h2.05042v-1h-2.05042c-.08533-.59088-.31317-1.13055-.65509-1.5874l1.44812-1.44812-.70709-.70715-1.44812,1.44812c-.45679-.34192-.99652-.5697-1.5874-.65503V0h-1v2.05042c-.59088.08533-1.13062.31311-1.5874.65503l-1.44812-1.44812-.70709.70715,1.44812,1.44812c-.34192.45685-.56976.99652-.65509,1.5874H1v1h2.05042c.08533.59088.31317,1.13062.65509,1.5874ZM6.5,3c1.38025,0,2.5,1.11981,2.5,2.5s-1.11975,2.5-2.5,2.5c-1.38013,0-2.5-1.11981-2.5-2.5s1.11987-2.5,2.5-2.5ZM28,15.50281c-2.03448,1.58099-6.87335,2.42102-11.5,2.42102-.98206,0-1.97235-.0401-2.9447-.11487-.17993-.36798-.38788-.71875-.62469-1.04901,1.09546.10358,2.28595.16388,3.5694.16388,7.125,0,11.5-1.80469,11.5-3.09863v-5.22882c-2.03448,1.50452-6.87335,2.30402-11.5,2.30402-1.74536,0-3.52051-.11414-5.16437-.33661l.4671-.4671c.12823-.12823.22638-.27667.29877-.4353,1.3147.14868,2.78156.23901,4.3985.23901,7.125,0,11.5-1.68945,11.5-2.90039s-4.375-2.90039-11.5-2.90039c-1.15741,0-2.2337.04834-3.23901.12823-.20886-.34003-.53308-.60516-.94067-.69366l-.64679-.13977c1.5495-.19312,3.19989-.2948,4.82648-.2948,6.05957,0,12.5,1.36719,12.5,3.90039v12h-1v-3.49719ZM5,12.48358v.98907c0,.04962-.65946.37714-.991.52734l-.009-2.75592.38086-.24408.15234.70312c.06763.31177.24109.57593.4668.78046ZM11.43317,24.73596c.85162-1.00946,1.36682-2.31189,1.36682-3.73602,0-3.20325-2.59674-5.79993-5.79999-5.79993s-5.79999,2.59668-5.79999,5.79993,2.59674,5.80005,5.79999,5.80005c1.42767,0,2.73285-.51807,3.74335-1.37354l4.57776,4.5777c.18555.18561.48633.18591.6723.00079l.01709-.01703c.0896-.08917.14001-.21033.1402-.33673.00012-.12646-.05005-.24774-.1394-.3371l-4.57812-4.57812ZM2.20001,21c0-2.64661,2.15338-4.79999,4.79999-4.79999s4.79999,2.15338,4.79999,4.79999-2.15338,4.79999-4.79999,4.79999-4.79999-2.15338-4.79999-4.79999Z"/></svg>