<?xml version="1.0" encoding="UTF-8"?><svg id="icons" xmlns="http://www.w3.org/2000/svg" viewBox="0 0 24 24"><defs><style>.cls-1{fill:none;}.cls-1,.cls-2{stroke-width:0px;}</style></defs><rect class="cls-1" width="24" height="24"/><path class="cls-2" d="M16.28125,12.982c1.97644-.26447,3.69586-.72529,4.71875-1.40925v1.42725h1V5c0-1.96973-4.7793-3-9.5-3S3,3.03027,3,5v5.69745c.39746-.10284.57538-.16534,1-.18402v-4.10199c1.64313,1.04572,5.08203,1.58856,8.5,1.58856s6.85687-.54285,8.5-1.58856v3.67841c0,.87793-3.31152,2.15234-8.5,2.15234-1.55078,0-2.92932-.05908-4.10645-.24219.38879.33276.73456.57935,1.02802,1,.57843,0,1.30756-.04211,1.9801-.018h4.87958ZM12.5,7c-5.5,0-8.5-1.32129-8.5-2s3-2,8.5-2,8.5,1.32129,8.5,2-3,2-8.5,2ZM7.92645,19.22925c.59998-.75201.97357-1.69244.97357-2.72925,0-2.43005-1.97003-4.40002-4.40002-4.40002S.09998,14.06995.09998,16.5s1.96997,4.39996,4.40002,4.39996c1.04041,0,1.9837-.37622,2.73694-.97992l3.08423,3.08423c.18561.18561.48645.18591.67242.00067l.01709-.01703c.08954-.08917.13995-.21033.14008-.33673s-.04999-.24762-.1394-.33704l-3.0849-3.0849ZM1.1001,16.50006c0-1.87457,1.52545-3.40002,3.40002-3.40002s3.40002,1.52545,3.40002,3.40002-1.52545,3.39996-3.40002,3.39996-3.40002-1.52545-3.40002-3.39996ZM12,14v3h1v6h10v-6h1v-3h-12ZM22,22h-8v-5h8v5ZM23,16h-10v-1h10v1ZM20,19h-4v-1h4v1Z"/></svg>