<svg id="icons" xmlns="http://www.w3.org/2000/svg" viewBox="0 0 32 32"><defs><style>.cls-1{fill:none;}</style></defs><path d="M26,10V6.71344L15.71381,17H19v1H14V13h1v3.29974L25.29938,6H22V5h5v5ZM9,2H7V3H9ZM21,2H19V3h2Zm4,0H23V3h2ZM11,3h2V2H11Zm6-1H15V3h2ZM29,21h1V19H29Zm0,4h1V23H29ZM27,2V3h2V5h1V2Zm2,7h1V7H29Zm0,4h1V11H29Zm0,4h1V15H29ZM3,11H2v2H3Zm0,4H2v2H3ZM29,29H27v1h3V27H29ZM3,7H2V9H3ZM23,30h2V29H23Zm-4,0h2V29H19Zm-4,0h2V29H15ZM3,3H5V2H2V5H3ZM2,19H13V30H2ZM3,29h9V20H3Z"/><rect class="cls-1" width="32" height="32"/></svg>