<?xml version="1.0" encoding="UTF-8"?><svg id="icons" xmlns="http://www.w3.org/2000/svg" viewBox="0 0 16 16"><defs><style>.cls-1{fill:none;}</style></defs><path d="M6.44629,7h-2.25238c-.7533-.60706-1.1402-1.39594-1.1402-2.35938,0-1.80176,1.45312-3.61914,4.7002-3.61914,2.5954,0,4.35803,1.0874,4.87952,2.97852h-1.0639c-.65576-1.69397-2.63232-1.97852-3.81561-1.97852-2.24756,0-3.7002,1.02832-3.7002,2.61914,0,.85547,.4209,1.47363,1.32471,1.94531,.30365,.16156,.67023,.29358,1.06787,.41406Zm-5.44629,1v1H10.02356c.64105,.24005,1.18036,.53943,1.50378,.95508,.29492,.38281,.44482,.83105,.44482,1.33496,0,1.33691-1.16504,2.68652-3.76758,2.68652-.96094,0-3.08978-.21136-4.03516-1.97656h-1.1001c1.07843,2.74902,4.16309,2.97656,5.13525,2.97656,3.27588,0,4.76758-1.91113,4.76758-3.68652,0-.72949-.21973-1.38477-.65479-1.94727-.09619-.12372-.20673-.23535-.3222-.34277h3.00482v-1H1Z"/><rect class="cls-1" width="16" height="16"/></svg>