<?xml version="1.0" encoding="UTF-8"?><svg id="icons" xmlns="http://www.w3.org/2000/svg" viewBox="0 0 24 24"><defs><style>.cls-1{fill:none;}</style></defs><path d="M9.72113,10h-2.15802c-.92657-.71027-1.53381-1.72278-1.53381-3.26172,0-2.34668,2.02686-4.71387,6.55566-4.71387,3.29517,0,5.23181,1.27771,6.09021,3.97559h-1.05212c-.7644-2.06775-2.30139-2.97559-5.03809-2.97559-3.83789,0-5.55566,1.86523-5.55566,3.71387,0,1.7912,.9881,2.64893,2.69183,3.26172Zm-7.72113,1v1H13.43451c2.98767,.71143,5.55524,1.60986,5.55524,4.46094,0,2.66699-2.41553,4.5293-5.87354,4.5293-2.4563,0-5.41754-.5647-6.65955-3.00269h-1.1109c1.04028,2.62488,3.69757,4.00269,7.77045,4.00269,4.72266,0,6.87354-2.86621,6.87354-5.5293,0-2.36182-1.3822-3.64008-3.24988-4.46094h5.26013v-1H2Z"/><rect class="cls-1" width="24" height="24"/></svg>