<?xml version="1.0" encoding="UTF-8"?><svg id="icons" xmlns="http://www.w3.org/2000/svg" viewBox="0 0 32 32"><defs><style>.cls-1{fill:none;}</style></defs><rect class="cls-1" width="32" height="32"/><path d="M13.12048,14h-3.08057c-1.84656-.90857-2.95173-2.33301-2.95173-4.93555,0-3.01758,2.42549-6.0625,8.29023-6.0625,4.20947,0,6.70453,1.60828,7.83722,4.99805h-1.06921c-1.03644-2.73438-3.15314-3.98242-6.76801-3.98242-5.16357,0-7.27461,2.53516-7.27461,5.04688,0,2.96985,1.73335,4.05969,5.01667,4.93555Zm-10.12048,1.01953v.96094h14.08344c3.73718,.90912,6.88922,2.11652,6.88922,5.79883,0,3.60449-3.24609,6.12207-7.89404,6.12207-5.12982,0-8.25159-1.64777-9.31006-4.89185h-1.06647c1.0921,3.86798,4.6593,5.90747,10.37653,5.90747,6.12158,0,8.90967-3.7002,8.90967-7.1377,0-3.16779-1.87823-4.7796-4.42279-5.79883h8.43451v-.96094H3Z"/></svg>