<?xml version="1.0" encoding="UTF-8"?><svg id="icons" xmlns="http://www.w3.org/2000/svg" viewBox="0 0 32 32"><defs><style>.cls-1{fill:none;}.cls-1,.cls-2{stroke-width:0px;}</style></defs><rect class="cls-1" width="32" height="32"/><path class="cls-2" d="M28.5,11c.82715,0,1.5-.67285,1.5-1.5v-4c0-.82715-.67285-1.5-1.5-1.5H3.5c-.82715,0-1.5.67285-1.5,1.5v4c0,.82715.67285,1.5,1.5,1.5h2.5v16h5v1c0,.55176.44873,1,1,1h17c.55127,0,1-.44824,1-1v-3c0-.55176-.44873-1-1-1H12c-.55127,0-1,.44824-1,1v1h-4v-8h4v1c0,.55176.44873,1,1,1h17c.55127,0,1-.44824,1-1v-3c0-.55176-.44873-1-1-1H12c-.55127,0-1,.44824-1,1v1h-4v-6h21.5ZM12,25h17v3h.00098H12v-3ZM12,16h17v3h.00098H12v-3ZM3.5,10c-.27588,0-.5-.22461-.5-.5v-4c0-.27539.22412-.5.5-.5h25c.27588,0,.5.22461.5.5v4c0,.27539-.22412.5-.5.5H3.5Z"/></svg>