<?xml version="1.0" encoding="UTF-8"?><svg id="icons" xmlns="http://www.w3.org/2000/svg" viewBox="0 0 24 24"><defs><style>.cls-1{fill:none;}.cls-1,.cls-2{stroke-width:0px;}</style></defs><rect class="cls-1" width="24" height="24"/><path class="cls-2" d="M22,8c.55127,0,1-.44824,1-1v-3c0-.55176-.44873-1-1-1H2c-.55127,0-1,.44824-1,1v3c0,.55176.44873,1,1,1h2v12h4v1.5c0,.27612.22388.5.5.5h14c.27612,0,.5-.22388.5-.5v-3c0-.27618-.22388-.5-.5-.5h-14c-.27612,0-.5.22382-.5.5v.5h-3v-6h3v1.5c0,.27612.22388.5.5.5h14c.27612,0,.5-.22388.5-.5v-3c0-.27618-.22388-.5-.5-.5h-14c-.27612,0-.5.22382-.5.5v.5h-3v-4h17ZM9,19h13v2h-13v-2ZM9,12h13v2h-13v-2ZM2,7v-3h20v3h.00098H2Z"/></svg>