<?xml version="1.0" encoding="UTF-8"?><svg id="icons" xmlns="http://www.w3.org/2000/svg" viewBox="0 0 16 16"><defs><style>.cls-1{fill:none;}.cls-1,.cls-2{stroke-width:0px;}</style></defs><rect class="cls-1" width="16" height="16"/><path class="cls-2" d="M14,5c.55127,0,1-.44824,1-1v-2c0-.55176-.44873-1-1-1H2c-.55127,0-1,.44824-1,1v2c0,.55176.44873,1,1,1h1v9h3v.5c0,.27612.22388.5.5.5h8c.27612,0,.5-.22388.5-.5v-2c0-.27618-.22388-.5-.5-.5H6.5c-.27612,0-.5.22382-.5.5v.5h-2v-4h2v.5c0,.27612.22388.5.5.5h8c.27612,0,.5-.22388.5-.5v-2c0-.27618-.22388-.5-.5-.5H6.5c-.27612,0-.5.22382-.5.5v.5h-2v-3h10ZM14,13v1h-7v-1h7ZM14,8v1h-7v-1h7ZM2,4v-2h12v2H2Z"/></svg>