<?xml version="1.0" encoding="UTF-8"?><svg id="icons" xmlns="http://www.w3.org/2000/svg" viewBox="0 0 16 16"><defs><style>.cls-1{fill:none;}.cls-1,.cls-2{stroke-width:0px;}</style></defs><path class="cls-2" d="M5,9.25v-1.25h3.00897v2.19324c-.52997.1994-.909.70697-.909,1.30676,0,.77319.62683,1.39996,1.40002,1.39996s1.40002-.62677,1.40002-1.39996c0-.59979-.37903-1.10736-.909-1.30676v-2.19324h3.00897v2h-1v3h3v-3h-1v-3h-4v-1h1v-3h-3v3h1v1h-4v2.25l-1.5,3.75h4l-1.5-3.75ZM13,12h-1v-1h1v1ZM9,11.25v.5c0,.13806-.11194.25-.25.25h-.5c-.13806,0-.25-.11194-.25-.25v-.5c0-.13806.11194-.25.25-.25h.5c.13806,0,.25.11194.25.25ZM8,4h1v1h-1v-1ZM4.5,10.69238l.52344,1.30762h-1.04688l.52344-1.30762ZM1,1v14h15V1H1ZM15,14H2V2h13v12Z"/><rect class="cls-1" width="16" height="16"/></svg>