<?xml version="1.0" encoding="UTF-8"?><svg id="icons" xmlns="http://www.w3.org/2000/svg" viewBox="0 0 24 24"><defs><style>.cls-1{fill:none;}.cls-1,.cls-2{stroke-width:0px;}</style></defs><path class="cls-2" d="M1,2v20h23V2H1ZM23,21H2V3h21v18ZM6,14.76367v-2.76367h6v3.05286c-1.13971.23169-1.9975,1.23901-1.9975,2.44714,0,1.37927,1.11816,2.4975,2.4975,2.4975s2.4975-1.11823,2.4975-2.4975c0-1.20813-.85779-2.21545-1.9975-2.44714v-3.05286h6v3h-2v5h5v-5h-2v-4h-7v-2h2v-5h-5v5h2v2h-7v3.76367l-2.61816,5.23633h6.23633l-2.61816-5.23633ZM21,16v3h-3v-3h3ZM11,8v-3h3v3h-3ZM12.5,16c.8269,0,1.5.6731,1.5,1.5s-.6731,1.5-1.5,1.5-1.5-.6731-1.5-1.5.6731-1.5,1.5-1.5ZM5.5,16l1.5,3h-3l1.5-3Z"/><rect class="cls-1" width="24" height="24"/></svg>