<?xml version="1.0" encoding="UTF-8"?><svg id="icons" xmlns="http://www.w3.org/2000/svg" viewBox="0 0 32 32"><defs><style>.cls-1{fill:none;}.cls-1,.cls-2{stroke-width:0px;}</style></defs><path class="cls-2" d="M2,3v26h29V3H2ZM30,28H3V4h27v24ZM10.61816,26l-2.61816-5.23633v-4.76367h8v5.07562c-1.1272.23126-1.97498,1.22876-1.97498,2.42438,0,1.36688,1.10803,2.47498,2.47498,2.47498s2.47498-1.10809,2.47498-2.47498c0-1.19562-.84778-2.19312-1.97498-2.42438v-5.07562h8v5h-2v5h5v-5h-2v-6h-9v-4h2v-5h-5v5h2v4H7v5.76367l-2.61816,5.23633h6.23633ZM18,23.5c0,.8269-.6731,1.5-1.5,1.5s-1.5-.6731-1.5-1.5.6731-1.5,1.5-1.5,1.5.6731,1.5,1.5ZM27,22v3h-3v-3h3ZM15,10v-3h3v3h-3ZM6,25l1.5-3,1.5,3h-3Z"/><rect class="cls-1" width="32" height="32"/></svg>