<svg xmlns="http://www.w3.org/2000/svg" viewBox="0 0 16 16"><path d="M1 1v14h14V1zm13 13H2V2h12zm-4-7a2 2 0 1 1 2-2 2.002 2.002 0 0 1-2 2zM5 7a2 2 0 1 0 2 2 2.002 2.002 0 0 0-2-2zm1 2.5a.501.501 0 0 1-.5.5h-1a.501.501 0 0 1-.5-.5v-1a.501.501 0 0 1 .5-.5h1a.501.501 0 0 1 .5.5zm5-.5a2 2 0 1 0 2 2 2.002 2.002 0 0 0-2-2zm1 2.5a.501.501 0 0 1-.5.5h-1a.501.501 0 0 1-.5-.5v-1a.501.501 0 0 1 .5-.5h1a.501.501 0 0 1 .5.5z"/><rect opacity=".5" x="10" y="10" width="2" height="2" rx=".5"/><path fill="none" d="M0 0h16v16H0z"/></svg>