<svg xmlns="http://www.w3.org/2000/svg" viewBox="0 0 32 32"><path d="M2 2v28h28V2zm27 27H3V3h26zM16 10a4 4 0 114 4 4.004 4.004 0 01-4-4zm-6 12a4 4 0 10-4-4 4.005 4.005 0 004 4zm0-7a3 3 0 11-3 3 3.003 3.003 0 013-3zm8 7a4 4 0 104-4 4.005 4.005 0 00-4 4zm6.957-.427A2.963 2.963 0 0125 22a3.003 3.003 0 01-3 3 2.963 2.963 0 01-.427-.043zm-.259-.802l-3.947 3.948a3.008 3.008 0 01-1.47-1.47l3.948-3.947a2.962 2.962 0 011.47 1.47zm-5.655 1.656A2.963 2.963 0 0119 22a3.003 3.003 0 013-3 2.963 2.963 0 01.427.043z"/></svg>