<?xml version="1.0" encoding="UTF-8"?><svg id="icons" xmlns="http://www.w3.org/2000/svg" viewBox="0 0 32 32"><defs><style>.cls-1{fill:none;}.cls-1,.cls-2{stroke-width:0px;}</style></defs><path class="cls-2" d="m2,21.98083c-.3078.25604-.64227.5141-1,.77075V7.3999L16.5,1.00049l14.5,6.3999v14.37665c-.35455-.58801-.69586-1.17773-1-1.7348v-11.99048l-13-5.73804v6.9718c-.33917-.30328-.67188-.57172-1-.78345V2.28857L2,8.06885v13.91199Zm13.41807-3.12029c-.45678.95206-.71787,2.01486-.71787,3.13945,0,.52783.05933,1.0415.16626,1.53784-.08643.21692-.18463.43292-.31885.65314.16937.08899.36908.21674.61658.34613.1734.46545.3916.90796.65173,1.32324-.88635-.23083-1.42578-.63245-1.88422-.8551-.72327.84784-1.77911,2.03528-2.45911,2.79523l4.78546,1.94342c.43829-.74664.83521-1.43176,1.1875-2.04852.26086.20898.53815.39703.82635.56921-.20422.35748-.41095.71667-.61432,1.06702l1.45276-.63092c.46393.20087.95215.35541,1.45966.4566l-4.06659,1.76605L.58594,24.4585c1.26874-.86731,3.74103-2.48016,4.39648-4.03613.39111-.92773,2.44824-5.62402,4.58008-6.92676,1.75409-1.07074,2.66248-4.36145,4.604-4.3623,1.10547,0,2.4458,1.4082,4.08252,3.24951,2.20215,2.47955,1.4635,1.76465,5.26172,1.76465.61719,0,.86426.06592.99658.11523.50812.19031,1.32782.90649,2.06293,1.86755-1.3468-.89441-2.95209-1.43005-4.57025-1.43005-1.26239,0-2.45062.32257-3.48743.88885.30591-.24573.60333-.47717.87164-.68079-.33893-.21362-.71979-.57996-1.2157-1.12012-.92828,1.18634-3.1192,1.63696-4.47308,1.58472-.83936,2.08118-1.33887,1.98669-2.14178,3.57678,1.56549.16364,3.86442-.0891,3.86442-.0891Zm-4.31034,1.04387c-.40967.94531-.81293,1.98169-1.3042,2.7981,1.45892.42218,2.92761.80811,3.80103,1.09717.68005-.99707.55774-1.97986,1.30316-3.89447-.97827.10022-2.27032.20282-3.79999-.00079Zm4.31305-9.01709c-.61658,1.19-.90399,2.1944-1.34912,3.49384.97833-.02411,2.88013-.4397,3.41797-1.34711-.5415-.60919-1.3465-1.50909-2.06885-2.14673Zm-4.23694,2.50336c.30609.27649.91638.71881,1.86078.90619.47034-1.33087.78473-2.55304,1.56158-4.00977-1.21179-.65759-1.85767,1.34912-3.42236,3.10358Zm-2.8717,2.89386c.20831.78876.77045,2.06812,2.21075,2.48822.90314-1.89606,1.38953-1.75958,2.14679-3.53076-1.04547-.23761-1.79773-.73541-2.23206-1.15948-.65033.50201-1.08087.67346-2.12549,2.20203Zm-2.3111,4.30737c.58752,1.19879,1.52832,1.41986,2.80402,1.81342.48126-.71155.93701-1.85028,1.30768-2.71637-1.35767-.44421-2.0871-1.47229-2.47388-2.33923-.60138,1.01849-1.16882,2.15265-1.63782,3.24219Zm-.15637,4.92303c.70294-.7049,1.57379-1.5741,2.25348-2.28302-1.23242-.39703-1.90564-.62787-2.64856-1.63086-.72827,1.04413-1.90436,1.99609-2.7738,2.62695l3.16888,1.28693Zm4.64337,1.88568c.58032-.64716,1.64526-1.83978,2.44348-2.76526-.94385-.28912-2.50842-.70782-3.76538-1.0769-.61652.65967-1.50555,1.55182-2.31641,2.36462l3.63831,1.47754Zm20.66266,3.25055c-.00012.1264-.0506.24756-.1402.33679l-.01709.01697c-.18597.18518-.48676.18481-.6723-.00073l-4.57776-4.57776c-1.01056.85547-2.31567,1.37354-3.74335,1.37354-3.20325,0-5.79999-2.59674-5.79999-5.80005s2.59674-5.79993,5.79999-5.79993,5.80005,2.59668,5.80005,5.79993c0,1.42413-.51526,2.72656-1.36688,3.73602l4.57812,4.57812c.08942.08942.13953.21069.1394.3371Zm-4.35065-8.65118c0-2.64661-2.15344-4.79999-4.80005-4.79999s-4.79999,2.15338-4.79999,4.79999,2.15344,4.79999,4.79999,4.79999,4.80005-2.15338,4.80005-4.79999Z"/><rect class="cls-1" width="32" height="32"/></svg>