<?xml version="1.0" encoding="UTF-8"?><svg id="icons" xmlns="http://www.w3.org/2000/svg" viewBox="0 0 24 24"><defs><style>.cls-1{fill:none;}.cls-1,.cls-2{stroke-width:0px;}</style></defs><path class="cls-2" d="m23.01135,22.31421l-3.0849-3.08496c.59998-.75208.97357-1.69244.97357-2.72925,0-2.43005-1.97003-4.40002-4.40002-4.40002s-4.39996,1.96997-4.39996,4.40002,1.96991,4.40002,4.39996,4.40002c1.04041,0,1.9837-.37622,2.737-.97998l3.08423,3.08423c.18555.18561.48639.18591.67236.00067l.01709-.01697c.08954-.08923.13995-.21039.14008-.33679.00012-.12634-.04999-.24762-.1394-.33698Zm-9.91119-5.81415c0-1.87457,1.52545-3.40002,3.39996-3.40002s3.40002,1.52545,3.40002,3.40002-1.52545,3.40002-3.40002,3.40002-3.39996-1.52545-3.39996-3.40002Zm-11.10016-.76489c-.26837.23029-.58466.48529-.95703.76465l-.04297.03223V6.4375L12.00879,2.09961l10.99121,4.33789v9.88092c-.26813-.53723-.53625-1.15588-.80127-1.77789-.06635-.1557-.13257-.30774-.19873-.46167v-6.96069l-9-3.55212v4.87335c-.30768-.39252-.63147-.76953-1-1.07654V3.17828L2,7.11816v8.617Zm10.00293,6.11932l-2.06201-.91113c.4646-.4071.95642-.86523,1.42371-1.35645-.25739-.42651-.46606-.88483-.61163-1.37152-1.03796-.09271-2.05243-.34167-3.22461-.80432.55975-.6507,1.20392-1.35236,1.96722-2.12933.18854-.19202.35168-.38147.50189-.5694.24158.06567.48694.1098.73499.15167.09387-.33051.21643-.64807.36304-.95282-.1687-.02557-.3363-.05121-.49719-.08521.44257-.79468.63104-1.54425.80402-2.23566.10309-.41089.20831-.80579.35706-1.18646.35168.4563.72742.92151,1.14203,1.3064.27637-.20819.56976-.39362.88019-.55225-.46985-.3797-.91663-.95599-1.32996-1.49347-.6333-.82373-1.18018-1.53467-1.95166-1.66455-.54199,0-.95752.46973-1.48291,1.06396-.44385.50244-.99658,1.12744-1.68652,1.51514-.98291.55176-2.0127,2.02686-3.14941,4.50879-.35303.76904-1.53418,1.83398-2.43848,2.51221l-.68311.51221,10.9375,4.83301,2.15253-.92578c-.38916-.16638-.755-.37543-1.09692-.61658l-1.04974.45154Zm-4.18262-10.40332c.8374-.47119,1.45215-1.16602,1.94629-1.7251.2373-.26807.55518-.62842.71484-.7124.15991.06757.36566.26892.58081.51624-.31635.60663-.48047,1.22034-.63013,1.81775-.1748.69843-.36084,1.41406-.8147,2.1626-.68018-.30011-1.37164-.8103-2.21436-1.74109.15656-.14465.29761-.25092.41724-.31799Zm-2.72998,4.05322c.64606-1.41083,1.19672-2.3504,1.6532-2.97546.83832.90967,1.56439,1.46191,2.25909,1.80676-.07245.08167-.13983.16278-.22089.24536-.86798.88403-1.60608,1.68707-2.22339,2.41956-.05786-.02594-.10992-.04602-.1687-.07288-.81836-.37396-1.2218-.67969-1.53583-1.03265.08337-.13074.17755-.26215.23651-.39069Zm.08069,3.33124l-2.16956-.95868c.37958-.31738.83185-.7309,1.23535-1.17468.36194.37024.84509.71899,1.67706,1.10529-.27783.35944-.52631.70245-.74286,1.02808Zm3.76489,1.66364l-2.83331-1.25201c.22546-.32806.47919-.67206.76801-1.03656,1.26654.52002,2.38531.85144,3.49542.98352-.45972.4552-.94305.88153-1.37189,1.25452l-.05823.05054Z"/><rect class="cls-1" width="24" height="24"/></svg>