<?xml version="1.0" encoding="UTF-8"?><svg id="icons" xmlns="http://www.w3.org/2000/svg" viewBox="0 0 16 16"><defs><style>.cls-1{fill:none;}.cls-1,.cls-2{stroke-width:0px;}</style></defs><path class="cls-2" d="m16,3.20068v5.18848c-.1778-.31226-.3042-.55823-.35596-.69403-.13593-.35657-.36316-.79041-.64404-1.22223v-2.59546l-6-2.40259v1.88025c-.33142-.33655-.65936-.61145-1-.80518v-1.47003L1,3.87744v3.7876c-.17511.33167-.32074.63116-.42285.85339-.08301.18079-.29016.4458-.57715.71039V3.19971L8.00684,0l7.99316,3.20068Zm-.23224,11.85992c.09381.09375.14648.22095.14648.35358s-.05273.25983-.14648.35358c-.19525.19525-.51184.19525-.70709,0l-2.39752-2.39752c-.47144.33154-1.04303.52979-1.66315.52979-1.60162,0-2.89996-1.29846-2.89996-2.90002s1.29834-2.90002,2.89996-2.90002,2.90002,1.2984,2.90002,2.90002c0,.62006-.19824,1.19171-.52972,1.66315l2.39746,2.39746Zm-4.76776-2.16058c1.04755,0,1.90002-.85248,1.90002-1.90002s-.85248-1.90002-1.90002-1.90002-1.89996.85248-1.89996,1.90002.85242,1.90002,1.89996,1.90002Zm-2.25299,1.74634l-.74799.26038C-.19849,11.97827,1.25977,12.57373,0,11.82568v-.55225c.38062-.38977,1.29266-.91626,1.71338-1.83447,1.92804-4.19257,2.96008-3.37451,3.58398-4.19482,1.45209-1.91016,2.11969-1.33136,3.75879.66504,1.58429,1.92737,3.13062-1.86212,4.98352,1.99237l.05505.05792c-.00531.00507-.01373.01233-.01917.01746.01581.03375.02185.04944.03528.0788-.78137-.83002-1.88232-1.35455-3.11084-1.35455-.71405,0-1.37787.19153-1.97125.50079-.44568-.23639-.67627-.59247-1.17841-1.1745-.13879.58527-.0271,1.13739-.57281,2.33942.11115.0202.20917.0354.3067.05054-.21613.28473-.409.58728-.5495.92096-.08881-.01697-.17688-.03314-.27051-.05554-.27893.39221-.8241.99713-1.39246,1.65784.35773.13055.80847.25531,1.35498.33215.04138.64594.22449,1.24823.52094,1.78595-.13623.11255-.2829.23114-.44769.36035l.91785.3266c.29492.35187.63727.65771,1.02917.90063Zm-3.96344-7.89154c.57422.6991,1.06696,1.08575,1.53778,1.31213.64661-1.33331.30176-1.93274.74725-2.84406-.62152-.50311-.08978.31775-2.28503,1.53192Zm-1.79822,2.37433c.2406.36243.72845.9577,1.44531,1.37433.61029-.71771,1.03168-1.18121,1.35333-1.58215-.53107-.27716-1.09967-.73273-1.72455-1.47717-.36475.45648-.74359,1.06219-1.0741,1.685Zm.79785,2.16266c-.56842-.36139-1.00226-.79578-1.30664-1.16949-.26489.46124-.65869.92737-1.13965,1.33423.11053.06616-.12878-.02722,1.85071.67719.14978-.25067.35315-.53265.59558-.84192Zm2.83527.9895c-.85602-.11523-1.48651-.34222-1.92639-.52686-.20691.25769-.39594.50598-.54053.72223l1.52472.5426c.35986-.27264.68054-.52295.9422-.73798Z"/><rect class="cls-1" width="16" height="16"/></svg>