<svg xmlns="http://www.w3.org/2000/svg" viewBox="0 0 24 24"><path d="M5.975 13.081l6.106-6.106 4.944 4.945-6.106 6.106z"/><path d="M21.78 5.22l-3-3a.75.75 0 0 0-.53-.22H13a.75.75 0 0 0-.53.22l-10.5 10.5a.75.75 0 0 0 0 1.06l8.25 8.25a.75.75 0 0 0 1.06 0l10.5-10.5A.75.75 0 0 0 22 11V5.75a.75.75 0 0 0-.22-.53zm-3.85 7.211l-6.5 6.499a.72.72 0 0 1-1.021 0L5.07 13.59a.72.72 0 0 1 0-1.02l6.5-6.5a.725.725 0 0 1 1.02 0l5.338 5.339a.72.72 0 0 1 0 1.021zM17.5 8A1.5 1.5 0 1 1 19 6.5 1.502 1.502 0 0 1 17.5 8z"/></svg>