<?xml version="1.0" encoding="UTF-8"?><svg id="icons" xmlns="http://www.w3.org/2000/svg" viewBox="0 0 16 16"><defs><style>.cls-1{fill:none;}.cls-1,.cls-2{stroke-width:0px;}</style></defs><rect class="cls-1" width="16" height="16"/><path class="cls-2" d="M13.33331,1H2.66669c-.91962,0-1.66669.80621-1.66669,1.79486v10.41028c0,.9903.74707,1.79486,1.66669,1.79486h10.66663c.91962,0,1.66669-.80457,1.66669-1.79486V2.79486c0-.98865-.74707-1.79486-1.66669-1.79486ZM14,13.09088c0,.50208-.37311.90912-.83331.90912H2.83331c-.46021,0-.83331-.40704-.83331-.90912V2.90906c0-.50208.37311-.90906.83331-.90906h10.33337c.46021,0,.83331.40698.83331.90906v10.18182ZM5,13h-2v-2h2v2ZM5,9h-2v-2h2v2ZM5,5h-2v-2h2v2ZM13,4h-7v-1h7v1ZM13,12h-7v-1h7v1ZM13,8h-7v-1h7v1Z"/></svg>