<svg id="icons" xmlns="http://www.w3.org/2000/svg" viewBox="0 0 16 16"><defs><style>.cls-1{opacity:0.25;}.cls-2{fill:none;}</style></defs><path class="cls-1" d="M13.11194,9.11072l-.00055.00067-.00006-.00006Zm-.00055-4.22211L11.85358,6.14642A.4987.4987,0,0,1,12,6.5v.793l1.431,1.431a2.97261,2.97261,0,0,0-.31964-3.83539Z"/><path d="M4,9H3V7H4ZM4,4H3V6H4ZM4,0H3V3H4ZM6.293,12,4,14.293V10H3v4.293L.707,12H0v.707L3.14783,15.8548a.49808.49808,0,0,0,.7044,0L7,12.707V12ZM15.8045,6.99951a4.8,4.8,0,1,1-4.80481-4.80383A4.80472,4.80472,0,0,1,15.8045,6.99951Zm-.8045,0A3.99561,3.99561,0,1,0,10.99951,11,4.004,4.004,0,0,0,15,6.99951ZM12.75781,9.46484,11.293,8H10.5a.5.5,0,0,1-.5-.5v-1a.5.5,0,0,1,.5-.5h1a.5.5,0,0,1,.5.5v.793l1.46484,1.46484Z"/><rect class="cls-2" width="16" height="16"/></svg>