<svg id="icons" xmlns="http://www.w3.org/2000/svg" viewBox="0 0 24 24"><defs><style>.cls-1{opacity:0.25;}.cls-2{fill:none;}</style></defs><path class="cls-1" d="M17,11a.99677.99677,0,0,0-.29291-.70709l2.12134-2.12134a3.9649,3.9649,0,0,1,.3197,5.26941l-2.19732-2.19727A.96269.96269,0,0,0,17,11Z"/><path d="M5,6H4V1H5ZM5,7H4V9H5Zm0,3H4v2H5Zm0,3H4v2H5Zm2.293,6L5,21.293V16H4v5.293L1.707,19H1v.707l3.5,3.5,3.5-3.5V19ZM22.8,11.00006A6.8,6.8,0,1,1,16,4.2,6.79953,6.79953,0,0,1,22.8,11.00006Zm-1,.00025A5.8,5.8,0,1,0,16,16.8,5.80617,5.80617,0,0,0,21.8,11.00031Zm-2.44642,2.64611-2.40277-2.40271A.96269.96269,0,0,0,17,11a1,1,0,1,0-1,1,.96269.96269,0,0,0,.24371-.04919l2.40277,2.40277Z"/><rect class="cls-2" width="24" height="24"/></svg>