<?xml version="1.0" encoding="UTF-8"?><svg id="icons" xmlns="http://www.w3.org/2000/svg" viewBox="0 0 32 32"><defs><style>.cls-1{fill:none;}.cls-1,.cls-2{stroke-width:0px;}</style></defs><rect class="cls-1" width="32" height="32"/><path class="cls-2" d="M27.99902,3H3.99799c-1.1015,0-1.99299.89844-1.99299,2l-.005,22.99799c0,1.10358.89648,2.00201,1.99799,2.00201h24.00104c1.10345,0,2.00098-.89844,2.00098-2.00201V5.00781c0-1.10156-.89752-2.00781-2.00098-2.00781ZM29,28.00201c0,.55066-.44733.99799-.99902.99799H3.99902c-.55176,0-.99902-.44733-.99902-.99799V5c0-.55273.44727-1,.99902-1h24.00195c.5517,0,.99902.44727.99902,1v23.00201ZM4,5v23h24V5H4ZM27,27H5V6h22v21ZM26,10h-14v-1h14v1ZM26,17h-14v-1h14v1ZM26,24h-14v-1h14v1ZM6,7v5h5v-5h-5ZM10,11h-3v-3h3v3ZM6,14v5h5v-5h-5ZM10,18h-3v-3h3v3ZM6,21v5h5v-5h-5ZM10,25h-3v-3h3v3Z"/></svg>