<svg id="icons" xmlns="http://www.w3.org/2000/svg" viewBox="0 0 32 32"><defs><style>.cls-1{opacity:0.25;}.cls-2{fill:none;}</style></defs><path class="cls-1" d="M27.9,14.5a7.36366,7.36366,0,0,1-1.83075,4.86218L21.85,15.14294a1.48321,1.48321,0,0,0-.28937-1.70361L25.7326,9.2674A7.377,7.377,0,0,1,27.9,14.5Z"/><path d="M7,6H6V1H7ZM7,19H6v2H7ZM7,7H6V9H7Zm0,9H6v2H7Zm0-3H6v2H7Zm0-3H6v2H7ZM7,29.293V22H6v7.293L2.707,26H2v.707l4.5,4.5,4.5-4.5V26h-.707ZM30.8,14.5A10.3,10.3,0,1,1,20.5,4.2,10.3,10.3,0,0,1,30.8,14.5Zm-.99,0a9.31,9.31,0,1,0-9.31,9.30952A9.3202,9.3202,0,0,0,29.81,14.5ZM22,14.5a1.51429,1.51429,0,1,0-.85706,1.35L25.65686,20.364l.70709-.70709L21.85,15.14294A1.48523,1.48523,0,0,0,22,14.5Z"/><rect class="cls-2" width="32" height="32"/></svg>