<?xml version="1.0" encoding="UTF-8"?><svg id="icons" xmlns="http://www.w3.org/2000/svg" viewBox="0 0 24 24"><defs><style>.cls-1{fill:none;}.cls-1,.cls-2{stroke-width:0px;}</style></defs><rect class="cls-1" width="24" height="24"/><path class="cls-2" d="M3,17.5791v-6.24854c1.64313,1.09882,5.08203,1.66943,8.5,1.66943.16699,0,.33313-.00769.5-.01044v-.92566c-.1665.00287-.32941.00806-.5.00806-5.18848,0-8.5-1.34637-8.5-2.2243v-3.43622c1.64313,1.04572,5.08203,1.58856,8.5,1.58856s6.85687-.54285,8.5-1.58856v.25525l1,.33331v-2c0-1.96973-4.7793-3-9.5-3S2,3.03027,2,5v12.5791c0,1.64154,2.67511,2.74109,5.99902,3.1911v-.92865c-3.16034-.47363-4.99902-1.52557-4.99902-2.26245ZM11.5,2.92798c5.5,0,8.5,1.39331,8.5,2.07202s-3,2.06299-8.5,2.06299S3,5.67871,3,5s3-2.07202,8.5-2.07202ZM19.41309,8.47363l-6.41309,2.21973v4.76953l-4,1.37402v4.80566l4.58984,1.53027,7.41016-2.56055v-5.45312l3-1.02539v-4.13086l-4.58691-1.5293ZM19.41895,9.53027l2.52356.84094-4.38159,1.51562-2.52203-.84027,4.38007-1.5163ZM14,11.75513l3,.99951v3.7196l-3-1.00024v-3.71887ZM13.48145,16.35583l2.48895.82983-2.44501.83972-2.48932-.82977,2.44537-.83978ZM9.99902,17.90472l3.00098,1.00079v3.01611l-3.00098-.99976v-3.01715ZM20,14.44434v5.45508l-6,2.07306v-3.05206l4-1.37354v-4.75378l5-1.72949v2.35535l-3,1.02539Z"/></svg>