<?xml version="1.0" encoding="UTF-8"?><svg id="icons" xmlns="http://www.w3.org/2000/svg" viewBox="0 0 32 32"><defs><style>.cls-1{fill:none;}.cls-1,.cls-2{stroke-width:0px;}</style></defs><rect class="cls-1" width="32" height="32"/><path class="cls-2" d="M4,23.48926v-7.98645c2.03448,1.58099,6.87335,2.44,11.5,2.44.49884,0,1-.01196,1.5-.03174v-.87469c-.48663.01947-.98389.03241-1.5.03241-7.125,0-11.5-1.94965-11.5-3.24359v-5.22882c2.03448,1.50452,6.87335,2.40399,11.5,2.40399s9.46552-.89948,11.5-2.40399v4.07019l1,.33344v-6c0-2.5332-6.44043-4.00043-12.5-4.00043S3.009,4.4668,3.009,7c0,.03284-.009,16.48926-.009,16.48926,0,2.43115,4.79364,3.96875,10,4.34619v-.84857c-5.40997-.4151-9-2.12024-9-3.49762ZM15.5,3.91858c7.125,0,11.5,1.87048,11.5,3.08142s-4.375,3.08136-11.5,3.08136-11.5-1.87042-11.5-3.08136,4.375-3.08142,11.5-3.08142ZM25.7002,13.88867l-7.7002,2.57324v5.63281l-4,1.59961v5.50879l5.2998,1.7666,7.7002-2.56738v-6.43359l4-1.59961v-4.71387l-5.2998-1.7666ZM28.91962,16.01599l-5.6347,1.88336-3.21893-1.073,5.63422-1.883,3.21942,1.07263ZM19,17.5257l4,1.33337v4.55371l-4-1.33337v-4.55371ZM18.50677,22.96973l3.44147,1.14716-2.46973.98761-3.44208-1.14691,2.47034-.98785ZM15,24.66687l4.0025,1.33313h-.0025v3.81512l-4-1.3327v-3.81555ZM26,21.29102v6.39062l-6,2v-3.68164h-.06757l4.06757-1.62598v-5.65869l6-2.00543v2.98151l-4,1.59961Z"/></svg>