<?xml version="1.0" encoding="UTF-8"?><svg id="icons" xmlns="http://www.w3.org/2000/svg" viewBox="0 0 16 16"><defs><style>.cls-1{fill:none;}.cls-1,.cls-2{stroke-width:0px;}</style></defs><rect class="cls-1" width="16" height="16"/><path class="cls-2" d="M12.7002,6.33105l-4.7002,1.55908v2.92682l-2,.87024v2.99365l3.2998,1.09064,4.7002-1.56354v-2.88953l2-.6684v-3.21381l-3.2998-1.10516ZM12.7002,7.1748l1.52551.50848-2.71765.89032-1.6839-.45386,2.87604-.94495ZM9,8.72546l2,.539v2.06482l-2-.57855v-2.02527ZM9,14.82782l-2-.66669v-1.65796l2,.59955v1.7251ZM7.4928,11.83167l1.07684-.46857,2.11658.61365-1.25165.42169-1.94177-.56677ZM15,10.14349l-2,.65979v2.89203l-3,.99921v-1.67529l2-.68262v-3.08252l3-.98279v1.87219ZM1,10.47949v-3.57306c1.10126.67175,3.04523,1.07306,5.5,1.07306.17126,0,.33386-.00653.5-.01038v-.07849c0-.36713.20721-.68915.51923-.86359-.32642.01807-.65381.03595-1.01923.03595-3.83887,0-5.5-1.07666-5.5-1.5835v-1.57306c1.10126.67175,3.04523,1.09357,5.5,1.09357s4.39874-.42181,5.5-1.09357v1.242c0,.01056-.01166.02454-.01312.03558l.39594-.13226c.10352-.03418.20996-.05176.31738-.05176.10083,0,.20221.01837.2998.04907v-2.56958c0-1.49512-2.6123-2.47949-6.5-2.47949S0,.98438,0,2.47949v8c0,1.29315,1.9566,2.21814,5,2.44482v-.9184c-2.76727-.23657-4-1.09192-4-1.52643ZM6.5.92548c3.83887,0,5.5,1.04718,5.5,1.55402s-1.66113,1.5835-5.5,1.5835S1,2.98633,1,2.47949,2.66113.92548,6.5.92548Z"/></svg>