<?xml version="1.0" encoding="UTF-8"?><svg id="icons" xmlns="http://www.w3.org/2000/svg" viewBox="0 0 24 24"><defs><style>.cls-1{fill:none;}.cls-1,.cls-2{stroke-width:0px;}</style></defs><rect class="cls-1" width="24" height="24"/><path class="cls-2" d="m12.1134,20.22516l-.07043.77484h-2.08594l-.90918-10h3.9043l-.34131,3.75372c.31061-.51373.69128-.97858,1.13062-1.38306l.23853-2.62384,7.02002-6.01733v-2.72949H1v2.72949l7.02002,6.01733,1.02295,11.25317h3.91406l.01947-.21387c-.35773-.47339-.64929-.99731-.8631-1.56097ZM2,3h18v1H2v-1Zm6.68457,7L2.85107,5h16.29785l-5.8335,5h-4.63086Zm9.31543,3c-2.75702,0-5,2.24298-5,5s2.24298,5,5,5,5-2.24298,5-5-2.24298-5-5-5Zm0,9c-2.20538,0-4-1.79468-4-4s1.79462-4,4-4,4,1.79462,4,4-1.79462,4-4,4Zm2-4v1h-3v-4h1v3h2Z"/></svg>