<?xml version="1.0" encoding="UTF-8"?><svg id="icons" xmlns="http://www.w3.org/2000/svg" viewBox="0 0 32 32"><defs><style>.cls-1{fill:none;}.cls-1,.cls-2{stroke-width:0px;}</style></defs><rect class="cls-1" width="32" height="32"/><path class="cls-2" d="m15.2287,25.86401l-.16229,1.13599h-2.13281l-1.85742-13h5.84766l-.86182,6.0318c.34479-.60071.76154-1.15466,1.24469-1.64478l.66199-4.63434,9.03131-8.02808v-2.72461H1v2.72461l9.03131,8.02808,2.0351,14.24731h3.86719l.02875-.20129c-.32629-.60181-.56982-1.25287-.73364-1.93469ZM2,4h24v1H2v-1Zm.81519,2h22.36963l-7.87524,7h-6.61914L2.81519,6Zm20.18481,11.19824c-3.75537,0-6.79999,3.04364-6.79999,6.79999,0,3.75549,3.04462,6.79999,6.79999,6.79999,3.75629,0,6.79999-3.04449,6.79999-6.79999,0-3.75635-3.0437-6.79999-6.79999-6.79999Zm0,12.59998c-3.19867,0-5.79999-2.6012-5.79999-5.79974s2.60132-5.80023,5.79999-5.80023,5.79999,2.60168,5.79999,5.80023-2.60126,5.79974-5.79999,5.79974Zm3-4.79822h-4v-5h1v4h3v1Z"/></svg>