<?xml version="1.0" encoding="UTF-8"?><svg id="icons" xmlns="http://www.w3.org/2000/svg" viewBox="0 0 16 16"><defs><style>.cls-1{fill:none;}.cls-1,.cls-2{stroke-width:0px;}</style></defs><path class="cls-2" d="m7.10278,14h-.68774l-1.3125-7h3.79492l-.16461.87799c.35352-.2796.73267-.52618,1.15088-.71112l.07928-.42285,4.03699-4.03699v-1.70703H0v1.70703l4.03699,4.03699,1.54797,8.25598h2.06427c-.21716-.3111-.39972-.64581-.54645-1ZM1,2.29297v-.29297h12v.29297l-.70703.70703H1.70703l-.70703-.70703Zm1.70703,1.70703h8.58594l-2,2h-4.58594l-2-2Zm9.35095,4c-2.24115,0-4.05798,1.79083-4.05798,4,0,2.20905,1.81683,4,4.05798,4s3.94202-1.79095,3.94202-4c0-2.20917-1.70087-4-3.94202-4Zm-.05798,7c-1.65411,0-3-1.34589-3-3s1.34589-3,3-3,3,1.34589,3,3-1.34589,3-3,3Zm2-3v1h-3v-3h1v2h2Z"/><rect class="cls-1" width="16" height="16"/></svg>