<svg id="icons" xmlns="http://www.w3.org/2000/svg" viewBox="0 0 32 32"><defs><style>.cls-1{fill:none;}</style></defs><path d="M29,6V3H26V4H18V3H15V6h.02979L13.76508,8H14.948l1.26471-2H18V5h8V6h1V26H26v1H23v1h3v1h3V26H28V6ZM17,5H16V4h1ZM28,28H27V27h1ZM27,4h1V5H27ZM15,27v1H13V27Zm0,1h1v2H15Zm1-1h1.99994v1H16Zm0,0H15V25h1ZM9.25677,17H8.074l1.26471-2h1.1828ZM7.44165,18H8.62439L7.35968,20H6.17694Zm-.71436,3-1.2647,2H4.27991l1.26471-2ZM2.93317,27H5v1H2V26.60547L3.64758,24H4.8302ZM13.0509,11H11.868l1.26471-2h1.18292Zm-1.81518,1h1.18286l-1.26471,2H9.971ZM6,27H8v1H6Zm14,0h2v1H20ZM9,27h2v1H9Z"/><rect class="cls-1" width="32" height="32"/></svg>