<svg xmlns="http://www.w3.org/2000/svg" viewBox="0 0 16 16"><path d="M4 4v12h12V4zm11 11H5V5h10zM3 3v9H0V0h12v3zm3.9 7.1h-.8v.8h.8zm0 0h-.8v.8h.8zm2 0h-.8v.8h.8zm2 0h-.8v.8h.8zm-3 1h-.8v.8h.8zm0 0h-.8v.8h.8zm2 0h-.8v.8h.8zm2 0h-.8v.8h.8zm-5-3h-.8v.8h.8zm0 0h-.8v.8h.8zm2 0h-.8v.8h.8zm2 0h-.8v.8h.8zm-3 1h-.8v.8h.8zm0 0h-.8v.8h.8zm2 0h-.8v.8h.8zm2 0h-.8v.8h.8zm-5-3h-.8v.8h.8zm0 0h-.8v.8h.8zm2 0h-.8v.8h.8zm2 0h-.8v.8h.8zm-3 1h-.8v.8h.8zm0 0h-.8v.8h.8zm2 0h-.8v.8h.8zm2 0h-.8v.8h.8z"/><path fill="none" d="M0 0h16v16H0z"/></svg>