<?xml version="1.0" encoding="UTF-8"?><svg id="icons" xmlns="http://www.w3.org/2000/svg" viewBox="0 0 24 24"><defs><style>.cls-1{fill:none;opacity:.5;}</style></defs><path d="M2,2V22H22V2H2Zm19,15.19092l-3.5,1.75-3.5-1.75v-4.38184l3.5-1.75,3.5,1.75v4.38184Zm-11-7V5.80908l3.5-1.75,3.5,1.75v4.38184l-3.5,1.75-3.5-1.75Zm3,2.61816v4.38184l-3.5,1.75-3.5-1.75v-4.38184l3.5-1.75,3.5,1.75Zm5-2.61816V5.80908l3-1.5v7.38184l-3-1.5Zm3-7.19092v.19092l-3.5,1.75-3.5-1.75v-.19092h7Zm-8,0v.19092l-3.5,1.75-3.5-1.75v-.19092h7ZM3,3h2v.19092l-2,1v-1.19092Zm0,2.30908l2.5-1.25,3.5,1.75v4.38184l-3.5,1.75-2.5-1.25V5.30908Zm0,6.5l2,1v4.38184l-2,1v-6.38184Zm0,9.19092v-1.69092l2.5-1.25,3.5,1.75v1.19092H3Zm7,0v-1.19092l3.5-1.75,3.5,1.75v1.19092h-7Zm8,0v-1.19092l3-1.5v2.69092h-3Z"/><rect class="cls-1" width="24" height="24"/></svg>