<?xml version="1.0" encoding="UTF-8"?><svg id="icons" xmlns="http://www.w3.org/2000/svg" viewBox="0 0 16 16"><defs><style>.cls-1{fill:none;opacity:.5;}</style></defs><path d="M1,1V15H15V1H1ZM7,7.2323v-2.4646l2.5-1.66663,2.5,1.66663v2.4646l-2.5,1.66663-2.5-1.66663Zm2,2.5354v2.4646l-2.5,1.66663-2.5-1.66663v-2.4646l2.5-1.66663,2.5,1.66663Zm0-7.5354l-2.5,1.66663-2.5-1.66663v-.2323h5v.2323Zm-3,2.5354v2.4646l-2.5,1.66663-1.5-.99994v-3.79797l1.5-.99994,2.5,1.66663Zm-3,5v2.4646l-1,.66669v-3.79797l1,.66669Zm.5,3.33337l1.34851,.89893H2.15149l1.34851-.89893Zm6,0l1.34851,.89893h-2.69702l1.34851-.89893Zm3,.79785l-2.5-1.66663v-2.4646l2.5-1.66663,1.5,.99994v3.79797l-1.5,.99994Zm.5-6.66663v-2.4646l1-.66669v3.79797l-1-.66669Zm1-4.33331l-1.5,.99994-2.5-1.66663v-.2323h4v.89899ZM3,2v.2323l-1,.66669v-.89899h1Z"/><rect class="cls-1" width="16" height="16"/></svg>