<?xml version="1.0" encoding="UTF-8"?><svg id="icons" xmlns="http://www.w3.org/2000/svg" viewBox="0 0 32 32"><defs><style>.cls-1{fill:none;opacity:.5;}</style></defs><path d="M3,3V29H29V3H3ZM28,22.2168l-4.5,2.70001-4.5-2.70001v-4.43359l4.5-2.70001,4.5,2.70001v4.43359ZM6.25,15.56689l-2.25-1.3501v-4.43359l4.5-2.70001,4.5,2.70001v4.43359l-4.5,2.70001-2.25-1.34991Zm1.75,2.21631v4.43359l-4,2.40002V15.38318l4,2.40002ZM18,6.2168l-4.5,2.70001-4.5-2.70001v-2.2168h9v2.2168Zm.5,.86639l4.5,2.70001v4.43359l-4.5,2.70001-4.5-2.70001v-4.43359l4.5-2.70001Zm-9.5,10.70001l4.5-2.70001,4.5,2.70001v4.43359l-4.5,2.70001-4.5-2.70001v-4.43359Zm5,8l4.5-2.70001,4.5,2.70001v2.2168H14v-2.2168Zm10-11.56641v-4.43359l4-2.40002v9.23364l-4-2.40002Zm4-8l-4.5,2.70001-4.5-2.70001v-2.2168h9v2.2168ZM8,4v2.2168l-4,2.40002V4h4ZM4,25.7832l4.5-2.70001,4.5,2.70001v2.2168H4v-2.2168Zm20,2.2168v-2.2168l4-2.40002v4.61682h-4Z"/><rect class="cls-1" width="32" height="32"/></svg>