<svg xmlns="http://www.w3.org/2000/svg" viewBox="0 0 32 32"><path d="M16.646 11.646l-2.254-2.254a4.704 4.704 0 00-1.363-3.07l-1-1a4.75 4.75 0 00-6.718 6.717l1 1a4.712 4.712 0 003.091 1.363l2.247 2.247a7.244 7.244 0 01-7.106-1.842l-1-1A7.25 7.25 0 1113.796 3.554l1 1A7.2 7.2 0 0116.92 9.68a7.277 7.277 0 01-.274 1.966zm12.12 6.967l-1-1a7.25 7.25 0 00-7.017-1.864l2.28 2.28A4.706 4.706 0 0126 19.381l1 1a4.75 4.75 0 11-6.718 6.718l-1-1a4.71 4.71 0 01-1.375-3.193l-2.22-2.22a7.277 7.277 0 00-.296 2.054 7.2 7.2 0 002.124 5.126l1 1a7.25 7.25 0 0010.253-10.253zM19.47 11.47l1.06 1.06.5-.5L23 14h4v-2h-5.94l3.47-3.47-1.06-1.06L20 10.94V5h-2v4l1.97 1.97zm-6.94 9.06l-1.06-1.06-.5.5L9 18H5v2h5.94l-3.47 3.47 1.06 1.06L12 21.06V27h2v-4l-1.97-1.97z"/></svg>