<svg id="icons" xmlns="http://www.w3.org/2000/svg" viewBox="0 0 32 32"><path d="M26,20.1535V21H17v9.09052l-.5,1-.5-1V21.82819L17.82831,20h7.16778a2.75245,2.75245,0,0,0-1.52685-2.32373L22.11646,17h-1.288l1.17487-1.1748,1.91259.95629A3.77,3.77,0,0,1,26,20.1535ZM5.47919,30.22791l-.35352-.35358-.35358-.35352L13.29291,21H7v-.8465a3.77,3.77,0,0,1,2.084-3.372l2.15124-1.07562,1.6471-8.47058L10.03961,5.68463A1.99487,1.99487,0,0,1,9,3.93335V3H24v.93335a1.99487,1.99487,0,0,1-1.03961,1.75128L20.11761,7.23529l1.12977,5.81018L29.52081,4.772l.35358.35358.35352.35358ZM10.51855,4.80664,12.70575,6h7.5885l2.1872-1.19336A.99351.99351,0,0,0,22.99756,4H10.00244A.99351.99351,0,0,0,10.51855,4.80664ZM12.197,16h6.09583l2.10162-2.10156L19.05334,7H13.94666Zm2.09589,4,2.99994-3H10.88354l-1.35278.67627A2.75245,2.75245,0,0,0,8.00391,20Z"/><path fill="none" d="M0 0h32v32H0z"/></svg>