<svg id="icons" xmlns="http://www.w3.org/2000/svg" viewBox="0 0 24 24"><path d="M20,14.274V15H13v7l-.5,1L12,22V15.82837L13.82837,14h5.16235c-.05078-.64941-.332-.856-1.33252-1.51514L16.92938,12h-1.101l1.16095-1.16095.92657.61768C19.218,12.32477,20,12.70911,20,14.274ZM22.39948,3.30762,3.30762,22.39948l-.7071-.7071L9.29291,15H5v-.726c0-1.56488.782-1.94922,2.08411-2.81726l1.14666-.76441L10,4,8.47815,3.57068A2.029,2.029,0,0,1,7,1.61786V1H18v.61786a2.029,2.029,0,0,1-1.47815,1.95282L15,4l1.10669,4.18622,5.58569-5.58576ZM10.13794,3h4.72412l1.38843-.3916A1.033,1.033,0,0,0,16.92578,2H8.07422a1.033,1.033,0,0,0,.67529.6084ZM9.1842,11h4.10865l1.99548-1.99548L13.96552,4h-2.931Zm1.10871,3,1.99994-2H8.07062l-.72882.48486C6.34131,13.144,6.06006,13.35059,6.00928,14Z"/><path fill="none" d="M0 0h24v24H0z"/></svg>