<svg id="icons" xmlns="http://www.w3.org/2000/svg" viewBox="0 0 16 16"><path d="M14,8.80383V10H9.82843l.99994-1H13V8.80371a.49657.49657,0,0,0-.31885-.46582l-.8573-.33337.77259-.77259.4472.17389A1.5,1.5,0,0,1,14,8.80383ZM8,15l.5,1L9,15V10.82843L8,11.82849ZM15.92462,1.78247,1.78247,15.92462l-.70709-.70709L6.29291,10H3V8.80383a1.5,1.5,0,0,1,.95636-1.398L5,7,6.037,3,4.26642,1.25641A.51121.51121,0,0,1,4,.80762V0h9V.80762a.51121.51121,0,0,1-.26642.44879L10.963,3l.47968,1.85022,3.77484-3.77484ZM6.447,2H10.553l1.01532-1H5.43164ZM6.033,7H9.29291l1.3294-1.32941L9.92987,3H7.07013ZM7.29291,9l1-1H5.18768l-.86883.33789A.49657.49657,0,0,0,4,8.80371V9Z"/><path fill="none" d="M0 0h16v16H0z"/></svg>