<svg id="icons" xmlns="http://www.w3.org/2000/svg" viewBox="0 0 24 24"><path d="M21,3H10V2H22V22H18V21h3V9a10.69852,10.69852,0,0,0-6.25214,1.96069c-.15362-.24933-.34906-.543-.5581-.83789A11.73042,11.73042,0,0,1,21,8ZM2,2V4H3V3H4V2H2ZM6,22H8V21H6Zm5,0h2V21H11ZM3,6H2V8H3Zm0,5H2v2H3Zm0,5H2v2H3Zm0,4H2v2H4V21H3ZM7.06738,4.0459l.9961-.08985C8,3,8,3,8,2H6V3H7v.02246C7.0166,3.38379,7.03809,3.72266,7.06738,4.0459Zm6.77344,10.168a13.60418,13.60418,0,0,0-.59473-1.81055l-.08789-.21-.91406.40625.07324.17383a12.67711,12.67711,0,0,1,.55274,1.67871Zm.30664,2.0957-.99609.0918c.01562.165.03125.3291.05273.49707a6.75839,6.75839,0,0,0,.41309,1.63086l.93164-.36524a5.7475,5.7475,0,0,1-.35254-1.39453C14.17676,16.61523,14.16113,16.46289,14.14746,16.30957Zm-6.751-10.168A7.701,7.701,0,0,0,8.169,8.17676l.86914-.49414a6.72609,6.72609,0,0,1-.669-1.77344Zm4.46973,4.23731a11.44909,11.44909,0,0,0-.98926-.80176c-.21093-.1582-.42383-.31738-.63183-.49024l-.63867.76954c.22167.18359.44628.35253.67089.5205a10.74667,10.74667,0,0,1,.90723.73243Zm3.584,9.59179-.88868.457c.13477.2627.27442.55079.417.876L15.28381,22H16.541L16,21S15.59473,20.251,15.4502,19.9707Z"/><path fill="none" d="M0 0h24v24H0z"/></svg>