<svg id="icons" xmlns="http://www.w3.org/2000/svg" viewBox="0 0 32 32"><path d="M9,4H7V3H9Zm2.74414,5.3252.96094-.2754a15.77628,15.77628,0,0,1-.42871-2.05761l-.99024.14453A16.77136,16.77136,0,0,0,11.74414,9.3252Zm-.6875-4.39161.99805-.0664c-.02112-.31085-.04486-.62244-.05469-.97193S12,3,12,3H11s-.011.63489,0,1S11.0368,4.63593,11.05664,4.93359ZM9,28H7v1H9Zm4,0H11v1h2Zm4.13184-9.4375a12.05025,12.05025,0,0,1,.36718,2.05371l.9961-.09766a12.98765,12.98765,0,0,0-.39844-2.21777Zm2.53222,8.25293-.93945.34375c.10742.293.22949.6084.36914.9502.12628.30914.28656.59362.42987.89062h1.06006l.0083-.01208q-.31037-.61-.57245-1.2555C19.88574,27.40234,19.76758,27.09863,19.66406,26.81543ZM4,7H3V9H4ZM17.73926,22.78809c.10937.85253.19726,1.50781.34082,2.18554l.97851-.207c-.13574-.64062-.22168-1.27734-.32714-2.10547ZM15,29h2V28H15Zm.44531-14.2041a7.9078,7.9078,0,0,1,1.001,1.77051l.92383-.38086a8.8349,8.8349,0,0,0-1.12793-1.99317Zm-2.82617-3.3584a9.10183,9.10183,0,0,0,1.40625,1.7998l.71875-.69531a8.0053,8.0053,0,0,1-1.25976-1.60644ZM4,19H3v2H4ZM3,3V5H4V4H5V3H3ZM4,23H3v2H4ZM13.99854,3c-.00116.26227-.01331.5224-.00147.78711.0033.074.0083.14032.0119.21289H28V9.97046a14.11817,14.11817,0,0,0-9.55347,3.942c.17676.29377.33625.60737.48841.92542A13.02006,13.02006,0,0,1,28,10.97119V28H22.28552l.337.832c.02356.05823.05578.11017.08.168H29V3ZM4,15H3v2H4Zm0-4H3v2H4ZM4,27H3v2H5V28H4Z"/><path fill="none" d="M0 0h32v32H0z"/></svg>