<svg id="icons" xmlns="http://www.w3.org/2000/svg" viewBox="0 0 16 16"><path d="M14,14V6.02582a6.87369,6.87369,0,0,0-3.739,1.67041l-.2649-.63666c-.053-.12738-.1043-.22986-.15631-.342A7.952,7.952,0,0,1,14,5.01819V2H8V1h7V15H12V14ZM5,1V2H6.00751q.0434.52515.097.95508l.99219-.125c-.0354-.2843-.067-.60254-.09668-.95435V1ZM8.124,5.78418a4.43053,4.43053,0,0,1-.56836-.94531l-.92187.38867a5.42787,5.42787,0,0,0,.67969,1.14355,7.4692,7.4692,0,0,1,.50586.76661l.87109-.49024A8.57686,8.57686,0,0,0,8.124,5.78418Zm.83008,5.41016.97656-.21289c-.07031-.32422-.11035-.60938-.15039-.89454A10.73547,10.73547,0,0,0,9.542,8.80273l-.96875.252a9.547,9.547,0,0,1,.2168,1.1709C8.834,10.53516,8.877,10.84375,8.9541,11.19434ZM11,13.75433c-.14276-.28558-.26746-.5476-.377-.79046l-.91211.41211c.086.18994.19482.4096.29974.624H9v1h2ZM2,5H1V7H2ZM1,11H2V9H1Zm2,4V14H2V13H1v2H3Zm2,0H7V14H5ZM1,2V3H2V2H3V1H1Z"/><path fill="none" d="M0 0h16v16H0z"/></svg>