<svg id="icons" xmlns="http://www.w3.org/2000/svg" viewBox="0 0 32 32"><path d="M31 16.704C31 20.308 28.13 23 25.562 23H22v-1h3.562C27.372 22 30 19.937 30 16.704a5.561 5.561 0 0 0-3.742-5.287l-.872-.297-.13-.911A8.153 8.153 0 0 0 17.462 3a7.848 7.848 0 0 0-6.859 4.294l-.556 1.045-1.146-.298a3.683 3.683 0 0 0-.923-.135 3.105 3.105 0 0 0-3.224 2.956l-.046.86-.765.394A5.37 5.37 0 0 0 1 16.897C1 19.521 3.157 22 5.437 22H9v1H5.437C2.592 23 0 20.092 0 16.897a6.369 6.369 0 0 1 3.486-5.67l.255-.131.016-.287a4.128 4.128 0 0 1 4.222-3.903 4.61 4.61 0 0 1 1.175.168l.382.099.185-.349A8.845 8.845 0 0 1 17.463 2a9.157 9.157 0 0 1 8.782 8.068l.044.304.29.099A6.559 6.559 0 0 1 31 16.704zM16 30V14.707l2.646 2.646.707-.707-3.853-3.853-3.854 3.854.707.707L15 14.707V30z"/></svg>