<svg id="icons" xmlns="http://www.w3.org/2000/svg" viewBox="0 0 24 24"><defs><style>.cls-1{fill:none;}</style></defs><path d="M11.99982,10.76483a4.8,4.8,0,1,0-4.8-4.8A4.80526,4.80526,0,0,0,11.99982,10.76483Zm0-8.59979A3.79981,3.79981,0,1,1,8.2,5.96484,3.80411,3.80411,0,0,1,11.99982,2.165ZM17,15h2v1H17Zm5,0v1h1v1H13V16h1V15H12v9H24V15Zm1,8H13V18H23Zm-8-7V14h1v2Zm6,0H20V14h1ZM5,21h6v1H4l.009-4.5A5.49918,5.49918,0,0,1,9.5,12h5a5.46435,5.46435,0,0,1,3.152,1H9.5A4.50491,4.50491,0,0,0,5,17.5Z"/><rect class="cls-1" width="24" height="24"/></svg>