<svg xmlns="http://www.w3.org/2000/svg" viewBox="0 0 24 24"><path d="M11 4a3 3 0 10-3 3 3 3 0 003-3zM8.001 6A2 2 0 1110 4a2 2 0 01-1.999 2zM10 10h1v.921a3.23 3.23 0 00-1 2.329zm0 8.5a2.487 2.487 0 00.055.5H5.75a.75.75 0 01-.75-.75V16h-.5A1.5 1.5 0 013 14.5V9.25A2.25 2.25 0 015.25 7h5.5a2.232 2.232 0 011.308.426A3.95 3.95 0 0012 8a3.96 3.96 0 00.593 2.067 3.21 3.21 0 00-.593.189V9.25A1.251 1.251 0 0010.75 8h-5.5A1.251 1.251 0 004 9.25v5.25a.5.5 0 00.5.5H5v-5h1v8h4zM19 8a3 3 0 10-3 3 3 3 0 003-3zm-2.999 2A2 2 0 1118 8a2 2 0 01-1.999 2zm2.749 1h-5.5A2.25 2.25 0 0011 13.25v5.25a1.5 1.5 0 001.5 1.5h.5v2.25a.75.75 0 00.75.75h4.5a.75.75 0 00.75-.75V20h.5a1.5 1.5 0 001.5-1.5v-5.25A2.25 2.25 0 0018.75 11zM20 18.5a.5.5 0 01-.5.5H19v-5h-1v8h-4v-8h-1v5h-.5a.5.5 0 01-.5-.5v-5.25A1.251 1.251 0 0113.25 12h5.5A1.251 1.251 0 0120 13.25z"/></svg>