<svg xmlns="http://www.w3.org/2000/svg" viewBox="0 0 32 32"><path d="M15 14.556a3.998 3.998 0 00-1 .826V13h1zM13 25v-1H8V13H7v7H6a1 1 0 01-1-1v-7a2 2 0 012-2h8a1.984 1.984 0 011.067.314 5.358 5.358 0 01.246-1A2.968 2.968 0 0015 9H7a3 3 0 00-3 3v7a2 2 0 002 2h1v3a1 1 0 001 1h5zM11 9a4 4 0 114-4 4 4 0 01-4 4zm3-4a3 3 0 10-2.998 3A3 3 0 0014 5zm.9 16.25v3.171A.985.985 0 0015 24v-2.75zM21 15a4 4 0 114-4 4 4 0 01-4 4zm3-4a3 3 0 10-2.998 3A3 3 0 0024 11zm4 7v7a2 2 0 01-2 2h-1v3a1 1 0 01-1 1h-6a1 1 0 01-1-1v-3h-1a2 2 0 01-2-2v-7a3 3 0 013-3h8a3 3 0 013 3zm-1 0a2 2 0 00-2-2h-8a2 2 0 00-2 2v7a1 1 0 001 1h1v-7h1v11h6V19h1v7h1a1 1 0 001-1z"/></svg>