<?xml version="1.0" encoding="UTF-8"?><svg id="icons" xmlns="http://www.w3.org/2000/svg" viewBox="0 0 32 32"><defs><style>.cls-1{fill:none;}.cls-1,.cls-2{stroke-width:0px;}</style></defs><path class="cls-2" d="M26.5,10c.9649,0,1.83948-.39264,2.47278-1.02655.63318-.63373,1.02521-1.50867,1.02521-2.47345s-.39203-1.83972-1.02521-2.47351c-.6333-.63385-1.50787-1.02649-2.47278-1.02649-.96484,0-1.83984.39258-2.47363,1.02637s-1.02637,1.50879-1.02637,2.47363.39258,1.83984,1.02637,2.47363c.20294.20294.43774.37.68524.51855l-.65167,1.56445c-.18341-.02985-.36816-.05664-.55994-.05664-.96484,0-1.83984.39258-2.47363,1.02637-.5213.5213-.86511,1.21014-.97583,1.97363h-2.10107c-.11072-.76349-.45453-1.45233-.97583-1.97363-.63379-.63379-1.50879-1.02637-2.47363-1.02637s-1.83984.39258-2.47363,1.02637-1.02637,1.50879-1.02637,2.47363c0,.53833.13226,1.04266.3504,1.49878l-3.25873,2.17249c-.04175-.04651-.07477-.10059-.1189-.14478-.16168-.1618-.33905-.30792-.52966-.43573-.18921-.12695-.39148-.2359-.60425-.3244-.20929-.08704-.42883-.15436-.65619-.19952-.05908-.01172-.12256-.00916-.18268-.01788v-7.09949c.76343-.11072,1.45184-.45459,1.97278-.97601.63318-.63373,1.02521-1.50867,1.02521-2.47345s-.39203-1.83972-1.02521-2.47351c-.6333-.63385-1.50787-1.02649-2.47278-1.02649-.96484,0-1.83984.39258-2.47363,1.02637s-1.02637,1.50879-1.02637,2.47363.39258,1.83984,1.02637,2.47363c.5213.5213,1.21014.86511,1.97363.97583v7.09955c-.06018.00873-.12366.00616-.1828.01788-.22748.04517-.44702.11243-.65637.19946-.21289.0885-.41522.19745-.60449.32434-.19073.12781-.36823.27386-.52997.43567-.16174.16174-.3078.33923-.43567.52991-.12689.18933-.23584.39166-.32434.60455-.08704.20935-.1543.42889-.19946.65631-.04388.22095-.06689.44928-.06689.68286s.02301.46191.06689.6828c.04517.22742.11243.44702.19946.65637.0885.21289.19745.41516.32434.60449.12787.19067.27393.36816.43567.52997.16174.16174.33923.3078.52997.43567.18927.12689.3916.23584.60449.32434.20935.08704.42889.1543.65637.19946.05914.01172.12262.00916.1828.01788v6.04901h1v-6.04901c.06012-.00873.1236-.00616.18268-.01788.22736-.04517.4469-.11243.65619-.19946.21277-.0885.41504-.19751.60425-.3244.19061-.12787.36798-.27393.52966-.43579.16162-.16174.30756-.33929.4353-.53003.12677-.18927.23553-.3916.32397-.60449.08691-.20935.15405-.42889.19916-.65625.04382-.22089.06677-.44916.06677-.68268,0-.23358-.02295-.46185-.06677-.68268-.0451-.22742-.11224-.44696-.19916-.65631-.02313-.05573-.0589-.10406-.08484-.15826l3.26007-2.1734c.04175.04639.07495.10016.11908.14429.5213.5213,1.21014.86511,1.97363.97583v5.10107c-.76349.11072-1.45233.45453-1.97363.97583-.63379.63379-1.02637,1.50879-1.02637,2.47363s.39258,1.83984,1.02637,2.47363,1.50879,1.02637,2.47363,1.02637c.9649,0,1.83948-.39264,2.47278-1.02655.63318-.63373,1.02521-1.50867,1.02521-2.47345s-.39203-1.83972-1.02521-2.47351c-.52094-.52136-1.20935-.86523-1.97278-.97595v-5.10107c.76349-.11072,1.45233-.45453,1.97363-.97583s.86511-1.21014.97583-1.97363h2.10107c.11072.76349.45453,1.45233.97583,1.97363.60773.60773,1.43994.98401,2.35779,1.01465l.82764,3.36591c-.42084.17255-.8009.42377-1.11737.7403-.61566.6156-.9964,1.46606-.9964,2.40552,0,.93939.38074,1.78992.9964,2.40552.6156.61566,1.46613.9964,2.40552.9964.93958,0,1.78918-.38086,2.40387-.99664.6145-.6156.9942-1.466.9942-2.40527s-.3797-1.78967-.9942-2.40527c-.61469-.61578-1.46429-.9967-2.40387-.9967-.10754,0-.20898.02191-.31403.03168l-.8009-3.25714c.6076-.16003,1.15637-.46729,1.58777-.89911.63318-.63373,1.02521-1.50867,1.02521-2.47345s-.39203-1.83972-1.02521-2.47351c-.27509-.27533-.60236-.4942-.95612-.66608l.61755-1.48187c.2785.07159.56531.12146.86578.12146ZM3,6.5c0-.68945.28027-1.31445.73291-1.76709s1.07764-.73291,1.76709-.73291,1.31445.28027,1.76709.73291.73291,1.07764.73291,1.76709-.28027,1.31445-.73291,1.76709-1.07764.73291-1.76709.73291-1.31445-.28027-1.76709-.73291-.73291-1.07764-.73291-1.76709ZM7.95227,20.98773c-.03223.16248-.08026.31934-.1424.46893-.06317.15204-.14099.29657-.23163.43182-.09125.13623-.19562.263-.31116.3786-.11554.11554-.24237.21985-.3786.31116-.13519.09064-.27972.1684-.43182.23163-.14954.06213-.3064.11017-.46887.1424-.15784.03131-.32092.04773-.48779.04773s-.32996-.01642-.48779-.04773c-.16248-.03223-.31934-.08026-.46887-.1424-.1521-.06323-.29663-.14099-.43182-.23163-.13623-.09131-.26306-.19562-.3786-.31116-.11554-.1156-.21991-.24237-.31116-.3786-.09064-.13525-.16846-.27979-.23163-.43182-.06213-.1496-.11017-.30646-.1424-.46893-.03131-.15778-.04773-.32086-.04773-.48773s.01642-.33002.04773-.48779c.03223-.16248.08026-.31934.1424-.46887.06317-.1521.14099-.29663.23163-.43188.09125-.13623.19562-.263.31116-.37854.11554-.1156.24237-.21991.3786-.31122.13519-.09058.27972-.1684.43182-.23157.14954-.06213.3064-.11017.46887-.1424.15784-.03131.32092-.04773.48779-.04773s.32996.01642.48779.04773c.16248.03223.31934.08026.46887.1424.1521.06317.29663.14099.43182.23157.13623.09131.26306.19562.3786.31122.11554.11554.21991.24231.31116.37854.09064.13525.16846.27979.23163.43188.06213.14954.11017.3064.1424.46887.03131.15778.04773.32092.04773.48779s-.01642.32996-.04773.48773ZM27.2182,22.78174c.43976.43976.71173,1.04724.71173,1.71826s-.27197,1.2785-.71173,1.71826c-.43976.4397-1.04724.71167-1.71826.71167s-1.2785-.27197-1.7182-.71167c-.43976-.43976-.71173-1.04724-.71173-1.71826s.27197-1.2785.71173-1.71826c.4397-.4397,1.04718-.71173,1.7182-.71173s1.2785.27203,1.71826.71173ZM17,26.5c0,.68945-.28027,1.31445-.73291,1.76709s-1.07764.73291-1.76709.73291-1.31445-.28027-1.76709-.73291-.73291-1.07764-.73291-1.76709.28027-1.31445.73291-1.76709,1.07764-.73291,1.76709-.73291,1.31445.28027,1.76709.73291.73291,1.07764.73291,1.76709ZM16.26709,16.26709c-.45264.45264-1.07764.73291-1.76709.73291s-1.31445-.28027-1.76709-.73291-.73291-1.07764-.73291-1.76709.28027-1.31445.73291-1.76709,1.07764-.73291,1.76709-.73291,1.31445.28027,1.76709.73291.73291,1.07764.73291,1.76709-.28027,1.31445-.73291,1.76709ZM26,14.5c0,.68945-.28027,1.31445-.73291,1.76709s-1.07764.73291-1.76709.73291-1.31445-.28027-1.76709-.73291-.73291-1.07764-.73291-1.76709.28027-1.31445.73291-1.76709,1.07764-.73291,1.76709-.73291,1.31445.28027,1.76709.73291.73291,1.07764.73291,1.76709ZM24,6.5c0-.68945.28027-1.31445.73291-1.76709s1.07764-.73291,1.76709-.73291,1.31445.28027,1.76709.73291.73291,1.07764.73291,1.76709-.28027,1.31445-.73291,1.76709-1.07764.73291-1.76709.73291-1.31445-.28027-1.76709-.73291-.73291-1.07764-.73291-1.76709Z"/><rect class="cls-1" width="32" height="32"/></svg>