<?xml version="1.0" encoding="UTF-8"?><svg id="icons" xmlns="http://www.w3.org/2000/svg" viewBox="0 0 16 16"><defs><style>.cls-1{fill:none;}.cls-1,.cls-2{stroke-width:0px;}</style></defs><path class="cls-2" d="M14.5,3c.82843,0,1.5-.67157,1.5-1.5s-.67157-1.5-1.5-1.5-1.5.67157-1.5,1.5c0,.3623.13361.69012.34747.9494l-1.54865,2.58069c-.09662-.01953-.19647-.03009-.29883-.03009-.65216,0-1.2016.41876-1.4082,1h-2.18359c-.2066-.58124-.75604-1-1.4082-1-.82843,0-1.5.67157-1.5,1.5,0,.10248.01056.20239.03015.29907l-2.58075,1.54846c-.13318-.10986-.28357-.19678-.4494-.25574V2.9082c.58124-.2066,1-.75604,1-1.4082,0-.82843-.67157-1.5-1.5-1.5S0,.67157,0,1.5c0,.65216.41876,1.2016,1,1.4082v5.18359c-.58124.2066-.991.75604-.991,1.4082s.40976,1.2016.991,1.4082v4.0918h1v-4.0918c.58124-.2066.991-.75604.991-1.4082,0-.10242-.00156-.20239-.02115-.29907l2.58075-1.54846c.13312.1098.28357.19678.4494.25574v5.18359c-.58124.2066-.991.75604-.991,1.4082,0,.82843.66257,1.5,1.491,1.5s1.491-.67157,1.491-1.5c0-.65216-.40976-1.2016-.991-1.4082v-5.18359c.42413-.15076.75745-.48407.9082-.9082h2.18359c.20355.57263.74036.98499,1.37994.99713l1.10858,3.32587c-.04803.0376-.0979.07324-.14099.11633-.27142.27142-.43033.64642-.43033,1.06067,0,.41418.15891.78918.43033,1.06067.27148.27142.64648.43933,1.06067.43933.41425,0,.78925-.16791,1.06067-.43933.27142-.27148.43033-.64648.43033-1.06067,0-.41425-.15891-.78925-.43033-1.06067-.26508-.26508-.62964-.42883-1.03235-.43646l-1.10858-3.32587c.35077-.27454.58026-.69702.58026-1.177,0-.36224-.13361-.69-.34735-.94922l1.54834-2.58093c.09662.01953.19659.03015.29901.03015ZM1,1.5v-.5h1v1h-1v-.5ZM2,9.5v.5h-1v-1h1v.5ZM7,14.5v.5h-1v-1h1v.5ZM7,6.5v.5h-1v-1h1v.5ZM14,1.5v-.5h1v1h-1v-.5ZM11,6.5v-.5h1v1h-1v-.5ZM14,12.5v.5h-1v-1h1v.5Z"/><rect class="cls-1" width="16" height="16"/></svg>