<?xml version="1.0" encoding="UTF-8"?><svg id="icons" xmlns="http://www.w3.org/2000/svg" viewBox="0 0 24 24"><defs><style>.cls-1{fill:none;}.cls-1,.cls-2{stroke-width:0px;}</style></defs><path class="cls-2" d="M22.26599,16.73401c-.45197-.45197-1.07635-.73151-1.76599-.73151-.06793,0-.13177.01465-.1983.01996l-.92645-3.19116c.3363-.1264.64142-.31598.89075-.56531.45197-.45197.73151-1.07635.73151-1.76599,0-.6897-.27954-1.31409-.73151-1.76599-.15332-.15332-.33228-.27771-.52112-.38721l.45892-1.37665c.09833.01178.19476.02985.2962.02985.69073,0,1.31348-.28015,1.76349-.73297.44946-.45233.7265-1.07703.7265-1.76703s-.27704-1.3147-.7265-1.76709c-.45001-.45282-1.07275-.73291-1.76349-.73291-.69037,0-1.31537.27979-1.76776.73224-.45239.45239-.72324,1.07739-.72324,1.76776s.27085,1.31537.72324,1.76776c.15363.15363.33282.2782.52203.38782l-.4588,1.37671c-.09808-.01172-.19427-.02979-.29547-.02979-.6897,0-1.31403.27954-1.76599.73151-.33972.33972-.58173.77692-.68115,1.26599h-2.10327c-.09943-.48975-.34167-.92761-.68182-1.26776-.45239-.45245-1.07739-.73224-1.76776-.73224s-1.31537.27979-1.76776.73224c-.45239.45239-.73224,1.07739-.73224,1.76776,0,.27234.0545.52972.13501.77515l-2.76776,1.58154c-.0351-.03979-.06378-.08521-.10126-.12268-.33972-.33972-.77698-.58167-1.26599-.68109v-5.10577c.48907-.09943.92627-.34143,1.26599-.68115.45197-.45197.73151-1.07635.73151-1.76599,0-.6897-.27954-1.31409-.73151-1.76599-.45197-.45197-1.07635-.73151-1.76599-.73151-.6897,0-1.31403.27954-1.76599.73151s-.73151,1.07629-.73151,1.76599c0,.68964.27954,1.31403.73151,1.76599.33972.33972.77698.58167,1.26599.68109v5.10577c-.48907.09943-.92627.34143-1.26599.68115-.45197.45197-.73151,1.07629-.73151,1.76599,0,.68964.27954,1.31403.73151,1.76599.33972.33972.77698.58167,1.26599.68109v4.05292h1v-4.05286c.48907-.09943.92627-.34143,1.26599-.68115.45197-.45197.73151-1.07635.73151-1.76599,0-.27191-.05438-.52881-.1347-.77386l2.76776-1.5816c.03522.03998.06403.08557.10168.12323.34015.34015.77802.5824,1.26776.68182v4.10327c-.48907.09943-.92627.34143-1.26599.68115-.45197.45197-.73151,1.07629-.73151,1.76599,0,.68964.27954,1.31403.73151,1.76599s1.07635.73151,1.76599.73151c.6897,0,1.31403-.27954,1.76599-.73151s.73151-1.07635.73151-1.76599c0-.6897-.27954-1.31409-.73151-1.76599-.33972-.33972-.77698-.58167-1.26599-.68109v-4.10333c.48975-.09943.92761-.34167,1.26776-.68182s.5824-.77802.68182-1.26776h2.10333c.09943.48901.34137.92627.68109,1.26599.42456.42456,1.00391.68768,1.64392.71918l.96252,3.31531c-.22205.11737-.43036.25745-.60645.43353-.45197.45197-.73151,1.07629-.73151,1.76599,0,.68964.27954,1.31403.73151,1.76599s1.07635.73151,1.76599.73151c.6897,0,1.31403-.27954,1.76599-.73151s.73151-1.07635.73151-1.76599c0-.6897-.27954-1.31409-.73151-1.76599ZM19.43982,3.43976c.27161-.27155.64661-.43976,1.06018-.43976s.78857.16821,1.06018.43976c.27161.27161.43982.64661.43982,1.06024,0,.41357-.16821.78857-.43982,1.06018s-.64661.43982-1.06018.43982-.78857-.16821-1.06018-.43982-.43082-.64661-.43082-1.06018c0-.41364.15921-.78864.43082-1.06024ZM3,4.5c0-.41364.16821-.78864.43982-1.06024.27161-.27155.64661-.43976,1.06018-.43976s.78857.16821,1.06018.43976c.27161.27161.43982.64661.43982,1.06024,0,.41357-.16821.78857-.43982,1.06018s-.64661.43982-1.06018.43982-.78857-.16821-1.06018-.43982-.43982-.64661-.43982-1.06018ZM5.56018,15.56018c-.27161.27161-.64661.43982-1.06018.43982s-.78857-.16821-1.06018-.43982-.43982-.64661-.43982-1.06018c0-.41364.16821-.78864.43982-1.06024.27161-.27155.64661-.43976,1.06018-.43976s.78857.16821,1.06018.43976c.27161.27161.43982.64661.43982,1.06024,0,.41357-.16821.78857-.43982,1.06018ZM13,19.5c0,.41357-.16821.78857-.43982,1.06018s-.64661.43982-1.06018.43982-.78857-.16821-1.06018-.43982-.43982-.64661-.43982-1.06018c0-.41364.16821-.78864.43982-1.06024.27161-.27155.64661-.43976,1.06018-.43976s.78857.16821,1.06018.43976c.27161.27161.43982.64661.43982,1.06024ZM12.56018,11.56018c-.27161.27161-.64661.43982-1.06018.43982s-.78857-.16821-1.06018-.43982-.43982-.64661-.43982-1.06018c0-.41364.16821-.78864.43982-1.06024.27161-.27155.64661-.43976,1.06018-.43976s.78857.16821,1.06018.43976c.27161.27161.43982.64661.43982,1.06024,0,.41357-.16821.78857-.43982,1.06018ZM17,10.5c0-.41364.16821-.78864.43982-1.06024.27161-.27155.64661-.43976,1.06018-.43976s.78857.16821,1.06018.43976c.27161.27161.43982.64661.43982,1.06024,0,.41357-.16821.78857-.43982,1.06018s-.64661.43982-1.06018.43982-.78857-.16821-1.06018-.43982-.43982-.64661-.43982-1.06018ZM21.56018,19.56018c-.27161.27161-.64661.43982-1.06018.43982s-.78857-.16821-1.06018-.43982-.43982-.64661-.43982-1.06018c0-.41364.16821-.78864.43982-1.06024.27161-.27155.64661-.43976,1.06018-.43976s.78857.16821,1.06018.43976c.27161.27161.43982.64661.43982,1.06024,0,.41357-.16821.78857-.43982,1.06018Z"/><rect class="cls-1" width="24" height="24"/></svg>