<svg id="icons" xmlns="http://www.w3.org/2000/svg" viewBox="0 0 24 24"><path d="M20.1 16a4.1 4.1 0 1 0-4.1 4.1 4.104 4.104 0 0 0 4.1-4.1zM16 19a3 3 0 1 1 3-3 3.002 3.002 0 0 1-3 3z"/><path d="M24 15h-2.292A5.796 5.796 0 0 0 17 10.292V8h-2v2.292A5.796 5.796 0 0 0 10.292 15H8v2h2.292A5.796 5.796 0 0 0 15 21.708V24h2v-2.292A5.796 5.796 0 0 0 21.708 17H24zm-8 5.1a4.1 4.1 0 1 1 4.1-4.1 4.104 4.104 0 0 1-4.1 4.1zm3-4.1a3 3 0 1 1-3-3 3.002 3.002 0 0 1 3 3zM5.537 6L1.468 18l-.947-.321L4.48 6H3V1h5v2h9v1H8v2z"/></svg>