<svg id="icons" xmlns="http://www.w3.org/2000/svg" viewBox="0 0 32 32"><path d="M14 12V7h14V6H14V2H4v10h2.856L2.558 24.679l.947.321 4.407-13zM5 3h8v8H5zm26 19.293v.414l-3.146 3.146-.705.016-.003-.723L29.293 23H23v6.293l2.146-2.146.723.002-.015.705L22.707 31h-.414l-3.146-3.146-.016-.705.723-.003L22 29.293V23h-6.293l2.146 2.146-.002.723-.705-.015L14 22.707v-.414l3.146-3.146.705-.016.003.723L15.707 22H22v-6.293l-2.146 2.146-.723-.002.015-.705L22.293 14h.414l3.146 3.146.016.705-.723.003L23 15.707V22h6.293l-2.146-2.146.002-.723.705.015z"/></svg>