<svg id="icons" xmlns="http://www.w3.org/2000/svg" viewBox="0 0 32 32"><path d="M14 12V7h14V6H14V2H4v10h2.856L2.558 24.679l.947.321 4.407-13zM5 3h8v8H5zm25.645 11.882l-1.763-1.762a1.203 1.203 0 0 0-1.726-.037L14.79 25.449l-2.342 5.465a.306.306 0 0 0 .402.402l5.465-2.342 10.566-10.567v-.001l.001.002 1.8-1.8a1.203 1.203 0 0 0-.037-1.726zM14.05 29.714l1.403-3.274 1.87 1.87zm4.101-1.99l-2.112-2.111 9.758-9.757 2.111 2.11zm11.824-11.823l-1.36 1.359-2.11-2.111 1.358-1.36a.163.163 0 0 1 .121-.053.285.285 0 0 1 .193.092l1.76 1.761c.018.018.171.179.038.312z"/></svg>