<svg xmlns="http://www.w3.org/2000/svg" viewBox="0 0 32 32"><path d="M14 12V7h14V6H14V2H4v10h2.856L2.558 24.679l.947.321 4.407-13zM5 3h8v8H5zm26.352 8.346L29.59 9.584a1.203 1.203 0 0 0-1.727-.037L11.962 25.45l-2.343 5.465a.306.306 0 0 0 .403.402l5.465-2.342 14.1-14.102v-.002l.002.002 1.8-1.8a1.203 1.203 0 0 0-.037-1.726zm-20.13 18.368l1.402-3.274 1.871 1.87zm4.1-1.99l-2.111-2.111L26.504 12.32l2.111 2.111zm15.36-15.359l-1.36 1.36-2.11-2.112 1.358-1.359a.163.163 0 0 1 .121-.054.285.285 0 0 1 .193.092l1.76 1.761c.018.018.171.18.038.312z"/></svg>