<svg xmlns="http://www.w3.org/2000/svg" viewBox="0 0 24 24"><path d="M19.69 4H10V2H3v7h1.803L1.52 18.679l.947.321 3.39-10H10V5h8.52l.57-.57a2.446 2.446 0 0 1 .6-.43zM9 8H4V3h5zm12.536-2.48a.965.965 0 0 0-1.385-.03l-1.656 1.656L6.998 18.643 5.242 22.74a.371.371 0 0 0 .488.487l4.096-1.756L21.323 9.974 22.98 8.32a.965.965 0 0 0-.03-1.385zM6.78 21.688l.962-2.24 1.28 1.28zm3.015-1.6l-1.413-1.414L19.174 7.881l1.414 1.414zM21.952 7.932l-.657.656-1.414-1.414.674-.674a.42.42 0 0 1 .599.007l.804.838a.42.42 0 0 1-.006.587z"/></svg>