<?xml version="1.0" encoding="UTF-8"?><svg id="icons" xmlns="http://www.w3.org/2000/svg" viewBox="0 0 32 32"><path d="m8,13h-2v-1h2v1Zm3-1h-2v1h2v-1Zm3,0h-2v1h2v-1Zm-6,6h-2v1h2v-1Zm3,0h-2v1h2v-1Zm3,0h-2v1h2v-1Zm-6-12h-2v1h2v-1Zm3,0h-2v1h2v-1Zm3,0h-2v1h2v-1Zm1.36899,16H3V3h26v15.92258c-.30219-.36365-.63757-.69849-1-1.00214v-1.92044H4v5h11.7012c-.1347.32208-.24121.65784-.33221,1ZM4,9h24v-5H4v5Zm0,6h24v-5H4v5Zm19,2.20001c-3.76001,0-6.79999,3.03998-6.79999,6.79999s3.03998,6.79999,6.79999,6.79999,6.79999-3.03998,6.79999-6.79999-3.03998-6.79999-6.79999-6.79999Zm0,12.59998c-3.20001,0-5.79999-2.59998-5.79999-5.79999s2.59998-5.79999,5.79999-5.79999,5.79999,2.59998,5.79999,5.79999-2.59998,5.79999-5.79999,5.79999Zm4-5.79999l-6,4v-8l6,4Zm-5,2.13184l3.19727-2.13184-3.19727-2.13184v4.26367Z"/><path fill="none" d="M0 0h32v32H0z"/></svg>