<?xml version="1.0" encoding="UTF-8"?><svg id="icons" xmlns="http://www.w3.org/2000/svg" viewBox="0 0 32 32"><path d="m8,13h-2v-1h2v1Zm3-1h-2v1h2v-1Zm3,0h-2v1h2v-1Zm2.92044,3H4v-5h24v3.92044c.36243.30365.69781.63849,1,1.00214v-5.92258H3v7h13.21567c.21088-.35101.44305-.68756.70477-1Zm12.87955,5.00006c0,3.75543-3.0437,6.79993-6.79999,6.79993-3.75537,0-6.79999-3.04449-6.79999-6.79993,0-3.75641,3.04462-6.80005,6.79999-6.80005,3.75629,0,6.79999,3.04364,6.79999,6.80005Zm-1,.00024c0-3.19855-2.60126-5.80029-5.79999-5.80029s-5.79999,2.60175-5.79999,5.80029,2.60132,5.79968,5.79999,5.79968,5.79999-2.60114,5.79999-5.79968Zm-1.79999-.00031l-6,4v-8l6,4Zm-5,2.13184l3.19727-2.13184-3.19727-2.13184v4.26367Z"/><path fill="none" d="M0 0h32v32H0z"/></svg>