<?xml version="1.0" encoding="UTF-8"?><svg id="icons" xmlns="http://www.w3.org/2000/svg" viewBox="0 0 16 16"><path d="m4,7h-1v-1h1v1Zm2-1h-1v1h1v-1Zm2,0h-1v1h1v-1Zm-.06357,2H2v-3h12v1.28665c.36163.15234.69006.35864,1,.58887v-2.87552H1v5h6.32791c.15997-.36035.37103-.68982.60852-1Zm8.03857,3c0,2.19524-1.69024,3.975-3.91738,3.975s-4.03262-1.77976-4.03262-3.975c0-2.19536,1.80548-3.975,4.03262-3.975s3.91738,1.77964,3.91738,3.975Zm-.975,0c0-1.65411-1.34589-3-3-3s-3,1.34589-3,3,1.34589,3,3,3,3-1.34589,3-3Zm-4-2v4l3-2-3-2Z"/><path fill="none" d="M0 0h16v16H0z"/></svg>