<?xml version="1.0" encoding="UTF-8"?><svg id="icons" xmlns="http://www.w3.org/2000/svg" viewBox="0 0 16 16"><path d="m4,4h-1v-1h1v1Zm2-1h-1v1h1v-1Zm2,0h-1v1h1v-1Zm-4,4h-1v1h1v-1Zm2,0h-1v1h1v-1Zm2,0h-1v1h1v-1Zm-.67209,3H1V1h14v6.87552c-.30994-.23022-.63837-.43652-1-.58887v-1.28665H2v3h5.93643c-.23749.31018-.44855.63965-.60852,1ZM2,5h12v-3H2v3Zm14,7c0,2.20905-1.70087,4-3.94202,4s-4.05798-1.79095-4.05798-4c0-2.20917,1.81683-4,4.05798-4s3.94202,1.79083,3.94202,4Zm-1,0c0-1.65411-1.34589-3-3-3s-3,1.34589-3,3,1.34589,3,3,3,3-1.34589,3-3Zm-4-2v4l3-2-3-2Z"/><path fill="none" d="M0 0h16v16H0z"/></svg>