<?xml version="1.0" encoding="UTF-8"?><svg id="icons" xmlns="http://www.w3.org/2000/svg" viewBox="0 0 24 24"><defs><style>.cls-1{fill:none;}.cls-1,.cls-2{stroke-width:0px;}</style></defs><rect class="cls-1" width="24" height="24"/><path class="cls-2" d="M16.31079,3.20001c1.55054,0,2.92725.3801,3.62988.61502l2.67432,15.87149c-1.00342-.26648-2.4165-.52042-4.15747-.52042-2.7395,0-4.52441.42941-6.25073.8447-1.68701.40582-3.28052.78918-5.78296.78918-1.99878,0-3.49316-.38089-4.30005-.65024l2.72363-15.80664c.89062.2146,2.22729.45688,3.72314.45688,2.12158,0,3.25244-.4649,4.25024-.87509.94629-.38898,1.76343-.72488,3.48999-.72488M16.31079,2.20001c-3.84814,0-3.89209,1.59998-7.74023,1.59998-2.48584,0-4.51978-.72202-4.51978-.72202L1,20.78305s2.03394,1.01694,5.42383,1.01694c5.24194,0,6.79175-1.63388,12.03369-1.63388,3.38989,0,5.42383,1.01694,5.42383,1.01694l-3.05078-18.10507s-2.03394-.87796-4.51978-.87796h0ZM12.50562,6.00562c-3.02954,0-5.49438,2.46472-5.49438,5.49438s2.46484,5.49438,5.49438,5.49438,5.49438-2.46478,5.49438-5.49438-2.46484-5.49438-5.49438-5.49438ZM12.5,16c-2.48096,0-4.5-2.01898-4.5-4.5s2.01904-4.5,4.5-4.5,4.5,2.01898,4.5,4.5-2.01904,4.5-4.5,4.5ZM11,8v7l5-3.5-5-3.5ZM12,9.9209l2.25635,1.5791-2.25635,1.5791v-3.1582Z"/></svg>