<?xml version="1.0" encoding="UTF-8"?><svg id="icons" xmlns="http://www.w3.org/2000/svg" viewBox="0 0 32 32"><defs><style>.cls-1{fill:none;}.cls-1,.cls-2{stroke-width:0px;}</style></defs><rect class="cls-1" y="0" width="32" height="32"/><path class="cls-2" d="M31,28s-3.09333-.8-7.53778-.8c-6.87635,0-8.04809,2.6-14.92445,2.6-4.44444,0-7.53778-1.8-7.53778-1.8L5,3.9c.69921.23307,2.51883.96826,5.33915.96826,4.80807,0,5.59075-1.65715,10.73492-1.65715,3.25926,0,5.92593.68889,5.92593.68889l4,24.1ZM15.69287,27.54834c2.05176-.6626,4.17383-1.34814,7.76953-1.34814,2.72607,0,4.94873.29004,6.31299.52783l-3.65137-21.99951c-.9458-.19287-2.8623-.51758-5.0498-.51758-2.47461,0-3.84229.39355-5.29004.81055-1.44531.4165-2.94043.84668-5.44482.84668-2.00537,0-3.52783-.3457-4.54443-.65088l-3.6875,22.2168c1.06055.47949,3.42725,1.36572,6.43018,1.36572,3.28076,0,5.1626-.60791,7.15527-1.25146ZM22.7999,16c0,3.76001-3.03994,6.79999-6.7999,6.79999s-6.7999-3.03998-6.7999-6.79999,3.03994-6.79999,6.7999-6.79999,6.7999,3.03998,6.7999,6.79999ZM21.79991,16c0-3.20001-2.59994-5.79999-5.79991-5.79999s-5.79991,2.59998-5.79991,5.79999,2.59994,5.79999,5.79991,5.79999,5.79991-2.59998,5.79991-5.79999ZM14.00009,12v8l6-4-6-4ZM15.00009,13.86816l3.19727,2.13184-3.19727,2.13184v-4.26367Z"/></svg>