<?xml version="1.0" encoding="UTF-8"?><svg id="icons" xmlns="http://www.w3.org/2000/svg" viewBox="0 0 16 16"><defs><style>.cls-1{fill:none;}.cls-1,.cls-2{stroke-width:0px;}</style></defs><rect class="cls-1" y="0" width="16" height="16"/><path class="cls-2" d="M10.70605,2.01431c.93286,0,1.77417.22882,2.26953.39847l1.72021,10.16315c-.67603-.21161-1.5144-.37592-2.48853-.37592-1.99658,0-3.28271.43329-4.52661.85233-1.14111.38449-2.21899.74765-3.88794.74765-1.17725,0-2.09424-.19424-2.66821-.3627L2.9353,2.73993c.62256.13382,1.45068.26007,2.35864.26007,1.5188,0,2.32935-.29343,3.04443-.55234.64233-.23251,1.19727-.43335,2.36768-.43335M10.70605,1.01431c-2.69092,0-2.72461.98569-5.41211.98569-1.73828,0-3.16113-.51172-3.16113-.51172L0,14.08908s1.42236.71091,3.79272.71091c3.66553,0,4.74902-1.59998,8.41455-1.59998,2.37036,0,3.79272,1.08905,3.79272,1.08905L13.86719,1.68826s-1.42285-.67395-3.16113-.67395h0ZM8.06348,4.00562c-2.23804,0-4.05225,1.78833-4.05225,3.99438,0,2.20593,1.81421,3.99438,4.05225,3.99438s3.93652-1.78845,3.93652-3.99438c0-2.20605-1.69849-3.99438-3.93652-3.99438ZM8,11c-1.65405,0-3-1.34589-3-3s1.34595-3,3-3,3,1.34589,3,3-1.34595,3-3,3ZM7,6v4l3-2-3-2Z"/></svg>