<svg xmlns="http://www.w3.org/2000/svg" viewBox="0 0 24 24"><path d="M11.849 15.834l3.985-3.985a3.387 3.387 0 01-3.985 3.985zm11.72-3.675a23.541 23.541 0 00-3.929-4.116l-1.262 1.263A21.706 21.706 0 0121.61 12.5c-1.617 1.96-5.155 5.6-9.111 5.6a7.374 7.374 0 01-2.463-.454l-1.372 1.372a9.42 9.42 0 003.835.882c6.068 0 10.868-6.81 11.07-7.058l.277-.341zm-3.362-7.366L4.793 20.207l-1.137-1.136 1.932-1.932a23.355 23.355 0 01-4.158-4.297l-.277-.342.277-.341C1.632 11.91 6.432 5.1 12.5 5.1a9.524 9.524 0 014.11 1.017l2.461-2.46zM6.867 15.859l2.38-2.378A3.35 3.35 0 019.1 12.5a3.4 3.4 0 013.4-3.4 3.35 3.35 0 01.98.146l1.785-1.784A7.521 7.521 0 0012.5 6.9c-3.957 0-7.494 3.64-9.111 5.6a21.552 21.552 0 003.479 3.36z"/></svg>