<svg xmlns="http://www.w3.org/2000/svg" viewBox="0 0 16 16"><path d="M16.13 7.5l-.234.305C15.765 7.976 12.624 12 8.56 12a6.866 6.866 0 0 1-2.168-.367l.811-.812A5.575 5.575 0 0 0 8.56 11c2.97 0 5.5-2.596 6.29-3.5a13.27 13.27 0 0 0-2.277-2.05l.722-.72a13.643 13.643 0 0 1 2.602 2.465zM5.537 10.175l-.739.74-.003-.002-2.274 2.274-.707-.707 2.107-2.107a14.17 14.17 0 0 1-2.81-2.561L.86 7.5l.25-.312C1.245 7.018 4.497 3 8.558 3a6.83 6.83 0 0 1 2.31.425L13.48.813l.707.707-2.331 2.331.003.002-.75.75-.004-.001-1.14 1.14.003.002-3.224 3.224-.002-.003-1.209 1.209zm-.89-.528l1.62-1.62a2.28 2.28 0 0 1 2.76-2.76l1.046-1.046A5.58 5.58 0 0 0 8.56 4C5.599 4 2.99 6.589 2.163 7.5a13.759 13.759 0 0 0 2.484 2.147zM10.8 7.5a2.29 2.29 0 0 0-.06-.503L7.998 9.741A2.286 2.286 0 0 0 10.8 7.5z"/></svg>