<svg xmlns="http://www.w3.org/2000/svg" viewBox="0 0 24 24"><path d="M12 1.1A1.9 1.9 0 1110.1 3 1.9 1.9 0 0112 1.1zm3.967 20.937a1.088 1.088 0 002.081-.496.953.953 0 00-.03-.202c-.03-.113-1.66-5.078-1.66-5.078l-2.426-3.378-.293-5.403c-.067-1.287-1.823-1.449-3.401-1.579-.945 1.6-2.48 4.575-3.125 5.838a.721.721 0 00.265.942.74.74 0 001.033-.264l2.104-3.72.258 4.338 3.47 4.144zM9.62 16.355L6.554 20.64a1.087 1.087 0 101.808 1.2l3.227-4.285.244-1.156-1.612-1.937zM18 10.937l-2.956-1.76c.034.672.071 1.363.102 1.948.61.37 1.419.952 2.03 1.321A.881.881 0 0018 10.938z"/></svg>