<svg xmlns="http://www.w3.org/2000/svg" viewBox="0 0 16 16"><path d="M7.5 0A7.5 7.5 0 1015 7.5 7.5 7.5 0 007.5 0zM1.025 8h1.99a11.67 11.67 0 00.491 3H2.032a6.45 6.45 0 01-1.007-3zM8 3V1.078A3.566 3.566 0 019.996 3zm2.428 1a10.45 10.45 0 01.558 3H8V4zM7 1.078V3H5.004A3.566 3.566 0 017 1.078zM7 4v3H4.014a10.45 10.45 0 01.558-3zM3.015 7h-1.99a6.45 6.45 0 011.006-3h1.475a11.67 11.67 0 00-.491 3zm1 1H7v3H4.572a10.45 10.45 0 01-.558-3zM7 12v1.922A3.566 3.566 0 015.004 12zm1 1.922V12h1.996A3.566 3.566 0 018 13.922zM8 11V8h2.986a10.45 10.45 0 01-.558 3zm3.985-3h1.99a6.45 6.45 0 01-1.007 3h-1.474a11.67 11.67 0 00.491-3zm0-1a11.67 11.67 0 00-.491-3h1.475a6.45 6.45 0 011.006 3zm.195-4h-1.063a7.111 7.111 0 00-.754-1.327A6.525 6.525 0 0112.18 3zM4.637 1.673A7.111 7.111 0 003.883 3H2.82a6.525 6.525 0 011.817-1.327zM2.82 12h1.062a7.112 7.112 0 00.754 1.326A6.526 6.526 0 012.82 12zm7.542 1.326A7.112 7.112 0 0011.117 12h1.062a6.526 6.526 0 01-1.816 1.326z"/></svg>