<svg id="icons" xmlns="http://www.w3.org/2000/svg" viewBox="0 0 16 16"><path d="M1.76 12a7.284 7.284 0 0 0 11.48 0h.005v-.006a7.27 7.27 0 0 0 0-8.988V3h-.005A7.284 7.284 0 0 0 1.76 3h-.005v.006a7.27 7.27 0 0 0 0 8.988V12zm1.773-8a11.035 11.035 0 0 0-.518 3h-1.79a6.26 6.26 0 0 1 1.04-3zm9.202 0a6.26 6.26 0 0 1 1.04 3h-1.79a11.035 11.035 0 0 0-.518-3zm-1.268 7a11.043 11.043 0 0 0 .518-3.001h1.79A6.263 6.263 0 0 1 12.735 11zM7 12v1.725A3.422 3.422 0 0 1 5.081 12zm-2.39-1a9.799 9.799 0 0 1-.595-3H7v3zM8 13.725V12h1.919A3.422 3.422 0 0 1 8 13.725zM8 11V7.999h2.985A9.805 9.805 0 0 1 10.39 11zm2.985-4H8V4h2.39a9.799 9.799 0 0 1 .595 3zM8 3V1.275A3.422 3.422 0 0 1 9.919 3zM7 1.275V3H5.081A3.422 3.422 0 0 1 7 1.275zM7 4v3H4.015a9.799 9.799 0 0 1 .595-3zM3.015 8a11.035 11.035 0 0 0 .518 3H2.265a6.259 6.259 0 0 1-1.04-3zm.923 4a6.861 6.861 0 0 0 .628 1.07A6.328 6.328 0 0 1 3.1 12zm6.496 1.07a6.861 6.861 0 0 0 .628-1.07h.838a6.328 6.328 0 0 1-1.466 1.07zM11.062 3a6.86 6.86 0 0 0-.628-1.07A6.327 6.327 0 0 1 11.901 3zM4.566 1.93A6.86 6.86 0 0 0 3.938 3h-.839a6.327 6.327 0 0 1 1.467-1.07z"/></svg>