<svg xmlns="http://www.w3.org/2000/svg" viewBox="0 0 16 16"><path d="M7.5 0A7.5 7.5 0 1015 7.5 7.5 7.5 0 007.5 0zm2.28 3H8V1.525a5.971 5.971 0 01.642.087A4.13 4.13 0 019.781 3zm1.133-.428a6.027 6.027 0 01.542.428h-.338a8.031 8.031 0 00-.204-.428zM7 8v3H4.775a10.323 10.323 0 01-.561-3zM4.214 7a10.323 10.323 0 01.56-3H7v3zM8 8h2.786a10.323 10.323 0 01-.56 3H8zm0-1V4h2.225a10.323 10.323 0 01.561 3zM7 1.525V3H5.22a4.13 4.13 0 011.138-1.388A5.971 5.971 0 017 1.525zM3.883 3h-.338a6.027 6.027 0 01.542-.428A8.031 8.031 0 003.883 3zm-.377 1a11.67 11.67 0 00-.491 3h-1.49a5.957 5.957 0 011.111-3zm-.491 4a11.67 11.67 0 00.491 3h-.87a5.957 5.957 0 01-1.11-3zm.868 4c.065.147.132.29.203.428A6.01 6.01 0 013.545 12zm1.336 0H7v1.475a5.975 5.975 0 01-.642-.087A4.13 4.13 0 015.219 12zM8 13.475V12h1.78a4.13 4.13 0 01-1.138 1.388 5.975 5.975 0 01-.642.087zM11.117 12h.338a6.01 6.01 0 01-.541.428c.071-.138.138-.281.203-.428zm.377-1a11.67 11.67 0 00.491-3h1.49a5.957 5.957 0 01-1.112 3zm.491-4a11.67 11.67 0 00-.491-3h.87a5.957 5.957 0 011.11 3z"/></svg>