<svg id="icons" xmlns="http://www.w3.org/2000/svg" viewBox="0 0 32 32"><path d="M29.8 15.5a14.3 14.3 0 1 0-14.3 14.3 14.3 14.3 0 0 0 14.3-14.3zM15 2.245V8H9.312C10.575 4.732 12.64 2.523 15 2.245zM9.312 23H15v5.755c-2.36-.278-4.425-2.487-5.688-5.755zM21.688 8H16V2.245c2.36.278 4.425 2.487 5.688 5.755zM16 28.755v-5.756h5.688c-1.263 3.268-3.328 5.478-5.688 5.756zM15 9v6H8.014a21.46 21.46 0 0 1 .95-6zM8.963 22a21.46 21.46 0 0 1-.949-6H15v6zM22.037 9a21.46 21.46 0 0 1 .949 6H16V9zM16 22v-6.001h6.986a21.467 21.467 0 0 1-.95 6.001zm-8.985-7h-4.79a13.222 13.222 0 0 1 1.678-6.001h4.035A22.25 22.25 0 0 0 7.015 15zm.923 7H3.903a13.218 13.218 0 0 1-1.678-6h4.79a22.243 22.243 0 0 0 .923 6zM23.062 9h4.035a13.218 13.218 0 0 1 1.678 6h-4.79a22.243 22.243 0 0 0-.923-6zm.923 6.999h4.79A13.222 13.222 0 0 1 27.097 22h-4.035a22.25 22.25 0 0 0 .923-6.001zM11.645 2.772A12.605 12.605 0 0 0 8.276 8H4.519a13.322 13.322 0 0 1 7.125-5.228zM4.518 23h3.758a12.605 12.605 0 0 0 3.367 5.228A13.322 13.322 0 0 1 4.52 23zM26.481 8h-3.758a12.605 12.605 0 0 0-3.367-5.228A13.322 13.322 0 0 1 26.48 8zm-7.125 20.228a12.609 12.609 0 0 0 3.367-5.229h3.758a13.323 13.323 0 0 1-7.125 5.229z"/></svg>