<svg xmlns="http://www.w3.org/2000/svg" viewBox="0 0 32 32"><path d="M20.05 18.999a8.986 8.986 0 00-.573-.999h4.935a1.175 1.175 0 011.123 1.521l-2.596 8.4a1.5 1.5 0 11-2.878-.846l1.934-6.077h-1.227a8.866 8.866 0 00-.294-.998h2.237a.455.455 0 01.435.592l-2.125 6.765a.5.5 0 00.337.62.52.52 0 00.142.022.502.502 0 00.48-.36l2.504-8.05a.455.455 0 00-.434-.59zM5.752 12.166a1.5 1.5 0 102.496 1.664l2.555-3.832h4.154l-2.005 4.054a8.92 8.92 0 011.03.175l2.207-4.377a.519.519 0 00-.464-.752h-5.457l-2.852 4.177a.5.5 0 01-.832-.554l3.148-4.723c6.678.009 6.238-.022 6.401.025l.286.082 2.197 1.35a1.026 1.026 0 01.407 1.36l-2.084 4.67a9.053 9.053 0 01.816.603l2.162-4.825a2.036 2.036 0 00-.854-2.702l-2.277-1.358A1.439 1.439 0 0016.047 7H9.461a.493.493 0 00-.41.22zM12 16a7 7 0 107 7 7 7 0 00-7-7zm0 13.1a6.1 6.1 0 116.1-6.1 6.107 6.107 0 01-6.1 6.1zM23 5.5A2.5 2.5 0 1120.5 3 2.5 2.5 0 0123 5.5zm-.9 0a1.6 1.6 0 10-1.6 1.6 1.6 1.6 0 001.6-1.6z"/></svg>