<svg xmlns="http://www.w3.org/2000/svg" viewBox="0 0 24 24"><path d="M10.938 10.142L12.492 7H9.285L7.332 9.93a1 1 0 01-1.664-1.11L8.215 5h5.035a.957.957 0 01.21.042L13.481 5l2.366 1.147a1.527 1.527 0 01.641 2.027l-1.91 3.822a7.475 7.475 0 00-3.64-1.854zm8.72 2.899a.977.977 0 00-.485-.006A.947.947 0 0019 13h-3.514a7.48 7.48 0 011.076 2h1.476l-1.274 4.333c-.05.2-.108.399-.174.593l-.05.167a1 1 0 101.92.564l1.874-6.375a1 1 0 00-.677-1.241zM15 17.5A5.5 5.5 0 119.5 12a5.5 5.5 0 015.5 5.5zm-2 0A3.5 3.5 0 109.5 21a3.504 3.504 0 003.5-3.5zm5.9-14.501A1.9 1.9 0 1017 4.9a1.9 1.9 0 001.9-1.901z"/></svg>