<svg xmlns="http://www.w3.org/2000/svg" viewBox="0 0 24 24"><path d="M5.945 10.207a1 1 0 01-.277-1.387l2.409-3.613A.466.466 0 018.464 5h4.91a.463.463 0 01.204.047l2.27 1.1a1.527 1.527 0 01.64 2.027l-1.91 3.822a7.53 7.53 0 00-.634-.523l1.828-3.657a.718.718 0 00-.274-.95l-2.102-1.018-.146-.048H8.643l-2.31 3.464a.2.2 0 00.057.278.191.191 0 00.109.033.2.2 0 00.168-.09L8.857 6.2h3.834a.676.676 0 01.606.976l-1.565 3.163a7.427 7.427 0 00-.794-.197l1.456-2.944A.137.137 0 0012.27 7H9.285L7.332 9.93a1 1 0 01-1.387.277zm13.712 2.833A1.937 1.937 0 0019 13h-3.514a7.52 7.52 0 01.53.8h2.92l.403.018c.183.016.255.148.228.239l-1.875 6.375a.198.198 0 01-.248.135.225.225 0 01-.136-.249l1.8-6.118h-2.883a7.442 7.442 0 01.337.8h1.476l-1.274 4.333c-.05.2-.108.399-.174.593l-.05.167a1 1 0 101.92.564l1.874-6.375a1 1 0 00-.677-1.241zM9.5 12a5.5 5.5 0 105.5 5.5A5.5 5.5 0 009.5 12zm0 10.1a4.6 4.6 0 114.6-4.6 4.605 4.605 0 01-4.6 4.6zM19 3a2 2 0 11-2-2 2 2 0 012 2zm-1.8 1.2a1 1 0 001-1v-.4a1 1 0 00-1-1h-.4a1 1 0 00-1 1v.4a1 1 0 001 1z"/></svg>