<?xml version="1.0" encoding="UTF-8"?><svg id="icons" xmlns="http://www.w3.org/2000/svg" viewBox="0 0 32 32"><path d="M8,12v1h-2v-1h2Zm1,0v1h2v-1h-2Zm3,0v1h2v-1h-2ZM29,3V14h-1v-4H4v5H14v1H4v5H14v1H3V3H29Zm-1,1H4v5H28V4ZM6,18v1h2v-1h-2Zm3,0v1h2v-1h-2Zm3,0v1h2v-1h-2ZM6,7h2v-1h-2v1Zm3,0h2v-1h-2v1Zm3,0h2v-1h-2v1Zm11.5,18l2.5,2.5-2.5,2.5-2-2h-3.5c-.55231,0-1-.44775-1-1v-2h-2v-4h2v-2.01782c-1.14056-.23987-2-1.25287-2-2.46368,0-1.38867,1.12982-2.51849,2.51849-2.51849s2.47855,1.12982,2.47855,2.51849c0,1.22382-.83817,2.2442-1.99705,2.46985v2.01166h2v4h-2v2h3.5l2-2Zm-5.98145-6.96289c.8374,0,1.51855-.68115,1.51855-1.51855s-.68115-1.51855-1.51855-1.51855-1.51855,.68115-1.51855,1.51855,.68115,1.51855,1.51855,1.51855Zm1.48145,5.96289v-2h-3v2h3Zm5.58594,3.5l-1.08594-1.08594-1.08594,1.08594,1.08594,1.08594,1.08594-1.08594Zm4.41406-11.5h-5.08594l1.29297-1.29297-.70703-.70703-2.5,2.5,2.5,2.5,.70703-.70703-1.29297-1.29297h5.08594v10h-1v1h1c.55231,0,1-.44775,1-1v-10c0-.55231-.44769-1-1-1Z"/><path fill="none" d="M0 0h32v32H0z"/></svg>