<?xml version="1.0" encoding="UTF-8"?><svg id="icons" xmlns="http://www.w3.org/2000/svg" viewBox="0 0 24 24"><path d="M5,4h1v1h-1v-1Zm2,1h1v-1h-1v1Zm15-3V10h-1v-3H3v3H11v1H3v3H11v1H2V2H22Zm-1,1H3v3H21V3ZM5,8v1h1v-1h-1Zm2,0v1h1v-1h-1Zm-2,4v1h1v-1h-1Zm2,0v1h1v-1h-1Zm2-7h1v-1h-1v1Zm0,3v1h1v-1h-1Zm0,4v1h1v-1h-1Zm13,0h-4.08594l.29297-.29297-.70703-.70703-1.5,1.5,1.5,1.5,.70703-.70703-.29297-.29297h4.08594v8h-1v1h1c.55231,0,1-.44775,1-1V13c0-.55231-.44769-1-1-1Zm-2.38,9.5l-2.12,2.12-1.62-1.62h-1.88c-.54999,0-1-.45001-1-1v-2h-1v-3h1v-2.09003c-.58002-.20996-1-.76001-1-1.40997,0-.83002,.66998-1.5,1.5-1.5s1.5,.66998,1.5,1.5c0,.64996-.41998,1.20001-1,1.40997v2.09003h1v3h-1v2h1.88l1.62-1.62,2.12,2.12Zm-6.62-8.5h1v-1h-1v1Zm1,5v-1h-1v1h1Zm3.5,4.20996l.71002-.70996-.71002-.71002-.71002,.71002,.71002,.70996Z"/><path fill="none" d="M0 0h24v24H0z"/></svg>